<svg class="main-svg" xmlns="http://www.w3.org/2000/svg" xmlns:xlink="http://www.w3.org/1999/xlink" width="1600" height="900" style="" viewBox="0 0 1600 900"><rect x="0" y="0" width="1600" height="900" style="fill: rgb(255, 255, 255); fill-opacity: 1;"/><defs id="defs-ce5264"><g class="clips"/><g class="gradients"/><g class="patterns"/></defs><g class="bglayer"/><g class="layer-below"><g class="imagelayer"/><g class="shapelayer"/></g><g class="cartesianlayer"/><g class="polarlayer"/><g class="smithlayer"/><g class="ternarylayer"/><g class="geolayer"/><g class="funnelarealayer"/><g class="pielayer"/><g class="iciclelayer"/><g class="treemaplayer"/><g class="sunburstlayer"/><g class="glimages"/><g class="sankey" transform="translate(80,100)matrix(1 0 0 1 0 0)" style="box-sizing: content-box; position: absolute; left: 0px; shape-rendering: geometricprecision; pointer-events: none;"><g class="sankey-links" style="fill: none;"><path class="sankey-link" d="M25,25.717583173486304C269.704425711275,25.717583173486304 269.704425711275,31.394977784803217 514.40885142255,31.394977784803217L514.40885142255,202.84553227471497C269.704425711275,202.84553227471497 269.704425711275,197.16813766339806 25,197.16813766339806Z" style="stroke: rgb(68, 68, 68); stroke-opacity: 1; fill: rgb(255, 107, 107); fill-opacity: 1; stroke-width: 0; opacity: 1;"/><path class="sankey-link" d="M25,197.168137663398C141.1022128556375,197.168137663398 141.1022128556375,215.4642930851739 257.204425711275,215.4642930851739L257.204425711275,352.6247366771033C141.1022128556375,352.6247366771033 141.1022128556375,334.3285812553274 25,334.3285812553274Z" style="stroke: rgb(68, 68, 68); stroke-opacity: 1; fill: rgb(255, 107, 107); fill-opacity: 1; stroke-width: 0; opacity: 1;"/><path class="sankey-link" d="M25,395.88409283260813C655.5110642781875,395.88409283260813 655.5110642781875,275.86870468967055 1286.022128556375,275.86870468967055L1286.022128556375,481.6093700775646C655.5110642781875,481.6093700775646 655.5110642781875,601.6247582205023 25,601.6247582205023Z" style="stroke: rgb(68, 68, 68); stroke-opacity: 1; fill: rgb(255, 107, 107); fill-opacity: 1; stroke-width: 0; opacity: 1;"/><path class="sankey-link" d="M539.40885142255,159.9828936522369C655.5110642781875,159.9828936522369 655.5110642781875,335.8763987611396 771.613277133825,335.8763987611396L771.613277133825,490.18189780206023C655.5110642781875,490.18189780206023 655.5110642781875,314.2883926931575 539.40885142255,314.2883926931575Z" style="stroke: rgb(68, 68, 68); stroke-opacity: 1; fill: rgb(78, 205, 196); fill-opacity: 1; stroke-width: 0; opacity: 1;"/><path class="sankey-link" d="M282.204425711275,215.46429308517386C398.3066385669125,215.46429308517386 398.3066385669125,202.84553227471488 514.40885142255,202.84553227471488L514.40885142255,322.8609204176531C398.3066385669125,322.8609204176531 398.3066385669125,335.4796812281121 282.204425711275,335.4796812281121Z" style="stroke: rgb(68, 68, 68); stroke-opacity: 1; fill: rgb(78, 205, 196); fill-opacity: 1; stroke-width: 0; opacity: 1;"/><path class="sankey-link" d="M 771.613277133825 498.75442552655585  L 766.613277133825 498.75442552655585 A 112.87033269394705 112.87033269394705 0 0 0 653.7429444398779 611.6247582205029 L 653.7429444398779 788.0753127104147 A 112.87033269394705 112.87033269394705 0 0 0 766.613277133825 900.9456454043618 L 1316.022128556375 900.9456454043618 A 284.3208871838588 284.3208871838588 0 0 0 1600.3430157402338 616.6247582205029 L 1600.3430157402338 611.6247582205028 A 284.3208871838588 284.3208871838588 0 0 0 1316.022128556375 327.30387103664407 L 1311.022128556375 327.30387103664407 L 1311.022128556375 430.1742037305911 L 1316.022128556375 430.1742037305911 A 181.45055448991175 181.45055448991175 0 0 1 1497.4726830462866 611.6247582205028 L 1497.4726830462866 616.6247582205029 A 181.45055448991175 181.45055448991175 0 0 1 1316.022128556375 798.0753127104147 L 766.613277133825 798.0753127104147 A 10 10 0 0 1 756.613277133825 788.0753127104147 L 756.613277133825 611.6247582205029 A 10 10 0 0 1 766.613277133825 601.6247582205029 L 771.613277133825 601.6247582205029Z" style="stroke: rgb(68, 68, 68); stroke-opacity: 1; fill: rgb(78, 205, 196); fill-opacity: 1; stroke-width: 0; opacity: 1;"/><path class="sankey-link" d="M796.613277133825,335.8763987611396C912.7154899894625,335.8763987611396 912.7154899894625,284.44123241416605 1028.8177028451,284.44123241416605L1028.8177028451,430.1742037305911C912.7154899894625,430.1742037305911 912.7154899894625,481.6093700775647 796.613277133825,481.6093700775647Z" style="stroke: rgb(68, 68, 68); stroke-opacity: 1; fill: rgb(149, 225, 211); fill-opacity: 1; stroke-width: 0; opacity: 1;"/><path class="sankey-link" d="M 1028.8177028451 430.17420373059116  L 1023.8177028451 430.17420373059116 A 181.45055448991175 181.45055448991175 0 0 0 842.3671483551882 611.6247582205029 L 842.3671483551882 616.624758220503 A 181.45055448991175 181.45055448991175 0 0 0 1023.8177028451 798.0753127104149 L 1316.022128556375 798.0753127104149 A 181.45055448991175 181.45055448991175 0 0 0 1497.4726830462866 616.624758220503 L 1497.4726830462866 611.6247582205029 A 181.45055448991175 181.45055448991175 0 0 0 1316.022128556375 430.17420373059116 L 1311.022128556375 430.17420373059116 L 1311.022128556375 601.6247582205029 L 1316.022128556375 601.6247582205029 A 10 10 0 0 1 1326.022128556375 611.6247582205029 L 1326.022128556375 616.624758220503 A 10 10 0 0 1 1316.022128556375 626.624758220503 L 1023.8177028451 626.624758220503 A 10 10 0 0 1 1013.8177028451 616.624758220503 L 1013.8177028451 611.6247582205029 A 10 10 0 0 1 1023.8177028451 601.6247582205029 L 1028.8177028451 601.6247582205029Z" style="stroke: rgb(68, 68, 68); stroke-opacity: 1; fill: rgb(149, 225, 211); fill-opacity: 1; stroke-width: 0; opacity: 1;"/><path class="sankey-link" d="M539.40885142255,31.394977784803203C912.7154899894625,31.394977784803203 912.7154899894625,4.263256414560601e-14 1286.022128556375,4.263256414560601e-14L1286.022128556375,128.58791586743382C912.7154899894625,128.58791586743382 912.7154899894625,159.982893652237 539.40885142255,159.982893652237Z" style="stroke: rgb(68, 68, 68); stroke-opacity: 1; fill: rgb(149, 225, 211); fill-opacity: 1; stroke-width: 0; opacity: 1;"/><path class="sankey-link" d="M796.613277133825,481.6093700775647C1041.3177028451,481.6093700775647 1041.3177028451,481.6093700775647 1286.022128556375,481.6093700775647L1286.022128556375,601.6247582205029C1041.3177028451,601.6247582205029 1041.3177028451,601.6247582205029 796.613277133825,601.6247582205029Z" style="stroke: rgb(68, 68, 68); stroke-opacity: 1; fill: rgb(243, 129, 129); fill-opacity: 1; stroke-width: 0; opacity: 1;"/><path class="sankey-link" d="M1053.8177028451,284.44123241416605C1169.9199157007374,284.44123241416605 1169.9199157007374,190.14342744471472 1286.022128556375,190.14342744471472L1286.022128556375,275.8687046896706C1169.9199157007374,275.8687046896706 1169.9199157007374,370.16650965912197 1053.8177028451,370.16650965912197Z" style="stroke: rgb(68, 68, 68); stroke-opacity: 1; fill: rgb(243, 129, 129); fill-opacity: 1; stroke-width: 0; opacity: 1;"/></g><g class="sankey-node-set" style="cursor: move;"><g class="sankey-node" transform="translate(771.613,335.876)" style="opacity: 1;"><rect class="node-rect" width="25" height="265.74835945936337" style="stroke-width: 1; stroke: rgb(0, 0, 0); stroke-opacity: 1; fill: rgb(52, 152, 219); fill-opacity: 1;"/><text class="node-label" data-notex="1" x="0" y="0" text-anchor="start" transform="translate(28.5,140.57417972968167)" style="cursor: default; font-family: Arial, sans-serif; font-size: 22px; fill: rgb(42, 63, 95); fill-opacity: 1; text-shadow: rgb(255, 255, 255) 1px 1px 1px, rgb(255, 255, 255) -1px -1px 1px, rgb(255, 255, 255) 1px -1px 1px, rgb(255, 255, 255) -1px 1px 1px; white-space: pre;">Chinese Academy of Sciences</text></g><g class="sankey-node" transform="translate(0.000,395.884)" style="opacity: 1;"><rect class="node-rect" width="25" height="205.74066538789492" style="stroke-width: 1; stroke: rgb(0, 0, 0); stroke-opacity: 1; fill: rgb(231, 76, 60); fill-opacity: 1;"/><text class="node-label" data-notex="1" x="0" y="0" text-anchor="start" transform="translate(28.5,110.57033269394746)" style="cursor: default; font-family: Arial, sans-serif; font-size: 22px; fill: rgb(42, 63, 95); fill-opacity: 1; text-shadow: rgb(255, 255, 255) 1px 1px 1px, rgb(255, 255, 255) -1px -1px 1px, rgb(255, 255, 255) 1px -1px 1px, rgb(255, 255, 255) -1px 1px 1px; white-space: pre;">Foreign Companies</text></g><g class="sankey-node" transform="translate(0.000,25.718)" style="opacity: 1;"><rect class="node-rect" width="25" height="308.610998081841" style="stroke-width: 1; stroke: rgb(0, 0, 0); stroke-opacity: 1; fill: rgb(231, 76, 60); fill-opacity: 1;"/><text class="node-label" data-notex="1" x="0" y="0" text-anchor="start" transform="translate(28.5,162.00549904092048)" style="cursor: default; font-family: Arial, sans-serif; font-size: 22px; fill: rgb(42, 63, 95); fill-opacity: 1; text-shadow: rgb(255, 255, 255) 1px 1px 1px, rgb(255, 255, 255) -1px -1px 1px, rgb(255, 255, 255) 1px -1px 1px, rgb(255, 255, 255) -1px 1px 1px; white-space: pre;">Foreign Universities</text></g><g class="sankey-node" transform="translate(1028.818,284.441)" style="opacity: 1;"><rect class="node-rect" width="25" height="317.18352580633683" style="stroke-width: 1; stroke: rgb(0, 0, 0); stroke-opacity: 1; fill: rgb(230, 126, 34); fill-opacity: 1;"/><text class="node-label" data-notex="1" x="0" y="0" text-anchor="start" transform="translate(28.5,166.2917629031684)" style="cursor: default; font-family: Arial, sans-serif; font-size: 22px; fill: rgb(42, 63, 95); fill-opacity: 1; text-shadow: rgb(255, 255, 255) 1px 1px 1px, rgb(255, 255, 255) -1px -1px 1px, rgb(255, 255, 255) 1px -1px 1px, rgb(255, 255, 255) -1px 1px 1px; white-space: pre;">PLA Strategic Support Force</text></g><g class="sankey-node" transform="translate(1286.022,0.000)" style="opacity: 1;"><rect class="node-rect" width="25" height="128.58791586743388" style="stroke-width: 1; stroke: rgb(0, 0, 0); stroke-opacity: 1; fill: rgb(230, 126, 34); fill-opacity: 1;"/><text class="node-label" data-notex="1" x="0" y="0" text-anchor="end" transform="translate(-3.5,71.99395793371694)" style="cursor: default; font-family: Arial, sans-serif; font-size: 22px; fill: rgb(42, 63, 95); fill-opacity: 1; text-shadow: rgb(255, 255, 255) 1px 1px 1px, rgb(255, 255, 255) -1px -1px 1px, rgb(255, 255, 255) 1px -1px 1px, rgb(255, 255, 255) -1px 1px 1px; white-space: pre;">State Administration for Science, Technology and Industry for National Defense</text></g><g class="sankey-node" transform="translate(1286.022,190.143)" style="opacity: 1;"><rect class="node-rect" width="25" height="411.48133077578825" style="stroke-width: 1; stroke: rgb(0, 0, 0); stroke-opacity: 1; fill: rgb(52, 152, 219); fill-opacity: 1;"/><text class="node-label" data-notex="1" x="0" y="0" text-anchor="end" transform="translate(-3.5,213.44066538789411)" style="cursor: default; font-family: Arial, sans-serif; font-size: 22px; fill: rgb(42, 63, 95); fill-opacity: 1; text-shadow: rgb(255, 255, 255) 1px 1px 1px, rgb(255, 255, 255) -1px -1px 1px, rgb(255, 255, 255) 1px -1px 1px, rgb(255, 255, 255) -1px 1px 1px; white-space: pre;">State-Owned Enterprises</text></g><g class="sankey-node" transform="translate(257.204,215.464)" style="opacity: 1;"><rect class="node-rect" width="25" height="137.16044359192892" style="stroke-width: 1; stroke: rgb(0, 0, 0); stroke-opacity: 1; fill: rgb(52, 152, 219); fill-opacity: 1;"/><text class="node-label" data-notex="1" x="0" y="0" text-anchor="start" transform="translate(28.5,76.28022179596447)" style="cursor: default; font-family: Arial, sans-serif; font-size: 22px; fill: rgb(42, 63, 95); fill-opacity: 1; text-shadow: rgb(255, 255, 255) 1px 1px 1px, rgb(255, 255, 255) -1px -1px 1px, rgb(255, 255, 255) 1px -1px 1px, rgb(255, 255, 255) -1px 1px 1px; white-space: pre;">Talent Recruitment Programs</text></g><g class="sankey-node" transform="translate(514.409,31.395)" style="opacity: 1;"><rect class="node-rect" width="25" height="291.46594263285033" style="stroke-width: 1; stroke: rgb(0, 0, 0); stroke-opacity: 1; fill: rgb(52, 152, 219); fill-opacity: 1;"/><text class="node-label" data-notex="1" x="0" y="0" text-anchor="start" transform="translate(28.5,153.43297131642515)" style="cursor: default; font-family: Arial, sans-serif; font-size: 22px; fill: rgb(42, 63, 95); fill-opacity: 1; text-shadow: rgb(255, 255, 255) 1px 1px 1px, rgb(255, 255, 255) -1px -1px 1px, rgb(255, 255, 255) 1px -1px 1px, rgb(255, 255, 255) -1px 1px 1px; white-space: pre;">University Defense Labs</text></g></g></g><defs id="topdefs-ce5264"><g class="clips"/></defs><g class="layer-above"><g class="imagelayer"/><g class="shapelayer"/></g><g class="infolayer"><g class="g-gtitle"><text class="gtitle" x="800" y="50" text-anchor="middle" dy="0em" style="opacity: 1; font-family: Arial, sans-serif; font-size: 26px; fill: rgb(44, 62, 80); fill-opacity: 1; white-space: pre;">MCF Technology Flow - Professional Style</text></g><g class="first-render"/></g></svg>