<?xml version="1.0" encoding="UTF-8" standalone="no"?>
<!DOCTYPE svg PUBLIC "-//W3C//DTD SVG 1.1//EN"
 "http://www.w3.org/Graphics/SVG/1.1/DTD/svg11.dtd">
<!-- Generated by graphviz version 14.0.2 (20251019.1705)
 -->
<!-- Title: MCF_Hierarchy_professional Pages: 1 -->
<svg width="1429pt" height="1191pt"
 viewBox="0.00 0.00 1429.00 1191.00" xmlns="http://www.w3.org/2000/svg" xmlns:xlink="http://www.w3.org/1999/xlink">
<g id="graph0" class="graph" transform="scale(1 1) rotate(0) translate(4 1187.3)">
<title>MCF_Hierarchy_professional</title>
<polygon fill="white" stroke="none" points="-4,4 -4,-1187.3 1425.47,-1187.3 1425.47,4 -4,4"/>
<!-- xi -->
<g id="node1" class="node">
<title>xi</title>
<path fill="#e74c3c" stroke="black" stroke-width="2" d="M1221.97,-1183.3C1221.97,-1183.3 861.38,-1183.3 861.38,-1183.3 855.38,-1183.3 849.38,-1177.3 849.38,-1171.3 849.38,-1171.3 849.38,-1110.1 849.38,-1110.1 849.38,-1104.1 855.38,-1098.1 861.38,-1098.1 861.38,-1098.1 1221.97,-1098.1 1221.97,-1098.1 1227.97,-1098.1 1233.97,-1104.1 1233.97,-1110.1 1233.97,-1110.1 1233.97,-1171.3 1233.97,-1171.3 1233.97,-1177.3 1227.97,-1183.3 1221.97,-1183.3"/>
<text xml:space="preserve" text-anchor="middle" x="1041.67" y="-1144.6" font-family="Arial" font-size="18.00" fill="white">Xi Jinping</text>
<text xml:space="preserve" text-anchor="middle" x="1041.67" y="-1123.6" font-family="Arial" font-size="18.00" fill="white">General Secretary, President, CMC Chair</text>
</g>
<!-- mcf_commission -->
<g id="node2" class="node">
<title>mcf_commission</title>
<path fill="#e74c3c" stroke="black" d="M1150.72,-1011.85C1150.72,-1011.85 932.62,-1011.85 932.62,-1011.85 926.62,-1011.85 920.62,-1005.85 920.62,-999.85 920.62,-999.85 920.62,-943.15 920.62,-943.15 920.62,-937.15 926.62,-931.15 932.62,-931.15 932.62,-931.15 1150.72,-931.15 1150.72,-931.15 1156.72,-931.15 1162.72,-937.15 1162.72,-943.15 1162.72,-943.15 1162.72,-999.85 1162.72,-999.85 1162.72,-1005.85 1156.72,-1011.85 1150.72,-1011.85"/>
<text xml:space="preserve" text-anchor="middle" x="1041.67" y="-975.05" font-family="Arial" font-size="16.00" fill="white">Central MCF Commission</text>
<text xml:space="preserve" text-anchor="middle" x="1041.67" y="-956.3" font-family="Arial" font-size="16.00" fill="white">(Chair: Xi Jinping)</text>
</g>
<!-- xi&#45;&gt;mcf_commission -->
<g id="edge1" class="edge">
<title>xi&#45;&gt;mcf_commission</title>
<path fill="none" stroke="#34495e" stroke-width="2.5" d="M1041.67,-1098C1041.67,-1098 1041.67,-1025.93 1041.67,-1025.93"/>
<polygon fill="#34495e" stroke="#34495e" stroke-width="2.5" points="1045.18,-1025.93 1041.68,-1015.93 1038.18,-1025.93 1045.18,-1025.93"/>
<text xml:space="preserve" text-anchor="middle" x="1057.05" y="-1050.7" font-family="Times New Roman,serif" font-size="12.00">Chairs</text>
</g>
<!-- state_council -->
<g id="node3" class="node">
<title>state_council</title>
<path fill="#3498db" stroke="black" d="M603.85,-844.9C603.85,-844.9 395.5,-844.9 395.5,-844.9 389.5,-844.9 383.5,-838.9 383.5,-832.9 383.5,-832.9 383.5,-776.2 383.5,-776.2 383.5,-770.2 389.5,-764.2 395.5,-764.2 395.5,-764.2 603.85,-764.2 603.85,-764.2 609.85,-764.2 615.85,-770.2 615.85,-776.2 615.85,-776.2 615.85,-832.9 615.85,-832.9 615.85,-838.9 609.85,-844.9 603.85,-844.9"/>
<text xml:space="preserve" text-anchor="middle" x="499.67" y="-808.1" font-family="Arial" font-size="16.00" fill="white">State Council</text>
<text xml:space="preserve" text-anchor="middle" x="499.67" y="-789.35" font-family="Arial" font-size="16.00" fill="white">(Government Executive)</text>
</g>
<!-- mcf_commission&#45;&gt;state_council -->
<g id="edge2" class="edge">
<title>mcf_commission&#45;&gt;state_council</title>
<path fill="none" stroke="#34495e" stroke-width="2.5" d="M920.38,-972C760.61,-972 499.67,-972 499.67,-972 499.67,-972 499.67,-858.87 499.67,-858.87"/>
<polygon fill="#34495e" stroke="#34495e" stroke-width="2.5" points="503.18,-858.87 499.68,-848.87 496.18,-858.87 503.18,-858.87"/>
<text xml:space="preserve" text-anchor="middle" x="786.17" y="-883.75" font-family="Times New Roman,serif" font-size="12.00">Coordinates</text>
</g>
<!-- cmc -->
<g id="node4" class="node">
<title>cmc</title>
<path fill="#e67e22" stroke="black" d="M1159.35,-844.9C1159.35,-844.9 924,-844.9 924,-844.9 918,-844.9 912,-838.9 912,-832.9 912,-832.9 912,-776.2 912,-776.2 912,-770.2 918,-764.2 924,-764.2 924,-764.2 1159.35,-764.2 1159.35,-764.2 1165.35,-764.2 1171.35,-770.2 1171.35,-776.2 1171.35,-776.2 1171.35,-832.9 1171.35,-832.9 1171.35,-838.9 1165.35,-844.9 1159.35,-844.9"/>
<text xml:space="preserve" text-anchor="middle" x="1041.67" y="-808.1" font-family="Arial" font-size="16.00" fill="white">Central Military Commission</text>
<text xml:space="preserve" text-anchor="middle" x="1041.67" y="-789.35" font-family="Arial" font-size="16.00" fill="white">(Chair: Xi Jinping)</text>
</g>
<!-- mcf_commission&#45;&gt;cmc -->
<g id="edge3" class="edge">
<title>mcf_commission&#45;&gt;cmc</title>
<path fill="none" stroke="#34495e" stroke-width="2.5" d="M1041.67,-930.66C1041.67,-930.66 1041.67,-859.04 1041.67,-859.04"/>
<polygon fill="#34495e" stroke="#34495e" stroke-width="2.5" points="1045.18,-859.04 1041.68,-849.04 1038.18,-859.04 1045.18,-859.04"/>
<text xml:space="preserve" text-anchor="middle" x="1070.17" y="-883.75" font-family="Times New Roman,serif" font-size="12.00">Coordinates</text>
</g>
<!-- mss -->
<g id="node10" class="node">
<title>mss</title>
<path fill="#8e44ad" stroke="black" d="M1409.47,-841.9C1409.47,-841.9 1225.88,-841.9 1225.88,-841.9 1219.88,-841.9 1213.88,-835.9 1213.88,-829.9 1213.88,-829.9 1213.88,-779.2 1213.88,-779.2 1213.88,-773.2 1219.88,-767.2 1225.88,-767.2 1225.88,-767.2 1409.47,-767.2 1409.47,-767.2 1415.47,-767.2 1421.47,-773.2 1421.47,-779.2 1421.47,-779.2 1421.47,-829.9 1421.47,-829.9 1421.47,-835.9 1415.47,-841.9 1409.47,-841.9"/>
<text xml:space="preserve" text-anchor="middle" x="1317.67" y="-807" font-family="Arial" font-size="14.00" fill="white">Ministry of State Security</text>
<text xml:space="preserve" text-anchor="middle" x="1317.67" y="-791.25" font-family="Arial" font-size="14.00" fill="white">Intelligence Collection</text>
</g>
<!-- mcf_commission&#45;&gt;mss -->
<g id="edge9" class="edge">
<title>mcf_commission&#45;&gt;mss</title>
<path fill="none" stroke="#34495e" stroke-width="2.5" d="M1162.99,-972C1196.53,-972 1223.92,-972 1223.92,-972 1223.92,-972 1223.92,-855.91 1223.92,-855.91"/>
<polygon fill="#34495e" stroke="#34495e" stroke-width="2.5" points="1227.43,-855.91 1223.93,-845.91 1220.43,-855.91 1227.43,-855.91"/>
<text xml:space="preserve" text-anchor="middle" x="1334.17" y="-884.32" font-family="Times New Roman,serif" font-size="11.00">Directs</text>
</g>
<!-- miit -->
<g id="node5" class="node">
<title>miit</title>
<path fill="#3498db" stroke="black" d="M657.85,-691.2C657.85,-691.2 497.5,-691.2 497.5,-691.2 491.5,-691.2 485.5,-685.2 485.5,-679.2 485.5,-679.2 485.5,-628.5 485.5,-628.5 485.5,-622.5 491.5,-616.5 497.5,-616.5 497.5,-616.5 657.85,-616.5 657.85,-616.5 663.85,-616.5 669.85,-622.5 669.85,-628.5 669.85,-628.5 669.85,-679.2 669.85,-679.2 669.85,-685.2 663.85,-691.2 657.85,-691.2"/>
<text xml:space="preserve" text-anchor="middle" x="577.67" y="-656.3" font-family="Arial" font-size="14.00" fill="white">MIIT</text>
<text xml:space="preserve" text-anchor="middle" x="577.67" y="-640.55" font-family="Arial" font-size="14.00" fill="white">Industrial Technology</text>
</g>
<!-- state_council&#45;&gt;miit -->
<g id="edge4" class="edge">
<title>state_council&#45;&gt;miit</title>
<path fill="none" stroke="#34495e" stroke-width="2.5" d="M550.67,-763.77C550.67,-763.77 550.67,-705.34 550.67,-705.34"/>
<polygon fill="#34495e" stroke="#34495e" stroke-width="2.5" points="554.18,-705.34 550.68,-695.34 547.18,-705.34 554.18,-705.34"/>
</g>
<!-- most -->
<g id="node6" class="node">
<title>most</title>
<path fill="#3498db" stroke="black" d="M896.47,-691.2C896.47,-691.2 724.88,-691.2 724.88,-691.2 718.88,-691.2 712.88,-685.2 712.88,-679.2 712.88,-679.2 712.88,-628.5 712.88,-628.5 712.88,-622.5 718.88,-616.5 724.88,-616.5 724.88,-616.5 896.47,-616.5 896.47,-616.5 902.47,-616.5 908.47,-622.5 908.47,-628.5 908.47,-628.5 908.47,-679.2 908.47,-679.2 908.47,-685.2 902.47,-691.2 896.47,-691.2"/>
<text xml:space="preserve" text-anchor="middle" x="810.67" y="-656.3" font-family="Arial" font-size="14.00" fill="white">MOST</text>
<text xml:space="preserve" text-anchor="middle" x="810.67" y="-640.55" font-family="Arial" font-size="14.00" fill="white">Research Coordination</text>
</g>
<!-- state_council&#45;&gt;most -->
<g id="edge5" class="edge">
<title>state_council&#45;&gt;most</title>
<path fill="none" stroke="#34495e" stroke-width="2.5" d="M616.18,-805C693.61,-805 781.12,-805 781.12,-805 781.12,-805 781.12,-705.39 781.12,-705.39"/>
<polygon fill="#34495e" stroke="#34495e" stroke-width="2.5" points="784.63,-705.39 781.13,-695.39 777.63,-705.39 784.63,-705.39"/>
</g>
<!-- moe -->
<g id="node7" class="node">
<title>moe</title>
<path fill="#3498db" stroke="black" d="M133.35,-691.2C133.35,-691.2 12,-691.2 12,-691.2 6,-691.2 0,-685.2 0,-679.2 0,-679.2 0,-628.5 0,-628.5 0,-622.5 6,-616.5 12,-616.5 12,-616.5 133.35,-616.5 133.35,-616.5 139.35,-616.5 145.35,-622.5 145.35,-628.5 145.35,-628.5 145.35,-679.2 145.35,-679.2 145.35,-685.2 139.35,-691.2 133.35,-691.2"/>
<text xml:space="preserve" text-anchor="middle" x="72.67" y="-656.3" font-family="Arial" font-size="14.00" fill="white">MOE</text>
<text xml:space="preserve" text-anchor="middle" x="72.67" y="-640.55" font-family="Arial" font-size="14.00" fill="white">Talent Pipeline</text>
</g>
<!-- state_council&#45;&gt;moe -->
<g id="edge6" class="edge">
<title>state_council&#45;&gt;moe</title>
<path fill="none" stroke="#34495e" stroke-width="2.5" d="M383.28,-805C256.84,-805 72.67,-805 72.67,-805 72.67,-805 72.67,-705.39 72.67,-705.39"/>
<polygon fill="#34495e" stroke="#34495e" stroke-width="2.5" points="76.18,-705.39 72.68,-695.39 69.18,-705.39 76.18,-705.39"/>
</g>
<!-- ndrc -->
<g id="node8" class="node">
<title>ndrc</title>
<path fill="#9b59b6" stroke="black" d="M343.22,-691.2C343.22,-691.2 200.12,-691.2 200.12,-691.2 194.12,-691.2 188.12,-685.2 188.12,-679.2 188.12,-679.2 188.12,-628.5 188.12,-628.5 188.12,-622.5 194.12,-616.5 200.12,-616.5 200.12,-616.5 343.22,-616.5 343.22,-616.5 349.22,-616.5 355.22,-622.5 355.22,-628.5 355.22,-628.5 355.22,-679.2 355.22,-679.2 355.22,-685.2 349.22,-691.2 343.22,-691.2"/>
<text xml:space="preserve" text-anchor="middle" x="271.67" y="-656.3" font-family="Arial" font-size="14.00" fill="white">NDRC</text>
<text xml:space="preserve" text-anchor="middle" x="271.67" y="-640.55" font-family="Arial" font-size="14.00" fill="white">Strategic Planning</text>
</g>
<!-- state_council&#45;&gt;ndrc -->
<g id="edge7" class="edge">
<title>state_council&#45;&gt;ndrc</title>
<path fill="none" stroke="#34495e" stroke-width="2.5" d="M417.5,-763.81C417.5,-719.22 417.5,-654 417.5,-654 417.5,-654 369.44,-654 369.44,-654"/>
<polygon fill="#34495e" stroke="#34495e" stroke-width="2.5" points="369.44,-650.5 359.44,-654 369.44,-657.5 369.44,-650.5"/>
</g>
<!-- sasac -->
<g id="node9" class="node">
<title>sasac</title>
<path fill="#9b59b6" stroke="black" d="M490.22,-580.5C490.22,-580.5 365.12,-580.5 365.12,-580.5 359.12,-580.5 353.12,-574.5 353.12,-568.5 353.12,-568.5 353.12,-517.8 353.12,-517.8 353.12,-511.8 359.12,-505.8 365.12,-505.8 365.12,-505.8 490.22,-505.8 490.22,-505.8 496.22,-505.8 502.22,-511.8 502.22,-517.8 502.22,-517.8 502.22,-568.5 502.22,-568.5 502.22,-574.5 496.22,-580.5 490.22,-580.5"/>
<text xml:space="preserve" text-anchor="middle" x="427.67" y="-545.6" font-family="Arial" font-size="14.00" fill="white">SASAC</text>
<text xml:space="preserve" text-anchor="middle" x="427.67" y="-529.85" font-family="Arial" font-size="14.00" fill="white">SOE Oversight</text>
</g>
<!-- state_council&#45;&gt;sasac -->
<g id="edge8" class="edge">
<title>state_council&#45;&gt;sasac</title>
<path fill="none" stroke="#34495e" stroke-width="2.5" d="M451.5,-763.71C451.5,-763.71 451.5,-594.53 451.5,-594.53"/>
<polygon fill="#34495e" stroke="#34495e" stroke-width="2.5" points="455,-594.53 451.5,-584.53 448,-594.53 455,-594.53"/>
</g>
<!-- pla_ssf -->
<g id="node11" class="node">
<title>pla_ssf</title>
<path fill="#d35400" stroke="black" d="M703.97,-74.7C703.97,-74.7 499.37,-74.7 499.37,-74.7 493.37,-74.7 487.37,-68.7 487.37,-62.7 487.37,-62.7 487.37,-12 487.37,-12 487.37,-6 493.37,0 499.37,0 499.37,0 703.97,0 703.97,0 709.97,0 715.97,-6 715.97,-12 715.97,-12 715.97,-62.7 715.97,-62.7 715.97,-68.7 709.97,-74.7 703.97,-74.7"/>
<text xml:space="preserve" text-anchor="middle" x="601.67" y="-39.8" font-family="Arial" font-size="14.00" fill="white">PLA Strategic Support Force</text>
<text xml:space="preserve" text-anchor="middle" x="601.67" y="-24.05" font-family="Arial" font-size="14.00" fill="white">Cyber, Space, EW</text>
</g>
<!-- cmc&#45;&gt;pla_ssf -->
<g id="edge10" class="edge">
<title>cmc&#45;&gt;pla_ssf</title>
<path fill="none" stroke="#34495e" stroke-width="2.5" d="M931.88,-763.83C931.88,-605.14 931.88,-37 931.88,-37 931.88,-37 730.02,-37 730.02,-37"/>
<polygon fill="#34495e" stroke="#34495e" stroke-width="2.5" points="730.02,-33.5 720.02,-37 730.02,-40.5 730.02,-33.5"/>
</g>
<!-- sastind -->
<g id="node12" class="node">
<title>sastind</title>
<path fill="#d35400" stroke="black" d="M1119.6,-691.2C1119.6,-691.2 963.75,-691.2 963.75,-691.2 957.75,-691.2 951.75,-685.2 951.75,-679.2 951.75,-679.2 951.75,-628.5 951.75,-628.5 951.75,-622.5 957.75,-616.5 963.75,-616.5 963.75,-616.5 1119.6,-616.5 1119.6,-616.5 1125.6,-616.5 1131.6,-622.5 1131.6,-628.5 1131.6,-628.5 1131.6,-679.2 1131.6,-679.2 1131.6,-685.2 1125.6,-691.2 1119.6,-691.2"/>
<text xml:space="preserve" text-anchor="middle" x="1041.67" y="-656.3" font-family="Arial" font-size="14.00" fill="white">SASTIND</text>
<text xml:space="preserve" text-anchor="middle" x="1041.67" y="-640.55" font-family="Arial" font-size="14.00" fill="white">Defense Technology</text>
</g>
<!-- cmc&#45;&gt;sastind -->
<g id="edge11" class="edge">
<title>cmc&#45;&gt;sastind</title>
<path fill="none" stroke="#34495e" stroke-width="2.5" d="M1041.67,-763.77C1041.67,-763.77 1041.67,-705.34 1041.67,-705.34"/>
<polygon fill="#34495e" stroke="#34495e" stroke-width="2.5" points="1045.18,-705.34 1041.68,-695.34 1038.18,-705.34 1045.18,-705.34"/>
</g>
<!-- cas -->
<g id="node13" class="node">
<title>cas</title>
<path fill="#f39c12" stroke="black" d="M812.22,-469.8C812.22,-469.8 669.12,-469.8 669.12,-469.8 663.12,-469.8 657.12,-463.8 657.12,-457.8 657.12,-457.8 657.12,-407.1 657.12,-407.1 657.12,-401.1 663.12,-395.1 669.12,-395.1 669.12,-395.1 812.22,-395.1 812.22,-395.1 818.22,-395.1 824.22,-401.1 824.22,-407.1 824.22,-407.1 824.22,-457.8 824.22,-457.8 824.22,-463.8 818.22,-469.8 812.22,-469.8"/>
<text xml:space="preserve" text-anchor="middle" x="740.67" y="-434.9" font-family="Arial" font-size="14.00" fill="#2c3e50">Chinese Academy</text>
<text xml:space="preserve" text-anchor="middle" x="740.67" y="-419.15" font-family="Arial" font-size="14.00" fill="#2c3e50">of Sciences</text>
</g>
<!-- most&#45;&gt;cas -->
<g id="edge12" class="edge">
<title>most&#45;&gt;cas</title>
<path fill="none" stroke="#34495e" stroke-width="2.5" d="M768.55,-616.04C768.55,-616.04 768.55,-483.89 768.55,-483.89"/>
<polygon fill="#34495e" stroke="#34495e" stroke-width="2.5" points="772.05,-483.89 768.55,-473.89 765.05,-483.89 772.05,-483.89"/>
</g>
<!-- university_labs -->
<g id="node15" class="node">
<title>university_labs</title>
<path fill="#16a085" stroke="black" d="M339.97,-359.1C339.97,-359.1 141.37,-359.1 141.37,-359.1 135.37,-359.1 129.37,-353.1 129.37,-347.1 129.37,-347.1 129.37,-296.4 129.37,-296.4 129.37,-290.4 135.37,-284.4 141.37,-284.4 141.37,-284.4 339.97,-284.4 339.97,-284.4 345.97,-284.4 351.97,-290.4 351.97,-296.4 351.97,-296.4 351.97,-347.1 351.97,-347.1 351.97,-353.1 345.97,-359.1 339.97,-359.1"/>
<text xml:space="preserve" text-anchor="middle" x="240.67" y="-324.2" font-family="Arial" font-size="14.00" fill="#2c3e50">University Defense Labs</text>
<text xml:space="preserve" text-anchor="middle" x="240.67" y="-308.45" font-family="Arial" font-size="14.00" fill="#2c3e50">(Tsinghua, Beihang, NUDT)</text>
</g>
<!-- moe&#45;&gt;university_labs -->
<g id="edge14" class="edge">
<title>moe&#45;&gt;university_labs</title>
<path fill="none" stroke="#34495e" stroke-width="2.5" d="M137.36,-616.08C137.36,-616.08 137.36,-373.27 137.36,-373.27"/>
<polygon fill="#34495e" stroke="#34495e" stroke-width="2.5" points="140.86,-373.27 137.36,-363.27 133.86,-373.27 140.86,-373.27"/>
</g>
<!-- soes -->
<g id="node14" class="node">
<title>soes</title>
<path fill="#27ae60" stroke="black" d="M696.85,-248.4C696.85,-248.4 506.5,-248.4 506.5,-248.4 500.5,-248.4 494.5,-242.4 494.5,-236.4 494.5,-236.4 494.5,-169.95 494.5,-169.95 494.5,-163.95 500.5,-157.95 506.5,-157.95 506.5,-157.95 696.85,-157.95 696.85,-157.95 702.85,-157.95 708.85,-163.95 708.85,-169.95 708.85,-169.95 708.85,-236.4 708.85,-236.4 708.85,-242.4 702.85,-248.4 696.85,-248.4"/>
<text xml:space="preserve" text-anchor="middle" x="601.67" y="-213.5" font-family="Arial" font-size="14.00" fill="white">State&#45;Owned</text>
<text xml:space="preserve" text-anchor="middle" x="601.67" y="-197.75" font-family="Arial" font-size="14.00" fill="white">Enterprises</text>
<text xml:space="preserve" text-anchor="middle" x="601.67" y="-182" font-family="Arial" font-size="14.00" fill="white">(AVIC, NORINCO, CETC)</text>
</g>
<!-- sasac&#45;&gt;soes -->
<g id="edge13" class="edge">
<title>sasac&#45;&gt;soes</title>
<path fill="none" stroke="#34495e" stroke-width="2.5" d="M498.36,-505.47C498.36,-505.47 498.36,-262.64 498.36,-262.64"/>
<polygon fill="#34495e" stroke="#34495e" stroke-width="2.5" points="501.86,-262.64 498.36,-252.64 494.86,-262.64 501.86,-262.64"/>
</g>
<!-- cas&#45;&gt;soes -->
<g id="edge15" class="edge">
<title>cas&#45;&gt;soes</title>
<path fill="none" stroke="#95a5a6" stroke-width="2.5" stroke-dasharray="5,2" d="M682.99,-394.85C682.99,-394.85 682.99,-262.48 682.99,-262.48"/>
<polygon fill="#95a5a6" stroke="#95a5a6" stroke-width="2.5" points="686.49,-262.48 682.99,-252.48 679.49,-262.48 686.49,-262.48"/>
<text xml:space="preserve" text-anchor="middle" x="657.05" y="-317.88" font-family="Times New Roman,serif" font-size="10.00">Tech Transfer</text>
</g>
<!-- soes&#45;&gt;pla_ssf -->
<g id="edge17" class="edge">
<title>soes&#45;&gt;pla_ssf</title>
<path fill="none" stroke="#95a5a6" stroke-width="2.5" stroke-dasharray="5,2" d="M601.67,-157.86C601.67,-157.86 601.67,-88.83 601.67,-88.83"/>
<polygon fill="#95a5a6" stroke="#95a5a6" stroke-width="2.5" points="605.18,-88.83 601.68,-78.83 598.18,-88.83 605.18,-88.83"/>
<text xml:space="preserve" text-anchor="middle" x="627.17" y="-112.45" font-family="Times New Roman,serif" font-size="10.00">Procurement</text>
</g>
<!-- university_labs&#45;&gt;pla_ssf -->
<g id="edge16" class="edge">
<title>university_labs&#45;&gt;pla_ssf</title>
<path fill="none" stroke="#95a5a6" stroke-width="2.5" stroke-dasharray="5,2" d="M352.27,-322C419,-322 490.94,-322 490.94,-322 490.94,-322 490.94,-88.93 490.94,-88.93"/>
<polygon fill="#95a5a6" stroke="#95a5a6" stroke-width="2.5" points="494.44,-88.93 490.94,-78.93 487.44,-88.93 494.44,-88.93"/>
<text xml:space="preserve" text-anchor="middle" x="263.05" y="-199.3" font-family="Times New Roman,serif" font-size="10.00">Research</text>
</g>
</g>
</svg>
