<?xml version="1.0" encoding="utf-8" standalone="no"?>
<!DOCTYPE svg PUBLIC "-//W3C//DTD SVG 1.1//EN"
  "http://www.w3.org/Graphics/SVG/1.1/DTD/svg11.dtd">
<svg xmlns:xlink="http://www.w3.org/1999/xlink" width="1720.8pt" height="1288.31625pt" viewBox="0 0 1720.8 1288.31625" xmlns="http://www.w3.org/2000/svg" version="1.1">
 <metadata>
  <rdf:RDF xmlns:dc="http://purl.org/dc/elements/1.1/" xmlns:cc="http://creativecommons.org/ns#" xmlns:rdf="http://www.w3.org/1999/02/22-rdf-syntax-ns#">
   <cc:Work>
    <dc:type rdf:resource="http://purl.org/dc/dcmitype/StillImage"/>
    <dc:date>2025-10-20T10:28:39.539105</dc:date>
    <dc:format>image/svg+xml</dc:format>
    <dc:creator>
     <cc:Agent>
      <dc:title>Matplotlib v3.10.1, https://matplotlib.org/</dc:title>
     </cc:Agent>
    </dc:creator>
   </cc:Work>
  </rdf:RDF>
 </metadata>
 <defs>
  <style type="text/css">*{stroke-linejoin: round; stroke-linecap: butt}</style>
 </defs>
 <g id="figure_1">
  <g id="patch_1">
   <path d="M 0 1288.31625 
L 1720.8 1288.31625 
L 1720.8 0 
L 0 0 
z
" style="fill: #ffffff"/>
  </g>
  <g id="axes_1">
   <g id="patch_2">
    <path d="M 609.487937 158.204685 
Q 720.178918 175.454885 823.507804 159.116449 
" clip-path="url(#pf8b03243f6)" style="fill: none; stroke: #e74c3c; stroke-opacity: 0.7; stroke-width: 6.666667; stroke-linecap: round"/>
    <path d="M 812.849617 155.73961 
L 823.507804 159.116449 
L 814.41142 165.616895 
" clip-path="url(#pf8b03243f6)" style="fill: none; stroke: #e74c3c; stroke-opacity: 0.7; stroke-width: 6.666667; stroke-linecap: round"/>
   </g>
   <g id="patch_3">
    <path d="M 609.419077 158.536181 
Q 860.397504 203.202651 1104.037674 159.843029 
" clip-path="url(#pf8b03243f6)" style="fill: none; stroke: #e74c3c; stroke-opacity: 0.7; stroke-width: 6.666667; stroke-linecap: round"/>
    <path d="M 1093.316304 156.672504 
L 1104.037674 159.843029 
L 1095.068432 166.517809 
" clip-path="url(#pf8b03243f6)" style="fill: none; stroke: #e74c3c; stroke-opacity: 0.7; stroke-width: 6.666667; stroke-linecap: round"/>
   </g>
   <g id="patch_4">
    <path d="M 606.897776 166.265406 
Q 1048.647873 373.551445 1528.886985 405.68646 
" clip-path="url(#pf8b03243f6)" style="fill: none; stroke: #e74c3c; stroke-opacity: 0.7; stroke-width: 6; stroke-linecap: round"/>
    <path d="M 1519.243125 400.029964 
L 1528.886985 405.68646 
L 1518.575472 410.007651 
" clip-path="url(#pf8b03243f6)" style="fill: none; stroke: #e74c3c; stroke-opacity: 0.7; stroke-width: 6; stroke-linecap: round"/>
   </g>
   <g id="patch_5">
    <path d="M 830.77014 157.372175 
Q 483.38681 215.269337 185.354205 390.092411 
" clip-path="url(#pf8b03243f6)" style="fill: none; stroke: #3498db; stroke-opacity: 0.7; stroke-width: 6; stroke-linecap: round"/>
    <path d="M 196.50957 389.345522 
L 185.354205 390.092411 
L 191.449913 380.719986 
" clip-path="url(#pf8b03243f6)" style="fill: none; stroke: #3498db; stroke-opacity: 0.7; stroke-width: 6; stroke-linecap: round"/>
   </g>
   <g id="patch_6">
    <path d="M 832.290373 163.150987 
Q 624.5447 243.396108 461.520587 386.390101 
" clip-path="url(#pf8b03243f6)" style="fill: none; stroke: #3498db; stroke-opacity: 0.7; stroke-width: 5.333333; stroke-linecap: round"/>
    <path d="M 472.335462 383.554879 
L 461.520587 386.390101 
L 465.741334 376.037068 
" clip-path="url(#pf8b03243f6)" style="fill: none; stroke: #3498db; stroke-opacity: 0.7; stroke-width: 5.333333; stroke-linecap: round"/>
   </g>
   <g id="patch_7">
    <path d="M 841.476196 175.945936 
Q 767.309043 270.951666 728.890683 379.824994 
" clip-path="url(#pf8b03243f6)" style="fill: none; stroke: #3498db; stroke-opacity: 0.7; stroke-width: 4.666667; stroke-linecap: round"/>
    <path d="M 736.933359 372.058697 
L 728.890683 379.824994 
L 727.503251 368.731075 
" clip-path="url(#pf8b03243f6)" style="fill: none; stroke: #3498db; stroke-opacity: 0.7; stroke-width: 4.666667; stroke-linecap: round"/>
   </g>
   <g id="patch_8">
    <path d="M 870.031479 181.078793 
Q 910.028951 291.85631 977.917875 378.818478 
" clip-path="url(#pf8b03243f6)" style="fill: none; stroke: #3498db; stroke-opacity: 0.7; stroke-width: 6.666667; stroke-linecap: round"/>
    <path d="M 975.705491 367.859219 
L 977.917875 378.818478 
L 967.823037 374.012829 
" clip-path="url(#pf8b03243f6)" style="fill: none; stroke: #3498db; stroke-opacity: 0.7; stroke-width: 6.666667; stroke-linecap: round"/>
   </g>
   <g id="patch_9">
    <path d="M 882.779642 172.646307 
Q 1049.917593 318.440847 1250.703829 395.692113 
" clip-path="url(#pf8b03243f6)" style="fill: none; stroke: #3498db; stroke-opacity: 0.7; stroke-width: 6; stroke-linecap: round"/>
    <path d="M 1243.166192 387.434751 
L 1250.703829 395.692113 
L 1239.575357 396.767805 
" clip-path="url(#pf8b03243f6)" style="fill: none; stroke: #3498db; stroke-opacity: 0.7; stroke-width: 6; stroke-linecap: round"/>
   </g>
   <g id="patch_10">
    <path d="M 849.489224 180.612965 
Q 717.508635 526.115596 719.131005 891.004748 
" clip-path="url(#pf8b03243f6)" style="fill: none; stroke: #3498db; stroke-opacity: 0.7; stroke-width: 4.666667; stroke-linecap: round"/>
    <path d="M 724.086494 880.982616 
L 719.131005 891.004748 
L 714.086593 881.027077 
" clip-path="url(#pf8b03243f6)" style="fill: none; stroke: #3498db; stroke-opacity: 0.7; stroke-width: 4.666667; stroke-linecap: round"/>
   </g>
   <g id="patch_11">
    <path d="M 1128.537422 181.060878 
Q 1026.167396 396.156587 1004.602483 625.956407 
" clip-path="url(#pf8b03243f6)" style="fill: none; stroke: #8e44ad; stroke-opacity: 0.7; stroke-width: 6.666667; stroke-linecap: round"/>
    <path d="M 1010.514928 616.467309 
L 1004.602483 625.956407 
L 1000.558671 615.532992 
" clip-path="url(#pf8b03243f6)" style="fill: none; stroke: #8e44ad; stroke-opacity: 0.7; stroke-width: 6.666667; stroke-linecap: round"/>
   </g>
   <g id="patch_12">
    <path d="M 1145.083132 184.175897 
Q 1167.697854 422.175267 1268.101823 631.839728 
" clip-path="url(#pf8b03243f6)" style="fill: none; stroke: #e74c3c; stroke-opacity: 0.7; stroke-width: 6; stroke-linecap: round"/>
    <path d="M 1268.292314 620.661011 
L 1268.101823 631.839728 
L 1259.273144 624.980104 
" clip-path="url(#pf8b03243f6)" style="fill: none; stroke: #e74c3c; stroke-opacity: 0.7; stroke-width: 6; stroke-linecap: round"/>
   </g>
   <g id="patch_13">
    <path d="M 163.995145 434.876438 
Q 295.214835 831.502321 557.580324 1148.991779 
" clip-path="url(#pf8b03243f6)" style="fill: none; stroke: #2980b9; stroke-opacity: 0.7; stroke-width: 5.333333; stroke-linecap: round"/>
    <path d="M 555.064451 1138.098186 
L 557.580324 1148.991779 
L 547.355925 1144.468322 
" clip-path="url(#pf8b03243f6)" style="fill: none; stroke: #2980b9; stroke-opacity: 0.7; stroke-width: 5.333333; stroke-linecap: round"/>
   </g>
   <g id="patch_14">
    <path d="M 432.648419 434.012933 
Q 416.471863 535.62574 431.711666 631.349861 
" clip-path="url(#pf8b03243f6)" style="fill: none; stroke: #f39c12; stroke-opacity: 0.7; stroke-width: 5.333333; stroke-linecap: round"/>
    <path d="M 435.077226 620.688107 
L 431.711666 631.349861 
L 425.201599 622.26036 
" clip-path="url(#pf8b03243f6)" style="fill: none; stroke: #f39c12; stroke-opacity: 0.7; stroke-width: 5.333333; stroke-linecap: round"/>
   </g>
   <g id="patch_15">
    <path d="M 453.356269 429.017871 
Q 556.677265 561.008526 694.087224 647.680583 
" clip-path="url(#pf8b03243f6)" style="fill: none; stroke: #f39c12; stroke-opacity: 0.7; stroke-width: 4.666667; stroke-linecap: round"/>
    <path d="M 688.296665 638.116618 
L 694.087224 647.680583 
L 682.961716 646.574651 
" clip-path="url(#pf8b03243f6)" style="fill: none; stroke: #f39c12; stroke-opacity: 0.7; stroke-width: 4.666667; stroke-linecap: round"/>
   </g>
   <g id="patch_16">
    <path d="M 719.145819 432.466046 
Q 717.880098 804.187459 849.585931 1146.211249 
" clip-path="url(#pf8b03243f6)" style="fill: none; stroke: #16a085; stroke-opacity: 0.7; stroke-width: 4.666667; stroke-linecap: round"/>
    <path d="M 850.658384 1135.082464 
L 849.585931 1146.211249 
L 841.326375 1138.676015 
" clip-path="url(#pf8b03243f6)" style="fill: none; stroke: #16a085; stroke-opacity: 0.7; stroke-width: 4.666667; stroke-linecap: round"/>
   </g>
   <g id="patch_17">
    <path d="M 995.869474 437.448902 
Q 955.048906 668.194365 996.835577 894.542007 
" clip-path="url(#pf8b03243f6)" style="fill: none; stroke: #e74c3c; stroke-opacity: 0.7; stroke-width: 4; stroke-linecap: round"/>
    <path d="M 999.93704 883.800456 
L 996.835577 894.542007 
L 990.103214 885.615906 
" clip-path="url(#pf8b03243f6)" style="fill: none; stroke: #e74c3c; stroke-opacity: 0.7; stroke-width: 4; stroke-linecap: round"/>
   </g>
   <g id="patch_18">
    <path d="M 1260.693512 424.735741 
Q 857.565295 724.62161 595.757561 1145.653072 
" clip-path="url(#pf8b03243f6)" style="fill: none; stroke: #c0392b; stroke-opacity: 0.7; stroke-width: 6; stroke-linecap: round"/>
    <path d="M 605.284185 1139.801284 
L 595.757561 1145.653072 
L 596.792105 1134.520699 
" clip-path="url(#pf8b03243f6)" style="fill: none; stroke: #c0392b; stroke-opacity: 0.7; stroke-width: 6; stroke-linecap: round"/>
   </g>
   <g id="patch_19">
    <path d="M 1546.298022 431.002206 
Q 1279.950528 754.321432 1151.174587 1146.939503 
" clip-path="url(#pf8b03243f6)" style="fill: none; stroke: #e74c3c; stroke-opacity: 0.7; stroke-width: 5.333333; stroke-linecap: round"/>
    <path d="M 1159.042131 1138.995842 
L 1151.174587 1146.939503 
L 1149.540185 1135.879271 
" clip-path="url(#pf8b03243f6)" style="fill: none; stroke: #e74c3c; stroke-opacity: 0.7; stroke-width: 5.333333; stroke-linecap: round"/>
   </g>
   <g id="patch_20">
    <path d="M 450.057535 686.467777 
Q 602.123468 958.558224 838.047583 1155.456416 
" clip-path="url(#pf8b03243f6)" style="fill: none; stroke: #27ae60; stroke-opacity: 0.7; stroke-width: 4; stroke-linecap: round"/>
    <path d="M 833.573841 1145.210166 
L 838.047583 1155.456416 
L 827.166338 1152.887659 
" clip-path="url(#pf8b03243f6)" style="fill: none; stroke: #27ae60; stroke-opacity: 0.7; stroke-width: 4; stroke-linecap: round"/>
   </g>
   <g id="patch_21">
    <path d="M 978.288073 682.373527 
Q 741.807582 881.005926 593.629367 1146.138918 
" clip-path="url(#pf8b03243f6)" style="fill: none; stroke: #d35400; stroke-opacity: 0.7; stroke-width: 4.666667; stroke-linecap: round"/>
    <path d="M 602.872581 1139.849006 
L 593.629367 1146.138918 
L 594.143365 1134.9704 
" clip-path="url(#pf8b03243f6)" style="fill: none; stroke: #d35400; stroke-opacity: 0.7; stroke-width: 4.666667; stroke-linecap: round"/>
   </g>
   <g id="patch_22">
    <path d="M 1257.831401 675.207564 
Q 882.180277 852.813814 600.532418 1150.241491 
" clip-path="url(#pf8b03243f6)" style="fill: none; stroke: #e74c3c; stroke-opacity: 0.7; stroke-width: 5.333333; stroke-linecap: round"/>
    <path d="M 611.038776 1146.418346 
L 600.532418 1150.241491 
L 603.777717 1139.542517 
" clip-path="url(#pf8b03243f6)" style="fill: none; stroke: #e74c3c; stroke-opacity: 0.7; stroke-width: 5.333333; stroke-linecap: round"/>
   </g>
   <g id="PathCollection_1">
    <path d="M 578.350413 184.287456 
C 586.736872 184.287456 594.780971 180.955481 600.711093 175.02536 
C 606.641215 169.095238 609.97319 161.051138 609.97319 152.66468 
C 609.97319 144.278221 606.641215 136.234122 600.711093 130.304 
C 594.780971 124.373878 586.736872 121.041903 578.350413 121.041903 
C 569.963955 121.041903 561.919855 124.373878 555.989733 130.304 
C 550.059612 136.234122 546.727637 144.278221 546.727637 152.66468 
C 546.727637 161.051138 550.059612 169.095238 555.989733 175.02536 
C 561.919855 180.955481 569.963955 184.287456 578.350413 184.287456 
z
" clip-path="url(#pf8b03243f6)" style="fill: #2c3e50; fill-opacity: 0.9; stroke: #000000; stroke-opacity: 0.9; stroke-width: 2.5"/>
    <path d="M 860.4 182.66468 
C 868.356093 182.66468 875.987396 179.50369 881.613203 173.877883 
C 887.239011 168.252076 890.4 160.620773 890.4 152.66468 
C 890.4 144.708587 887.239011 137.077284 881.613203 131.451476 
C 875.987396 125.825669 868.356093 122.66468 860.4 122.66468 
C 852.443907 122.66468 844.812604 125.825669 839.186797 131.451476 
C 833.560989 137.077284 830.4 144.708587 830.4 152.66468 
C 830.4 160.620773 833.560989 168.252076 839.186797 173.877883 
C 844.812604 179.50369 852.443907 182.66468 860.4 182.66468 
z
" clip-path="url(#pf8b03243f6)" style="fill: #2c3e50; fill-opacity: 0.9; stroke: #000000; stroke-opacity: 0.9; stroke-width: 2.5"/>
    <path d="M 1142.449587 184.287456 
C 1150.836045 184.287456 1158.880145 180.955481 1164.810267 175.02536 
C 1170.740388 169.095238 1174.072363 161.051138 1174.072363 152.66468 
C 1174.072363 144.278221 1170.740388 136.234122 1164.810267 130.304 
C 1158.880145 124.373878 1150.836045 121.041903 1142.449587 121.041903 
C 1134.063128 121.041903 1126.019029 124.373878 1120.088907 130.304 
C 1114.158785 136.234122 1110.82681 144.278221 1110.82681 152.66468 
C 1110.82681 161.051138 1114.158785 169.095238 1120.088907 175.02536 
C 1126.019029 180.955481 1134.063128 184.287456 1142.449587 184.287456 
z
" clip-path="url(#pf8b03243f6)" style="fill: #2c3e50; fill-opacity: 0.9; stroke: #000000; stroke-opacity: 0.9; stroke-width: 2.5"/>
    <path d="M 155.276033 436.254736 
C 162.777109 436.254736 169.971971 433.274527 175.276033 427.970465 
C 180.580095 422.666403 183.560304 415.471541 183.560304 407.970465 
C 183.560304 400.469388 180.580095 393.274527 175.276033 387.970465 
C 169.971971 382.666403 162.777109 379.686194 155.276033 379.686194 
C 147.774957 379.686194 140.580095 382.666403 135.276033 387.970465 
C 129.971971 393.274527 126.991762 400.469388 126.991762 407.970465 
C 126.991762 415.471541 129.971971 422.666403 135.276033 427.970465 
C 140.580095 433.274527 147.774957 436.254736 155.276033 436.254736 
z
" clip-path="url(#pf8b03243f6)" style="fill: #3498db; fill-opacity: 0.9; stroke: #000000; stroke-opacity: 0.9; stroke-width: 2.5"/>
    <path d="M 437.32562 434.427978 
C 444.342234 434.427978 451.072411 431.640248 456.033907 426.678752 
C 460.995402 421.717256 463.783133 414.987079 463.783133 407.970465 
C 463.783133 400.95385 460.995402 394.223674 456.033907 389.262178 
C 451.072411 384.300682 444.342234 381.512952 437.32562 381.512952 
C 430.309005 381.512952 423.578829 384.300682 418.617333 389.262178 
C 413.655837 394.223674 410.868107 400.95385 410.868107 407.970465 
C 410.868107 414.987079 413.655837 421.717256 418.617333 426.678752 
C 423.578829 431.640248 430.309005 434.427978 437.32562 434.427978 
z
" clip-path="url(#pf8b03243f6)" style="fill: #3498db; fill-opacity: 0.9; stroke: #000000; stroke-opacity: 0.9; stroke-width: 2.5"/>
    <path d="M 719.375207 432.465362 
C 725.871329 432.465362 732.102262 429.884425 736.695715 425.290973 
C 741.289167 420.697521 743.870104 414.466588 743.870104 407.970465 
C 743.870104 401.474342 741.289167 395.243409 736.695715 390.649957 
C 732.102262 386.056504 725.871329 383.475567 719.375207 383.475567 
C 712.879084 383.475567 706.648151 386.056504 702.054699 390.649957 
C 697.461246 395.243409 694.880309 401.474342 694.880309 407.970465 
C 694.880309 414.466588 697.461246 420.697521 702.054699 425.290973 
C 706.648151 429.884425 712.879084 432.465362 719.375207 432.465362 
z
" clip-path="url(#pf8b03243f6)" style="fill: #3498db; fill-opacity: 0.9; stroke: #000000; stroke-opacity: 0.9; stroke-width: 2.5"/>
    <path d="M 1001.424793 437.970465 
C 1009.380886 437.970465 1017.01219 434.809476 1022.637997 429.183668 
C 1028.263804 423.557861 1031.424793 415.926558 1031.424793 407.970465 
C 1031.424793 400.014372 1028.263804 392.383069 1022.637997 386.757261 
C 1017.01219 381.131454 1009.380886 377.970465 1001.424793 377.970465 
C 993.4687 377.970465 985.837397 381.131454 980.21159 386.757261 
C 974.585783 392.383069 971.424793 400.014372 971.424793 407.970465 
C 971.424793 415.926558 974.585783 423.557861 980.21159 429.183668 
C 985.837397 434.809476 993.4687 437.970465 1001.424793 437.970465 
z
" clip-path="url(#pf8b03243f6)" style="fill: #9b59b6; fill-opacity: 0.9; stroke: #000000; stroke-opacity: 0.9; stroke-width: 2.5"/>
    <path d="M 1283.47438 436.254736 
C 1290.975457 436.254736 1298.170318 433.274527 1303.47438 427.970465 
C 1308.778442 422.666403 1311.758651 415.471541 1311.758651 407.970465 
C 1311.758651 400.469388 1308.778442 393.274527 1303.47438 387.970465 
C 1298.170318 382.666403 1290.975457 379.686194 1283.47438 379.686194 
C 1275.973304 379.686194 1268.778442 382.666403 1263.47438 387.970465 
C 1258.170318 393.274527 1255.190109 400.469388 1255.190109 407.970465 
C 1255.190109 415.471541 1258.170318 422.666403 1263.47438 427.970465 
C 1268.778442 433.274527 1275.973304 436.254736 1283.47438 436.254736 
z
" clip-path="url(#pf8b03243f6)" style="fill: #9b59b6; fill-opacity: 0.9; stroke: #000000; stroke-opacity: 0.9; stroke-width: 2.5"/>
    <path d="M 1565.523967 437.970465 
C 1573.48006 437.970465 1581.111363 434.809476 1586.73717 429.183668 
C 1592.362978 423.557861 1595.523967 415.926558 1595.523967 407.970465 
C 1595.523967 400.014372 1592.362978 392.383069 1586.73717 386.757261 
C 1581.111363 381.131454 1573.48006 377.970465 1565.523967 377.970465 
C 1557.567874 377.970465 1549.936571 381.131454 1544.310764 386.757261 
C 1538.684956 392.383069 1535.523967 400.014372 1535.523967 407.970465 
C 1535.523967 415.926558 1538.684956 423.557861 1544.310764 429.183668 
C 1549.936571 434.809476 1557.567874 437.970465 1565.523967 437.970465 
z
" clip-path="url(#pf8b03243f6)" style="fill: #3498db; fill-opacity: 0.9; stroke: #000000; stroke-opacity: 0.9; stroke-width: 2.5"/>
    <path d="M 437.32562 689.733763 
C 444.342234 689.733763 451.072411 686.946033 456.033907 681.984537 
C 460.995402 677.023041 463.783133 670.292864 463.783133 663.27625 
C 463.783133 656.259636 460.995402 649.529459 456.033907 644.567963 
C 451.072411 639.606467 444.342234 636.818737 437.32562 636.818737 
C 430.309005 636.818737 423.578829 639.606467 418.617333 644.567963 
C 413.655837 649.529459 410.868107 656.259636 410.868107 663.27625 
C 410.868107 670.292864 413.655837 677.023041 418.617333 681.984537 
C 423.578829 686.946033 430.309005 689.733763 437.32562 689.733763 
z
" clip-path="url(#pf8b03243f6)" style="fill: #e67e22; fill-opacity: 0.9; stroke: #000000; stroke-opacity: 0.9; stroke-width: 2.5"/>
    <path d="M 719.375207 687.771147 
C 725.871329 687.771147 732.102262 685.190211 736.695715 680.596758 
C 741.289167 676.003306 743.870104 669.772373 743.870104 663.27625 
C 743.870104 656.780127 741.289167 650.549194 736.695715 645.955742 
C 732.102262 641.362289 725.871329 638.781353 719.375207 638.781353 
C 712.879084 638.781353 706.648151 641.362289 702.054699 645.955742 
C 697.461246 650.549194 694.880309 656.780127 694.880309 663.27625 
C 694.880309 669.772373 697.461246 676.003306 702.054699 680.596758 
C 706.648151 685.190211 712.879084 687.771147 719.375207 687.771147 
z
" clip-path="url(#pf8b03243f6)" style="fill: #e67e22; fill-opacity: 0.9; stroke: #000000; stroke-opacity: 0.9; stroke-width: 2.5"/>
    <path d="M 1001.424793 693.27625 
C 1009.380886 693.27625 1017.01219 690.115261 1022.637997 684.489453 
C 1028.263804 678.863646 1031.424793 671.232343 1031.424793 663.27625 
C 1031.424793 655.320157 1028.263804 647.688854 1022.637997 642.063047 
C 1017.01219 636.437239 1009.380886 633.27625 1001.424793 633.27625 
C 993.4687 633.27625 985.837397 636.437239 980.21159 642.063047 
C 974.585783 647.688854 971.424793 655.320157 971.424793 663.27625 
C 971.424793 671.232343 974.585783 678.863646 980.21159 684.489453 
C 985.837397 690.115261 993.4687 693.27625 1001.424793 693.27625 
z
" clip-path="url(#pf8b03243f6)" style="fill: #c0392b; fill-opacity: 0.9; stroke: #000000; stroke-opacity: 0.9; stroke-width: 2.5"/>
    <path d="M 1283.47438 691.560521 
C 1290.975457 691.560521 1298.170318 688.580312 1303.47438 683.27625 
C 1308.778442 677.972188 1311.758651 670.777326 1311.758651 663.27625 
C 1311.758651 655.775174 1308.778442 648.580312 1303.47438 643.27625 
C 1298.170318 637.972188 1290.975457 634.991979 1283.47438 634.991979 
C 1275.973304 634.991979 1268.778442 637.972188 1263.47438 643.27625 
C 1258.170318 648.580312 1255.190109 655.775174 1255.190109 663.27625 
C 1255.190109 670.777326 1258.170318 677.972188 1263.47438 683.27625 
C 1268.778442 688.580312 1275.973304 691.560521 1283.47438 691.560521 
z
" clip-path="url(#pf8b03243f6)" style="fill: #16a085; fill-opacity: 0.9; stroke: #000000; stroke-opacity: 0.9; stroke-width: 2.5"/>
    <path d="M 719.375207 940.942715 
C 725.305328 940.942715 730.993366 938.586653 735.186595 934.393423 
C 739.379824 930.200194 741.735886 924.512157 741.735886 918.582035 
C 741.735886 912.651914 739.379824 906.963876 735.186595 902.770647 
C 730.993366 898.577418 725.305328 896.221355 719.375207 896.221355 
C 713.445085 896.221355 707.757048 898.577418 703.563818 902.770647 
C 699.370589 906.963876 697.014527 912.651914 697.014527 918.582035 
C 697.014527 924.512157 699.370589 930.200194 703.563818 934.393423 
C 707.757048 938.586653 713.445085 940.942715 719.375207 940.942715 
z
" clip-path="url(#pf8b03243f6)" style="fill: #7f8c8d; fill-opacity: 0.9; stroke: #000000; stroke-opacity: 0.9; stroke-width: 2.5"/>
    <path d="M 1001.424793 938.582035 
C 1006.728855 938.582035 1011.816391 936.474709 1015.566929 932.724171 
C 1019.317467 928.973633 1021.424793 923.886097 1021.424793 918.582035 
C 1021.424793 913.277973 1019.317467 908.190438 1015.566929 904.4399 
C 1011.816391 900.689361 1006.728855 898.582035 1001.424793 898.582035 
C 996.120731 898.582035 991.033196 900.689361 987.282658 904.4399 
C 983.53212 908.190438 981.424793 913.277973 981.424793 918.582035 
C 981.424793 923.886097 983.53212 928.973633 987.282658 932.724171 
C 991.033196 936.474709 996.120731 938.582035 1001.424793 938.582035 
z
" clip-path="url(#pf8b03243f6)" style="fill: #7f8c8d; fill-opacity: 0.9; stroke: #000000; stroke-opacity: 0.9; stroke-width: 2.5"/>
    <path d="M 578.350413 1200.345333 
C 585.367028 1200.345333 592.097204 1197.557603 597.0587 1192.596107 
C 602.020196 1187.634611 604.807926 1180.904435 604.807926 1173.88782 
C 604.807926 1166.871206 602.020196 1160.141029 597.0587 1155.179533 
C 592.097204 1150.218038 585.367028 1147.430307 578.350413 1147.430307 
C 571.333799 1147.430307 564.603622 1150.218038 559.642126 1155.179533 
C 554.680631 1160.141029 551.8929 1166.871206 551.8929 1173.88782 
C 551.8929 1180.904435 554.680631 1187.634611 559.642126 1192.596107 
C 564.603622 1197.557603 571.333799 1200.345333 578.350413 1200.345333 
z
" clip-path="url(#pf8b03243f6)" style="fill: #27ae60; fill-opacity: 0.9; stroke: #000000; stroke-opacity: 0.9; stroke-width: 2.5"/>
    <path d="M 860.4 1198.382718 
C 866.896123 1198.382718 873.127056 1195.801781 877.720508 1191.208328 
C 882.313961 1186.614876 884.894897 1180.383943 884.894897 1173.88782 
C 884.894897 1167.391698 882.313961 1161.160765 877.720508 1156.567312 
C 873.127056 1151.97386 866.896123 1149.392923 860.4 1149.392923 
C 853.903877 1149.392923 847.672944 1151.97386 843.079492 1156.567312 
C 838.486039 1161.160765 835.905103 1167.391698 835.905103 1173.88782 
C 835.905103 1180.383943 838.486039 1186.614876 843.079492 1191.208328 
C 847.672944 1195.801781 853.903877 1198.382718 860.4 1198.382718 
z
" clip-path="url(#pf8b03243f6)" style="fill: #27ae60; fill-opacity: 0.9; stroke: #000000; stroke-opacity: 0.9; stroke-width: 2.5"/>
    <path d="M 1142.449587 1196.2485 
C 1148.379708 1196.2485 1154.067746 1193.892438 1158.260975 1189.699209 
C 1162.454204 1185.505979 1164.810267 1179.817942 1164.810267 1173.88782 
C 1164.810267 1167.957699 1162.454204 1162.269661 1158.260975 1158.076432 
C 1154.067746 1153.883203 1148.379708 1151.52714 1142.449587 1151.52714 
C 1136.519465 1151.52714 1130.831428 1153.883203 1126.638198 1158.076432 
C 1122.444969 1162.269661 1120.088907 1167.957699 1120.088907 1173.88782 
C 1120.088907 1179.817942 1122.444969 1185.505979 1126.638198 1189.699209 
C 1130.831428 1193.892438 1136.519465 1196.2485 1142.449587 1196.2485 
z
" clip-path="url(#pf8b03243f6)" style="fill: #27ae60; fill-opacity: 0.9; stroke: #000000; stroke-opacity: 0.9; stroke-width: 2.5"/>
   </g>
   <g id="text_1">
    <g clip-path="url(#pf8b03243f6)">
     <!-- Central MCF Commission -->
     <g transform="translate(480.342757 156.527805) scale(0.14 -0.14)">
      <defs>
       <path id="DejaVuSans-Bold-43" d="M 4288 256 
Q 3956 84 3597 -3 
Q 3238 -91 2847 -91 
Q 1681 -91 1000 561 
Q 319 1213 319 2328 
Q 319 3447 1000 4098 
Q 1681 4750 2847 4750 
Q 3238 4750 3597 4662 
Q 3956 4575 4288 4403 
L 4288 3438 
Q 3953 3666 3628 3772 
Q 3303 3878 2944 3878 
Q 2300 3878 1931 3465 
Q 1563 3053 1563 2328 
Q 1563 1606 1931 1193 
Q 2300 781 2944 781 
Q 3303 781 3628 887 
Q 3953 994 4288 1222 
L 4288 256 
z
" transform="scale(0.015625)"/>
       <path id="DejaVuSans-Bold-65" d="M 4031 1759 
L 4031 1441 
L 1416 1441 
Q 1456 1047 1700 850 
Q 1944 653 2381 653 
Q 2734 653 3104 758 
Q 3475 863 3866 1075 
L 3866 213 
Q 3469 63 3072 -14 
Q 2675 -91 2278 -91 
Q 1328 -91 801 392 
Q 275 875 275 1747 
Q 275 2603 792 3093 
Q 1309 3584 2216 3584 
Q 3041 3584 3536 3087 
Q 4031 2591 4031 1759 
z
M 2881 2131 
Q 2881 2450 2695 2645 
Q 2509 2841 2209 2841 
Q 1884 2841 1681 2658 
Q 1478 2475 1428 2131 
L 2881 2131 
z
" transform="scale(0.015625)"/>
       <path id="DejaVuSans-Bold-6e" d="M 4056 2131 
L 4056 0 
L 2931 0 
L 2931 347 
L 2931 1631 
Q 2931 2084 2911 2256 
Q 2891 2428 2841 2509 
Q 2775 2619 2662 2680 
Q 2550 2741 2406 2741 
Q 2056 2741 1856 2470 
Q 1656 2200 1656 1722 
L 1656 0 
L 538 0 
L 538 3500 
L 1656 3500 
L 1656 2988 
Q 1909 3294 2193 3439 
Q 2478 3584 2822 3584 
Q 3428 3584 3742 3212 
Q 4056 2841 4056 2131 
z
" transform="scale(0.015625)"/>
       <path id="DejaVuSans-Bold-74" d="M 1759 4494 
L 1759 3500 
L 2913 3500 
L 2913 2700 
L 1759 2700 
L 1759 1216 
Q 1759 972 1856 886 
Q 1953 800 2241 800 
L 2816 800 
L 2816 0 
L 1856 0 
Q 1194 0 917 276 
Q 641 553 641 1216 
L 641 2700 
L 84 2700 
L 84 3500 
L 641 3500 
L 641 4494 
L 1759 4494 
z
" transform="scale(0.015625)"/>
       <path id="DejaVuSans-Bold-72" d="M 3138 2547 
Q 2991 2616 2845 2648 
Q 2700 2681 2553 2681 
Q 2122 2681 1889 2404 
Q 1656 2128 1656 1613 
L 1656 0 
L 538 0 
L 538 3500 
L 1656 3500 
L 1656 2925 
Q 1872 3269 2151 3426 
Q 2431 3584 2822 3584 
Q 2878 3584 2943 3579 
Q 3009 3575 3134 3559 
L 3138 2547 
z
" transform="scale(0.015625)"/>
       <path id="DejaVuSans-Bold-61" d="M 2106 1575 
Q 1756 1575 1579 1456 
Q 1403 1338 1403 1106 
Q 1403 894 1545 773 
Q 1688 653 1941 653 
Q 2256 653 2472 879 
Q 2688 1106 2688 1447 
L 2688 1575 
L 2106 1575 
z
M 3816 1997 
L 3816 0 
L 2688 0 
L 2688 519 
Q 2463 200 2181 54 
Q 1900 -91 1497 -91 
Q 953 -91 614 226 
Q 275 544 275 1050 
Q 275 1666 698 1953 
Q 1122 2241 2028 2241 
L 2688 2241 
L 2688 2328 
Q 2688 2594 2478 2717 
Q 2269 2841 1825 2841 
Q 1466 2841 1156 2769 
Q 847 2697 581 2553 
L 581 3406 
Q 941 3494 1303 3539 
Q 1666 3584 2028 3584 
Q 2975 3584 3395 3211 
Q 3816 2838 3816 1997 
z
" transform="scale(0.015625)"/>
       <path id="DejaVuSans-Bold-6c" d="M 538 4863 
L 1656 4863 
L 1656 0 
L 538 0 
L 538 4863 
z
" transform="scale(0.015625)"/>
       <path id="DejaVuSans-Bold-20" transform="scale(0.015625)"/>
       <path id="DejaVuSans-Bold-4d" d="M 588 4666 
L 2119 4666 
L 3181 2169 
L 4250 4666 
L 5778 4666 
L 5778 0 
L 4641 0 
L 4641 3413 
L 3566 897 
L 2803 897 
L 1728 3413 
L 1728 0 
L 588 0 
L 588 4666 
z
" transform="scale(0.015625)"/>
       <path id="DejaVuSans-Bold-46" d="M 588 4666 
L 3834 4666 
L 3834 3756 
L 1791 3756 
L 1791 2888 
L 3713 2888 
L 3713 1978 
L 1791 1978 
L 1791 0 
L 588 0 
L 588 4666 
z
" transform="scale(0.015625)"/>
       <path id="DejaVuSans-Bold-6f" d="M 2203 2784 
Q 1831 2784 1636 2517 
Q 1441 2250 1441 1747 
Q 1441 1244 1636 976 
Q 1831 709 2203 709 
Q 2569 709 2762 976 
Q 2956 1244 2956 1747 
Q 2956 2250 2762 2517 
Q 2569 2784 2203 2784 
z
M 2203 3584 
Q 3106 3584 3614 3096 
Q 4122 2609 4122 1747 
Q 4122 884 3614 396 
Q 3106 -91 2203 -91 
Q 1297 -91 786 396 
Q 275 884 275 1747 
Q 275 2609 786 3096 
Q 1297 3584 2203 3584 
z
" transform="scale(0.015625)"/>
       <path id="DejaVuSans-Bold-6d" d="M 3781 2919 
Q 3994 3244 4286 3414 
Q 4578 3584 4928 3584 
Q 5531 3584 5847 3212 
Q 6163 2841 6163 2131 
L 6163 0 
L 5038 0 
L 5038 1825 
Q 5041 1866 5042 1909 
Q 5044 1953 5044 2034 
Q 5044 2406 4934 2573 
Q 4825 2741 4581 2741 
Q 4263 2741 4089 2478 
Q 3916 2216 3909 1719 
L 3909 0 
L 2784 0 
L 2784 1825 
Q 2784 2406 2684 2573 
Q 2584 2741 2328 2741 
Q 2006 2741 1831 2477 
Q 1656 2213 1656 1722 
L 1656 0 
L 531 0 
L 531 3500 
L 1656 3500 
L 1656 2988 
Q 1863 3284 2130 3434 
Q 2397 3584 2719 3584 
Q 3081 3584 3359 3409 
Q 3638 3234 3781 2919 
z
" transform="scale(0.015625)"/>
       <path id="DejaVuSans-Bold-69" d="M 538 3500 
L 1656 3500 
L 1656 0 
L 538 0 
L 538 3500 
z
M 538 4863 
L 1656 4863 
L 1656 3950 
L 538 3950 
L 538 4863 
z
" transform="scale(0.015625)"/>
       <path id="DejaVuSans-Bold-73" d="M 3272 3391 
L 3272 2541 
Q 2913 2691 2578 2766 
Q 2244 2841 1947 2841 
Q 1628 2841 1473 2761 
Q 1319 2681 1319 2516 
Q 1319 2381 1436 2309 
Q 1553 2238 1856 2203 
L 2053 2175 
Q 2913 2066 3209 1816 
Q 3506 1566 3506 1031 
Q 3506 472 3093 190 
Q 2681 -91 1863 -91 
Q 1516 -91 1145 -36 
Q 775 19 384 128 
L 384 978 
Q 719 816 1070 734 
Q 1422 653 1784 653 
Q 2113 653 2278 743 
Q 2444 834 2444 1013 
Q 2444 1163 2330 1236 
Q 2216 1309 1875 1350 
L 1678 1375 
Q 931 1469 631 1722 
Q 331 1975 331 2491 
Q 331 3047 712 3315 
Q 1094 3584 1881 3584 
Q 2191 3584 2531 3537 
Q 2872 3491 3272 3391 
z
" transform="scale(0.015625)"/>
      </defs>
      <use xlink:href="#DejaVuSans-Bold-43"/>
      <use xlink:href="#DejaVuSans-Bold-65" transform="translate(73.388672 0)"/>
      <use xlink:href="#DejaVuSans-Bold-6e" transform="translate(141.210938 0)"/>
      <use xlink:href="#DejaVuSans-Bold-74" transform="translate(212.402344 0)"/>
      <use xlink:href="#DejaVuSans-Bold-72" transform="translate(260.205078 0)"/>
      <use xlink:href="#DejaVuSans-Bold-61" transform="translate(309.521484 0)"/>
      <use xlink:href="#DejaVuSans-Bold-6c" transform="translate(377.001953 0)"/>
      <use xlink:href="#DejaVuSans-Bold-20" transform="translate(411.279297 0)"/>
      <use xlink:href="#DejaVuSans-Bold-4d" transform="translate(446.09375 0)"/>
      <use xlink:href="#DejaVuSans-Bold-43" transform="translate(545.605469 0)"/>
      <use xlink:href="#DejaVuSans-Bold-46" transform="translate(618.994141 0)"/>
      <use xlink:href="#DejaVuSans-Bold-20" transform="translate(687.304688 0)"/>
      <use xlink:href="#DejaVuSans-Bold-43" transform="translate(722.119141 0)"/>
      <use xlink:href="#DejaVuSans-Bold-6f" transform="translate(795.507812 0)"/>
      <use xlink:href="#DejaVuSans-Bold-6d" transform="translate(864.208984 0)"/>
      <use xlink:href="#DejaVuSans-Bold-6d" transform="translate(968.408203 0)"/>
      <use xlink:href="#DejaVuSans-Bold-69" transform="translate(1072.607422 0)"/>
      <use xlink:href="#DejaVuSans-Bold-73" transform="translate(1106.884766 0)"/>
      <use xlink:href="#DejaVuSans-Bold-73" transform="translate(1166.40625 0)"/>
      <use xlink:href="#DejaVuSans-Bold-69" transform="translate(1225.927734 0)"/>
      <use xlink:href="#DejaVuSans-Bold-6f" transform="translate(1260.205078 0)"/>
      <use xlink:href="#DejaVuSans-Bold-6e" transform="translate(1328.90625 0)"/>
     </g>
    </g>
   </g>
   <g id="text_2">
    <g clip-path="url(#pf8b03243f6)">
     <!-- State Council -->
     <g transform="translate(807.896719 156.527805) scale(0.14 -0.14)">
      <defs>
       <path id="DejaVuSans-Bold-53" d="M 3834 4519 
L 3834 3531 
Q 3450 3703 3084 3790 
Q 2719 3878 2394 3878 
Q 1963 3878 1756 3759 
Q 1550 3641 1550 3391 
Q 1550 3203 1689 3098 
Q 1828 2994 2194 2919 
L 2706 2816 
Q 3484 2659 3812 2340 
Q 4141 2022 4141 1434 
Q 4141 663 3683 286 
Q 3225 -91 2284 -91 
Q 1841 -91 1394 -6 
Q 947 78 500 244 
L 500 1259 
Q 947 1022 1364 901 
Q 1781 781 2169 781 
Q 2563 781 2772 912 
Q 2981 1044 2981 1288 
Q 2981 1506 2839 1625 
Q 2697 1744 2272 1838 
L 1806 1941 
Q 1106 2091 782 2419 
Q 459 2747 459 3303 
Q 459 4000 909 4375 
Q 1359 4750 2203 4750 
Q 2588 4750 2994 4692 
Q 3400 4634 3834 4519 
z
" transform="scale(0.015625)"/>
       <path id="DejaVuSans-Bold-75" d="M 500 1363 
L 500 3500 
L 1625 3500 
L 1625 3150 
Q 1625 2866 1622 2436 
Q 1619 2006 1619 1863 
Q 1619 1441 1641 1255 
Q 1663 1069 1716 984 
Q 1784 875 1895 815 
Q 2006 756 2150 756 
Q 2500 756 2700 1025 
Q 2900 1294 2900 1772 
L 2900 3500 
L 4019 3500 
L 4019 0 
L 2900 0 
L 2900 506 
Q 2647 200 2364 54 
Q 2081 -91 1741 -91 
Q 1134 -91 817 281 
Q 500 653 500 1363 
z
" transform="scale(0.015625)"/>
       <path id="DejaVuSans-Bold-63" d="M 3366 3391 
L 3366 2478 
Q 3138 2634 2908 2709 
Q 2678 2784 2431 2784 
Q 1963 2784 1702 2511 
Q 1441 2238 1441 1747 
Q 1441 1256 1702 982 
Q 1963 709 2431 709 
Q 2694 709 2930 787 
Q 3166 866 3366 1019 
L 3366 103 
Q 3103 6 2833 -42 
Q 2563 -91 2291 -91 
Q 1344 -91 809 395 
Q 275 881 275 1747 
Q 275 2613 809 3098 
Q 1344 3584 2291 3584 
Q 2566 3584 2833 3536 
Q 3100 3488 3366 3391 
z
" transform="scale(0.015625)"/>
      </defs>
      <use xlink:href="#DejaVuSans-Bold-53"/>
      <use xlink:href="#DejaVuSans-Bold-74" transform="translate(72.021484 0)"/>
      <use xlink:href="#DejaVuSans-Bold-61" transform="translate(119.824219 0)"/>
      <use xlink:href="#DejaVuSans-Bold-74" transform="translate(187.304688 0)"/>
      <use xlink:href="#DejaVuSans-Bold-65" transform="translate(235.107422 0)"/>
      <use xlink:href="#DejaVuSans-Bold-20" transform="translate(302.929688 0)"/>
      <use xlink:href="#DejaVuSans-Bold-43" transform="translate(337.744141 0)"/>
      <use xlink:href="#DejaVuSans-Bold-6f" transform="translate(411.132812 0)"/>
      <use xlink:href="#DejaVuSans-Bold-75" transform="translate(479.833984 0)"/>
      <use xlink:href="#DejaVuSans-Bold-6e" transform="translate(551.025391 0)"/>
      <use xlink:href="#DejaVuSans-Bold-63" transform="translate(622.216797 0)"/>
      <use xlink:href="#DejaVuSans-Bold-69" transform="translate(681.494141 0)"/>
      <use xlink:href="#DejaVuSans-Bold-6c" transform="translate(715.771484 0)"/>
     </g>
    </g>
   </g>
   <g id="text_3">
    <g clip-path="url(#pf8b03243f6)">
     <!-- Central Military -->
     <g transform="translate(1080.973181 148.634649) scale(0.14 -0.14)">
      <defs>
       <path id="DejaVuSans-Bold-79" d="M 78 3500 
L 1197 3500 
L 2138 1125 
L 2938 3500 
L 4056 3500 
L 2584 -331 
Q 2363 -916 2067 -1148 
Q 1772 -1381 1288 -1381 
L 641 -1381 
L 641 -647 
L 991 -647 
Q 1275 -647 1404 -556 
Q 1534 -466 1606 -231 
L 1638 -134 
L 78 3500 
z
" transform="scale(0.015625)"/>
      </defs>
      <use xlink:href="#DejaVuSans-Bold-43"/>
      <use xlink:href="#DejaVuSans-Bold-65" transform="translate(73.388672 0)"/>
      <use xlink:href="#DejaVuSans-Bold-6e" transform="translate(141.210938 0)"/>
      <use xlink:href="#DejaVuSans-Bold-74" transform="translate(212.402344 0)"/>
      <use xlink:href="#DejaVuSans-Bold-72" transform="translate(260.205078 0)"/>
      <use xlink:href="#DejaVuSans-Bold-61" transform="translate(309.521484 0)"/>
      <use xlink:href="#DejaVuSans-Bold-6c" transform="translate(377.001953 0)"/>
      <use xlink:href="#DejaVuSans-Bold-20" transform="translate(411.279297 0)"/>
      <use xlink:href="#DejaVuSans-Bold-4d" transform="translate(446.09375 0)"/>
      <use xlink:href="#DejaVuSans-Bold-69" transform="translate(545.605469 0)"/>
      <use xlink:href="#DejaVuSans-Bold-6c" transform="translate(579.882812 0)"/>
      <use xlink:href="#DejaVuSans-Bold-69" transform="translate(614.160156 0)"/>
      <use xlink:href="#DejaVuSans-Bold-74" transform="translate(648.4375 0)"/>
      <use xlink:href="#DejaVuSans-Bold-61" transform="translate(696.240234 0)"/>
      <use xlink:href="#DejaVuSans-Bold-72" transform="translate(763.720703 0)"/>
      <use xlink:href="#DejaVuSans-Bold-79" transform="translate(813.037109 0)"/>
     </g>
    </g>
    <g clip-path="url(#pf8b03243f6)">
     <!-- Commission -->
     <g transform="translate(1094.990681 164.420961) scale(0.14 -0.14)">
      <use xlink:href="#DejaVuSans-Bold-43"/>
      <use xlink:href="#DejaVuSans-Bold-6f" transform="translate(73.388672 0)"/>
      <use xlink:href="#DejaVuSans-Bold-6d" transform="translate(142.089844 0)"/>
      <use xlink:href="#DejaVuSans-Bold-6d" transform="translate(246.289062 0)"/>
      <use xlink:href="#DejaVuSans-Bold-69" transform="translate(350.488281 0)"/>
      <use xlink:href="#DejaVuSans-Bold-73" transform="translate(384.765625 0)"/>
      <use xlink:href="#DejaVuSans-Bold-73" transform="translate(444.287109 0)"/>
      <use xlink:href="#DejaVuSans-Bold-69" transform="translate(503.808594 0)"/>
      <use xlink:href="#DejaVuSans-Bold-6f" transform="translate(538.085938 0)"/>
      <use xlink:href="#DejaVuSans-Bold-6e" transform="translate(606.787109 0)"/>
     </g>
    </g>
   </g>
   <g id="text_4">
    <g clip-path="url(#pf8b03243f6)">
     <!-- MIIT -->
     <g transform="translate(138.326189 411.83359) scale(0.14 -0.14)">
      <defs>
       <path id="DejaVuSans-Bold-49" d="M 588 4666 
L 1791 4666 
L 1791 0 
L 588 0 
L 588 4666 
z
" transform="scale(0.015625)"/>
       <path id="DejaVuSans-Bold-54" d="M 31 4666 
L 4331 4666 
L 4331 3756 
L 2784 3756 
L 2784 0 
L 1581 0 
L 1581 3756 
L 31 3756 
L 31 4666 
z
" transform="scale(0.015625)"/>
      </defs>
      <use xlink:href="#DejaVuSans-Bold-4d"/>
      <use xlink:href="#DejaVuSans-Bold-49" transform="translate(99.511719 0)"/>
      <use xlink:href="#DejaVuSans-Bold-49" transform="translate(136.71875 0)"/>
      <use xlink:href="#DejaVuSans-Bold-54" transform="translate(173.925781 0)"/>
     </g>
    </g>
   </g>
   <g id="text_5">
    <g clip-path="url(#pf8b03243f6)">
     <!-- MOST -->
     <g transform="translate(414.592026 411.83359) scale(0.14 -0.14)">
      <defs>
       <path id="DejaVuSans-Bold-4f" d="M 2719 3878 
Q 2169 3878 1866 3472 
Q 1563 3066 1563 2328 
Q 1563 1594 1866 1187 
Q 2169 781 2719 781 
Q 3272 781 3575 1187 
Q 3878 1594 3878 2328 
Q 3878 3066 3575 3472 
Q 3272 3878 2719 3878 
z
M 2719 4750 
Q 3844 4750 4481 4106 
Q 5119 3463 5119 2328 
Q 5119 1197 4481 553 
Q 3844 -91 2719 -91 
Q 1597 -91 958 553 
Q 319 1197 319 2328 
Q 319 3463 958 4106 
Q 1597 4750 2719 4750 
z
" transform="scale(0.015625)"/>
      </defs>
      <use xlink:href="#DejaVuSans-Bold-4d"/>
      <use xlink:href="#DejaVuSans-Bold-4f" transform="translate(99.511719 0)"/>
      <use xlink:href="#DejaVuSans-Bold-53" transform="translate(184.521484 0)"/>
      <use xlink:href="#DejaVuSans-Bold-54" transform="translate(256.542969 0)"/>
     </g>
    </g>
   </g>
   <g id="text_6">
    <g clip-path="url(#pf8b03243f6)">
     <!-- MOE -->
     <g transform="translate(701.676144 411.83359) scale(0.14 -0.14)">
      <defs>
       <path id="DejaVuSans-Bold-45" d="M 588 4666 
L 3834 4666 
L 3834 3756 
L 1791 3756 
L 1791 2888 
L 3713 2888 
L 3713 1978 
L 1791 1978 
L 1791 909 
L 3903 909 
L 3903 0 
L 588 0 
L 588 4666 
z
" transform="scale(0.015625)"/>
      </defs>
      <use xlink:href="#DejaVuSans-Bold-4d"/>
      <use xlink:href="#DejaVuSans-Bold-4f" transform="translate(99.511719 0)"/>
      <use xlink:href="#DejaVuSans-Bold-45" transform="translate(184.521484 0)"/>
     </g>
    </g>
   </g>
   <g id="text_7">
    <g clip-path="url(#pf8b03243f6)">
     <!-- NDRC -->
     <g transform="translate(979.228231 411.83359) scale(0.14 -0.14)">
      <defs>
       <path id="DejaVuSans-Bold-4e" d="M 588 4666 
L 1931 4666 
L 3628 1466 
L 3628 4666 
L 4769 4666 
L 4769 0 
L 3425 0 
L 1728 3200 
L 1728 0 
L 588 0 
L 588 4666 
z
" transform="scale(0.015625)"/>
       <path id="DejaVuSans-Bold-44" d="M 1791 3756 
L 1791 909 
L 2222 909 
Q 2959 909 3348 1275 
Q 3738 1641 3738 2338 
Q 3738 3031 3350 3393 
Q 2963 3756 2222 3756 
L 1791 3756 
z
M 588 4666 
L 1856 4666 
Q 2919 4666 3439 4514 
Q 3959 4363 4331 4000 
Q 4659 3684 4818 3271 
Q 4978 2859 4978 2338 
Q 4978 1809 4818 1395 
Q 4659 981 4331 666 
Q 3956 303 3431 151 
Q 2906 0 1856 0 
L 588 0 
L 588 4666 
z
" transform="scale(0.015625)"/>
       <path id="DejaVuSans-Bold-52" d="M 2297 2597 
Q 2675 2597 2839 2737 
Q 3003 2878 3003 3200 
Q 3003 3519 2839 3656 
Q 2675 3794 2297 3794 
L 1791 3794 
L 1791 2597 
L 2297 2597 
z
M 1791 1766 
L 1791 0 
L 588 0 
L 588 4666 
L 2425 4666 
Q 3347 4666 3776 4356 
Q 4206 4047 4206 3378 
Q 4206 2916 3982 2619 
Q 3759 2322 3309 2181 
Q 3556 2125 3751 1926 
Q 3947 1728 4147 1325 
L 4800 0 
L 3519 0 
L 2950 1159 
Q 2778 1509 2601 1637 
Q 2425 1766 2131 1766 
L 1791 1766 
z
" transform="scale(0.015625)"/>
      </defs>
      <use xlink:href="#DejaVuSans-Bold-4e"/>
      <use xlink:href="#DejaVuSans-Bold-44" transform="translate(83.691406 0)"/>
      <use xlink:href="#DejaVuSans-Bold-52" transform="translate(166.699219 0)"/>
      <use xlink:href="#DejaVuSans-Bold-43" transform="translate(243.701172 0)"/>
     </g>
    </g>
   </g>
   <g id="text_8">
    <g clip-path="url(#pf8b03243f6)">
     <!-- SASAC -->
     <g transform="translate(1257.420161 411.83359) scale(0.14 -0.14)">
      <defs>
       <path id="DejaVuSans-Bold-41" d="M 3419 850 
L 1538 850 
L 1241 0 
L 31 0 
L 1759 4666 
L 3194 4666 
L 4922 0 
L 3713 0 
L 3419 850 
z
M 1838 1716 
L 3116 1716 
L 2478 3572 
L 1838 1716 
z
" transform="scale(0.015625)"/>
      </defs>
      <use xlink:href="#DejaVuSans-Bold-53"/>
      <use xlink:href="#DejaVuSans-Bold-41" transform="translate(72.021484 0)"/>
      <use xlink:href="#DejaVuSans-Bold-53" transform="translate(149.414062 0)"/>
      <use xlink:href="#DejaVuSans-Bold-41" transform="translate(221.435547 0)"/>
      <use xlink:href="#DejaVuSans-Bold-43" transform="translate(298.828125 0)"/>
     </g>
    </g>
   </g>
   <g id="text_9">
    <g clip-path="url(#pf8b03243f6)">
     <!-- MSS -->
     <g transform="translate(1548.790686 411.83359) scale(0.14 -0.14)">
      <use xlink:href="#DejaVuSans-Bold-4d"/>
      <use xlink:href="#DejaVuSans-Bold-53" transform="translate(99.511719 0)"/>
      <use xlink:href="#DejaVuSans-Bold-53" transform="translate(167.033203 0)"/>
     </g>
    </g>
   </g>
   <g id="text_10">
    <g clip-path="url(#pf8b03243f6)">
     <!-- CAS -->
     <g transform="translate(421.729839 667.139375) scale(0.14 -0.14)">
      <use xlink:href="#DejaVuSans-Bold-43"/>
      <use xlink:href="#DejaVuSans-Bold-41" transform="translate(73.388672 0)"/>
      <use xlink:href="#DejaVuSans-Bold-53" transform="translate(150.78125 0)"/>
     </g>
    </g>
   </g>
   <g id="text_11">
    <g clip-path="url(#pf8b03243f6)">
     <!-- CAE -->
     <g transform="translate(704.038644 667.139375) scale(0.14 -0.14)">
      <use xlink:href="#DejaVuSans-Bold-43"/>
      <use xlink:href="#DejaVuSans-Bold-41" transform="translate(73.388672 0)"/>
      <use xlink:href="#DejaVuSans-Bold-45" transform="translate(150.78125 0)"/>
     </g>
    </g>
   </g>
   <g id="text_12">
    <g clip-path="url(#pf8b03243f6)">
     <!-- SSF -->
     <g transform="translate(986.875731 667.139375) scale(0.14 -0.14)">
      <use xlink:href="#DejaVuSans-Bold-53"/>
      <use xlink:href="#DejaVuSans-Bold-53" transform="translate(67.521484 0)"/>
      <use xlink:href="#DejaVuSans-Bold-46" transform="translate(139.542969 0)"/>
     </g>
    </g>
   </g>
   <g id="text_13">
    <g clip-path="url(#pf8b03243f6)">
     <!-- SASTIND -->
     <g transform="translate(1248.926099 667.139375) scale(0.14 -0.14)">
      <use xlink:href="#DejaVuSans-Bold-53"/>
      <use xlink:href="#DejaVuSans-Bold-41" transform="translate(72.021484 0)"/>
      <use xlink:href="#DejaVuSans-Bold-53" transform="translate(149.414062 0)"/>
      <use xlink:href="#DejaVuSans-Bold-54" transform="translate(221.435547 0)"/>
      <use xlink:href="#DejaVuSans-Bold-49" transform="translate(289.648438 0)"/>
      <use xlink:href="#DejaVuSans-Bold-4e" transform="translate(326.855469 0)"/>
      <use xlink:href="#DejaVuSans-Bold-44" transform="translate(410.546875 0)"/>
     </g>
    </g>
   </g>
   <g id="text_14">
    <g clip-path="url(#pf8b03243f6)">
     <!-- Provincial MCF Offices -->
     <g transform="translate(631.100832 922.44516) scale(0.14 -0.14)">
      <defs>
       <path id="DejaVuSans-Bold-50" d="M 588 4666 
L 2584 4666 
Q 3475 4666 3951 4270 
Q 4428 3875 4428 3144 
Q 4428 2409 3951 2014 
Q 3475 1619 2584 1619 
L 1791 1619 
L 1791 0 
L 588 0 
L 588 4666 
z
M 1791 3794 
L 1791 2491 
L 2456 2491 
Q 2806 2491 2997 2661 
Q 3188 2831 3188 3144 
Q 3188 3456 2997 3625 
Q 2806 3794 2456 3794 
L 1791 3794 
z
" transform="scale(0.015625)"/>
       <path id="DejaVuSans-Bold-76" d="M 97 3500 
L 1216 3500 
L 2088 1081 
L 2956 3500 
L 4078 3500 
L 2700 0 
L 1472 0 
L 97 3500 
z
" transform="scale(0.015625)"/>
       <path id="DejaVuSans-Bold-66" d="M 2841 4863 
L 2841 4128 
L 2222 4128 
Q 1984 4128 1890 4042 
Q 1797 3956 1797 3744 
L 1797 3500 
L 2753 3500 
L 2753 2700 
L 1797 2700 
L 1797 0 
L 678 0 
L 678 2700 
L 122 2700 
L 122 3500 
L 678 3500 
L 678 3744 
Q 678 4316 997 4589 
Q 1316 4863 1984 4863 
L 2841 4863 
z
" transform="scale(0.015625)"/>
      </defs>
      <use xlink:href="#DejaVuSans-Bold-50"/>
      <use xlink:href="#DejaVuSans-Bold-72" transform="translate(73.291016 0)"/>
      <use xlink:href="#DejaVuSans-Bold-6f" transform="translate(122.607422 0)"/>
      <use xlink:href="#DejaVuSans-Bold-76" transform="translate(191.308594 0)"/>
      <use xlink:href="#DejaVuSans-Bold-69" transform="translate(256.494141 0)"/>
      <use xlink:href="#DejaVuSans-Bold-6e" transform="translate(290.771484 0)"/>
      <use xlink:href="#DejaVuSans-Bold-63" transform="translate(361.962891 0)"/>
      <use xlink:href="#DejaVuSans-Bold-69" transform="translate(421.240234 0)"/>
      <use xlink:href="#DejaVuSans-Bold-61" transform="translate(455.517578 0)"/>
      <use xlink:href="#DejaVuSans-Bold-6c" transform="translate(522.998047 0)"/>
      <use xlink:href="#DejaVuSans-Bold-20" transform="translate(557.275391 0)"/>
      <use xlink:href="#DejaVuSans-Bold-4d" transform="translate(592.089844 0)"/>
      <use xlink:href="#DejaVuSans-Bold-43" transform="translate(691.601562 0)"/>
      <use xlink:href="#DejaVuSans-Bold-46" transform="translate(764.990234 0)"/>
      <use xlink:href="#DejaVuSans-Bold-20" transform="translate(833.300781 0)"/>
      <use xlink:href="#DejaVuSans-Bold-4f" transform="translate(868.115234 0)"/>
      <use xlink:href="#DejaVuSans-Bold-66" transform="translate(953.125 0)"/>
      <use xlink:href="#DejaVuSans-Bold-66" transform="translate(996.630859 0)"/>
      <use xlink:href="#DejaVuSans-Bold-69" transform="translate(1040.136719 0)"/>
      <use xlink:href="#DejaVuSans-Bold-63" transform="translate(1074.414062 0)"/>
      <use xlink:href="#DejaVuSans-Bold-65" transform="translate(1133.691406 0)"/>
      <use xlink:href="#DejaVuSans-Bold-73" transform="translate(1201.513672 0)"/>
     </g>
    </g>
   </g>
   <g id="text_15">
    <g clip-path="url(#pf8b03243f6)">
     <!-- Provincial -->
     <g transform="translate(962.414012 914.606691) scale(0.14 -0.14)">
      <use xlink:href="#DejaVuSans-Bold-50"/>
      <use xlink:href="#DejaVuSans-Bold-72" transform="translate(73.291016 0)"/>
      <use xlink:href="#DejaVuSans-Bold-6f" transform="translate(122.607422 0)"/>
      <use xlink:href="#DejaVuSans-Bold-76" transform="translate(191.308594 0)"/>
      <use xlink:href="#DejaVuSans-Bold-69" transform="translate(256.494141 0)"/>
      <use xlink:href="#DejaVuSans-Bold-6e" transform="translate(290.771484 0)"/>
      <use xlink:href="#DejaVuSans-Bold-63" transform="translate(361.962891 0)"/>
      <use xlink:href="#DejaVuSans-Bold-69" transform="translate(421.240234 0)"/>
      <use xlink:href="#DejaVuSans-Bold-61" transform="translate(455.517578 0)"/>
      <use xlink:href="#DejaVuSans-Bold-6c" transform="translate(522.998047 0)"/>
     </g>
    </g>
    <g clip-path="url(#pf8b03243f6)">
     <!-- Development Zones -->
     <g transform="translate(922.744793 930.283629) scale(0.14 -0.14)">
      <defs>
       <path id="DejaVuSans-Bold-70" d="M 1656 506 
L 1656 -1331 
L 538 -1331 
L 538 3500 
L 1656 3500 
L 1656 2988 
Q 1888 3294 2169 3439 
Q 2450 3584 2816 3584 
Q 3463 3584 3878 3070 
Q 4294 2556 4294 1747 
Q 4294 938 3878 423 
Q 3463 -91 2816 -91 
Q 2450 -91 2169 54 
Q 1888 200 1656 506 
z
M 2400 2772 
Q 2041 2772 1848 2508 
Q 1656 2244 1656 1747 
Q 1656 1250 1848 986 
Q 2041 722 2400 722 
Q 2759 722 2948 984 
Q 3138 1247 3138 1747 
Q 3138 2247 2948 2509 
Q 2759 2772 2400 2772 
z
" transform="scale(0.015625)"/>
       <path id="DejaVuSans-Bold-5a" d="M 359 4666 
L 4281 4666 
L 4281 3938 
L 1778 909 
L 4353 909 
L 4353 0 
L 288 0 
L 288 728 
L 2791 3756 
L 359 3756 
L 359 4666 
z
" transform="scale(0.015625)"/>
      </defs>
      <use xlink:href="#DejaVuSans-Bold-44"/>
      <use xlink:href="#DejaVuSans-Bold-65" transform="translate(83.007812 0)"/>
      <use xlink:href="#DejaVuSans-Bold-76" transform="translate(150.830078 0)"/>
      <use xlink:href="#DejaVuSans-Bold-65" transform="translate(216.015625 0)"/>
      <use xlink:href="#DejaVuSans-Bold-6c" transform="translate(283.837891 0)"/>
      <use xlink:href="#DejaVuSans-Bold-6f" transform="translate(318.115234 0)"/>
      <use xlink:href="#DejaVuSans-Bold-70" transform="translate(386.816406 0)"/>
      <use xlink:href="#DejaVuSans-Bold-6d" transform="translate(458.398438 0)"/>
      <use xlink:href="#DejaVuSans-Bold-65" transform="translate(562.597656 0)"/>
      <use xlink:href="#DejaVuSans-Bold-6e" transform="translate(630.419922 0)"/>
      <use xlink:href="#DejaVuSans-Bold-74" transform="translate(701.611328 0)"/>
      <use xlink:href="#DejaVuSans-Bold-20" transform="translate(749.414062 0)"/>
      <use xlink:href="#DejaVuSans-Bold-5a" transform="translate(784.228516 0)"/>
      <use xlink:href="#DejaVuSans-Bold-6f" transform="translate(856.738281 0)"/>
      <use xlink:href="#DejaVuSans-Bold-6e" transform="translate(925.439453 0)"/>
      <use xlink:href="#DejaVuSans-Bold-65" transform="translate(996.630859 0)"/>
      <use xlink:href="#DejaVuSans-Bold-73" transform="translate(1064.453125 0)"/>
     </g>
    </g>
   </g>
   <g id="text_16">
    <g clip-path="url(#pf8b03243f6)">
     <!-- SOEs -->
     <g transform="translate(558.410257 1177.750945) scale(0.14 -0.14)">
      <use xlink:href="#DejaVuSans-Bold-53"/>
      <use xlink:href="#DejaVuSans-Bold-4f" transform="translate(72.021484 0)"/>
      <use xlink:href="#DejaVuSans-Bold-45" transform="translate(157.03125 0)"/>
      <use xlink:href="#DejaVuSans-Bold-73" transform="translate(225.341797 0)"/>
     </g>
    </g>
   </g>
   <g id="text_17">
    <g clip-path="url(#pf8b03243f6)">
     <!-- University Defense Labs -->
     <g transform="translate(764.611563 1177.696258) scale(0.14 -0.14)">
      <defs>
       <path id="DejaVuSans-Bold-55" d="M 588 4666 
L 1791 4666 
L 1791 1869 
Q 1791 1291 1980 1042 
Q 2169 794 2597 794 
Q 3028 794 3217 1042 
Q 3406 1291 3406 1869 
L 3406 4666 
L 4609 4666 
L 4609 1869 
Q 4609 878 4112 393 
Q 3616 -91 2597 -91 
Q 1581 -91 1084 393 
Q 588 878 588 1869 
L 588 4666 
z
" transform="scale(0.015625)"/>
       <path id="DejaVuSans-Bold-4c" d="M 588 4666 
L 1791 4666 
L 1791 909 
L 3903 909 
L 3903 0 
L 588 0 
L 588 4666 
z
" transform="scale(0.015625)"/>
       <path id="DejaVuSans-Bold-62" d="M 2400 722 
Q 2759 722 2948 984 
Q 3138 1247 3138 1747 
Q 3138 2247 2948 2509 
Q 2759 2772 2400 2772 
Q 2041 2772 1848 2508 
Q 1656 2244 1656 1747 
Q 1656 1250 1848 986 
Q 2041 722 2400 722 
z
M 1656 2988 
Q 1888 3294 2169 3439 
Q 2450 3584 2816 3584 
Q 3463 3584 3878 3070 
Q 4294 2556 4294 1747 
Q 4294 938 3878 423 
Q 3463 -91 2816 -91 
Q 2450 -91 2169 54 
Q 1888 200 1656 506 
L 1656 0 
L 538 0 
L 538 4863 
L 1656 4863 
L 1656 2988 
z
" transform="scale(0.015625)"/>
      </defs>
      <use xlink:href="#DejaVuSans-Bold-55"/>
      <use xlink:href="#DejaVuSans-Bold-6e" transform="translate(81.201172 0)"/>
      <use xlink:href="#DejaVuSans-Bold-69" transform="translate(152.392578 0)"/>
      <use xlink:href="#DejaVuSans-Bold-76" transform="translate(186.669922 0)"/>
      <use xlink:href="#DejaVuSans-Bold-65" transform="translate(251.855469 0)"/>
      <use xlink:href="#DejaVuSans-Bold-72" transform="translate(319.677734 0)"/>
      <use xlink:href="#DejaVuSans-Bold-73" transform="translate(368.994141 0)"/>
      <use xlink:href="#DejaVuSans-Bold-69" transform="translate(428.515625 0)"/>
      <use xlink:href="#DejaVuSans-Bold-74" transform="translate(462.792969 0)"/>
      <use xlink:href="#DejaVuSans-Bold-79" transform="translate(510.595703 0)"/>
      <use xlink:href="#DejaVuSans-Bold-20" transform="translate(575.78125 0)"/>
      <use xlink:href="#DejaVuSans-Bold-44" transform="translate(610.595703 0)"/>
      <use xlink:href="#DejaVuSans-Bold-65" transform="translate(693.603516 0)"/>
      <use xlink:href="#DejaVuSans-Bold-66" transform="translate(761.425781 0)"/>
      <use xlink:href="#DejaVuSans-Bold-65" transform="translate(804.931641 0)"/>
      <use xlink:href="#DejaVuSans-Bold-6e" transform="translate(872.753906 0)"/>
      <use xlink:href="#DejaVuSans-Bold-73" transform="translate(943.945312 0)"/>
      <use xlink:href="#DejaVuSans-Bold-65" transform="translate(1003.466797 0)"/>
      <use xlink:href="#DejaVuSans-Bold-20" transform="translate(1071.289062 0)"/>
      <use xlink:href="#DejaVuSans-Bold-4c" transform="translate(1106.103516 0)"/>
      <use xlink:href="#DejaVuSans-Bold-61" transform="translate(1169.824219 0)"/>
      <use xlink:href="#DejaVuSans-Bold-62" transform="translate(1237.304688 0)"/>
      <use xlink:href="#DejaVuSans-Bold-73" transform="translate(1308.886719 0)"/>
     </g>
    </g>
   </g>
   <g id="text_18">
    <g clip-path="url(#pf8b03243f6)">
     <!-- Talent Recruitment -->
     <g transform="translate(1067.098962 1169.857789) scale(0.14 -0.14)">
      <use xlink:href="#DejaVuSans-Bold-54"/>
      <use xlink:href="#DejaVuSans-Bold-61" transform="translate(55.337891 0)"/>
      <use xlink:href="#DejaVuSans-Bold-6c" transform="translate(122.818359 0)"/>
      <use xlink:href="#DejaVuSans-Bold-65" transform="translate(157.095703 0)"/>
      <use xlink:href="#DejaVuSans-Bold-6e" transform="translate(224.917969 0)"/>
      <use xlink:href="#DejaVuSans-Bold-74" transform="translate(296.109375 0)"/>
      <use xlink:href="#DejaVuSans-Bold-20" transform="translate(343.912109 0)"/>
      <use xlink:href="#DejaVuSans-Bold-52" transform="translate(378.726562 0)"/>
      <use xlink:href="#DejaVuSans-Bold-65" transform="translate(455.728516 0)"/>
      <use xlink:href="#DejaVuSans-Bold-63" transform="translate(523.550781 0)"/>
      <use xlink:href="#DejaVuSans-Bold-72" transform="translate(582.828125 0)"/>
      <use xlink:href="#DejaVuSans-Bold-75" transform="translate(632.144531 0)"/>
      <use xlink:href="#DejaVuSans-Bold-69" transform="translate(703.335938 0)"/>
      <use xlink:href="#DejaVuSans-Bold-74" transform="translate(737.613281 0)"/>
      <use xlink:href="#DejaVuSans-Bold-6d" transform="translate(785.416016 0)"/>
      <use xlink:href="#DejaVuSans-Bold-65" transform="translate(889.615234 0)"/>
      <use xlink:href="#DejaVuSans-Bold-6e" transform="translate(957.4375 0)"/>
      <use xlink:href="#DejaVuSans-Bold-74" transform="translate(1028.628906 0)"/>
     </g>
    </g>
    <g clip-path="url(#pf8b03243f6)">
     <!-- Programs -->
     <g transform="translate(1104.411149 1185.534726) scale(0.14 -0.14)">
      <defs>
       <path id="DejaVuSans-Bold-67" d="M 2919 594 
Q 2688 288 2409 144 
Q 2131 0 1766 0 
Q 1125 0 706 504 
Q 288 1009 288 1791 
Q 288 2575 706 3076 
Q 1125 3578 1766 3578 
Q 2131 3578 2409 3434 
Q 2688 3291 2919 2981 
L 2919 3500 
L 4044 3500 
L 4044 353 
Q 4044 -491 3511 -936 
Q 2978 -1381 1966 -1381 
Q 1638 -1381 1331 -1331 
Q 1025 -1281 716 -1178 
L 716 -306 
Q 1009 -475 1290 -558 
Q 1572 -641 1856 -641 
Q 2406 -641 2662 -400 
Q 2919 -159 2919 353 
L 2919 594 
z
M 2181 2772 
Q 1834 2772 1640 2515 
Q 1447 2259 1447 1791 
Q 1447 1309 1634 1061 
Q 1822 813 2181 813 
Q 2531 813 2725 1069 
Q 2919 1325 2919 1791 
Q 2919 2259 2725 2515 
Q 2531 2772 2181 2772 
z
" transform="scale(0.015625)"/>
      </defs>
      <use xlink:href="#DejaVuSans-Bold-50"/>
      <use xlink:href="#DejaVuSans-Bold-72" transform="translate(73.291016 0)"/>
      <use xlink:href="#DejaVuSans-Bold-6f" transform="translate(122.607422 0)"/>
      <use xlink:href="#DejaVuSans-Bold-67" transform="translate(191.308594 0)"/>
      <use xlink:href="#DejaVuSans-Bold-72" transform="translate(262.890625 0)"/>
      <use xlink:href="#DejaVuSans-Bold-61" transform="translate(312.207031 0)"/>
      <use xlink:href="#DejaVuSans-Bold-6d" transform="translate(379.6875 0)"/>
      <use xlink:href="#DejaVuSans-Bold-73" transform="translate(483.886719 0)"/>
     </g>
    </g>
   </g>
   <g id="text_19">
    <!-- MCF Institutional Architecture - Professional Style -->
    <g transform="translate(519.9975 25.43625) scale(0.24 -0.24)">
     <defs>
      <path id="DejaVuSans-Bold-68" d="M 4056 2131 
L 4056 0 
L 2931 0 
L 2931 347 
L 2931 1625 
Q 2931 2084 2911 2256 
Q 2891 2428 2841 2509 
Q 2775 2619 2662 2680 
Q 2550 2741 2406 2741 
Q 2056 2741 1856 2470 
Q 1656 2200 1656 1722 
L 1656 0 
L 538 0 
L 538 4863 
L 1656 4863 
L 1656 2988 
Q 1909 3294 2193 3439 
Q 2478 3584 2822 3584 
Q 3428 3584 3742 3212 
Q 4056 2841 4056 2131 
z
" transform="scale(0.015625)"/>
      <path id="DejaVuSans-Bold-2d" d="M 347 2297 
L 2309 2297 
L 2309 1388 
L 347 1388 
L 347 2297 
z
" transform="scale(0.015625)"/>
     </defs>
     <use xlink:href="#DejaVuSans-Bold-4d"/>
     <use xlink:href="#DejaVuSans-Bold-43" transform="translate(99.511719 0)"/>
     <use xlink:href="#DejaVuSans-Bold-46" transform="translate(172.900391 0)"/>
     <use xlink:href="#DejaVuSans-Bold-20" transform="translate(241.210938 0)"/>
     <use xlink:href="#DejaVuSans-Bold-49" transform="translate(276.025391 0)"/>
     <use xlink:href="#DejaVuSans-Bold-6e" transform="translate(313.232422 0)"/>
     <use xlink:href="#DejaVuSans-Bold-73" transform="translate(384.423828 0)"/>
     <use xlink:href="#DejaVuSans-Bold-74" transform="translate(443.945312 0)"/>
     <use xlink:href="#DejaVuSans-Bold-69" transform="translate(491.748047 0)"/>
     <use xlink:href="#DejaVuSans-Bold-74" transform="translate(526.025391 0)"/>
     <use xlink:href="#DejaVuSans-Bold-75" transform="translate(573.828125 0)"/>
     <use xlink:href="#DejaVuSans-Bold-74" transform="translate(645.019531 0)"/>
     <use xlink:href="#DejaVuSans-Bold-69" transform="translate(692.822266 0)"/>
     <use xlink:href="#DejaVuSans-Bold-6f" transform="translate(727.099609 0)"/>
     <use xlink:href="#DejaVuSans-Bold-6e" transform="translate(795.800781 0)"/>
     <use xlink:href="#DejaVuSans-Bold-61" transform="translate(866.992188 0)"/>
     <use xlink:href="#DejaVuSans-Bold-6c" transform="translate(934.472656 0)"/>
     <use xlink:href="#DejaVuSans-Bold-20" transform="translate(968.75 0)"/>
     <use xlink:href="#DejaVuSans-Bold-41" transform="translate(1003.564453 0)"/>
     <use xlink:href="#DejaVuSans-Bold-72" transform="translate(1080.957031 0)"/>
     <use xlink:href="#DejaVuSans-Bold-63" transform="translate(1130.273438 0)"/>
     <use xlink:href="#DejaVuSans-Bold-68" transform="translate(1189.550781 0)"/>
     <use xlink:href="#DejaVuSans-Bold-69" transform="translate(1260.742188 0)"/>
     <use xlink:href="#DejaVuSans-Bold-74" transform="translate(1295.019531 0)"/>
     <use xlink:href="#DejaVuSans-Bold-65" transform="translate(1342.822266 0)"/>
     <use xlink:href="#DejaVuSans-Bold-63" transform="translate(1410.644531 0)"/>
     <use xlink:href="#DejaVuSans-Bold-74" transform="translate(1469.921875 0)"/>
     <use xlink:href="#DejaVuSans-Bold-75" transform="translate(1517.724609 0)"/>
     <use xlink:href="#DejaVuSans-Bold-72" transform="translate(1588.916016 0)"/>
     <use xlink:href="#DejaVuSans-Bold-65" transform="translate(1638.232422 0)"/>
     <use xlink:href="#DejaVuSans-Bold-20" transform="translate(1706.054688 0)"/>
     <use xlink:href="#DejaVuSans-Bold-2d" transform="translate(1740.869141 0)"/>
     <use xlink:href="#DejaVuSans-Bold-20" transform="translate(1782.373047 0)"/>
     <use xlink:href="#DejaVuSans-Bold-50" transform="translate(1817.1875 0)"/>
     <use xlink:href="#DejaVuSans-Bold-72" transform="translate(1890.478516 0)"/>
     <use xlink:href="#DejaVuSans-Bold-6f" transform="translate(1939.794922 0)"/>
     <use xlink:href="#DejaVuSans-Bold-66" transform="translate(2008.496094 0)"/>
     <use xlink:href="#DejaVuSans-Bold-65" transform="translate(2052.001953 0)"/>
     <use xlink:href="#DejaVuSans-Bold-73" transform="translate(2119.824219 0)"/>
     <use xlink:href="#DejaVuSans-Bold-73" transform="translate(2179.345703 0)"/>
     <use xlink:href="#DejaVuSans-Bold-69" transform="translate(2238.867188 0)"/>
     <use xlink:href="#DejaVuSans-Bold-6f" transform="translate(2273.144531 0)"/>
     <use xlink:href="#DejaVuSans-Bold-6e" transform="translate(2341.845703 0)"/>
     <use xlink:href="#DejaVuSans-Bold-61" transform="translate(2413.037109 0)"/>
     <use xlink:href="#DejaVuSans-Bold-6c" transform="translate(2480.517578 0)"/>
     <use xlink:href="#DejaVuSans-Bold-20" transform="translate(2514.794922 0)"/>
     <use xlink:href="#DejaVuSans-Bold-53" transform="translate(2549.609375 0)"/>
     <use xlink:href="#DejaVuSans-Bold-74" transform="translate(2621.630859 0)"/>
     <use xlink:href="#DejaVuSans-Bold-79" transform="translate(2669.433594 0)"/>
     <use xlink:href="#DejaVuSans-Bold-6c" transform="translate(2734.619141 0)"/>
     <use xlink:href="#DejaVuSans-Bold-65" transform="translate(2768.896484 0)"/>
    </g>
   </g>
   <g id="legend_1">
    <g id="patch_23">
     <path d="M 17 243.51625 
L 201.31 243.51625 
Q 204.11 243.51625 204.11 240.71625 
L 204.11 55.23625 
Q 204.11 52.43625 201.31 52.43625 
L 17 52.43625 
Q 14.2 52.43625 14.2 55.23625 
L 14.2 240.71625 
Q 14.2 243.51625 17 243.51625 
z
" style="fill: #ffffff; opacity: 0.9; stroke: #cccccc; stroke-linejoin: miter"/>
    </g>
    <g id="text_20">
     <!-- Node Types -->
     <g transform="translate(63.19125 70.19375) scale(0.16 -0.16)">
      <defs>
       <path id="DejaVuSans-4e" d="M 628 4666 
L 1478 4666 
L 3547 763 
L 3547 4666 
L 4159 4666 
L 4159 0 
L 3309 0 
L 1241 3903 
L 1241 0 
L 628 0 
L 628 4666 
z
" transform="scale(0.015625)"/>
       <path id="DejaVuSans-6f" d="M 1959 3097 
Q 1497 3097 1228 2736 
Q 959 2375 959 1747 
Q 959 1119 1226 758 
Q 1494 397 1959 397 
Q 2419 397 2687 759 
Q 2956 1122 2956 1747 
Q 2956 2369 2687 2733 
Q 2419 3097 1959 3097 
z
M 1959 3584 
Q 2709 3584 3137 3096 
Q 3566 2609 3566 1747 
Q 3566 888 3137 398 
Q 2709 -91 1959 -91 
Q 1206 -91 779 398 
Q 353 888 353 1747 
Q 353 2609 779 3096 
Q 1206 3584 1959 3584 
z
" transform="scale(0.015625)"/>
       <path id="DejaVuSans-64" d="M 2906 2969 
L 2906 4863 
L 3481 4863 
L 3481 0 
L 2906 0 
L 2906 525 
Q 2725 213 2448 61 
Q 2172 -91 1784 -91 
Q 1150 -91 751 415 
Q 353 922 353 1747 
Q 353 2572 751 3078 
Q 1150 3584 1784 3584 
Q 2172 3584 2448 3432 
Q 2725 3281 2906 2969 
z
M 947 1747 
Q 947 1113 1208 752 
Q 1469 391 1925 391 
Q 2381 391 2643 752 
Q 2906 1113 2906 1747 
Q 2906 2381 2643 2742 
Q 2381 3103 1925 3103 
Q 1469 3103 1208 2742 
Q 947 2381 947 1747 
z
" transform="scale(0.015625)"/>
       <path id="DejaVuSans-65" d="M 3597 1894 
L 3597 1613 
L 953 1613 
Q 991 1019 1311 708 
Q 1631 397 2203 397 
Q 2534 397 2845 478 
Q 3156 559 3463 722 
L 3463 178 
Q 3153 47 2828 -22 
Q 2503 -91 2169 -91 
Q 1331 -91 842 396 
Q 353 884 353 1716 
Q 353 2575 817 3079 
Q 1281 3584 2069 3584 
Q 2775 3584 3186 3129 
Q 3597 2675 3597 1894 
z
M 3022 2063 
Q 3016 2534 2758 2815 
Q 2500 3097 2075 3097 
Q 1594 3097 1305 2825 
Q 1016 2553 972 2059 
L 3022 2063 
z
" transform="scale(0.015625)"/>
       <path id="DejaVuSans-20" transform="scale(0.015625)"/>
       <path id="DejaVuSans-54" d="M -19 4666 
L 3928 4666 
L 3928 4134 
L 2272 4134 
L 2272 0 
L 1638 0 
L 1638 4134 
L -19 4134 
L -19 4666 
z
" transform="scale(0.015625)"/>
       <path id="DejaVuSans-79" d="M 2059 -325 
Q 1816 -950 1584 -1140 
Q 1353 -1331 966 -1331 
L 506 -1331 
L 506 -850 
L 844 -850 
Q 1081 -850 1212 -737 
Q 1344 -625 1503 -206 
L 1606 56 
L 191 3500 
L 800 3500 
L 1894 763 
L 2988 3500 
L 3597 3500 
L 2059 -325 
z
" transform="scale(0.015625)"/>
       <path id="DejaVuSans-70" d="M 1159 525 
L 1159 -1331 
L 581 -1331 
L 581 3500 
L 1159 3500 
L 1159 2969 
Q 1341 3281 1617 3432 
Q 1894 3584 2278 3584 
Q 2916 3584 3314 3078 
Q 3713 2572 3713 1747 
Q 3713 922 3314 415 
Q 2916 -91 2278 -91 
Q 1894 -91 1617 61 
Q 1341 213 1159 525 
z
M 3116 1747 
Q 3116 2381 2855 2742 
Q 2594 3103 2138 3103 
Q 1681 3103 1420 2742 
Q 1159 2381 1159 1747 
Q 1159 1113 1420 752 
Q 1681 391 2138 391 
Q 2594 391 2855 752 
Q 3116 1113 3116 1747 
z
" transform="scale(0.015625)"/>
       <path id="DejaVuSans-73" d="M 2834 3397 
L 2834 2853 
Q 2591 2978 2328 3040 
Q 2066 3103 1784 3103 
Q 1356 3103 1142 2972 
Q 928 2841 928 2578 
Q 928 2378 1081 2264 
Q 1234 2150 1697 2047 
L 1894 2003 
Q 2506 1872 2764 1633 
Q 3022 1394 3022 966 
Q 3022 478 2636 193 
Q 2250 -91 1575 -91 
Q 1294 -91 989 -36 
Q 684 19 347 128 
L 347 722 
Q 666 556 975 473 
Q 1284 391 1588 391 
Q 1994 391 2212 530 
Q 2431 669 2431 922 
Q 2431 1156 2273 1281 
Q 2116 1406 1581 1522 
L 1381 1569 
Q 847 1681 609 1914 
Q 372 2147 372 2553 
Q 372 3047 722 3315 
Q 1072 3584 1716 3584 
Q 2034 3584 2315 3537 
Q 2597 3491 2834 3397 
z
" transform="scale(0.015625)"/>
      </defs>
      <use xlink:href="#DejaVuSans-4e"/>
      <use xlink:href="#DejaVuSans-6f" transform="translate(74.804688 0)"/>
      <use xlink:href="#DejaVuSans-64" transform="translate(135.986328 0)"/>
      <use xlink:href="#DejaVuSans-65" transform="translate(199.462891 0)"/>
      <use xlink:href="#DejaVuSans-20" transform="translate(260.986328 0)"/>
      <use xlink:href="#DejaVuSans-54" transform="translate(292.773438 0)"/>
      <use xlink:href="#DejaVuSans-79" transform="translate(338.232422 0)"/>
      <use xlink:href="#DejaVuSans-70" transform="translate(397.412109 0)"/>
      <use xlink:href="#DejaVuSans-65" transform="translate(460.888672 0)"/>
      <use xlink:href="#DejaVuSans-73" transform="translate(522.412109 0)"/>
     </g>
    </g>
    <g id="patch_24">
     <path d="M 19.8 91.159062 
L 47.8 91.159062 
L 47.8 81.359062 
L 19.8 81.359062 
z
" style="fill: #2c3e50; stroke: #2c3e50; stroke-linejoin: miter"/>
    </g>
    <g id="text_21">
     <!-- Central Authority -->
     <g transform="translate(59 91.159062) scale(0.14 -0.14)">
      <defs>
       <path id="DejaVuSans-43" d="M 4122 4306 
L 4122 3641 
Q 3803 3938 3442 4084 
Q 3081 4231 2675 4231 
Q 1875 4231 1450 3742 
Q 1025 3253 1025 2328 
Q 1025 1406 1450 917 
Q 1875 428 2675 428 
Q 3081 428 3442 575 
Q 3803 722 4122 1019 
L 4122 359 
Q 3791 134 3420 21 
Q 3050 -91 2638 -91 
Q 1578 -91 968 557 
Q 359 1206 359 2328 
Q 359 3453 968 4101 
Q 1578 4750 2638 4750 
Q 3056 4750 3426 4639 
Q 3797 4528 4122 4306 
z
" transform="scale(0.015625)"/>
       <path id="DejaVuSans-6e" d="M 3513 2113 
L 3513 0 
L 2938 0 
L 2938 2094 
Q 2938 2591 2744 2837 
Q 2550 3084 2163 3084 
Q 1697 3084 1428 2787 
Q 1159 2491 1159 1978 
L 1159 0 
L 581 0 
L 581 3500 
L 1159 3500 
L 1159 2956 
Q 1366 3272 1645 3428 
Q 1925 3584 2291 3584 
Q 2894 3584 3203 3211 
Q 3513 2838 3513 2113 
z
" transform="scale(0.015625)"/>
       <path id="DejaVuSans-74" d="M 1172 4494 
L 1172 3500 
L 2356 3500 
L 2356 3053 
L 1172 3053 
L 1172 1153 
Q 1172 725 1289 603 
Q 1406 481 1766 481 
L 2356 481 
L 2356 0 
L 1766 0 
Q 1100 0 847 248 
Q 594 497 594 1153 
L 594 3053 
L 172 3053 
L 172 3500 
L 594 3500 
L 594 4494 
L 1172 4494 
z
" transform="scale(0.015625)"/>
       <path id="DejaVuSans-72" d="M 2631 2963 
Q 2534 3019 2420 3045 
Q 2306 3072 2169 3072 
Q 1681 3072 1420 2755 
Q 1159 2438 1159 1844 
L 1159 0 
L 581 0 
L 581 3500 
L 1159 3500 
L 1159 2956 
Q 1341 3275 1631 3429 
Q 1922 3584 2338 3584 
Q 2397 3584 2469 3576 
Q 2541 3569 2628 3553 
L 2631 2963 
z
" transform="scale(0.015625)"/>
       <path id="DejaVuSans-61" d="M 2194 1759 
Q 1497 1759 1228 1600 
Q 959 1441 959 1056 
Q 959 750 1161 570 
Q 1363 391 1709 391 
Q 2188 391 2477 730 
Q 2766 1069 2766 1631 
L 2766 1759 
L 2194 1759 
z
M 3341 1997 
L 3341 0 
L 2766 0 
L 2766 531 
Q 2569 213 2275 61 
Q 1981 -91 1556 -91 
Q 1019 -91 701 211 
Q 384 513 384 1019 
Q 384 1609 779 1909 
Q 1175 2209 1959 2209 
L 2766 2209 
L 2766 2266 
Q 2766 2663 2505 2880 
Q 2244 3097 1772 3097 
Q 1472 3097 1187 3025 
Q 903 2953 641 2809 
L 641 3341 
Q 956 3463 1253 3523 
Q 1550 3584 1831 3584 
Q 2591 3584 2966 3190 
Q 3341 2797 3341 1997 
z
" transform="scale(0.015625)"/>
       <path id="DejaVuSans-6c" d="M 603 4863 
L 1178 4863 
L 1178 0 
L 603 0 
L 603 4863 
z
" transform="scale(0.015625)"/>
       <path id="DejaVuSans-41" d="M 2188 4044 
L 1331 1722 
L 3047 1722 
L 2188 4044 
z
M 1831 4666 
L 2547 4666 
L 4325 0 
L 3669 0 
L 3244 1197 
L 1141 1197 
L 716 0 
L 50 0 
L 1831 4666 
z
" transform="scale(0.015625)"/>
       <path id="DejaVuSans-75" d="M 544 1381 
L 544 3500 
L 1119 3500 
L 1119 1403 
Q 1119 906 1312 657 
Q 1506 409 1894 409 
Q 2359 409 2629 706 
Q 2900 1003 2900 1516 
L 2900 3500 
L 3475 3500 
L 3475 0 
L 2900 0 
L 2900 538 
Q 2691 219 2414 64 
Q 2138 -91 1772 -91 
Q 1169 -91 856 284 
Q 544 659 544 1381 
z
M 1991 3584 
L 1991 3584 
z
" transform="scale(0.015625)"/>
       <path id="DejaVuSans-68" d="M 3513 2113 
L 3513 0 
L 2938 0 
L 2938 2094 
Q 2938 2591 2744 2837 
Q 2550 3084 2163 3084 
Q 1697 3084 1428 2787 
Q 1159 2491 1159 1978 
L 1159 0 
L 581 0 
L 581 4863 
L 1159 4863 
L 1159 2956 
Q 1366 3272 1645 3428 
Q 1925 3584 2291 3584 
Q 2894 3584 3203 3211 
Q 3513 2838 3513 2113 
z
" transform="scale(0.015625)"/>
       <path id="DejaVuSans-69" d="M 603 3500 
L 1178 3500 
L 1178 0 
L 603 0 
L 603 3500 
z
M 603 4863 
L 1178 4863 
L 1178 4134 
L 603 4134 
L 603 4863 
z
" transform="scale(0.015625)"/>
      </defs>
      <use xlink:href="#DejaVuSans-43"/>
      <use xlink:href="#DejaVuSans-65" transform="translate(69.824219 0)"/>
      <use xlink:href="#DejaVuSans-6e" transform="translate(131.347656 0)"/>
      <use xlink:href="#DejaVuSans-74" transform="translate(194.726562 0)"/>
      <use xlink:href="#DejaVuSans-72" transform="translate(233.935547 0)"/>
      <use xlink:href="#DejaVuSans-61" transform="translate(275.048828 0)"/>
      <use xlink:href="#DejaVuSans-6c" transform="translate(336.328125 0)"/>
      <use xlink:href="#DejaVuSans-20" transform="translate(364.111328 0)"/>
      <use xlink:href="#DejaVuSans-41" transform="translate(395.898438 0)"/>
      <use xlink:href="#DejaVuSans-75" transform="translate(464.306641 0)"/>
      <use xlink:href="#DejaVuSans-74" transform="translate(527.685547 0)"/>
      <use xlink:href="#DejaVuSans-68" transform="translate(566.894531 0)"/>
      <use xlink:href="#DejaVuSans-6f" transform="translate(630.273438 0)"/>
      <use xlink:href="#DejaVuSans-72" transform="translate(691.455078 0)"/>
      <use xlink:href="#DejaVuSans-69" transform="translate(732.568359 0)"/>
      <use xlink:href="#DejaVuSans-74" transform="translate(760.351562 0)"/>
      <use xlink:href="#DejaVuSans-79" transform="translate(799.560547 0)"/>
     </g>
    </g>
    <g id="patch_25">
     <path d="M 19.8 111.708437 
L 47.8 111.708437 
L 47.8 101.908437 
L 19.8 101.908437 
z
" style="fill: #3498db; stroke: #3498db; stroke-linejoin: miter"/>
    </g>
    <g id="text_22">
     <!-- Ministry -->
     <g transform="translate(59 111.708437) scale(0.14 -0.14)">
      <defs>
       <path id="DejaVuSans-4d" d="M 628 4666 
L 1569 4666 
L 2759 1491 
L 3956 4666 
L 4897 4666 
L 4897 0 
L 4281 0 
L 4281 4097 
L 3078 897 
L 2444 897 
L 1241 4097 
L 1241 0 
L 628 0 
L 628 4666 
z
" transform="scale(0.015625)"/>
      </defs>
      <use xlink:href="#DejaVuSans-4d"/>
      <use xlink:href="#DejaVuSans-69" transform="translate(86.279297 0)"/>
      <use xlink:href="#DejaVuSans-6e" transform="translate(114.0625 0)"/>
      <use xlink:href="#DejaVuSans-69" transform="translate(177.441406 0)"/>
      <use xlink:href="#DejaVuSans-73" transform="translate(205.224609 0)"/>
      <use xlink:href="#DejaVuSans-74" transform="translate(257.324219 0)"/>
      <use xlink:href="#DejaVuSans-72" transform="translate(296.533203 0)"/>
      <use xlink:href="#DejaVuSans-79" transform="translate(337.646484 0)"/>
     </g>
    </g>
    <g id="patch_26">
     <path d="M 19.8 132.257812 
L 47.8 132.257812 
L 47.8 122.457812 
L 19.8 122.457812 
z
" style="fill: #9b59b6; stroke: #9b59b6; stroke-linejoin: miter"/>
    </g>
    <g id="text_23">
     <!-- Commission -->
     <g transform="translate(59 132.257812) scale(0.14 -0.14)">
      <defs>
       <path id="DejaVuSans-6d" d="M 3328 2828 
Q 3544 3216 3844 3400 
Q 4144 3584 4550 3584 
Q 5097 3584 5394 3201 
Q 5691 2819 5691 2113 
L 5691 0 
L 5113 0 
L 5113 2094 
Q 5113 2597 4934 2840 
Q 4756 3084 4391 3084 
Q 3944 3084 3684 2787 
Q 3425 2491 3425 1978 
L 3425 0 
L 2847 0 
L 2847 2094 
Q 2847 2600 2669 2842 
Q 2491 3084 2119 3084 
Q 1678 3084 1418 2786 
Q 1159 2488 1159 1978 
L 1159 0 
L 581 0 
L 581 3500 
L 1159 3500 
L 1159 2956 
Q 1356 3278 1631 3431 
Q 1906 3584 2284 3584 
Q 2666 3584 2933 3390 
Q 3200 3197 3328 2828 
z
" transform="scale(0.015625)"/>
      </defs>
      <use xlink:href="#DejaVuSans-43"/>
      <use xlink:href="#DejaVuSans-6f" transform="translate(69.824219 0)"/>
      <use xlink:href="#DejaVuSans-6d" transform="translate(131.005859 0)"/>
      <use xlink:href="#DejaVuSans-6d" transform="translate(228.417969 0)"/>
      <use xlink:href="#DejaVuSans-69" transform="translate(325.830078 0)"/>
      <use xlink:href="#DejaVuSans-73" transform="translate(353.613281 0)"/>
      <use xlink:href="#DejaVuSans-73" transform="translate(405.712891 0)"/>
      <use xlink:href="#DejaVuSans-69" transform="translate(457.8125 0)"/>
      <use xlink:href="#DejaVuSans-6f" transform="translate(485.595703 0)"/>
      <use xlink:href="#DejaVuSans-6e" transform="translate(546.777344 0)"/>
     </g>
    </g>
    <g id="patch_27">
     <path d="M 19.8 152.807187 
L 47.8 152.807187 
L 47.8 143.007187 
L 19.8 143.007187 
z
" style="fill: #16a085; stroke: #16a085; stroke-linejoin: miter"/>
    </g>
    <g id="text_24">
     <!-- Agency -->
     <g transform="translate(59 152.807187) scale(0.14 -0.14)">
      <defs>
       <path id="DejaVuSans-67" d="M 2906 1791 
Q 2906 2416 2648 2759 
Q 2391 3103 1925 3103 
Q 1463 3103 1205 2759 
Q 947 2416 947 1791 
Q 947 1169 1205 825 
Q 1463 481 1925 481 
Q 2391 481 2648 825 
Q 2906 1169 2906 1791 
z
M 3481 434 
Q 3481 -459 3084 -895 
Q 2688 -1331 1869 -1331 
Q 1566 -1331 1297 -1286 
Q 1028 -1241 775 -1147 
L 775 -588 
Q 1028 -725 1275 -790 
Q 1522 -856 1778 -856 
Q 2344 -856 2625 -561 
Q 2906 -266 2906 331 
L 2906 616 
Q 2728 306 2450 153 
Q 2172 0 1784 0 
Q 1141 0 747 490 
Q 353 981 353 1791 
Q 353 2603 747 3093 
Q 1141 3584 1784 3584 
Q 2172 3584 2450 3431 
Q 2728 3278 2906 2969 
L 2906 3500 
L 3481 3500 
L 3481 434 
z
" transform="scale(0.015625)"/>
       <path id="DejaVuSans-63" d="M 3122 3366 
L 3122 2828 
Q 2878 2963 2633 3030 
Q 2388 3097 2138 3097 
Q 1578 3097 1268 2742 
Q 959 2388 959 1747 
Q 959 1106 1268 751 
Q 1578 397 2138 397 
Q 2388 397 2633 464 
Q 2878 531 3122 666 
L 3122 134 
Q 2881 22 2623 -34 
Q 2366 -91 2075 -91 
Q 1284 -91 818 406 
Q 353 903 353 1747 
Q 353 2603 823 3093 
Q 1294 3584 2113 3584 
Q 2378 3584 2631 3529 
Q 2884 3475 3122 3366 
z
" transform="scale(0.015625)"/>
      </defs>
      <use xlink:href="#DejaVuSans-41"/>
      <use xlink:href="#DejaVuSans-67" transform="translate(68.408203 0)"/>
      <use xlink:href="#DejaVuSans-65" transform="translate(131.884766 0)"/>
      <use xlink:href="#DejaVuSans-6e" transform="translate(193.408203 0)"/>
      <use xlink:href="#DejaVuSans-63" transform="translate(256.787109 0)"/>
      <use xlink:href="#DejaVuSans-79" transform="translate(311.767578 0)"/>
     </g>
    </g>
    <g id="patch_28">
     <path d="M 19.8 173.356562 
L 47.8 173.356562 
L 47.8 163.556562 
L 19.8 163.556562 
z
" style="fill: #e67e22; stroke: #e67e22; stroke-linejoin: miter"/>
    </g>
    <g id="text_25">
     <!-- Research Institution -->
     <g transform="translate(59 173.356562) scale(0.14 -0.14)">
      <defs>
       <path id="DejaVuSans-52" d="M 2841 2188 
Q 3044 2119 3236 1894 
Q 3428 1669 3622 1275 
L 4263 0 
L 3584 0 
L 2988 1197 
Q 2756 1666 2539 1819 
Q 2322 1972 1947 1972 
L 1259 1972 
L 1259 0 
L 628 0 
L 628 4666 
L 2053 4666 
Q 2853 4666 3247 4331 
Q 3641 3997 3641 3322 
Q 3641 2881 3436 2590 
Q 3231 2300 2841 2188 
z
M 1259 4147 
L 1259 2491 
L 2053 2491 
Q 2509 2491 2742 2702 
Q 2975 2913 2975 3322 
Q 2975 3731 2742 3939 
Q 2509 4147 2053 4147 
L 1259 4147 
z
" transform="scale(0.015625)"/>
       <path id="DejaVuSans-49" d="M 628 4666 
L 1259 4666 
L 1259 0 
L 628 0 
L 628 4666 
z
" transform="scale(0.015625)"/>
      </defs>
      <use xlink:href="#DejaVuSans-52"/>
      <use xlink:href="#DejaVuSans-65" transform="translate(64.982422 0)"/>
      <use xlink:href="#DejaVuSans-73" transform="translate(126.505859 0)"/>
      <use xlink:href="#DejaVuSans-65" transform="translate(178.605469 0)"/>
      <use xlink:href="#DejaVuSans-61" transform="translate(240.128906 0)"/>
      <use xlink:href="#DejaVuSans-72" transform="translate(301.408203 0)"/>
      <use xlink:href="#DejaVuSans-63" transform="translate(340.271484 0)"/>
      <use xlink:href="#DejaVuSans-68" transform="translate(395.251953 0)"/>
      <use xlink:href="#DejaVuSans-20" transform="translate(458.630859 0)"/>
      <use xlink:href="#DejaVuSans-49" transform="translate(490.417969 0)"/>
      <use xlink:href="#DejaVuSans-6e" transform="translate(519.910156 0)"/>
      <use xlink:href="#DejaVuSans-73" transform="translate(583.289062 0)"/>
      <use xlink:href="#DejaVuSans-74" transform="translate(635.388672 0)"/>
      <use xlink:href="#DejaVuSans-69" transform="translate(674.597656 0)"/>
      <use xlink:href="#DejaVuSans-74" transform="translate(702.380859 0)"/>
      <use xlink:href="#DejaVuSans-75" transform="translate(741.589844 0)"/>
      <use xlink:href="#DejaVuSans-74" transform="translate(804.96875 0)"/>
      <use xlink:href="#DejaVuSans-69" transform="translate(844.177734 0)"/>
      <use xlink:href="#DejaVuSans-6f" transform="translate(871.960938 0)"/>
      <use xlink:href="#DejaVuSans-6e" transform="translate(933.142578 0)"/>
     </g>
    </g>
    <g id="patch_29">
     <path d="M 19.8 193.905937 
L 47.8 193.905937 
L 47.8 184.105937 
L 19.8 184.105937 
z
" style="fill: #c0392b; stroke: #c0392b; stroke-linejoin: miter"/>
    </g>
    <g id="text_26">
     <!-- Military -->
     <g transform="translate(59 193.905937) scale(0.14 -0.14)">
      <use xlink:href="#DejaVuSans-4d"/>
      <use xlink:href="#DejaVuSans-69" transform="translate(86.279297 0)"/>
      <use xlink:href="#DejaVuSans-6c" transform="translate(114.0625 0)"/>
      <use xlink:href="#DejaVuSans-69" transform="translate(141.845703 0)"/>
      <use xlink:href="#DejaVuSans-74" transform="translate(169.628906 0)"/>
      <use xlink:href="#DejaVuSans-61" transform="translate(208.837891 0)"/>
      <use xlink:href="#DejaVuSans-72" transform="translate(270.117188 0)"/>
      <use xlink:href="#DejaVuSans-79" transform="translate(311.230469 0)"/>
     </g>
    </g>
    <g id="patch_30">
     <path d="M 19.8 214.455312 
L 47.8 214.455312 
L 47.8 204.655312 
L 19.8 204.655312 
z
" style="fill: #7f8c8d; stroke: #7f8c8d; stroke-linejoin: miter"/>
    </g>
    <g id="text_27">
     <!-- Provincial -->
     <g transform="translate(59 214.455312) scale(0.14 -0.14)">
      <defs>
       <path id="DejaVuSans-50" d="M 1259 4147 
L 1259 2394 
L 2053 2394 
Q 2494 2394 2734 2622 
Q 2975 2850 2975 3272 
Q 2975 3691 2734 3919 
Q 2494 4147 2053 4147 
L 1259 4147 
z
M 628 4666 
L 2053 4666 
Q 2838 4666 3239 4311 
Q 3641 3956 3641 3272 
Q 3641 2581 3239 2228 
Q 2838 1875 2053 1875 
L 1259 1875 
L 1259 0 
L 628 0 
L 628 4666 
z
" transform="scale(0.015625)"/>
       <path id="DejaVuSans-76" d="M 191 3500 
L 800 3500 
L 1894 563 
L 2988 3500 
L 3597 3500 
L 2284 0 
L 1503 0 
L 191 3500 
z
" transform="scale(0.015625)"/>
      </defs>
      <use xlink:href="#DejaVuSans-50"/>
      <use xlink:href="#DejaVuSans-72" transform="translate(58.552734 0)"/>
      <use xlink:href="#DejaVuSans-6f" transform="translate(97.416016 0)"/>
      <use xlink:href="#DejaVuSans-76" transform="translate(158.597656 0)"/>
      <use xlink:href="#DejaVuSans-69" transform="translate(217.777344 0)"/>
      <use xlink:href="#DejaVuSans-6e" transform="translate(245.560547 0)"/>
      <use xlink:href="#DejaVuSans-63" transform="translate(308.939453 0)"/>
      <use xlink:href="#DejaVuSans-69" transform="translate(363.919922 0)"/>
      <use xlink:href="#DejaVuSans-61" transform="translate(391.703125 0)"/>
      <use xlink:href="#DejaVuSans-6c" transform="translate(452.982422 0)"/>
     </g>
    </g>
    <g id="patch_31">
     <path d="M 19.8 235.004687 
L 47.8 235.004687 
L 47.8 225.204687 
L 19.8 225.204687 
z
" style="fill: #27ae60; stroke: #27ae60; stroke-linejoin: miter"/>
    </g>
    <g id="text_28">
     <!-- Implementation -->
     <g transform="translate(59 235.004687) scale(0.14 -0.14)">
      <use xlink:href="#DejaVuSans-49"/>
      <use xlink:href="#DejaVuSans-6d" transform="translate(29.492188 0)"/>
      <use xlink:href="#DejaVuSans-70" transform="translate(126.904297 0)"/>
      <use xlink:href="#DejaVuSans-6c" transform="translate(190.380859 0)"/>
      <use xlink:href="#DejaVuSans-65" transform="translate(218.164062 0)"/>
      <use xlink:href="#DejaVuSans-6d" transform="translate(279.6875 0)"/>
      <use xlink:href="#DejaVuSans-65" transform="translate(377.099609 0)"/>
      <use xlink:href="#DejaVuSans-6e" transform="translate(438.623047 0)"/>
      <use xlink:href="#DejaVuSans-74" transform="translate(502.001953 0)"/>
      <use xlink:href="#DejaVuSans-61" transform="translate(541.210938 0)"/>
      <use xlink:href="#DejaVuSans-74" transform="translate(602.490234 0)"/>
      <use xlink:href="#DejaVuSans-69" transform="translate(641.699219 0)"/>
      <use xlink:href="#DejaVuSans-6f" transform="translate(669.482422 0)"/>
      <use xlink:href="#DejaVuSans-6e" transform="translate(730.664062 0)"/>
     </g>
    </g>
   </g>
   <g id="legend_2">
    <g id="patch_32">
     <path d="M 1549.8175 264.065625 
L 1703.8 264.065625 
Q 1706.6 264.065625 1706.6 261.265625 
L 1706.6 55.23625 
Q 1706.6 52.43625 1703.8 52.43625 
L 1549.8175 52.43625 
Q 1547.0175 52.43625 1547.0175 55.23625 
L 1547.0175 261.265625 
Q 1547.0175 264.065625 1549.8175 264.065625 
z
" style="fill: #ffffff; opacity: 0.9; stroke: #cccccc; stroke-linejoin: miter"/>
    </g>
    <g id="text_29">
     <!-- Relationship Types -->
     <g transform="translate(1552.6175 70.19375) scale(0.16 -0.16)">
      <use xlink:href="#DejaVuSans-52"/>
      <use xlink:href="#DejaVuSans-65" transform="translate(64.982422 0)"/>
      <use xlink:href="#DejaVuSans-6c" transform="translate(126.505859 0)"/>
      <use xlink:href="#DejaVuSans-61" transform="translate(154.289062 0)"/>
      <use xlink:href="#DejaVuSans-74" transform="translate(215.568359 0)"/>
      <use xlink:href="#DejaVuSans-69" transform="translate(254.777344 0)"/>
      <use xlink:href="#DejaVuSans-6f" transform="translate(282.560547 0)"/>
      <use xlink:href="#DejaVuSans-6e" transform="translate(343.742188 0)"/>
      <use xlink:href="#DejaVuSans-73" transform="translate(407.121094 0)"/>
      <use xlink:href="#DejaVuSans-68" transform="translate(459.220703 0)"/>
      <use xlink:href="#DejaVuSans-69" transform="translate(522.599609 0)"/>
      <use xlink:href="#DejaVuSans-70" transform="translate(550.382812 0)"/>
      <use xlink:href="#DejaVuSans-20" transform="translate(613.859375 0)"/>
      <use xlink:href="#DejaVuSans-54" transform="translate(645.646484 0)"/>
      <use xlink:href="#DejaVuSans-79" transform="translate(691.105469 0)"/>
      <use xlink:href="#DejaVuSans-70" transform="translate(750.285156 0)"/>
      <use xlink:href="#DejaVuSans-65" transform="translate(813.761719 0)"/>
      <use xlink:href="#DejaVuSans-73" transform="translate(875.285156 0)"/>
     </g>
    </g>
    <g id="patch_33">
     <path d="M 1557.583125 91.159062 
L 1585.583125 91.159062 
L 1585.583125 81.359062 
L 1557.583125 81.359062 
z
" style="fill: #e74c3c; stroke: #e74c3c; stroke-linejoin: miter"/>
    </g>
    <g id="text_30">
     <!-- Coordinates -->
     <g transform="translate(1596.783125 91.159062) scale(0.14 -0.14)">
      <use xlink:href="#DejaVuSans-43"/>
      <use xlink:href="#DejaVuSans-6f" transform="translate(69.824219 0)"/>
      <use xlink:href="#DejaVuSans-6f" transform="translate(131.005859 0)"/>
      <use xlink:href="#DejaVuSans-72" transform="translate(192.1875 0)"/>
      <use xlink:href="#DejaVuSans-64" transform="translate(231.550781 0)"/>
      <use xlink:href="#DejaVuSans-69" transform="translate(295.027344 0)"/>
      <use xlink:href="#DejaVuSans-6e" transform="translate(322.810547 0)"/>
      <use xlink:href="#DejaVuSans-61" transform="translate(386.189453 0)"/>
      <use xlink:href="#DejaVuSans-74" transform="translate(447.46875 0)"/>
      <use xlink:href="#DejaVuSans-65" transform="translate(486.677734 0)"/>
      <use xlink:href="#DejaVuSans-73" transform="translate(548.201172 0)"/>
     </g>
    </g>
    <g id="patch_34">
     <path d="M 1557.583125 111.708437 
L 1585.583125 111.708437 
L 1585.583125 101.908437 
L 1557.583125 101.908437 
z
" style="fill: #3498db; stroke: #3498db; stroke-linejoin: miter"/>
    </g>
    <g id="text_31">
     <!-- Directs -->
     <g transform="translate(1596.783125 111.708437) scale(0.14 -0.14)">
      <defs>
       <path id="DejaVuSans-44" d="M 1259 4147 
L 1259 519 
L 2022 519 
Q 2988 519 3436 956 
Q 3884 1394 3884 2338 
Q 3884 3275 3436 3711 
Q 2988 4147 2022 4147 
L 1259 4147 
z
M 628 4666 
L 1925 4666 
Q 3281 4666 3915 4102 
Q 4550 3538 4550 2338 
Q 4550 1131 3912 565 
Q 3275 0 1925 0 
L 628 0 
L 628 4666 
z
" transform="scale(0.015625)"/>
      </defs>
      <use xlink:href="#DejaVuSans-44"/>
      <use xlink:href="#DejaVuSans-69" transform="translate(77.001953 0)"/>
      <use xlink:href="#DejaVuSans-72" transform="translate(104.785156 0)"/>
      <use xlink:href="#DejaVuSans-65" transform="translate(143.648438 0)"/>
      <use xlink:href="#DejaVuSans-63" transform="translate(205.171875 0)"/>
      <use xlink:href="#DejaVuSans-74" transform="translate(260.152344 0)"/>
      <use xlink:href="#DejaVuSans-73" transform="translate(299.361328 0)"/>
     </g>
    </g>
    <g id="patch_35">
     <path d="M 1557.583125 132.257812 
L 1585.583125 132.257812 
L 1585.583125 122.457812 
L 1557.583125 122.457812 
z
" style="fill: #8e44ad; stroke: #8e44ad; stroke-linejoin: miter"/>
    </g>
    <g id="text_32">
     <!-- Commands -->
     <g transform="translate(1596.783125 132.257812) scale(0.14 -0.14)">
      <use xlink:href="#DejaVuSans-43"/>
      <use xlink:href="#DejaVuSans-6f" transform="translate(69.824219 0)"/>
      <use xlink:href="#DejaVuSans-6d" transform="translate(131.005859 0)"/>
      <use xlink:href="#DejaVuSans-6d" transform="translate(228.417969 0)"/>
      <use xlink:href="#DejaVuSans-61" transform="translate(325.830078 0)"/>
      <use xlink:href="#DejaVuSans-6e" transform="translate(387.109375 0)"/>
      <use xlink:href="#DejaVuSans-64" transform="translate(450.488281 0)"/>
      <use xlink:href="#DejaVuSans-73" transform="translate(513.964844 0)"/>
     </g>
    </g>
    <g id="patch_36">
     <path d="M 1557.583125 152.807187 
L 1585.583125 152.807187 
L 1585.583125 143.007187 
L 1557.583125 143.007187 
z
" style="fill: #f39c12; stroke: #f39c12; stroke-linejoin: miter"/>
    </g>
    <g id="text_33">
     <!-- Funds -->
     <g transform="translate(1596.783125 152.807187) scale(0.14 -0.14)">
      <defs>
       <path id="DejaVuSans-46" d="M 628 4666 
L 3309 4666 
L 3309 4134 
L 1259 4134 
L 1259 2759 
L 3109 2759 
L 3109 2228 
L 1259 2228 
L 1259 0 
L 628 0 
L 628 4666 
z
" transform="scale(0.015625)"/>
      </defs>
      <use xlink:href="#DejaVuSans-46"/>
      <use xlink:href="#DejaVuSans-75" transform="translate(52.019531 0)"/>
      <use xlink:href="#DejaVuSans-6e" transform="translate(115.398438 0)"/>
      <use xlink:href="#DejaVuSans-64" transform="translate(178.777344 0)"/>
      <use xlink:href="#DejaVuSans-73" transform="translate(242.253906 0)"/>
     </g>
    </g>
    <g id="patch_37">
     <path d="M 1557.583125 173.356562 
L 1585.583125 173.356562 
L 1585.583125 163.556562 
L 1557.583125 163.556562 
z
" style="fill: #c0392b; stroke: #c0392b; stroke-linejoin: miter"/>
    </g>
    <g id="text_34">
     <!-- Controls -->
     <g transform="translate(1596.783125 173.356562) scale(0.14 -0.14)">
      <use xlink:href="#DejaVuSans-43"/>
      <use xlink:href="#DejaVuSans-6f" transform="translate(69.824219 0)"/>
      <use xlink:href="#DejaVuSans-6e" transform="translate(131.005859 0)"/>
      <use xlink:href="#DejaVuSans-74" transform="translate(194.384766 0)"/>
      <use xlink:href="#DejaVuSans-72" transform="translate(233.59375 0)"/>
      <use xlink:href="#DejaVuSans-6f" transform="translate(272.457031 0)"/>
      <use xlink:href="#DejaVuSans-6c" transform="translate(333.638672 0)"/>
      <use xlink:href="#DejaVuSans-73" transform="translate(361.421875 0)"/>
     </g>
    </g>
    <g id="patch_38">
     <path d="M 1557.583125 193.905937 
L 1585.583125 193.905937 
L 1585.583125 184.105937 
L 1557.583125 184.105937 
z
" style="fill: #16a085; stroke: #16a085; stroke-linejoin: miter"/>
    </g>
    <g id="text_35">
     <!-- Oversees -->
     <g transform="translate(1596.783125 193.905937) scale(0.14 -0.14)">
      <defs>
       <path id="DejaVuSans-4f" d="M 2522 4238 
Q 1834 4238 1429 3725 
Q 1025 3213 1025 2328 
Q 1025 1447 1429 934 
Q 1834 422 2522 422 
Q 3209 422 3611 934 
Q 4013 1447 4013 2328 
Q 4013 3213 3611 3725 
Q 3209 4238 2522 4238 
z
M 2522 4750 
Q 3503 4750 4090 4092 
Q 4678 3434 4678 2328 
Q 4678 1225 4090 567 
Q 3503 -91 2522 -91 
Q 1538 -91 948 565 
Q 359 1222 359 2328 
Q 359 3434 948 4092 
Q 1538 4750 2522 4750 
z
" transform="scale(0.015625)"/>
      </defs>
      <use xlink:href="#DejaVuSans-4f"/>
      <use xlink:href="#DejaVuSans-76" transform="translate(78.710938 0)"/>
      <use xlink:href="#DejaVuSans-65" transform="translate(137.890625 0)"/>
      <use xlink:href="#DejaVuSans-72" transform="translate(199.414062 0)"/>
      <use xlink:href="#DejaVuSans-73" transform="translate(240.527344 0)"/>
      <use xlink:href="#DejaVuSans-65" transform="translate(292.626953 0)"/>
      <use xlink:href="#DejaVuSans-65" transform="translate(354.150391 0)"/>
      <use xlink:href="#DejaVuSans-73" transform="translate(415.673828 0)"/>
     </g>
    </g>
    <g id="patch_39">
     <path d="M 1557.583125 214.455312 
L 1585.583125 214.455312 
L 1585.583125 204.655312 
L 1557.583125 204.655312 
z
" style="fill: #2980b9; stroke: #2980b9; stroke-linejoin: miter"/>
    </g>
    <g id="text_36">
     <!-- Guides -->
     <g transform="translate(1596.783125 214.455312) scale(0.14 -0.14)">
      <defs>
       <path id="DejaVuSans-47" d="M 3809 666 
L 3809 1919 
L 2778 1919 
L 2778 2438 
L 4434 2438 
L 4434 434 
Q 4069 175 3628 42 
Q 3188 -91 2688 -91 
Q 1594 -91 976 548 
Q 359 1188 359 2328 
Q 359 3472 976 4111 
Q 1594 4750 2688 4750 
Q 3144 4750 3555 4637 
Q 3966 4525 4313 4306 
L 4313 3634 
Q 3963 3931 3569 4081 
Q 3175 4231 2741 4231 
Q 1884 4231 1454 3753 
Q 1025 3275 1025 2328 
Q 1025 1384 1454 906 
Q 1884 428 2741 428 
Q 3075 428 3337 486 
Q 3600 544 3809 666 
z
" transform="scale(0.015625)"/>
      </defs>
      <use xlink:href="#DejaVuSans-47"/>
      <use xlink:href="#DejaVuSans-75" transform="translate(77.490234 0)"/>
      <use xlink:href="#DejaVuSans-69" transform="translate(140.869141 0)"/>
      <use xlink:href="#DejaVuSans-64" transform="translate(168.652344 0)"/>
      <use xlink:href="#DejaVuSans-65" transform="translate(232.128906 0)"/>
      <use xlink:href="#DejaVuSans-73" transform="translate(293.652344 0)"/>
     </g>
    </g>
    <g id="patch_40">
     <path d="M 1557.583125 235.004687 
L 1585.583125 235.004687 
L 1585.583125 225.204687 
L 1557.583125 225.204687 
z
" style="fill: #27ae60; stroke: #27ae60; stroke-linejoin: miter"/>
    </g>
    <g id="text_37">
     <!-- Collaborates -->
     <g transform="translate(1596.783125 235.004687) scale(0.14 -0.14)">
      <defs>
       <path id="DejaVuSans-62" d="M 3116 1747 
Q 3116 2381 2855 2742 
Q 2594 3103 2138 3103 
Q 1681 3103 1420 2742 
Q 1159 2381 1159 1747 
Q 1159 1113 1420 752 
Q 1681 391 2138 391 
Q 2594 391 2855 752 
Q 3116 1113 3116 1747 
z
M 1159 2969 
Q 1341 3281 1617 3432 
Q 1894 3584 2278 3584 
Q 2916 3584 3314 3078 
Q 3713 2572 3713 1747 
Q 3713 922 3314 415 
Q 2916 -91 2278 -91 
Q 1894 -91 1617 61 
Q 1341 213 1159 525 
L 1159 0 
L 581 0 
L 581 4863 
L 1159 4863 
L 1159 2969 
z
" transform="scale(0.015625)"/>
      </defs>
      <use xlink:href="#DejaVuSans-43"/>
      <use xlink:href="#DejaVuSans-6f" transform="translate(69.824219 0)"/>
      <use xlink:href="#DejaVuSans-6c" transform="translate(131.005859 0)"/>
      <use xlink:href="#DejaVuSans-6c" transform="translate(158.789062 0)"/>
      <use xlink:href="#DejaVuSans-61" transform="translate(186.572266 0)"/>
      <use xlink:href="#DejaVuSans-62" transform="translate(247.851562 0)"/>
      <use xlink:href="#DejaVuSans-6f" transform="translate(311.328125 0)"/>
      <use xlink:href="#DejaVuSans-72" transform="translate(372.509766 0)"/>
      <use xlink:href="#DejaVuSans-61" transform="translate(413.623047 0)"/>
      <use xlink:href="#DejaVuSans-74" transform="translate(474.902344 0)"/>
      <use xlink:href="#DejaVuSans-65" transform="translate(514.111328 0)"/>
      <use xlink:href="#DejaVuSans-73" transform="translate(575.634766 0)"/>
     </g>
    </g>
    <g id="patch_41">
     <path d="M 1557.583125 255.554062 
L 1585.583125 255.554062 
L 1585.583125 245.754062 
L 1557.583125 245.754062 
z
" style="fill: #d35400; stroke: #d35400; stroke-linejoin: miter"/>
    </g>
    <g id="text_38">
     <!-- Procures From -->
     <g transform="translate(1596.783125 255.554062) scale(0.14 -0.14)">
      <use xlink:href="#DejaVuSans-50"/>
      <use xlink:href="#DejaVuSans-72" transform="translate(58.552734 0)"/>
      <use xlink:href="#DejaVuSans-6f" transform="translate(97.416016 0)"/>
      <use xlink:href="#DejaVuSans-63" transform="translate(158.597656 0)"/>
      <use xlink:href="#DejaVuSans-75" transform="translate(213.578125 0)"/>
      <use xlink:href="#DejaVuSans-72" transform="translate(276.957031 0)"/>
      <use xlink:href="#DejaVuSans-65" transform="translate(315.820312 0)"/>
      <use xlink:href="#DejaVuSans-73" transform="translate(377.34375 0)"/>
      <use xlink:href="#DejaVuSans-20" transform="translate(429.443359 0)"/>
      <use xlink:href="#DejaVuSans-46" transform="translate(461.230469 0)"/>
      <use xlink:href="#DejaVuSans-72" transform="translate(511.5 0)"/>
      <use xlink:href="#DejaVuSans-6f" transform="translate(550.363281 0)"/>
      <use xlink:href="#DejaVuSans-6d" transform="translate(611.544922 0)"/>
     </g>
    </g>
   </g>
  </g>
 </g>
 <defs>
  <clipPath id="pf8b03243f6">
   <rect x="7.2" y="45.43625" width="1706.4" height="1235.68"/>
  </clipPath>
 </defs>
</svg>
