<?xml version="1.0" encoding="utf-8" standalone="no"?>
<!DOCTYPE svg PUBLIC "-//W3C//DTD SVG 1.1//EN"
  "http://www.w3.org/Graphics/SVG/1.1/DTD/svg11.dtd">
<svg xmlns:xlink="http://www.w3.org/1999/xlink" width="1800pt" height="1344.96pt" viewBox="0 0 1800 1344.96" xmlns="http://www.w3.org/2000/svg" version="1.1">
 <metadata>
  <rdf:RDF xmlns:dc="http://purl.org/dc/elements/1.1/" xmlns:cc="http://creativecommons.org/ns#" xmlns:rdf="http://www.w3.org/1999/02/22-rdf-syntax-ns#">
   <cc:Work>
    <dc:type rdf:resource="http://purl.org/dc/dcmitype/StillImage"/>
    <dc:date>2025-10-20T19:22:53.839937</dc:date>
    <dc:format>image/svg+xml</dc:format>
    <dc:creator>
     <cc:Agent>
      <dc:title>Matplotlib v3.10.1, https://matplotlib.org/</dc:title>
     </cc:Agent>
    </dc:creator>
   </cc:Work>
  </rdf:RDF>
 </metadata>
 <defs>
  <style type="text/css">*{stroke-linejoin: round; stroke-linecap: butt}</style>
 </defs>
 <g id="figure_1">
  <g id="patch_1">
   <path d="M 0 1344.96 
L 1800 1344.96 
L 1800 0 
L 0 0 
z
" style="fill: #ffffff"/>
  </g>
  <g id="axes_1">
   <g id="patch_2">
    <path d="M 7.2 356.472 
L 1792.8 356.472 
L 1792.8 156.888 
L 7.2 156.888 
z
" clip-path="url(#p78c8870b18)" style="fill: #fff5f5; opacity: 0.2; stroke: #fff5f5; stroke-linejoin: miter"/>
   </g>
   <g id="patch_3">
    <path d="M 7.2 605.952 
L 1792.8 605.952 
L 1792.8 406.368 
L 7.2 406.368 
z
" clip-path="url(#p78c8870b18)" style="fill: #fff0f0; opacity: 0.2; stroke: #fff0f0; stroke-linejoin: miter"/>
   </g>
   <g id="patch_4">
    <path d="M 7.2 855.432 
L 1792.8 855.432 
L 1792.8 655.848 
L 7.2 655.848 
z
" clip-path="url(#p78c8870b18)" style="fill: #f0f8ff; opacity: 0.2; stroke: #f0f8ff; stroke-linejoin: miter"/>
   </g>
   <g id="patch_5">
    <path d="M 7.2 1046.7 
L 1792.8 1046.7 
L 1792.8 880.38 
L 7.2 880.38 
z
" clip-path="url(#p78c8870b18)" style="fill: #f5f5f5; opacity: 0.2; stroke: #f5f5f5; stroke-linejoin: miter"/>
   </g>
   <g id="patch_6">
    <path d="M 7.2 1254.6 
L 1792.8 1254.6 
L 1792.8 1088.28 
L 7.2 1088.28 
z
" clip-path="url(#p78c8870b18)" style="fill: #f0fff0; opacity: 0.2; stroke: #f0fff0; stroke-linejoin: miter"/>
   </g>
   <g id="patch_7">
    <path d="M 892.072006 260.161284 
Q 615.927522 381.419891 343.877789 500.880438 
" clip-path="url(#p78c8870b18)" style="fill: none; stroke: #e74c3c; stroke-opacity: 0.7; stroke-width: 4; stroke-linecap: round"/>
    <path d="M 355.044221 501.437929 
L 343.877789 500.880438 
L 351.023641 492.281787 
" clip-path="url(#p78c8870b18)" style="fill: none; stroke: #e74c3c; stroke-opacity: 0.7; stroke-width: 4; stroke-linecap: round"/>
   </g>
   <g id="patch_8">
    <path d="M 894.535301 263.398936 
Q 798.544174 381.421575 705.374873 495.974732 
" clip-path="url(#p78c8870b18)" style="fill: none; stroke: #e74c3c; stroke-opacity: 0.7; stroke-width: 4; stroke-linecap: round"/>
    <path d="M 715.563666 491.371635 
L 705.374873 495.974732 
L 707.805671 485.06184 
" clip-path="url(#p78c8870b18)" style="fill: none; stroke: #e74c3c; stroke-opacity: 0.7; stroke-width: 4; stroke-linecap: round"/>
   </g>
   <g id="patch_9">
    <path d="M 905.464699 263.398936 
Q 1001.455826 381.421575 1094.625127 495.974732 
" clip-path="url(#p78c8870b18)" style="fill: none; stroke: #e74c3c; stroke-opacity: 0.7; stroke-width: 4; stroke-linecap: round"/>
    <path d="M 1092.194329 485.06184 
L 1094.625127 495.974732 
L 1084.436334 491.371635 
" clip-path="url(#p78c8870b18)" style="fill: none; stroke: #e74c3c; stroke-opacity: 0.7; stroke-width: 4; stroke-linecap: round"/>
   </g>
   <g id="patch_10">
    <path d="M 907.927994 260.161284 
Q 1184.072478 381.419891 1456.122211 500.880438 
" clip-path="url(#p78c8870b18)" style="fill: none; stroke: #e74c3c; stroke-opacity: 0.7; stroke-width: 4; stroke-linecap: round"/>
    <path d="M 1448.976359 492.281787 
L 1456.122211 500.880438 
L 1444.955779 501.437929 
" clip-path="url(#p78c8870b18)" style="fill: none; stroke: #e74c3c; stroke-opacity: 0.7; stroke-width: 4; stroke-linecap: round"/>
   </g>
   <g id="patch_11">
    <path d="M 689.937881 511.04598 
Q 514.470981 630.901193 342.69694 748.233945 
" clip-path="url(#p78c8870b18)" style="fill: none; stroke: #e74c3c; stroke-opacity: 0.7; stroke-width: 4; stroke-linecap: round"/>
    <path d="M 353.774616 746.722294 
L 342.69694 748.233945 
L 348.134224 738.464813 
" clip-path="url(#p78c8870b18)" style="fill: none; stroke: #e74c3c; stroke-opacity: 0.7; stroke-width: 4; stroke-linecap: round"/>
   </g>
   <g id="patch_12">
    <path d="M 1102.909091 514.820385 
Q 1102.909091 630.899658 1102.909091 742.506795 
" clip-path="url(#p78c8870b18)" style="fill: none; stroke: #e74c3c; stroke-opacity: 0.7; stroke-width: 4; stroke-linecap: round"/>
    <path d="M 1107.909091 732.506795 
L 1102.909091 742.506795 
L 1097.909091 732.506795 
" clip-path="url(#p78c8870b18)" style="fill: none; stroke: #e74c3c; stroke-opacity: 0.7; stroke-width: 4; stroke-linecap: round"/>
   </g>
   <g id="patch_13">
    <path d="M 1110.062119 511.04598 
Q 1285.529019 630.901193 1457.30306 748.233945 
" clip-path="url(#p78c8870b18)" style="fill: none; stroke: #e74c3c; stroke-opacity: 0.7; stroke-width: 4; stroke-linecap: round"/>
    <path d="M 1451.865776 738.464813 
L 1457.30306 748.233945 
L 1446.225384 746.722294 
" clip-path="url(#p78c8870b18)" style="fill: none; stroke: #e74c3c; stroke-opacity: 0.7; stroke-width: 4; stroke-linecap: round"/>
   </g>
   <g id="patch_14">
    <path d="M 1096.857052 512.360899 
Q 879.708381 734.850727 665.683338 954.140096 
" clip-path="url(#p78c8870b18)" style="fill: none; stroke: #e74c3c; stroke-opacity: 0.7; stroke-width: 4; stroke-linecap: round"/>
    <path d="M 676.246207 950.475973 
L 665.683338 954.140096 
L 669.089761 943.491327 
" clip-path="url(#p78c8870b18)" style="fill: none; stroke: #e74c3c; stroke-opacity: 0.7; stroke-width: 4; stroke-linecap: round"/>
   </g>
   <g id="patch_15">
    <path d="M 1103.674768 514.789614 
Q 1123.200236 734.852665 1142.33046 950.46108 
" clip-path="url(#p78c8870b18)" style="fill: none; stroke: #e74c3c; stroke-opacity: 0.7; stroke-width: 4; stroke-linecap: round"/>
    <path d="M 1146.427099 940.058313 
L 1142.33046 950.46108 
L 1136.46623 940.942108 
" clip-path="url(#p78c8870b18)" style="fill: none; stroke: #e74c3c; stroke-opacity: 0.7; stroke-width: 4; stroke-linecap: round"/>
   </g>
   <g id="patch_16">
    <path d="M 1459.906762 508.825686 
Q 1082.617815 630.900119 709.583824 751.597832 
" clip-path="url(#p78c8870b18)" style="fill: none; stroke: #f39c12; stroke-opacity: 0.7; stroke-width: 4; stroke-linecap: round"/>
    <path d="M 720.637412 753.276577 
L 709.583824 751.597832 
L 717.558973 743.762208 
" clip-path="url(#p78c8870b18)" style="fill: none; stroke: #f39c12; stroke-opacity: 0.7; stroke-width: 4; stroke-linecap: round"/>
   </g>
   <g id="patch_17">
    <path d="M 1459.483209 506.16 
Q 1082.616057 506.16 710.221042 506.16 
" clip-path="url(#p78c8870b18)" style="fill: none; stroke: #f39c12; stroke-opacity: 0.7; stroke-width: 4; stroke-linecap: round"/>
    <path d="M 720.221042 511.16 
L 710.221042 506.16 
L 720.221042 501.16 
" clip-path="url(#p78c8870b18)" style="fill: none; stroke: #f39c12; stroke-opacity: 0.7; stroke-width: 4; stroke-linecap: round"/>
   </g>
   <g id="patch_18">
    <path d="M 1459.487699 506.16 
Q 1285.528037 506.16 1116.040511 506.16 
" clip-path="url(#p78c8870b18)" style="fill: none; stroke: #f39c12; stroke-opacity: 0.7; stroke-width: 4; stroke-linecap: round"/>
    <path d="M 1126.040511 511.16 
L 1116.040511 506.16 
L 1126.040511 501.16 
" clip-path="url(#p78c8870b18)" style="fill: none; stroke: #f39c12; stroke-opacity: 0.7; stroke-width: 4; stroke-linecap: round"/>
   </g>
   <g id="patch_19">
    <path d="M 338.844097 760.755337 
Q 615.927454 963.540133 889.401915 1163.68374 
" clip-path="url(#p78c8870b18)" style="fill: none; stroke: #9b59b6; stroke-opacity: 0.7; stroke-width: 4; stroke-linecap: round"/>
    <path d="M 884.285117 1153.742997 
L 889.401915 1163.68374 
L 878.379242 1161.812733 
" clip-path="url(#p78c8870b18)" style="fill: none; stroke: #9b59b6; stroke-opacity: 0.7; stroke-width: 4; stroke-linecap: round"/>
   </g>
   <g id="patch_20">
    <path d="M 688.433153 755.64 
Q 514.473491 755.64 344.985966 755.64 
" clip-path="url(#p78c8870b18)" style="fill: none; stroke: #f39c12; stroke-opacity: 0.7; stroke-width: 4; stroke-linecap: round"/>
    <path d="M 354.985966 760.64 
L 344.985966 755.64 
L 354.985966 750.64 
" clip-path="url(#p78c8870b18)" style="fill: none; stroke: #f39c12; stroke-opacity: 0.7; stroke-width: 4; stroke-linecap: round"/>
   </g>
   <g id="patch_21">
    <path d="M 705.750832 755.64 
Q 899.998466 755.64 1089.773965 755.64 
" clip-path="url(#p78c8870b18)" style="fill: none; stroke: #f39c12; stroke-opacity: 0.7; stroke-width: 4; stroke-linecap: round"/>
    <path d="M 1079.773965 750.64 
L 1089.773965 755.64 
L 1079.773965 760.64 
" clip-path="url(#p78c8870b18)" style="fill: none; stroke: #f39c12; stroke-opacity: 0.7; stroke-width: 4; stroke-linecap: round"/>
   </g>
   <g id="patch_22">
    <path d="M 663.096453 969.164492 
Q 778.256895 1067.492007 890.016279 1162.915593 
" clip-path="url(#p78c8870b18)" style="fill: none; stroke: #e74c3c; stroke-opacity: 0.7; stroke-width: 4; stroke-linecap: round"/>
    <path d="M 885.657971 1152.619713 
L 890.016279 1162.915593 
L 879.16459 1160.224711 
" clip-path="url(#p78c8870b18)" style="fill: none; stroke: #e74c3c; stroke-opacity: 0.7; stroke-width: 4; stroke-linecap: round"/>
   </g>
   <g id="patch_23">
    <path d="M 757.963636 314.892 
L 1042.036364 314.892 
Q 1050.152727 314.892 1050.152727 306.576 
L 1050.152727 206.784 
Q 1050.152727 198.468 1042.036364 198.468 
L 757.963636 198.468 
Q 749.847273 198.468 749.847273 206.784 
L 749.847273 306.576 
Q 749.847273 314.892 757.963636 314.892 
z
" clip-path="url(#p78c8870b18)" style="fill: #8b0000; opacity: 0.95; stroke: #ffffff; stroke-width: 3; stroke-linejoin: miter"/>
   </g>
   <g id="patch_24">
    <path d="M 210.109091 556.056 
L 453.6 556.056 
Q 461.716364 556.056 461.716364 547.74 
L 461.716364 464.58 
Q 461.716364 456.264 453.6 456.264 
L 210.109091 456.264 
Q 201.992727 456.264 201.992727 464.58 
L 201.992727 547.74 
Q 201.992727 556.056 210.109091 556.056 
z
" clip-path="url(#p78c8870b18)" style="fill: #8b0000; opacity: 0.95; stroke: #ffffff; stroke-width: 3; stroke-linejoin: miter"/>
   </g>
   <g id="patch_25">
    <path d="M 575.345455 556.056 
L 818.836364 556.056 
Q 826.952727 556.056 826.952727 547.74 
L 826.952727 464.58 
Q 826.952727 456.264 818.836364 456.264 
L 575.345455 456.264 
Q 567.229091 456.264 567.229091 464.58 
L 567.229091 547.74 
Q 567.229091 556.056 575.345455 556.056 
z
" clip-path="url(#p78c8870b18)" style="fill: #1e3a5f; opacity: 0.95; stroke: #ffffff; stroke-width: 3; stroke-linejoin: miter"/>
   </g>
   <g id="patch_26">
    <path d="M 981.163636 556.056 
L 1224.654545 556.056 
Q 1232.770909 556.056 1232.770909 547.74 
L 1232.770909 464.58 
Q 1232.770909 456.264 1224.654545 456.264 
L 981.163636 456.264 
Q 973.047273 456.264 973.047273 464.58 
L 973.047273 547.74 
Q 973.047273 556.056 981.163636 556.056 
z
" clip-path="url(#p78c8870b18)" style="fill: #4682b4; opacity: 0.95; stroke: #ffffff; stroke-width: 3; stroke-linejoin: miter"/>
   </g>
   <g id="patch_27">
    <path d="M 1346.4 556.056 
L 1589.890909 556.056 
Q 1598.007273 556.056 1598.007273 547.74 
L 1598.007273 464.58 
Q 1598.007273 456.264 1589.890909 456.264 
L 1346.4 456.264 
Q 1338.283636 456.264 1338.283636 464.58 
L 1338.283636 547.74 
Q 1338.283636 556.056 1346.4 556.056 
z
" clip-path="url(#p78c8870b18)" style="fill: #708090; opacity: 0.95; stroke: #ffffff; stroke-width: 3; stroke-linejoin: miter"/>
   </g>
   <g id="patch_28">
    <path d="M 218.225455 801.378 
L 445.483636 801.378 
Q 453.6 801.378 453.6 793.062 
L 453.6 718.218 
Q 453.6 709.902 445.483636 709.902 
L 218.225455 709.902 
Q 210.109091 709.902 210.109091 718.218 
L 210.109091 793.062 
Q 210.109091 801.378 218.225455 801.378 
z
" clip-path="url(#p78c8870b18)" style="fill: #1e3a5f; opacity: 0.95; stroke: #ffffff; stroke-width: 3; stroke-linejoin: miter"/>
   </g>
   <g id="patch_29">
    <path d="M 583.461818 801.378 
L 810.72 801.378 
Q 818.836364 801.378 818.836364 793.062 
L 818.836364 718.218 
Q 818.836364 709.902 810.72 709.902 
L 583.461818 709.902 
Q 575.345455 709.902 575.345455 718.218 
L 575.345455 793.062 
Q 575.345455 801.378 583.461818 801.378 
z
" clip-path="url(#p78c8870b18)" style="fill: #6b46c1; opacity: 0.95; stroke: #ffffff; stroke-width: 3; stroke-linejoin: miter"/>
   </g>
   <g id="patch_30">
    <path d="M 989.28 801.378 
L 1216.538182 801.378 
Q 1224.654545 801.378 1224.654545 793.062 
L 1224.654545 718.218 
Q 1224.654545 709.902 1216.538182 709.902 
L 989.28 709.902 
Q 981.163636 709.902 981.163636 718.218 
L 981.163636 793.062 
Q 981.163636 801.378 989.28 801.378 
z
" clip-path="url(#p78c8870b18)" style="fill: #4682b4; opacity: 0.95; stroke: #ffffff; stroke-width: 3; stroke-linejoin: miter"/>
   </g>
   <g id="patch_31">
    <path d="M 1354.516364 801.378 
L 1581.774545 801.378 
Q 1589.890909 801.378 1589.890909 793.062 
L 1589.890909 718.218 
Q 1589.890909 709.902 1581.774545 709.902 
L 1354.516364 709.902 
Q 1346.4 709.902 1346.4 718.218 
L 1346.4 793.062 
Q 1346.4 801.378 1354.516364 801.378 
z
" clip-path="url(#p78c8870b18)" style="fill: #4682b4; opacity: 0.95; stroke: #ffffff; stroke-width: 3; stroke-linejoin: miter"/>
   </g>
   <g id="patch_32">
    <path d="M 555.054545 1005.12 
L 757.963636 1005.12 
Q 766.08 1005.12 766.08 996.804 
L 766.08 930.276 
Q 766.08 921.96 757.963636 921.96 
L 555.054545 921.96 
Q 546.938182 921.96 546.938182 930.276 
L 546.938182 996.804 
Q 546.938182 1005.12 555.054545 1005.12 
z
" clip-path="url(#p78c8870b18)" style="fill: #4682b4; opacity: 0.95; stroke: #ffffff; stroke-width: 3; stroke-linejoin: miter"/>
   </g>
   <g id="patch_33">
    <path d="M 1042.036364 1005.12 
L 1244.945455 1005.12 
Q 1253.061818 1005.12 1253.061818 996.804 
L 1253.061818 930.276 
Q 1253.061818 921.96 1244.945455 921.96 
L 1042.036364 921.96 
Q 1033.92 921.96 1033.92 930.276 
L 1033.92 996.804 
Q 1033.92 1005.12 1042.036364 1005.12 
z
" clip-path="url(#p78c8870b18)" style="fill: #6b46c1; opacity: 0.95; stroke: #ffffff; stroke-width: 3; stroke-linejoin: miter"/>
   </g>
   <g id="patch_34">
    <path d="M 798.545455 1213.02 
L 1001.454545 1213.02 
Q 1009.570909 1213.02 1009.570909 1204.704 
L 1009.570909 1138.176 
Q 1009.570909 1129.86 1001.454545 1129.86 
L 798.545455 1129.86 
Q 790.429091 1129.86 790.429091 1138.176 
L 790.429091 1204.704 
Q 790.429091 1213.02 798.545455 1213.02 
z
" clip-path="url(#p78c8870b18)" style="fill: #2f4f4f; opacity: 0.95; stroke: #ffffff; stroke-width: 3; stroke-linejoin: miter"/>
   </g>
   <g id="text_1">
    <!-- Xi Jinping -->
    <g style="fill: #ffffff" transform="translate(771.00375 269.7375) scale(0.48 -0.48)">
     <defs>
      <path id="DejaVuSans-Bold-58" d="M 3188 2381 
L 4806 0 
L 3553 0 
L 2463 1594 
L 1381 0 
L 122 0 
L 1741 2381 
L 184 4666 
L 1441 4666 
L 2463 3163 
L 3481 4666 
L 4744 4666 
L 3188 2381 
z
" transform="scale(0.015625)"/>
      <path id="DejaVuSans-Bold-69" d="M 538 3500 
L 1656 3500 
L 1656 0 
L 538 0 
L 538 3500 
z
M 538 4863 
L 1656 4863 
L 1656 3950 
L 538 3950 
L 538 4863 
z
" transform="scale(0.015625)"/>
      <path id="DejaVuSans-Bold-20" transform="scale(0.015625)"/>
      <path id="DejaVuSans-Bold-4a" d="M 588 4666 
L 1791 4666 
L 1791 453 
Q 1791 -419 1317 -850 
Q 844 -1281 -116 -1281 
L -359 -1281 
L -359 -372 
L -172 -372 
Q 203 -372 395 -162 
Q 588 47 588 453 
L 588 4666 
z
" transform="scale(0.015625)"/>
      <path id="DejaVuSans-Bold-6e" d="M 4056 2131 
L 4056 0 
L 2931 0 
L 2931 347 
L 2931 1631 
Q 2931 2084 2911 2256 
Q 2891 2428 2841 2509 
Q 2775 2619 2662 2680 
Q 2550 2741 2406 2741 
Q 2056 2741 1856 2470 
Q 1656 2200 1656 1722 
L 1656 0 
L 538 0 
L 538 3500 
L 1656 3500 
L 1656 2988 
Q 1909 3294 2193 3439 
Q 2478 3584 2822 3584 
Q 3428 3584 3742 3212 
Q 4056 2841 4056 2131 
z
" transform="scale(0.015625)"/>
      <path id="DejaVuSans-Bold-70" d="M 1656 506 
L 1656 -1331 
L 538 -1331 
L 538 3500 
L 1656 3500 
L 1656 2988 
Q 1888 3294 2169 3439 
Q 2450 3584 2816 3584 
Q 3463 3584 3878 3070 
Q 4294 2556 4294 1747 
Q 4294 938 3878 423 
Q 3463 -91 2816 -91 
Q 2450 -91 2169 54 
Q 1888 200 1656 506 
z
M 2400 2772 
Q 2041 2772 1848 2508 
Q 1656 2244 1656 1747 
Q 1656 1250 1848 986 
Q 2041 722 2400 722 
Q 2759 722 2948 984 
Q 3138 1247 3138 1747 
Q 3138 2247 2948 2509 
Q 2759 2772 2400 2772 
z
" transform="scale(0.015625)"/>
      <path id="DejaVuSans-Bold-67" d="M 2919 594 
Q 2688 288 2409 144 
Q 2131 0 1766 0 
Q 1125 0 706 504 
Q 288 1009 288 1791 
Q 288 2575 706 3076 
Q 1125 3578 1766 3578 
Q 2131 3578 2409 3434 
Q 2688 3291 2919 2981 
L 2919 3500 
L 4044 3500 
L 4044 353 
Q 4044 -491 3511 -936 
Q 2978 -1381 1966 -1381 
Q 1638 -1381 1331 -1331 
Q 1025 -1281 716 -1178 
L 716 -306 
Q 1009 -475 1290 -558 
Q 1572 -641 1856 -641 
Q 2406 -641 2662 -400 
Q 2919 -159 2919 353 
L 2919 594 
z
M 2181 2772 
Q 1834 2772 1640 2515 
Q 1447 2259 1447 1791 
Q 1447 1309 1634 1061 
Q 1822 813 2181 813 
Q 2531 813 2725 1069 
Q 2919 1325 2919 1791 
Q 2919 2259 2725 2515 
Q 2531 2772 2181 2772 
z
" transform="scale(0.015625)"/>
     </defs>
     <use xlink:href="#DejaVuSans-Bold-58"/>
     <use xlink:href="#DejaVuSans-Bold-69" transform="translate(77.099609 0)"/>
     <use xlink:href="#DejaVuSans-Bold-20" transform="translate(111.376953 0)"/>
     <use xlink:href="#DejaVuSans-Bold-4a" transform="translate(146.191406 0)"/>
     <use xlink:href="#DejaVuSans-Bold-69" transform="translate(183.398438 0)"/>
     <use xlink:href="#DejaVuSans-Bold-6e" transform="translate(217.675781 0)"/>
     <use xlink:href="#DejaVuSans-Bold-70" transform="translate(288.867188 0)"/>
     <use xlink:href="#DejaVuSans-Bold-69" transform="translate(360.449219 0)"/>
     <use xlink:href="#DejaVuSans-Bold-6e" transform="translate(394.726562 0)"/>
     <use xlink:href="#DejaVuSans-Bold-67" transform="translate(465.917969 0)"/>
    </g>
   </g>
   <g id="text_2">
    <!-- CCP Central -->
    <g style="fill: #ffffff" transform="translate(185.296733 493.666063) scale(0.44 -0.44)">
     <defs>
      <path id="DejaVuSans-Bold-43" d="M 4288 256 
Q 3956 84 3597 -3 
Q 3238 -91 2847 -91 
Q 1681 -91 1000 561 
Q 319 1213 319 2328 
Q 319 3447 1000 4098 
Q 1681 4750 2847 4750 
Q 3238 4750 3597 4662 
Q 3956 4575 4288 4403 
L 4288 3438 
Q 3953 3666 3628 3772 
Q 3303 3878 2944 3878 
Q 2300 3878 1931 3465 
Q 1563 3053 1563 2328 
Q 1563 1606 1931 1193 
Q 2300 781 2944 781 
Q 3303 781 3628 887 
Q 3953 994 4288 1222 
L 4288 256 
z
" transform="scale(0.015625)"/>
      <path id="DejaVuSans-Bold-50" d="M 588 4666 
L 2584 4666 
Q 3475 4666 3951 4270 
Q 4428 3875 4428 3144 
Q 4428 2409 3951 2014 
Q 3475 1619 2584 1619 
L 1791 1619 
L 1791 0 
L 588 0 
L 588 4666 
z
M 1791 3794 
L 1791 2491 
L 2456 2491 
Q 2806 2491 2997 2661 
Q 3188 2831 3188 3144 
Q 3188 3456 2997 3625 
Q 2806 3794 2456 3794 
L 1791 3794 
z
" transform="scale(0.015625)"/>
      <path id="DejaVuSans-Bold-65" d="M 4031 1759 
L 4031 1441 
L 1416 1441 
Q 1456 1047 1700 850 
Q 1944 653 2381 653 
Q 2734 653 3104 758 
Q 3475 863 3866 1075 
L 3866 213 
Q 3469 63 3072 -14 
Q 2675 -91 2278 -91 
Q 1328 -91 801 392 
Q 275 875 275 1747 
Q 275 2603 792 3093 
Q 1309 3584 2216 3584 
Q 3041 3584 3536 3087 
Q 4031 2591 4031 1759 
z
M 2881 2131 
Q 2881 2450 2695 2645 
Q 2509 2841 2209 2841 
Q 1884 2841 1681 2658 
Q 1478 2475 1428 2131 
L 2881 2131 
z
" transform="scale(0.015625)"/>
      <path id="DejaVuSans-Bold-74" d="M 1759 4494 
L 1759 3500 
L 2913 3500 
L 2913 2700 
L 1759 2700 
L 1759 1216 
Q 1759 972 1856 886 
Q 1953 800 2241 800 
L 2816 800 
L 2816 0 
L 1856 0 
Q 1194 0 917 276 
Q 641 553 641 1216 
L 641 2700 
L 84 2700 
L 84 3500 
L 641 3500 
L 641 4494 
L 1759 4494 
z
" transform="scale(0.015625)"/>
      <path id="DejaVuSans-Bold-72" d="M 3138 2547 
Q 2991 2616 2845 2648 
Q 2700 2681 2553 2681 
Q 2122 2681 1889 2404 
Q 1656 2128 1656 1613 
L 1656 0 
L 538 0 
L 538 3500 
L 1656 3500 
L 1656 2925 
Q 1872 3269 2151 3426 
Q 2431 3584 2822 3584 
Q 2878 3584 2943 3579 
Q 3009 3575 3134 3559 
L 3138 2547 
z
" transform="scale(0.015625)"/>
      <path id="DejaVuSans-Bold-61" d="M 2106 1575 
Q 1756 1575 1579 1456 
Q 1403 1338 1403 1106 
Q 1403 894 1545 773 
Q 1688 653 1941 653 
Q 2256 653 2472 879 
Q 2688 1106 2688 1447 
L 2688 1575 
L 2106 1575 
z
M 3816 1997 
L 3816 0 
L 2688 0 
L 2688 519 
Q 2463 200 2181 54 
Q 1900 -91 1497 -91 
Q 953 -91 614 226 
Q 275 544 275 1050 
Q 275 1666 698 1953 
Q 1122 2241 2028 2241 
L 2688 2241 
L 2688 2328 
Q 2688 2594 2478 2717 
Q 2269 2841 1825 2841 
Q 1466 2841 1156 2769 
Q 847 2697 581 2553 
L 581 3406 
Q 941 3494 1303 3539 
Q 1666 3584 2028 3584 
Q 2975 3584 3395 3211 
Q 3816 2838 3816 1997 
z
" transform="scale(0.015625)"/>
      <path id="DejaVuSans-Bold-6c" d="M 538 4863 
L 1656 4863 
L 1656 0 
L 538 0 
L 538 4863 
z
" transform="scale(0.015625)"/>
     </defs>
     <use xlink:href="#DejaVuSans-Bold-43"/>
     <use xlink:href="#DejaVuSans-Bold-43" transform="translate(73.388672 0)"/>
     <use xlink:href="#DejaVuSans-Bold-50" transform="translate(146.777344 0)"/>
     <use xlink:href="#DejaVuSans-Bold-20" transform="translate(220.068359 0)"/>
     <use xlink:href="#DejaVuSans-Bold-43" transform="translate(254.882812 0)"/>
     <use xlink:href="#DejaVuSans-Bold-65" transform="translate(328.271484 0)"/>
     <use xlink:href="#DejaVuSans-Bold-6e" transform="translate(396.09375 0)"/>
     <use xlink:href="#DejaVuSans-Bold-74" transform="translate(467.285156 0)"/>
     <use xlink:href="#DejaVuSans-Bold-72" transform="translate(515.087891 0)"/>
     <use xlink:href="#DejaVuSans-Bold-61" transform="translate(564.404297 0)"/>
     <use xlink:href="#DejaVuSans-Bold-6c" transform="translate(631.884766 0)"/>
    </g>
    <!-- Committee -->
    <g style="fill: #ffffff" transform="translate(196.32767 542.936438) scale(0.44 -0.44)">
     <defs>
      <path id="DejaVuSans-Bold-6f" d="M 2203 2784 
Q 1831 2784 1636 2517 
Q 1441 2250 1441 1747 
Q 1441 1244 1636 976 
Q 1831 709 2203 709 
Q 2569 709 2762 976 
Q 2956 1244 2956 1747 
Q 2956 2250 2762 2517 
Q 2569 2784 2203 2784 
z
M 2203 3584 
Q 3106 3584 3614 3096 
Q 4122 2609 4122 1747 
Q 4122 884 3614 396 
Q 3106 -91 2203 -91 
Q 1297 -91 786 396 
Q 275 884 275 1747 
Q 275 2609 786 3096 
Q 1297 3584 2203 3584 
z
" transform="scale(0.015625)"/>
      <path id="DejaVuSans-Bold-6d" d="M 3781 2919 
Q 3994 3244 4286 3414 
Q 4578 3584 4928 3584 
Q 5531 3584 5847 3212 
Q 6163 2841 6163 2131 
L 6163 0 
L 5038 0 
L 5038 1825 
Q 5041 1866 5042 1909 
Q 5044 1953 5044 2034 
Q 5044 2406 4934 2573 
Q 4825 2741 4581 2741 
Q 4263 2741 4089 2478 
Q 3916 2216 3909 1719 
L 3909 0 
L 2784 0 
L 2784 1825 
Q 2784 2406 2684 2573 
Q 2584 2741 2328 2741 
Q 2006 2741 1831 2477 
Q 1656 2213 1656 1722 
L 1656 0 
L 531 0 
L 531 3500 
L 1656 3500 
L 1656 2988 
Q 1863 3284 2130 3434 
Q 2397 3584 2719 3584 
Q 3081 3584 3359 3409 
Q 3638 3234 3781 2919 
z
" transform="scale(0.015625)"/>
     </defs>
     <use xlink:href="#DejaVuSans-Bold-43"/>
     <use xlink:href="#DejaVuSans-Bold-6f" transform="translate(73.388672 0)"/>
     <use xlink:href="#DejaVuSans-Bold-6d" transform="translate(142.089844 0)"/>
     <use xlink:href="#DejaVuSans-Bold-6d" transform="translate(246.289062 0)"/>
     <use xlink:href="#DejaVuSans-Bold-69" transform="translate(350.488281 0)"/>
     <use xlink:href="#DejaVuSans-Bold-74" transform="translate(384.765625 0)"/>
     <use xlink:href="#DejaVuSans-Bold-74" transform="translate(432.568359 0)"/>
     <use xlink:href="#DejaVuSans-Bold-65" transform="translate(480.371094 0)"/>
     <use xlink:href="#DejaVuSans-Bold-65" transform="translate(548.193359 0)"/>
    </g>
   </g>
   <g id="text_3">
    <!-- Central Military -->
    <g style="fill: #ffffff" transform="translate(503.879347 493.494188) scale(0.44 -0.44)">
     <defs>
      <path id="DejaVuSans-Bold-4d" d="M 588 4666 
L 2119 4666 
L 3181 2169 
L 4250 4666 
L 5778 4666 
L 5778 0 
L 4641 0 
L 4641 3413 
L 3566 897 
L 2803 897 
L 1728 3413 
L 1728 0 
L 588 0 
L 588 4666 
z
" transform="scale(0.015625)"/>
      <path id="DejaVuSans-Bold-79" d="M 78 3500 
L 1197 3500 
L 2138 1125 
L 2938 3500 
L 4056 3500 
L 2584 -331 
Q 2363 -916 2067 -1148 
Q 1772 -1381 1288 -1381 
L 641 -1381 
L 641 -647 
L 991 -647 
Q 1275 -647 1404 -556 
Q 1534 -466 1606 -231 
L 1638 -134 
L 78 3500 
z
" transform="scale(0.015625)"/>
     </defs>
     <use xlink:href="#DejaVuSans-Bold-43"/>
     <use xlink:href="#DejaVuSans-Bold-65" transform="translate(73.388672 0)"/>
     <use xlink:href="#DejaVuSans-Bold-6e" transform="translate(141.210938 0)"/>
     <use xlink:href="#DejaVuSans-Bold-74" transform="translate(212.402344 0)"/>
     <use xlink:href="#DejaVuSans-Bold-72" transform="translate(260.205078 0)"/>
     <use xlink:href="#DejaVuSans-Bold-61" transform="translate(309.521484 0)"/>
     <use xlink:href="#DejaVuSans-Bold-6c" transform="translate(377.001953 0)"/>
     <use xlink:href="#DejaVuSans-Bold-20" transform="translate(411.279297 0)"/>
     <use xlink:href="#DejaVuSans-Bold-4d" transform="translate(446.09375 0)"/>
     <use xlink:href="#DejaVuSans-Bold-69" transform="translate(545.605469 0)"/>
     <use xlink:href="#DejaVuSans-Bold-6c" transform="translate(579.882812 0)"/>
     <use xlink:href="#DejaVuSans-Bold-69" transform="translate(614.160156 0)"/>
     <use xlink:href="#DejaVuSans-Bold-74" transform="translate(648.4375 0)"/>
     <use xlink:href="#DejaVuSans-Bold-61" transform="translate(696.240234 0)"/>
     <use xlink:href="#DejaVuSans-Bold-72" transform="translate(763.720703 0)"/>
     <use xlink:href="#DejaVuSans-Bold-79" transform="translate(813.037109 0)"/>
    </g>
    <!-- Commission -->
    <g style="fill: #ffffff" transform="translate(547.934347 543.108313) scale(0.44 -0.44)">
     <defs>
      <path id="DejaVuSans-Bold-73" d="M 3272 3391 
L 3272 2541 
Q 2913 2691 2578 2766 
Q 2244 2841 1947 2841 
Q 1628 2841 1473 2761 
Q 1319 2681 1319 2516 
Q 1319 2381 1436 2309 
Q 1553 2238 1856 2203 
L 2053 2175 
Q 2913 2066 3209 1816 
Q 3506 1566 3506 1031 
Q 3506 472 3093 190 
Q 2681 -91 1863 -91 
Q 1516 -91 1145 -36 
Q 775 19 384 128 
L 384 978 
Q 719 816 1070 734 
Q 1422 653 1784 653 
Q 2113 653 2278 743 
Q 2444 834 2444 1013 
Q 2444 1163 2330 1236 
Q 2216 1309 1875 1350 
L 1678 1375 
Q 931 1469 631 1722 
Q 331 1975 331 2491 
Q 331 3047 712 3315 
Q 1094 3584 1881 3584 
Q 2191 3584 2531 3537 
Q 2872 3491 3272 3391 
z
" transform="scale(0.015625)"/>
     </defs>
     <use xlink:href="#DejaVuSans-Bold-43"/>
     <use xlink:href="#DejaVuSans-Bold-6f" transform="translate(73.388672 0)"/>
     <use xlink:href="#DejaVuSans-Bold-6d" transform="translate(142.089844 0)"/>
     <use xlink:href="#DejaVuSans-Bold-6d" transform="translate(246.289062 0)"/>
     <use xlink:href="#DejaVuSans-Bold-69" transform="translate(350.488281 0)"/>
     <use xlink:href="#DejaVuSans-Bold-73" transform="translate(384.765625 0)"/>
     <use xlink:href="#DejaVuSans-Bold-73" transform="translate(444.287109 0)"/>
     <use xlink:href="#DejaVuSans-Bold-69" transform="translate(503.808594 0)"/>
     <use xlink:href="#DejaVuSans-Bold-6f" transform="translate(538.085938 0)"/>
     <use xlink:href="#DejaVuSans-Bold-6e" transform="translate(606.787109 0)"/>
    </g>
   </g>
   <g id="text_4">
    <!-- State Council -->
    <g style="fill: #ffffff" transform="translate(937.898778 518.30125) scale(0.44 -0.44)">
     <defs>
      <path id="DejaVuSans-Bold-53" d="M 3834 4519 
L 3834 3531 
Q 3450 3703 3084 3790 
Q 2719 3878 2394 3878 
Q 1963 3878 1756 3759 
Q 1550 3641 1550 3391 
Q 1550 3203 1689 3098 
Q 1828 2994 2194 2919 
L 2706 2816 
Q 3484 2659 3812 2340 
Q 4141 2022 4141 1434 
Q 4141 663 3683 286 
Q 3225 -91 2284 -91 
Q 1841 -91 1394 -6 
Q 947 78 500 244 
L 500 1259 
Q 947 1022 1364 901 
Q 1781 781 2169 781 
Q 2563 781 2772 912 
Q 2981 1044 2981 1288 
Q 2981 1506 2839 1625 
Q 2697 1744 2272 1838 
L 1806 1941 
Q 1106 2091 782 2419 
Q 459 2747 459 3303 
Q 459 4000 909 4375 
Q 1359 4750 2203 4750 
Q 2588 4750 2994 4692 
Q 3400 4634 3834 4519 
z
" transform="scale(0.015625)"/>
      <path id="DejaVuSans-Bold-75" d="M 500 1363 
L 500 3500 
L 1625 3500 
L 1625 3150 
Q 1625 2866 1622 2436 
Q 1619 2006 1619 1863 
Q 1619 1441 1641 1255 
Q 1663 1069 1716 984 
Q 1784 875 1895 815 
Q 2006 756 2150 756 
Q 2500 756 2700 1025 
Q 2900 1294 2900 1772 
L 2900 3500 
L 4019 3500 
L 4019 0 
L 2900 0 
L 2900 506 
Q 2647 200 2364 54 
Q 2081 -91 1741 -91 
Q 1134 -91 817 281 
Q 500 653 500 1363 
z
" transform="scale(0.015625)"/>
      <path id="DejaVuSans-Bold-63" d="M 3366 3391 
L 3366 2478 
Q 3138 2634 2908 2709 
Q 2678 2784 2431 2784 
Q 1963 2784 1702 2511 
Q 1441 2238 1441 1747 
Q 1441 1256 1702 982 
Q 1963 709 2431 709 
Q 2694 709 2930 787 
Q 3166 866 3366 1019 
L 3366 103 
Q 3103 6 2833 -42 
Q 2563 -91 2291 -91 
Q 1344 -91 809 395 
Q 275 881 275 1747 
Q 275 2613 809 3098 
Q 1344 3584 2291 3584 
Q 2566 3584 2833 3536 
Q 3100 3488 3366 3391 
z
" transform="scale(0.015625)"/>
     </defs>
     <use xlink:href="#DejaVuSans-Bold-53"/>
     <use xlink:href="#DejaVuSans-Bold-74" transform="translate(72.021484 0)"/>
     <use xlink:href="#DejaVuSans-Bold-61" transform="translate(119.824219 0)"/>
     <use xlink:href="#DejaVuSans-Bold-74" transform="translate(187.304688 0)"/>
     <use xlink:href="#DejaVuSans-Bold-65" transform="translate(235.107422 0)"/>
     <use xlink:href="#DejaVuSans-Bold-20" transform="translate(302.929688 0)"/>
     <use xlink:href="#DejaVuSans-Bold-43" transform="translate(337.744141 0)"/>
     <use xlink:href="#DejaVuSans-Bold-6f" transform="translate(411.132812 0)"/>
     <use xlink:href="#DejaVuSans-Bold-75" transform="translate(479.833984 0)"/>
     <use xlink:href="#DejaVuSans-Bold-6e" transform="translate(551.025391 0)"/>
     <use xlink:href="#DejaVuSans-Bold-63" transform="translate(622.216797 0)"/>
     <use xlink:href="#DejaVuSans-Bold-69" transform="translate(681.494141 0)"/>
     <use xlink:href="#DejaVuSans-Bold-6c" transform="translate(715.771484 0)"/>
    </g>
   </g>
   <g id="text_5">
    <!-- Central MCF -->
    <g style="fill: #ffffff" transform="translate(1316.936705 493.666063) scale(0.44 -0.44)">
     <defs>
      <path id="DejaVuSans-Bold-46" d="M 588 4666 
L 3834 4666 
L 3834 3756 
L 1791 3756 
L 1791 2888 
L 3713 2888 
L 3713 1978 
L 1791 1978 
L 1791 0 
L 588 0 
L 588 4666 
z
" transform="scale(0.015625)"/>
     </defs>
     <use xlink:href="#DejaVuSans-Bold-43"/>
     <use xlink:href="#DejaVuSans-Bold-65" transform="translate(73.388672 0)"/>
     <use xlink:href="#DejaVuSans-Bold-6e" transform="translate(141.210938 0)"/>
     <use xlink:href="#DejaVuSans-Bold-74" transform="translate(212.402344 0)"/>
     <use xlink:href="#DejaVuSans-Bold-72" transform="translate(260.205078 0)"/>
     <use xlink:href="#DejaVuSans-Bold-61" transform="translate(309.521484 0)"/>
     <use xlink:href="#DejaVuSans-Bold-6c" transform="translate(377.001953 0)"/>
     <use xlink:href="#DejaVuSans-Bold-20" transform="translate(411.279297 0)"/>
     <use xlink:href="#DejaVuSans-Bold-4d" transform="translate(446.09375 0)"/>
     <use xlink:href="#DejaVuSans-Bold-43" transform="translate(545.605469 0)"/>
     <use xlink:href="#DejaVuSans-Bold-46" transform="translate(618.994141 0)"/>
    </g>
    <!-- Commission -->
    <g style="fill: #ffffff" transform="translate(1318.988892 542.936438) scale(0.44 -0.44)">
     <use xlink:href="#DejaVuSans-Bold-43"/>
     <use xlink:href="#DejaVuSans-Bold-6f" transform="translate(73.388672 0)"/>
     <use xlink:href="#DejaVuSans-Bold-6d" transform="translate(142.089844 0)"/>
     <use xlink:href="#DejaVuSans-Bold-6d" transform="translate(246.289062 0)"/>
     <use xlink:href="#DejaVuSans-Bold-69" transform="translate(350.488281 0)"/>
     <use xlink:href="#DejaVuSans-Bold-73" transform="translate(384.765625 0)"/>
     <use xlink:href="#DejaVuSans-Bold-73" transform="translate(444.287109 0)"/>
     <use xlink:href="#DejaVuSans-Bold-69" transform="translate(503.808594 0)"/>
     <use xlink:href="#DejaVuSans-Bold-6f" transform="translate(538.085938 0)"/>
     <use xlink:href="#DejaVuSans-Bold-6e" transform="translate(606.787109 0)"/>
    </g>
   </g>
   <g id="text_6">
    <!-- CMC Equipment -->
    <g style="fill: #ffffff" transform="translate(154.042045 744.281875) scale(0.4 -0.4)">
     <defs>
      <path id="DejaVuSans-Bold-45" d="M 588 4666 
L 3834 4666 
L 3834 3756 
L 1791 3756 
L 1791 2888 
L 3713 2888 
L 3713 1978 
L 1791 1978 
L 1791 909 
L 3903 909 
L 3903 0 
L 588 0 
L 588 4666 
z
" transform="scale(0.015625)"/>
      <path id="DejaVuSans-Bold-71" d="M 2181 2772 
Q 1825 2772 1636 2509 
Q 1447 2247 1447 1747 
Q 1447 1247 1636 984 
Q 1825 722 2181 722 
Q 2541 722 2730 984 
Q 2919 1247 2919 1747 
Q 2919 2247 2730 2509 
Q 2541 2772 2181 2772 
z
M 2919 506 
Q 2688 197 2409 53 
Q 2131 -91 1766 -91 
Q 1119 -91 703 423 
Q 288 938 288 1747 
Q 288 2556 703 3067 
Q 1119 3578 1766 3578 
Q 2131 3578 2409 3434 
Q 2688 3291 2919 2981 
L 2919 3500 
L 4044 3500 
L 4044 -1331 
L 2919 -1331 
L 2919 506 
z
" transform="scale(0.015625)"/>
     </defs>
     <use xlink:href="#DejaVuSans-Bold-43"/>
     <use xlink:href="#DejaVuSans-Bold-4d" transform="translate(73.388672 0)"/>
     <use xlink:href="#DejaVuSans-Bold-43" transform="translate(172.900391 0)"/>
     <use xlink:href="#DejaVuSans-Bold-20" transform="translate(246.289062 0)"/>
     <use xlink:href="#DejaVuSans-Bold-45" transform="translate(281.103516 0)"/>
     <use xlink:href="#DejaVuSans-Bold-71" transform="translate(349.414062 0)"/>
     <use xlink:href="#DejaVuSans-Bold-75" transform="translate(420.996094 0)"/>
     <use xlink:href="#DejaVuSans-Bold-69" transform="translate(492.1875 0)"/>
     <use xlink:href="#DejaVuSans-Bold-70" transform="translate(526.464844 0)"/>
     <use xlink:href="#DejaVuSans-Bold-6d" transform="translate(598.046875 0)"/>
     <use xlink:href="#DejaVuSans-Bold-65" transform="translate(702.246094 0)"/>
     <use xlink:href="#DejaVuSans-Bold-6e" transform="translate(770.068359 0)"/>
     <use xlink:href="#DejaVuSans-Bold-74" transform="translate(841.259766 0)"/>
    </g>
    <!-- Development -->
    <g style="fill: #ffffff" transform="translate(181.967045 789.073125) scale(0.4 -0.4)">
     <defs>
      <path id="DejaVuSans-Bold-44" d="M 1791 3756 
L 1791 909 
L 2222 909 
Q 2959 909 3348 1275 
Q 3738 1641 3738 2338 
Q 3738 3031 3350 3393 
Q 2963 3756 2222 3756 
L 1791 3756 
z
M 588 4666 
L 1856 4666 
Q 2919 4666 3439 4514 
Q 3959 4363 4331 4000 
Q 4659 3684 4818 3271 
Q 4978 2859 4978 2338 
Q 4978 1809 4818 1395 
Q 4659 981 4331 666 
Q 3956 303 3431 151 
Q 2906 0 1856 0 
L 588 0 
L 588 4666 
z
" transform="scale(0.015625)"/>
      <path id="DejaVuSans-Bold-76" d="M 97 3500 
L 1216 3500 
L 2088 1081 
L 2956 3500 
L 4078 3500 
L 2700 0 
L 1472 0 
L 97 3500 
z
" transform="scale(0.015625)"/>
     </defs>
     <use xlink:href="#DejaVuSans-Bold-44"/>
     <use xlink:href="#DejaVuSans-Bold-65" transform="translate(83.007812 0)"/>
     <use xlink:href="#DejaVuSans-Bold-76" transform="translate(150.830078 0)"/>
     <use xlink:href="#DejaVuSans-Bold-65" transform="translate(216.015625 0)"/>
     <use xlink:href="#DejaVuSans-Bold-6c" transform="translate(283.837891 0)"/>
     <use xlink:href="#DejaVuSans-Bold-6f" transform="translate(318.115234 0)"/>
     <use xlink:href="#DejaVuSans-Bold-70" transform="translate(386.816406 0)"/>
     <use xlink:href="#DejaVuSans-Bold-6d" transform="translate(458.398438 0)"/>
     <use xlink:href="#DejaVuSans-Bold-65" transform="translate(562.597656 0)"/>
     <use xlink:href="#DejaVuSans-Bold-6e" transform="translate(630.419922 0)"/>
     <use xlink:href="#DejaVuSans-Bold-74" transform="translate(701.611328 0)"/>
    </g>
   </g>
   <g id="text_7">
    <!-- SASTIND -->
    <g style="fill: #ffffff" transform="translate(598.381534 766.6775) scale(0.4 -0.4)">
     <defs>
      <path id="DejaVuSans-Bold-41" d="M 3419 850 
L 1538 850 
L 1241 0 
L 31 0 
L 1759 4666 
L 3194 4666 
L 4922 0 
L 3713 0 
L 3419 850 
z
M 1838 1716 
L 3116 1716 
L 2478 3572 
L 1838 1716 
z
" transform="scale(0.015625)"/>
      <path id="DejaVuSans-Bold-54" d="M 31 4666 
L 4331 4666 
L 4331 3756 
L 2784 3756 
L 2784 0 
L 1581 0 
L 1581 3756 
L 31 3756 
L 31 4666 
z
" transform="scale(0.015625)"/>
      <path id="DejaVuSans-Bold-49" d="M 588 4666 
L 1791 4666 
L 1791 0 
L 588 0 
L 588 4666 
z
" transform="scale(0.015625)"/>
      <path id="DejaVuSans-Bold-4e" d="M 588 4666 
L 1931 4666 
L 3628 1466 
L 3628 4666 
L 4769 4666 
L 4769 0 
L 3425 0 
L 1728 3200 
L 1728 0 
L 588 0 
L 588 4666 
z
" transform="scale(0.015625)"/>
     </defs>
     <use xlink:href="#DejaVuSans-Bold-53"/>
     <use xlink:href="#DejaVuSans-Bold-41" transform="translate(72.021484 0)"/>
     <use xlink:href="#DejaVuSans-Bold-53" transform="translate(149.414062 0)"/>
     <use xlink:href="#DejaVuSans-Bold-54" transform="translate(221.435547 0)"/>
     <use xlink:href="#DejaVuSans-Bold-49" transform="translate(289.648438 0)"/>
     <use xlink:href="#DejaVuSans-Bold-4e" transform="translate(326.855469 0)"/>
     <use xlink:href="#DejaVuSans-Bold-44" transform="translate(410.546875 0)"/>
    </g>
   </g>
   <g id="text_8">
    <!-- MIIT -->
    <g style="fill: #ffffff" transform="translate(1054.480966 766.6775) scale(0.4 -0.4)">
     <use xlink:href="#DejaVuSans-Bold-4d"/>
     <use xlink:href="#DejaVuSans-Bold-49" transform="translate(99.511719 0)"/>
     <use xlink:href="#DejaVuSans-Bold-49" transform="translate(136.71875 0)"/>
     <use xlink:href="#DejaVuSans-Bold-54" transform="translate(173.925781 0)"/>
    </g>
   </g>
   <g id="text_9">
    <!-- NDRC -->
    <g style="fill: #ffffff" transform="translate(1404.726705 766.6775) scale(0.4 -0.4)">
     <defs>
      <path id="DejaVuSans-Bold-52" d="M 2297 2597 
Q 2675 2597 2839 2737 
Q 3003 2878 3003 3200 
Q 3003 3519 2839 3656 
Q 2675 3794 2297 3794 
L 1791 3794 
L 1791 2597 
L 2297 2597 
z
M 1791 1766 
L 1791 0 
L 588 0 
L 588 4666 
L 2425 4666 
Q 3347 4666 3776 4356 
Q 4206 4047 4206 3378 
Q 4206 2916 3982 2619 
Q 3759 2322 3309 2181 
Q 3556 2125 3751 1926 
Q 3947 1728 4147 1325 
L 4800 0 
L 3519 0 
L 2950 1159 
Q 2778 1509 2601 1637 
Q 2425 1766 2131 1766 
L 1791 1766 
z
" transform="scale(0.015625)"/>
     </defs>
     <use xlink:href="#DejaVuSans-Bold-4e"/>
     <use xlink:href="#DejaVuSans-Bold-44" transform="translate(83.691406 0)"/>
     <use xlink:href="#DejaVuSans-Bold-52" transform="translate(166.699219 0)"/>
     <use xlink:href="#DejaVuSans-Bold-43" transform="translate(243.701172 0)"/>
    </g>
   </g>
   <g id="text_10">
    <!-- SASAC -->
    <g style="fill: #ffffff" transform="translate(585.790497 974.025625) scale(0.38 -0.38)">
     <use xlink:href="#DejaVuSans-Bold-53"/>
     <use xlink:href="#DejaVuSans-Bold-41" transform="translate(72.021484 0)"/>
     <use xlink:href="#DejaVuSans-Bold-53" transform="translate(149.414062 0)"/>
     <use xlink:href="#DejaVuSans-Bold-41" transform="translate(221.435547 0)"/>
     <use xlink:href="#DejaVuSans-Bold-43" transform="translate(298.828125 0)"/>
    </g>
   </g>
   <g id="text_11">
    <!-- CAS -->
    <g style="fill: #ffffff" transform="translate(1101.159503 974.025625) scale(0.38 -0.38)">
     <use xlink:href="#DejaVuSans-Bold-43"/>
     <use xlink:href="#DejaVuSans-Bold-41" transform="translate(73.388672 0)"/>
     <use xlink:href="#DejaVuSans-Bold-53" transform="translate(150.78125 0)"/>
    </g>
   </g>
   <g id="text_12">
    <!-- AVIC -->
    <g style="fill: #ffffff" transform="translate(853.4475 1181.37375) scale(0.36 -0.36)">
     <defs>
      <path id="DejaVuSans-Bold-56" d="M 31 4666 
L 1241 4666 
L 2478 1222 
L 3713 4666 
L 4922 4666 
L 3194 0 
L 1759 0 
L 31 4666 
z
" transform="scale(0.015625)"/>
     </defs>
     <use xlink:href="#DejaVuSans-Bold-41"/>
     <use xlink:href="#DejaVuSans-Bold-56" transform="translate(70.642578 0)"/>
     <use xlink:href="#DejaVuSans-Bold-49" transform="translate(148.035156 0)"/>
     <use xlink:href="#DejaVuSans-Bold-43" transform="translate(185.242188 0)"/>
    </g>
   </g>
   <g id="text_13">
    <!-- MCF Core Command Structure -->
    <g style="fill: #2c3e50" transform="translate(457.646562 90.36) scale(0.52 -0.52)">
     <defs>
      <path id="DejaVuSans-Bold-64" d="M 2919 2988 
L 2919 4863 
L 4044 4863 
L 4044 0 
L 2919 0 
L 2919 506 
Q 2688 197 2409 53 
Q 2131 -91 1766 -91 
Q 1119 -91 703 423 
Q 288 938 288 1747 
Q 288 2556 703 3070 
Q 1119 3584 1766 3584 
Q 2128 3584 2408 3439 
Q 2688 3294 2919 2988 
z
M 2181 722 
Q 2541 722 2730 984 
Q 2919 1247 2919 1747 
Q 2919 2247 2730 2509 
Q 2541 2772 2181 2772 
Q 1825 2772 1636 2509 
Q 1447 2247 1447 1747 
Q 1447 1247 1636 984 
Q 1825 722 2181 722 
z
" transform="scale(0.015625)"/>
     </defs>
     <use xlink:href="#DejaVuSans-Bold-4d"/>
     <use xlink:href="#DejaVuSans-Bold-43" transform="translate(99.511719 0)"/>
     <use xlink:href="#DejaVuSans-Bold-46" transform="translate(172.900391 0)"/>
     <use xlink:href="#DejaVuSans-Bold-20" transform="translate(241.210938 0)"/>
     <use xlink:href="#DejaVuSans-Bold-43" transform="translate(276.025391 0)"/>
     <use xlink:href="#DejaVuSans-Bold-6f" transform="translate(349.414062 0)"/>
     <use xlink:href="#DejaVuSans-Bold-72" transform="translate(418.115234 0)"/>
     <use xlink:href="#DejaVuSans-Bold-65" transform="translate(467.431641 0)"/>
     <use xlink:href="#DejaVuSans-Bold-20" transform="translate(535.253906 0)"/>
     <use xlink:href="#DejaVuSans-Bold-43" transform="translate(570.068359 0)"/>
     <use xlink:href="#DejaVuSans-Bold-6f" transform="translate(643.457031 0)"/>
     <use xlink:href="#DejaVuSans-Bold-6d" transform="translate(712.158203 0)"/>
     <use xlink:href="#DejaVuSans-Bold-6d" transform="translate(816.357422 0)"/>
     <use xlink:href="#DejaVuSans-Bold-61" transform="translate(920.556641 0)"/>
     <use xlink:href="#DejaVuSans-Bold-6e" transform="translate(988.037109 0)"/>
     <use xlink:href="#DejaVuSans-Bold-64" transform="translate(1059.228516 0)"/>
     <use xlink:href="#DejaVuSans-Bold-20" transform="translate(1130.810547 0)"/>
     <use xlink:href="#DejaVuSans-Bold-53" transform="translate(1165.625 0)"/>
     <use xlink:href="#DejaVuSans-Bold-74" transform="translate(1237.646484 0)"/>
     <use xlink:href="#DejaVuSans-Bold-72" transform="translate(1285.449219 0)"/>
     <use xlink:href="#DejaVuSans-Bold-75" transform="translate(1334.765625 0)"/>
     <use xlink:href="#DejaVuSans-Bold-63" transform="translate(1405.957031 0)"/>
     <use xlink:href="#DejaVuSans-Bold-74" transform="translate(1465.234375 0)"/>
     <use xlink:href="#DejaVuSans-Bold-75" transform="translate(1513.037109 0)"/>
     <use xlink:href="#DejaVuSans-Bold-72" transform="translate(1584.228516 0)"/>
     <use xlink:href="#DejaVuSans-Bold-65" transform="translate(1633.544922 0)"/>
    </g>
   </g>
   <g id="text_14">
    <!-- Top 12 Critical Entities - Executive Summary -->
    <g style="fill: #34495e" transform="translate(455.096875 148.572) scale(0.4 -0.4)">
     <defs>
      <path id="DejaVuSans-Oblique-54" d="M 378 4666 
L 4325 4666 
L 4225 4134 
L 2559 4134 
L 1759 0 
L 1125 0 
L 1925 4134 
L 275 4134 
L 378 4666 
z
" transform="scale(0.015625)"/>
      <path id="DejaVuSans-Oblique-6f" d="M 1625 -91 
Q 1009 -91 651 289 
Q 294 669 294 1325 
Q 294 1706 417 2101 
Q 541 2497 738 2766 
Q 1047 3184 1428 3384 
Q 1809 3584 2291 3584 
Q 2888 3584 3255 3212 
Q 3622 2841 3622 2241 
Q 3622 1825 3500 1412 
Q 3378 1000 3181 728 
Q 2875 309 2494 109 
Q 2113 -91 1625 -91 
z
M 891 1344 
Q 891 869 1089 633 
Q 1288 397 1691 397 
Q 2269 397 2648 901 
Q 3028 1406 3028 2181 
Q 3028 2634 2825 2865 
Q 2622 3097 2228 3097 
Q 1903 3097 1650 2945 
Q 1397 2794 1197 2484 
Q 1050 2253 970 1956 
Q 891 1659 891 1344 
z
" transform="scale(0.015625)"/>
      <path id="DejaVuSans-Oblique-70" d="M 3175 2156 
Q 3175 2616 2975 2859 
Q 2775 3103 2400 3103 
Q 2144 3103 1911 2972 
Q 1678 2841 1497 2591 
Q 1319 2344 1212 1994 
Q 1106 1644 1106 1300 
Q 1106 863 1306 627 
Q 1506 391 1875 391 
Q 2147 391 2380 519 
Q 2613 647 2778 891 
Q 2956 1147 3065 1494 
Q 3175 1841 3175 2156 
z
M 1394 2969 
Q 1625 3272 1939 3428 
Q 2253 3584 2638 3584 
Q 3175 3584 3472 3232 
Q 3769 2881 3769 2247 
Q 3769 1728 3584 1258 
Q 3400 788 3053 416 
Q 2822 169 2531 39 
Q 2241 -91 1919 -91 
Q 1547 -91 1294 64 
Q 1041 219 916 525 
L 556 -1331 
L -19 -1331 
L 922 3500 
L 1497 3500 
L 1394 2969 
z
" transform="scale(0.015625)"/>
      <path id="DejaVuSans-Oblique-20" transform="scale(0.015625)"/>
      <path id="DejaVuSans-Oblique-31" d="M 416 531 
L 1447 531 
L 2144 4122 
L 978 3897 
L 1088 4441 
L 2247 4666 
L 2881 4666 
L 2075 531 
L 3103 531 
L 3003 0 
L 313 0 
L 416 531 
z
" transform="scale(0.015625)"/>
      <path id="DejaVuSans-Oblique-32" d="M 2950 2253 
L 934 525 
L 3163 525 
L 3053 0 
L 25 0 
L 128 531 
L 2234 2338 
Q 2656 2703 2832 2979 
Q 3009 3256 3009 3547 
Q 3009 3850 2796 4040 
Q 2584 4231 2241 4231 
Q 1944 4231 1581 4125 
Q 1219 4019 806 3816 
L 922 4441 
Q 1309 4594 1662 4672 
Q 2016 4750 2316 4750 
Q 2928 4750 3301 4425 
Q 3675 4100 3675 3572 
Q 3675 3216 3497 2892 
Q 3319 2569 2950 2253 
z
" transform="scale(0.015625)"/>
      <path id="DejaVuSans-Oblique-43" d="M 4447 4306 
L 4319 3641 
Q 4019 3944 3683 4091 
Q 3347 4238 2956 4238 
Q 2422 4238 2017 3981 
Q 1613 3725 1319 3200 
Q 1131 2863 1032 2486 
Q 934 2109 934 1728 
Q 934 1091 1264 756 
Q 1594 422 2222 422 
Q 2656 422 3056 561 
Q 3456 700 3834 978 
L 3688 231 
Q 3316 72 2936 -9 
Q 2556 -91 2175 -91 
Q 1278 -91 773 396 
Q 269 884 269 1753 
Q 269 2309 461 2846 
Q 653 3384 1013 3828 
Q 1394 4300 1883 4525 
Q 2372 4750 3022 4750 
Q 3422 4750 3780 4639 
Q 4138 4528 4447 4306 
z
" transform="scale(0.015625)"/>
      <path id="DejaVuSans-Oblique-72" d="M 2853 2969 
Q 2766 3016 2653 3041 
Q 2541 3066 2413 3066 
Q 1953 3066 1609 2717 
Q 1266 2369 1153 1784 
L 800 0 
L 225 0 
L 909 3500 
L 1484 3500 
L 1375 2956 
Q 1603 3259 1920 3421 
Q 2238 3584 2597 3584 
Q 2691 3584 2781 3573 
Q 2872 3563 2963 3538 
L 2853 2969 
z
" transform="scale(0.015625)"/>
      <path id="DejaVuSans-Oblique-69" d="M 1172 4863 
L 1747 4863 
L 1606 4134 
L 1031 4134 
L 1172 4863 
z
M 909 3500 
L 1484 3500 
L 800 0 
L 225 0 
L 909 3500 
z
" transform="scale(0.015625)"/>
      <path id="DejaVuSans-Oblique-74" d="M 2706 3500 
L 2619 3053 
L 1472 3053 
L 1100 1153 
Q 1081 1047 1072 975 
Q 1063 903 1063 863 
Q 1063 663 1183 572 
Q 1303 481 1569 481 
L 2150 481 
L 2053 0 
L 1503 0 
Q 991 0 739 200 
Q 488 400 488 806 
Q 488 878 497 964 
Q 506 1050 525 1153 
L 897 3053 
L 409 3053 
L 500 3500 
L 978 3500 
L 1172 4494 
L 1747 4494 
L 1556 3500 
L 2706 3500 
z
" transform="scale(0.015625)"/>
      <path id="DejaVuSans-Oblique-63" d="M 3431 3366 
L 3316 2797 
Q 3109 2947 2876 3022 
Q 2644 3097 2394 3097 
Q 2119 3097 1870 3000 
Q 1622 2903 1453 2725 
Q 1184 2453 1037 2087 
Q 891 1722 891 1331 
Q 891 859 1127 628 
Q 1363 397 1844 397 
Q 2081 397 2348 469 
Q 2616 541 2906 684 
L 2797 116 
Q 2547 13 2283 -39 
Q 2019 -91 1741 -91 
Q 1044 -91 669 257 
Q 294 606 294 1253 
Q 294 1797 489 2255 
Q 684 2713 1069 3078 
Q 1331 3328 1684 3456 
Q 2038 3584 2456 3584 
Q 2700 3584 2940 3529 
Q 3181 3475 3431 3366 
z
" transform="scale(0.015625)"/>
      <path id="DejaVuSans-Oblique-61" d="M 3438 1997 
L 3047 0 
L 2472 0 
L 2578 531 
Q 2325 219 2001 64 
Q 1678 -91 1281 -91 
Q 834 -91 548 182 
Q 263 456 263 884 
Q 263 1497 752 1853 
Q 1241 2209 2100 2209 
L 2900 2209 
L 2931 2363 
Q 2938 2388 2941 2417 
Q 2944 2447 2944 2509 
Q 2944 2788 2717 2942 
Q 2491 3097 2081 3097 
Q 1800 3097 1504 3025 
Q 1209 2953 897 2809 
L 997 3341 
Q 1322 3463 1633 3523 
Q 1944 3584 2234 3584 
Q 2853 3584 3176 3315 
Q 3500 3047 3500 2534 
Q 3500 2431 3484 2292 
Q 3469 2153 3438 1997 
z
M 2816 1759 
L 2241 1759 
Q 1534 1759 1195 1570 
Q 856 1381 856 984 
Q 856 709 1029 553 
Q 1203 397 1509 397 
Q 1978 397 2328 733 
Q 2678 1069 2791 1631 
L 2816 1759 
z
" transform="scale(0.015625)"/>
      <path id="DejaVuSans-Oblique-6c" d="M 1172 4863 
L 1747 4863 
L 800 0 
L 225 0 
L 1172 4863 
z
" transform="scale(0.015625)"/>
      <path id="DejaVuSans-Oblique-45" d="M 1081 4666 
L 4031 4666 
L 3928 4134 
L 1606 4134 
L 1338 2753 
L 3566 2753 
L 3463 2222 
L 1234 2222 
L 909 531 
L 3284 531 
L 3181 0 
L 172 0 
L 1081 4666 
z
" transform="scale(0.015625)"/>
      <path id="DejaVuSans-Oblique-6e" d="M 3566 2113 
L 3156 0 
L 2578 0 
L 2988 2091 
Q 3016 2238 3031 2350 
Q 3047 2463 3047 2528 
Q 3047 2791 2881 2937 
Q 2716 3084 2419 3084 
Q 1956 3084 1622 2776 
Q 1288 2469 1184 1941 
L 800 0 
L 225 0 
L 903 3500 
L 1478 3500 
L 1363 2950 
Q 1603 3253 1940 3418 
Q 2278 3584 2650 3584 
Q 3113 3584 3367 3334 
Q 3622 3084 3622 2631 
Q 3622 2519 3608 2391 
Q 3594 2263 3566 2113 
z
" transform="scale(0.015625)"/>
      <path id="DejaVuSans-Oblique-65" d="M 3078 2063 
Q 3088 2113 3092 2166 
Q 3097 2219 3097 2272 
Q 3097 2653 2873 2875 
Q 2650 3097 2266 3097 
Q 1838 3097 1509 2826 
Q 1181 2556 1013 2059 
L 3078 2063 
z
M 3578 1613 
L 903 1613 
Q 884 1494 878 1425 
Q 872 1356 872 1306 
Q 872 872 1139 634 
Q 1406 397 1894 397 
Q 2269 397 2603 481 
Q 2938 566 3225 728 
L 3116 159 
Q 2806 34 2476 -28 
Q 2147 -91 1806 -91 
Q 1078 -91 686 257 
Q 294 606 294 1247 
Q 294 1794 489 2264 
Q 684 2734 1063 3103 
Q 1306 3334 1642 3459 
Q 1978 3584 2356 3584 
Q 2950 3584 3301 3228 
Q 3653 2872 3653 2272 
Q 3653 2128 3634 1964 
Q 3616 1800 3578 1613 
z
" transform="scale(0.015625)"/>
      <path id="DejaVuSans-Oblique-73" d="M 3200 3397 
L 3091 2853 
Q 2863 2978 2609 3040 
Q 2356 3103 2088 3103 
Q 1634 3103 1373 2948 
Q 1113 2794 1113 2528 
Q 1113 2219 1719 2053 
Q 1766 2041 1788 2034 
L 1972 1978 
Q 2547 1819 2739 1644 
Q 2931 1469 2931 1166 
Q 2931 609 2489 259 
Q 2047 -91 1331 -91 
Q 1053 -91 747 -37 
Q 441 16 72 128 
L 184 722 
Q 500 559 806 475 
Q 1113 391 1394 391 
Q 1816 391 2080 572 
Q 2344 753 2344 1031 
Q 2344 1331 1650 1516 
L 1591 1531 
L 1394 1581 
Q 956 1697 753 1886 
Q 550 2075 550 2369 
Q 550 2928 970 3256 
Q 1391 3584 2113 3584 
Q 2397 3584 2667 3537 
Q 2938 3491 3200 3397 
z
" transform="scale(0.015625)"/>
      <path id="DejaVuSans-Oblique-2d" d="M 391 2009 
L 2075 2009 
L 1978 1497 
L 288 1497 
L 391 2009 
z
" transform="scale(0.015625)"/>
      <path id="DejaVuSans-Oblique-78" d="M 3841 3500 
L 2234 1784 
L 3219 0 
L 2559 0 
L 1819 1388 
L 531 0 
L -166 0 
L 1556 1844 
L 641 3500 
L 1300 3500 
L 1972 2234 
L 3144 3500 
L 3841 3500 
z
" transform="scale(0.015625)"/>
      <path id="DejaVuSans-Oblique-75" d="M 428 1388 
L 838 3500 
L 1416 3500 
L 1006 1409 
Q 975 1256 961 1147 
Q 947 1038 947 966 
Q 947 700 1109 554 
Q 1272 409 1569 409 
Q 2031 409 2368 721 
Q 2706 1034 2809 1563 
L 3194 3500 
L 3769 3500 
L 3091 0 
L 2516 0 
L 2631 550 
Q 2388 244 2052 76 
Q 1716 -91 1338 -91 
Q 878 -91 622 161 
Q 366 413 366 863 
Q 366 956 381 1097 
Q 397 1238 428 1388 
z
" transform="scale(0.015625)"/>
      <path id="DejaVuSans-Oblique-76" d="M 459 3500 
L 1069 3500 
L 1581 525 
L 3256 3500 
L 3866 3500 
L 1875 0 
L 1100 0 
L 459 3500 
z
" transform="scale(0.015625)"/>
      <path id="DejaVuSans-Oblique-53" d="M 3859 4513 
L 3738 3897 
Q 3422 4066 3111 4152 
Q 2800 4238 2509 4238 
Q 1944 4238 1609 3991 
Q 1275 3744 1275 3334 
Q 1275 3109 1398 2989 
Q 1522 2869 2034 2731 
L 2413 2638 
Q 3053 2472 3303 2217 
Q 3553 1963 3553 1503 
Q 3553 797 2998 353 
Q 2444 -91 1538 -91 
Q 1166 -91 791 -17 
Q 416 56 38 206 
L 166 856 
Q 513 641 861 531 
Q 1209 422 1556 422 
Q 2147 422 2503 684 
Q 2859 947 2859 1369 
Q 2859 1650 2717 1795 
Q 2575 1941 2106 2059 
L 1728 2156 
Q 1081 2325 845 2545 
Q 609 2766 609 3163 
Q 609 3859 1145 4304 
Q 1681 4750 2541 4750 
Q 2875 4750 3203 4690 
Q 3531 4631 3859 4513 
z
" transform="scale(0.015625)"/>
      <path id="DejaVuSans-Oblique-6d" d="M 5747 2113 
L 5338 0 
L 4763 0 
L 5166 2094 
Q 5191 2228 5203 2325 
Q 5216 2422 5216 2491 
Q 5216 2772 5059 2928 
Q 4903 3084 4622 3084 
Q 4203 3084 3875 2770 
Q 3547 2456 3450 1953 
L 3066 0 
L 2491 0 
L 2900 2094 
Q 2925 2209 2937 2307 
Q 2950 2406 2950 2484 
Q 2950 2769 2794 2926 
Q 2638 3084 2363 3084 
Q 1938 3084 1609 2770 
Q 1281 2456 1184 1953 
L 800 0 
L 225 0 
L 909 3500 
L 1484 3500 
L 1375 2956 
Q 1609 3263 1923 3423 
Q 2238 3584 2597 3584 
Q 2978 3584 3223 3384 
Q 3469 3184 3519 2828 
Q 3781 3197 4126 3390 
Q 4472 3584 4856 3584 
Q 5306 3584 5551 3325 
Q 5797 3066 5797 2591 
Q 5797 2488 5784 2364 
Q 5772 2241 5747 2113 
z
" transform="scale(0.015625)"/>
      <path id="DejaVuSans-Oblique-79" d="M 1588 -325 
Q 1188 -997 936 -1164 
Q 684 -1331 294 -1331 
L -159 -1331 
L -63 -850 
L 269 -850 
Q 509 -850 678 -719 
Q 847 -588 1056 -206 
L 1234 128 
L 459 3500 
L 1069 3500 
L 1650 819 
L 3256 3500 
L 3859 3500 
L 1588 -325 
z
" transform="scale(0.015625)"/>
     </defs>
     <use xlink:href="#DejaVuSans-Oblique-54"/>
     <use xlink:href="#DejaVuSans-Oblique-6f" transform="translate(48.708984 0)"/>
     <use xlink:href="#DejaVuSans-Oblique-70" transform="translate(109.890625 0)"/>
     <use xlink:href="#DejaVuSans-Oblique-20" transform="translate(173.367188 0)"/>
     <use xlink:href="#DejaVuSans-Oblique-31" transform="translate(205.154297 0)"/>
     <use xlink:href="#DejaVuSans-Oblique-32" transform="translate(268.777344 0)"/>
     <use xlink:href="#DejaVuSans-Oblique-20" transform="translate(332.400391 0)"/>
     <use xlink:href="#DejaVuSans-Oblique-43" transform="translate(364.1875 0)"/>
     <use xlink:href="#DejaVuSans-Oblique-72" transform="translate(434.011719 0)"/>
     <use xlink:href="#DejaVuSans-Oblique-69" transform="translate(475.125 0)"/>
     <use xlink:href="#DejaVuSans-Oblique-74" transform="translate(502.908203 0)"/>
     <use xlink:href="#DejaVuSans-Oblique-69" transform="translate(542.117188 0)"/>
     <use xlink:href="#DejaVuSans-Oblique-63" transform="translate(569.900391 0)"/>
     <use xlink:href="#DejaVuSans-Oblique-61" transform="translate(624.880859 0)"/>
     <use xlink:href="#DejaVuSans-Oblique-6c" transform="translate(686.160156 0)"/>
     <use xlink:href="#DejaVuSans-Oblique-20" transform="translate(713.943359 0)"/>
     <use xlink:href="#DejaVuSans-Oblique-45" transform="translate(745.730469 0)"/>
     <use xlink:href="#DejaVuSans-Oblique-6e" transform="translate(808.914062 0)"/>
     <use xlink:href="#DejaVuSans-Oblique-74" transform="translate(872.292969 0)"/>
     <use xlink:href="#DejaVuSans-Oblique-69" transform="translate(911.501953 0)"/>
     <use xlink:href="#DejaVuSans-Oblique-74" transform="translate(939.285156 0)"/>
     <use xlink:href="#DejaVuSans-Oblique-69" transform="translate(978.494141 0)"/>
     <use xlink:href="#DejaVuSans-Oblique-65" transform="translate(1006.277344 0)"/>
     <use xlink:href="#DejaVuSans-Oblique-73" transform="translate(1067.800781 0)"/>
     <use xlink:href="#DejaVuSans-Oblique-20" transform="translate(1119.900391 0)"/>
     <use xlink:href="#DejaVuSans-Oblique-2d" transform="translate(1151.6875 0)"/>
     <use xlink:href="#DejaVuSans-Oblique-20" transform="translate(1187.771484 0)"/>
     <use xlink:href="#DejaVuSans-Oblique-45" transform="translate(1219.558594 0)"/>
     <use xlink:href="#DejaVuSans-Oblique-78" transform="translate(1282.742188 0)"/>
     <use xlink:href="#DejaVuSans-Oblique-65" transform="translate(1341.921875 0)"/>
     <use xlink:href="#DejaVuSans-Oblique-63" transform="translate(1403.445312 0)"/>
     <use xlink:href="#DejaVuSans-Oblique-75" transform="translate(1458.425781 0)"/>
     <use xlink:href="#DejaVuSans-Oblique-74" transform="translate(1521.804688 0)"/>
     <use xlink:href="#DejaVuSans-Oblique-69" transform="translate(1561.013672 0)"/>
     <use xlink:href="#DejaVuSans-Oblique-76" transform="translate(1588.796875 0)"/>
     <use xlink:href="#DejaVuSans-Oblique-65" transform="translate(1647.976562 0)"/>
     <use xlink:href="#DejaVuSans-Oblique-20" transform="translate(1709.5 0)"/>
     <use xlink:href="#DejaVuSans-Oblique-53" transform="translate(1741.287109 0)"/>
     <use xlink:href="#DejaVuSans-Oblique-75" transform="translate(1804.763672 0)"/>
     <use xlink:href="#DejaVuSans-Oblique-6d" transform="translate(1868.142578 0)"/>
     <use xlink:href="#DejaVuSans-Oblique-6d" transform="translate(1965.554688 0)"/>
     <use xlink:href="#DejaVuSans-Oblique-61" transform="translate(2062.966797 0)"/>
     <use xlink:href="#DejaVuSans-Oblique-72" transform="translate(2124.246094 0)"/>
     <use xlink:href="#DejaVuSans-Oblique-79" transform="translate(2165.359375 0)"/>
    </g>
   </g>
   <g id="legend_1">
    <g id="patch_35">
     <path d="M 33.8 1318.76 
L 430.1375 1318.76 
Q 437.7375 1318.76 437.7375 1311.16 
L 437.7375 922.58625 
Q 437.7375 914.98625 430.1375 914.98625 
L 33.8 914.98625 
Q 26.2 914.98625 26.2 922.58625 
L 26.2 1311.16 
Q 26.2 1318.76 33.8 1318.76 
z
" style="fill: #ffffff; opacity: 0.95; stroke: #2c3e50; stroke-linejoin: miter"/>
    </g>
    <g id="text_15">
     <!-- Organization Types -->
     <g transform="translate(41.4 960.58) scale(0.4 -0.4)">
      <defs>
       <path id="DejaVuSans-4f" d="M 2522 4238 
Q 1834 4238 1429 3725 
Q 1025 3213 1025 2328 
Q 1025 1447 1429 934 
Q 1834 422 2522 422 
Q 3209 422 3611 934 
Q 4013 1447 4013 2328 
Q 4013 3213 3611 3725 
Q 3209 4238 2522 4238 
z
M 2522 4750 
Q 3503 4750 4090 4092 
Q 4678 3434 4678 2328 
Q 4678 1225 4090 567 
Q 3503 -91 2522 -91 
Q 1538 -91 948 565 
Q 359 1222 359 2328 
Q 359 3434 948 4092 
Q 1538 4750 2522 4750 
z
" transform="scale(0.015625)"/>
       <path id="DejaVuSans-72" d="M 2631 2963 
Q 2534 3019 2420 3045 
Q 2306 3072 2169 3072 
Q 1681 3072 1420 2755 
Q 1159 2438 1159 1844 
L 1159 0 
L 581 0 
L 581 3500 
L 1159 3500 
L 1159 2956 
Q 1341 3275 1631 3429 
Q 1922 3584 2338 3584 
Q 2397 3584 2469 3576 
Q 2541 3569 2628 3553 
L 2631 2963 
z
" transform="scale(0.015625)"/>
       <path id="DejaVuSans-67" d="M 2906 1791 
Q 2906 2416 2648 2759 
Q 2391 3103 1925 3103 
Q 1463 3103 1205 2759 
Q 947 2416 947 1791 
Q 947 1169 1205 825 
Q 1463 481 1925 481 
Q 2391 481 2648 825 
Q 2906 1169 2906 1791 
z
M 3481 434 
Q 3481 -459 3084 -895 
Q 2688 -1331 1869 -1331 
Q 1566 -1331 1297 -1286 
Q 1028 -1241 775 -1147 
L 775 -588 
Q 1028 -725 1275 -790 
Q 1522 -856 1778 -856 
Q 2344 -856 2625 -561 
Q 2906 -266 2906 331 
L 2906 616 
Q 2728 306 2450 153 
Q 2172 0 1784 0 
Q 1141 0 747 490 
Q 353 981 353 1791 
Q 353 2603 747 3093 
Q 1141 3584 1784 3584 
Q 2172 3584 2450 3431 
Q 2728 3278 2906 2969 
L 2906 3500 
L 3481 3500 
L 3481 434 
z
" transform="scale(0.015625)"/>
       <path id="DejaVuSans-61" d="M 2194 1759 
Q 1497 1759 1228 1600 
Q 959 1441 959 1056 
Q 959 750 1161 570 
Q 1363 391 1709 391 
Q 2188 391 2477 730 
Q 2766 1069 2766 1631 
L 2766 1759 
L 2194 1759 
z
M 3341 1997 
L 3341 0 
L 2766 0 
L 2766 531 
Q 2569 213 2275 61 
Q 1981 -91 1556 -91 
Q 1019 -91 701 211 
Q 384 513 384 1019 
Q 384 1609 779 1909 
Q 1175 2209 1959 2209 
L 2766 2209 
L 2766 2266 
Q 2766 2663 2505 2880 
Q 2244 3097 1772 3097 
Q 1472 3097 1187 3025 
Q 903 2953 641 2809 
L 641 3341 
Q 956 3463 1253 3523 
Q 1550 3584 1831 3584 
Q 2591 3584 2966 3190 
Q 3341 2797 3341 1997 
z
" transform="scale(0.015625)"/>
       <path id="DejaVuSans-6e" d="M 3513 2113 
L 3513 0 
L 2938 0 
L 2938 2094 
Q 2938 2591 2744 2837 
Q 2550 3084 2163 3084 
Q 1697 3084 1428 2787 
Q 1159 2491 1159 1978 
L 1159 0 
L 581 0 
L 581 3500 
L 1159 3500 
L 1159 2956 
Q 1366 3272 1645 3428 
Q 1925 3584 2291 3584 
Q 2894 3584 3203 3211 
Q 3513 2838 3513 2113 
z
" transform="scale(0.015625)"/>
       <path id="DejaVuSans-69" d="M 603 3500 
L 1178 3500 
L 1178 0 
L 603 0 
L 603 3500 
z
M 603 4863 
L 1178 4863 
L 1178 4134 
L 603 4134 
L 603 4863 
z
" transform="scale(0.015625)"/>
       <path id="DejaVuSans-7a" d="M 353 3500 
L 3084 3500 
L 3084 2975 
L 922 459 
L 3084 459 
L 3084 0 
L 275 0 
L 275 525 
L 2438 3041 
L 353 3041 
L 353 3500 
z
" transform="scale(0.015625)"/>
       <path id="DejaVuSans-74" d="M 1172 4494 
L 1172 3500 
L 2356 3500 
L 2356 3053 
L 1172 3053 
L 1172 1153 
Q 1172 725 1289 603 
Q 1406 481 1766 481 
L 2356 481 
L 2356 0 
L 1766 0 
Q 1100 0 847 248 
Q 594 497 594 1153 
L 594 3053 
L 172 3053 
L 172 3500 
L 594 3500 
L 594 4494 
L 1172 4494 
z
" transform="scale(0.015625)"/>
       <path id="DejaVuSans-6f" d="M 1959 3097 
Q 1497 3097 1228 2736 
Q 959 2375 959 1747 
Q 959 1119 1226 758 
Q 1494 397 1959 397 
Q 2419 397 2687 759 
Q 2956 1122 2956 1747 
Q 2956 2369 2687 2733 
Q 2419 3097 1959 3097 
z
M 1959 3584 
Q 2709 3584 3137 3096 
Q 3566 2609 3566 1747 
Q 3566 888 3137 398 
Q 2709 -91 1959 -91 
Q 1206 -91 779 398 
Q 353 888 353 1747 
Q 353 2609 779 3096 
Q 1206 3584 1959 3584 
z
" transform="scale(0.015625)"/>
       <path id="DejaVuSans-20" transform="scale(0.015625)"/>
       <path id="DejaVuSans-54" d="M -19 4666 
L 3928 4666 
L 3928 4134 
L 2272 4134 
L 2272 0 
L 1638 0 
L 1638 4134 
L -19 4134 
L -19 4666 
z
" transform="scale(0.015625)"/>
       <path id="DejaVuSans-79" d="M 2059 -325 
Q 1816 -950 1584 -1140 
Q 1353 -1331 966 -1331 
L 506 -1331 
L 506 -850 
L 844 -850 
Q 1081 -850 1212 -737 
Q 1344 -625 1503 -206 
L 1606 56 
L 191 3500 
L 800 3500 
L 1894 763 
L 2988 3500 
L 3597 3500 
L 2059 -325 
z
" transform="scale(0.015625)"/>
       <path id="DejaVuSans-70" d="M 1159 525 
L 1159 -1331 
L 581 -1331 
L 581 3500 
L 1159 3500 
L 1159 2969 
Q 1341 3281 1617 3432 
Q 1894 3584 2278 3584 
Q 2916 3584 3314 3078 
Q 3713 2572 3713 1747 
Q 3713 922 3314 415 
Q 2916 -91 2278 -91 
Q 1894 -91 1617 61 
Q 1341 213 1159 525 
z
M 3116 1747 
Q 3116 2381 2855 2742 
Q 2594 3103 2138 3103 
Q 1681 3103 1420 2742 
Q 1159 2381 1159 1747 
Q 1159 1113 1420 752 
Q 1681 391 2138 391 
Q 2594 391 2855 752 
Q 3116 1113 3116 1747 
z
" transform="scale(0.015625)"/>
       <path id="DejaVuSans-65" d="M 3597 1894 
L 3597 1613 
L 953 1613 
Q 991 1019 1311 708 
Q 1631 397 2203 397 
Q 2534 397 2845 478 
Q 3156 559 3463 722 
L 3463 178 
Q 3153 47 2828 -22 
Q 2503 -91 2169 -91 
Q 1331 -91 842 396 
Q 353 884 353 1716 
Q 353 2575 817 3079 
Q 1281 3584 2069 3584 
Q 2775 3584 3186 3129 
Q 3597 2675 3597 1894 
z
M 3022 2063 
Q 3016 2534 2758 2815 
Q 2500 3097 2075 3097 
Q 1594 3097 1305 2825 
Q 1016 2553 972 2059 
L 3022 2063 
z
" transform="scale(0.015625)"/>
       <path id="DejaVuSans-73" d="M 2834 3397 
L 2834 2853 
Q 2591 2978 2328 3040 
Q 2066 3103 1784 3103 
Q 1356 3103 1142 2972 
Q 928 2841 928 2578 
Q 928 2378 1081 2264 
Q 1234 2150 1697 2047 
L 1894 2003 
Q 2506 1872 2764 1633 
Q 3022 1394 3022 966 
Q 3022 478 2636 193 
Q 2250 -91 1575 -91 
Q 1294 -91 989 -36 
Q 684 19 347 128 
L 347 722 
Q 666 556 975 473 
Q 1284 391 1588 391 
Q 1994 391 2212 530 
Q 2431 669 2431 922 
Q 2431 1156 2273 1281 
Q 2116 1406 1581 1522 
L 1381 1569 
Q 847 1681 609 1914 
Q 372 2147 372 2553 
Q 372 3047 722 3315 
Q 1072 3584 1716 3584 
Q 2034 3584 2315 3537 
Q 2597 3491 2834 3397 
z
" transform="scale(0.015625)"/>
      </defs>
      <use xlink:href="#DejaVuSans-4f"/>
      <use xlink:href="#DejaVuSans-72" transform="translate(78.710938 0)"/>
      <use xlink:href="#DejaVuSans-67" transform="translate(118.074219 0)"/>
      <use xlink:href="#DejaVuSans-61" transform="translate(181.550781 0)"/>
      <use xlink:href="#DejaVuSans-6e" transform="translate(242.830078 0)"/>
      <use xlink:href="#DejaVuSans-69" transform="translate(306.208984 0)"/>
      <use xlink:href="#DejaVuSans-7a" transform="translate(333.992188 0)"/>
      <use xlink:href="#DejaVuSans-61" transform="translate(386.482422 0)"/>
      <use xlink:href="#DejaVuSans-74" transform="translate(447.761719 0)"/>
      <use xlink:href="#DejaVuSans-69" transform="translate(486.970703 0)"/>
      <use xlink:href="#DejaVuSans-6f" transform="translate(514.753906 0)"/>
      <use xlink:href="#DejaVuSans-6e" transform="translate(575.935547 0)"/>
      <use xlink:href="#DejaVuSans-20" transform="translate(639.314453 0)"/>
      <use xlink:href="#DejaVuSans-54" transform="translate(671.101562 0)"/>
      <use xlink:href="#DejaVuSans-79" transform="translate(716.560547 0)"/>
      <use xlink:href="#DejaVuSans-70" transform="translate(775.740234 0)"/>
      <use xlink:href="#DejaVuSans-65" transform="translate(839.216797 0)"/>
      <use xlink:href="#DejaVuSans-73" transform="translate(900.740234 0)"/>
     </g>
    </g>
    <g id="patch_36">
     <path d="M 57.352812 1016.772813 
L 133.352812 1016.772813 
L 133.352812 990.172813 
L 57.352812 990.172813 
z
" style="fill: #8b0000; stroke: #ffffff; stroke-width: 2; stroke-linejoin: miter"/>
    </g>
    <g id="text_16">
     <!-- Party -->
     <g transform="translate(163.752813 1016.772813) scale(0.38 -0.38)">
      <defs>
       <path id="DejaVuSans-50" d="M 1259 4147 
L 1259 2394 
L 2053 2394 
Q 2494 2394 2734 2622 
Q 2975 2850 2975 3272 
Q 2975 3691 2734 3919 
Q 2494 4147 2053 4147 
L 1259 4147 
z
M 628 4666 
L 2053 4666 
Q 2838 4666 3239 4311 
Q 3641 3956 3641 3272 
Q 3641 2581 3239 2228 
Q 2838 1875 2053 1875 
L 1259 1875 
L 1259 0 
L 628 0 
L 628 4666 
z
" transform="scale(0.015625)"/>
      </defs>
      <use xlink:href="#DejaVuSans-50"/>
      <use xlink:href="#DejaVuSans-61" transform="translate(55.802734 0)"/>
      <use xlink:href="#DejaVuSans-72" transform="translate(117.082031 0)"/>
      <use xlink:href="#DejaVuSans-74" transform="translate(158.195312 0)"/>
      <use xlink:href="#DejaVuSans-79" transform="translate(197.404297 0)"/>
     </g>
    </g>
    <g id="patch_37">
     <path d="M 57.352812 1072.549688 
L 133.352812 1072.549688 
L 133.352812 1045.949688 
L 57.352812 1045.949688 
z
" style="fill: #1e3a5f; stroke: #ffffff; stroke-width: 2; stroke-linejoin: miter"/>
    </g>
    <g id="text_17">
     <!-- Military -->
     <g transform="translate(163.752813 1072.549688) scale(0.38 -0.38)">
      <defs>
       <path id="DejaVuSans-4d" d="M 628 4666 
L 1569 4666 
L 2759 1491 
L 3956 4666 
L 4897 4666 
L 4897 0 
L 4281 0 
L 4281 4097 
L 3078 897 
L 2444 897 
L 1241 4097 
L 1241 0 
L 628 0 
L 628 4666 
z
" transform="scale(0.015625)"/>
       <path id="DejaVuSans-6c" d="M 603 4863 
L 1178 4863 
L 1178 0 
L 603 0 
L 603 4863 
z
" transform="scale(0.015625)"/>
      </defs>
      <use xlink:href="#DejaVuSans-4d"/>
      <use xlink:href="#DejaVuSans-69" transform="translate(86.279297 0)"/>
      <use xlink:href="#DejaVuSans-6c" transform="translate(114.0625 0)"/>
      <use xlink:href="#DejaVuSans-69" transform="translate(141.845703 0)"/>
      <use xlink:href="#DejaVuSans-74" transform="translate(169.628906 0)"/>
      <use xlink:href="#DejaVuSans-61" transform="translate(208.837891 0)"/>
      <use xlink:href="#DejaVuSans-72" transform="translate(270.117188 0)"/>
      <use xlink:href="#DejaVuSans-79" transform="translate(311.230469 0)"/>
     </g>
    </g>
    <g id="patch_38">
     <path d="M 57.352812 1128.326563 
L 133.352812 1128.326563 
L 133.352812 1101.726563 
L 57.352812 1101.726563 
z
" style="fill: #4682b4; stroke: #ffffff; stroke-width: 2; stroke-linejoin: miter"/>
    </g>
    <g id="text_18">
     <!-- Civilian -->
     <g transform="translate(163.752813 1128.326563) scale(0.38 -0.38)">
      <defs>
       <path id="DejaVuSans-43" d="M 4122 4306 
L 4122 3641 
Q 3803 3938 3442 4084 
Q 3081 4231 2675 4231 
Q 1875 4231 1450 3742 
Q 1025 3253 1025 2328 
Q 1025 1406 1450 917 
Q 1875 428 2675 428 
Q 3081 428 3442 575 
Q 3803 722 4122 1019 
L 4122 359 
Q 3791 134 3420 21 
Q 3050 -91 2638 -91 
Q 1578 -91 968 557 
Q 359 1206 359 2328 
Q 359 3453 968 4101 
Q 1578 4750 2638 4750 
Q 3056 4750 3426 4639 
Q 3797 4528 4122 4306 
z
" transform="scale(0.015625)"/>
       <path id="DejaVuSans-76" d="M 191 3500 
L 800 3500 
L 1894 563 
L 2988 3500 
L 3597 3500 
L 2284 0 
L 1503 0 
L 191 3500 
z
" transform="scale(0.015625)"/>
      </defs>
      <use xlink:href="#DejaVuSans-43"/>
      <use xlink:href="#DejaVuSans-69" transform="translate(69.824219 0)"/>
      <use xlink:href="#DejaVuSans-76" transform="translate(97.607422 0)"/>
      <use xlink:href="#DejaVuSans-69" transform="translate(156.787109 0)"/>
      <use xlink:href="#DejaVuSans-6c" transform="translate(184.570312 0)"/>
      <use xlink:href="#DejaVuSans-69" transform="translate(212.353516 0)"/>
      <use xlink:href="#DejaVuSans-61" transform="translate(240.136719 0)"/>
      <use xlink:href="#DejaVuSans-6e" transform="translate(301.416016 0)"/>
     </g>
    </g>
    <g id="patch_39">
     <path d="M 57.352812 1184.103438 
L 133.352812 1184.103438 
L 133.352812 1157.503438 
L 57.352812 1157.503438 
z
" style="fill: #6b46c1; stroke: #ffffff; stroke-width: 2; stroke-linejoin: miter"/>
    </g>
    <g id="text_19">
     <!-- Dual-Use -->
     <g transform="translate(163.752813 1184.103438) scale(0.38 -0.38)">
      <defs>
       <path id="DejaVuSans-44" d="M 1259 4147 
L 1259 519 
L 2022 519 
Q 2988 519 3436 956 
Q 3884 1394 3884 2338 
Q 3884 3275 3436 3711 
Q 2988 4147 2022 4147 
L 1259 4147 
z
M 628 4666 
L 1925 4666 
Q 3281 4666 3915 4102 
Q 4550 3538 4550 2338 
Q 4550 1131 3912 565 
Q 3275 0 1925 0 
L 628 0 
L 628 4666 
z
" transform="scale(0.015625)"/>
       <path id="DejaVuSans-75" d="M 544 1381 
L 544 3500 
L 1119 3500 
L 1119 1403 
Q 1119 906 1312 657 
Q 1506 409 1894 409 
Q 2359 409 2629 706 
Q 2900 1003 2900 1516 
L 2900 3500 
L 3475 3500 
L 3475 0 
L 2900 0 
L 2900 538 
Q 2691 219 2414 64 
Q 2138 -91 1772 -91 
Q 1169 -91 856 284 
Q 544 659 544 1381 
z
M 1991 3584 
L 1991 3584 
z
" transform="scale(0.015625)"/>
       <path id="DejaVuSans-2d" d="M 313 2009 
L 1997 2009 
L 1997 1497 
L 313 1497 
L 313 2009 
z
" transform="scale(0.015625)"/>
       <path id="DejaVuSans-55" d="M 556 4666 
L 1191 4666 
L 1191 1831 
Q 1191 1081 1462 751 
Q 1734 422 2344 422 
Q 2950 422 3222 751 
Q 3494 1081 3494 1831 
L 3494 4666 
L 4128 4666 
L 4128 1753 
Q 4128 841 3676 375 
Q 3225 -91 2344 -91 
Q 1459 -91 1007 375 
Q 556 841 556 1753 
L 556 4666 
z
" transform="scale(0.015625)"/>
      </defs>
      <use xlink:href="#DejaVuSans-44"/>
      <use xlink:href="#DejaVuSans-75" transform="translate(77.001953 0)"/>
      <use xlink:href="#DejaVuSans-61" transform="translate(140.380859 0)"/>
      <use xlink:href="#DejaVuSans-6c" transform="translate(201.660156 0)"/>
      <use xlink:href="#DejaVuSans-2d" transform="translate(229.443359 0)"/>
      <use xlink:href="#DejaVuSans-55" transform="translate(265.527344 0)"/>
      <use xlink:href="#DejaVuSans-73" transform="translate(338.720703 0)"/>
      <use xlink:href="#DejaVuSans-65" transform="translate(390.820312 0)"/>
     </g>
    </g>
    <g id="patch_40">
     <path d="M 57.352812 1239.880313 
L 133.352812 1239.880313 
L 133.352812 1213.280313 
L 57.352812 1213.280313 
z
" style="fill: #708090; stroke: #ffffff; stroke-width: 2; stroke-linejoin: miter"/>
    </g>
    <g id="text_20">
     <!-- Coordination -->
     <g transform="translate(163.752813 1239.880313) scale(0.38 -0.38)">
      <defs>
       <path id="DejaVuSans-64" d="M 2906 2969 
L 2906 4863 
L 3481 4863 
L 3481 0 
L 2906 0 
L 2906 525 
Q 2725 213 2448 61 
Q 2172 -91 1784 -91 
Q 1150 -91 751 415 
Q 353 922 353 1747 
Q 353 2572 751 3078 
Q 1150 3584 1784 3584 
Q 2172 3584 2448 3432 
Q 2725 3281 2906 2969 
z
M 947 1747 
Q 947 1113 1208 752 
Q 1469 391 1925 391 
Q 2381 391 2643 752 
Q 2906 1113 2906 1747 
Q 2906 2381 2643 2742 
Q 2381 3103 1925 3103 
Q 1469 3103 1208 2742 
Q 947 2381 947 1747 
z
" transform="scale(0.015625)"/>
      </defs>
      <use xlink:href="#DejaVuSans-43"/>
      <use xlink:href="#DejaVuSans-6f" transform="translate(69.824219 0)"/>
      <use xlink:href="#DejaVuSans-6f" transform="translate(131.005859 0)"/>
      <use xlink:href="#DejaVuSans-72" transform="translate(192.1875 0)"/>
      <use xlink:href="#DejaVuSans-64" transform="translate(231.550781 0)"/>
      <use xlink:href="#DejaVuSans-69" transform="translate(295.027344 0)"/>
      <use xlink:href="#DejaVuSans-6e" transform="translate(322.810547 0)"/>
      <use xlink:href="#DejaVuSans-61" transform="translate(386.189453 0)"/>
      <use xlink:href="#DejaVuSans-74" transform="translate(447.46875 0)"/>
      <use xlink:href="#DejaVuSans-69" transform="translate(486.677734 0)"/>
      <use xlink:href="#DejaVuSans-6f" transform="translate(514.460938 0)"/>
      <use xlink:href="#DejaVuSans-6e" transform="translate(575.642578 0)"/>
     </g>
    </g>
    <g id="patch_41">
     <path d="M 57.352812 1295.657188 
L 133.352812 1295.657188 
L 133.352812 1269.057188 
L 57.352812 1269.057188 
z
" style="fill: #2f4f4f; stroke: #ffffff; stroke-width: 2; stroke-linejoin: miter"/>
    </g>
    <g id="text_21">
     <!-- SOE -->
     <g transform="translate(163.752813 1295.657188) scale(0.38 -0.38)">
      <defs>
       <path id="DejaVuSans-53" d="M 3425 4513 
L 3425 3897 
Q 3066 4069 2747 4153 
Q 2428 4238 2131 4238 
Q 1616 4238 1336 4038 
Q 1056 3838 1056 3469 
Q 1056 3159 1242 3001 
Q 1428 2844 1947 2747 
L 2328 2669 
Q 3034 2534 3370 2195 
Q 3706 1856 3706 1288 
Q 3706 609 3251 259 
Q 2797 -91 1919 -91 
Q 1588 -91 1214 -16 
Q 841 59 441 206 
L 441 856 
Q 825 641 1194 531 
Q 1563 422 1919 422 
Q 2459 422 2753 634 
Q 3047 847 3047 1241 
Q 3047 1584 2836 1778 
Q 2625 1972 2144 2069 
L 1759 2144 
Q 1053 2284 737 2584 
Q 422 2884 422 3419 
Q 422 4038 858 4394 
Q 1294 4750 2059 4750 
Q 2388 4750 2728 4690 
Q 3069 4631 3425 4513 
z
" transform="scale(0.015625)"/>
       <path id="DejaVuSans-45" d="M 628 4666 
L 3578 4666 
L 3578 4134 
L 1259 4134 
L 1259 2753 
L 3481 2753 
L 3481 2222 
L 1259 2222 
L 1259 531 
L 3634 531 
L 3634 0 
L 628 0 
L 628 4666 
z
" transform="scale(0.015625)"/>
      </defs>
      <use xlink:href="#DejaVuSans-53"/>
      <use xlink:href="#DejaVuSans-4f" transform="translate(63.476562 0)"/>
      <use xlink:href="#DejaVuSans-45" transform="translate(142.1875 0)"/>
     </g>
    </g>
   </g>
   <g id="legend_2">
    <g id="patch_42">
     <path d="M 33.8 1318.76 
L 430.1375 1318.76 
Q 437.7375 1318.76 437.7375 1311.16 
L 437.7375 922.58625 
Q 437.7375 914.98625 430.1375 914.98625 
L 33.8 914.98625 
Q 26.2 914.98625 26.2 922.58625 
L 26.2 1311.16 
Q 26.2 1318.76 33.8 1318.76 
z
" style="fill: #ffffff; opacity: 0.95; stroke: #2c3e50; stroke-linejoin: miter"/>
    </g>
    <g id="text_22">
     <!-- Organization Types -->
     <g transform="translate(41.4 960.58) scale(0.4 -0.4)">
      <use xlink:href="#DejaVuSans-4f"/>
      <use xlink:href="#DejaVuSans-72" transform="translate(78.710938 0)"/>
      <use xlink:href="#DejaVuSans-67" transform="translate(118.074219 0)"/>
      <use xlink:href="#DejaVuSans-61" transform="translate(181.550781 0)"/>
      <use xlink:href="#DejaVuSans-6e" transform="translate(242.830078 0)"/>
      <use xlink:href="#DejaVuSans-69" transform="translate(306.208984 0)"/>
      <use xlink:href="#DejaVuSans-7a" transform="translate(333.992188 0)"/>
      <use xlink:href="#DejaVuSans-61" transform="translate(386.482422 0)"/>
      <use xlink:href="#DejaVuSans-74" transform="translate(447.761719 0)"/>
      <use xlink:href="#DejaVuSans-69" transform="translate(486.970703 0)"/>
      <use xlink:href="#DejaVuSans-6f" transform="translate(514.753906 0)"/>
      <use xlink:href="#DejaVuSans-6e" transform="translate(575.935547 0)"/>
      <use xlink:href="#DejaVuSans-20" transform="translate(639.314453 0)"/>
      <use xlink:href="#DejaVuSans-54" transform="translate(671.101562 0)"/>
      <use xlink:href="#DejaVuSans-79" transform="translate(716.560547 0)"/>
      <use xlink:href="#DejaVuSans-70" transform="translate(775.740234 0)"/>
      <use xlink:href="#DejaVuSans-65" transform="translate(839.216797 0)"/>
      <use xlink:href="#DejaVuSans-73" transform="translate(900.740234 0)"/>
     </g>
    </g>
    <g id="patch_43">
     <path d="M 57.352812 1016.772813 
L 133.352812 1016.772813 
L 133.352812 990.172813 
L 57.352812 990.172813 
z
" style="fill: #8b0000; stroke: #ffffff; stroke-width: 2; stroke-linejoin: miter"/>
    </g>
    <g id="text_23">
     <!-- Party -->
     <g transform="translate(163.752813 1016.772813) scale(0.38 -0.38)">
      <use xlink:href="#DejaVuSans-50"/>
      <use xlink:href="#DejaVuSans-61" transform="translate(55.802734 0)"/>
      <use xlink:href="#DejaVuSans-72" transform="translate(117.082031 0)"/>
      <use xlink:href="#DejaVuSans-74" transform="translate(158.195312 0)"/>
      <use xlink:href="#DejaVuSans-79" transform="translate(197.404297 0)"/>
     </g>
    </g>
    <g id="patch_44">
     <path d="M 57.352812 1072.549688 
L 133.352812 1072.549688 
L 133.352812 1045.949688 
L 57.352812 1045.949688 
z
" style="fill: #1e3a5f; stroke: #ffffff; stroke-width: 2; stroke-linejoin: miter"/>
    </g>
    <g id="text_24">
     <!-- Military -->
     <g transform="translate(163.752813 1072.549688) scale(0.38 -0.38)">
      <use xlink:href="#DejaVuSans-4d"/>
      <use xlink:href="#DejaVuSans-69" transform="translate(86.279297 0)"/>
      <use xlink:href="#DejaVuSans-6c" transform="translate(114.0625 0)"/>
      <use xlink:href="#DejaVuSans-69" transform="translate(141.845703 0)"/>
      <use xlink:href="#DejaVuSans-74" transform="translate(169.628906 0)"/>
      <use xlink:href="#DejaVuSans-61" transform="translate(208.837891 0)"/>
      <use xlink:href="#DejaVuSans-72" transform="translate(270.117188 0)"/>
      <use xlink:href="#DejaVuSans-79" transform="translate(311.230469 0)"/>
     </g>
    </g>
    <g id="patch_45">
     <path d="M 57.352812 1128.326563 
L 133.352812 1128.326563 
L 133.352812 1101.726563 
L 57.352812 1101.726563 
z
" style="fill: #4682b4; stroke: #ffffff; stroke-width: 2; stroke-linejoin: miter"/>
    </g>
    <g id="text_25">
     <!-- Civilian -->
     <g transform="translate(163.752813 1128.326563) scale(0.38 -0.38)">
      <use xlink:href="#DejaVuSans-43"/>
      <use xlink:href="#DejaVuSans-69" transform="translate(69.824219 0)"/>
      <use xlink:href="#DejaVuSans-76" transform="translate(97.607422 0)"/>
      <use xlink:href="#DejaVuSans-69" transform="translate(156.787109 0)"/>
      <use xlink:href="#DejaVuSans-6c" transform="translate(184.570312 0)"/>
      <use xlink:href="#DejaVuSans-69" transform="translate(212.353516 0)"/>
      <use xlink:href="#DejaVuSans-61" transform="translate(240.136719 0)"/>
      <use xlink:href="#DejaVuSans-6e" transform="translate(301.416016 0)"/>
     </g>
    </g>
    <g id="patch_46">
     <path d="M 57.352812 1184.103438 
L 133.352812 1184.103438 
L 133.352812 1157.503438 
L 57.352812 1157.503438 
z
" style="fill: #6b46c1; stroke: #ffffff; stroke-width: 2; stroke-linejoin: miter"/>
    </g>
    <g id="text_26">
     <!-- Dual-Use -->
     <g transform="translate(163.752813 1184.103438) scale(0.38 -0.38)">
      <use xlink:href="#DejaVuSans-44"/>
      <use xlink:href="#DejaVuSans-75" transform="translate(77.001953 0)"/>
      <use xlink:href="#DejaVuSans-61" transform="translate(140.380859 0)"/>
      <use xlink:href="#DejaVuSans-6c" transform="translate(201.660156 0)"/>
      <use xlink:href="#DejaVuSans-2d" transform="translate(229.443359 0)"/>
      <use xlink:href="#DejaVuSans-55" transform="translate(265.527344 0)"/>
      <use xlink:href="#DejaVuSans-73" transform="translate(338.720703 0)"/>
      <use xlink:href="#DejaVuSans-65" transform="translate(390.820312 0)"/>
     </g>
    </g>
    <g id="patch_47">
     <path d="M 57.352812 1239.880313 
L 133.352812 1239.880313 
L 133.352812 1213.280313 
L 57.352812 1213.280313 
z
" style="fill: #708090; stroke: #ffffff; stroke-width: 2; stroke-linejoin: miter"/>
    </g>
    <g id="text_27">
     <!-- Coordination -->
     <g transform="translate(163.752813 1239.880313) scale(0.38 -0.38)">
      <use xlink:href="#DejaVuSans-43"/>
      <use xlink:href="#DejaVuSans-6f" transform="translate(69.824219 0)"/>
      <use xlink:href="#DejaVuSans-6f" transform="translate(131.005859 0)"/>
      <use xlink:href="#DejaVuSans-72" transform="translate(192.1875 0)"/>
      <use xlink:href="#DejaVuSans-64" transform="translate(231.550781 0)"/>
      <use xlink:href="#DejaVuSans-69" transform="translate(295.027344 0)"/>
      <use xlink:href="#DejaVuSans-6e" transform="translate(322.810547 0)"/>
      <use xlink:href="#DejaVuSans-61" transform="translate(386.189453 0)"/>
      <use xlink:href="#DejaVuSans-74" transform="translate(447.46875 0)"/>
      <use xlink:href="#DejaVuSans-69" transform="translate(486.677734 0)"/>
      <use xlink:href="#DejaVuSans-6f" transform="translate(514.460938 0)"/>
      <use xlink:href="#DejaVuSans-6e" transform="translate(575.642578 0)"/>
     </g>
    </g>
    <g id="patch_48">
     <path d="M 57.352812 1295.657188 
L 133.352812 1295.657188 
L 133.352812 1269.057188 
L 57.352812 1269.057188 
z
" style="fill: #2f4f4f; stroke: #ffffff; stroke-width: 2; stroke-linejoin: miter"/>
    </g>
    <g id="text_28">
     <!-- SOE -->
     <g transform="translate(163.752813 1295.657188) scale(0.38 -0.38)">
      <use xlink:href="#DejaVuSans-53"/>
      <use xlink:href="#DejaVuSans-4f" transform="translate(63.476562 0)"/>
      <use xlink:href="#DejaVuSans-45" transform="translate(142.1875 0)"/>
     </g>
    </g>
   </g>
  </g>
 </g>
 <defs>
  <clipPath id="p78c8870b18">
   <rect x="7.2" y="7.2" width="1785.6" height="1330.56"/>
  </clipPath>
 </defs>
</svg>
