<?xml version="1.0" encoding="UTF-8" standalone="no"?>
<!DOCTYPE svg PUBLIC "-//W3C//DTD SVG 1.1//EN"
 "http://www.w3.org/Graphics/SVG/1.1/DTD/svg11.dtd">
<!-- Generated by graphviz version 14.0.2 (20251019.1705)
 -->
<!-- Title: MCF_Hierarchical Pages: 1 -->
<svg width="2725pt" height="680pt"
 viewBox="0.00 0.00 2725.00 680.00" xmlns="http://www.w3.org/2000/svg" xmlns:xlink="http://www.w3.org/1999/xlink">
<g id="graph0" class="graph" transform="scale(1 1) rotate(0) translate(4 675.5)">
<title>MCF_Hierarchical</title>
<polygon fill="#f8f9fa" stroke="none" points="-4,4 -4,-675.5 2720.62,-675.5 2720.62,4 -4,4"/>
<!-- Xi Jinping -->
<g id="node1" class="node">
<title>Xi Jinping</title>
<path fill="#8b0000" stroke="black" stroke-width="2" d="M1425.38,-671.5C1425.38,-671.5 1303.62,-671.5 1303.62,-671.5 1297.62,-671.5 1291.62,-665.5 1291.62,-659.5 1291.62,-659.5 1291.62,-641 1291.62,-641 1291.62,-635 1297.62,-629 1303.62,-629 1303.62,-629 1425.38,-629 1425.38,-629 1431.38,-629 1437.38,-635 1437.38,-641 1437.38,-641 1437.38,-659.5 1437.38,-659.5 1437.38,-665.5 1431.38,-671.5 1425.38,-671.5"/>
<text xml:space="preserve" text-anchor="middle" x="1364.5" y="-639" font-family="Arial" font-size="30.00" fill="white">Xi Jinping</text>
</g>
<!-- Central MCF Commission -->
<g id="node2" class="node">
<title>Central MCF Commission</title>
<path fill="#708090" stroke="black" stroke-width="2" d="M1444.88,-543C1444.88,-543 1284.12,-543 1284.12,-543 1278.12,-543 1272.12,-537 1272.12,-531 1272.12,-531 1272.12,-512.5 1272.12,-512.5 1272.12,-506.5 1278.12,-500.5 1284.12,-500.5 1284.12,-500.5 1444.88,-500.5 1444.88,-500.5 1450.88,-500.5 1456.88,-506.5 1456.88,-512.5 1456.88,-512.5 1456.88,-531 1456.88,-531 1456.88,-537 1450.88,-543 1444.88,-543"/>
<text xml:space="preserve" text-anchor="middle" x="1364.5" y="-510.5" font-family="Arial" font-size="30.00" fill="white">Central MCF</text>
</g>
<!-- Xi Jinping&#45;&gt;Central MCF Commission -->
<g id="edge1" class="edge">
<title>Xi Jinping&#45;&gt;Central MCF Commission</title>
<path fill="none" stroke="#000000" stroke-width="2.5" d="M1364.5,-628.64C1364.5,-609.26 1364.5,-579.86 1364.5,-556.96"/>
<polygon fill="#000000" stroke="#000000" stroke-width="2.5" points="1368,-557.13 1364.5,-547.13 1361,-557.13 1368,-557.13"/>
</g>
<!-- CCP Central Committee -->
<g id="node3" class="node">
<title>CCP Central Committee</title>
<path fill="#8b0000" stroke="black" stroke-width="2" d="M2266.25,-543C2266.25,-543 1954.75,-543 1954.75,-543 1948.75,-543 1942.75,-537 1942.75,-531 1942.75,-531 1942.75,-512.5 1942.75,-512.5 1942.75,-506.5 1948.75,-500.5 1954.75,-500.5 1954.75,-500.5 2266.25,-500.5 2266.25,-500.5 2272.25,-500.5 2278.25,-506.5 2278.25,-512.5 2278.25,-512.5 2278.25,-531 2278.25,-531 2278.25,-537 2272.25,-543 2266.25,-543"/>
<text xml:space="preserve" text-anchor="middle" x="2110.5" y="-510.5" font-family="Arial" font-size="30.00" fill="white">CCP Central Committee</text>
</g>
<!-- Xi Jinping&#45;&gt;CCP Central Committee -->
<g id="edge2" class="edge">
<title>Xi Jinping&#45;&gt;CCP Central Committee</title>
<path fill="none" stroke="#000000" stroke-width="2.5" d="M1437.71,-634.42C1447.38,-632.55 1457.17,-630.69 1466.5,-629 1636.81,-598.05 1833.16,-566.21 1963.85,-545.56"/>
<polygon fill="#000000" stroke="#000000" stroke-width="2.5" points="1964.01,-549.07 1973.34,-544.06 1962.91,-542.16 1964.01,-549.07"/>
</g>
<!-- Central Military Commission -->
<g id="node4" class="node">
<title>Central Military Commission</title>
<path fill="#1e3a5f" stroke="black" stroke-width="2" d="M881.88,-414.5C881.88,-414.5 691.12,-414.5 691.12,-414.5 685.12,-414.5 679.12,-408.5 679.12,-402.5 679.12,-402.5 679.12,-384 679.12,-384 679.12,-378 685.12,-372 691.12,-372 691.12,-372 881.88,-372 881.88,-372 887.88,-372 893.88,-378 893.88,-384 893.88,-384 893.88,-402.5 893.88,-402.5 893.88,-408.5 887.88,-414.5 881.88,-414.5"/>
<text xml:space="preserve" text-anchor="middle" x="786.5" y="-382" font-family="Arial" font-size="30.00" fill="white">Central Military</text>
</g>
<!-- Xi Jinping&#45;&gt;Central Military Commission -->
<g id="edge3" class="edge">
<title>Xi Jinping&#45;&gt;Central Military Commission</title>
<path fill="none" stroke="#000000" stroke-width="2.5" d="M1317.69,-628.6C1213.17,-582.48 960.94,-471.21 845.71,-420.37"/>
<polygon fill="#000000" stroke="#000000" stroke-width="2.5" points="847.37,-417.28 836.81,-416.44 844.54,-423.68 847.37,-417.28"/>
</g>
<!-- Central MCF Commission&#45;&gt;Central Military Commission -->
<g id="edge5" class="edge">
<title>Central MCF Commission&#45;&gt;Central Military Commission</title>
<path fill="none" stroke="#6b46c1" stroke-width="2" stroke-dasharray="5,2" d="M1271.63,-500.43C1168.5,-477.85 1002.25,-441.47 893.67,-417.71"/>
<polygon fill="#6b46c1" stroke="#6b46c1" stroke-width="2" points="894.53,-414.31 884.01,-415.59 893.03,-421.15 894.53,-414.31"/>
</g>
<!-- State Council -->
<g id="node11" class="node">
<title>State Council</title>
<path fill="#4682b4" stroke="black" stroke-width="2" d="M1563.38,-414.5C1563.38,-414.5 1393.62,-414.5 1393.62,-414.5 1387.62,-414.5 1381.62,-408.5 1381.62,-402.5 1381.62,-402.5 1381.62,-384 1381.62,-384 1381.62,-378 1387.62,-372 1393.62,-372 1393.62,-372 1563.38,-372 1563.38,-372 1569.38,-372 1575.38,-378 1575.38,-384 1575.38,-384 1575.38,-402.5 1575.38,-402.5 1575.38,-408.5 1569.38,-414.5 1563.38,-414.5"/>
<text xml:space="preserve" text-anchor="middle" x="1478.5" y="-382" font-family="Arial" font-size="30.00" fill="white">State Council</text>
</g>
<!-- Central MCF Commission&#45;&gt;State Council -->
<g id="edge4" class="edge">
<title>Central MCF Commission&#45;&gt;State Council</title>
<path fill="none" stroke="#6b46c1" stroke-width="2" stroke-dasharray="5,2" d="M1383.07,-500.14C1401.62,-479.56 1430.33,-447.7 1451.42,-424.3"/>
<polygon fill="#6b46c1" stroke="#6b46c1" stroke-width="2" points="1453.82,-426.87 1457.91,-417.1 1448.62,-422.18 1453.82,-426.87"/>
</g>
<!-- MSS -->
<g id="node16" class="node">
<title>MSS</title>
<path fill="#6b46c1" stroke="black" d="M1791.62,-412.25C1791.62,-412.25 1743.38,-412.25 1743.38,-412.25 1737.38,-412.25 1731.38,-406.25 1731.38,-400.25 1731.38,-400.25 1731.38,-386.25 1731.38,-386.25 1731.38,-380.25 1737.38,-374.25 1743.38,-374.25 1743.38,-374.25 1791.62,-374.25 1791.62,-374.25 1797.62,-374.25 1803.62,-380.25 1803.62,-386.25 1803.62,-386.25 1803.62,-400.25 1803.62,-400.25 1803.62,-406.25 1797.62,-412.25 1791.62,-412.25"/>
<text xml:space="preserve" text-anchor="middle" x="1767.5" y="-383.55" font-family="Arial" font-size="26.00">MSS</text>
</g>
<!-- Central MCF Commission&#45;&gt;MSS -->
<g id="edge7" class="edge">
<title>Central MCF Commission&#45;&gt;MSS</title>
<path fill="none" stroke="#6b46c1" stroke-width="2" stroke-dasharray="5,2" d="M1430.6,-500C1511.49,-474.61 1646.56,-432.21 1718.66,-409.58"/>
<polygon fill="#6b46c1" stroke="#6b46c1" stroke-width="2" points="1719.56,-412.97 1728.05,-406.63 1717.46,-406.29 1719.56,-412.97"/>
</g>
<!-- SASTIND -->
<g id="node17" class="node">
<title>SASTIND</title>
<path fill="#6b46c1" stroke="black" d="M1282.75,-286C1282.75,-286 1178.25,-286 1178.25,-286 1172.25,-286 1166.25,-280 1166.25,-274 1166.25,-274 1166.25,-260 1166.25,-260 1166.25,-254 1172.25,-248 1178.25,-248 1178.25,-248 1282.75,-248 1282.75,-248 1288.75,-248 1294.75,-254 1294.75,-260 1294.75,-260 1294.75,-274 1294.75,-274 1294.75,-280 1288.75,-286 1282.75,-286"/>
<text xml:space="preserve" text-anchor="middle" x="1230.5" y="-257.3" font-family="Arial" font-size="26.00">SASTIND</text>
</g>
<!-- Central MCF Commission&#45;&gt;SASTIND -->
<g id="edge6" class="edge">
<title>Central MCF Commission&#45;&gt;SASTIND</title>
<path fill="none" stroke="#6b46c1" stroke-width="2" stroke-dasharray="5,2" d="M1353.53,-500.07C1329.81,-455.32 1273.64,-349.37 1246.17,-297.56"/>
<polygon fill="#6b46c1" stroke="#6b46c1" stroke-width="2" points="1249.35,-296.08 1241.57,-288.88 1243.16,-299.35 1249.35,-296.08"/>
</g>
<!-- Organization Department -->
<g id="node18" class="node">
<title>Organization Department</title>
<path fill="#8b0000" stroke="black" d="M2180,-412.25C2180,-412.25 2041,-412.25 2041,-412.25 2035,-412.25 2029,-406.25 2029,-400.25 2029,-400.25 2029,-386.25 2029,-386.25 2029,-380.25 2035,-374.25 2041,-374.25 2041,-374.25 2180,-374.25 2180,-374.25 2186,-374.25 2192,-380.25 2192,-386.25 2192,-386.25 2192,-400.25 2192,-400.25 2192,-406.25 2186,-412.25 2180,-412.25"/>
<text xml:space="preserve" text-anchor="middle" x="2110.5" y="-383.55" font-family="Arial" font-size="26.00" fill="white">Organization</text>
</g>
<!-- CCP Central Committee&#45;&gt;Organization Department -->
<g id="edge8" class="edge">
<title>CCP Central Committee&#45;&gt;Organization Department</title>
<path fill="none" stroke="#000000" stroke-width="2.5" d="M2110.5,-500.14C2110.5,-480.06 2110.5,-449.25 2110.5,-426.03"/>
<polygon fill="#000000" stroke="#000000" stroke-width="2.5" points="2114,-426.17 2110.5,-416.17 2107,-426.17 2114,-426.17"/>
</g>
<!-- United Front Work -->
<g id="node19" class="node">
<title>United Front Work</title>
<path fill="#8b0000" stroke="black" d="M2070.88,-286C2070.88,-286 1868.12,-286 1868.12,-286 1862.12,-286 1856.12,-280 1856.12,-274 1856.12,-274 1856.12,-260 1856.12,-260 1856.12,-254 1862.12,-248 1868.12,-248 1868.12,-248 2070.88,-248 2070.88,-248 2076.88,-248 2082.88,-254 2082.88,-260 2082.88,-260 2082.88,-274 2082.88,-274 2082.88,-280 2076.88,-286 2070.88,-286"/>
<text xml:space="preserve" text-anchor="middle" x="1969.5" y="-257.3" font-family="Arial" font-size="26.00" fill="white">United Front Work</text>
</g>
<!-- CCP Central Committee&#45;&gt;United Front Work -->
<g id="edge9" class="edge">
<title>CCP Central Committee&#45;&gt;United Front Work</title>
<path fill="none" stroke="#000000" stroke-width="2.5" d="M2080.96,-500.25C2055.62,-481.05 2020.18,-450.04 2000.5,-414.5 1980.5,-378.37 1973.38,-330.68 1970.86,-299.68"/>
<polygon fill="#000000" stroke="#000000" stroke-width="2.5" points="1974.38,-299.84 1970.23,-290.09 1967.4,-300.3 1974.38,-299.84"/>
</g>
<!-- Propaganda Department -->
<g id="node20" class="node">
<title>Propaganda Department</title>
<path fill="#8b0000" stroke="black" d="M2394.62,-412.25C2394.62,-412.25 2262.38,-412.25 2262.38,-412.25 2256.38,-412.25 2250.38,-406.25 2250.38,-400.25 2250.38,-400.25 2250.38,-386.25 2250.38,-386.25 2250.38,-380.25 2256.38,-374.25 2262.38,-374.25 2262.38,-374.25 2394.62,-374.25 2394.62,-374.25 2400.62,-374.25 2406.62,-380.25 2406.62,-386.25 2406.62,-386.25 2406.62,-400.25 2406.62,-400.25 2406.62,-406.25 2400.62,-412.25 2394.62,-412.25"/>
<text xml:space="preserve" text-anchor="middle" x="2328.5" y="-383.55" font-family="Arial" font-size="26.00" fill="white">Propaganda</text>
</g>
<!-- CCP Central Committee&#45;&gt;Propaganda Department -->
<g id="edge10" class="edge">
<title>CCP Central Committee&#45;&gt;Propaganda Department</title>
<path fill="none" stroke="#000000" stroke-width="2.5" d="M2146.01,-500.14C2184.03,-478.08 2244.39,-443.06 2285.18,-419.39"/>
<polygon fill="#000000" stroke="#000000" stroke-width="2.5" points="2286.74,-422.53 2293.63,-414.48 2283.22,-416.48 2286.74,-422.53"/>
</g>
<!-- Discipline Inspection -->
<g id="node21" class="node">
<title>Discipline Inspection</title>
<path fill="#8b0000" stroke="black" d="M2704.62,-412.25C2704.62,-412.25 2476.38,-412.25 2476.38,-412.25 2470.38,-412.25 2464.38,-406.25 2464.38,-400.25 2464.38,-400.25 2464.38,-386.25 2464.38,-386.25 2464.38,-380.25 2470.38,-374.25 2476.38,-374.25 2476.38,-374.25 2704.62,-374.25 2704.62,-374.25 2710.62,-374.25 2716.62,-380.25 2716.62,-386.25 2716.62,-386.25 2716.62,-400.25 2716.62,-400.25 2716.62,-406.25 2710.62,-412.25 2704.62,-412.25"/>
<text xml:space="preserve" text-anchor="middle" x="2590.5" y="-383.55" font-family="Arial" font-size="26.00" fill="white">Discipline Inspection</text>
</g>
<!-- CCP Central Committee&#45;&gt;Discipline Inspection -->
<g id="edge11" class="edge">
<title>CCP Central Committee&#45;&gt;Discipline Inspection</title>
<path fill="none" stroke="#000000" stroke-width="2.5" d="M2189.22,-500C2276.85,-476.91 2417.84,-439.75 2507.25,-416.19"/>
<polygon fill="#000000" stroke="#000000" stroke-width="2.5" points="2507.89,-419.64 2516.67,-413.71 2506.11,-412.87 2507.89,-419.64"/>
</g>
<!-- CMC S&amp;T Commission -->
<g id="node5" class="node">
<title>CMC S&amp;T Commission</title>
<path fill="#1e3a5f" stroke="black" d="M425,-286C425,-286 316,-286 316,-286 310,-286 304,-280 304,-274 304,-274 304,-260 304,-260 304,-254 310,-248 316,-248 316,-248 425,-248 425,-248 431,-248 437,-254 437,-260 437,-260 437,-274 437,-274 437,-280 431,-286 425,-286"/>
<text xml:space="preserve" text-anchor="middle" x="370.5" y="-257.3" font-family="Arial" font-size="26.00" fill="white">CMC S&amp;T</text>
</g>
<!-- Central Military Commission&#45;&gt;CMC S&amp;T Commission -->
<g id="edge12" class="edge">
<title>Central Military Commission&#45;&gt;CMC S&amp;T Commission</title>
<path fill="none" stroke="#000000" stroke-width="2.5" d="M717.34,-371.59C642.21,-349.15 522.6,-313.43 445.32,-290.35"/>
<polygon fill="#000000" stroke="#000000" stroke-width="2.5" points="446.56,-287.06 435.98,-287.56 444.56,-293.77 446.56,-287.06"/>
</g>
<!-- CMC Equipment Development -->
<g id="node6" class="node">
<title>CMC Equipment Development</title>
<path fill="#1e3a5f" stroke="black" d="M894.62,-162C894.62,-162 552.38,-162 552.38,-162 546.38,-162 540.38,-156 540.38,-150 540.38,-150 540.38,-136 540.38,-136 540.38,-130 546.38,-124 552.38,-124 552.38,-124 894.62,-124 894.62,-124 900.62,-124 906.62,-130 906.62,-136 906.62,-136 906.62,-150 906.62,-150 906.62,-156 900.62,-162 894.62,-162"/>
<text xml:space="preserve" text-anchor="middle" x="723.5" y="-133.3" font-family="Arial" font-size="26.00" fill="white">CMC Equipment Development</text>
</g>
<!-- Central Military Commission&#45;&gt;CMC Equipment Development -->
<g id="edge13" class="edge">
<title>Central Military Commission&#45;&gt;CMC Equipment Development</title>
<path fill="none" stroke="#000000" stroke-width="2.5" d="M704.65,-371.5C660.83,-355.77 610.62,-329.25 584.5,-286 555.75,-238.39 618.33,-194.44 668.61,-168.41"/>
<polygon fill="#000000" stroke="#000000" stroke-width="2.5" points="669.98,-171.64 677.36,-164.04 666.85,-165.38 669.98,-171.64"/>
</g>
<!-- PLA Strategic Support Force -->
<g id="node7" class="node">
<title>PLA Strategic Support Force</title>
<path fill="#1e3a5f" stroke="black" d="M947.12,-286C947.12,-286 625.88,-286 625.88,-286 619.88,-286 613.88,-280 613.88,-274 613.88,-274 613.88,-260 613.88,-260 613.88,-254 619.88,-248 625.88,-248 625.88,-248 947.12,-248 947.12,-248 953.12,-248 959.12,-254 959.12,-260 959.12,-260 959.12,-274 959.12,-274 959.12,-280 953.12,-286 947.12,-286"/>
<text xml:space="preserve" text-anchor="middle" x="786.5" y="-257.3" font-family="Arial" font-size="26.00" fill="white">PLA Strategic Support Force</text>
</g>
<!-- Central Military Commission&#45;&gt;PLA Strategic Support Force -->
<g id="edge14" class="edge">
<title>Central Military Commission&#45;&gt;PLA Strategic Support Force</title>
<path fill="none" stroke="#000000" stroke-width="2.5" d="M786.5,-371.73C786.5,-352.17 786.5,-322.42 786.5,-299.79"/>
<polygon fill="#000000" stroke="#000000" stroke-width="2.5" points="790,-299.9 786.5,-289.9 783,-299.9 790,-299.9"/>
</g>
<!-- Academy of Military Sciences -->
<g id="node9" class="node">
<title>Academy of Military Sciences</title>
<path fill="#1e3a5f" stroke="black" d="M343,-162C343,-162 12,-162 12,-162 6,-162 0,-156 0,-150 0,-150 0,-136 0,-136 0,-130 6,-124 12,-124 12,-124 343,-124 343,-124 349,-124 355,-130 355,-136 355,-136 355,-150 355,-150 355,-156 349,-162 343,-162"/>
<text xml:space="preserve" text-anchor="middle" x="177.5" y="-133.3" font-family="Arial" font-size="26.00" fill="white">Academy of Military Sciences</text>
</g>
<!-- CMC S&amp;T Commission&#45;&gt;Academy of Military Sciences -->
<g id="edge15" class="edge">
<title>CMC S&amp;T Commission&#45;&gt;Academy of Military Sciences</title>
<path fill="none" stroke="#cccccc" stroke-dasharray="1,5" d="M341.61,-247.74C308.21,-226.62 253.09,-191.78 216.06,-168.37"/>
<polygon fill="#cccccc" stroke="#cccccc" points="218.19,-165.58 207.87,-163.2 214.45,-171.5 218.19,-165.58"/>
</g>
<!-- CAS -->
<g id="node23" class="node">
<title>CAS</title>
<path fill="#6b46c1" stroke="black" d="M1022.12,-162C1022.12,-162 976.88,-162 976.88,-162 970.88,-162 964.88,-156 964.88,-150 964.88,-150 964.88,-136 964.88,-136 964.88,-130 970.88,-124 976.88,-124 976.88,-124 1022.12,-124 1022.12,-124 1028.12,-124 1034.12,-130 1034.12,-136 1034.12,-136 1034.12,-150 1034.12,-150 1034.12,-156 1028.12,-162 1022.12,-162"/>
<text xml:space="preserve" text-anchor="middle" x="999.5" y="-133.3" font-family="Arial" font-size="26.00">CAS</text>
</g>
<!-- CMC S&amp;T Commission&#45;&gt;CAS -->
<g id="edge16" class="edge">
<title>CMC S&amp;T Commission&#45;&gt;CAS</title>
<path fill="none" stroke="#cccccc" stroke-dasharray="1,5" d="M437.45,-255.73C543.65,-238.97 756.98,-203.44 935.5,-162 941.4,-160.63 947.58,-159.06 953.66,-157.44"/>
<polygon fill="#cccccc" stroke="#cccccc" points="954.26,-160.91 962.98,-154.89 952.41,-154.16 954.26,-160.91"/>
</g>
<!-- CAE -->
<g id="node24" class="node">
<title>CAE</title>
<path fill="#6b46c1" stroke="black" d="M470.12,-162C470.12,-162 424.88,-162 424.88,-162 418.88,-162 412.88,-156 412.88,-150 412.88,-150 412.88,-136 412.88,-136 412.88,-130 418.88,-124 424.88,-124 424.88,-124 470.12,-124 470.12,-124 476.12,-124 482.12,-130 482.12,-136 482.12,-136 482.12,-150 482.12,-150 482.12,-156 476.12,-162 470.12,-162"/>
<text xml:space="preserve" text-anchor="middle" x="447.5" y="-133.3" font-family="Arial" font-size="26.00">CAE</text>
</g>
<!-- CMC S&amp;T Commission&#45;&gt;CAE -->
<g id="edge17" class="edge">
<title>CMC S&amp;T Commission&#45;&gt;CAE</title>
<path fill="none" stroke="#cccccc" stroke-dasharray="1,5" d="M382.03,-247.74C394.67,-227.7 415.12,-195.31 429.8,-172.05"/>
<polygon fill="#cccccc" stroke="#cccccc" points="432.71,-173.99 435.09,-163.67 426.79,-170.26 432.71,-173.99"/>
</g>
<!-- PLA Joint Logistics -->
<g id="node8" class="node">
<title>PLA Joint Logistics</title>
<path fill="#1e3a5f" stroke="black" d="M523.25,-38C523.25,-38 313.75,-38 313.75,-38 307.75,-38 301.75,-32 301.75,-26 301.75,-26 301.75,-12 301.75,-12 301.75,-6 307.75,0 313.75,0 313.75,0 523.25,0 523.25,0 529.25,0 535.25,-6 535.25,-12 535.25,-12 535.25,-26 535.25,-26 535.25,-32 529.25,-38 523.25,-38"/>
<text xml:space="preserve" text-anchor="middle" x="418.5" y="-9.3" font-family="Arial" font-size="26.00" fill="white">PLA Joint Logistics</text>
</g>
<!-- CMC Equipment Development&#45;&gt;PLA Joint Logistics -->
<g id="edge18" class="edge">
<title>CMC Equipment Development&#45;&gt;PLA Joint Logistics</title>
<path fill="none" stroke="#000000" stroke-width="2.5" d="M677.51,-123.6C623.98,-102.19 535.47,-66.79 477.07,-43.43"/>
<polygon fill="#000000" stroke="#000000" stroke-width="2.5" points="478.46,-40.22 467.88,-39.75 475.86,-46.72 478.46,-40.22"/>
</g>
<!-- AVIC -->
<g id="node27" class="node">
<title>AVIC</title>
<path fill="#2f4f4f" stroke="black" d="M1086.12,-38C1086.12,-38 1034.88,-38 1034.88,-38 1028.88,-38 1022.88,-32 1022.88,-26 1022.88,-26 1022.88,-12 1022.88,-12 1022.88,-6 1028.88,0 1034.88,0 1034.88,0 1086.12,0 1086.12,0 1092.12,0 1098.12,-6 1098.12,-12 1098.12,-12 1098.12,-26 1098.12,-26 1098.12,-32 1092.12,-38 1086.12,-38"/>
<text xml:space="preserve" text-anchor="middle" x="1060.5" y="-9.3" font-family="Arial" font-size="26.00">AVIC</text>
</g>
<!-- CMC Equipment Development&#45;&gt;AVIC -->
<g id="edge19" class="edge">
<title>CMC Equipment Development&#45;&gt;AVIC</title>
<path fill="none" stroke="#ff8c00" stroke-width="1.5" d="M774.32,-123.6C838.54,-100.35 948.31,-60.61 1011.61,-37.7"/>
<polygon fill="#ff8c00" stroke="#ff8c00" stroke-width="1.5" points="1012.52,-41.09 1020.73,-34.4 1010.13,-34.51 1012.52,-41.09"/>
</g>
<!-- NORINCO -->
<g id="node28" class="node">
<title>NORINCO</title>
<path fill="#2f4f4f" stroke="black" d="M720,-38C720,-38 605,-38 605,-38 599,-38 593,-32 593,-26 593,-26 593,-12 593,-12 593,-6 599,0 605,0 605,0 720,0 720,0 726,0 732,-6 732,-12 732,-12 732,-26 732,-26 732,-32 726,-38 720,-38"/>
<text xml:space="preserve" text-anchor="middle" x="662.5" y="-9.3" font-family="Arial" font-size="26.00">NORINCO</text>
</g>
<!-- CMC Equipment Development&#45;&gt;NORINCO -->
<g id="edge20" class="edge">
<title>CMC Equipment Development&#45;&gt;NORINCO</title>
<path fill="none" stroke="#ff8c00" stroke-width="1.5" d="M714.37,-123.74C704.53,-104.06 688.73,-72.46 677.15,-49.31"/>
<polygon fill="#ff8c00" stroke="#ff8c00" stroke-width="1.5" points="680.31,-47.8 672.71,-40.42 674.05,-50.93 680.31,-47.8"/>
</g>
<!-- CASC/CASIC -->
<g id="node29" class="node">
<title>CASC/CASIC</title>
<path fill="#2f4f4f" stroke="black" d="M953,-38C953,-38 802,-38 802,-38 796,-38 790,-32 790,-26 790,-26 790,-12 790,-12 790,-6 796,0 802,0 802,0 953,0 953,0 959,0 965,-6 965,-12 965,-12 965,-26 965,-26 965,-32 959,-38 953,-38"/>
<text xml:space="preserve" text-anchor="middle" x="877.5" y="-9.3" font-family="Arial" font-size="26.00">CASC/CASIC</text>
</g>
<!-- CMC Equipment Development&#45;&gt;CASC/CASIC -->
<g id="edge21" class="edge">
<title>CMC Equipment Development&#45;&gt;CASC/CASIC</title>
<path fill="none" stroke="#ff8c00" stroke-width="1.5" d="M746.56,-123.74C772.64,-103.07 815.32,-69.26 844.83,-45.88"/>
<polygon fill="#ff8c00" stroke="#ff8c00" stroke-width="1.5" points="846.84,-48.75 852.51,-39.8 842.5,-43.27 846.84,-48.75"/>
</g>
<!-- National Defense University -->
<g id="node10" class="node">
<title>National Defense University</title>
<path fill="#1e3a5f" stroke="black" d="M1819.62,-669.25C1819.62,-669.25 1507.38,-669.25 1507.38,-669.25 1501.38,-669.25 1495.38,-663.25 1495.38,-657.25 1495.38,-657.25 1495.38,-643.25 1495.38,-643.25 1495.38,-637.25 1501.38,-631.25 1507.38,-631.25 1507.38,-631.25 1819.62,-631.25 1819.62,-631.25 1825.62,-631.25 1831.62,-637.25 1831.62,-643.25 1831.62,-643.25 1831.62,-657.25 1831.62,-657.25 1831.62,-663.25 1825.62,-669.25 1819.62,-669.25"/>
<text xml:space="preserve" text-anchor="middle" x="1663.5" y="-640.55" font-family="Arial" font-size="26.00" fill="white">National Defense University</text>
</g>
<!-- MOST -->
<g id="node12" class="node">
<title>MOST</title>
<path fill="#4682b4" stroke="black" d="M1096,-286C1096,-286 1029,-286 1029,-286 1023,-286 1017,-280 1017,-274 1017,-274 1017,-260 1017,-260 1017,-254 1023,-248 1029,-248 1029,-248 1096,-248 1096,-248 1102,-248 1108,-254 1108,-260 1108,-260 1108,-274 1108,-274 1108,-280 1102,-286 1096,-286"/>
<text xml:space="preserve" text-anchor="middle" x="1062.5" y="-257.3" font-family="Arial" font-size="26.00">MOST</text>
</g>
<!-- State Council&#45;&gt;MOST -->
<g id="edge22" class="edge">
<title>State Council&#45;&gt;MOST</title>
<path fill="none" stroke="#000000" stroke-width="2.5" d="M1409.34,-371.59C1328.81,-347.54 1197.17,-308.22 1121.34,-285.57"/>
<polygon fill="#000000" stroke="#000000" stroke-width="2.5" points="1122.52,-282.27 1111.93,-282.76 1120.51,-288.98 1122.52,-282.27"/>
</g>
<!-- MIIT -->
<g id="node13" class="node">
<title>MIIT</title>
<path fill="#4682b4" stroke="black" d="M1522.75,-162C1522.75,-162 1478.25,-162 1478.25,-162 1472.25,-162 1466.25,-156 1466.25,-150 1466.25,-150 1466.25,-136 1466.25,-136 1466.25,-130 1472.25,-124 1478.25,-124 1478.25,-124 1522.75,-124 1522.75,-124 1528.75,-124 1534.75,-130 1534.75,-136 1534.75,-136 1534.75,-150 1534.75,-150 1534.75,-156 1528.75,-162 1522.75,-162"/>
<text xml:space="preserve" text-anchor="middle" x="1500.5" y="-133.3" font-family="Arial" font-size="26.00">MIIT</text>
</g>
<!-- State Council&#45;&gt;MIIT -->
<g id="edge23" class="edge">
<title>State Council&#45;&gt;MIIT</title>
<path fill="none" stroke="#000000" stroke-width="2.5" d="M1480.34,-371.51C1484.18,-328.15 1493.09,-227.63 1497.67,-175.95"/>
<polygon fill="#000000" stroke="#000000" stroke-width="2.5" points="1501.13,-176.5 1498.53,-166.23 1494.16,-175.88 1501.13,-176.5"/>
</g>
<!-- MOE -->
<g id="node14" class="node">
<title>MOE</title>
<path fill="#4682b4" stroke="black" d="M1825.12,-162C1825.12,-162 1773.88,-162 1773.88,-162 1767.88,-162 1761.88,-156 1761.88,-150 1761.88,-150 1761.88,-136 1761.88,-136 1761.88,-130 1767.88,-124 1773.88,-124 1773.88,-124 1825.12,-124 1825.12,-124 1831.12,-124 1837.12,-130 1837.12,-136 1837.12,-136 1837.12,-150 1837.12,-150 1837.12,-156 1831.12,-162 1825.12,-162"/>
<text xml:space="preserve" text-anchor="middle" x="1799.5" y="-133.3" font-family="Arial" font-size="26.00">MOE</text>
</g>
<!-- State Council&#45;&gt;MOE -->
<g id="edge24" class="edge">
<title>State Council&#45;&gt;MOE</title>
<path fill="none" stroke="#000000" stroke-width="2.5" d="M1505.32,-371.51C1563.31,-326.66 1700.36,-220.67 1764.83,-170.81"/>
<polygon fill="#000000" stroke="#000000" stroke-width="2.5" points="1766.86,-173.66 1772.63,-164.78 1762.58,-168.13 1766.86,-173.66"/>
</g>
<!-- NDRC -->
<g id="node15" class="node">
<title>NDRC</title>
<path fill="#4682b4" stroke="black" d="M1786,-286C1786,-286 1719,-286 1719,-286 1713,-286 1707,-280 1707,-274 1707,-274 1707,-260 1707,-260 1707,-254 1713,-248 1719,-248 1719,-248 1786,-248 1786,-248 1792,-248 1798,-254 1798,-260 1798,-260 1798,-274 1798,-274 1798,-280 1792,-286 1786,-286"/>
<text xml:space="preserve" text-anchor="middle" x="1752.5" y="-257.3" font-family="Arial" font-size="26.00">NDRC</text>
</g>
<!-- State Council&#45;&gt;NDRC -->
<g id="edge25" class="edge">
<title>State Council&#45;&gt;NDRC</title>
<path fill="none" stroke="#000000" stroke-width="2.5" d="M1524.05,-371.59C1572.31,-349.71 1648.43,-315.19 1699.38,-292.09"/>
<polygon fill="#000000" stroke="#000000" stroke-width="2.5" points="1700.65,-295.35 1708.32,-288.04 1697.76,-288.98 1700.65,-295.35"/>
</g>
<!-- SASAC -->
<g id="node22" class="node">
<title>SASAC</title>
<path fill="#4682b4" stroke="black" d="M1328.38,-162C1328.38,-162 1248.62,-162 1248.62,-162 1242.62,-162 1236.62,-156 1236.62,-150 1236.62,-150 1236.62,-136 1236.62,-136 1236.62,-130 1242.62,-124 1248.62,-124 1248.62,-124 1328.38,-124 1328.38,-124 1334.38,-124 1340.38,-130 1340.38,-136 1340.38,-136 1340.38,-150 1340.38,-150 1340.38,-156 1334.38,-162 1328.38,-162"/>
<text xml:space="preserve" text-anchor="middle" x="1288.5" y="-133.3" font-family="Arial" font-size="26.00">SASAC</text>
</g>
<!-- State Council&#45;&gt;SASAC -->
<g id="edge26" class="edge">
<title>State Council&#45;&gt;SASAC</title>
<path fill="none" stroke="#000000" stroke-width="2.5" d="M1462.63,-371.51C1428.87,-327.4 1349.86,-224.17 1310.95,-173.33"/>
<polygon fill="#000000" stroke="#000000" stroke-width="2.5" points="1313.79,-171.28 1304.93,-165.47 1308.23,-175.54 1313.79,-171.28"/>
</g>
<!-- MOST&#45;&gt;CAS -->
<g id="edge27" class="edge">
<title>MOST&#45;&gt;CAS</title>
<path fill="none" stroke="#000000" stroke-width="2.5" d="M1053.07,-247.74C1043.09,-228.42 1027.19,-197.61 1015.29,-174.58"/>
<polygon fill="#000000" stroke="#000000" stroke-width="2.5" points="1018.43,-173.03 1010.73,-165.75 1012.21,-176.24 1018.43,-173.03"/>
</g>
<!-- MOST&#45;&gt;CAE -->
<g id="edge28" class="edge">
<title>MOST&#45;&gt;CAE</title>
<path fill="none" stroke="#000000" stroke-width="2.5" d="M1016.81,-254.43C1007.47,-252.19 997.68,-249.94 988.5,-248 777.75,-203.41 721.43,-210.33 511.5,-162 506.33,-160.81 500.96,-159.47 495.62,-158.07"/>
<polygon fill="#000000" stroke="#000000" stroke-width="2.5" points="496.77,-154.75 486.21,-155.51 494.94,-161.51 496.77,-154.75"/>
</g>
<!-- NSFC -->
<g id="node26" class="node">
<title>NSFC</title>
<path fill="#4682b4" stroke="black" d="M1166.75,-162C1166.75,-162 1104.25,-162 1104.25,-162 1098.25,-162 1092.25,-156 1092.25,-150 1092.25,-150 1092.25,-136 1092.25,-136 1092.25,-130 1098.25,-124 1104.25,-124 1104.25,-124 1166.75,-124 1166.75,-124 1172.75,-124 1178.75,-130 1178.75,-136 1178.75,-136 1178.75,-150 1178.75,-150 1178.75,-156 1172.75,-162 1166.75,-162"/>
<text xml:space="preserve" text-anchor="middle" x="1135.5" y="-133.3" font-family="Arial" font-size="26.00">NSFC</text>
</g>
<!-- MOST&#45;&gt;NSFC -->
<g id="edge29" class="edge">
<title>MOST&#45;&gt;NSFC</title>
<path fill="none" stroke="#000000" stroke-width="2.5" d="M1073.43,-247.74C1085.09,-228.24 1103.76,-197.04 1117.58,-173.94"/>
<polygon fill="#000000" stroke="#000000" stroke-width="2.5" points="1120.42,-176.01 1122.55,-165.64 1114.42,-172.42 1120.42,-176.01"/>
</g>
<!-- CETC -->
<g id="node32" class="node">
<title>CETC</title>
<path fill="#2f4f4f" stroke="black" d="M1594.75,-38C1594.75,-38 1532.25,-38 1532.25,-38 1526.25,-38 1520.25,-32 1520.25,-26 1520.25,-26 1520.25,-12 1520.25,-12 1520.25,-6 1526.25,0 1532.25,0 1532.25,0 1594.75,0 1594.75,0 1600.75,0 1606.75,-6 1606.75,-12 1606.75,-12 1606.75,-26 1606.75,-26 1606.75,-32 1600.75,-38 1594.75,-38"/>
<text xml:space="preserve" text-anchor="middle" x="1563.5" y="-9.3" font-family="Arial" font-size="26.00">CETC</text>
</g>
<!-- MIIT&#45;&gt;CETC -->
<g id="edge30" class="edge">
<title>MIIT&#45;&gt;CETC</title>
<path fill="none" stroke="#cccccc" stroke-dasharray="1,5" d="M1509.93,-123.74C1520.23,-103.79 1536.86,-71.6 1548.86,-48.36"/>
<polygon fill="#cccccc" stroke="#cccccc" points="1551.83,-50.23 1553.31,-39.73 1545.61,-47.01 1551.83,-50.23"/>
</g>
<!-- MSS&#45;&gt;United Front Work -->
<g id="edge31" class="edge">
<title>MSS&#45;&gt;United Front Work</title>
<path fill="none" stroke="#cccccc" stroke-dasharray="1,5" d="M1797.31,-373.92C1832.51,-352.26 1891.21,-316.16 1930.13,-292.22"/>
<polygon fill="#cccccc" stroke="#cccccc" points="1931.6,-295.42 1938.28,-287.2 1927.93,-289.46 1931.6,-295.42"/>
</g>
<!-- SASTIND&#45;&gt;CMC Equipment Development -->
<g id="edge32" class="edge">
<title>SASTIND&#45;&gt;CMC Equipment Development</title>
<path fill="none" stroke="#6b46c1" stroke-width="2" stroke-dasharray="5,2" d="M1165.77,-250.42C1076.17,-228.86 913.98,-189.84 812.88,-165.51"/>
<polygon fill="#6b46c1" stroke="#6b46c1" stroke-width="2" points="813.74,-162.11 803.19,-163.18 812.1,-168.92 813.74,-162.11"/>
</g>
<!-- SASTIND&#45;&gt;MIIT -->
<g id="edge33" class="edge">
<title>SASTIND&#45;&gt;MIIT</title>
<path fill="none" stroke="#6b46c1" stroke-width="2" stroke-dasharray="5,2" d="M1271.21,-247.6C1320.31,-225.42 1402.64,-188.22 1454.14,-164.95"/>
<polygon fill="#6b46c1" stroke="#6b46c1" stroke-width="2" points="1455.47,-168.19 1463.14,-160.88 1452.58,-161.81 1455.47,-168.19"/>
</g>
<!-- United Front Work&#45;&gt;MOE -->
<g id="edge34" class="edge">
<title>United Front Work&#45;&gt;MOE</title>
<path fill="none" stroke="#cccccc" stroke-dasharray="1,5" d="M1944.05,-247.74C1914.88,-226.8 1866.91,-192.38 1834.3,-168.97"/>
<polygon fill="#cccccc" stroke="#cccccc" points="1836.52,-166.26 1826.35,-163.27 1832.44,-171.95 1836.52,-166.26"/>
</g>
<!-- SASAC&#45;&gt;AVIC -->
<g id="edge35" class="edge">
<title>SASAC&#45;&gt;AVIC</title>
<path fill="none" stroke="#000000" stroke-width="2.5" d="M1254.37,-123.74C1215.16,-102.76 1150.63,-68.23 1106.89,-44.82"/>
<polygon fill="#000000" stroke="#000000" stroke-width="2.5" points="1108.67,-41.81 1098.2,-40.17 1105.37,-47.98 1108.67,-41.81"/>
</g>
<!-- SASAC&#45;&gt;NORINCO -->
<g id="edge36" class="edge">
<title>SASAC&#45;&gt;NORINCO</title>
<path fill="none" stroke="#000000" stroke-width="2.5" d="M1236.26,-130.15C1226.71,-128.05 1216.81,-125.92 1207.5,-124 1120.37,-106.01 875.24,-59.84 745.48,-35.52"/>
<polygon fill="#000000" stroke="#000000" stroke-width="2.5" points="746.34,-32.12 735.87,-33.72 745.05,-39 746.34,-32.12"/>
</g>
<!-- SASAC&#45;&gt;CASC/CASIC -->
<g id="edge37" class="edge">
<title>SASAC&#45;&gt;CASC/CASIC</title>
<path fill="none" stroke="#000000" stroke-width="2.5" d="M1236.45,-126.55C1164.66,-105.24 1034.82,-66.7 952.54,-42.28"/>
<polygon fill="#000000" stroke="#000000" stroke-width="2.5" points="953.72,-38.97 943.14,-39.48 951.73,-45.69 953.72,-38.97"/>
</g>
<!-- CSSC/CSIC -->
<g id="node30" class="node">
<title>CSSC/CSIC</title>
<path fill="#2f4f4f" stroke="black" d="M1450.38,-38C1450.38,-38 1316.62,-38 1316.62,-38 1310.62,-38 1304.62,-32 1304.62,-26 1304.62,-26 1304.62,-12 1304.62,-12 1304.62,-6 1310.62,0 1316.62,0 1316.62,0 1450.38,0 1450.38,0 1456.38,0 1462.38,-6 1462.38,-12 1462.38,-12 1462.38,-26 1462.38,-26 1462.38,-32 1456.38,-38 1450.38,-38"/>
<text xml:space="preserve" text-anchor="middle" x="1383.5" y="-9.3" font-family="Arial" font-size="26.00">CSSC/CSIC</text>
</g>
<!-- SASAC&#45;&gt;CSSC/CSIC -->
<g id="edge38" class="edge">
<title>SASAC&#45;&gt;CSSC/CSIC</title>
<path fill="none" stroke="#000000" stroke-width="2.5" d="M1302.72,-123.74C1318.11,-103.97 1342.87,-72.18 1360.93,-48.99"/>
<polygon fill="#000000" stroke="#000000" stroke-width="2.5" points="1363.47,-51.42 1366.86,-41.37 1357.95,-47.11 1363.47,-51.42"/>
</g>
<!-- CNNC -->
<g id="node31" class="node">
<title>CNNC</title>
<path fill="#2f4f4f" stroke="black" d="M1235,-38C1235,-38 1168,-38 1168,-38 1162,-38 1156,-32 1156,-26 1156,-26 1156,-12 1156,-12 1156,-6 1162,0 1168,0 1168,0 1235,0 1235,0 1241,0 1247,-6 1247,-12 1247,-12 1247,-26 1247,-26 1247,-32 1241,-38 1235,-38"/>
<text xml:space="preserve" text-anchor="middle" x="1201.5" y="-9.3" font-family="Arial" font-size="26.00">CNNC</text>
</g>
<!-- SASAC&#45;&gt;CNNC -->
<g id="edge39" class="edge">
<title>SASAC&#45;&gt;CNNC</title>
<path fill="none" stroke="#000000" stroke-width="2.5" d="M1275.48,-123.74C1261.44,-104.06 1238.91,-72.46 1222.4,-49.31"/>
<polygon fill="#000000" stroke="#000000" stroke-width="2.5" points="1225.47,-47.58 1216.81,-41.47 1219.77,-51.64 1225.47,-47.58"/>
</g>
<!-- SASAC&#45;&gt;CETC -->
<g id="edge40" class="edge">
<title>SASAC&#45;&gt;CETC</title>
<path fill="none" stroke="#000000" stroke-width="2.5" d="M1329.97,-123.6C1377.93,-102.33 1457.03,-67.24 1509.69,-43.87"/>
<polygon fill="#000000" stroke="#000000" stroke-width="2.5" points="1510.96,-47.14 1518.69,-39.88 1508.13,-40.74 1510.96,-47.14"/>
</g>
<!-- CAS&#45;&gt;AVIC -->
<g id="edge41" class="edge">
<title>CAS&#45;&gt;AVIC</title>
<path fill="none" stroke="#ff8c00" stroke-width="1.5" d="M1008.63,-123.74C1018.47,-104.06 1034.27,-72.46 1045.85,-49.31"/>
<polygon fill="#ff8c00" stroke="#ff8c00" stroke-width="1.5" points="1048.95,-50.93 1050.29,-40.42 1042.69,-47.8 1048.95,-50.93"/>
</g>
<!-- CAS&#45;&gt;CASC/CASIC -->
<g id="edge42" class="edge">
<title>CAS&#45;&gt;CASC/CASIC</title>
<path fill="none" stroke="#ff8c00" stroke-width="1.5" d="M981.24,-123.74C960.84,-103.34 927.64,-70.14 904.3,-46.8"/>
<polygon fill="#ff8c00" stroke="#ff8c00" stroke-width="1.5" points="907.04,-44.59 897.49,-39.99 902.09,-49.54 907.04,-44.59"/>
</g>
<!-- CAE&#45;&gt;NORINCO -->
<g id="edge43" class="edge">
<title>CAE&#45;&gt;NORINCO</title>
<path fill="none" stroke="#ff8c00" stroke-width="1.5" d="M479.69,-123.74C516.89,-102.62 578.29,-67.78 619.55,-44.37"/>
<polygon fill="#ff8c00" stroke="#ff8c00" stroke-width="1.5" points="621.15,-47.49 628.12,-39.51 617.69,-41.4 621.15,-47.49"/>
</g>
<!-- CAST -->
<g id="node25" class="node">
<title>CAST</title>
<path fill="#4682b4" stroke="black" d="M1963,-669.25C1963,-669.25 1902,-669.25 1902,-669.25 1896,-669.25 1890,-663.25 1890,-657.25 1890,-657.25 1890,-643.25 1890,-643.25 1890,-637.25 1896,-631.25 1902,-631.25 1902,-631.25 1963,-631.25 1963,-631.25 1969,-631.25 1975,-637.25 1975,-643.25 1975,-643.25 1975,-657.25 1975,-657.25 1975,-663.25 1969,-669.25 1963,-669.25"/>
<text xml:space="preserve" text-anchor="middle" x="1932.5" y="-640.55" font-family="Arial" font-size="26.00">CAST</text>
</g>
</g>
</svg>
