<?xml version="1.0" encoding="utf-8" standalone="no"?>
<!DOCTYPE svg PUBLIC "-//W3C//DTD SVG 1.1//EN"
  "http://www.w3.org/Graphics/SVG/1.1/DTD/svg11.dtd">
<svg xmlns:xlink="http://www.w3.org/1999/xlink" width="1833.192pt" height="2020.295625pt" viewBox="0 0 1833.192 2020.295625" xmlns="http://www.w3.org/2000/svg" version="1.1">
 <metadata>
  <rdf:RDF xmlns:dc="http://purl.org/dc/elements/1.1/" xmlns:cc="http://creativecommons.org/ns#" xmlns:rdf="http://www.w3.org/1999/02/22-rdf-syntax-ns#">
   <cc:Work>
    <dc:type rdf:resource="http://purl.org/dc/dcmitype/StillImage"/>
    <dc:date>2025-10-20T11:02:00.968601</dc:date>
    <dc:format>image/svg+xml</dc:format>
    <dc:creator>
     <cc:Agent>
      <dc:title>Matplotlib v3.10.1, https://matplotlib.org/</dc:title>
     </cc:Agent>
    </dc:creator>
   </cc:Work>
  </rdf:RDF>
 </metadata>
 <defs>
  <style type="text/css">*{stroke-linejoin: round; stroke-linecap: butt}</style>
 </defs>
 <g id="figure_1">
  <g id="patch_1">
   <path d="M 0 2020.295625 
L 1833.192 2020.295625 
L 1833.192 0 
L 0 0 
z
" style="fill: #ffffff"/>
  </g>
  <g id="axes_1">
   <g id="patch_2">
    <path d="M 916.596 1097.8765 
C 936.693887 1097.8765 955.971321 1089.891525 970.182673 1075.680173 
C 984.394025 1061.468821 992.379 1042.191387 992.379 1022.0935 
C 992.379 1001.995613 984.394025 982.718179 970.182673 968.506827 
C 955.971321 954.295475 936.693887 946.3105 916.596 946.3105 
C 896.498113 946.3105 877.220679 954.295475 863.009327 968.506827 
C 848.797975 982.718179 840.813 1001.995613 840.813 1022.0935 
C 840.813 1042.191387 848.797975 1061.468821 863.009327 1075.680173 
C 877.220679 1089.891525 896.498113 1097.8765 916.596 1097.8765 
z
" clip-path="url(#p5082b8c214)" style="fill: #8b0000; opacity: 0.7; stroke: #8b0000; stroke-width: 3; stroke-linejoin: miter"/>
   </g>
   <g id="patch_3">
    <path d="M 1106.0535 1022.0935 
C 1106.0535 997.214169 1101.152814 972.576758 1091.631907 949.591254 
C 1082.110999 926.605749 1068.155027 905.719161 1050.562683 888.126817 
C 1032.970339 870.534473 1012.083751 856.578501 989.098246 847.057593 
C 966.112742 837.536686 941.475331 832.636 916.596 832.636 
C 891.716669 832.636 867.079258 837.536686 844.093754 847.057593 
C 821.108249 856.578501 800.221661 870.534473 782.629317 888.126817 
C 765.036973 905.719161 751.081001 926.605749 741.560093 949.591254 
C 732.039186 972.576758 727.1385 997.214169 727.1385 1022.0935 
C 727.1385 1046.972831 732.039186 1071.610242 741.560093 1094.595746 
C 751.081001 1117.581251 765.036973 1138.467839 782.629317 1156.060183 
C 800.221661 1173.652527 821.108249 1187.608499 844.093754 1197.129407 
C 867.079258 1206.650314 891.716669 1211.551 916.596 1211.551 
C 941.475331 1211.551 966.112742 1206.650314 989.098246 1197.129407 
C 1012.083751 1187.608499 1032.970339 1173.652527 1050.562683 1156.060183 
C 1068.155027 1138.467839 1082.110999 1117.581251 1091.631907 1094.595746 
C 1101.152814 1071.610242 1106.0535 1046.972831 1106.0535 1022.0935 
M 992.379 1022.0935 
C 992.379 1032.045232 990.418726 1041.900197 986.610363 1051.094399 
C 982.802 1060.2886 977.219611 1068.643236 970.182673 1075.680173 
C 963.145736 1082.717111 954.7911 1088.2995 945.596899 1092.107863 
C 936.402697 1095.916226 926.547732 1097.8765 916.596 1097.8765 
C 906.644268 1097.8765 896.789303 1095.916226 887.595101 1092.107863 
C 878.4009 1088.2995 870.046264 1082.717111 863.009327 1075.680173 
C 855.972389 1068.643236 850.39 1060.2886 846.581637 1051.094399 
C 842.773274 1041.900197 840.813 1032.045232 840.813 1022.0935 
C 840.813 1012.141768 842.773274 1002.286803 846.581637 993.092601 
C 850.39 983.8984 855.972389 975.543764 863.009327 968.506827 
C 870.046264 961.469889 878.4009 955.8875 887.595101 952.079137 
C 896.789303 948.270774 906.644268 946.3105 916.596 946.3105 
C 926.547732 946.3105 936.402697 948.270774 945.596899 952.079137 
C 954.7911 955.8875 963.145736 961.469889 970.182673 968.506827 
C 977.219611 975.543764 982.802 983.8984 986.610363 993.092601 
C 990.418726 1002.286803 992.379 1012.141768 992.379 1022.0935 
z
" clip-path="url(#p5082b8c214)" style="fill: #c0392b; opacity: 0.6; stroke: #000000; stroke-width: 3; stroke-linejoin: miter"/>
   </g>
   <g id="patch_4">
    <path d="M 1257.6195 1022.0935 
C 1257.6195 977.310704 1248.798266 932.963365 1231.660632 891.589457 
C 1214.522998 850.215548 1189.402248 812.619689 1157.736029 780.953471 
C 1126.069811 749.287252 1088.473952 724.166502 1047.100043 707.028868 
C 1005.726135 689.891234 961.378796 681.07 916.596 681.07 
C 871.813204 681.07 827.465865 689.891234 786.091957 707.028868 
C 744.718048 724.166502 707.122189 749.287252 675.455971 780.953471 
C 643.789752 812.619689 618.669002 850.215548 601.531368 891.589457 
C 584.393734 932.963365 575.5725 977.310704 575.5725 1022.0935 
C 575.5725 1066.876296 584.393734 1111.223635 601.531368 1152.597543 
C 618.669002 1193.971452 643.789752 1231.567311 675.455971 1263.233529 
C 707.122189 1294.899748 744.718048 1320.020498 786.091957 1337.158132 
C 827.465865 1354.295766 871.813204 1363.117 916.596 1363.117 
C 961.378796 1363.117 1005.726135 1354.295766 1047.100043 1337.158132 
C 1088.473952 1320.020498 1126.069811 1294.899748 1157.736029 1263.233529 
C 1189.402248 1231.567311 1214.522998 1193.971452 1231.660632 1152.597543 
C 1248.798266 1111.223635 1257.6195 1066.876296 1257.6195 1022.0935 
M 1106.0535 1022.0935 
C 1106.0535 1046.972831 1101.152814 1071.610242 1091.631907 1094.595746 
C 1082.110999 1117.581251 1068.155027 1138.467839 1050.562683 1156.060183 
C 1032.970339 1173.652527 1012.083751 1187.608499 989.098246 1197.129407 
C 966.112742 1206.650314 941.475331 1211.551 916.596 1211.551 
C 891.716669 1211.551 867.079258 1206.650314 844.093754 1197.129407 
C 821.108249 1187.608499 800.221661 1173.652527 782.629317 1156.060183 
C 765.036973 1138.467839 751.081001 1117.581251 741.560093 1094.595746 
C 732.039186 1071.610242 727.1385 1046.972831 727.1385 1022.0935 
C 727.1385 997.214169 732.039186 972.576758 741.560093 949.591254 
C 751.081001 926.605749 765.036973 905.719161 782.629317 888.126817 
C 800.221661 870.534473 821.108249 856.578501 844.093754 847.057593 
C 867.079258 837.536686 891.716669 832.636 916.596 832.636 
C 941.475331 832.636 966.112742 837.536686 989.098246 847.057593 
C 1012.083751 856.578501 1032.970339 870.534473 1050.562683 888.126817 
C 1068.155027 905.719161 1082.110999 926.605749 1091.631907 949.591254 
C 1101.152814 972.576758 1106.0535 997.214169 1106.0535 1022.0935 
z
" clip-path="url(#p5082b8c214)" style="fill: #e74c3c; opacity: 0.6; stroke: #000000; stroke-width: 3; stroke-linejoin: miter"/>
   </g>
   <g id="patch_5">
    <path d="M 1409.1855 1022.0935 
C 1409.1855 957.40724 1396.443717 893.349971 1371.689357 833.587659 
C 1346.934997 773.825347 1310.649469 719.520218 1264.909376 673.780124 
C 1219.169282 628.040031 1164.864153 591.754503 1105.101841 567.000143 
C 1045.339529 542.245783 981.28226 529.504 916.596 529.504 
C 851.90974 529.504 787.852471 542.245783 728.090159 567.000143 
C 668.327847 591.754503 614.022718 628.040031 568.282624 673.780124 
C 522.542531 719.520218 486.257003 773.825347 461.502643 833.587659 
C 436.748283 893.349971 424.0065 957.40724 424.0065 1022.0935 
C 424.0065 1086.77976 436.748283 1150.837029 461.502643 1210.599341 
C 486.257003 1270.361653 522.542531 1324.666782 568.282624 1370.406876 
C 614.022718 1416.146969 668.327847 1452.432497 728.090159 1477.186857 
C 787.852471 1501.941217 851.90974 1514.683 916.596 1514.683 
C 981.28226 1514.683 1045.339529 1501.941217 1105.101841 1477.186857 
C 1164.864153 1452.432497 1219.169282 1416.146969 1264.909376 1370.406876 
C 1310.649469 1324.666782 1346.934997 1270.361653 1371.689357 1210.599341 
C 1396.443717 1150.837029 1409.1855 1086.77976 1409.1855 1022.0935 
M 1257.6195 1022.0935 
C 1257.6195 1066.876296 1248.798266 1111.223635 1231.660632 1152.597543 
C 1214.522998 1193.971452 1189.402248 1231.567311 1157.736029 1263.233529 
C 1126.069811 1294.899748 1088.473952 1320.020498 1047.100043 1337.158132 
C 1005.726135 1354.295766 961.378796 1363.117 916.596 1363.117 
C 871.813204 1363.117 827.465865 1354.295766 786.091957 1337.158132 
C 744.718048 1320.020498 707.122189 1294.899748 675.455971 1263.233529 
C 643.789752 1231.567311 618.669002 1193.971452 601.531368 1152.597543 
C 584.393734 1111.223635 575.5725 1066.876296 575.5725 1022.0935 
C 575.5725 977.310704 584.393734 932.963365 601.531368 891.589457 
C 618.669002 850.215548 643.789752 812.619689 675.455971 780.953471 
C 707.122189 749.287252 744.718048 724.166502 786.091957 707.028868 
C 827.465865 689.891234 871.813204 681.07 916.596 681.07 
C 961.378796 681.07 1005.726135 689.891234 1047.100043 707.028868 
C 1088.473952 724.166502 1126.069811 749.287252 1157.736029 780.953471 
C 1189.402248 812.619689 1214.522998 850.215548 1231.660632 891.589457 
C 1248.798266 932.963365 1257.6195 977.310704 1257.6195 1022.0935 
z
" clip-path="url(#p5082b8c214)" style="fill: #3498db; opacity: 0.6; stroke: #000000; stroke-width: 3; stroke-linejoin: miter"/>
   </g>
   <g id="patch_6">
    <path d="M 1560.7515 1022.0935 
C 1560.7515 937.503775 1544.089169 853.736578 1511.718082 775.585862 
C 1479.346996 697.435146 1431.896691 626.420746 1372.082722 566.606778 
C 1312.268754 506.792809 1241.254354 459.342504 1163.103638 426.971418 
C 1084.952922 394.600331 1001.185725 377.938 916.596 377.938 
C 832.006275 377.938 748.239078 394.600331 670.088362 426.971418 
C 591.937646 459.342504 520.923246 506.792809 461.109278 566.606778 
C 401.295309 626.420746 353.845004 697.435146 321.473918 775.585862 
C 289.102831 853.736578 272.4405 937.503775 272.4405 1022.0935 
C 272.4405 1106.683225 289.102831 1190.450422 321.473918 1268.601138 
C 353.845004 1346.751854 401.295309 1417.766254 461.109278 1477.580222 
C 520.923246 1537.394191 591.937646 1584.844496 670.088362 1617.215582 
C 748.239078 1649.586669 832.006275 1666.249 916.596 1666.249 
C 1001.185725 1666.249 1084.952922 1649.586669 1163.103638 1617.215582 
C 1241.254354 1584.844496 1312.268754 1537.394191 1372.082722 1477.580222 
C 1431.896691 1417.766254 1479.346996 1346.751854 1511.718082 1268.601138 
C 1544.089169 1190.450422 1560.7515 1106.683225 1560.7515 1022.0935 
M 1409.1855 1022.0935 
C 1409.1855 1086.77976 1396.443717 1150.837029 1371.689357 1210.599341 
C 1346.934997 1270.361653 1310.649469 1324.666782 1264.909376 1370.406876 
C 1219.169282 1416.146969 1164.864153 1452.432497 1105.101841 1477.186857 
C 1045.339529 1501.941217 981.28226 1514.683 916.596 1514.683 
C 851.90974 1514.683 787.852471 1501.941217 728.090159 1477.186857 
C 668.327847 1452.432497 614.022718 1416.146969 568.282624 1370.406876 
C 522.542531 1324.666782 486.257003 1270.361653 461.502643 1210.599341 
C 436.748283 1150.837029 424.0065 1086.77976 424.0065 1022.0935 
C 424.0065 957.40724 436.748283 893.349971 461.502643 833.587659 
C 486.257003 773.825347 522.542531 719.520218 568.282624 673.780124 
C 614.022718 628.040031 668.327847 591.754503 728.090159 567.000143 
C 787.852471 542.245783 851.90974 529.504 916.596 529.504 
C 981.28226 529.504 1045.339529 542.245783 1105.101841 567.000143 
C 1164.864153 591.754503 1219.169282 628.040031 1264.909376 673.780124 
C 1310.649469 719.520218 1346.934997 773.825347 1371.689357 833.587659 
C 1396.443717 893.349971 1409.1855 957.40724 1409.1855 1022.0935 
z
" clip-path="url(#p5082b8c214)" style="fill: #27ae60; opacity: 0.6; stroke: #000000; stroke-width: 3; stroke-linejoin: miter"/>
   </g>
   <g id="patch_7">
    <path d="M 1712.3175 1022.0935 
C 1712.3175 917.60031 1691.73462 814.123185 1651.746807 717.584065 
C 1611.758995 621.044946 1553.143912 533.321275 1479.256069 459.433431 
C 1405.368225 385.545588 1317.644554 326.930505 1221.105435 286.942693 
C 1124.566315 246.95488 1021.08919 226.372 916.596 226.372 
C 812.10281 226.372 708.625685 246.95488 612.086565 286.942693 
C 515.547446 326.930505 427.823775 385.545588 353.935931 459.433431 
C 280.048088 533.321275 221.433005 621.044946 181.445193 717.584065 
C 141.45738 814.123185 120.8745 917.60031 120.8745 1022.0935 
C 120.8745 1126.58669 141.45738 1230.063815 181.445193 1326.602935 
C 221.433005 1423.142054 280.048088 1510.865725 353.935931 1584.753569 
C 427.823775 1658.641412 515.547446 1717.256495 612.086565 1757.244307 
C 708.625685 1797.23212 812.10281 1817.815 916.596 1817.815 
C 1021.08919 1817.815 1124.566315 1797.23212 1221.105435 1757.244307 
C 1317.644554 1717.256495 1405.368225 1658.641412 1479.256069 1584.753569 
C 1553.143912 1510.865725 1611.758995 1423.142054 1651.746807 1326.602935 
C 1691.73462 1230.063815 1712.3175 1126.58669 1712.3175 1022.0935 
M 1560.7515 1022.0935 
C 1560.7515 1106.683225 1544.089169 1190.450422 1511.718082 1268.601138 
C 1479.346996 1346.751854 1431.896691 1417.766254 1372.082722 1477.580222 
C 1312.268754 1537.394191 1241.254354 1584.844496 1163.103638 1617.215582 
C 1084.952922 1649.586669 1001.185725 1666.249 916.596 1666.249 
C 832.006275 1666.249 748.239078 1649.586669 670.088362 1617.215582 
C 591.937646 1584.844496 520.923246 1537.394191 461.109278 1477.580222 
C 401.295309 1417.766254 353.845004 1346.751854 321.473918 1268.601138 
C 289.102831 1190.450422 272.4405 1106.683225 272.4405 1022.0935 
C 272.4405 937.503775 289.102831 853.736578 321.473918 775.585862 
C 353.845004 697.435146 401.295309 626.420746 461.109278 566.606778 
C 520.923246 506.792809 591.937646 459.342504 670.088362 426.971418 
C 748.239078 394.600331 832.006275 377.938 916.596 377.938 
C 1001.185725 377.938 1084.952922 394.600331 1163.103638 426.971418 
C 1241.254354 459.342504 1312.268754 506.792809 1372.082722 566.606778 
C 1431.896691 626.420746 1479.346996 697.435146 1511.718082 775.585862 
C 1544.089169 853.736578 1560.7515 937.503775 1560.7515 1022.0935 
z
" clip-path="url(#p5082b8c214)" style="fill: #f39c12; opacity: 0.6; stroke: #000000; stroke-width: 3; stroke-linejoin: miter"/>
   </g>
   <g id="text_1">
    <g id="patch_8">
     <path d="M 756.41475 992.741594 
L 1076.77725 992.741594 
Q 1091.77725 992.741594 1091.77725 977.741594 
L 1091.77725 914.879406 
Q 1091.77725 899.879406 1076.77725 899.879406 
L 756.41475 899.879406 
Q 741.41475 899.879406 741.41475 914.879406 
L 741.41475 977.741594 
Q 741.41475 992.741594 756.41475 992.741594 
z
" style="opacity: 0.7; stroke: #000000; stroke-linejoin: miter"/>
    </g>
    <!-- Layer 1 -->
    <g style="fill: #ffffff" transform="translate(854.376469 937.440344) scale(0.3 -0.3)">
     <defs>
      <path id="DejaVuSans-Bold-4c" d="M 588 4666 
L 1791 4666 
L 1791 909 
L 3903 909 
L 3903 0 
L 588 0 
L 588 4666 
z
" transform="scale(0.015625)"/>
      <path id="DejaVuSans-Bold-61" d="M 2106 1575 
Q 1756 1575 1579 1456 
Q 1403 1338 1403 1106 
Q 1403 894 1545 773 
Q 1688 653 1941 653 
Q 2256 653 2472 879 
Q 2688 1106 2688 1447 
L 2688 1575 
L 2106 1575 
z
M 3816 1997 
L 3816 0 
L 2688 0 
L 2688 519 
Q 2463 200 2181 54 
Q 1900 -91 1497 -91 
Q 953 -91 614 226 
Q 275 544 275 1050 
Q 275 1666 698 1953 
Q 1122 2241 2028 2241 
L 2688 2241 
L 2688 2328 
Q 2688 2594 2478 2717 
Q 2269 2841 1825 2841 
Q 1466 2841 1156 2769 
Q 847 2697 581 2553 
L 581 3406 
Q 941 3494 1303 3539 
Q 1666 3584 2028 3584 
Q 2975 3584 3395 3211 
Q 3816 2838 3816 1997 
z
" transform="scale(0.015625)"/>
      <path id="DejaVuSans-Bold-79" d="M 78 3500 
L 1197 3500 
L 2138 1125 
L 2938 3500 
L 4056 3500 
L 2584 -331 
Q 2363 -916 2067 -1148 
Q 1772 -1381 1288 -1381 
L 641 -1381 
L 641 -647 
L 991 -647 
Q 1275 -647 1404 -556 
Q 1534 -466 1606 -231 
L 1638 -134 
L 78 3500 
z
" transform="scale(0.015625)"/>
      <path id="DejaVuSans-Bold-65" d="M 4031 1759 
L 4031 1441 
L 1416 1441 
Q 1456 1047 1700 850 
Q 1944 653 2381 653 
Q 2734 653 3104 758 
Q 3475 863 3866 1075 
L 3866 213 
Q 3469 63 3072 -14 
Q 2675 -91 2278 -91 
Q 1328 -91 801 392 
Q 275 875 275 1747 
Q 275 2603 792 3093 
Q 1309 3584 2216 3584 
Q 3041 3584 3536 3087 
Q 4031 2591 4031 1759 
z
M 2881 2131 
Q 2881 2450 2695 2645 
Q 2509 2841 2209 2841 
Q 1884 2841 1681 2658 
Q 1478 2475 1428 2131 
L 2881 2131 
z
" transform="scale(0.015625)"/>
      <path id="DejaVuSans-Bold-72" d="M 3138 2547 
Q 2991 2616 2845 2648 
Q 2700 2681 2553 2681 
Q 2122 2681 1889 2404 
Q 1656 2128 1656 1613 
L 1656 0 
L 538 0 
L 538 3500 
L 1656 3500 
L 1656 2925 
Q 1872 3269 2151 3426 
Q 2431 3584 2822 3584 
Q 2878 3584 2943 3579 
Q 3009 3575 3134 3559 
L 3138 2547 
z
" transform="scale(0.015625)"/>
      <path id="DejaVuSans-Bold-20" transform="scale(0.015625)"/>
      <path id="DejaVuSans-Bold-31" d="M 750 831 
L 1813 831 
L 1813 3847 
L 722 3622 
L 722 4441 
L 1806 4666 
L 2950 4666 
L 2950 831 
L 4013 831 
L 4013 0 
L 750 0 
L 750 831 
z
" transform="scale(0.015625)"/>
     </defs>
     <use xlink:href="#DejaVuSans-Bold-4c"/>
     <use xlink:href="#DejaVuSans-Bold-61" transform="translate(63.720703 0)"/>
     <use xlink:href="#DejaVuSans-Bold-79" transform="translate(128.076172 0)"/>
     <use xlink:href="#DejaVuSans-Bold-65" transform="translate(193.261719 0)"/>
     <use xlink:href="#DejaVuSans-Bold-72" transform="translate(261.083984 0)"/>
     <use xlink:href="#DejaVuSans-Bold-20" transform="translate(310.400391 0)"/>
     <use xlink:href="#DejaVuSans-Bold-31" transform="translate(345.214844 0)"/>
    </g>
    <!-- Strategic Direction -->
    <g style="fill: #ffffff" transform="translate(756.41475 971.268156) scale(0.3 -0.3)">
     <defs>
      <path id="DejaVuSans-Bold-53" d="M 3834 4519 
L 3834 3531 
Q 3450 3703 3084 3790 
Q 2719 3878 2394 3878 
Q 1963 3878 1756 3759 
Q 1550 3641 1550 3391 
Q 1550 3203 1689 3098 
Q 1828 2994 2194 2919 
L 2706 2816 
Q 3484 2659 3812 2340 
Q 4141 2022 4141 1434 
Q 4141 663 3683 286 
Q 3225 -91 2284 -91 
Q 1841 -91 1394 -6 
Q 947 78 500 244 
L 500 1259 
Q 947 1022 1364 901 
Q 1781 781 2169 781 
Q 2563 781 2772 912 
Q 2981 1044 2981 1288 
Q 2981 1506 2839 1625 
Q 2697 1744 2272 1838 
L 1806 1941 
Q 1106 2091 782 2419 
Q 459 2747 459 3303 
Q 459 4000 909 4375 
Q 1359 4750 2203 4750 
Q 2588 4750 2994 4692 
Q 3400 4634 3834 4519 
z
" transform="scale(0.015625)"/>
      <path id="DejaVuSans-Bold-74" d="M 1759 4494 
L 1759 3500 
L 2913 3500 
L 2913 2700 
L 1759 2700 
L 1759 1216 
Q 1759 972 1856 886 
Q 1953 800 2241 800 
L 2816 800 
L 2816 0 
L 1856 0 
Q 1194 0 917 276 
Q 641 553 641 1216 
L 641 2700 
L 84 2700 
L 84 3500 
L 641 3500 
L 641 4494 
L 1759 4494 
z
" transform="scale(0.015625)"/>
      <path id="DejaVuSans-Bold-67" d="M 2919 594 
Q 2688 288 2409 144 
Q 2131 0 1766 0 
Q 1125 0 706 504 
Q 288 1009 288 1791 
Q 288 2575 706 3076 
Q 1125 3578 1766 3578 
Q 2131 3578 2409 3434 
Q 2688 3291 2919 2981 
L 2919 3500 
L 4044 3500 
L 4044 353 
Q 4044 -491 3511 -936 
Q 2978 -1381 1966 -1381 
Q 1638 -1381 1331 -1331 
Q 1025 -1281 716 -1178 
L 716 -306 
Q 1009 -475 1290 -558 
Q 1572 -641 1856 -641 
Q 2406 -641 2662 -400 
Q 2919 -159 2919 353 
L 2919 594 
z
M 2181 2772 
Q 1834 2772 1640 2515 
Q 1447 2259 1447 1791 
Q 1447 1309 1634 1061 
Q 1822 813 2181 813 
Q 2531 813 2725 1069 
Q 2919 1325 2919 1791 
Q 2919 2259 2725 2515 
Q 2531 2772 2181 2772 
z
" transform="scale(0.015625)"/>
      <path id="DejaVuSans-Bold-69" d="M 538 3500 
L 1656 3500 
L 1656 0 
L 538 0 
L 538 3500 
z
M 538 4863 
L 1656 4863 
L 1656 3950 
L 538 3950 
L 538 4863 
z
" transform="scale(0.015625)"/>
      <path id="DejaVuSans-Bold-63" d="M 3366 3391 
L 3366 2478 
Q 3138 2634 2908 2709 
Q 2678 2784 2431 2784 
Q 1963 2784 1702 2511 
Q 1441 2238 1441 1747 
Q 1441 1256 1702 982 
Q 1963 709 2431 709 
Q 2694 709 2930 787 
Q 3166 866 3366 1019 
L 3366 103 
Q 3103 6 2833 -42 
Q 2563 -91 2291 -91 
Q 1344 -91 809 395 
Q 275 881 275 1747 
Q 275 2613 809 3098 
Q 1344 3584 2291 3584 
Q 2566 3584 2833 3536 
Q 3100 3488 3366 3391 
z
" transform="scale(0.015625)"/>
      <path id="DejaVuSans-Bold-44" d="M 1791 3756 
L 1791 909 
L 2222 909 
Q 2959 909 3348 1275 
Q 3738 1641 3738 2338 
Q 3738 3031 3350 3393 
Q 2963 3756 2222 3756 
L 1791 3756 
z
M 588 4666 
L 1856 4666 
Q 2919 4666 3439 4514 
Q 3959 4363 4331 4000 
Q 4659 3684 4818 3271 
Q 4978 2859 4978 2338 
Q 4978 1809 4818 1395 
Q 4659 981 4331 666 
Q 3956 303 3431 151 
Q 2906 0 1856 0 
L 588 0 
L 588 4666 
z
" transform="scale(0.015625)"/>
      <path id="DejaVuSans-Bold-6f" d="M 2203 2784 
Q 1831 2784 1636 2517 
Q 1441 2250 1441 1747 
Q 1441 1244 1636 976 
Q 1831 709 2203 709 
Q 2569 709 2762 976 
Q 2956 1244 2956 1747 
Q 2956 2250 2762 2517 
Q 2569 2784 2203 2784 
z
M 2203 3584 
Q 3106 3584 3614 3096 
Q 4122 2609 4122 1747 
Q 4122 884 3614 396 
Q 3106 -91 2203 -91 
Q 1297 -91 786 396 
Q 275 884 275 1747 
Q 275 2609 786 3096 
Q 1297 3584 2203 3584 
z
" transform="scale(0.015625)"/>
      <path id="DejaVuSans-Bold-6e" d="M 4056 2131 
L 4056 0 
L 2931 0 
L 2931 347 
L 2931 1631 
Q 2931 2084 2911 2256 
Q 2891 2428 2841 2509 
Q 2775 2619 2662 2680 
Q 2550 2741 2406 2741 
Q 2056 2741 1856 2470 
Q 1656 2200 1656 1722 
L 1656 0 
L 538 0 
L 538 3500 
L 1656 3500 
L 1656 2988 
Q 1909 3294 2193 3439 
Q 2478 3584 2822 3584 
Q 3428 3584 3742 3212 
Q 4056 2841 4056 2131 
z
" transform="scale(0.015625)"/>
     </defs>
     <use xlink:href="#DejaVuSans-Bold-53"/>
     <use xlink:href="#DejaVuSans-Bold-74" transform="translate(72.021484 0)"/>
     <use xlink:href="#DejaVuSans-Bold-72" transform="translate(119.824219 0)"/>
     <use xlink:href="#DejaVuSans-Bold-61" transform="translate(169.140625 0)"/>
     <use xlink:href="#DejaVuSans-Bold-74" transform="translate(236.621094 0)"/>
     <use xlink:href="#DejaVuSans-Bold-65" transform="translate(284.423828 0)"/>
     <use xlink:href="#DejaVuSans-Bold-67" transform="translate(352.246094 0)"/>
     <use xlink:href="#DejaVuSans-Bold-69" transform="translate(423.828125 0)"/>
     <use xlink:href="#DejaVuSans-Bold-63" transform="translate(458.105469 0)"/>
     <use xlink:href="#DejaVuSans-Bold-20" transform="translate(517.382812 0)"/>
     <use xlink:href="#DejaVuSans-Bold-44" transform="translate(552.197266 0)"/>
     <use xlink:href="#DejaVuSans-Bold-69" transform="translate(635.205078 0)"/>
     <use xlink:href="#DejaVuSans-Bold-72" transform="translate(669.482422 0)"/>
     <use xlink:href="#DejaVuSans-Bold-65" transform="translate(718.798828 0)"/>
     <use xlink:href="#DejaVuSans-Bold-63" transform="translate(786.621094 0)"/>
     <use xlink:href="#DejaVuSans-Bold-74" transform="translate(845.898438 0)"/>
     <use xlink:href="#DejaVuSans-Bold-69" transform="translate(893.701172 0)"/>
     <use xlink:href="#DejaVuSans-Bold-6f" transform="translate(927.978516 0)"/>
     <use xlink:href="#DejaVuSans-Bold-6e" transform="translate(996.679688 0)"/>
    </g>
   </g>
   <g id="text_2">
    <g id="patch_9">
     <path d="M 758.901469 935.904344 
L 1074.290531 935.904344 
Q 1089.290531 935.904344 1089.290531 920.904344 
L 1089.290531 858.042156 
Q 1089.290531 843.042156 1074.290531 843.042156 
L 758.901469 843.042156 
Q 743.901469 843.042156 743.901469 858.042156 
L 743.901469 920.904344 
Q 743.901469 935.904344 758.901469 935.904344 
z
" style="opacity: 0.7; stroke: #000000; stroke-linejoin: miter"/>
    </g>
    <!-- Layer 2 -->
    <g style="fill: #ffffff" transform="translate(854.376469 880.603094) scale(0.3 -0.3)">
     <defs>
      <path id="DejaVuSans-Bold-32" d="M 1844 884 
L 3897 884 
L 3897 0 
L 506 0 
L 506 884 
L 2209 2388 
Q 2438 2594 2547 2791 
Q 2656 2988 2656 3200 
Q 2656 3528 2436 3728 
Q 2216 3928 1850 3928 
Q 1569 3928 1234 3808 
Q 900 3688 519 3450 
L 519 4475 
Q 925 4609 1322 4679 
Q 1719 4750 2100 4750 
Q 2938 4750 3402 4381 
Q 3866 4013 3866 3353 
Q 3866 2972 3669 2642 
Q 3472 2313 2841 1759 
L 1844 884 
z
" transform="scale(0.015625)"/>
     </defs>
     <use xlink:href="#DejaVuSans-Bold-4c"/>
     <use xlink:href="#DejaVuSans-Bold-61" transform="translate(63.720703 0)"/>
     <use xlink:href="#DejaVuSans-Bold-79" transform="translate(128.076172 0)"/>
     <use xlink:href="#DejaVuSans-Bold-65" transform="translate(193.261719 0)"/>
     <use xlink:href="#DejaVuSans-Bold-72" transform="translate(261.083984 0)"/>
     <use xlink:href="#DejaVuSans-Bold-20" transform="translate(310.400391 0)"/>
     <use xlink:href="#DejaVuSans-Bold-32" transform="translate(345.214844 0)"/>
    </g>
    <!-- Policy Formulation -->
    <g style="fill: #ffffff" transform="translate(758.901469 914.430906) scale(0.3 -0.3)">
     <defs>
      <path id="DejaVuSans-Bold-50" d="M 588 4666 
L 2584 4666 
Q 3475 4666 3951 4270 
Q 4428 3875 4428 3144 
Q 4428 2409 3951 2014 
Q 3475 1619 2584 1619 
L 1791 1619 
L 1791 0 
L 588 0 
L 588 4666 
z
M 1791 3794 
L 1791 2491 
L 2456 2491 
Q 2806 2491 2997 2661 
Q 3188 2831 3188 3144 
Q 3188 3456 2997 3625 
Q 2806 3794 2456 3794 
L 1791 3794 
z
" transform="scale(0.015625)"/>
      <path id="DejaVuSans-Bold-6c" d="M 538 4863 
L 1656 4863 
L 1656 0 
L 538 0 
L 538 4863 
z
" transform="scale(0.015625)"/>
      <path id="DejaVuSans-Bold-46" d="M 588 4666 
L 3834 4666 
L 3834 3756 
L 1791 3756 
L 1791 2888 
L 3713 2888 
L 3713 1978 
L 1791 1978 
L 1791 0 
L 588 0 
L 588 4666 
z
" transform="scale(0.015625)"/>
      <path id="DejaVuSans-Bold-6d" d="M 3781 2919 
Q 3994 3244 4286 3414 
Q 4578 3584 4928 3584 
Q 5531 3584 5847 3212 
Q 6163 2841 6163 2131 
L 6163 0 
L 5038 0 
L 5038 1825 
Q 5041 1866 5042 1909 
Q 5044 1953 5044 2034 
Q 5044 2406 4934 2573 
Q 4825 2741 4581 2741 
Q 4263 2741 4089 2478 
Q 3916 2216 3909 1719 
L 3909 0 
L 2784 0 
L 2784 1825 
Q 2784 2406 2684 2573 
Q 2584 2741 2328 2741 
Q 2006 2741 1831 2477 
Q 1656 2213 1656 1722 
L 1656 0 
L 531 0 
L 531 3500 
L 1656 3500 
L 1656 2988 
Q 1863 3284 2130 3434 
Q 2397 3584 2719 3584 
Q 3081 3584 3359 3409 
Q 3638 3234 3781 2919 
z
" transform="scale(0.015625)"/>
      <path id="DejaVuSans-Bold-75" d="M 500 1363 
L 500 3500 
L 1625 3500 
L 1625 3150 
Q 1625 2866 1622 2436 
Q 1619 2006 1619 1863 
Q 1619 1441 1641 1255 
Q 1663 1069 1716 984 
Q 1784 875 1895 815 
Q 2006 756 2150 756 
Q 2500 756 2700 1025 
Q 2900 1294 2900 1772 
L 2900 3500 
L 4019 3500 
L 4019 0 
L 2900 0 
L 2900 506 
Q 2647 200 2364 54 
Q 2081 -91 1741 -91 
Q 1134 -91 817 281 
Q 500 653 500 1363 
z
" transform="scale(0.015625)"/>
     </defs>
     <use xlink:href="#DejaVuSans-Bold-50"/>
     <use xlink:href="#DejaVuSans-Bold-6f" transform="translate(73.291016 0)"/>
     <use xlink:href="#DejaVuSans-Bold-6c" transform="translate(141.992188 0)"/>
     <use xlink:href="#DejaVuSans-Bold-69" transform="translate(176.269531 0)"/>
     <use xlink:href="#DejaVuSans-Bold-63" transform="translate(210.546875 0)"/>
     <use xlink:href="#DejaVuSans-Bold-79" transform="translate(269.824219 0)"/>
     <use xlink:href="#DejaVuSans-Bold-20" transform="translate(335.009766 0)"/>
     <use xlink:href="#DejaVuSans-Bold-46" transform="translate(369.824219 0)"/>
     <use xlink:href="#DejaVuSans-Bold-6f" transform="translate(434.134766 0)"/>
     <use xlink:href="#DejaVuSans-Bold-72" transform="translate(502.835938 0)"/>
     <use xlink:href="#DejaVuSans-Bold-6d" transform="translate(552.152344 0)"/>
     <use xlink:href="#DejaVuSans-Bold-75" transform="translate(656.351562 0)"/>
     <use xlink:href="#DejaVuSans-Bold-6c" transform="translate(727.542969 0)"/>
     <use xlink:href="#DejaVuSans-Bold-61" transform="translate(761.820312 0)"/>
     <use xlink:href="#DejaVuSans-Bold-74" transform="translate(829.300781 0)"/>
     <use xlink:href="#DejaVuSans-Bold-69" transform="translate(877.103516 0)"/>
     <use xlink:href="#DejaVuSans-Bold-6f" transform="translate(911.380859 0)"/>
     <use xlink:href="#DejaVuSans-Bold-6e" transform="translate(980.082031 0)"/>
    </g>
   </g>
   <g id="text_3">
    <g id="patch_10">
     <path d="M 771.48975 803.284094 
L 1061.70225 803.284094 
Q 1076.70225 803.284094 1076.70225 788.284094 
L 1076.70225 725.421906 
Q 1076.70225 710.421906 1061.70225 710.421906 
L 771.48975 710.421906 
Q 756.48975 710.421906 756.48975 725.421906 
L 756.48975 788.284094 
Q 756.48975 803.284094 771.48975 803.284094 
z
" style="opacity: 0.7; stroke: #000000; stroke-linejoin: miter"/>
    </g>
    <!-- Layer 3 -->
    <g style="fill: #ffffff" transform="translate(854.376469 747.982844) scale(0.3 -0.3)">
     <defs>
      <path id="DejaVuSans-Bold-33" d="M 2981 2516 
Q 3453 2394 3698 2092 
Q 3944 1791 3944 1325 
Q 3944 631 3412 270 
Q 2881 -91 1863 -91 
Q 1503 -91 1142 -33 
Q 781 25 428 141 
L 428 1069 
Q 766 900 1098 814 
Q 1431 728 1753 728 
Q 2231 728 2486 893 
Q 2741 1059 2741 1369 
Q 2741 1688 2480 1852 
Q 2219 2016 1709 2016 
L 1228 2016 
L 1228 2791 
L 1734 2791 
Q 2188 2791 2409 2933 
Q 2631 3075 2631 3366 
Q 2631 3634 2415 3781 
Q 2200 3928 1806 3928 
Q 1516 3928 1219 3862 
Q 922 3797 628 3669 
L 628 4550 
Q 984 4650 1334 4700 
Q 1684 4750 2022 4750 
Q 2931 4750 3382 4451 
Q 3834 4153 3834 3553 
Q 3834 3144 3618 2883 
Q 3403 2622 2981 2516 
z
" transform="scale(0.015625)"/>
     </defs>
     <use xlink:href="#DejaVuSans-Bold-4c"/>
     <use xlink:href="#DejaVuSans-Bold-61" transform="translate(63.720703 0)"/>
     <use xlink:href="#DejaVuSans-Bold-79" transform="translate(128.076172 0)"/>
     <use xlink:href="#DejaVuSans-Bold-65" transform="translate(193.261719 0)"/>
     <use xlink:href="#DejaVuSans-Bold-72" transform="translate(261.083984 0)"/>
     <use xlink:href="#DejaVuSans-Bold-20" transform="translate(310.400391 0)"/>
     <use xlink:href="#DejaVuSans-Bold-33" transform="translate(345.214844 0)"/>
    </g>
    <!-- Legal Framework -->
    <g style="fill: #ffffff" transform="translate(771.48975 781.810656) scale(0.3 -0.3)">
     <defs>
      <path id="DejaVuSans-Bold-77" d="M 225 3500 
L 1313 3500 
L 1900 1088 
L 2491 3500 
L 3425 3500 
L 4013 1113 
L 4603 3500 
L 5691 3500 
L 4769 0 
L 3547 0 
L 2956 2406 
L 2369 0 
L 1147 0 
L 225 3500 
z
" transform="scale(0.015625)"/>
      <path id="DejaVuSans-Bold-6b" d="M 538 4863 
L 1656 4863 
L 1656 2216 
L 2944 3500 
L 4244 3500 
L 2534 1894 
L 4378 0 
L 3022 0 
L 1656 1459 
L 1656 0 
L 538 0 
L 538 4863 
z
" transform="scale(0.015625)"/>
     </defs>
     <use xlink:href="#DejaVuSans-Bold-4c"/>
     <use xlink:href="#DejaVuSans-Bold-65" transform="translate(63.720703 0)"/>
     <use xlink:href="#DejaVuSans-Bold-67" transform="translate(131.542969 0)"/>
     <use xlink:href="#DejaVuSans-Bold-61" transform="translate(203.125 0)"/>
     <use xlink:href="#DejaVuSans-Bold-6c" transform="translate(270.605469 0)"/>
     <use xlink:href="#DejaVuSans-Bold-20" transform="translate(304.882812 0)"/>
     <use xlink:href="#DejaVuSans-Bold-46" transform="translate(339.697266 0)"/>
     <use xlink:href="#DejaVuSans-Bold-72" transform="translate(401.632812 0)"/>
     <use xlink:href="#DejaVuSans-Bold-61" transform="translate(450.949219 0)"/>
     <use xlink:href="#DejaVuSans-Bold-6d" transform="translate(518.429688 0)"/>
     <use xlink:href="#DejaVuSans-Bold-65" transform="translate(622.628906 0)"/>
     <use xlink:href="#DejaVuSans-Bold-77" transform="translate(690.451172 0)"/>
     <use xlink:href="#DejaVuSans-Bold-6f" transform="translate(782.833984 0)"/>
     <use xlink:href="#DejaVuSans-Bold-72" transform="translate(851.535156 0)"/>
     <use xlink:href="#DejaVuSans-Bold-6b" transform="translate(900.851562 0)"/>
    </g>
   </g>
   <g id="text_4">
    <g id="patch_11">
     <path d="M 698.47725 651.600906 
L 1134.71475 651.600906 
Q 1149.71475 651.600906 1149.71475 636.600906 
L 1149.71475 573.738719 
Q 1149.71475 558.738719 1134.71475 558.738719 
L 698.47725 558.738719 
Q 683.47725 558.738719 683.47725 573.738719 
L 683.47725 636.600906 
Q 683.47725 651.600906 698.47725 651.600906 
z
" style="opacity: 0.7; stroke: #000000; stroke-linejoin: miter"/>
    </g>
    <!-- Layer 4 -->
    <g style="fill: #ffffff" transform="translate(854.376469 596.534031) scale(0.3 -0.3)">
     <defs>
      <path id="DejaVuSans-Bold-34" d="M 2356 3675 
L 1038 1722 
L 2356 1722 
L 2356 3675 
z
M 2156 4666 
L 3494 4666 
L 3494 1722 
L 4159 1722 
L 4159 850 
L 3494 850 
L 3494 0 
L 2356 0 
L 2356 850 
L 288 850 
L 288 1881 
L 2156 4666 
z
" transform="scale(0.015625)"/>
     </defs>
     <use xlink:href="#DejaVuSans-Bold-4c"/>
     <use xlink:href="#DejaVuSans-Bold-61" transform="translate(63.720703 0)"/>
     <use xlink:href="#DejaVuSans-Bold-79" transform="translate(128.076172 0)"/>
     <use xlink:href="#DejaVuSans-Bold-65" transform="translate(193.261719 0)"/>
     <use xlink:href="#DejaVuSans-Bold-72" transform="translate(261.083984 0)"/>
     <use xlink:href="#DejaVuSans-Bold-20" transform="translate(310.400391 0)"/>
     <use xlink:href="#DejaVuSans-Bold-34" transform="translate(345.214844 0)"/>
    </g>
    <!-- Institutional Coordination -->
    <g style="fill: #ffffff" transform="translate(698.47725 630.361844) scale(0.3 -0.3)">
     <defs>
      <path id="DejaVuSans-Bold-49" d="M 588 4666 
L 1791 4666 
L 1791 0 
L 588 0 
L 588 4666 
z
" transform="scale(0.015625)"/>
      <path id="DejaVuSans-Bold-73" d="M 3272 3391 
L 3272 2541 
Q 2913 2691 2578 2766 
Q 2244 2841 1947 2841 
Q 1628 2841 1473 2761 
Q 1319 2681 1319 2516 
Q 1319 2381 1436 2309 
Q 1553 2238 1856 2203 
L 2053 2175 
Q 2913 2066 3209 1816 
Q 3506 1566 3506 1031 
Q 3506 472 3093 190 
Q 2681 -91 1863 -91 
Q 1516 -91 1145 -36 
Q 775 19 384 128 
L 384 978 
Q 719 816 1070 734 
Q 1422 653 1784 653 
Q 2113 653 2278 743 
Q 2444 834 2444 1013 
Q 2444 1163 2330 1236 
Q 2216 1309 1875 1350 
L 1678 1375 
Q 931 1469 631 1722 
Q 331 1975 331 2491 
Q 331 3047 712 3315 
Q 1094 3584 1881 3584 
Q 2191 3584 2531 3537 
Q 2872 3491 3272 3391 
z
" transform="scale(0.015625)"/>
      <path id="DejaVuSans-Bold-43" d="M 4288 256 
Q 3956 84 3597 -3 
Q 3238 -91 2847 -91 
Q 1681 -91 1000 561 
Q 319 1213 319 2328 
Q 319 3447 1000 4098 
Q 1681 4750 2847 4750 
Q 3238 4750 3597 4662 
Q 3956 4575 4288 4403 
L 4288 3438 
Q 3953 3666 3628 3772 
Q 3303 3878 2944 3878 
Q 2300 3878 1931 3465 
Q 1563 3053 1563 2328 
Q 1563 1606 1931 1193 
Q 2300 781 2944 781 
Q 3303 781 3628 887 
Q 3953 994 4288 1222 
L 4288 256 
z
" transform="scale(0.015625)"/>
      <path id="DejaVuSans-Bold-64" d="M 2919 2988 
L 2919 4863 
L 4044 4863 
L 4044 0 
L 2919 0 
L 2919 506 
Q 2688 197 2409 53 
Q 2131 -91 1766 -91 
Q 1119 -91 703 423 
Q 288 938 288 1747 
Q 288 2556 703 3070 
Q 1119 3584 1766 3584 
Q 2128 3584 2408 3439 
Q 2688 3294 2919 2988 
z
M 2181 722 
Q 2541 722 2730 984 
Q 2919 1247 2919 1747 
Q 2919 2247 2730 2509 
Q 2541 2772 2181 2772 
Q 1825 2772 1636 2509 
Q 1447 2247 1447 1747 
Q 1447 1247 1636 984 
Q 1825 722 2181 722 
z
" transform="scale(0.015625)"/>
     </defs>
     <use xlink:href="#DejaVuSans-Bold-49"/>
     <use xlink:href="#DejaVuSans-Bold-6e" transform="translate(37.207031 0)"/>
     <use xlink:href="#DejaVuSans-Bold-73" transform="translate(108.398438 0)"/>
     <use xlink:href="#DejaVuSans-Bold-74" transform="translate(167.919922 0)"/>
     <use xlink:href="#DejaVuSans-Bold-69" transform="translate(215.722656 0)"/>
     <use xlink:href="#DejaVuSans-Bold-74" transform="translate(250 0)"/>
     <use xlink:href="#DejaVuSans-Bold-75" transform="translate(297.802734 0)"/>
     <use xlink:href="#DejaVuSans-Bold-74" transform="translate(368.994141 0)"/>
     <use xlink:href="#DejaVuSans-Bold-69" transform="translate(416.796875 0)"/>
     <use xlink:href="#DejaVuSans-Bold-6f" transform="translate(451.074219 0)"/>
     <use xlink:href="#DejaVuSans-Bold-6e" transform="translate(519.775391 0)"/>
     <use xlink:href="#DejaVuSans-Bold-61" transform="translate(590.966797 0)"/>
     <use xlink:href="#DejaVuSans-Bold-6c" transform="translate(658.447266 0)"/>
     <use xlink:href="#DejaVuSans-Bold-20" transform="translate(692.724609 0)"/>
     <use xlink:href="#DejaVuSans-Bold-43" transform="translate(727.539062 0)"/>
     <use xlink:href="#DejaVuSans-Bold-6f" transform="translate(800.927734 0)"/>
     <use xlink:href="#DejaVuSans-Bold-6f" transform="translate(869.628906 0)"/>
     <use xlink:href="#DejaVuSans-Bold-72" transform="translate(938.330078 0)"/>
     <use xlink:href="#DejaVuSans-Bold-64" transform="translate(987.646484 0)"/>
     <use xlink:href="#DejaVuSans-Bold-69" transform="translate(1059.228516 0)"/>
     <use xlink:href="#DejaVuSans-Bold-6e" transform="translate(1093.505859 0)"/>
     <use xlink:href="#DejaVuSans-Bold-61" transform="translate(1164.697266 0)"/>
     <use xlink:href="#DejaVuSans-Bold-74" transform="translate(1232.177734 0)"/>
     <use xlink:href="#DejaVuSans-Bold-69" transform="translate(1279.980469 0)"/>
     <use xlink:href="#DejaVuSans-Bold-6f" transform="translate(1314.257812 0)"/>
     <use xlink:href="#DejaVuSans-Bold-6e" transform="translate(1382.958984 0)"/>
    </g>
   </g>
   <g id="text_5">
    <g id="patch_12">
     <path d="M 672.93975 500.034906 
L 1160.25225 500.034906 
Q 1175.25225 500.034906 1175.25225 485.034906 
L 1175.25225 422.172719 
Q 1175.25225 407.172719 1160.25225 407.172719 
L 672.93975 407.172719 
Q 657.93975 407.172719 657.93975 422.172719 
L 657.93975 485.034906 
Q 657.93975 500.034906 672.93975 500.034906 
z
" style="opacity: 0.7; stroke: #000000; stroke-linejoin: miter"/>
    </g>
    <!-- Layer 5 -->
    <g style="fill: #ffffff" transform="translate(854.376469 444.968031) scale(0.3 -0.3)">
     <defs>
      <path id="DejaVuSans-Bold-35" d="M 678 4666 
L 3669 4666 
L 3669 3781 
L 1638 3781 
L 1638 3059 
Q 1775 3097 1914 3117 
Q 2053 3138 2203 3138 
Q 3056 3138 3531 2711 
Q 4006 2284 4006 1522 
Q 4006 766 3489 337 
Q 2972 -91 2053 -91 
Q 1656 -91 1267 -14 
Q 878 63 494 219 
L 494 1166 
Q 875 947 1217 837 
Q 1559 728 1863 728 
Q 2300 728 2551 942 
Q 2803 1156 2803 1522 
Q 2803 1891 2551 2103 
Q 2300 2316 1863 2316 
Q 1603 2316 1309 2248 
Q 1016 2181 678 2041 
L 678 4666 
z
" transform="scale(0.015625)"/>
     </defs>
     <use xlink:href="#DejaVuSans-Bold-4c"/>
     <use xlink:href="#DejaVuSans-Bold-61" transform="translate(63.720703 0)"/>
     <use xlink:href="#DejaVuSans-Bold-79" transform="translate(128.076172 0)"/>
     <use xlink:href="#DejaVuSans-Bold-65" transform="translate(193.261719 0)"/>
     <use xlink:href="#DejaVuSans-Bold-72" transform="translate(261.083984 0)"/>
     <use xlink:href="#DejaVuSans-Bold-20" transform="translate(310.400391 0)"/>
     <use xlink:href="#DejaVuSans-Bold-35" transform="translate(345.214844 0)"/>
    </g>
    <!-- Implementation Mechanisms -->
    <g style="fill: #ffffff" transform="translate(672.93975 478.795844) scale(0.3 -0.3)">
     <defs>
      <path id="DejaVuSans-Bold-70" d="M 1656 506 
L 1656 -1331 
L 538 -1331 
L 538 3500 
L 1656 3500 
L 1656 2988 
Q 1888 3294 2169 3439 
Q 2450 3584 2816 3584 
Q 3463 3584 3878 3070 
Q 4294 2556 4294 1747 
Q 4294 938 3878 423 
Q 3463 -91 2816 -91 
Q 2450 -91 2169 54 
Q 1888 200 1656 506 
z
M 2400 2772 
Q 2041 2772 1848 2508 
Q 1656 2244 1656 1747 
Q 1656 1250 1848 986 
Q 2041 722 2400 722 
Q 2759 722 2948 984 
Q 3138 1247 3138 1747 
Q 3138 2247 2948 2509 
Q 2759 2772 2400 2772 
z
" transform="scale(0.015625)"/>
      <path id="DejaVuSans-Bold-4d" d="M 588 4666 
L 2119 4666 
L 3181 2169 
L 4250 4666 
L 5778 4666 
L 5778 0 
L 4641 0 
L 4641 3413 
L 3566 897 
L 2803 897 
L 1728 3413 
L 1728 0 
L 588 0 
L 588 4666 
z
" transform="scale(0.015625)"/>
      <path id="DejaVuSans-Bold-68" d="M 4056 2131 
L 4056 0 
L 2931 0 
L 2931 347 
L 2931 1625 
Q 2931 2084 2911 2256 
Q 2891 2428 2841 2509 
Q 2775 2619 2662 2680 
Q 2550 2741 2406 2741 
Q 2056 2741 1856 2470 
Q 1656 2200 1656 1722 
L 1656 0 
L 538 0 
L 538 4863 
L 1656 4863 
L 1656 2988 
Q 1909 3294 2193 3439 
Q 2478 3584 2822 3584 
Q 3428 3584 3742 3212 
Q 4056 2841 4056 2131 
z
" transform="scale(0.015625)"/>
     </defs>
     <use xlink:href="#DejaVuSans-Bold-49"/>
     <use xlink:href="#DejaVuSans-Bold-6d" transform="translate(37.207031 0)"/>
     <use xlink:href="#DejaVuSans-Bold-70" transform="translate(141.40625 0)"/>
     <use xlink:href="#DejaVuSans-Bold-6c" transform="translate(212.988281 0)"/>
     <use xlink:href="#DejaVuSans-Bold-65" transform="translate(247.265625 0)"/>
     <use xlink:href="#DejaVuSans-Bold-6d" transform="translate(315.087891 0)"/>
     <use xlink:href="#DejaVuSans-Bold-65" transform="translate(419.287109 0)"/>
     <use xlink:href="#DejaVuSans-Bold-6e" transform="translate(487.109375 0)"/>
     <use xlink:href="#DejaVuSans-Bold-74" transform="translate(558.300781 0)"/>
     <use xlink:href="#DejaVuSans-Bold-61" transform="translate(606.103516 0)"/>
     <use xlink:href="#DejaVuSans-Bold-74" transform="translate(673.583984 0)"/>
     <use xlink:href="#DejaVuSans-Bold-69" transform="translate(721.386719 0)"/>
     <use xlink:href="#DejaVuSans-Bold-6f" transform="translate(755.664062 0)"/>
     <use xlink:href="#DejaVuSans-Bold-6e" transform="translate(824.365234 0)"/>
     <use xlink:href="#DejaVuSans-Bold-20" transform="translate(895.556641 0)"/>
     <use xlink:href="#DejaVuSans-Bold-4d" transform="translate(930.371094 0)"/>
     <use xlink:href="#DejaVuSans-Bold-65" transform="translate(1029.882812 0)"/>
     <use xlink:href="#DejaVuSans-Bold-63" transform="translate(1097.705078 0)"/>
     <use xlink:href="#DejaVuSans-Bold-68" transform="translate(1156.982422 0)"/>
     <use xlink:href="#DejaVuSans-Bold-61" transform="translate(1228.173828 0)"/>
     <use xlink:href="#DejaVuSans-Bold-6e" transform="translate(1295.654297 0)"/>
     <use xlink:href="#DejaVuSans-Bold-69" transform="translate(1366.845703 0)"/>
     <use xlink:href="#DejaVuSans-Bold-73" transform="translate(1401.123047 0)"/>
     <use xlink:href="#DejaVuSans-Bold-6d" transform="translate(1460.644531 0)"/>
     <use xlink:href="#DejaVuSans-Bold-73" transform="translate(1564.84375 0)"/>
    </g>
   </g>
   <g id="text_6">
    <g id="patch_13">
     <path d="M 763.762406 348.468906 
L 1069.429594 348.468906 
Q 1084.429594 348.468906 1084.429594 333.468906 
L 1084.429594 270.606719 
Q 1084.429594 255.606719 1069.429594 255.606719 
L 763.762406 255.606719 
Q 748.762406 255.606719 748.762406 270.606719 
L 748.762406 333.468906 
Q 748.762406 348.468906 763.762406 348.468906 
z
" style="opacity: 0.7; stroke: #000000; stroke-linejoin: miter"/>
    </g>
    <!-- Layer 6 -->
    <g style="fill: #ffffff" transform="translate(854.376469 293.402031) scale(0.3 -0.3)">
     <defs>
      <path id="DejaVuSans-Bold-36" d="M 2316 2303 
Q 2000 2303 1842 2098 
Q 1684 1894 1684 1484 
Q 1684 1075 1842 870 
Q 2000 666 2316 666 
Q 2634 666 2792 870 
Q 2950 1075 2950 1484 
Q 2950 1894 2792 2098 
Q 2634 2303 2316 2303 
z
M 3803 4544 
L 3803 3681 
Q 3506 3822 3243 3889 
Q 2981 3956 2731 3956 
Q 2194 3956 1894 3657 
Q 1594 3359 1544 2772 
Q 1750 2925 1990 3001 
Q 2231 3078 2516 3078 
Q 3231 3078 3670 2659 
Q 4109 2241 4109 1563 
Q 4109 813 3618 361 
Q 3128 -91 2303 -91 
Q 1394 -91 895 523 
Q 397 1138 397 2266 
Q 397 3422 980 4083 
Q 1563 4744 2578 4744 
Q 2900 4744 3203 4694 
Q 3506 4644 3803 4544 
z
" transform="scale(0.015625)"/>
     </defs>
     <use xlink:href="#DejaVuSans-Bold-4c"/>
     <use xlink:href="#DejaVuSans-Bold-61" transform="translate(63.720703 0)"/>
     <use xlink:href="#DejaVuSans-Bold-79" transform="translate(128.076172 0)"/>
     <use xlink:href="#DejaVuSans-Bold-65" transform="translate(193.261719 0)"/>
     <use xlink:href="#DejaVuSans-Bold-72" transform="translate(261.083984 0)"/>
     <use xlink:href="#DejaVuSans-Bold-20" transform="translate(310.400391 0)"/>
     <use xlink:href="#DejaVuSans-Bold-36" transform="translate(345.214844 0)"/>
    </g>
    <!-- Execution Entities -->
    <g style="fill: #ffffff" transform="translate(763.762406 327.229844) scale(0.3 -0.3)">
     <defs>
      <path id="DejaVuSans-Bold-45" d="M 588 4666 
L 3834 4666 
L 3834 3756 
L 1791 3756 
L 1791 2888 
L 3713 2888 
L 3713 1978 
L 1791 1978 
L 1791 909 
L 3903 909 
L 3903 0 
L 588 0 
L 588 4666 
z
" transform="scale(0.015625)"/>
      <path id="DejaVuSans-Bold-78" d="M 1422 1791 
L 159 3500 
L 1344 3500 
L 2059 2463 
L 2784 3500 
L 3969 3500 
L 2706 1797 
L 4031 0 
L 2847 0 
L 2059 1106 
L 1281 0 
L 97 0 
L 1422 1791 
z
" transform="scale(0.015625)"/>
     </defs>
     <use xlink:href="#DejaVuSans-Bold-45"/>
     <use xlink:href="#DejaVuSans-Bold-78" transform="translate(68.310547 0)"/>
     <use xlink:href="#DejaVuSans-Bold-65" transform="translate(132.8125 0)"/>
     <use xlink:href="#DejaVuSans-Bold-63" transform="translate(200.634766 0)"/>
     <use xlink:href="#DejaVuSans-Bold-75" transform="translate(259.912109 0)"/>
     <use xlink:href="#DejaVuSans-Bold-74" transform="translate(331.103516 0)"/>
     <use xlink:href="#DejaVuSans-Bold-69" transform="translate(378.90625 0)"/>
     <use xlink:href="#DejaVuSans-Bold-6f" transform="translate(413.183594 0)"/>
     <use xlink:href="#DejaVuSans-Bold-6e" transform="translate(481.884766 0)"/>
     <use xlink:href="#DejaVuSans-Bold-20" transform="translate(553.076172 0)"/>
     <use xlink:href="#DejaVuSans-Bold-45" transform="translate(587.890625 0)"/>
     <use xlink:href="#DejaVuSans-Bold-6e" transform="translate(656.201172 0)"/>
     <use xlink:href="#DejaVuSans-Bold-74" transform="translate(727.392578 0)"/>
     <use xlink:href="#DejaVuSans-Bold-69" transform="translate(775.195312 0)"/>
     <use xlink:href="#DejaVuSans-Bold-74" transform="translate(809.472656 0)"/>
     <use xlink:href="#DejaVuSans-Bold-69" transform="translate(857.275391 0)"/>
     <use xlink:href="#DejaVuSans-Bold-65" transform="translate(891.552734 0)"/>
     <use xlink:href="#DejaVuSans-Bold-73" transform="translate(959.375 0)"/>
    </g>
   </g>
   <g id="patch_14">
    <path d="M 994.380654 1022.0935 
Q 1049.216833 1022.0935 1100.698911 1022.0935 
" style="fill: none; opacity: 0.8; stroke: #ffffff; stroke-width: 3; stroke-linecap: round"/>
    <path d="M 1096.698911 1020.0935 
L 1100.698911 1022.0935 
L 1096.698911 1024.0935 
" style="fill: none; opacity: 0.8; stroke: #ffffff; stroke-width: 3; stroke-linecap: round"/>
   </g>
   <g id="patch_15">
    <path d="M 1108.05631 1022.0935 
Q 1181.83604 1022.0935 1252.261668 1022.0935 
" style="fill: none; opacity: 0.8; stroke: #ffffff; stroke-width: 3; stroke-linecap: round"/>
    <path d="M 1248.261668 1020.0935 
L 1252.261668 1022.0935 
L 1248.261668 1024.0935 
" style="fill: none; opacity: 0.8; stroke: #ffffff; stroke-width: 3; stroke-linecap: round"/>
   </g>
   <g id="patch_16">
    <path d="M 1259.62231 1022.0935 
Q 1333.40204 1022.0935 1403.827668 1022.0935 
" style="fill: none; opacity: 0.8; stroke: #ffffff; stroke-width: 3; stroke-linecap: round"/>
    <path d="M 1399.827668 1020.0935 
L 1403.827668 1022.0935 
L 1399.827668 1024.0935 
" style="fill: none; opacity: 0.8; stroke: #ffffff; stroke-width: 3; stroke-linecap: round"/>
   </g>
   <g id="patch_17">
    <path d="M 1411.18831 1022.0935 
Q 1484.96804 1022.0935 1555.393668 1022.0935 
" style="fill: none; opacity: 0.8; stroke: #ffffff; stroke-width: 3; stroke-linecap: round"/>
    <path d="M 1551.393668 1020.0935 
L 1555.393668 1022.0935 
L 1551.393668 1024.0935 
" style="fill: none; opacity: 0.8; stroke: #ffffff; stroke-width: 3; stroke-linecap: round"/>
   </g>
   <g id="patch_18">
    <path d="M 1562.75431 1022.0935 
Q 1636.53404 1022.0935 1706.959668 1022.0935 
" style="fill: none; opacity: 0.8; stroke: #ffffff; stroke-width: 3; stroke-linecap: round"/>
    <path d="M 1702.959668 1020.0935 
L 1706.959668 1022.0935 
L 1702.959668 1024.0935 
" style="fill: none; opacity: 0.8; stroke: #ffffff; stroke-width: 3; stroke-linecap: round"/>
   </g>
   <g id="patch_19">
    <path d="M 916.596 944.308846 
Q 916.596 889.472667 916.596 837.990589 
" style="fill: none; opacity: 0.8; stroke: #ffffff; stroke-width: 3; stroke-linecap: round"/>
    <path d="M 914.596 841.990589 
L 916.596 837.990589 
L 918.596 841.990589 
" style="fill: none; opacity: 0.8; stroke: #ffffff; stroke-width: 3; stroke-linecap: round"/>
   </g>
   <g id="patch_20">
    <path d="M 916.596 830.63319 
Q 916.596 756.85346 916.596 686.427832 
" style="fill: none; opacity: 0.8; stroke: #ffffff; stroke-width: 3; stroke-linecap: round"/>
    <path d="M 914.596 690.427832 
L 916.596 686.427832 
L 918.596 690.427832 
" style="fill: none; opacity: 0.8; stroke: #ffffff; stroke-width: 3; stroke-linecap: round"/>
   </g>
   <g id="patch_21">
    <path d="M 916.596 679.06719 
Q 916.596 605.28746 916.596 534.861832 
" style="fill: none; opacity: 0.8; stroke: #ffffff; stroke-width: 3; stroke-linecap: round"/>
    <path d="M 914.596 538.861832 
L 916.596 534.861832 
L 918.596 538.861832 
" style="fill: none; opacity: 0.8; stroke: #ffffff; stroke-width: 3; stroke-linecap: round"/>
   </g>
   <g id="patch_22">
    <path d="M 916.596 527.50119 
Q 916.596 453.72146 916.596 383.295832 
" style="fill: none; opacity: 0.8; stroke: #ffffff; stroke-width: 3; stroke-linecap: round"/>
    <path d="M 914.596 387.295832 
L 916.596 383.295832 
L 918.596 387.295832 
" style="fill: none; opacity: 0.8; stroke: #ffffff; stroke-width: 3; stroke-linecap: round"/>
   </g>
   <g id="patch_23">
    <path d="M 916.596 375.93519 
Q 916.596 302.15546 916.596 231.729832 
" style="fill: none; opacity: 0.8; stroke: #ffffff; stroke-width: 3; stroke-linecap: round"/>
    <path d="M 914.596 235.729832 
L 916.596 231.729832 
L 918.596 235.729832 
" style="fill: none; opacity: 0.8; stroke: #ffffff; stroke-width: 3; stroke-linecap: round"/>
   </g>
   <g id="patch_24">
    <path d="M 838.811346 1022.0935 
Q 783.975167 1022.0935 732.493089 1022.0935 
" style="fill: none; opacity: 0.8; stroke: #ffffff; stroke-width: 3; stroke-linecap: round"/>
    <path d="M 736.493089 1024.0935 
L 732.493089 1022.0935 
L 736.493089 1020.0935 
" style="fill: none; opacity: 0.8; stroke: #ffffff; stroke-width: 3; stroke-linecap: round"/>
   </g>
   <g id="patch_25">
    <path d="M 725.13569 1022.0935 
Q 651.35596 1022.0935 580.930332 1022.0935 
" style="fill: none; opacity: 0.8; stroke: #ffffff; stroke-width: 3; stroke-linecap: round"/>
    <path d="M 584.930332 1024.0935 
L 580.930332 1022.0935 
L 584.930332 1020.0935 
" style="fill: none; opacity: 0.8; stroke: #ffffff; stroke-width: 3; stroke-linecap: round"/>
   </g>
   <g id="patch_26">
    <path d="M 573.56969 1022.0935 
Q 499.78996 1022.0935 429.364332 1022.0935 
" style="fill: none; opacity: 0.8; stroke: #ffffff; stroke-width: 3; stroke-linecap: round"/>
    <path d="M 433.364332 1024.0935 
L 429.364332 1022.0935 
L 433.364332 1020.0935 
" style="fill: none; opacity: 0.8; stroke: #ffffff; stroke-width: 3; stroke-linecap: round"/>
   </g>
   <g id="patch_27">
    <path d="M 422.00369 1022.0935 
Q 348.22396 1022.0935 277.798332 1022.0935 
" style="fill: none; opacity: 0.8; stroke: #ffffff; stroke-width: 3; stroke-linecap: round"/>
    <path d="M 281.798332 1024.0935 
L 277.798332 1022.0935 
L 281.798332 1020.0935 
" style="fill: none; opacity: 0.8; stroke: #ffffff; stroke-width: 3; stroke-linecap: round"/>
   </g>
   <g id="patch_28">
    <path d="M 270.43769 1022.0935 
Q 196.65796 1022.0935 126.232332 1022.0935 
" style="fill: none; opacity: 0.8; stroke: #ffffff; stroke-width: 3; stroke-linecap: round"/>
    <path d="M 130.232332 1024.0935 
L 126.232332 1022.0935 
L 130.232332 1020.0935 
" style="fill: none; opacity: 0.8; stroke: #ffffff; stroke-width: 3; stroke-linecap: round"/>
   </g>
   <g id="patch_29">
    <path d="M 916.596 1099.878154 
Q 916.596 1154.714333 916.596 1206.196411 
" style="fill: none; opacity: 0.8; stroke: #ffffff; stroke-width: 3; stroke-linecap: round"/>
    <path d="M 918.596 1202.196411 
L 916.596 1206.196411 
L 914.596 1202.196411 
" style="fill: none; opacity: 0.8; stroke: #ffffff; stroke-width: 3; stroke-linecap: round"/>
   </g>
   <g id="patch_30">
    <path d="M 916.596 1213.55381 
Q 916.596 1287.33354 916.596 1357.759168 
" style="fill: none; opacity: 0.8; stroke: #ffffff; stroke-width: 3; stroke-linecap: round"/>
    <path d="M 918.596 1353.759168 
L 916.596 1357.759168 
L 914.596 1353.759168 
" style="fill: none; opacity: 0.8; stroke: #ffffff; stroke-width: 3; stroke-linecap: round"/>
   </g>
   <g id="patch_31">
    <path d="M 916.596 1365.11981 
Q 916.596 1438.89954 916.596 1509.325168 
" style="fill: none; opacity: 0.8; stroke: #ffffff; stroke-width: 3; stroke-linecap: round"/>
    <path d="M 918.596 1505.325168 
L 916.596 1509.325168 
L 914.596 1505.325168 
" style="fill: none; opacity: 0.8; stroke: #ffffff; stroke-width: 3; stroke-linecap: round"/>
   </g>
   <g id="patch_32">
    <path d="M 916.596 1516.68581 
Q 916.596 1590.46554 916.596 1660.891168 
" style="fill: none; opacity: 0.8; stroke: #ffffff; stroke-width: 3; stroke-linecap: round"/>
    <path d="M 918.596 1656.891168 
L 916.596 1660.891168 
L 914.596 1656.891168 
" style="fill: none; opacity: 0.8; stroke: #ffffff; stroke-width: 3; stroke-linecap: round"/>
   </g>
   <g id="patch_33">
    <path d="M 916.596 1668.25181 
Q 916.596 1742.03154 916.596 1812.457168 
" style="fill: none; opacity: 0.8; stroke: #ffffff; stroke-width: 3; stroke-linecap: round"/>
    <path d="M 918.596 1808.457168 
L 916.596 1812.457168 
L 914.596 1808.457168 
" style="fill: none; opacity: 0.8; stroke: #ffffff; stroke-width: 3; stroke-linecap: round"/>
   </g>
   <g id="text_7">
    <g id="patch_34">
     <path d="M 661.553187 2041.095625 
L 1171.638812 2041.095625 
Q 1199.638812 2041.095625 1199.638812 2013.095625 
L 1199.638812 1954.643 
Q 1199.638812 1926.643 1171.638812 1926.643 
L 661.553187 1926.643 
Q 633.553187 1926.643 633.553187 1954.643 
L 633.553187 2013.095625 
Q 633.553187 2041.095625 661.553187 2041.095625 
z
" style="fill: #ecf0f1; opacity: 0.9; stroke: #000000; stroke-linejoin: miter"/>
    </g>
    <!-- Flow Direction: Center  Outward -->
    <g transform="translate(680.225688 1975.918625) scale(0.28 -0.28)">
     <defs>
      <path id="DejaVuSans-46" d="M 628 4666 
L 3309 4666 
L 3309 4134 
L 1259 4134 
L 1259 2759 
L 3109 2759 
L 3109 2228 
L 1259 2228 
L 1259 0 
L 628 0 
L 628 4666 
z
" transform="scale(0.015625)"/>
      <path id="DejaVuSans-6c" d="M 603 4863 
L 1178 4863 
L 1178 0 
L 603 0 
L 603 4863 
z
" transform="scale(0.015625)"/>
      <path id="DejaVuSans-6f" d="M 1959 3097 
Q 1497 3097 1228 2736 
Q 959 2375 959 1747 
Q 959 1119 1226 758 
Q 1494 397 1959 397 
Q 2419 397 2687 759 
Q 2956 1122 2956 1747 
Q 2956 2369 2687 2733 
Q 2419 3097 1959 3097 
z
M 1959 3584 
Q 2709 3584 3137 3096 
Q 3566 2609 3566 1747 
Q 3566 888 3137 398 
Q 2709 -91 1959 -91 
Q 1206 -91 779 398 
Q 353 888 353 1747 
Q 353 2609 779 3096 
Q 1206 3584 1959 3584 
z
" transform="scale(0.015625)"/>
      <path id="DejaVuSans-77" d="M 269 3500 
L 844 3500 
L 1563 769 
L 2278 3500 
L 2956 3500 
L 3675 769 
L 4391 3500 
L 4966 3500 
L 4050 0 
L 3372 0 
L 2619 2869 
L 1863 0 
L 1184 0 
L 269 3500 
z
" transform="scale(0.015625)"/>
      <path id="DejaVuSans-20" transform="scale(0.015625)"/>
      <path id="DejaVuSans-44" d="M 1259 4147 
L 1259 519 
L 2022 519 
Q 2988 519 3436 956 
Q 3884 1394 3884 2338 
Q 3884 3275 3436 3711 
Q 2988 4147 2022 4147 
L 1259 4147 
z
M 628 4666 
L 1925 4666 
Q 3281 4666 3915 4102 
Q 4550 3538 4550 2338 
Q 4550 1131 3912 565 
Q 3275 0 1925 0 
L 628 0 
L 628 4666 
z
" transform="scale(0.015625)"/>
      <path id="DejaVuSans-69" d="M 603 3500 
L 1178 3500 
L 1178 0 
L 603 0 
L 603 3500 
z
M 603 4863 
L 1178 4863 
L 1178 4134 
L 603 4134 
L 603 4863 
z
" transform="scale(0.015625)"/>
      <path id="DejaVuSans-72" d="M 2631 2963 
Q 2534 3019 2420 3045 
Q 2306 3072 2169 3072 
Q 1681 3072 1420 2755 
Q 1159 2438 1159 1844 
L 1159 0 
L 581 0 
L 581 3500 
L 1159 3500 
L 1159 2956 
Q 1341 3275 1631 3429 
Q 1922 3584 2338 3584 
Q 2397 3584 2469 3576 
Q 2541 3569 2628 3553 
L 2631 2963 
z
" transform="scale(0.015625)"/>
      <path id="DejaVuSans-65" d="M 3597 1894 
L 3597 1613 
L 953 1613 
Q 991 1019 1311 708 
Q 1631 397 2203 397 
Q 2534 397 2845 478 
Q 3156 559 3463 722 
L 3463 178 
Q 3153 47 2828 -22 
Q 2503 -91 2169 -91 
Q 1331 -91 842 396 
Q 353 884 353 1716 
Q 353 2575 817 3079 
Q 1281 3584 2069 3584 
Q 2775 3584 3186 3129 
Q 3597 2675 3597 1894 
z
M 3022 2063 
Q 3016 2534 2758 2815 
Q 2500 3097 2075 3097 
Q 1594 3097 1305 2825 
Q 1016 2553 972 2059 
L 3022 2063 
z
" transform="scale(0.015625)"/>
      <path id="DejaVuSans-63" d="M 3122 3366 
L 3122 2828 
Q 2878 2963 2633 3030 
Q 2388 3097 2138 3097 
Q 1578 3097 1268 2742 
Q 959 2388 959 1747 
Q 959 1106 1268 751 
Q 1578 397 2138 397 
Q 2388 397 2633 464 
Q 2878 531 3122 666 
L 3122 134 
Q 2881 22 2623 -34 
Q 2366 -91 2075 -91 
Q 1284 -91 818 406 
Q 353 903 353 1747 
Q 353 2603 823 3093 
Q 1294 3584 2113 3584 
Q 2378 3584 2631 3529 
Q 2884 3475 3122 3366 
z
" transform="scale(0.015625)"/>
      <path id="DejaVuSans-74" d="M 1172 4494 
L 1172 3500 
L 2356 3500 
L 2356 3053 
L 1172 3053 
L 1172 1153 
Q 1172 725 1289 603 
Q 1406 481 1766 481 
L 2356 481 
L 2356 0 
L 1766 0 
Q 1100 0 847 248 
Q 594 497 594 1153 
L 594 3053 
L 172 3053 
L 172 3500 
L 594 3500 
L 594 4494 
L 1172 4494 
z
" transform="scale(0.015625)"/>
      <path id="DejaVuSans-6e" d="M 3513 2113 
L 3513 0 
L 2938 0 
L 2938 2094 
Q 2938 2591 2744 2837 
Q 2550 3084 2163 3084 
Q 1697 3084 1428 2787 
Q 1159 2491 1159 1978 
L 1159 0 
L 581 0 
L 581 3500 
L 1159 3500 
L 1159 2956 
Q 1366 3272 1645 3428 
Q 1925 3584 2291 3584 
Q 2894 3584 3203 3211 
Q 3513 2838 3513 2113 
z
" transform="scale(0.015625)"/>
      <path id="DejaVuSans-3a" d="M 750 794 
L 1409 794 
L 1409 0 
L 750 0 
L 750 794 
z
M 750 3309 
L 1409 3309 
L 1409 2516 
L 750 2516 
L 750 3309 
z
" transform="scale(0.015625)"/>
      <path id="DejaVuSans-43" d="M 4122 4306 
L 4122 3641 
Q 3803 3938 3442 4084 
Q 3081 4231 2675 4231 
Q 1875 4231 1450 3742 
Q 1025 3253 1025 2328 
Q 1025 1406 1450 917 
Q 1875 428 2675 428 
Q 3081 428 3442 575 
Q 3803 722 4122 1019 
L 4122 359 
Q 3791 134 3420 21 
Q 3050 -91 2638 -91 
Q 1578 -91 968 557 
Q 359 1206 359 2328 
Q 359 3453 968 4101 
Q 1578 4750 2638 4750 
Q 3056 4750 3426 4639 
Q 3797 4528 4122 4306 
z
" transform="scale(0.015625)"/>
      <path id="DejaVuSans-2192" d="M 5050 2147 
L 5050 1866 
L 3822 638 
L 3447 1013 
L 4175 1741 
L 366 1741 
L 366 2272 
L 4175 2272 
L 3447 3000 
L 3822 3375 
L 5050 2147 
z
" transform="scale(0.015625)"/>
      <path id="DejaVuSans-4f" d="M 2522 4238 
Q 1834 4238 1429 3725 
Q 1025 3213 1025 2328 
Q 1025 1447 1429 934 
Q 1834 422 2522 422 
Q 3209 422 3611 934 
Q 4013 1447 4013 2328 
Q 4013 3213 3611 3725 
Q 3209 4238 2522 4238 
z
M 2522 4750 
Q 3503 4750 4090 4092 
Q 4678 3434 4678 2328 
Q 4678 1225 4090 567 
Q 3503 -91 2522 -91 
Q 1538 -91 948 565 
Q 359 1222 359 2328 
Q 359 3434 948 4092 
Q 1538 4750 2522 4750 
z
" transform="scale(0.015625)"/>
      <path id="DejaVuSans-75" d="M 544 1381 
L 544 3500 
L 1119 3500 
L 1119 1403 
Q 1119 906 1312 657 
Q 1506 409 1894 409 
Q 2359 409 2629 706 
Q 2900 1003 2900 1516 
L 2900 3500 
L 3475 3500 
L 3475 0 
L 2900 0 
L 2900 538 
Q 2691 219 2414 64 
Q 2138 -91 1772 -91 
Q 1169 -91 856 284 
Q 544 659 544 1381 
z
M 1991 3584 
L 1991 3584 
z
" transform="scale(0.015625)"/>
      <path id="DejaVuSans-61" d="M 2194 1759 
Q 1497 1759 1228 1600 
Q 959 1441 959 1056 
Q 959 750 1161 570 
Q 1363 391 1709 391 
Q 2188 391 2477 730 
Q 2766 1069 2766 1631 
L 2766 1759 
L 2194 1759 
z
M 3341 1997 
L 3341 0 
L 2766 0 
L 2766 531 
Q 2569 213 2275 61 
Q 1981 -91 1556 -91 
Q 1019 -91 701 211 
Q 384 513 384 1019 
Q 384 1609 779 1909 
Q 1175 2209 1959 2209 
L 2766 2209 
L 2766 2266 
Q 2766 2663 2505 2880 
Q 2244 3097 1772 3097 
Q 1472 3097 1187 3025 
Q 903 2953 641 2809 
L 641 3341 
Q 956 3463 1253 3523 
Q 1550 3584 1831 3584 
Q 2591 3584 2966 3190 
Q 3341 2797 3341 1997 
z
" transform="scale(0.015625)"/>
      <path id="DejaVuSans-64" d="M 2906 2969 
L 2906 4863 
L 3481 4863 
L 3481 0 
L 2906 0 
L 2906 525 
Q 2725 213 2448 61 
Q 2172 -91 1784 -91 
Q 1150 -91 751 415 
Q 353 922 353 1747 
Q 353 2572 751 3078 
Q 1150 3584 1784 3584 
Q 2172 3584 2448 3432 
Q 2725 3281 2906 2969 
z
M 947 1747 
Q 947 1113 1208 752 
Q 1469 391 1925 391 
Q 2381 391 2643 752 
Q 2906 1113 2906 1747 
Q 2906 2381 2643 2742 
Q 2381 3103 1925 3103 
Q 1469 3103 1208 2742 
Q 947 2381 947 1747 
z
" transform="scale(0.015625)"/>
     </defs>
     <use xlink:href="#DejaVuSans-46"/>
     <use xlink:href="#DejaVuSans-6c" transform="translate(57.519531 0)"/>
     <use xlink:href="#DejaVuSans-6f" transform="translate(85.302734 0)"/>
     <use xlink:href="#DejaVuSans-77" transform="translate(146.484375 0)"/>
     <use xlink:href="#DejaVuSans-20" transform="translate(228.271484 0)"/>
     <use xlink:href="#DejaVuSans-44" transform="translate(260.058594 0)"/>
     <use xlink:href="#DejaVuSans-69" transform="translate(337.060547 0)"/>
     <use xlink:href="#DejaVuSans-72" transform="translate(364.84375 0)"/>
     <use xlink:href="#DejaVuSans-65" transform="translate(403.707031 0)"/>
     <use xlink:href="#DejaVuSans-63" transform="translate(465.230469 0)"/>
     <use xlink:href="#DejaVuSans-74" transform="translate(520.210938 0)"/>
     <use xlink:href="#DejaVuSans-69" transform="translate(559.419922 0)"/>
     <use xlink:href="#DejaVuSans-6f" transform="translate(587.203125 0)"/>
     <use xlink:href="#DejaVuSans-6e" transform="translate(648.384766 0)"/>
     <use xlink:href="#DejaVuSans-3a" transform="translate(711.763672 0)"/>
     <use xlink:href="#DejaVuSans-20" transform="translate(745.455078 0)"/>
     <use xlink:href="#DejaVuSans-43" transform="translate(777.242188 0)"/>
     <use xlink:href="#DejaVuSans-65" transform="translate(847.066406 0)"/>
     <use xlink:href="#DejaVuSans-6e" transform="translate(908.589844 0)"/>
     <use xlink:href="#DejaVuSans-74" transform="translate(971.96875 0)"/>
     <use xlink:href="#DejaVuSans-65" transform="translate(1011.177734 0)"/>
     <use xlink:href="#DejaVuSans-72" transform="translate(1072.701172 0)"/>
     <use xlink:href="#DejaVuSans-20" transform="translate(1113.814453 0)"/>
     <use xlink:href="#DejaVuSans-2192" transform="translate(1145.601562 0)"/>
     <use xlink:href="#DejaVuSans-20" transform="translate(1229.390625 0)"/>
     <use xlink:href="#DejaVuSans-4f" transform="translate(1261.177734 0)"/>
     <use xlink:href="#DejaVuSans-75" transform="translate(1339.888672 0)"/>
     <use xlink:href="#DejaVuSans-74" transform="translate(1403.267578 0)"/>
     <use xlink:href="#DejaVuSans-77" transform="translate(1442.476562 0)"/>
     <use xlink:href="#DejaVuSans-61" transform="translate(1524.263672 0)"/>
     <use xlink:href="#DejaVuSans-72" transform="translate(1585.542969 0)"/>
     <use xlink:href="#DejaVuSans-64" transform="translate(1624.90625 0)"/>
    </g>
    <!-- Strategic Intent  Tactical Execution -->
    <g transform="translate(661.553187 2007.2725) scale(0.28 -0.28)">
     <defs>
      <path id="DejaVuSans-53" d="M 3425 4513 
L 3425 3897 
Q 3066 4069 2747 4153 
Q 2428 4238 2131 4238 
Q 1616 4238 1336 4038 
Q 1056 3838 1056 3469 
Q 1056 3159 1242 3001 
Q 1428 2844 1947 2747 
L 2328 2669 
Q 3034 2534 3370 2195 
Q 3706 1856 3706 1288 
Q 3706 609 3251 259 
Q 2797 -91 1919 -91 
Q 1588 -91 1214 -16 
Q 841 59 441 206 
L 441 856 
Q 825 641 1194 531 
Q 1563 422 1919 422 
Q 2459 422 2753 634 
Q 3047 847 3047 1241 
Q 3047 1584 2836 1778 
Q 2625 1972 2144 2069 
L 1759 2144 
Q 1053 2284 737 2584 
Q 422 2884 422 3419 
Q 422 4038 858 4394 
Q 1294 4750 2059 4750 
Q 2388 4750 2728 4690 
Q 3069 4631 3425 4513 
z
" transform="scale(0.015625)"/>
      <path id="DejaVuSans-67" d="M 2906 1791 
Q 2906 2416 2648 2759 
Q 2391 3103 1925 3103 
Q 1463 3103 1205 2759 
Q 947 2416 947 1791 
Q 947 1169 1205 825 
Q 1463 481 1925 481 
Q 2391 481 2648 825 
Q 2906 1169 2906 1791 
z
M 3481 434 
Q 3481 -459 3084 -895 
Q 2688 -1331 1869 -1331 
Q 1566 -1331 1297 -1286 
Q 1028 -1241 775 -1147 
L 775 -588 
Q 1028 -725 1275 -790 
Q 1522 -856 1778 -856 
Q 2344 -856 2625 -561 
Q 2906 -266 2906 331 
L 2906 616 
Q 2728 306 2450 153 
Q 2172 0 1784 0 
Q 1141 0 747 490 
Q 353 981 353 1791 
Q 353 2603 747 3093 
Q 1141 3584 1784 3584 
Q 2172 3584 2450 3431 
Q 2728 3278 2906 2969 
L 2906 3500 
L 3481 3500 
L 3481 434 
z
" transform="scale(0.015625)"/>
      <path id="DejaVuSans-49" d="M 628 4666 
L 1259 4666 
L 1259 0 
L 628 0 
L 628 4666 
z
" transform="scale(0.015625)"/>
      <path id="DejaVuSans-54" d="M -19 4666 
L 3928 4666 
L 3928 4134 
L 2272 4134 
L 2272 0 
L 1638 0 
L 1638 4134 
L -19 4134 
L -19 4666 
z
" transform="scale(0.015625)"/>
      <path id="DejaVuSans-45" d="M 628 4666 
L 3578 4666 
L 3578 4134 
L 1259 4134 
L 1259 2753 
L 3481 2753 
L 3481 2222 
L 1259 2222 
L 1259 531 
L 3634 531 
L 3634 0 
L 628 0 
L 628 4666 
z
" transform="scale(0.015625)"/>
      <path id="DejaVuSans-78" d="M 3513 3500 
L 2247 1797 
L 3578 0 
L 2900 0 
L 1881 1375 
L 863 0 
L 184 0 
L 1544 1831 
L 300 3500 
L 978 3500 
L 1906 2253 
L 2834 3500 
L 3513 3500 
z
" transform="scale(0.015625)"/>
     </defs>
     <use xlink:href="#DejaVuSans-53"/>
     <use xlink:href="#DejaVuSans-74" transform="translate(63.476562 0)"/>
     <use xlink:href="#DejaVuSans-72" transform="translate(102.685547 0)"/>
     <use xlink:href="#DejaVuSans-61" transform="translate(143.798828 0)"/>
     <use xlink:href="#DejaVuSans-74" transform="translate(205.078125 0)"/>
     <use xlink:href="#DejaVuSans-65" transform="translate(244.287109 0)"/>
     <use xlink:href="#DejaVuSans-67" transform="translate(305.810547 0)"/>
     <use xlink:href="#DejaVuSans-69" transform="translate(369.287109 0)"/>
     <use xlink:href="#DejaVuSans-63" transform="translate(397.070312 0)"/>
     <use xlink:href="#DejaVuSans-20" transform="translate(452.050781 0)"/>
     <use xlink:href="#DejaVuSans-49" transform="translate(483.837891 0)"/>
     <use xlink:href="#DejaVuSans-6e" transform="translate(513.330078 0)"/>
     <use xlink:href="#DejaVuSans-74" transform="translate(576.708984 0)"/>
     <use xlink:href="#DejaVuSans-65" transform="translate(615.917969 0)"/>
     <use xlink:href="#DejaVuSans-6e" transform="translate(677.441406 0)"/>
     <use xlink:href="#DejaVuSans-74" transform="translate(740.820312 0)"/>
     <use xlink:href="#DejaVuSans-20" transform="translate(780.029297 0)"/>
     <use xlink:href="#DejaVuSans-2192" transform="translate(811.816406 0)"/>
     <use xlink:href="#DejaVuSans-20" transform="translate(895.605469 0)"/>
     <use xlink:href="#DejaVuSans-54" transform="translate(927.392578 0)"/>
     <use xlink:href="#DejaVuSans-61" transform="translate(971.976562 0)"/>
     <use xlink:href="#DejaVuSans-63" transform="translate(1033.255859 0)"/>
     <use xlink:href="#DejaVuSans-74" transform="translate(1088.236328 0)"/>
     <use xlink:href="#DejaVuSans-69" transform="translate(1127.445312 0)"/>
     <use xlink:href="#DejaVuSans-63" transform="translate(1155.228516 0)"/>
     <use xlink:href="#DejaVuSans-61" transform="translate(1210.208984 0)"/>
     <use xlink:href="#DejaVuSans-6c" transform="translate(1271.488281 0)"/>
     <use xlink:href="#DejaVuSans-20" transform="translate(1299.271484 0)"/>
     <use xlink:href="#DejaVuSans-45" transform="translate(1331.058594 0)"/>
     <use xlink:href="#DejaVuSans-78" transform="translate(1394.242188 0)"/>
     <use xlink:href="#DejaVuSans-65" transform="translate(1450.296875 0)"/>
     <use xlink:href="#DejaVuSans-63" transform="translate(1511.820312 0)"/>
     <use xlink:href="#DejaVuSans-75" transform="translate(1566.800781 0)"/>
     <use xlink:href="#DejaVuSans-74" transform="translate(1630.179688 0)"/>
     <use xlink:href="#DejaVuSans-69" transform="translate(1669.388672 0)"/>
     <use xlink:href="#DejaVuSans-6f" transform="translate(1697.171875 0)"/>
     <use xlink:href="#DejaVuSans-6e" transform="translate(1758.353516 0)"/>
    </g>
   </g>
   <g id="text_8">
    <!-- MCF Governance Structure: Nested Authority Layers -->
    <g transform="translate(324.1835 37.59375) scale(0.4 -0.4)">
     <defs>
      <path id="DejaVuSans-Bold-47" d="M 4781 347 
Q 4331 128 3847 18 
Q 3363 -91 2847 -91 
Q 1681 -91 1000 561 
Q 319 1213 319 2328 
Q 319 3456 1012 4103 
Q 1706 4750 2913 4750 
Q 3378 4750 3804 4662 
Q 4231 4575 4609 4403 
L 4609 3438 
Q 4219 3659 3833 3768 
Q 3447 3878 3059 3878 
Q 2341 3878 1952 3476 
Q 1563 3075 1563 2328 
Q 1563 1588 1938 1184 
Q 2313 781 3003 781 
Q 3191 781 3352 804 
Q 3513 828 3641 878 
L 3641 1784 
L 2906 1784 
L 2906 2591 
L 4781 2591 
L 4781 347 
z
" transform="scale(0.015625)"/>
      <path id="DejaVuSans-Bold-76" d="M 97 3500 
L 1216 3500 
L 2088 1081 
L 2956 3500 
L 4078 3500 
L 2700 0 
L 1472 0 
L 97 3500 
z
" transform="scale(0.015625)"/>
      <path id="DejaVuSans-Bold-3a" d="M 716 3500 
L 1844 3500 
L 1844 2291 
L 716 2291 
L 716 3500 
z
M 716 1209 
L 1844 1209 
L 1844 0 
L 716 0 
L 716 1209 
z
" transform="scale(0.015625)"/>
      <path id="DejaVuSans-Bold-4e" d="M 588 4666 
L 1931 4666 
L 3628 1466 
L 3628 4666 
L 4769 4666 
L 4769 0 
L 3425 0 
L 1728 3200 
L 1728 0 
L 588 0 
L 588 4666 
z
" transform="scale(0.015625)"/>
      <path id="DejaVuSans-Bold-41" d="M 3419 850 
L 1538 850 
L 1241 0 
L 31 0 
L 1759 4666 
L 3194 4666 
L 4922 0 
L 3713 0 
L 3419 850 
z
M 1838 1716 
L 3116 1716 
L 2478 3572 
L 1838 1716 
z
" transform="scale(0.015625)"/>
     </defs>
     <use xlink:href="#DejaVuSans-Bold-4d"/>
     <use xlink:href="#DejaVuSans-Bold-43" transform="translate(99.511719 0)"/>
     <use xlink:href="#DejaVuSans-Bold-46" transform="translate(172.900391 0)"/>
     <use xlink:href="#DejaVuSans-Bold-20" transform="translate(241.210938 0)"/>
     <use xlink:href="#DejaVuSans-Bold-47" transform="translate(276.025391 0)"/>
     <use xlink:href="#DejaVuSans-Bold-6f" transform="translate(358.105469 0)"/>
     <use xlink:href="#DejaVuSans-Bold-76" transform="translate(426.806641 0)"/>
     <use xlink:href="#DejaVuSans-Bold-65" transform="translate(491.992188 0)"/>
     <use xlink:href="#DejaVuSans-Bold-72" transform="translate(559.814453 0)"/>
     <use xlink:href="#DejaVuSans-Bold-6e" transform="translate(609.130859 0)"/>
     <use xlink:href="#DejaVuSans-Bold-61" transform="translate(680.322266 0)"/>
     <use xlink:href="#DejaVuSans-Bold-6e" transform="translate(747.802734 0)"/>
     <use xlink:href="#DejaVuSans-Bold-63" transform="translate(818.994141 0)"/>
     <use xlink:href="#DejaVuSans-Bold-65" transform="translate(878.271484 0)"/>
     <use xlink:href="#DejaVuSans-Bold-20" transform="translate(946.09375 0)"/>
     <use xlink:href="#DejaVuSans-Bold-53" transform="translate(980.908203 0)"/>
     <use xlink:href="#DejaVuSans-Bold-74" transform="translate(1052.929688 0)"/>
     <use xlink:href="#DejaVuSans-Bold-72" transform="translate(1100.732422 0)"/>
     <use xlink:href="#DejaVuSans-Bold-75" transform="translate(1150.048828 0)"/>
     <use xlink:href="#DejaVuSans-Bold-63" transform="translate(1221.240234 0)"/>
     <use xlink:href="#DejaVuSans-Bold-74" transform="translate(1280.517578 0)"/>
     <use xlink:href="#DejaVuSans-Bold-75" transform="translate(1328.320312 0)"/>
     <use xlink:href="#DejaVuSans-Bold-72" transform="translate(1399.511719 0)"/>
     <use xlink:href="#DejaVuSans-Bold-65" transform="translate(1448.828125 0)"/>
     <use xlink:href="#DejaVuSans-Bold-3a" transform="translate(1516.650391 0)"/>
     <use xlink:href="#DejaVuSans-Bold-20" transform="translate(1556.640625 0)"/>
     <use xlink:href="#DejaVuSans-Bold-4e" transform="translate(1591.455078 0)"/>
     <use xlink:href="#DejaVuSans-Bold-65" transform="translate(1675.146484 0)"/>
     <use xlink:href="#DejaVuSans-Bold-73" transform="translate(1742.96875 0)"/>
     <use xlink:href="#DejaVuSans-Bold-74" transform="translate(1802.490234 0)"/>
     <use xlink:href="#DejaVuSans-Bold-65" transform="translate(1850.292969 0)"/>
     <use xlink:href="#DejaVuSans-Bold-64" transform="translate(1918.115234 0)"/>
     <use xlink:href="#DejaVuSans-Bold-20" transform="translate(1989.697266 0)"/>
     <use xlink:href="#DejaVuSans-Bold-41" transform="translate(2024.511719 0)"/>
     <use xlink:href="#DejaVuSans-Bold-75" transform="translate(2101.904297 0)"/>
     <use xlink:href="#DejaVuSans-Bold-74" transform="translate(2173.095703 0)"/>
     <use xlink:href="#DejaVuSans-Bold-68" transform="translate(2220.898438 0)"/>
     <use xlink:href="#DejaVuSans-Bold-6f" transform="translate(2292.089844 0)"/>
     <use xlink:href="#DejaVuSans-Bold-72" transform="translate(2360.791016 0)"/>
     <use xlink:href="#DejaVuSans-Bold-69" transform="translate(2410.107422 0)"/>
     <use xlink:href="#DejaVuSans-Bold-74" transform="translate(2444.384766 0)"/>
     <use xlink:href="#DejaVuSans-Bold-79" transform="translate(2492.1875 0)"/>
     <use xlink:href="#DejaVuSans-Bold-20" transform="translate(2557.373047 0)"/>
     <use xlink:href="#DejaVuSans-Bold-4c" transform="translate(2592.1875 0)"/>
     <use xlink:href="#DejaVuSans-Bold-61" transform="translate(2655.908203 0)"/>
     <use xlink:href="#DejaVuSans-Bold-79" transform="translate(2720.263672 0)"/>
     <use xlink:href="#DejaVuSans-Bold-65" transform="translate(2785.449219 0)"/>
     <use xlink:href="#DejaVuSans-Bold-72" transform="translate(2853.271484 0)"/>
     <use xlink:href="#DejaVuSans-Bold-73" transform="translate(2902.587891 0)"/>
    </g>
    <!-- (Center = Strategic, Outer = Execution) -->
    <g transform="translate(468.599125 82.6975) scale(0.4 -0.4)">
     <defs>
      <path id="DejaVuSans-Bold-28" d="M 2413 -844 
L 1484 -844 
Q 1006 -72 778 623 
Q 550 1319 550 2003 
Q 550 2688 779 3389 
Q 1009 4091 1484 4856 
L 2413 4856 
Q 2013 4116 1813 3408 
Q 1613 2700 1613 2009 
Q 1613 1319 1811 609 
Q 2009 -100 2413 -844 
z
" transform="scale(0.015625)"/>
      <path id="DejaVuSans-Bold-3d" d="M 678 3084 
L 4684 3084 
L 4684 2350 
L 678 2350 
L 678 3084 
z
M 678 1663 
L 4684 1663 
L 4684 922 
L 678 922 
L 678 1663 
z
" transform="scale(0.015625)"/>
      <path id="DejaVuSans-Bold-2c" d="M 653 1209 
L 1778 1209 
L 1778 256 
L 1006 -909 
L 341 -909 
L 653 256 
L 653 1209 
z
" transform="scale(0.015625)"/>
      <path id="DejaVuSans-Bold-4f" d="M 2719 3878 
Q 2169 3878 1866 3472 
Q 1563 3066 1563 2328 
Q 1563 1594 1866 1187 
Q 2169 781 2719 781 
Q 3272 781 3575 1187 
Q 3878 1594 3878 2328 
Q 3878 3066 3575 3472 
Q 3272 3878 2719 3878 
z
M 2719 4750 
Q 3844 4750 4481 4106 
Q 5119 3463 5119 2328 
Q 5119 1197 4481 553 
Q 3844 -91 2719 -91 
Q 1597 -91 958 553 
Q 319 1197 319 2328 
Q 319 3463 958 4106 
Q 1597 4750 2719 4750 
z
" transform="scale(0.015625)"/>
      <path id="DejaVuSans-Bold-29" d="M 513 -844 
Q 913 -100 1113 609 
Q 1313 1319 1313 2009 
Q 1313 2700 1113 3408 
Q 913 4116 513 4856 
L 1441 4856 
Q 1916 4091 2145 3389 
Q 2375 2688 2375 2003 
Q 2375 1319 2147 623 
Q 1919 -72 1441 -844 
L 513 -844 
z
" transform="scale(0.015625)"/>
     </defs>
     <use xlink:href="#DejaVuSans-Bold-28"/>
     <use xlink:href="#DejaVuSans-Bold-43" transform="translate(45.703125 0)"/>
     <use xlink:href="#DejaVuSans-Bold-65" transform="translate(119.091797 0)"/>
     <use xlink:href="#DejaVuSans-Bold-6e" transform="translate(186.914062 0)"/>
     <use xlink:href="#DejaVuSans-Bold-74" transform="translate(258.105469 0)"/>
     <use xlink:href="#DejaVuSans-Bold-65" transform="translate(305.908203 0)"/>
     <use xlink:href="#DejaVuSans-Bold-72" transform="translate(373.730469 0)"/>
     <use xlink:href="#DejaVuSans-Bold-20" transform="translate(423.046875 0)"/>
     <use xlink:href="#DejaVuSans-Bold-3d" transform="translate(457.861328 0)"/>
     <use xlink:href="#DejaVuSans-Bold-20" transform="translate(541.650391 0)"/>
     <use xlink:href="#DejaVuSans-Bold-53" transform="translate(576.464844 0)"/>
     <use xlink:href="#DejaVuSans-Bold-74" transform="translate(648.486328 0)"/>
     <use xlink:href="#DejaVuSans-Bold-72" transform="translate(696.289062 0)"/>
     <use xlink:href="#DejaVuSans-Bold-61" transform="translate(745.605469 0)"/>
     <use xlink:href="#DejaVuSans-Bold-74" transform="translate(813.085938 0)"/>
     <use xlink:href="#DejaVuSans-Bold-65" transform="translate(860.888672 0)"/>
     <use xlink:href="#DejaVuSans-Bold-67" transform="translate(928.710938 0)"/>
     <use xlink:href="#DejaVuSans-Bold-69" transform="translate(1000.292969 0)"/>
     <use xlink:href="#DejaVuSans-Bold-63" transform="translate(1034.570312 0)"/>
     <use xlink:href="#DejaVuSans-Bold-2c" transform="translate(1093.847656 0)"/>
     <use xlink:href="#DejaVuSans-Bold-20" transform="translate(1131.835938 0)"/>
     <use xlink:href="#DejaVuSans-Bold-4f" transform="translate(1166.650391 0)"/>
     <use xlink:href="#DejaVuSans-Bold-75" transform="translate(1251.660156 0)"/>
     <use xlink:href="#DejaVuSans-Bold-74" transform="translate(1322.851562 0)"/>
     <use xlink:href="#DejaVuSans-Bold-65" transform="translate(1370.654297 0)"/>
     <use xlink:href="#DejaVuSans-Bold-72" transform="translate(1438.476562 0)"/>
     <use xlink:href="#DejaVuSans-Bold-20" transform="translate(1487.792969 0)"/>
     <use xlink:href="#DejaVuSans-Bold-3d" transform="translate(1522.607422 0)"/>
     <use xlink:href="#DejaVuSans-Bold-20" transform="translate(1606.396484 0)"/>
     <use xlink:href="#DejaVuSans-Bold-45" transform="translate(1641.210938 0)"/>
     <use xlink:href="#DejaVuSans-Bold-78" transform="translate(1709.521484 0)"/>
     <use xlink:href="#DejaVuSans-Bold-65" transform="translate(1774.023438 0)"/>
     <use xlink:href="#DejaVuSans-Bold-63" transform="translate(1841.845703 0)"/>
     <use xlink:href="#DejaVuSans-Bold-75" transform="translate(1901.123047 0)"/>
     <use xlink:href="#DejaVuSans-Bold-74" transform="translate(1972.314453 0)"/>
     <use xlink:href="#DejaVuSans-Bold-69" transform="translate(2020.117188 0)"/>
     <use xlink:href="#DejaVuSans-Bold-6f" transform="translate(2054.394531 0)"/>
     <use xlink:href="#DejaVuSans-Bold-6e" transform="translate(2123.095703 0)"/>
     <use xlink:href="#DejaVuSans-Bold-29" transform="translate(2194.287109 0)"/>
    </g>
   </g>
  </g>
 </g>
 <defs>
  <clipPath id="p5082b8c214">
   <rect x="7.2" y="112.6975" width="1818.792" height="1818.792"/>
  </clipPath>
 </defs>
</svg>
