<?xml version="1.0" encoding="utf-8" standalone="no"?>
<!DOCTYPE svg PUBLIC "-//W3C//DTD SVG 1.1//EN"
  "http://www.w3.org/Graphics/SVG/1.1/DTD/svg11.dtd">
<svg xmlns:xlink="http://www.w3.org/1999/xlink" width="2034.599188pt" height="1720.95375pt" viewBox="0 0 2034.599188 1720.95375" xmlns="http://www.w3.org/2000/svg" version="1.1">
 <metadata>
  <rdf:RDF xmlns:dc="http://purl.org/dc/elements/1.1/" xmlns:cc="http://creativecommons.org/ns#" xmlns:rdf="http://www.w3.org/1999/02/22-rdf-syntax-ns#">
   <cc:Work>
    <dc:type rdf:resource="http://purl.org/dc/dcmitype/StillImage"/>
    <dc:date>2025-10-20T11:01:50.233083</dc:date>
    <dc:format>image/svg+xml</dc:format>
    <dc:creator>
     <cc:Agent>
      <dc:title>Matplotlib v3.10.1, https://matplotlib.org/</dc:title>
     </cc:Agent>
    </dc:creator>
   </cc:Work>
  </rdf:RDF>
 </metadata>
 <defs>
  <style type="text/css">*{stroke-linejoin: round; stroke-linecap: butt}</style>
 </defs>
 <g id="figure_1">
  <g id="patch_1">
   <path d="M 0 1720.95375 
L 2034.599188 1720.95375 
L 2034.599188 0 
L 0 0 
z
" style="fill: #ffffff"/>
  </g>
  <g id="axes_1">
   <g id="patch_2">
    <path d="M 32.33475 396.82575 
L 1289.07225 396.82575 
L 1289.07225 208.693179 
L 32.33475 208.693179 
z
" clip-path="url(#p9a60414c73)" style="fill: #8b0000; opacity: 0.8; stroke: #000000; stroke-width: 3; stroke-linejoin: miter"/>
   </g>
   <g id="patch_3">
    <path d="M 32.33475 631.991464 
L 1289.07225 631.991464 
L 1289.07225 443.858893 
L 32.33475 443.858893 
z
" clip-path="url(#p9a60414c73)" style="fill: #c0392b; opacity: 0.8; stroke: #000000; stroke-width: 3; stroke-linejoin: miter"/>
   </g>
   <g id="patch_4">
    <path d="M 32.33475 867.157179 
L 1289.07225 867.157179 
L 1289.07225 679.024607 
L 32.33475 679.024607 
z
" clip-path="url(#p9a60414c73)" style="fill: #e74c3c; opacity: 0.8; stroke: #000000; stroke-width: 3; stroke-linejoin: miter"/>
   </g>
   <g id="patch_5">
    <path d="M 32.33475 1102.322893 
L 1289.07225 1102.322893 
L 1289.07225 914.190321 
L 32.33475 914.190321 
z
" clip-path="url(#p9a60414c73)" style="fill: #3498db; opacity: 0.8; stroke: #000000; stroke-width: 3; stroke-linejoin: miter"/>
   </g>
   <g id="patch_6">
    <path d="M 32.33475 1337.488607 
L 1289.07225 1337.488607 
L 1289.07225 1149.356036 
L 32.33475 1149.356036 
z
" clip-path="url(#p9a60414c73)" style="fill: #27ae60; opacity: 0.8; stroke: #000000; stroke-width: 3; stroke-linejoin: miter"/>
   </g>
   <g id="patch_7">
    <path d="M 32.33475 1572.654321 
L 1289.07225 1572.654321 
L 1289.07225 1384.52175 
L 32.33475 1384.52175 
z
" clip-path="url(#p9a60414c73)" style="fill: #f39c12; opacity: 0.8; stroke: #000000; stroke-width: 3; stroke-linejoin: miter"/>
   </g>
   <g id="text_1">
    <!-- Layer 1: Strategic Direction -->
    <g style="fill: #ffffff" transform="translate(57.4695 311.464464) scale(0.32 -0.32)">
     <defs>
      <path id="DejaVuSans-Bold-4c" d="M 588 4666 
L 1791 4666 
L 1791 909 
L 3903 909 
L 3903 0 
L 588 0 
L 588 4666 
z
" transform="scale(0.015625)"/>
      <path id="DejaVuSans-Bold-61" d="M 2106 1575 
Q 1756 1575 1579 1456 
Q 1403 1338 1403 1106 
Q 1403 894 1545 773 
Q 1688 653 1941 653 
Q 2256 653 2472 879 
Q 2688 1106 2688 1447 
L 2688 1575 
L 2106 1575 
z
M 3816 1997 
L 3816 0 
L 2688 0 
L 2688 519 
Q 2463 200 2181 54 
Q 1900 -91 1497 -91 
Q 953 -91 614 226 
Q 275 544 275 1050 
Q 275 1666 698 1953 
Q 1122 2241 2028 2241 
L 2688 2241 
L 2688 2328 
Q 2688 2594 2478 2717 
Q 2269 2841 1825 2841 
Q 1466 2841 1156 2769 
Q 847 2697 581 2553 
L 581 3406 
Q 941 3494 1303 3539 
Q 1666 3584 2028 3584 
Q 2975 3584 3395 3211 
Q 3816 2838 3816 1997 
z
" transform="scale(0.015625)"/>
      <path id="DejaVuSans-Bold-79" d="M 78 3500 
L 1197 3500 
L 2138 1125 
L 2938 3500 
L 4056 3500 
L 2584 -331 
Q 2363 -916 2067 -1148 
Q 1772 -1381 1288 -1381 
L 641 -1381 
L 641 -647 
L 991 -647 
Q 1275 -647 1404 -556 
Q 1534 -466 1606 -231 
L 1638 -134 
L 78 3500 
z
" transform="scale(0.015625)"/>
      <path id="DejaVuSans-Bold-65" d="M 4031 1759 
L 4031 1441 
L 1416 1441 
Q 1456 1047 1700 850 
Q 1944 653 2381 653 
Q 2734 653 3104 758 
Q 3475 863 3866 1075 
L 3866 213 
Q 3469 63 3072 -14 
Q 2675 -91 2278 -91 
Q 1328 -91 801 392 
Q 275 875 275 1747 
Q 275 2603 792 3093 
Q 1309 3584 2216 3584 
Q 3041 3584 3536 3087 
Q 4031 2591 4031 1759 
z
M 2881 2131 
Q 2881 2450 2695 2645 
Q 2509 2841 2209 2841 
Q 1884 2841 1681 2658 
Q 1478 2475 1428 2131 
L 2881 2131 
z
" transform="scale(0.015625)"/>
      <path id="DejaVuSans-Bold-72" d="M 3138 2547 
Q 2991 2616 2845 2648 
Q 2700 2681 2553 2681 
Q 2122 2681 1889 2404 
Q 1656 2128 1656 1613 
L 1656 0 
L 538 0 
L 538 3500 
L 1656 3500 
L 1656 2925 
Q 1872 3269 2151 3426 
Q 2431 3584 2822 3584 
Q 2878 3584 2943 3579 
Q 3009 3575 3134 3559 
L 3138 2547 
z
" transform="scale(0.015625)"/>
      <path id="DejaVuSans-Bold-20" transform="scale(0.015625)"/>
      <path id="DejaVuSans-Bold-31" d="M 750 831 
L 1813 831 
L 1813 3847 
L 722 3622 
L 722 4441 
L 1806 4666 
L 2950 4666 
L 2950 831 
L 4013 831 
L 4013 0 
L 750 0 
L 750 831 
z
" transform="scale(0.015625)"/>
      <path id="DejaVuSans-Bold-3a" d="M 716 3500 
L 1844 3500 
L 1844 2291 
L 716 2291 
L 716 3500 
z
M 716 1209 
L 1844 1209 
L 1844 0 
L 716 0 
L 716 1209 
z
" transform="scale(0.015625)"/>
      <path id="DejaVuSans-Bold-53" d="M 3834 4519 
L 3834 3531 
Q 3450 3703 3084 3790 
Q 2719 3878 2394 3878 
Q 1963 3878 1756 3759 
Q 1550 3641 1550 3391 
Q 1550 3203 1689 3098 
Q 1828 2994 2194 2919 
L 2706 2816 
Q 3484 2659 3812 2340 
Q 4141 2022 4141 1434 
Q 4141 663 3683 286 
Q 3225 -91 2284 -91 
Q 1841 -91 1394 -6 
Q 947 78 500 244 
L 500 1259 
Q 947 1022 1364 901 
Q 1781 781 2169 781 
Q 2563 781 2772 912 
Q 2981 1044 2981 1288 
Q 2981 1506 2839 1625 
Q 2697 1744 2272 1838 
L 1806 1941 
Q 1106 2091 782 2419 
Q 459 2747 459 3303 
Q 459 4000 909 4375 
Q 1359 4750 2203 4750 
Q 2588 4750 2994 4692 
Q 3400 4634 3834 4519 
z
" transform="scale(0.015625)"/>
      <path id="DejaVuSans-Bold-74" d="M 1759 4494 
L 1759 3500 
L 2913 3500 
L 2913 2700 
L 1759 2700 
L 1759 1216 
Q 1759 972 1856 886 
Q 1953 800 2241 800 
L 2816 800 
L 2816 0 
L 1856 0 
Q 1194 0 917 276 
Q 641 553 641 1216 
L 641 2700 
L 84 2700 
L 84 3500 
L 641 3500 
L 641 4494 
L 1759 4494 
z
" transform="scale(0.015625)"/>
      <path id="DejaVuSans-Bold-67" d="M 2919 594 
Q 2688 288 2409 144 
Q 2131 0 1766 0 
Q 1125 0 706 504 
Q 288 1009 288 1791 
Q 288 2575 706 3076 
Q 1125 3578 1766 3578 
Q 2131 3578 2409 3434 
Q 2688 3291 2919 2981 
L 2919 3500 
L 4044 3500 
L 4044 353 
Q 4044 -491 3511 -936 
Q 2978 -1381 1966 -1381 
Q 1638 -1381 1331 -1331 
Q 1025 -1281 716 -1178 
L 716 -306 
Q 1009 -475 1290 -558 
Q 1572 -641 1856 -641 
Q 2406 -641 2662 -400 
Q 2919 -159 2919 353 
L 2919 594 
z
M 2181 2772 
Q 1834 2772 1640 2515 
Q 1447 2259 1447 1791 
Q 1447 1309 1634 1061 
Q 1822 813 2181 813 
Q 2531 813 2725 1069 
Q 2919 1325 2919 1791 
Q 2919 2259 2725 2515 
Q 2531 2772 2181 2772 
z
" transform="scale(0.015625)"/>
      <path id="DejaVuSans-Bold-69" d="M 538 3500 
L 1656 3500 
L 1656 0 
L 538 0 
L 538 3500 
z
M 538 4863 
L 1656 4863 
L 1656 3950 
L 538 3950 
L 538 4863 
z
" transform="scale(0.015625)"/>
      <path id="DejaVuSans-Bold-63" d="M 3366 3391 
L 3366 2478 
Q 3138 2634 2908 2709 
Q 2678 2784 2431 2784 
Q 1963 2784 1702 2511 
Q 1441 2238 1441 1747 
Q 1441 1256 1702 982 
Q 1963 709 2431 709 
Q 2694 709 2930 787 
Q 3166 866 3366 1019 
L 3366 103 
Q 3103 6 2833 -42 
Q 2563 -91 2291 -91 
Q 1344 -91 809 395 
Q 275 881 275 1747 
Q 275 2613 809 3098 
Q 1344 3584 2291 3584 
Q 2566 3584 2833 3536 
Q 3100 3488 3366 3391 
z
" transform="scale(0.015625)"/>
      <path id="DejaVuSans-Bold-44" d="M 1791 3756 
L 1791 909 
L 2222 909 
Q 2959 909 3348 1275 
Q 3738 1641 3738 2338 
Q 3738 3031 3350 3393 
Q 2963 3756 2222 3756 
L 1791 3756 
z
M 588 4666 
L 1856 4666 
Q 2919 4666 3439 4514 
Q 3959 4363 4331 4000 
Q 4659 3684 4818 3271 
Q 4978 2859 4978 2338 
Q 4978 1809 4818 1395 
Q 4659 981 4331 666 
Q 3956 303 3431 151 
Q 2906 0 1856 0 
L 588 0 
L 588 4666 
z
" transform="scale(0.015625)"/>
      <path id="DejaVuSans-Bold-6f" d="M 2203 2784 
Q 1831 2784 1636 2517 
Q 1441 2250 1441 1747 
Q 1441 1244 1636 976 
Q 1831 709 2203 709 
Q 2569 709 2762 976 
Q 2956 1244 2956 1747 
Q 2956 2250 2762 2517 
Q 2569 2784 2203 2784 
z
M 2203 3584 
Q 3106 3584 3614 3096 
Q 4122 2609 4122 1747 
Q 4122 884 3614 396 
Q 3106 -91 2203 -91 
Q 1297 -91 786 396 
Q 275 884 275 1747 
Q 275 2609 786 3096 
Q 1297 3584 2203 3584 
z
" transform="scale(0.015625)"/>
      <path id="DejaVuSans-Bold-6e" d="M 4056 2131 
L 4056 0 
L 2931 0 
L 2931 347 
L 2931 1631 
Q 2931 2084 2911 2256 
Q 2891 2428 2841 2509 
Q 2775 2619 2662 2680 
Q 2550 2741 2406 2741 
Q 2056 2741 1856 2470 
Q 1656 2200 1656 1722 
L 1656 0 
L 538 0 
L 538 3500 
L 1656 3500 
L 1656 2988 
Q 1909 3294 2193 3439 
Q 2478 3584 2822 3584 
Q 3428 3584 3742 3212 
Q 4056 2841 4056 2131 
z
" transform="scale(0.015625)"/>
     </defs>
     <use xlink:href="#DejaVuSans-Bold-4c"/>
     <use xlink:href="#DejaVuSans-Bold-61" transform="translate(63.720703 0)"/>
     <use xlink:href="#DejaVuSans-Bold-79" transform="translate(128.076172 0)"/>
     <use xlink:href="#DejaVuSans-Bold-65" transform="translate(193.261719 0)"/>
     <use xlink:href="#DejaVuSans-Bold-72" transform="translate(261.083984 0)"/>
     <use xlink:href="#DejaVuSans-Bold-20" transform="translate(310.400391 0)"/>
     <use xlink:href="#DejaVuSans-Bold-31" transform="translate(345.214844 0)"/>
     <use xlink:href="#DejaVuSans-Bold-3a" transform="translate(414.794922 0)"/>
     <use xlink:href="#DejaVuSans-Bold-20" transform="translate(454.785156 0)"/>
     <use xlink:href="#DejaVuSans-Bold-53" transform="translate(489.599609 0)"/>
     <use xlink:href="#DejaVuSans-Bold-74" transform="translate(561.621094 0)"/>
     <use xlink:href="#DejaVuSans-Bold-72" transform="translate(609.423828 0)"/>
     <use xlink:href="#DejaVuSans-Bold-61" transform="translate(658.740234 0)"/>
     <use xlink:href="#DejaVuSans-Bold-74" transform="translate(726.220703 0)"/>
     <use xlink:href="#DejaVuSans-Bold-65" transform="translate(774.023438 0)"/>
     <use xlink:href="#DejaVuSans-Bold-67" transform="translate(841.845703 0)"/>
     <use xlink:href="#DejaVuSans-Bold-69" transform="translate(913.427734 0)"/>
     <use xlink:href="#DejaVuSans-Bold-63" transform="translate(947.705078 0)"/>
     <use xlink:href="#DejaVuSans-Bold-20" transform="translate(1006.982422 0)"/>
     <use xlink:href="#DejaVuSans-Bold-44" transform="translate(1041.796875 0)"/>
     <use xlink:href="#DejaVuSans-Bold-69" transform="translate(1124.804688 0)"/>
     <use xlink:href="#DejaVuSans-Bold-72" transform="translate(1159.082031 0)"/>
     <use xlink:href="#DejaVuSans-Bold-65" transform="translate(1208.398438 0)"/>
     <use xlink:href="#DejaVuSans-Bold-63" transform="translate(1276.220703 0)"/>
     <use xlink:href="#DejaVuSans-Bold-74" transform="translate(1335.498047 0)"/>
     <use xlink:href="#DejaVuSans-Bold-69" transform="translate(1383.300781 0)"/>
     <use xlink:href="#DejaVuSans-Bold-6f" transform="translate(1417.578125 0)"/>
     <use xlink:href="#DejaVuSans-Bold-6e" transform="translate(1486.279297 0)"/>
    </g>
   </g>
   <g id="patch_8">
    <path d="M 660.7035 629.990604 
Q 660.7035 537.925899 660.7035 450.333331 
" style="fill: none; stroke: #000000; stroke-width: 4; stroke-linecap: round"/>
    <path d="M 658.7035 454.333331 
L 660.7035 450.333331 
L 662.7035 454.333331 
" style="fill: none; stroke: #000000; stroke-width: 4; stroke-linecap: round"/>
   </g>
   <g id="patch_9">
    <path d="M 32.33475 210.692245 
Q 32.33475 314.517594 32.33475 418.342942 
" style="fill: none; opacity: 0.5; stroke: #808080; stroke-width: 2; stroke-linecap: round"/>
    <path d="M 42.33475 210.692245 
L 42.33475 210.692245 
L 22.33475 210.692245 
L 22.33475 210.692245 
" style="fill: none; opacity: 0.5; stroke: #808080; stroke-width: 2; stroke-linecap: round"/>
    <path d="M 22.33475 418.342942 
L 22.33475 418.342942 
L 42.33475 418.342942 
L 42.33475 418.342942 
" style="fill: none; opacity: 0.5; stroke: #808080; stroke-width: 2; stroke-linecap: round"/>
   </g>
   <g id="text_2">
    <!-- Layer 2: Policy Formulation -->
    <g style="fill: #ffffff" transform="translate(57.4695 546.630179) scale(0.32 -0.32)">
     <defs>
      <path id="DejaVuSans-Bold-32" d="M 1844 884 
L 3897 884 
L 3897 0 
L 506 0 
L 506 884 
L 2209 2388 
Q 2438 2594 2547 2791 
Q 2656 2988 2656 3200 
Q 2656 3528 2436 3728 
Q 2216 3928 1850 3928 
Q 1569 3928 1234 3808 
Q 900 3688 519 3450 
L 519 4475 
Q 925 4609 1322 4679 
Q 1719 4750 2100 4750 
Q 2938 4750 3402 4381 
Q 3866 4013 3866 3353 
Q 3866 2972 3669 2642 
Q 3472 2313 2841 1759 
L 1844 884 
z
" transform="scale(0.015625)"/>
      <path id="DejaVuSans-Bold-50" d="M 588 4666 
L 2584 4666 
Q 3475 4666 3951 4270 
Q 4428 3875 4428 3144 
Q 4428 2409 3951 2014 
Q 3475 1619 2584 1619 
L 1791 1619 
L 1791 0 
L 588 0 
L 588 4666 
z
M 1791 3794 
L 1791 2491 
L 2456 2491 
Q 2806 2491 2997 2661 
Q 3188 2831 3188 3144 
Q 3188 3456 2997 3625 
Q 2806 3794 2456 3794 
L 1791 3794 
z
" transform="scale(0.015625)"/>
      <path id="DejaVuSans-Bold-6c" d="M 538 4863 
L 1656 4863 
L 1656 0 
L 538 0 
L 538 4863 
z
" transform="scale(0.015625)"/>
      <path id="DejaVuSans-Bold-46" d="M 588 4666 
L 3834 4666 
L 3834 3756 
L 1791 3756 
L 1791 2888 
L 3713 2888 
L 3713 1978 
L 1791 1978 
L 1791 0 
L 588 0 
L 588 4666 
z
" transform="scale(0.015625)"/>
      <path id="DejaVuSans-Bold-6d" d="M 3781 2919 
Q 3994 3244 4286 3414 
Q 4578 3584 4928 3584 
Q 5531 3584 5847 3212 
Q 6163 2841 6163 2131 
L 6163 0 
L 5038 0 
L 5038 1825 
Q 5041 1866 5042 1909 
Q 5044 1953 5044 2034 
Q 5044 2406 4934 2573 
Q 4825 2741 4581 2741 
Q 4263 2741 4089 2478 
Q 3916 2216 3909 1719 
L 3909 0 
L 2784 0 
L 2784 1825 
Q 2784 2406 2684 2573 
Q 2584 2741 2328 2741 
Q 2006 2741 1831 2477 
Q 1656 2213 1656 1722 
L 1656 0 
L 531 0 
L 531 3500 
L 1656 3500 
L 1656 2988 
Q 1863 3284 2130 3434 
Q 2397 3584 2719 3584 
Q 3081 3584 3359 3409 
Q 3638 3234 3781 2919 
z
" transform="scale(0.015625)"/>
      <path id="DejaVuSans-Bold-75" d="M 500 1363 
L 500 3500 
L 1625 3500 
L 1625 3150 
Q 1625 2866 1622 2436 
Q 1619 2006 1619 1863 
Q 1619 1441 1641 1255 
Q 1663 1069 1716 984 
Q 1784 875 1895 815 
Q 2006 756 2150 756 
Q 2500 756 2700 1025 
Q 2900 1294 2900 1772 
L 2900 3500 
L 4019 3500 
L 4019 0 
L 2900 0 
L 2900 506 
Q 2647 200 2364 54 
Q 2081 -91 1741 -91 
Q 1134 -91 817 281 
Q 500 653 500 1363 
z
" transform="scale(0.015625)"/>
     </defs>
     <use xlink:href="#DejaVuSans-Bold-4c"/>
     <use xlink:href="#DejaVuSans-Bold-61" transform="translate(63.720703 0)"/>
     <use xlink:href="#DejaVuSans-Bold-79" transform="translate(128.076172 0)"/>
     <use xlink:href="#DejaVuSans-Bold-65" transform="translate(193.261719 0)"/>
     <use xlink:href="#DejaVuSans-Bold-72" transform="translate(261.083984 0)"/>
     <use xlink:href="#DejaVuSans-Bold-20" transform="translate(310.400391 0)"/>
     <use xlink:href="#DejaVuSans-Bold-32" transform="translate(345.214844 0)"/>
     <use xlink:href="#DejaVuSans-Bold-3a" transform="translate(414.794922 0)"/>
     <use xlink:href="#DejaVuSans-Bold-20" transform="translate(454.785156 0)"/>
     <use xlink:href="#DejaVuSans-Bold-50" transform="translate(489.599609 0)"/>
     <use xlink:href="#DejaVuSans-Bold-6f" transform="translate(562.890625 0)"/>
     <use xlink:href="#DejaVuSans-Bold-6c" transform="translate(631.591797 0)"/>
     <use xlink:href="#DejaVuSans-Bold-69" transform="translate(665.869141 0)"/>
     <use xlink:href="#DejaVuSans-Bold-63" transform="translate(700.146484 0)"/>
     <use xlink:href="#DejaVuSans-Bold-79" transform="translate(759.423828 0)"/>
     <use xlink:href="#DejaVuSans-Bold-20" transform="translate(824.609375 0)"/>
     <use xlink:href="#DejaVuSans-Bold-46" transform="translate(859.423828 0)"/>
     <use xlink:href="#DejaVuSans-Bold-6f" transform="translate(923.734375 0)"/>
     <use xlink:href="#DejaVuSans-Bold-72" transform="translate(992.435547 0)"/>
     <use xlink:href="#DejaVuSans-Bold-6d" transform="translate(1041.751953 0)"/>
     <use xlink:href="#DejaVuSans-Bold-75" transform="translate(1145.951172 0)"/>
     <use xlink:href="#DejaVuSans-Bold-6c" transform="translate(1217.142578 0)"/>
     <use xlink:href="#DejaVuSans-Bold-61" transform="translate(1251.419922 0)"/>
     <use xlink:href="#DejaVuSans-Bold-74" transform="translate(1318.900391 0)"/>
     <use xlink:href="#DejaVuSans-Bold-69" transform="translate(1366.703125 0)"/>
     <use xlink:href="#DejaVuSans-Bold-6f" transform="translate(1400.980469 0)"/>
     <use xlink:href="#DejaVuSans-Bold-6e" transform="translate(1469.681641 0)"/>
    </g>
   </g>
   <g id="patch_10">
    <path d="M 660.7035 865.156318 
Q 660.7035 773.091613 660.7035 685.499045 
" style="fill: none; stroke: #000000; stroke-width: 4; stroke-linecap: round"/>
    <path d="M 658.7035 689.499045 
L 660.7035 685.499045 
L 662.7035 689.499045 
" style="fill: none; stroke: #000000; stroke-width: 4; stroke-linecap: round"/>
   </g>
   <g id="patch_11">
    <path d="M 47.4156 445.857959 
Q 47.4156 549.683308 47.4156 653.508657 
" style="fill: none; opacity: 0.5; stroke: #808080; stroke-width: 2; stroke-linecap: round"/>
    <path d="M 57.4156 445.857959 
L 57.4156 445.857959 
L 37.4156 445.857959 
L 37.4156 445.857959 
" style="fill: none; opacity: 0.5; stroke: #808080; stroke-width: 2; stroke-linecap: round"/>
    <path d="M 37.4156 653.508657 
L 37.4156 653.508657 
L 57.4156 653.508657 
L 57.4156 653.508657 
" style="fill: none; opacity: 0.5; stroke: #808080; stroke-width: 2; stroke-linecap: round"/>
   </g>
   <g id="text_3">
    <!-- Layer 3: Legal Framework -->
    <g style="fill: #ffffff" transform="translate(57.4695 781.795893) scale(0.32 -0.32)">
     <defs>
      <path id="DejaVuSans-Bold-33" d="M 2981 2516 
Q 3453 2394 3698 2092 
Q 3944 1791 3944 1325 
Q 3944 631 3412 270 
Q 2881 -91 1863 -91 
Q 1503 -91 1142 -33 
Q 781 25 428 141 
L 428 1069 
Q 766 900 1098 814 
Q 1431 728 1753 728 
Q 2231 728 2486 893 
Q 2741 1059 2741 1369 
Q 2741 1688 2480 1852 
Q 2219 2016 1709 2016 
L 1228 2016 
L 1228 2791 
L 1734 2791 
Q 2188 2791 2409 2933 
Q 2631 3075 2631 3366 
Q 2631 3634 2415 3781 
Q 2200 3928 1806 3928 
Q 1516 3928 1219 3862 
Q 922 3797 628 3669 
L 628 4550 
Q 984 4650 1334 4700 
Q 1684 4750 2022 4750 
Q 2931 4750 3382 4451 
Q 3834 4153 3834 3553 
Q 3834 3144 3618 2883 
Q 3403 2622 2981 2516 
z
" transform="scale(0.015625)"/>
      <path id="DejaVuSans-Bold-77" d="M 225 3500 
L 1313 3500 
L 1900 1088 
L 2491 3500 
L 3425 3500 
L 4013 1113 
L 4603 3500 
L 5691 3500 
L 4769 0 
L 3547 0 
L 2956 2406 
L 2369 0 
L 1147 0 
L 225 3500 
z
" transform="scale(0.015625)"/>
      <path id="DejaVuSans-Bold-6b" d="M 538 4863 
L 1656 4863 
L 1656 2216 
L 2944 3500 
L 4244 3500 
L 2534 1894 
L 4378 0 
L 3022 0 
L 1656 1459 
L 1656 0 
L 538 0 
L 538 4863 
z
" transform="scale(0.015625)"/>
     </defs>
     <use xlink:href="#DejaVuSans-Bold-4c"/>
     <use xlink:href="#DejaVuSans-Bold-61" transform="translate(63.720703 0)"/>
     <use xlink:href="#DejaVuSans-Bold-79" transform="translate(128.076172 0)"/>
     <use xlink:href="#DejaVuSans-Bold-65" transform="translate(193.261719 0)"/>
     <use xlink:href="#DejaVuSans-Bold-72" transform="translate(261.083984 0)"/>
     <use xlink:href="#DejaVuSans-Bold-20" transform="translate(310.400391 0)"/>
     <use xlink:href="#DejaVuSans-Bold-33" transform="translate(345.214844 0)"/>
     <use xlink:href="#DejaVuSans-Bold-3a" transform="translate(414.794922 0)"/>
     <use xlink:href="#DejaVuSans-Bold-20" transform="translate(454.785156 0)"/>
     <use xlink:href="#DejaVuSans-Bold-4c" transform="translate(489.599609 0)"/>
     <use xlink:href="#DejaVuSans-Bold-65" transform="translate(553.320312 0)"/>
     <use xlink:href="#DejaVuSans-Bold-67" transform="translate(621.142578 0)"/>
     <use xlink:href="#DejaVuSans-Bold-61" transform="translate(692.724609 0)"/>
     <use xlink:href="#DejaVuSans-Bold-6c" transform="translate(760.205078 0)"/>
     <use xlink:href="#DejaVuSans-Bold-20" transform="translate(794.482422 0)"/>
     <use xlink:href="#DejaVuSans-Bold-46" transform="translate(829.296875 0)"/>
     <use xlink:href="#DejaVuSans-Bold-72" transform="translate(891.232422 0)"/>
     <use xlink:href="#DejaVuSans-Bold-61" transform="translate(940.548828 0)"/>
     <use xlink:href="#DejaVuSans-Bold-6d" transform="translate(1008.029297 0)"/>
     <use xlink:href="#DejaVuSans-Bold-65" transform="translate(1112.228516 0)"/>
     <use xlink:href="#DejaVuSans-Bold-77" transform="translate(1180.050781 0)"/>
     <use xlink:href="#DejaVuSans-Bold-6f" transform="translate(1272.433594 0)"/>
     <use xlink:href="#DejaVuSans-Bold-72" transform="translate(1341.134766 0)"/>
     <use xlink:href="#DejaVuSans-Bold-6b" transform="translate(1390.451172 0)"/>
    </g>
   </g>
   <g id="patch_12">
    <path d="M 660.7035 1100.322032 
Q 660.7035 1008.257328 660.7035 920.664759 
" style="fill: none; stroke: #000000; stroke-width: 4; stroke-linecap: round"/>
    <path d="M 658.7035 924.664759 
L 660.7035 920.664759 
L 662.7035 924.664759 
" style="fill: none; stroke: #000000; stroke-width: 4; stroke-linecap: round"/>
   </g>
   <g id="patch_13">
    <path d="M 62.49645 681.023674 
Q 62.49645 784.849022 62.49645 888.674371 
" style="fill: none; opacity: 0.5; stroke: #808080; stroke-width: 2; stroke-linecap: round"/>
    <path d="M 72.49645 681.023674 
L 72.49645 681.023674 
L 52.49645 681.023674 
L 52.49645 681.023674 
" style="fill: none; opacity: 0.5; stroke: #808080; stroke-width: 2; stroke-linecap: round"/>
    <path d="M 52.49645 888.674371 
L 52.49645 888.674371 
L 72.49645 888.674371 
L 72.49645 888.674371 
" style="fill: none; opacity: 0.5; stroke: #808080; stroke-width: 2; stroke-linecap: round"/>
   </g>
   <g id="text_4">
    <!-- Layer 4: Institutional Coordination -->
    <g style="fill: #ffffff" transform="translate(57.4695 1016.961607) scale(0.32 -0.32)">
     <defs>
      <path id="DejaVuSans-Bold-34" d="M 2356 3675 
L 1038 1722 
L 2356 1722 
L 2356 3675 
z
M 2156 4666 
L 3494 4666 
L 3494 1722 
L 4159 1722 
L 4159 850 
L 3494 850 
L 3494 0 
L 2356 0 
L 2356 850 
L 288 850 
L 288 1881 
L 2156 4666 
z
" transform="scale(0.015625)"/>
      <path id="DejaVuSans-Bold-49" d="M 588 4666 
L 1791 4666 
L 1791 0 
L 588 0 
L 588 4666 
z
" transform="scale(0.015625)"/>
      <path id="DejaVuSans-Bold-73" d="M 3272 3391 
L 3272 2541 
Q 2913 2691 2578 2766 
Q 2244 2841 1947 2841 
Q 1628 2841 1473 2761 
Q 1319 2681 1319 2516 
Q 1319 2381 1436 2309 
Q 1553 2238 1856 2203 
L 2053 2175 
Q 2913 2066 3209 1816 
Q 3506 1566 3506 1031 
Q 3506 472 3093 190 
Q 2681 -91 1863 -91 
Q 1516 -91 1145 -36 
Q 775 19 384 128 
L 384 978 
Q 719 816 1070 734 
Q 1422 653 1784 653 
Q 2113 653 2278 743 
Q 2444 834 2444 1013 
Q 2444 1163 2330 1236 
Q 2216 1309 1875 1350 
L 1678 1375 
Q 931 1469 631 1722 
Q 331 1975 331 2491 
Q 331 3047 712 3315 
Q 1094 3584 1881 3584 
Q 2191 3584 2531 3537 
Q 2872 3491 3272 3391 
z
" transform="scale(0.015625)"/>
      <path id="DejaVuSans-Bold-43" d="M 4288 256 
Q 3956 84 3597 -3 
Q 3238 -91 2847 -91 
Q 1681 -91 1000 561 
Q 319 1213 319 2328 
Q 319 3447 1000 4098 
Q 1681 4750 2847 4750 
Q 3238 4750 3597 4662 
Q 3956 4575 4288 4403 
L 4288 3438 
Q 3953 3666 3628 3772 
Q 3303 3878 2944 3878 
Q 2300 3878 1931 3465 
Q 1563 3053 1563 2328 
Q 1563 1606 1931 1193 
Q 2300 781 2944 781 
Q 3303 781 3628 887 
Q 3953 994 4288 1222 
L 4288 256 
z
" transform="scale(0.015625)"/>
      <path id="DejaVuSans-Bold-64" d="M 2919 2988 
L 2919 4863 
L 4044 4863 
L 4044 0 
L 2919 0 
L 2919 506 
Q 2688 197 2409 53 
Q 2131 -91 1766 -91 
Q 1119 -91 703 423 
Q 288 938 288 1747 
Q 288 2556 703 3070 
Q 1119 3584 1766 3584 
Q 2128 3584 2408 3439 
Q 2688 3294 2919 2988 
z
M 2181 722 
Q 2541 722 2730 984 
Q 2919 1247 2919 1747 
Q 2919 2247 2730 2509 
Q 2541 2772 2181 2772 
Q 1825 2772 1636 2509 
Q 1447 2247 1447 1747 
Q 1447 1247 1636 984 
Q 1825 722 2181 722 
z
" transform="scale(0.015625)"/>
     </defs>
     <use xlink:href="#DejaVuSans-Bold-4c"/>
     <use xlink:href="#DejaVuSans-Bold-61" transform="translate(63.720703 0)"/>
     <use xlink:href="#DejaVuSans-Bold-79" transform="translate(128.076172 0)"/>
     <use xlink:href="#DejaVuSans-Bold-65" transform="translate(193.261719 0)"/>
     <use xlink:href="#DejaVuSans-Bold-72" transform="translate(261.083984 0)"/>
     <use xlink:href="#DejaVuSans-Bold-20" transform="translate(310.400391 0)"/>
     <use xlink:href="#DejaVuSans-Bold-34" transform="translate(345.214844 0)"/>
     <use xlink:href="#DejaVuSans-Bold-3a" transform="translate(414.794922 0)"/>
     <use xlink:href="#DejaVuSans-Bold-20" transform="translate(454.785156 0)"/>
     <use xlink:href="#DejaVuSans-Bold-49" transform="translate(489.599609 0)"/>
     <use xlink:href="#DejaVuSans-Bold-6e" transform="translate(526.806641 0)"/>
     <use xlink:href="#DejaVuSans-Bold-73" transform="translate(597.998047 0)"/>
     <use xlink:href="#DejaVuSans-Bold-74" transform="translate(657.519531 0)"/>
     <use xlink:href="#DejaVuSans-Bold-69" transform="translate(705.322266 0)"/>
     <use xlink:href="#DejaVuSans-Bold-74" transform="translate(739.599609 0)"/>
     <use xlink:href="#DejaVuSans-Bold-75" transform="translate(787.402344 0)"/>
     <use xlink:href="#DejaVuSans-Bold-74" transform="translate(858.59375 0)"/>
     <use xlink:href="#DejaVuSans-Bold-69" transform="translate(906.396484 0)"/>
     <use xlink:href="#DejaVuSans-Bold-6f" transform="translate(940.673828 0)"/>
     <use xlink:href="#DejaVuSans-Bold-6e" transform="translate(1009.375 0)"/>
     <use xlink:href="#DejaVuSans-Bold-61" transform="translate(1080.566406 0)"/>
     <use xlink:href="#DejaVuSans-Bold-6c" transform="translate(1148.046875 0)"/>
     <use xlink:href="#DejaVuSans-Bold-20" transform="translate(1182.324219 0)"/>
     <use xlink:href="#DejaVuSans-Bold-43" transform="translate(1217.138672 0)"/>
     <use xlink:href="#DejaVuSans-Bold-6f" transform="translate(1290.527344 0)"/>
     <use xlink:href="#DejaVuSans-Bold-6f" transform="translate(1359.228516 0)"/>
     <use xlink:href="#DejaVuSans-Bold-72" transform="translate(1427.929688 0)"/>
     <use xlink:href="#DejaVuSans-Bold-64" transform="translate(1477.246094 0)"/>
     <use xlink:href="#DejaVuSans-Bold-69" transform="translate(1548.828125 0)"/>
     <use xlink:href="#DejaVuSans-Bold-6e" transform="translate(1583.105469 0)"/>
     <use xlink:href="#DejaVuSans-Bold-61" transform="translate(1654.296875 0)"/>
     <use xlink:href="#DejaVuSans-Bold-74" transform="translate(1721.777344 0)"/>
     <use xlink:href="#DejaVuSans-Bold-69" transform="translate(1769.580078 0)"/>
     <use xlink:href="#DejaVuSans-Bold-6f" transform="translate(1803.857422 0)"/>
     <use xlink:href="#DejaVuSans-Bold-6e" transform="translate(1872.558594 0)"/>
    </g>
   </g>
   <g id="patch_14">
    <path d="M 660.7035 1335.487747 
Q 660.7035 1243.423042 660.7035 1155.830474 
" style="fill: none; stroke: #000000; stroke-width: 4; stroke-linecap: round"/>
    <path d="M 658.7035 1159.830474 
L 660.7035 1155.830474 
L 662.7035 1159.830474 
" style="fill: none; stroke: #000000; stroke-width: 4; stroke-linecap: round"/>
   </g>
   <g id="patch_15">
    <path d="M 77.5773 916.189388 
Q 77.5773 1020.014737 77.5773 1123.840085 
" style="fill: none; opacity: 0.5; stroke: #808080; stroke-width: 2; stroke-linecap: round"/>
    <path d="M 87.5773 916.189388 
L 87.5773 916.189388 
L 67.5773 916.189388 
L 67.5773 916.189388 
" style="fill: none; opacity: 0.5; stroke: #808080; stroke-width: 2; stroke-linecap: round"/>
    <path d="M 67.5773 1123.840085 
L 67.5773 1123.840085 
L 87.5773 1123.840085 
L 87.5773 1123.840085 
" style="fill: none; opacity: 0.5; stroke: #808080; stroke-width: 2; stroke-linecap: round"/>
   </g>
   <g id="text_5">
    <!-- Layer 5: Implementation Mechanisms -->
    <g style="fill: #ffffff" transform="translate(57.4695 1252.127321) scale(0.32 -0.32)">
     <defs>
      <path id="DejaVuSans-Bold-35" d="M 678 4666 
L 3669 4666 
L 3669 3781 
L 1638 3781 
L 1638 3059 
Q 1775 3097 1914 3117 
Q 2053 3138 2203 3138 
Q 3056 3138 3531 2711 
Q 4006 2284 4006 1522 
Q 4006 766 3489 337 
Q 2972 -91 2053 -91 
Q 1656 -91 1267 -14 
Q 878 63 494 219 
L 494 1166 
Q 875 947 1217 837 
Q 1559 728 1863 728 
Q 2300 728 2551 942 
Q 2803 1156 2803 1522 
Q 2803 1891 2551 2103 
Q 2300 2316 1863 2316 
Q 1603 2316 1309 2248 
Q 1016 2181 678 2041 
L 678 4666 
z
" transform="scale(0.015625)"/>
      <path id="DejaVuSans-Bold-70" d="M 1656 506 
L 1656 -1331 
L 538 -1331 
L 538 3500 
L 1656 3500 
L 1656 2988 
Q 1888 3294 2169 3439 
Q 2450 3584 2816 3584 
Q 3463 3584 3878 3070 
Q 4294 2556 4294 1747 
Q 4294 938 3878 423 
Q 3463 -91 2816 -91 
Q 2450 -91 2169 54 
Q 1888 200 1656 506 
z
M 2400 2772 
Q 2041 2772 1848 2508 
Q 1656 2244 1656 1747 
Q 1656 1250 1848 986 
Q 2041 722 2400 722 
Q 2759 722 2948 984 
Q 3138 1247 3138 1747 
Q 3138 2247 2948 2509 
Q 2759 2772 2400 2772 
z
" transform="scale(0.015625)"/>
      <path id="DejaVuSans-Bold-4d" d="M 588 4666 
L 2119 4666 
L 3181 2169 
L 4250 4666 
L 5778 4666 
L 5778 0 
L 4641 0 
L 4641 3413 
L 3566 897 
L 2803 897 
L 1728 3413 
L 1728 0 
L 588 0 
L 588 4666 
z
" transform="scale(0.015625)"/>
      <path id="DejaVuSans-Bold-68" d="M 4056 2131 
L 4056 0 
L 2931 0 
L 2931 347 
L 2931 1625 
Q 2931 2084 2911 2256 
Q 2891 2428 2841 2509 
Q 2775 2619 2662 2680 
Q 2550 2741 2406 2741 
Q 2056 2741 1856 2470 
Q 1656 2200 1656 1722 
L 1656 0 
L 538 0 
L 538 4863 
L 1656 4863 
L 1656 2988 
Q 1909 3294 2193 3439 
Q 2478 3584 2822 3584 
Q 3428 3584 3742 3212 
Q 4056 2841 4056 2131 
z
" transform="scale(0.015625)"/>
     </defs>
     <use xlink:href="#DejaVuSans-Bold-4c"/>
     <use xlink:href="#DejaVuSans-Bold-61" transform="translate(63.720703 0)"/>
     <use xlink:href="#DejaVuSans-Bold-79" transform="translate(128.076172 0)"/>
     <use xlink:href="#DejaVuSans-Bold-65" transform="translate(193.261719 0)"/>
     <use xlink:href="#DejaVuSans-Bold-72" transform="translate(261.083984 0)"/>
     <use xlink:href="#DejaVuSans-Bold-20" transform="translate(310.400391 0)"/>
     <use xlink:href="#DejaVuSans-Bold-35" transform="translate(345.214844 0)"/>
     <use xlink:href="#DejaVuSans-Bold-3a" transform="translate(414.794922 0)"/>
     <use xlink:href="#DejaVuSans-Bold-20" transform="translate(454.785156 0)"/>
     <use xlink:href="#DejaVuSans-Bold-49" transform="translate(489.599609 0)"/>
     <use xlink:href="#DejaVuSans-Bold-6d" transform="translate(526.806641 0)"/>
     <use xlink:href="#DejaVuSans-Bold-70" transform="translate(631.005859 0)"/>
     <use xlink:href="#DejaVuSans-Bold-6c" transform="translate(702.587891 0)"/>
     <use xlink:href="#DejaVuSans-Bold-65" transform="translate(736.865234 0)"/>
     <use xlink:href="#DejaVuSans-Bold-6d" transform="translate(804.6875 0)"/>
     <use xlink:href="#DejaVuSans-Bold-65" transform="translate(908.886719 0)"/>
     <use xlink:href="#DejaVuSans-Bold-6e" transform="translate(976.708984 0)"/>
     <use xlink:href="#DejaVuSans-Bold-74" transform="translate(1047.900391 0)"/>
     <use xlink:href="#DejaVuSans-Bold-61" transform="translate(1095.703125 0)"/>
     <use xlink:href="#DejaVuSans-Bold-74" transform="translate(1163.183594 0)"/>
     <use xlink:href="#DejaVuSans-Bold-69" transform="translate(1210.986328 0)"/>
     <use xlink:href="#DejaVuSans-Bold-6f" transform="translate(1245.263672 0)"/>
     <use xlink:href="#DejaVuSans-Bold-6e" transform="translate(1313.964844 0)"/>
     <use xlink:href="#DejaVuSans-Bold-20" transform="translate(1385.15625 0)"/>
     <use xlink:href="#DejaVuSans-Bold-4d" transform="translate(1419.970703 0)"/>
     <use xlink:href="#DejaVuSans-Bold-65" transform="translate(1519.482422 0)"/>
     <use xlink:href="#DejaVuSans-Bold-63" transform="translate(1587.304688 0)"/>
     <use xlink:href="#DejaVuSans-Bold-68" transform="translate(1646.582031 0)"/>
     <use xlink:href="#DejaVuSans-Bold-61" transform="translate(1717.773438 0)"/>
     <use xlink:href="#DejaVuSans-Bold-6e" transform="translate(1785.253906 0)"/>
     <use xlink:href="#DejaVuSans-Bold-69" transform="translate(1856.445312 0)"/>
     <use xlink:href="#DejaVuSans-Bold-73" transform="translate(1890.722656 0)"/>
     <use xlink:href="#DejaVuSans-Bold-6d" transform="translate(1950.244141 0)"/>
     <use xlink:href="#DejaVuSans-Bold-73" transform="translate(2054.443359 0)"/>
    </g>
   </g>
   <g id="patch_16">
    <path d="M 660.7035 1570.653461 
Q 660.7035 1478.588756 660.7035 1390.996188 
" style="fill: none; stroke: #000000; stroke-width: 4; stroke-linecap: round"/>
    <path d="M 658.7035 1394.996188 
L 660.7035 1390.996188 
L 662.7035 1394.996188 
" style="fill: none; stroke: #000000; stroke-width: 4; stroke-linecap: round"/>
   </g>
   <g id="patch_17">
    <path d="M 92.65815 1151.355102 
Q 92.65815 1255.180451 92.65815 1359.0058 
" style="fill: none; opacity: 0.5; stroke: #808080; stroke-width: 2; stroke-linecap: round"/>
    <path d="M 102.65815 1151.355102 
L 102.65815 1151.355102 
L 82.65815 1151.355102 
L 82.65815 1151.355102 
" style="fill: none; opacity: 0.5; stroke: #808080; stroke-width: 2; stroke-linecap: round"/>
    <path d="M 82.65815 1359.0058 
L 82.65815 1359.0058 
L 102.65815 1359.0058 
L 102.65815 1359.0058 
" style="fill: none; opacity: 0.5; stroke: #808080; stroke-width: 2; stroke-linecap: round"/>
   </g>
   <g id="text_6">
    <!-- Layer 6: Execution Entities -->
    <g style="fill: #ffffff" transform="translate(57.4695 1487.293036) scale(0.32 -0.32)">
     <defs>
      <path id="DejaVuSans-Bold-36" d="M 2316 2303 
Q 2000 2303 1842 2098 
Q 1684 1894 1684 1484 
Q 1684 1075 1842 870 
Q 2000 666 2316 666 
Q 2634 666 2792 870 
Q 2950 1075 2950 1484 
Q 2950 1894 2792 2098 
Q 2634 2303 2316 2303 
z
M 3803 4544 
L 3803 3681 
Q 3506 3822 3243 3889 
Q 2981 3956 2731 3956 
Q 2194 3956 1894 3657 
Q 1594 3359 1544 2772 
Q 1750 2925 1990 3001 
Q 2231 3078 2516 3078 
Q 3231 3078 3670 2659 
Q 4109 2241 4109 1563 
Q 4109 813 3618 361 
Q 3128 -91 2303 -91 
Q 1394 -91 895 523 
Q 397 1138 397 2266 
Q 397 3422 980 4083 
Q 1563 4744 2578 4744 
Q 2900 4744 3203 4694 
Q 3506 4644 3803 4544 
z
" transform="scale(0.015625)"/>
      <path id="DejaVuSans-Bold-45" d="M 588 4666 
L 3834 4666 
L 3834 3756 
L 1791 3756 
L 1791 2888 
L 3713 2888 
L 3713 1978 
L 1791 1978 
L 1791 909 
L 3903 909 
L 3903 0 
L 588 0 
L 588 4666 
z
" transform="scale(0.015625)"/>
      <path id="DejaVuSans-Bold-78" d="M 1422 1791 
L 159 3500 
L 1344 3500 
L 2059 2463 
L 2784 3500 
L 3969 3500 
L 2706 1797 
L 4031 0 
L 2847 0 
L 2059 1106 
L 1281 0 
L 97 0 
L 1422 1791 
z
" transform="scale(0.015625)"/>
     </defs>
     <use xlink:href="#DejaVuSans-Bold-4c"/>
     <use xlink:href="#DejaVuSans-Bold-61" transform="translate(63.720703 0)"/>
     <use xlink:href="#DejaVuSans-Bold-79" transform="translate(128.076172 0)"/>
     <use xlink:href="#DejaVuSans-Bold-65" transform="translate(193.261719 0)"/>
     <use xlink:href="#DejaVuSans-Bold-72" transform="translate(261.083984 0)"/>
     <use xlink:href="#DejaVuSans-Bold-20" transform="translate(310.400391 0)"/>
     <use xlink:href="#DejaVuSans-Bold-36" transform="translate(345.214844 0)"/>
     <use xlink:href="#DejaVuSans-Bold-3a" transform="translate(414.794922 0)"/>
     <use xlink:href="#DejaVuSans-Bold-20" transform="translate(454.785156 0)"/>
     <use xlink:href="#DejaVuSans-Bold-45" transform="translate(489.599609 0)"/>
     <use xlink:href="#DejaVuSans-Bold-78" transform="translate(557.910156 0)"/>
     <use xlink:href="#DejaVuSans-Bold-65" transform="translate(622.412109 0)"/>
     <use xlink:href="#DejaVuSans-Bold-63" transform="translate(690.234375 0)"/>
     <use xlink:href="#DejaVuSans-Bold-75" transform="translate(749.511719 0)"/>
     <use xlink:href="#DejaVuSans-Bold-74" transform="translate(820.703125 0)"/>
     <use xlink:href="#DejaVuSans-Bold-69" transform="translate(868.505859 0)"/>
     <use xlink:href="#DejaVuSans-Bold-6f" transform="translate(902.783203 0)"/>
     <use xlink:href="#DejaVuSans-Bold-6e" transform="translate(971.484375 0)"/>
     <use xlink:href="#DejaVuSans-Bold-20" transform="translate(1042.675781 0)"/>
     <use xlink:href="#DejaVuSans-Bold-45" transform="translate(1077.490234 0)"/>
     <use xlink:href="#DejaVuSans-Bold-6e" transform="translate(1145.800781 0)"/>
     <use xlink:href="#DejaVuSans-Bold-74" transform="translate(1216.992188 0)"/>
     <use xlink:href="#DejaVuSans-Bold-69" transform="translate(1264.794922 0)"/>
     <use xlink:href="#DejaVuSans-Bold-74" transform="translate(1299.072266 0)"/>
     <use xlink:href="#DejaVuSans-Bold-69" transform="translate(1346.875 0)"/>
     <use xlink:href="#DejaVuSans-Bold-65" transform="translate(1381.152344 0)"/>
     <use xlink:href="#DejaVuSans-Bold-73" transform="translate(1448.974609 0)"/>
    </g>
   </g>
   <g id="text_7">
    <!-- Sets overall strategic priorities and national goals -->
    <g style="fill: #2c3e50" transform="translate(1314.207 309.933839) scale(0.26 -0.26)">
     <defs>
      <path id="DejaVuSans-Oblique-53" d="M 3859 4513 
L 3738 3897 
Q 3422 4066 3111 4152 
Q 2800 4238 2509 4238 
Q 1944 4238 1609 3991 
Q 1275 3744 1275 3334 
Q 1275 3109 1398 2989 
Q 1522 2869 2034 2731 
L 2413 2638 
Q 3053 2472 3303 2217 
Q 3553 1963 3553 1503 
Q 3553 797 2998 353 
Q 2444 -91 1538 -91 
Q 1166 -91 791 -17 
Q 416 56 38 206 
L 166 856 
Q 513 641 861 531 
Q 1209 422 1556 422 
Q 2147 422 2503 684 
Q 2859 947 2859 1369 
Q 2859 1650 2717 1795 
Q 2575 1941 2106 2059 
L 1728 2156 
Q 1081 2325 845 2545 
Q 609 2766 609 3163 
Q 609 3859 1145 4304 
Q 1681 4750 2541 4750 
Q 2875 4750 3203 4690 
Q 3531 4631 3859 4513 
z
" transform="scale(0.015625)"/>
      <path id="DejaVuSans-Oblique-65" d="M 3078 2063 
Q 3088 2113 3092 2166 
Q 3097 2219 3097 2272 
Q 3097 2653 2873 2875 
Q 2650 3097 2266 3097 
Q 1838 3097 1509 2826 
Q 1181 2556 1013 2059 
L 3078 2063 
z
M 3578 1613 
L 903 1613 
Q 884 1494 878 1425 
Q 872 1356 872 1306 
Q 872 872 1139 634 
Q 1406 397 1894 397 
Q 2269 397 2603 481 
Q 2938 566 3225 728 
L 3116 159 
Q 2806 34 2476 -28 
Q 2147 -91 1806 -91 
Q 1078 -91 686 257 
Q 294 606 294 1247 
Q 294 1794 489 2264 
Q 684 2734 1063 3103 
Q 1306 3334 1642 3459 
Q 1978 3584 2356 3584 
Q 2950 3584 3301 3228 
Q 3653 2872 3653 2272 
Q 3653 2128 3634 1964 
Q 3616 1800 3578 1613 
z
" transform="scale(0.015625)"/>
      <path id="DejaVuSans-Oblique-74" d="M 2706 3500 
L 2619 3053 
L 1472 3053 
L 1100 1153 
Q 1081 1047 1072 975 
Q 1063 903 1063 863 
Q 1063 663 1183 572 
Q 1303 481 1569 481 
L 2150 481 
L 2053 0 
L 1503 0 
Q 991 0 739 200 
Q 488 400 488 806 
Q 488 878 497 964 
Q 506 1050 525 1153 
L 897 3053 
L 409 3053 
L 500 3500 
L 978 3500 
L 1172 4494 
L 1747 4494 
L 1556 3500 
L 2706 3500 
z
" transform="scale(0.015625)"/>
      <path id="DejaVuSans-Oblique-73" d="M 3200 3397 
L 3091 2853 
Q 2863 2978 2609 3040 
Q 2356 3103 2088 3103 
Q 1634 3103 1373 2948 
Q 1113 2794 1113 2528 
Q 1113 2219 1719 2053 
Q 1766 2041 1788 2034 
L 1972 1978 
Q 2547 1819 2739 1644 
Q 2931 1469 2931 1166 
Q 2931 609 2489 259 
Q 2047 -91 1331 -91 
Q 1053 -91 747 -37 
Q 441 16 72 128 
L 184 722 
Q 500 559 806 475 
Q 1113 391 1394 391 
Q 1816 391 2080 572 
Q 2344 753 2344 1031 
Q 2344 1331 1650 1516 
L 1591 1531 
L 1394 1581 
Q 956 1697 753 1886 
Q 550 2075 550 2369 
Q 550 2928 970 3256 
Q 1391 3584 2113 3584 
Q 2397 3584 2667 3537 
Q 2938 3491 3200 3397 
z
" transform="scale(0.015625)"/>
      <path id="DejaVuSans-Oblique-20" transform="scale(0.015625)"/>
      <path id="DejaVuSans-Oblique-6f" d="M 1625 -91 
Q 1009 -91 651 289 
Q 294 669 294 1325 
Q 294 1706 417 2101 
Q 541 2497 738 2766 
Q 1047 3184 1428 3384 
Q 1809 3584 2291 3584 
Q 2888 3584 3255 3212 
Q 3622 2841 3622 2241 
Q 3622 1825 3500 1412 
Q 3378 1000 3181 728 
Q 2875 309 2494 109 
Q 2113 -91 1625 -91 
z
M 891 1344 
Q 891 869 1089 633 
Q 1288 397 1691 397 
Q 2269 397 2648 901 
Q 3028 1406 3028 2181 
Q 3028 2634 2825 2865 
Q 2622 3097 2228 3097 
Q 1903 3097 1650 2945 
Q 1397 2794 1197 2484 
Q 1050 2253 970 1956 
Q 891 1659 891 1344 
z
" transform="scale(0.015625)"/>
      <path id="DejaVuSans-Oblique-76" d="M 459 3500 
L 1069 3500 
L 1581 525 
L 3256 3500 
L 3866 3500 
L 1875 0 
L 1100 0 
L 459 3500 
z
" transform="scale(0.015625)"/>
      <path id="DejaVuSans-Oblique-72" d="M 2853 2969 
Q 2766 3016 2653 3041 
Q 2541 3066 2413 3066 
Q 1953 3066 1609 2717 
Q 1266 2369 1153 1784 
L 800 0 
L 225 0 
L 909 3500 
L 1484 3500 
L 1375 2956 
Q 1603 3259 1920 3421 
Q 2238 3584 2597 3584 
Q 2691 3584 2781 3573 
Q 2872 3563 2963 3538 
L 2853 2969 
z
" transform="scale(0.015625)"/>
      <path id="DejaVuSans-Oblique-61" d="M 3438 1997 
L 3047 0 
L 2472 0 
L 2578 531 
Q 2325 219 2001 64 
Q 1678 -91 1281 -91 
Q 834 -91 548 182 
Q 263 456 263 884 
Q 263 1497 752 1853 
Q 1241 2209 2100 2209 
L 2900 2209 
L 2931 2363 
Q 2938 2388 2941 2417 
Q 2944 2447 2944 2509 
Q 2944 2788 2717 2942 
Q 2491 3097 2081 3097 
Q 1800 3097 1504 3025 
Q 1209 2953 897 2809 
L 997 3341 
Q 1322 3463 1633 3523 
Q 1944 3584 2234 3584 
Q 2853 3584 3176 3315 
Q 3500 3047 3500 2534 
Q 3500 2431 3484 2292 
Q 3469 2153 3438 1997 
z
M 2816 1759 
L 2241 1759 
Q 1534 1759 1195 1570 
Q 856 1381 856 984 
Q 856 709 1029 553 
Q 1203 397 1509 397 
Q 1978 397 2328 733 
Q 2678 1069 2791 1631 
L 2816 1759 
z
" transform="scale(0.015625)"/>
      <path id="DejaVuSans-Oblique-6c" d="M 1172 4863 
L 1747 4863 
L 800 0 
L 225 0 
L 1172 4863 
z
" transform="scale(0.015625)"/>
      <path id="DejaVuSans-Oblique-67" d="M 3816 3500 
L 3219 434 
Q 3047 -456 2561 -893 
Q 2075 -1331 1253 -1331 
Q 950 -1331 690 -1286 
Q 431 -1241 206 -1147 
L 313 -588 
Q 525 -725 762 -790 
Q 1000 -856 1269 -856 
Q 1816 -856 2167 -557 
Q 2519 -259 2631 300 
L 2681 563 
Q 2441 288 2122 144 
Q 1803 0 1434 0 
Q 903 0 598 351 
Q 294 703 294 1319 
Q 294 1803 478 2267 
Q 663 2731 997 3091 
Q 1219 3328 1514 3456 
Q 1809 3584 2131 3584 
Q 2484 3584 2746 3420 
Q 3009 3256 3138 2956 
L 3238 3500 
L 3816 3500 
z
M 2950 2216 
Q 2950 2641 2750 2872 
Q 2550 3103 2181 3103 
Q 1953 3103 1747 3012 
Q 1541 2922 1394 2759 
Q 1156 2491 1023 2127 
Q 891 1763 891 1375 
Q 891 944 1092 712 
Q 1294 481 1672 481 
Q 2219 481 2584 976 
Q 2950 1472 2950 2216 
z
" transform="scale(0.015625)"/>
      <path id="DejaVuSans-Oblique-69" d="M 1172 4863 
L 1747 4863 
L 1606 4134 
L 1031 4134 
L 1172 4863 
z
M 909 3500 
L 1484 3500 
L 800 0 
L 225 0 
L 909 3500 
z
" transform="scale(0.015625)"/>
      <path id="DejaVuSans-Oblique-63" d="M 3431 3366 
L 3316 2797 
Q 3109 2947 2876 3022 
Q 2644 3097 2394 3097 
Q 2119 3097 1870 3000 
Q 1622 2903 1453 2725 
Q 1184 2453 1037 2087 
Q 891 1722 891 1331 
Q 891 859 1127 628 
Q 1363 397 1844 397 
Q 2081 397 2348 469 
Q 2616 541 2906 684 
L 2797 116 
Q 2547 13 2283 -39 
Q 2019 -91 1741 -91 
Q 1044 -91 669 257 
Q 294 606 294 1253 
Q 294 1797 489 2255 
Q 684 2713 1069 3078 
Q 1331 3328 1684 3456 
Q 2038 3584 2456 3584 
Q 2700 3584 2940 3529 
Q 3181 3475 3431 3366 
z
" transform="scale(0.015625)"/>
      <path id="DejaVuSans-Oblique-70" d="M 3175 2156 
Q 3175 2616 2975 2859 
Q 2775 3103 2400 3103 
Q 2144 3103 1911 2972 
Q 1678 2841 1497 2591 
Q 1319 2344 1212 1994 
Q 1106 1644 1106 1300 
Q 1106 863 1306 627 
Q 1506 391 1875 391 
Q 2147 391 2380 519 
Q 2613 647 2778 891 
Q 2956 1147 3065 1494 
Q 3175 1841 3175 2156 
z
M 1394 2969 
Q 1625 3272 1939 3428 
Q 2253 3584 2638 3584 
Q 3175 3584 3472 3232 
Q 3769 2881 3769 2247 
Q 3769 1728 3584 1258 
Q 3400 788 3053 416 
Q 2822 169 2531 39 
Q 2241 -91 1919 -91 
Q 1547 -91 1294 64 
Q 1041 219 916 525 
L 556 -1331 
L -19 -1331 
L 922 3500 
L 1497 3500 
L 1394 2969 
z
" transform="scale(0.015625)"/>
      <path id="DejaVuSans-Oblique-6e" d="M 3566 2113 
L 3156 0 
L 2578 0 
L 2988 2091 
Q 3016 2238 3031 2350 
Q 3047 2463 3047 2528 
Q 3047 2791 2881 2937 
Q 2716 3084 2419 3084 
Q 1956 3084 1622 2776 
Q 1288 2469 1184 1941 
L 800 0 
L 225 0 
L 903 3500 
L 1478 3500 
L 1363 2950 
Q 1603 3253 1940 3418 
Q 2278 3584 2650 3584 
Q 3113 3584 3367 3334 
Q 3622 3084 3622 2631 
Q 3622 2519 3608 2391 
Q 3594 2263 3566 2113 
z
" transform="scale(0.015625)"/>
      <path id="DejaVuSans-Oblique-64" d="M 2675 525 
Q 2444 222 2128 65 
Q 1813 -91 1428 -91 
Q 903 -91 598 267 
Q 294 625 294 1247 
Q 294 1766 478 2236 
Q 663 2706 1013 3078 
Q 1244 3325 1534 3454 
Q 1825 3584 2144 3584 
Q 2481 3584 2739 3421 
Q 2997 3259 3138 2956 
L 3513 4863 
L 4091 4863 
L 3144 0 
L 2566 0 
L 2675 525 
z
M 891 1350 
Q 891 897 1095 644 
Q 1300 391 1663 391 
Q 1931 391 2161 520 
Q 2391 650 2566 903 
Q 2750 1166 2856 1509 
Q 2963 1853 2963 2188 
Q 2963 2622 2758 2865 
Q 2553 3109 2194 3109 
Q 1922 3109 1687 2981 
Q 1453 2853 1288 2613 
Q 1106 2353 998 2009 
Q 891 1666 891 1350 
z
" transform="scale(0.015625)"/>
     </defs>
     <use xlink:href="#DejaVuSans-Oblique-53"/>
     <use xlink:href="#DejaVuSans-Oblique-65" transform="translate(63.476562 0)"/>
     <use xlink:href="#DejaVuSans-Oblique-74" transform="translate(125 0)"/>
     <use xlink:href="#DejaVuSans-Oblique-73" transform="translate(164.208984 0)"/>
     <use xlink:href="#DejaVuSans-Oblique-20" transform="translate(216.308594 0)"/>
     <use xlink:href="#DejaVuSans-Oblique-6f" transform="translate(248.095703 0)"/>
     <use xlink:href="#DejaVuSans-Oblique-76" transform="translate(309.277344 0)"/>
     <use xlink:href="#DejaVuSans-Oblique-65" transform="translate(368.457031 0)"/>
     <use xlink:href="#DejaVuSans-Oblique-72" transform="translate(429.980469 0)"/>
     <use xlink:href="#DejaVuSans-Oblique-61" transform="translate(471.09375 0)"/>
     <use xlink:href="#DejaVuSans-Oblique-6c" transform="translate(532.373047 0)"/>
     <use xlink:href="#DejaVuSans-Oblique-6c" transform="translate(560.15625 0)"/>
     <use xlink:href="#DejaVuSans-Oblique-20" transform="translate(587.939453 0)"/>
     <use xlink:href="#DejaVuSans-Oblique-73" transform="translate(619.726562 0)"/>
     <use xlink:href="#DejaVuSans-Oblique-74" transform="translate(671.826172 0)"/>
     <use xlink:href="#DejaVuSans-Oblique-72" transform="translate(711.035156 0)"/>
     <use xlink:href="#DejaVuSans-Oblique-61" transform="translate(752.148438 0)"/>
     <use xlink:href="#DejaVuSans-Oblique-74" transform="translate(813.427734 0)"/>
     <use xlink:href="#DejaVuSans-Oblique-65" transform="translate(852.636719 0)"/>
     <use xlink:href="#DejaVuSans-Oblique-67" transform="translate(914.160156 0)"/>
     <use xlink:href="#DejaVuSans-Oblique-69" transform="translate(977.636719 0)"/>
     <use xlink:href="#DejaVuSans-Oblique-63" transform="translate(1005.419922 0)"/>
     <use xlink:href="#DejaVuSans-Oblique-20" transform="translate(1060.400391 0)"/>
     <use xlink:href="#DejaVuSans-Oblique-70" transform="translate(1092.1875 0)"/>
     <use xlink:href="#DejaVuSans-Oblique-72" transform="translate(1155.664062 0)"/>
     <use xlink:href="#DejaVuSans-Oblique-69" transform="translate(1196.777344 0)"/>
     <use xlink:href="#DejaVuSans-Oblique-6f" transform="translate(1224.560547 0)"/>
     <use xlink:href="#DejaVuSans-Oblique-72" transform="translate(1285.742188 0)"/>
     <use xlink:href="#DejaVuSans-Oblique-69" transform="translate(1326.855469 0)"/>
     <use xlink:href="#DejaVuSans-Oblique-74" transform="translate(1354.638672 0)"/>
     <use xlink:href="#DejaVuSans-Oblique-69" transform="translate(1393.847656 0)"/>
     <use xlink:href="#DejaVuSans-Oblique-65" transform="translate(1421.630859 0)"/>
     <use xlink:href="#DejaVuSans-Oblique-73" transform="translate(1483.154297 0)"/>
     <use xlink:href="#DejaVuSans-Oblique-20" transform="translate(1535.253906 0)"/>
     <use xlink:href="#DejaVuSans-Oblique-61" transform="translate(1567.041016 0)"/>
     <use xlink:href="#DejaVuSans-Oblique-6e" transform="translate(1628.320312 0)"/>
     <use xlink:href="#DejaVuSans-Oblique-64" transform="translate(1691.699219 0)"/>
     <use xlink:href="#DejaVuSans-Oblique-20" transform="translate(1755.175781 0)"/>
     <use xlink:href="#DejaVuSans-Oblique-6e" transform="translate(1786.962891 0)"/>
     <use xlink:href="#DejaVuSans-Oblique-61" transform="translate(1850.341797 0)"/>
     <use xlink:href="#DejaVuSans-Oblique-74" transform="translate(1911.621094 0)"/>
     <use xlink:href="#DejaVuSans-Oblique-69" transform="translate(1950.830078 0)"/>
     <use xlink:href="#DejaVuSans-Oblique-6f" transform="translate(1978.613281 0)"/>
     <use xlink:href="#DejaVuSans-Oblique-6e" transform="translate(2039.794922 0)"/>
     <use xlink:href="#DejaVuSans-Oblique-61" transform="translate(2103.173828 0)"/>
     <use xlink:href="#DejaVuSans-Oblique-6c" transform="translate(2164.453125 0)"/>
     <use xlink:href="#DejaVuSans-Oblique-20" transform="translate(2192.236328 0)"/>
     <use xlink:href="#DejaVuSans-Oblique-67" transform="translate(2224.023438 0)"/>
     <use xlink:href="#DejaVuSans-Oblique-6f" transform="translate(2287.5 0)"/>
     <use xlink:href="#DejaVuSans-Oblique-61" transform="translate(2348.681641 0)"/>
     <use xlink:href="#DejaVuSans-Oblique-6c" transform="translate(2409.960938 0)"/>
     <use xlink:href="#DejaVuSans-Oblique-73" transform="translate(2437.744141 0)"/>
    </g>
   </g>
   <g id="text_8">
    <!-- Translates strategy into concrete policy directives -->
    <g style="fill: #2c3e50" transform="translate(1314.207 545.099554) scale(0.26 -0.26)">
     <defs>
      <path id="DejaVuSans-Oblique-54" d="M 378 4666 
L 4325 4666 
L 4225 4134 
L 2559 4134 
L 1759 0 
L 1125 0 
L 1925 4134 
L 275 4134 
L 378 4666 
z
" transform="scale(0.015625)"/>
      <path id="DejaVuSans-Oblique-79" d="M 1588 -325 
Q 1188 -997 936 -1164 
Q 684 -1331 294 -1331 
L -159 -1331 
L -63 -850 
L 269 -850 
Q 509 -850 678 -719 
Q 847 -588 1056 -206 
L 1234 128 
L 459 3500 
L 1069 3500 
L 1650 819 
L 3256 3500 
L 3859 3500 
L 1588 -325 
z
" transform="scale(0.015625)"/>
     </defs>
     <use xlink:href="#DejaVuSans-Oblique-54"/>
     <use xlink:href="#DejaVuSans-Oblique-72" transform="translate(53.333984 0)"/>
     <use xlink:href="#DejaVuSans-Oblique-61" transform="translate(94.447266 0)"/>
     <use xlink:href="#DejaVuSans-Oblique-6e" transform="translate(155.726562 0)"/>
     <use xlink:href="#DejaVuSans-Oblique-73" transform="translate(219.105469 0)"/>
     <use xlink:href="#DejaVuSans-Oblique-6c" transform="translate(271.205078 0)"/>
     <use xlink:href="#DejaVuSans-Oblique-61" transform="translate(298.988281 0)"/>
     <use xlink:href="#DejaVuSans-Oblique-74" transform="translate(360.267578 0)"/>
     <use xlink:href="#DejaVuSans-Oblique-65" transform="translate(399.476562 0)"/>
     <use xlink:href="#DejaVuSans-Oblique-73" transform="translate(461 0)"/>
     <use xlink:href="#DejaVuSans-Oblique-20" transform="translate(513.099609 0)"/>
     <use xlink:href="#DejaVuSans-Oblique-73" transform="translate(544.886719 0)"/>
     <use xlink:href="#DejaVuSans-Oblique-74" transform="translate(596.986328 0)"/>
     <use xlink:href="#DejaVuSans-Oblique-72" transform="translate(636.195312 0)"/>
     <use xlink:href="#DejaVuSans-Oblique-61" transform="translate(677.308594 0)"/>
     <use xlink:href="#DejaVuSans-Oblique-74" transform="translate(738.587891 0)"/>
     <use xlink:href="#DejaVuSans-Oblique-65" transform="translate(777.796875 0)"/>
     <use xlink:href="#DejaVuSans-Oblique-67" transform="translate(839.320312 0)"/>
     <use xlink:href="#DejaVuSans-Oblique-79" transform="translate(902.796875 0)"/>
     <use xlink:href="#DejaVuSans-Oblique-20" transform="translate(961.976562 0)"/>
     <use xlink:href="#DejaVuSans-Oblique-69" transform="translate(993.763672 0)"/>
     <use xlink:href="#DejaVuSans-Oblique-6e" transform="translate(1021.546875 0)"/>
     <use xlink:href="#DejaVuSans-Oblique-74" transform="translate(1084.925781 0)"/>
     <use xlink:href="#DejaVuSans-Oblique-6f" transform="translate(1124.134766 0)"/>
     <use xlink:href="#DejaVuSans-Oblique-20" transform="translate(1185.316406 0)"/>
     <use xlink:href="#DejaVuSans-Oblique-63" transform="translate(1217.103516 0)"/>
     <use xlink:href="#DejaVuSans-Oblique-6f" transform="translate(1272.083984 0)"/>
     <use xlink:href="#DejaVuSans-Oblique-6e" transform="translate(1333.265625 0)"/>
     <use xlink:href="#DejaVuSans-Oblique-63" transform="translate(1396.644531 0)"/>
     <use xlink:href="#DejaVuSans-Oblique-72" transform="translate(1451.625 0)"/>
     <use xlink:href="#DejaVuSans-Oblique-65" transform="translate(1492.738281 0)"/>
     <use xlink:href="#DejaVuSans-Oblique-74" transform="translate(1554.261719 0)"/>
     <use xlink:href="#DejaVuSans-Oblique-65" transform="translate(1593.470703 0)"/>
     <use xlink:href="#DejaVuSans-Oblique-20" transform="translate(1654.994141 0)"/>
     <use xlink:href="#DejaVuSans-Oblique-70" transform="translate(1686.78125 0)"/>
     <use xlink:href="#DejaVuSans-Oblique-6f" transform="translate(1750.257812 0)"/>
     <use xlink:href="#DejaVuSans-Oblique-6c" transform="translate(1811.439453 0)"/>
     <use xlink:href="#DejaVuSans-Oblique-69" transform="translate(1839.222656 0)"/>
     <use xlink:href="#DejaVuSans-Oblique-63" transform="translate(1867.005859 0)"/>
     <use xlink:href="#DejaVuSans-Oblique-79" transform="translate(1921.986328 0)"/>
     <use xlink:href="#DejaVuSans-Oblique-20" transform="translate(1981.166016 0)"/>
     <use xlink:href="#DejaVuSans-Oblique-64" transform="translate(2012.953125 0)"/>
     <use xlink:href="#DejaVuSans-Oblique-69" transform="translate(2076.429688 0)"/>
     <use xlink:href="#DejaVuSans-Oblique-72" transform="translate(2104.212891 0)"/>
     <use xlink:href="#DejaVuSans-Oblique-65" transform="translate(2145.326172 0)"/>
     <use xlink:href="#DejaVuSans-Oblique-63" transform="translate(2206.849609 0)"/>
     <use xlink:href="#DejaVuSans-Oblique-74" transform="translate(2261.830078 0)"/>
     <use xlink:href="#DejaVuSans-Oblique-69" transform="translate(2301.039062 0)"/>
     <use xlink:href="#DejaVuSans-Oblique-76" transform="translate(2328.822266 0)"/>
     <use xlink:href="#DejaVuSans-Oblique-65" transform="translate(2388.001953 0)"/>
     <use xlink:href="#DejaVuSans-Oblique-73" transform="translate(2449.525391 0)"/>
    </g>
   </g>
   <g id="text_9">
    <!-- Provides legal authority and enforcement mechanisms -->
    <g style="fill: #2c3e50" transform="translate(1314.207 780.265268) scale(0.26 -0.26)">
     <defs>
      <path id="DejaVuSans-Oblique-50" d="M 1081 4666 
L 2541 4666 
Q 3178 4666 3512 4369 
Q 3847 4072 3847 3500 
Q 3847 2731 3353 2303 
Q 2859 1875 1966 1875 
L 1172 1875 
L 806 0 
L 172 0 
L 1081 4666 
z
M 1613 4147 
L 1275 2394 
L 2069 2394 
Q 2606 2394 2893 2669 
Q 3181 2944 3181 3456 
Q 3181 3784 2986 3965 
Q 2791 4147 2438 4147 
L 1613 4147 
z
" transform="scale(0.015625)"/>
      <path id="DejaVuSans-Oblique-75" d="M 428 1388 
L 838 3500 
L 1416 3500 
L 1006 1409 
Q 975 1256 961 1147 
Q 947 1038 947 966 
Q 947 700 1109 554 
Q 1272 409 1569 409 
Q 2031 409 2368 721 
Q 2706 1034 2809 1563 
L 3194 3500 
L 3769 3500 
L 3091 0 
L 2516 0 
L 2631 550 
Q 2388 244 2052 76 
Q 1716 -91 1338 -91 
Q 878 -91 622 161 
Q 366 413 366 863 
Q 366 956 381 1097 
Q 397 1238 428 1388 
z
" transform="scale(0.015625)"/>
      <path id="DejaVuSans-Oblique-68" d="M 3566 2113 
L 3156 0 
L 2578 0 
L 2988 2091 
Q 3016 2238 3031 2350 
Q 3047 2463 3047 2528 
Q 3047 2791 2881 2937 
Q 2716 3084 2419 3084 
Q 1956 3084 1617 2771 
Q 1278 2459 1178 1941 
L 800 0 
L 225 0 
L 1172 4863 
L 1747 4863 
L 1375 2950 
Q 1594 3244 1934 3414 
Q 2275 3584 2650 3584 
Q 3113 3584 3367 3334 
Q 3622 3084 3622 2631 
Q 3622 2519 3608 2391 
Q 3594 2263 3566 2113 
z
" transform="scale(0.015625)"/>
      <path id="DejaVuSans-Oblique-66" d="M 3059 4863 
L 2969 4384 
L 2419 4384 
Q 2106 4384 1964 4261 
Q 1822 4138 1753 3809 
L 1691 3500 
L 2638 3500 
L 2553 3053 
L 1606 3053 
L 1013 0 
L 434 0 
L 1031 3053 
L 481 3053 
L 563 3500 
L 1113 3500 
L 1159 3744 
Q 1278 4363 1576 4613 
Q 1875 4863 2516 4863 
L 3059 4863 
z
" transform="scale(0.015625)"/>
      <path id="DejaVuSans-Oblique-6d" d="M 5747 2113 
L 5338 0 
L 4763 0 
L 5166 2094 
Q 5191 2228 5203 2325 
Q 5216 2422 5216 2491 
Q 5216 2772 5059 2928 
Q 4903 3084 4622 3084 
Q 4203 3084 3875 2770 
Q 3547 2456 3450 1953 
L 3066 0 
L 2491 0 
L 2900 2094 
Q 2925 2209 2937 2307 
Q 2950 2406 2950 2484 
Q 2950 2769 2794 2926 
Q 2638 3084 2363 3084 
Q 1938 3084 1609 2770 
Q 1281 2456 1184 1953 
L 800 0 
L 225 0 
L 909 3500 
L 1484 3500 
L 1375 2956 
Q 1609 3263 1923 3423 
Q 2238 3584 2597 3584 
Q 2978 3584 3223 3384 
Q 3469 3184 3519 2828 
Q 3781 3197 4126 3390 
Q 4472 3584 4856 3584 
Q 5306 3584 5551 3325 
Q 5797 3066 5797 2591 
Q 5797 2488 5784 2364 
Q 5772 2241 5747 2113 
z
" transform="scale(0.015625)"/>
     </defs>
     <use xlink:href="#DejaVuSans-Oblique-50"/>
     <use xlink:href="#DejaVuSans-Oblique-72" transform="translate(60.302734 0)"/>
     <use xlink:href="#DejaVuSans-Oblique-6f" transform="translate(101.416016 0)"/>
     <use xlink:href="#DejaVuSans-Oblique-76" transform="translate(162.597656 0)"/>
     <use xlink:href="#DejaVuSans-Oblique-69" transform="translate(221.777344 0)"/>
     <use xlink:href="#DejaVuSans-Oblique-64" transform="translate(249.560547 0)"/>
     <use xlink:href="#DejaVuSans-Oblique-65" transform="translate(313.037109 0)"/>
     <use xlink:href="#DejaVuSans-Oblique-73" transform="translate(374.560547 0)"/>
     <use xlink:href="#DejaVuSans-Oblique-20" transform="translate(426.660156 0)"/>
     <use xlink:href="#DejaVuSans-Oblique-6c" transform="translate(458.447266 0)"/>
     <use xlink:href="#DejaVuSans-Oblique-65" transform="translate(486.230469 0)"/>
     <use xlink:href="#DejaVuSans-Oblique-67" transform="translate(547.753906 0)"/>
     <use xlink:href="#DejaVuSans-Oblique-61" transform="translate(611.230469 0)"/>
     <use xlink:href="#DejaVuSans-Oblique-6c" transform="translate(672.509766 0)"/>
     <use xlink:href="#DejaVuSans-Oblique-20" transform="translate(700.292969 0)"/>
     <use xlink:href="#DejaVuSans-Oblique-61" transform="translate(732.080078 0)"/>
     <use xlink:href="#DejaVuSans-Oblique-75" transform="translate(793.359375 0)"/>
     <use xlink:href="#DejaVuSans-Oblique-74" transform="translate(856.738281 0)"/>
     <use xlink:href="#DejaVuSans-Oblique-68" transform="translate(895.947266 0)"/>
     <use xlink:href="#DejaVuSans-Oblique-6f" transform="translate(959.326172 0)"/>
     <use xlink:href="#DejaVuSans-Oblique-72" transform="translate(1020.507812 0)"/>
     <use xlink:href="#DejaVuSans-Oblique-69" transform="translate(1061.621094 0)"/>
     <use xlink:href="#DejaVuSans-Oblique-74" transform="translate(1089.404297 0)"/>
     <use xlink:href="#DejaVuSans-Oblique-79" transform="translate(1128.613281 0)"/>
     <use xlink:href="#DejaVuSans-Oblique-20" transform="translate(1187.792969 0)"/>
     <use xlink:href="#DejaVuSans-Oblique-61" transform="translate(1219.580078 0)"/>
     <use xlink:href="#DejaVuSans-Oblique-6e" transform="translate(1280.859375 0)"/>
     <use xlink:href="#DejaVuSans-Oblique-64" transform="translate(1344.238281 0)"/>
     <use xlink:href="#DejaVuSans-Oblique-20" transform="translate(1407.714844 0)"/>
     <use xlink:href="#DejaVuSans-Oblique-65" transform="translate(1439.501953 0)"/>
     <use xlink:href="#DejaVuSans-Oblique-6e" transform="translate(1501.025391 0)"/>
     <use xlink:href="#DejaVuSans-Oblique-66" transform="translate(1564.404297 0)"/>
     <use xlink:href="#DejaVuSans-Oblique-6f" transform="translate(1599.609375 0)"/>
     <use xlink:href="#DejaVuSans-Oblique-72" transform="translate(1660.791016 0)"/>
     <use xlink:href="#DejaVuSans-Oblique-63" transform="translate(1701.904297 0)"/>
     <use xlink:href="#DejaVuSans-Oblique-65" transform="translate(1756.884766 0)"/>
     <use xlink:href="#DejaVuSans-Oblique-6d" transform="translate(1818.408203 0)"/>
     <use xlink:href="#DejaVuSans-Oblique-65" transform="translate(1915.820312 0)"/>
     <use xlink:href="#DejaVuSans-Oblique-6e" transform="translate(1977.34375 0)"/>
     <use xlink:href="#DejaVuSans-Oblique-74" transform="translate(2040.722656 0)"/>
     <use xlink:href="#DejaVuSans-Oblique-20" transform="translate(2079.931641 0)"/>
     <use xlink:href="#DejaVuSans-Oblique-6d" transform="translate(2111.71875 0)"/>
     <use xlink:href="#DejaVuSans-Oblique-65" transform="translate(2209.130859 0)"/>
     <use xlink:href="#DejaVuSans-Oblique-63" transform="translate(2270.654297 0)"/>
     <use xlink:href="#DejaVuSans-Oblique-68" transform="translate(2325.634766 0)"/>
     <use xlink:href="#DejaVuSans-Oblique-61" transform="translate(2389.013672 0)"/>
     <use xlink:href="#DejaVuSans-Oblique-6e" transform="translate(2450.292969 0)"/>
     <use xlink:href="#DejaVuSans-Oblique-69" transform="translate(2513.671875 0)"/>
     <use xlink:href="#DejaVuSans-Oblique-73" transform="translate(2541.455078 0)"/>
     <use xlink:href="#DejaVuSans-Oblique-6d" transform="translate(2593.554688 0)"/>
     <use xlink:href="#DejaVuSans-Oblique-73" transform="translate(2690.966797 0)"/>
    </g>
   </g>
   <g id="text_10">
    <!-- Coordinates implementation across institutions -->
    <g style="fill: #2c3e50" transform="translate(1314.207 1015.430982) scale(0.26 -0.26)">
     <defs>
      <path id="DejaVuSans-Oblique-43" d="M 4447 4306 
L 4319 3641 
Q 4019 3944 3683 4091 
Q 3347 4238 2956 4238 
Q 2422 4238 2017 3981 
Q 1613 3725 1319 3200 
Q 1131 2863 1032 2486 
Q 934 2109 934 1728 
Q 934 1091 1264 756 
Q 1594 422 2222 422 
Q 2656 422 3056 561 
Q 3456 700 3834 978 
L 3688 231 
Q 3316 72 2936 -9 
Q 2556 -91 2175 -91 
Q 1278 -91 773 396 
Q 269 884 269 1753 
Q 269 2309 461 2846 
Q 653 3384 1013 3828 
Q 1394 4300 1883 4525 
Q 2372 4750 3022 4750 
Q 3422 4750 3780 4639 
Q 4138 4528 4447 4306 
z
" transform="scale(0.015625)"/>
     </defs>
     <use xlink:href="#DejaVuSans-Oblique-43"/>
     <use xlink:href="#DejaVuSans-Oblique-6f" transform="translate(69.824219 0)"/>
     <use xlink:href="#DejaVuSans-Oblique-6f" transform="translate(131.005859 0)"/>
     <use xlink:href="#DejaVuSans-Oblique-72" transform="translate(192.1875 0)"/>
     <use xlink:href="#DejaVuSans-Oblique-64" transform="translate(233.300781 0)"/>
     <use xlink:href="#DejaVuSans-Oblique-69" transform="translate(296.777344 0)"/>
     <use xlink:href="#DejaVuSans-Oblique-6e" transform="translate(324.560547 0)"/>
     <use xlink:href="#DejaVuSans-Oblique-61" transform="translate(387.939453 0)"/>
     <use xlink:href="#DejaVuSans-Oblique-74" transform="translate(449.21875 0)"/>
     <use xlink:href="#DejaVuSans-Oblique-65" transform="translate(488.427734 0)"/>
     <use xlink:href="#DejaVuSans-Oblique-73" transform="translate(549.951172 0)"/>
     <use xlink:href="#DejaVuSans-Oblique-20" transform="translate(602.050781 0)"/>
     <use xlink:href="#DejaVuSans-Oblique-69" transform="translate(633.837891 0)"/>
     <use xlink:href="#DejaVuSans-Oblique-6d" transform="translate(661.621094 0)"/>
     <use xlink:href="#DejaVuSans-Oblique-70" transform="translate(759.033203 0)"/>
     <use xlink:href="#DejaVuSans-Oblique-6c" transform="translate(822.509766 0)"/>
     <use xlink:href="#DejaVuSans-Oblique-65" transform="translate(850.292969 0)"/>
     <use xlink:href="#DejaVuSans-Oblique-6d" transform="translate(911.816406 0)"/>
     <use xlink:href="#DejaVuSans-Oblique-65" transform="translate(1009.228516 0)"/>
     <use xlink:href="#DejaVuSans-Oblique-6e" transform="translate(1070.751953 0)"/>
     <use xlink:href="#DejaVuSans-Oblique-74" transform="translate(1134.130859 0)"/>
     <use xlink:href="#DejaVuSans-Oblique-61" transform="translate(1173.339844 0)"/>
     <use xlink:href="#DejaVuSans-Oblique-74" transform="translate(1234.619141 0)"/>
     <use xlink:href="#DejaVuSans-Oblique-69" transform="translate(1273.828125 0)"/>
     <use xlink:href="#DejaVuSans-Oblique-6f" transform="translate(1301.611328 0)"/>
     <use xlink:href="#DejaVuSans-Oblique-6e" transform="translate(1362.792969 0)"/>
     <use xlink:href="#DejaVuSans-Oblique-20" transform="translate(1426.171875 0)"/>
     <use xlink:href="#DejaVuSans-Oblique-61" transform="translate(1457.958984 0)"/>
     <use xlink:href="#DejaVuSans-Oblique-63" transform="translate(1519.238281 0)"/>
     <use xlink:href="#DejaVuSans-Oblique-72" transform="translate(1574.21875 0)"/>
     <use xlink:href="#DejaVuSans-Oblique-6f" transform="translate(1615.332031 0)"/>
     <use xlink:href="#DejaVuSans-Oblique-73" transform="translate(1676.513672 0)"/>
     <use xlink:href="#DejaVuSans-Oblique-73" transform="translate(1728.613281 0)"/>
     <use xlink:href="#DejaVuSans-Oblique-20" transform="translate(1780.712891 0)"/>
     <use xlink:href="#DejaVuSans-Oblique-69" transform="translate(1812.5 0)"/>
     <use xlink:href="#DejaVuSans-Oblique-6e" transform="translate(1840.283203 0)"/>
     <use xlink:href="#DejaVuSans-Oblique-73" transform="translate(1903.662109 0)"/>
     <use xlink:href="#DejaVuSans-Oblique-74" transform="translate(1955.761719 0)"/>
     <use xlink:href="#DejaVuSans-Oblique-69" transform="translate(1994.970703 0)"/>
     <use xlink:href="#DejaVuSans-Oblique-74" transform="translate(2022.753906 0)"/>
     <use xlink:href="#DejaVuSans-Oblique-75" transform="translate(2061.962891 0)"/>
     <use xlink:href="#DejaVuSans-Oblique-74" transform="translate(2125.341797 0)"/>
     <use xlink:href="#DejaVuSans-Oblique-69" transform="translate(2164.550781 0)"/>
     <use xlink:href="#DejaVuSans-Oblique-6f" transform="translate(2192.333984 0)"/>
     <use xlink:href="#DejaVuSans-Oblique-6e" transform="translate(2253.515625 0)"/>
     <use xlink:href="#DejaVuSans-Oblique-73" transform="translate(2316.894531 0)"/>
    </g>
   </g>
   <g id="text_11">
    <!-- Creates specific programs and initiatives -->
    <g style="fill: #2c3e50" transform="translate(1314.207 1250.596696) scale(0.26 -0.26)">
     <use xlink:href="#DejaVuSans-Oblique-43"/>
     <use xlink:href="#DejaVuSans-Oblique-72" transform="translate(69.824219 0)"/>
     <use xlink:href="#DejaVuSans-Oblique-65" transform="translate(110.9375 0)"/>
     <use xlink:href="#DejaVuSans-Oblique-61" transform="translate(172.460938 0)"/>
     <use xlink:href="#DejaVuSans-Oblique-74" transform="translate(233.740234 0)"/>
     <use xlink:href="#DejaVuSans-Oblique-65" transform="translate(272.949219 0)"/>
     <use xlink:href="#DejaVuSans-Oblique-73" transform="translate(334.472656 0)"/>
     <use xlink:href="#DejaVuSans-Oblique-20" transform="translate(386.572266 0)"/>
     <use xlink:href="#DejaVuSans-Oblique-73" transform="translate(418.359375 0)"/>
     <use xlink:href="#DejaVuSans-Oblique-70" transform="translate(470.458984 0)"/>
     <use xlink:href="#DejaVuSans-Oblique-65" transform="translate(533.935547 0)"/>
     <use xlink:href="#DejaVuSans-Oblique-63" transform="translate(595.458984 0)"/>
     <use xlink:href="#DejaVuSans-Oblique-69" transform="translate(650.439453 0)"/>
     <use xlink:href="#DejaVuSans-Oblique-66" transform="translate(678.222656 0)"/>
     <use xlink:href="#DejaVuSans-Oblique-69" transform="translate(713.427734 0)"/>
     <use xlink:href="#DejaVuSans-Oblique-63" transform="translate(741.210938 0)"/>
     <use xlink:href="#DejaVuSans-Oblique-20" transform="translate(796.191406 0)"/>
     <use xlink:href="#DejaVuSans-Oblique-70" transform="translate(827.978516 0)"/>
     <use xlink:href="#DejaVuSans-Oblique-72" transform="translate(891.455078 0)"/>
     <use xlink:href="#DejaVuSans-Oblique-6f" transform="translate(932.568359 0)"/>
     <use xlink:href="#DejaVuSans-Oblique-67" transform="translate(993.75 0)"/>
     <use xlink:href="#DejaVuSans-Oblique-72" transform="translate(1057.226562 0)"/>
     <use xlink:href="#DejaVuSans-Oblique-61" transform="translate(1098.339844 0)"/>
     <use xlink:href="#DejaVuSans-Oblique-6d" transform="translate(1159.619141 0)"/>
     <use xlink:href="#DejaVuSans-Oblique-73" transform="translate(1257.03125 0)"/>
     <use xlink:href="#DejaVuSans-Oblique-20" transform="translate(1309.130859 0)"/>
     <use xlink:href="#DejaVuSans-Oblique-61" transform="translate(1340.917969 0)"/>
     <use xlink:href="#DejaVuSans-Oblique-6e" transform="translate(1402.197266 0)"/>
     <use xlink:href="#DejaVuSans-Oblique-64" transform="translate(1465.576172 0)"/>
     <use xlink:href="#DejaVuSans-Oblique-20" transform="translate(1529.052734 0)"/>
     <use xlink:href="#DejaVuSans-Oblique-69" transform="translate(1560.839844 0)"/>
     <use xlink:href="#DejaVuSans-Oblique-6e" transform="translate(1588.623047 0)"/>
     <use xlink:href="#DejaVuSans-Oblique-69" transform="translate(1652.001953 0)"/>
     <use xlink:href="#DejaVuSans-Oblique-74" transform="translate(1679.785156 0)"/>
     <use xlink:href="#DejaVuSans-Oblique-69" transform="translate(1718.994141 0)"/>
     <use xlink:href="#DejaVuSans-Oblique-61" transform="translate(1746.777344 0)"/>
     <use xlink:href="#DejaVuSans-Oblique-74" transform="translate(1808.056641 0)"/>
     <use xlink:href="#DejaVuSans-Oblique-69" transform="translate(1847.265625 0)"/>
     <use xlink:href="#DejaVuSans-Oblique-76" transform="translate(1875.048828 0)"/>
     <use xlink:href="#DejaVuSans-Oblique-65" transform="translate(1934.228516 0)"/>
     <use xlink:href="#DejaVuSans-Oblique-73" transform="translate(1995.751953 0)"/>
    </g>
   </g>
   <g id="text_12">
    <!-- Executes policies on the ground -->
    <g style="fill: #2c3e50" transform="translate(1314.207 1485.762411) scale(0.26 -0.26)">
     <defs>
      <path id="DejaVuSans-Oblique-45" d="M 1081 4666 
L 4031 4666 
L 3928 4134 
L 1606 4134 
L 1338 2753 
L 3566 2753 
L 3463 2222 
L 1234 2222 
L 909 531 
L 3284 531 
L 3181 0 
L 172 0 
L 1081 4666 
z
" transform="scale(0.015625)"/>
      <path id="DejaVuSans-Oblique-78" d="M 3841 3500 
L 2234 1784 
L 3219 0 
L 2559 0 
L 1819 1388 
L 531 0 
L -166 0 
L 1556 1844 
L 641 3500 
L 1300 3500 
L 1972 2234 
L 3144 3500 
L 3841 3500 
z
" transform="scale(0.015625)"/>
     </defs>
     <use xlink:href="#DejaVuSans-Oblique-45"/>
     <use xlink:href="#DejaVuSans-Oblique-78" transform="translate(63.183594 0)"/>
     <use xlink:href="#DejaVuSans-Oblique-65" transform="translate(122.363281 0)"/>
     <use xlink:href="#DejaVuSans-Oblique-63" transform="translate(183.886719 0)"/>
     <use xlink:href="#DejaVuSans-Oblique-75" transform="translate(238.867188 0)"/>
     <use xlink:href="#DejaVuSans-Oblique-74" transform="translate(302.246094 0)"/>
     <use xlink:href="#DejaVuSans-Oblique-65" transform="translate(341.455078 0)"/>
     <use xlink:href="#DejaVuSans-Oblique-73" transform="translate(402.978516 0)"/>
     <use xlink:href="#DejaVuSans-Oblique-20" transform="translate(455.078125 0)"/>
     <use xlink:href="#DejaVuSans-Oblique-70" transform="translate(486.865234 0)"/>
     <use xlink:href="#DejaVuSans-Oblique-6f" transform="translate(550.341797 0)"/>
     <use xlink:href="#DejaVuSans-Oblique-6c" transform="translate(611.523438 0)"/>
     <use xlink:href="#DejaVuSans-Oblique-69" transform="translate(639.306641 0)"/>
     <use xlink:href="#DejaVuSans-Oblique-63" transform="translate(667.089844 0)"/>
     <use xlink:href="#DejaVuSans-Oblique-69" transform="translate(722.070312 0)"/>
     <use xlink:href="#DejaVuSans-Oblique-65" transform="translate(749.853516 0)"/>
     <use xlink:href="#DejaVuSans-Oblique-73" transform="translate(811.376953 0)"/>
     <use xlink:href="#DejaVuSans-Oblique-20" transform="translate(863.476562 0)"/>
     <use xlink:href="#DejaVuSans-Oblique-6f" transform="translate(895.263672 0)"/>
     <use xlink:href="#DejaVuSans-Oblique-6e" transform="translate(956.445312 0)"/>
     <use xlink:href="#DejaVuSans-Oblique-20" transform="translate(1019.824219 0)"/>
     <use xlink:href="#DejaVuSans-Oblique-74" transform="translate(1051.611328 0)"/>
     <use xlink:href="#DejaVuSans-Oblique-68" transform="translate(1090.820312 0)"/>
     <use xlink:href="#DejaVuSans-Oblique-65" transform="translate(1154.199219 0)"/>
     <use xlink:href="#DejaVuSans-Oblique-20" transform="translate(1215.722656 0)"/>
     <use xlink:href="#DejaVuSans-Oblique-67" transform="translate(1247.509766 0)"/>
     <use xlink:href="#DejaVuSans-Oblique-72" transform="translate(1310.986328 0)"/>
     <use xlink:href="#DejaVuSans-Oblique-6f" transform="translate(1352.099609 0)"/>
     <use xlink:href="#DejaVuSans-Oblique-75" transform="translate(1413.28125 0)"/>
     <use xlink:href="#DejaVuSans-Oblique-6e" transform="translate(1476.660156 0)"/>
     <use xlink:href="#DejaVuSans-Oblique-64" transform="translate(1540.039062 0)"/>
    </g>
   </g>
   <g id="text_13">
    <!-- MCF Governance Structure: Policy Waterfall Through Six Layers -->
    <g transform="translate(293.299375 37.59375) scale(0.4 -0.4)">
     <defs>
      <path id="DejaVuSans-Bold-47" d="M 4781 347 
Q 4331 128 3847 18 
Q 3363 -91 2847 -91 
Q 1681 -91 1000 561 
Q 319 1213 319 2328 
Q 319 3456 1012 4103 
Q 1706 4750 2913 4750 
Q 3378 4750 3804 4662 
Q 4231 4575 4609 4403 
L 4609 3438 
Q 4219 3659 3833 3768 
Q 3447 3878 3059 3878 
Q 2341 3878 1952 3476 
Q 1563 3075 1563 2328 
Q 1563 1588 1938 1184 
Q 2313 781 3003 781 
Q 3191 781 3352 804 
Q 3513 828 3641 878 
L 3641 1784 
L 2906 1784 
L 2906 2591 
L 4781 2591 
L 4781 347 
z
" transform="scale(0.015625)"/>
      <path id="DejaVuSans-Bold-76" d="M 97 3500 
L 1216 3500 
L 2088 1081 
L 2956 3500 
L 4078 3500 
L 2700 0 
L 1472 0 
L 97 3500 
z
" transform="scale(0.015625)"/>
      <path id="DejaVuSans-Bold-57" d="M 191 4666 
L 1344 4666 
L 2150 1275 
L 2950 4666 
L 4109 4666 
L 4909 1275 
L 5716 4666 
L 6859 4666 
L 5759 0 
L 4372 0 
L 3525 3547 
L 2688 0 
L 1300 0 
L 191 4666 
z
" transform="scale(0.015625)"/>
      <path id="DejaVuSans-Bold-66" d="M 2841 4863 
L 2841 4128 
L 2222 4128 
Q 1984 4128 1890 4042 
Q 1797 3956 1797 3744 
L 1797 3500 
L 2753 3500 
L 2753 2700 
L 1797 2700 
L 1797 0 
L 678 0 
L 678 2700 
L 122 2700 
L 122 3500 
L 678 3500 
L 678 3744 
Q 678 4316 997 4589 
Q 1316 4863 1984 4863 
L 2841 4863 
z
" transform="scale(0.015625)"/>
      <path id="DejaVuSans-Bold-54" d="M 31 4666 
L 4331 4666 
L 4331 3756 
L 2784 3756 
L 2784 0 
L 1581 0 
L 1581 3756 
L 31 3756 
L 31 4666 
z
" transform="scale(0.015625)"/>
     </defs>
     <use xlink:href="#DejaVuSans-Bold-4d"/>
     <use xlink:href="#DejaVuSans-Bold-43" transform="translate(99.511719 0)"/>
     <use xlink:href="#DejaVuSans-Bold-46" transform="translate(172.900391 0)"/>
     <use xlink:href="#DejaVuSans-Bold-20" transform="translate(241.210938 0)"/>
     <use xlink:href="#DejaVuSans-Bold-47" transform="translate(276.025391 0)"/>
     <use xlink:href="#DejaVuSans-Bold-6f" transform="translate(358.105469 0)"/>
     <use xlink:href="#DejaVuSans-Bold-76" transform="translate(426.806641 0)"/>
     <use xlink:href="#DejaVuSans-Bold-65" transform="translate(491.992188 0)"/>
     <use xlink:href="#DejaVuSans-Bold-72" transform="translate(559.814453 0)"/>
     <use xlink:href="#DejaVuSans-Bold-6e" transform="translate(609.130859 0)"/>
     <use xlink:href="#DejaVuSans-Bold-61" transform="translate(680.322266 0)"/>
     <use xlink:href="#DejaVuSans-Bold-6e" transform="translate(747.802734 0)"/>
     <use xlink:href="#DejaVuSans-Bold-63" transform="translate(818.994141 0)"/>
     <use xlink:href="#DejaVuSans-Bold-65" transform="translate(878.271484 0)"/>
     <use xlink:href="#DejaVuSans-Bold-20" transform="translate(946.09375 0)"/>
     <use xlink:href="#DejaVuSans-Bold-53" transform="translate(980.908203 0)"/>
     <use xlink:href="#DejaVuSans-Bold-74" transform="translate(1052.929688 0)"/>
     <use xlink:href="#DejaVuSans-Bold-72" transform="translate(1100.732422 0)"/>
     <use xlink:href="#DejaVuSans-Bold-75" transform="translate(1150.048828 0)"/>
     <use xlink:href="#DejaVuSans-Bold-63" transform="translate(1221.240234 0)"/>
     <use xlink:href="#DejaVuSans-Bold-74" transform="translate(1280.517578 0)"/>
     <use xlink:href="#DejaVuSans-Bold-75" transform="translate(1328.320312 0)"/>
     <use xlink:href="#DejaVuSans-Bold-72" transform="translate(1399.511719 0)"/>
     <use xlink:href="#DejaVuSans-Bold-65" transform="translate(1448.828125 0)"/>
     <use xlink:href="#DejaVuSans-Bold-3a" transform="translate(1516.650391 0)"/>
     <use xlink:href="#DejaVuSans-Bold-20" transform="translate(1556.640625 0)"/>
     <use xlink:href="#DejaVuSans-Bold-50" transform="translate(1591.455078 0)"/>
     <use xlink:href="#DejaVuSans-Bold-6f" transform="translate(1664.746094 0)"/>
     <use xlink:href="#DejaVuSans-Bold-6c" transform="translate(1733.447266 0)"/>
     <use xlink:href="#DejaVuSans-Bold-69" transform="translate(1767.724609 0)"/>
     <use xlink:href="#DejaVuSans-Bold-63" transform="translate(1802.001953 0)"/>
     <use xlink:href="#DejaVuSans-Bold-79" transform="translate(1861.279297 0)"/>
     <use xlink:href="#DejaVuSans-Bold-20" transform="translate(1926.464844 0)"/>
     <use xlink:href="#DejaVuSans-Bold-57" transform="translate(1961.279297 0)"/>
     <use xlink:href="#DejaVuSans-Bold-61" transform="translate(2067.957031 0)"/>
     <use xlink:href="#DejaVuSans-Bold-74" transform="translate(2135.4375 0)"/>
     <use xlink:href="#DejaVuSans-Bold-65" transform="translate(2183.240234 0)"/>
     <use xlink:href="#DejaVuSans-Bold-72" transform="translate(2251.0625 0)"/>
     <use xlink:href="#DejaVuSans-Bold-66" transform="translate(2300.378906 0)"/>
     <use xlink:href="#DejaVuSans-Bold-61" transform="translate(2343.884766 0)"/>
     <use xlink:href="#DejaVuSans-Bold-6c" transform="translate(2411.365234 0)"/>
     <use xlink:href="#DejaVuSans-Bold-6c" transform="translate(2445.642578 0)"/>
     <use xlink:href="#DejaVuSans-Bold-20" transform="translate(2479.919922 0)"/>
     <use xlink:href="#DejaVuSans-Bold-54" transform="translate(2514.734375 0)"/>
     <use xlink:href="#DejaVuSans-Bold-68" transform="translate(2582.947266 0)"/>
     <use xlink:href="#DejaVuSans-Bold-72" transform="translate(2654.138672 0)"/>
     <use xlink:href="#DejaVuSans-Bold-6f" transform="translate(2703.455078 0)"/>
     <use xlink:href="#DejaVuSans-Bold-75" transform="translate(2772.15625 0)"/>
     <use xlink:href="#DejaVuSans-Bold-67" transform="translate(2843.347656 0)"/>
     <use xlink:href="#DejaVuSans-Bold-68" transform="translate(2914.929688 0)"/>
     <use xlink:href="#DejaVuSans-Bold-20" transform="translate(2986.121094 0)"/>
     <use xlink:href="#DejaVuSans-Bold-53" transform="translate(3020.935547 0)"/>
     <use xlink:href="#DejaVuSans-Bold-69" transform="translate(3092.957031 0)"/>
     <use xlink:href="#DejaVuSans-Bold-78" transform="translate(3127.234375 0)"/>
     <use xlink:href="#DejaVuSans-Bold-20" transform="translate(3191.736328 0)"/>
     <use xlink:href="#DejaVuSans-Bold-4c" transform="translate(3226.550781 0)"/>
     <use xlink:href="#DejaVuSans-Bold-61" transform="translate(3290.271484 0)"/>
     <use xlink:href="#DejaVuSans-Bold-79" transform="translate(3354.626953 0)"/>
     <use xlink:href="#DejaVuSans-Bold-65" transform="translate(3419.8125 0)"/>
     <use xlink:href="#DejaVuSans-Bold-72" transform="translate(3487.634766 0)"/>
     <use xlink:href="#DejaVuSans-Bold-73" transform="translate(3536.951172 0)"/>
    </g>
   </g>
  </g>
 </g>
 <defs>
  <clipPath id="p9a60414c73">
   <rect x="7.2" y="67.59375" width="2010.78" height="1646.16"/>
  </clipPath>
 </defs>
</svg>
