<?xml version="1.0" encoding="UTF-8" standalone="no"?>
<!DOCTYPE svg PUBLIC "-//W3C//DTD SVG 1.1//EN"
 "http://www.w3.org/Graphics/SVG/1.1/DTD/svg11.dtd">
<!-- Generated by graphviz version 14.0.2 (20251019.1705)
 -->
<!-- Title: MCF_Institutional_Layers Pages: 1 -->
<svg width="1276pt" height="476pt"
 viewBox="0.00 0.00 1276.00 476.00" xmlns="http://www.w3.org/2000/svg" xmlns:xlink="http://www.w3.org/1999/xlink">
<g id="graph0" class="graph" transform="scale(1 1) rotate(0) translate(4 472.25)">
<title>MCF_Institutional_Layers</title>
<polygon fill="white" stroke="none" points="-4,4 -4,-472.25 1272,-472.25 1272,4 -4,4"/>
<g id="clust1" class="cluster">
<title>cluster_tier1</title>
<polygon fill="#fadbd8" stroke="#fadbd8" points="406,-255.5 406,-460.25 683,-460.25 683,-255.5 406,-255.5"/>
<text xml:space="preserve" text-anchor="middle" x="544.5" y="-442.95" font-family="Arial" font-size="14.00">Tier 1: Central Leadership</text>
</g>
<g id="clust2" class="cluster">
<title>cluster_tier2</title>
<polygon fill="#d6eaf8" stroke="#d6eaf8" points="535,-133.5 535,-209.25 1064,-209.25 1064,-133.5 535,-133.5"/>
<text xml:space="preserve" text-anchor="middle" x="799.5" y="-191.95" font-family="Arial" font-size="14.00">Tier 2: Key Ministries &amp; Commissions</text>
</g>
<g id="clust3" class="cluster">
<title>cluster_tier3</title>
<polygon fill="#fcf3cf" stroke="#fcf3cf" points="8,-8 8,-87.25 442,-87.25 442,-8 8,-8"/>
<text xml:space="preserve" text-anchor="middle" x="225" y="-69.95" font-family="Arial" font-size="14.00">Tier 3: Key Agencies</text>
</g>
<g id="clust4" class="cluster">
<title>cluster_tier4</title>
<polygon fill="#d5d8dc" stroke="#d5d8dc" points="484,-8 484,-87.25 762,-87.25 762,-8 484,-8"/>
<text xml:space="preserve" text-anchor="middle" x="623" y="-69.95" font-family="Arial" font-size="14.00">Tier 4: Provincial Implementation</text>
</g>
<g id="clust5" class="cluster">
<title>cluster_tier5</title>
<polygon fill="#d5f4e6" stroke="#d5f4e6" points="804,-8 804,-87.25 1260,-87.25 1260,-8 804,-8"/>
<text xml:space="preserve" text-anchor="middle" x="1032" y="-69.95" font-family="Arial" font-size="14.00">Tier 5: Implementation Entities</text>
</g>
<!-- tier1_mcf -->
<g id="node1" class="node">
<title>tier1_mcf</title>
<polygon fill="#e74c3c" stroke="black" points="673.62,-428.5 580.38,-428.5 580.38,-389 673.62,-389 673.62,-428.5"/>
<text xml:space="preserve" text-anchor="middle" x="627" y="-411.2" font-family="Arial" font-size="14.00" fill="white">Central MCF</text>
<text xml:space="preserve" text-anchor="middle" x="627" y="-395.45" font-family="Arial" font-size="14.00" fill="white">Commission</text>
</g>
<!-- tier1_sc -->
<g id="node2" class="node">
<title>tier1_sc</title>
<polygon fill="#e74c3c" stroke="black" points="675.12,-301.25 578.88,-301.25 578.88,-265.25 675.12,-265.25 675.12,-301.25"/>
<text xml:space="preserve" text-anchor="middle" x="627" y="-277.82" font-family="Arial" font-size="14.00" fill="white">State Council</text>
</g>
<!-- tier1_mcf&#45;&gt;tier1_sc -->
<g id="edge1" class="edge">
<title>tier1_mcf&#45;&gt;tier1_sc</title>
<path fill="none" stroke="#34495e" stroke-width="1.5" d="M627,-388.72C627,-368.72 627,-336.99 627,-313.74"/>
<polygon fill="#34495e" stroke="#34495e" stroke-width="1.5" points="630.5,-313.77 627,-303.77 623.5,-313.77 630.5,-313.77"/>
</g>
<!-- tier1_cmc -->
<g id="node3" class="node">
<title>tier1_cmc</title>
<polygon fill="#e74c3c" stroke="black" points="520.38,-303 413.62,-303 413.62,-263.5 520.38,-263.5 520.38,-303"/>
<text xml:space="preserve" text-anchor="middle" x="467" y="-285.7" font-family="Arial" font-size="14.00" fill="white">Central Military</text>
<text xml:space="preserve" text-anchor="middle" x="467" y="-269.95" font-family="Arial" font-size="14.00" fill="white">Commission</text>
</g>
<!-- tier1_mcf&#45;&gt;tier1_cmc -->
<g id="edge2" class="edge">
<title>tier1_mcf&#45;&gt;tier1_cmc</title>
<path fill="none" stroke="#34495e" stroke-width="1.5" d="M602.35,-388.72C575.22,-367.78 531.43,-333.98 501.04,-310.52"/>
<polygon fill="#34495e" stroke="#34495e" stroke-width="1.5" points="503.53,-308.02 493.47,-304.69 499.25,-313.57 503.53,-308.02"/>
</g>
<!-- tier2_mss -->
<g id="node8" class="node">
<title>tier2_mss</title>
<polygon fill="#8e44ad" stroke="black" points="1056,-177.5 1002,-177.5 1002,-141.5 1056,-141.5 1056,-177.5"/>
<text xml:space="preserve" text-anchor="middle" x="1029" y="-154.07" font-family="Arial" font-size="14.00" fill="white">MSS</text>
</g>
<!-- tier1_mcf&#45;&gt;tier2_mss -->
<g id="edge7" class="edge">
<title>tier1_mcf&#45;&gt;tier2_mss</title>
<path fill="none" stroke="#34495e" stroke-width="1.5" d="M659.56,-388.56C733.29,-342.85 912.69,-231.62 991.18,-182.95"/>
<polygon fill="#34495e" stroke="#34495e" stroke-width="1.5" points="992.98,-185.95 999.63,-177.71 989.29,-180 992.98,-185.95"/>
</g>
<!-- tier2_miit -->
<g id="node4" class="node">
<title>tier2_miit</title>
<polygon fill="#3498db" stroke="black" points="711,-177.5 657,-177.5 657,-141.5 711,-141.5 711,-177.5"/>
<text xml:space="preserve" text-anchor="middle" x="684" y="-154.07" font-family="Arial" font-size="14.00" fill="white">MIIT</text>
</g>
<!-- tier1_sc&#45;&gt;tier2_miit -->
<g id="edge3" class="edge">
<title>tier1_sc&#45;&gt;tier2_miit</title>
<path fill="none" stroke="#34495e" stroke-width="1.5" d="M635.17,-264.81C644.44,-245.01 659.69,-212.42 670.69,-188.93"/>
<polygon fill="#34495e" stroke="#34495e" stroke-width="1.5" points="673.82,-190.51 674.89,-179.97 667.48,-187.54 673.82,-190.51"/>
</g>
<!-- tier2_most -->
<g id="node5" class="node">
<title>tier2_most</title>
<polygon fill="#3498db" stroke="black" points="599.25,-177.5 542.75,-177.5 542.75,-141.5 599.25,-141.5 599.25,-177.5"/>
<text xml:space="preserve" text-anchor="middle" x="571" y="-154.07" font-family="Arial" font-size="14.00" fill="white">MOST</text>
</g>
<!-- tier1_sc&#45;&gt;tier2_most -->
<g id="edge4" class="edge">
<title>tier1_sc&#45;&gt;tier2_most</title>
<path fill="none" stroke="#34495e" stroke-width="1.5" d="M618.98,-264.81C609.87,-245.01 594.88,-212.42 584.08,-188.93"/>
<polygon fill="#34495e" stroke="#34495e" stroke-width="1.5" points="587.32,-187.6 579.96,-179.97 580.96,-190.52 587.32,-187.6"/>
</g>
<!-- tier2_ndrc -->
<g id="node6" class="node">
<title>tier2_ndrc</title>
<polygon fill="#9b59b6" stroke="black" points="824.5,-177.5 769.5,-177.5 769.5,-141.5 824.5,-141.5 824.5,-177.5"/>
<text xml:space="preserve" text-anchor="middle" x="797" y="-154.07" font-family="Arial" font-size="14.00" fill="white">NDRC</text>
</g>
<!-- tier1_sc&#45;&gt;tier2_ndrc -->
<g id="edge5" class="edge">
<title>tier1_sc&#45;&gt;tier2_ndrc</title>
<path fill="none" stroke="#34495e" stroke-width="1.5" d="M651.36,-264.81C680.64,-243.83 729.97,-208.5 763,-184.85"/>
<polygon fill="#34495e" stroke="#34495e" stroke-width="1.5" points="764.75,-187.9 770.84,-179.23 760.67,-182.21 764.75,-187.9"/>
</g>
<!-- tier2_sasac -->
<g id="node7" class="node">
<title>tier2_sasac</title>
<polygon fill="#9b59b6" stroke="black" points="943.88,-177.5 882.12,-177.5 882.12,-141.5 943.88,-141.5 943.88,-177.5"/>
<text xml:space="preserve" text-anchor="middle" x="913" y="-154.07" font-family="Arial" font-size="14.00" fill="white">SASAC</text>
</g>
<!-- tier1_sc&#45;&gt;tier2_sasac -->
<g id="edge6" class="edge">
<title>tier1_sc&#45;&gt;tier2_sasac</title>
<path fill="none" stroke="#34495e" stroke-width="1.5" d="M667.98,-264.81C721.91,-241.85 816.23,-201.69 870.78,-178.47"/>
<polygon fill="#34495e" stroke="#34495e" stroke-width="1.5" points="871.87,-181.81 879.7,-174.68 869.12,-175.37 871.87,-181.81"/>
</g>
<!-- tier4_provincial -->
<g id="node12" class="node">
<title>tier4_provincial</title>
<polygon fill="#95a5a6" stroke="black" points="600.12,-55.5 491.88,-55.5 491.88,-16 600.12,-16 600.12,-55.5"/>
<text xml:space="preserve" text-anchor="middle" x="546" y="-38.2" font-family="Arial" font-size="14.00" fill="white">Provincial MCF</text>
<text xml:space="preserve" text-anchor="middle" x="546" y="-22.45" font-family="Arial" font-size="14.00" fill="white">Offices (31)</text>
</g>
<!-- tier1_sc&#45;&gt;tier4_provincial -->
<g id="edge11" class="edge">
<title>tier1_sc&#45;&gt;tier4_provincial</title>
<path fill="none" stroke="#34495e" stroke-width="1.5" d="M621.04,-265.05C607.35,-223.19 573.47,-119.67 556.31,-67.25"/>
<polygon fill="#34495e" stroke="#34495e" stroke-width="1.5" points="559.67,-66.26 553.23,-57.84 553.01,-68.43 559.67,-66.26"/>
</g>
<!-- tier3_ssf -->
<g id="node10" class="node">
<title>tier3_ssf</title>
<polygon fill="#e67e22" stroke="black" points="249.75,-55.5 148.25,-55.5 148.25,-16 249.75,-16 249.75,-55.5"/>
<text xml:space="preserve" text-anchor="middle" x="199" y="-38.2" font-family="Arial" font-size="14.00" fill="white">PLA Strategic</text>
<text xml:space="preserve" text-anchor="middle" x="199" y="-22.45" font-family="Arial" font-size="14.00" fill="white">Support Force</text>
</g>
<!-- tier1_cmc&#45;&gt;tier3_ssf -->
<g id="edge9" class="edge">
<title>tier1_cmc&#45;&gt;tier3_ssf</title>
<path fill="none" stroke="#34495e" stroke-width="1.5" d="M445.52,-263.41C398.08,-219.61 284.25,-114.48 229.47,-63.89"/>
<polygon fill="#34495e" stroke="#34495e" stroke-width="1.5" points="231.97,-61.43 222.25,-57.22 227.22,-66.58 231.97,-61.43"/>
</g>
<!-- tier3_sastind -->
<g id="node11" class="node">
<title>tier3_sastind</title>
<polygon fill="#d35400" stroke="black" points="90.25,-53.75 15.75,-53.75 15.75,-17.75 90.25,-17.75 90.25,-53.75"/>
<text xml:space="preserve" text-anchor="middle" x="53" y="-30.32" font-family="Arial" font-size="14.00" fill="white">SASTIND</text>
</g>
<!-- tier1_cmc&#45;&gt;tier3_sastind -->
<g id="edge10" class="edge">
<title>tier1_cmc&#45;&gt;tier3_sastind</title>
<path fill="none" stroke="#34495e" stroke-width="1.5" d="M433.47,-263.21C358.21,-218.22 176.06,-109.32 94.13,-60.34"/>
<polygon fill="#34495e" stroke="#34495e" stroke-width="1.5" points="96.04,-57.41 85.67,-55.28 92.45,-63.41 96.04,-57.41"/>
</g>
<!-- tier3_cas -->
<g id="node9" class="node">
<title>tier3_cas</title>
<polygon fill="#f39c12" stroke="black" points="433.75,-55.5 308.25,-55.5 308.25,-16 433.75,-16 433.75,-55.5"/>
<text xml:space="preserve" text-anchor="middle" x="371" y="-38.2" font-family="Arial" font-size="14.00">Chinese Academy</text>
<text xml:space="preserve" text-anchor="middle" x="371" y="-22.45" font-family="Arial" font-size="14.00">of Sciences</text>
</g>
<!-- tier2_most&#45;&gt;tier3_cas -->
<g id="edge8" class="edge">
<title>tier2_most&#45;&gt;tier3_cas</title>
<path fill="none" stroke="#34495e" stroke-width="1.5" d="M542.34,-141.06C508.48,-120.44 451.84,-85.96 413.02,-62.33"/>
<polygon fill="#34495e" stroke="#34495e" stroke-width="1.5" points="414.87,-59.36 404.51,-57.15 411.23,-65.34 414.87,-59.36"/>
</g>
<!-- tier5_unis -->
<g id="node15" class="node">
<title>tier5_unis</title>
<polygon fill="#16a085" stroke="black" points="911.62,-55.5 812.38,-55.5 812.38,-16 911.62,-16 911.62,-55.5"/>
<text xml:space="preserve" text-anchor="middle" x="862" y="-38.2" font-family="Arial" font-size="14.00" fill="white">University</text>
<text xml:space="preserve" text-anchor="middle" x="862" y="-22.45" font-family="Arial" font-size="14.00" fill="white">Defense Labs</text>
</g>
<!-- tier2_most&#45;&gt;tier5_unis -->
<g id="edge14" class="edge">
<title>tier2_most&#45;&gt;tier5_unis</title>
<path fill="none" stroke="#34495e" stroke-width="1.5" d="M599.7,-146.49C647.28,-126.59 743.37,-86.38 805.1,-60.56"/>
<polygon fill="#34495e" stroke="#34495e" stroke-width="1.5" points="806.24,-63.87 814.11,-56.78 803.54,-57.42 806.24,-63.87"/>
</g>
<!-- tier4_zones -->
<g id="node13" class="node">
<title>tier4_zones</title>
<polygon fill="#95a5a6" stroke="black" points="754.12,-55.5 657.88,-55.5 657.88,-16 754.12,-16 754.12,-55.5"/>
<text xml:space="preserve" text-anchor="middle" x="706" y="-38.2" font-family="Arial" font-size="14.00" fill="white">Development</text>
<text xml:space="preserve" text-anchor="middle" x="706" y="-22.45" font-family="Arial" font-size="14.00" fill="white">Zones</text>
</g>
<!-- tier2_ndrc&#45;&gt;tier4_zones -->
<g id="edge12" class="edge">
<title>tier2_ndrc&#45;&gt;tier4_zones</title>
<path fill="none" stroke="#34495e" stroke-width="1.5" d="M783.96,-141.06C769.24,-121.35 745.04,-88.98 727.51,-65.52"/>
<polygon fill="#34495e" stroke="#34495e" stroke-width="1.5" points="730.36,-63.5 721.57,-57.58 724.76,-67.69 730.36,-63.5"/>
</g>
<!-- tier5_soes -->
<g id="node14" class="node">
<title>tier5_soes</title>
<polygon fill="#27ae60" stroke="black" points="1064.75,-55.5 969.25,-55.5 969.25,-16 1064.75,-16 1064.75,-55.5"/>
<text xml:space="preserve" text-anchor="middle" x="1017" y="-38.2" font-family="Arial" font-size="14.00" fill="white">State&#45;Owned</text>
<text xml:space="preserve" text-anchor="middle" x="1017" y="-22.45" font-family="Arial" font-size="14.00" fill="white">Enterprises</text>
</g>
<!-- tier2_sasac&#45;&gt;tier5_soes -->
<g id="edge13" class="edge">
<title>tier2_sasac&#45;&gt;tier5_soes</title>
<path fill="none" stroke="#34495e" stroke-width="1.5" d="M927.9,-141.06C944.88,-121.18 972.88,-88.4 992.96,-64.9"/>
<polygon fill="#34495e" stroke="#34495e" stroke-width="1.5" points="995.45,-67.37 999.28,-57.49 990.13,-62.82 995.45,-67.37"/>
</g>
<!-- tier5_talent -->
<g id="node16" class="node">
<title>tier5_talent</title>
<polygon fill="#1abc9c" stroke="black" points="1251.62,-55.5 1122.38,-55.5 1122.38,-16 1251.62,-16 1251.62,-55.5"/>
<text xml:space="preserve" text-anchor="middle" x="1187" y="-38.2" font-family="Arial" font-size="14.00" fill="white">Talent Recruitment</text>
<text xml:space="preserve" text-anchor="middle" x="1187" y="-22.45" font-family="Arial" font-size="14.00" fill="white">Programs</text>
</g>
<!-- tier2_mss&#45;&gt;tier5_talent -->
<g id="edge15" class="edge">
<title>tier2_mss&#45;&gt;tier5_talent</title>
<path fill="none" stroke="#34495e" stroke-width="1.5" d="M1051.64,-141.06C1078.05,-120.71 1121.99,-86.84 1152.62,-63.24"/>
<polygon fill="#34495e" stroke="#34495e" stroke-width="1.5" points="1154.48,-66.23 1160.26,-57.35 1150.2,-60.69 1154.48,-66.23"/>
</g>
</g>
</svg>
