<?xml version="1.0" encoding="UTF-8" standalone="no"?>
<!DOCTYPE svg PUBLIC "-//W3C//DTD SVG 1.1//EN"
 "http://www.w3.org/Graphics/SVG/1.1/DTD/svg11.dtd">
<!-- Generated by graphviz version 14.0.2 (20251019.1705)
 -->
<!-- Title: MCF_Governance_Hierarchy Pages: 1 -->
<svg width="1086pt" height="882pt"
 viewBox="0.00 0.00 1086.00 882.00" xmlns="http://www.w3.org/2000/svg" xmlns:xlink="http://www.w3.org/1999/xlink">
<g id="graph0" class="graph" transform="scale(1 1) rotate(0) translate(4 878.45)">
<title>MCF_Governance_Hierarchy</title>
<polygon fill="white" stroke="none" points="-4,4 -4,-878.45 1081.58,-878.45 1081.58,4 -4,4"/>
<!-- xi -->
<g id="node1" class="node">
<title>xi</title>
<path fill="#e74c3c" stroke="black" stroke-width="2" d="M924.58,-874.45C924.58,-874.45 656.38,-874.45 656.38,-874.45 650.38,-874.45 644.38,-868.45 644.38,-862.45 644.38,-862.45 644.38,-826.15 644.38,-826.15 644.38,-820.15 650.38,-814.15 656.38,-814.15 656.38,-814.15 924.58,-814.15 924.58,-814.15 930.58,-814.15 936.58,-820.15 936.58,-826.15 936.58,-826.15 936.58,-862.45 936.58,-862.45 936.58,-868.45 930.58,-874.45 924.58,-874.45"/>
<text xml:space="preserve" text-anchor="middle" x="790.48" y="-846.75" font-family="Arial" font-size="14.00" fill="white">Xi Jinping</text>
<text xml:space="preserve" text-anchor="middle" x="790.48" y="-831" font-family="Arial" font-size="14.00" fill="white">General Secretary, President, CMC Chair</text>
</g>
<!-- mcf_commission -->
<g id="node2" class="node">
<title>mcf_commission</title>
<path fill="#c0392b" stroke="black" d="M869.08,-744.9C869.08,-744.9 711.88,-744.9 711.88,-744.9 705.88,-744.9 699.88,-738.9 699.88,-732.9 699.88,-732.9 699.88,-699.6 699.88,-699.6 699.88,-693.6 705.88,-687.6 711.88,-687.6 711.88,-687.6 869.08,-687.6 869.08,-687.6 875.08,-687.6 881.08,-693.6 881.08,-699.6 881.08,-699.6 881.08,-732.9 881.08,-732.9 881.08,-738.9 875.08,-744.9 869.08,-744.9"/>
<text xml:space="preserve" text-anchor="middle" x="790.48" y="-719.1" font-family="Arial" font-size="12.00" fill="white">Central MCF Commission</text>
<text xml:space="preserve" text-anchor="middle" x="790.48" y="-704.85" font-family="Arial" font-size="12.00" fill="white">(Chair: Xi Jinping)</text>
</g>
<!-- xi&#45;&gt;mcf_commission -->
<g id="edge1" class="edge">
<title>xi&#45;&gt;mcf_commission</title>
<path fill="none" stroke="#34495e" stroke-width="2" d="M790.48,-813.95C790.48,-813.95 790.48,-756.09 790.48,-756.09"/>
<polygon fill="#34495e" stroke="#34495e" stroke-width="2" points="793.28,-756.09 790.48,-748.09 787.68,-756.09 793.28,-756.09"/>
<text xml:space="preserve" text-anchor="middle" x="803.6" y="-775.65" font-family="Times New Roman,serif" font-size="10.00">Chairs</text>
</g>
<!-- state_council -->
<g id="node3" class="node">
<title>state_council</title>
<path fill="#3498db" stroke="black" d="M455.2,-618.35C455.2,-618.35 307.75,-618.35 307.75,-618.35 301.75,-618.35 295.75,-612.35 295.75,-606.35 295.75,-606.35 295.75,-573.05 295.75,-573.05 295.75,-567.05 301.75,-561.05 307.75,-561.05 307.75,-561.05 455.2,-561.05 455.2,-561.05 461.2,-561.05 467.2,-567.05 467.2,-573.05 467.2,-573.05 467.2,-606.35 467.2,-606.35 467.2,-612.35 461.2,-618.35 455.2,-618.35"/>
<text xml:space="preserve" text-anchor="middle" x="381.48" y="-592.55" font-family="Arial" font-size="12.00" fill="white">State Council</text>
<text xml:space="preserve" text-anchor="middle" x="381.48" y="-578.3" font-family="Arial" font-size="12.00" fill="white">(Government Executive)</text>
</g>
<!-- mcf_commission&#45;&gt;state_council -->
<g id="edge2" class="edge">
<title>mcf_commission&#45;&gt;state_council</title>
<path fill="none" stroke="#34495e" stroke-width="2" d="M699.45,-716C578.93,-716 381.48,-716 381.48,-716 381.48,-716 381.48,-629.7 381.48,-629.7"/>
<polygon fill="#34495e" stroke="#34495e" stroke-width="2" points="384.28,-629.7 381.48,-621.7 378.68,-629.7 384.28,-629.7"/>
<text xml:space="preserve" text-anchor="middle" x="596.23" y="-649.1" font-family="Times New Roman,serif" font-size="10.00">Coordinates</text>
</g>
<!-- cmc -->
<g id="node4" class="node">
<title>cmc</title>
<path fill="#e67e22" stroke="black" d="M875.08,-618.35C875.08,-618.35 705.88,-618.35 705.88,-618.35 699.88,-618.35 693.88,-612.35 693.88,-606.35 693.88,-606.35 693.88,-573.05 693.88,-573.05 693.88,-567.05 699.88,-561.05 705.88,-561.05 705.88,-561.05 875.08,-561.05 875.08,-561.05 881.08,-561.05 887.08,-567.05 887.08,-573.05 887.08,-573.05 887.08,-606.35 887.08,-606.35 887.08,-612.35 881.08,-618.35 875.08,-618.35"/>
<text xml:space="preserve" text-anchor="middle" x="790.48" y="-592.55" font-family="Arial" font-size="12.00" fill="white">Central Military Commission</text>
<text xml:space="preserve" text-anchor="middle" x="790.48" y="-578.3" font-family="Arial" font-size="12.00" fill="white">(Chair: Xi Jinping)</text>
</g>
<!-- mcf_commission&#45;&gt;cmc -->
<g id="edge3" class="edge">
<title>mcf_commission&#45;&gt;cmc</title>
<path fill="none" stroke="#34495e" stroke-width="2" d="M790.48,-687.22C790.48,-687.22 790.48,-629.63 790.48,-629.63"/>
<polygon fill="#34495e" stroke="#34495e" stroke-width="2" points="793.28,-629.63 790.48,-621.63 787.68,-629.63 793.28,-629.63"/>
<text xml:space="preserve" text-anchor="middle" x="815.23" y="-649.1" font-family="Times New Roman,serif" font-size="10.00">Coordinates</text>
</g>
<!-- mss -->
<g id="node10" class="node">
<title>mss</title>
<path fill="#8e44ad" stroke="black" d="M1065.58,-616.1C1065.58,-616.1 935.38,-616.1 935.38,-616.1 929.38,-616.1 923.38,-610.1 923.38,-604.1 923.38,-604.1 923.38,-575.3 923.38,-575.3 923.38,-569.3 929.38,-563.3 935.38,-563.3 935.38,-563.3 1065.58,-563.3 1065.58,-563.3 1071.58,-563.3 1077.58,-569.3 1077.58,-575.3 1077.58,-575.3 1077.58,-604.1 1077.58,-604.1 1077.58,-610.1 1071.58,-616.1 1065.58,-616.1"/>
<text xml:space="preserve" text-anchor="middle" x="1000.48" y="-592.2" font-family="Arial" font-size="10.00" fill="white">Ministry of State Security</text>
<text xml:space="preserve" text-anchor="middle" x="1000.48" y="-580.2" font-family="Arial" font-size="10.00" fill="white">Intelligence Collection</text>
</g>
<!-- mcf_commission&#45;&gt;mss -->
<g id="edge9" class="edge">
<title>mcf_commission&#45;&gt;mss</title>
<path fill="none" stroke="#34495e" stroke-width="2" d="M881.18,-716C907.83,-716 929.98,-716 929.98,-716 929.98,-716 929.98,-627.51 929.98,-627.51"/>
<polygon fill="#34495e" stroke="#34495e" stroke-width="2" points="932.78,-627.51 929.98,-619.51 927.18,-627.51 932.78,-627.51"/>
<text xml:space="preserve" text-anchor="middle" x="1013.23" y="-649.68" font-family="Times New Roman,serif" font-size="9.00">Directs</text>
</g>
<!-- miit -->
<g id="node5" class="node">
<title>miit</title>
<path fill="#3498db" stroke="black" d="M497.83,-502.05C497.83,-502.05 387.12,-502.05 387.12,-502.05 381.12,-502.05 375.12,-496.05 375.12,-490.05 375.12,-490.05 375.12,-461.25 375.12,-461.25 375.12,-455.25 381.12,-449.25 387.12,-449.25 387.12,-449.25 497.83,-449.25 497.83,-449.25 503.83,-449.25 509.83,-455.25 509.83,-461.25 509.83,-461.25 509.83,-490.05 509.83,-490.05 509.83,-496.05 503.83,-502.05 497.83,-502.05"/>
<text xml:space="preserve" text-anchor="middle" x="442.48" y="-478.15" font-family="Arial" font-size="10.00" fill="white">MIIT</text>
<text xml:space="preserve" text-anchor="middle" x="442.48" y="-466.15" font-family="Arial" font-size="10.00" fill="white">Industrial Technology</text>
</g>
<!-- state_council&#45;&gt;miit -->
<g id="edge4" class="edge">
<title>state_council&#45;&gt;miit</title>
<path fill="none" stroke="#34495e" stroke-width="2" d="M421.16,-560.63C421.16,-560.63 421.16,-513.35 421.16,-513.35"/>
<polygon fill="#34495e" stroke="#34495e" stroke-width="2" points="423.96,-513.35 421.16,-505.35 418.36,-513.35 423.96,-513.35"/>
</g>
<!-- most -->
<g id="node6" class="node">
<title>most</title>
<path fill="#3498db" stroke="black" d="M676.95,-502.05C676.95,-502.05 558,-502.05 558,-502.05 552,-502.05 546,-496.05 546,-490.05 546,-490.05 546,-461.25 546,-461.25 546,-455.25 552,-449.25 558,-449.25 558,-449.25 676.95,-449.25 676.95,-449.25 682.95,-449.25 688.95,-455.25 688.95,-461.25 688.95,-461.25 688.95,-490.05 688.95,-490.05 688.95,-496.05 682.95,-502.05 676.95,-502.05"/>
<text xml:space="preserve" text-anchor="middle" x="617.48" y="-478.15" font-family="Arial" font-size="10.00" fill="white">MOST</text>
<text xml:space="preserve" text-anchor="middle" x="617.48" y="-466.15" font-family="Arial" font-size="10.00" fill="white">Research Coordination</text>
</g>
<!-- state_council&#45;&gt;most -->
<g id="edge5" class="edge">
<title>state_council&#45;&gt;most</title>
<path fill="none" stroke="#34495e" stroke-width="2" d="M467.48,-590C526.86,-590 595.19,-590 595.19,-590 595.19,-590 595.19,-513.49 595.19,-513.49"/>
<polygon fill="#34495e" stroke="#34495e" stroke-width="2" points="597.99,-513.49 595.19,-505.49 592.39,-513.49 597.99,-513.49"/>
</g>
<!-- moe -->
<g id="node7" class="node">
<title>moe</title>
<path fill="#3498db" stroke="black" d="M94.95,-502.05C94.95,-502.05 12,-502.05 12,-502.05 6,-502.05 0,-496.05 0,-490.05 0,-490.05 0,-461.25 0,-461.25 0,-455.25 6,-449.25 12,-449.25 12,-449.25 94.95,-449.25 94.95,-449.25 100.95,-449.25 106.95,-455.25 106.95,-461.25 106.95,-461.25 106.95,-490.05 106.95,-490.05 106.95,-496.05 100.95,-502.05 94.95,-502.05"/>
<text xml:space="preserve" text-anchor="middle" x="53.48" y="-478.15" font-family="Arial" font-size="10.00" fill="white">MOE</text>
<text xml:space="preserve" text-anchor="middle" x="53.48" y="-466.15" font-family="Arial" font-size="10.00" fill="white">Talent Pipeline</text>
</g>
<!-- state_council&#45;&gt;moe -->
<g id="edge6" class="edge">
<title>state_council&#45;&gt;moe</title>
<path fill="none" stroke="#34495e" stroke-width="2" d="M295.3,-590C198.12,-590 53.48,-590 53.48,-590 53.48,-590 53.48,-513.49 53.48,-513.49"/>
<polygon fill="#34495e" stroke="#34495e" stroke-width="2" points="56.28,-513.49 53.48,-505.49 50.68,-513.49 56.28,-513.49"/>
</g>
<!-- ndrc -->
<g id="node8" class="node">
<title>ndrc</title>
<path fill="#9b59b6" stroke="black" d="M253.83,-502.05C253.83,-502.05 155.13,-502.05 155.13,-502.05 149.13,-502.05 143.13,-496.05 143.13,-490.05 143.13,-490.05 143.13,-461.25 143.13,-461.25 143.13,-455.25 149.13,-449.25 155.13,-449.25 155.13,-449.25 253.83,-449.25 253.83,-449.25 259.83,-449.25 265.83,-455.25 265.83,-461.25 265.83,-461.25 265.83,-490.05 265.83,-490.05 265.83,-496.05 259.83,-502.05 253.83,-502.05"/>
<text xml:space="preserve" text-anchor="middle" x="204.48" y="-478.15" font-family="Arial" font-size="10.00" fill="white">NDRC</text>
<text xml:space="preserve" text-anchor="middle" x="204.48" y="-466.15" font-family="Arial" font-size="10.00" fill="white">Strategic Planning</text>
</g>
<!-- state_council&#45;&gt;ndrc -->
<g id="edge7" class="edge">
<title>state_council&#45;&gt;ndrc</title>
<path fill="none" stroke="#34495e" stroke-width="2" d="M322.21,-560.71C322.21,-527.03 322.21,-476 322.21,-476 322.21,-476 277.13,-476 277.13,-476"/>
<polygon fill="#34495e" stroke="#34495e" stroke-width="2" points="277.13,-473.2 269.13,-476 277.13,-478.8 277.13,-473.2"/>
</g>
<!-- sasac -->
<g id="node9" class="node">
<title>sasac</title>
<path fill="#9b59b6" stroke="black" d="M368.08,-420.25C368.08,-420.25 282.88,-420.25 282.88,-420.25 276.88,-420.25 270.88,-414.25 270.88,-408.25 270.88,-408.25 270.88,-379.45 270.88,-379.45 270.88,-373.45 276.88,-367.45 282.88,-367.45 282.88,-367.45 368.08,-367.45 368.08,-367.45 374.08,-367.45 380.08,-373.45 380.08,-379.45 380.08,-379.45 380.08,-408.25 380.08,-408.25 380.08,-414.25 374.08,-420.25 368.08,-420.25"/>
<text xml:space="preserve" text-anchor="middle" x="325.48" y="-396.35" font-family="Arial" font-size="10.00" fill="white">SASAC</text>
<text xml:space="preserve" text-anchor="middle" x="325.48" y="-384.35" font-family="Arial" font-size="10.00" fill="white">SOE Oversight</text>
</g>
<!-- state_council&#45;&gt;sasac -->
<g id="edge8" class="edge">
<title>state_council&#45;&gt;sasac</title>
<path fill="none" stroke="#34495e" stroke-width="2" d="M348.67,-560.8C348.67,-560.8 348.67,-431.69 348.67,-431.69"/>
<polygon fill="#34495e" stroke="#34495e" stroke-width="2" points="351.47,-431.69 348.67,-423.69 345.87,-431.69 351.47,-431.69"/>
</g>
<!-- pla_ssf -->
<g id="node11" class="node">
<title>pla_ssf</title>
<path fill="#e67e22" stroke="black" d="M551.33,-52.8C551.33,-52.8 407.62,-52.8 407.62,-52.8 401.62,-52.8 395.62,-46.8 395.62,-40.8 395.62,-40.8 395.62,-12 395.62,-12 395.62,-6 401.62,0 407.62,0 407.62,0 551.33,0 551.33,0 557.33,0 563.33,-6 563.33,-12 563.33,-12 563.33,-40.8 563.33,-40.8 563.33,-46.8 557.33,-52.8 551.33,-52.8"/>
<text xml:space="preserve" text-anchor="middle" x="479.48" y="-28.9" font-family="Arial" font-size="10.00" fill="white">PLA Strategic Support Force</text>
<text xml:space="preserve" text-anchor="middle" x="479.48" y="-16.9" font-family="Arial" font-size="10.00" fill="white">Cyber, Space, EW</text>
</g>
<!-- cmc&#45;&gt;pla_ssf -->
<g id="edge10" class="edge">
<title>cmc&#45;&gt;pla_ssf</title>
<path fill="none" stroke="#34495e" stroke-width="2" d="M709.25,-560.58C709.25,-445.15 709.25,-26 709.25,-26 709.25,-26 574.76,-26 574.76,-26"/>
<polygon fill="#34495e" stroke="#34495e" stroke-width="2" points="574.76,-23.2 566.76,-26 574.76,-28.8 574.76,-23.2"/>
</g>
<!-- sastind -->
<g id="node12" class="node">
<title>sastind</title>
<path fill="#d35400" stroke="black" d="M844.33,-502.05C844.33,-502.05 736.62,-502.05 736.62,-502.05 730.62,-502.05 724.62,-496.05 724.62,-490.05 724.62,-490.05 724.62,-461.25 724.62,-461.25 724.62,-455.25 730.62,-449.25 736.62,-449.25 736.62,-449.25 844.33,-449.25 844.33,-449.25 850.33,-449.25 856.33,-455.25 856.33,-461.25 856.33,-461.25 856.33,-490.05 856.33,-490.05 856.33,-496.05 850.33,-502.05 844.33,-502.05"/>
<text xml:space="preserve" text-anchor="middle" x="790.48" y="-478.15" font-family="Arial" font-size="10.00" fill="white">SASTIND</text>
<text xml:space="preserve" text-anchor="middle" x="790.48" y="-466.15" font-family="Arial" font-size="10.00" fill="white">Defense Technology</text>
</g>
<!-- cmc&#45;&gt;sastind -->
<g id="edge11" class="edge">
<title>cmc&#45;&gt;sastind</title>
<path fill="none" stroke="#34495e" stroke-width="2" d="M790.48,-560.63C790.48,-560.63 790.48,-513.35 790.48,-513.35"/>
<polygon fill="#34495e" stroke="#34495e" stroke-width="2" points="793.28,-513.35 790.48,-505.35 787.68,-513.35 793.28,-513.35"/>
</g>
<!-- cas -->
<g id="node13" class="node">
<title>cas</title>
<path fill="#f39c12" stroke="black" d="M572.58,-338.45C572.58,-338.45 478.38,-338.45 478.38,-338.45 472.38,-338.45 466.38,-332.45 466.38,-326.45 466.38,-326.45 466.38,-300.65 466.38,-300.65 466.38,-294.65 472.38,-288.65 478.38,-288.65 478.38,-288.65 572.58,-288.65 572.58,-288.65 578.58,-288.65 584.58,-294.65 584.58,-300.65 584.58,-300.65 584.58,-326.45 584.58,-326.45 584.58,-332.45 578.58,-338.45 572.58,-338.45"/>
<text xml:space="preserve" text-anchor="middle" x="525.48" y="-315.5" font-family="Arial" font-size="9.00" fill="#2c3e50">Chinese Academy</text>
<text xml:space="preserve" text-anchor="middle" x="525.48" y="-305" font-family="Arial" font-size="9.00" fill="#2c3e50">of Sciences</text>
</g>
<!-- most&#45;&gt;cas -->
<g id="edge12" class="edge">
<title>most&#45;&gt;cas</title>
<path fill="none" stroke="#34495e" stroke-width="2" d="M565.29,-448.88C565.29,-448.88 565.29,-349.78 565.29,-349.78"/>
<polygon fill="#34495e" stroke="#34495e" stroke-width="2" points="568.09,-349.78 565.29,-341.78 562.49,-349.78 568.09,-349.78"/>
</g>
<!-- university_labs -->
<g id="node15" class="node">
<title>university_labs</title>
<path fill="#16a085" stroke="black" d="M250.33,-259.65C250.33,-259.65 118.63,-259.65 118.63,-259.65 112.63,-259.65 106.63,-253.65 106.63,-247.65 106.63,-247.65 106.63,-221.85 106.63,-221.85 106.63,-215.85 112.63,-209.85 118.63,-209.85 118.63,-209.85 250.33,-209.85 250.33,-209.85 256.33,-209.85 262.33,-215.85 262.33,-221.85 262.33,-221.85 262.33,-247.65 262.33,-247.65 262.33,-253.65 256.33,-259.65 250.33,-259.65"/>
<text xml:space="preserve" text-anchor="middle" x="184.48" y="-236.7" font-family="Arial" font-size="9.00" fill="#2c3e50">University Defense Labs</text>
<text xml:space="preserve" text-anchor="middle" x="184.48" y="-226.2" font-family="Arial" font-size="9.00" fill="#2c3e50">(Tsinghua, Beihang, NUDT)</text>
</g>
<!-- moe&#45;&gt;university_labs -->
<g id="edge14" class="edge">
<title>moe&#45;&gt;university_labs</title>
<path fill="none" stroke="#34495e" stroke-width="2" d="M107.35,-476C117.52,-476 125.04,-476 125.04,-476 125.04,-476 125.04,-271.14 125.04,-271.14"/>
<polygon fill="#34495e" stroke="#34495e" stroke-width="2" points="127.84,-271.14 125.04,-263.14 122.24,-271.14 127.84,-271.14"/>
</g>
<!-- soes -->
<g id="node14" class="node">
<title>soes</title>
<path fill="#27ae60" stroke="black" d="M540.45,-180.85C540.45,-180.85 418.5,-180.85 418.5,-180.85 412.5,-180.85 406.5,-174.85 406.5,-168.85 406.5,-168.85 406.5,-132.55 406.5,-132.55 406.5,-126.55 412.5,-120.55 418.5,-120.55 418.5,-120.55 540.45,-120.55 540.45,-120.55 546.45,-120.55 552.45,-126.55 552.45,-132.55 552.45,-132.55 552.45,-168.85 552.45,-168.85 552.45,-174.85 546.45,-180.85 540.45,-180.85"/>
<text xml:space="preserve" text-anchor="middle" x="479.48" y="-157.9" font-family="Arial" font-size="9.00" fill="#2c3e50">State&#45;Owned</text>
<text xml:space="preserve" text-anchor="middle" x="479.48" y="-147.4" font-family="Arial" font-size="9.00" fill="#2c3e50">Enterprises</text>
<text xml:space="preserve" text-anchor="middle" x="479.48" y="-136.9" font-family="Arial" font-size="9.00" fill="#2c3e50">(AVIC, NORINCO, CETC)</text>
</g>
<!-- sasac&#45;&gt;soes -->
<g id="edge13" class="edge">
<title>sasac&#45;&gt;soes</title>
<path fill="none" stroke="#34495e" stroke-width="2" d="M380.31,-394C408.26,-394 436.44,-394 436.44,-394 436.44,-394 436.44,-192.05 436.44,-192.05"/>
<polygon fill="#34495e" stroke="#34495e" stroke-width="2" points="439.24,-192.05 436.44,-184.05 433.64,-192.05 439.24,-192.05"/>
</g>
<!-- cas&#45;&gt;soes -->
<g id="edge15" class="edge">
<title>cas&#45;&gt;soes</title>
<path fill="none" stroke="#95a5a6" stroke-width="2" stroke-dasharray="5,2" d="M509.41,-288.46C509.41,-288.46 509.41,-192.12 509.41,-192.12"/>
<polygon fill="#95a5a6" stroke="#95a5a6" stroke-width="2" points="512.21,-192.12 509.41,-184.12 506.61,-192.12 512.21,-192.12"/>
<text xml:space="preserve" text-anchor="middle" x="521.48" y="-232.03" font-family="Times New Roman,serif" font-size="8.00">Technology Transfer</text>
</g>
<!-- soes&#45;&gt;pla_ssf -->
<g id="edge17" class="edge">
<title>soes&#45;&gt;pla_ssf</title>
<path fill="none" stroke="#95a5a6" stroke-width="2" stroke-dasharray="5,2" d="M479.48,-120.29C479.48,-120.29 479.48,-64.14 479.48,-64.14"/>
<polygon fill="#95a5a6" stroke="#95a5a6" stroke-width="2" points="482.28,-64.14 479.48,-56.14 476.68,-64.14 482.28,-64.14"/>
<text xml:space="preserve" text-anchor="middle" x="500.1" y="-83.95" font-family="Times New Roman,serif" font-size="8.00">Procurement</text>
</g>
<!-- university_labs&#45;&gt;pla_ssf -->
<g id="edge16" class="edge">
<title>university_labs&#45;&gt;pla_ssf</title>
<path fill="none" stroke="#95a5a6" stroke-width="2" stroke-dasharray="5,2" d="M262.67,-235C324.71,-235 401.06,-235 401.06,-235 401.06,-235 401.06,-64.27 401.06,-64.27"/>
<polygon fill="#95a5a6" stroke="#95a5a6" stroke-width="2" points="403.86,-64.27 401.06,-56.27 398.26,-64.27 403.86,-64.27"/>
<text xml:space="preserve" text-anchor="middle" x="225.35" y="-147.97" font-family="Times New Roman,serif" font-size="8.00">Research Collaboration</text>
</g>
</g>
</svg>
