<?xml version="1.0" encoding="UTF-8" standalone="no"?>
<!DOCTYPE svg PUBLIC "-//W3C//DTD SVG 1.1//EN"
 "http://www.w3.org/Graphics/SVG/1.1/DTD/svg11.dtd">
<!-- Generated by graphviz version 14.0.2 (20251019.1705)
 -->
<!-- Title: MCF_Command_Flow Pages: 1 -->
<svg width="979pt" height="370pt"
 viewBox="0.00 0.00 979.00 370.00" xmlns="http://www.w3.org/2000/svg" xmlns:xlink="http://www.w3.org/1999/xlink">
<g id="graph0" class="graph" transform="scale(1 1) rotate(0) translate(4 365.75)">
<title>MCF_Command_Flow</title>
<polygon fill="white" stroke="none" points="-4,4 -4,-365.75 975.19,-365.75 975.19,4 -4,4"/>
<g id="clust1" class="cluster">
<title>cluster_legend</title>
<polygon fill="white" stroke="black" points="1.5,-63.75 1.5,-353.75 120.25,-353.75 120.25,-63.75 1.5,-63.75"/>
<text xml:space="preserve" text-anchor="middle" x="60.88" y="-338.35" font-family="Arial" font-size="12.00">Relationship Types</text>
</g>
<!-- xi -->
<g id="node1" class="node">
<title>xi</title>
<ellipse fill="#e74c3c" stroke="black" cx="60.38" cy="-35.75" rx="49.57" ry="18"/>
<text xml:space="preserve" text-anchor="middle" x="60.38" y="-30.32" font-family="Arial" font-size="14.00" fill="white">Xi Jinping</text>
</g>
<!-- mcf -->
<g id="node2" class="node">
<title>mcf</title>
<path fill="#c0392b" stroke="black" d="M260.94,-88.5C260.94,-88.5 191.69,-88.5 191.69,-88.5 185.69,-88.5 179.69,-82.5 179.69,-76.5 179.69,-76.5 179.69,-61 179.69,-61 179.69,-55 185.69,-49 191.69,-49 191.69,-49 260.94,-49 260.94,-49 266.94,-49 272.94,-55 272.94,-61 272.94,-61 272.94,-76.5 272.94,-76.5 272.94,-82.5 266.94,-88.5 260.94,-88.5"/>
<text xml:space="preserve" text-anchor="middle" x="226.32" y="-71.2" font-family="Arial" font-size="14.00" fill="white">Central MCF</text>
<text xml:space="preserve" text-anchor="middle" x="226.32" y="-55.45" font-family="Arial" font-size="14.00" fill="white">Commission</text>
</g>
<!-- xi&#45;&gt;mcf -->
<g id="edge1" class="edge">
<title>xi&#45;&gt;mcf</title>
<path fill="none" stroke="#8e44ad" d="M104.45,-44.42C123.99,-48.35 147.37,-53.06 168.34,-57.28"/>
<polygon fill="#8e44ad" stroke="#8e44ad" points="167.4,-60.66 177.89,-59.2 168.78,-53.8 167.4,-60.66"/>
<text xml:space="preserve" text-anchor="middle" x="148.57" y="-56.96" font-family="Times New Roman,serif" font-size="10.00">Chairs</text>
</g>
<!-- cmc -->
<g id="node4" class="node">
<title>cmc</title>
<path fill="#e67e22" stroke="black" d="M453.19,-39.5C453.19,-39.5 370.44,-39.5 370.44,-39.5 364.44,-39.5 358.44,-33.5 358.44,-27.5 358.44,-27.5 358.44,-12 358.44,-12 358.44,-6 364.44,0 370.44,0 370.44,0 453.19,0 453.19,0 459.19,0 465.19,-6 465.19,-12 465.19,-12 465.19,-27.5 465.19,-27.5 465.19,-33.5 459.19,-39.5 453.19,-39.5"/>
<text xml:space="preserve" text-anchor="middle" x="411.82" y="-22.2" font-family="Arial" font-size="14.00" fill="white">Central Military</text>
<text xml:space="preserve" text-anchor="middle" x="411.82" y="-6.45" font-family="Arial" font-size="14.00" fill="white">Commission</text>
</g>
<!-- xi&#45;&gt;cmc -->
<g id="edge2" class="edge">
<title>xi&#45;&gt;cmc</title>
<path fill="none" stroke="#8e44ad" d="M109.43,-32.55C130.92,-31.18 156.57,-29.65 179.69,-28.5 236.07,-25.71 300.23,-23.34 346.62,-21.78"/>
<polygon fill="#8e44ad" stroke="#8e44ad" points="346.63,-25.28 356.51,-21.45 346.4,-18.28 346.63,-25.28"/>
<text xml:space="preserve" text-anchor="middle" x="226.32" y="-30.25" font-family="Times New Roman,serif" font-size="10.00">Chairs</text>
</g>
<!-- sc -->
<g id="node3" class="node">
<title>sc</title>
<path fill="#3498db" stroke="black" d="M447.94,-111.75C447.94,-111.75 375.69,-111.75 375.69,-111.75 369.69,-111.75 363.69,-105.75 363.69,-99.75 363.69,-99.75 363.69,-87.75 363.69,-87.75 363.69,-81.75 369.69,-75.75 375.69,-75.75 375.69,-75.75 447.94,-75.75 447.94,-75.75 453.94,-75.75 459.94,-81.75 459.94,-87.75 459.94,-87.75 459.94,-99.75 459.94,-99.75 459.94,-105.75 453.94,-111.75 447.94,-111.75"/>
<text xml:space="preserve" text-anchor="middle" x="411.82" y="-88.33" font-family="Arial" font-size="14.00" fill="white">State Council</text>
</g>
<!-- mcf&#45;&gt;sc -->
<g id="edge3" class="edge">
<title>mcf&#45;&gt;sc</title>
<path fill="none" stroke="#e74c3c" d="M273.15,-74.99C297.1,-78.26 326.67,-82.29 352.26,-85.77"/>
<polygon fill="#e74c3c" stroke="#e74c3c" points="351.45,-89.19 361.83,-87.08 352.4,-82.26 351.45,-89.19"/>
<text xml:space="preserve" text-anchor="middle" x="315.69" y="-85.24" font-family="Times New Roman,serif" font-size="10.00">Coordinates</text>
</g>
<!-- mcf&#45;&gt;cmc -->
<g id="edge4" class="edge">
<title>mcf&#45;&gt;cmc</title>
<path fill="none" stroke="#e74c3c" d="M273.15,-56.51C295.52,-50.54 322.79,-43.25 347.15,-36.75"/>
<polygon fill="#e74c3c" stroke="#e74c3c" points="347.88,-40.18 356.64,-34.22 346.08,-33.41 347.88,-40.18"/>
<text xml:space="preserve" text-anchor="middle" x="315.69" y="-53.25" font-family="Times New Roman,serif" font-size="10.00">Coordinates</text>
</g>
<!-- miit -->
<g id="node5" class="node">
<title>miit</title>
<path fill="#3498db" stroke="black" d="M572.57,-175.75C572.57,-175.75 542.57,-175.75 542.57,-175.75 536.57,-175.75 530.57,-169.75 530.57,-163.75 530.57,-163.75 530.57,-151.75 530.57,-151.75 530.57,-145.75 536.57,-139.75 542.57,-139.75 542.57,-139.75 572.57,-139.75 572.57,-139.75 578.57,-139.75 584.57,-145.75 584.57,-151.75 584.57,-151.75 584.57,-163.75 584.57,-163.75 584.57,-169.75 578.57,-175.75 572.57,-175.75"/>
<text xml:space="preserve" text-anchor="middle" x="557.57" y="-152.32" font-family="Arial" font-size="14.00">MIIT</text>
</g>
<!-- sc&#45;&gt;miit -->
<g id="edge5" class="edge">
<title>sc&#45;&gt;miit</title>
<path fill="none" stroke="#3498db" d="M454.01,-112.09C474.83,-121.36 499.87,-132.51 520,-141.47"/>
<polygon fill="#3498db" stroke="#3498db" points="518.38,-144.58 528.94,-145.45 521.23,-138.18 518.38,-144.58"/>
<text xml:space="preserve" text-anchor="middle" x="495.94" y="-137.17" font-family="Times New Roman,serif" font-size="9.00">Directs</text>
</g>
<!-- ndrc -->
<g id="node6" class="node">
<title>ndrc</title>
<path fill="#9b59b6" stroke="black" d="M573.07,-121.75C573.07,-121.75 542.07,-121.75 542.07,-121.75 536.07,-121.75 530.07,-115.75 530.07,-109.75 530.07,-109.75 530.07,-97.75 530.07,-97.75 530.07,-91.75 536.07,-85.75 542.07,-85.75 542.07,-85.75 573.07,-85.75 573.07,-85.75 579.07,-85.75 585.07,-91.75 585.07,-97.75 585.07,-97.75 585.07,-109.75 585.07,-109.75 585.07,-115.75 579.07,-121.75 573.07,-121.75"/>
<text xml:space="preserve" text-anchor="middle" x="557.57" y="-98.33" font-family="Arial" font-size="14.00" fill="white">NDRC</text>
</g>
<!-- sc&#45;&gt;ndrc -->
<g id="edge6" class="edge">
<title>sc&#45;&gt;ndrc</title>
<path fill="none" stroke="#3498db" d="M460.28,-97.05C479.11,-98.36 500.48,-99.85 518.29,-101.09"/>
<polygon fill="#3498db" stroke="#3498db" points="517.97,-104.57 528.19,-101.78 518.45,-97.59 517.97,-104.57"/>
<text xml:space="preserve" text-anchor="middle" x="495.94" y="-102.18" font-family="Times New Roman,serif" font-size="9.00">Directs</text>
</g>
<!-- sasac -->
<g id="node7" class="node">
<title>sasac</title>
<path fill="#9b59b6" stroke="black" d="M576.44,-67.75C576.44,-67.75 538.69,-67.75 538.69,-67.75 532.69,-67.75 526.69,-61.75 526.69,-55.75 526.69,-55.75 526.69,-43.75 526.69,-43.75 526.69,-37.75 532.69,-31.75 538.69,-31.75 538.69,-31.75 576.44,-31.75 576.44,-31.75 582.44,-31.75 588.44,-37.75 588.44,-43.75 588.44,-43.75 588.44,-55.75 588.44,-55.75 588.44,-61.75 582.44,-67.75 576.44,-67.75"/>
<text xml:space="preserve" text-anchor="middle" x="557.57" y="-44.33" font-family="Arial" font-size="14.00" fill="white">SASAC</text>
</g>
<!-- sc&#45;&gt;sasac -->
<g id="edge7" class="edge">
<title>sc&#45;&gt;sasac</title>
<path fill="none" stroke="#3498db" d="M460.28,-79.22C478.13,-73.76 498.25,-67.6 515.47,-62.33"/>
<polygon fill="#3498db" stroke="#3498db" points="516.33,-65.73 524.86,-59.45 514.28,-59.03 516.33,-65.73"/>
<text xml:space="preserve" text-anchor="middle" x="495.94" y="-73.7" font-family="Times New Roman,serif" font-size="9.00">Directs</text>
</g>
<!-- ssf -->
<g id="node8" class="node">
<title>ssf</title>
<path fill="#e67e22" stroke="black" d="M959.19,-37.75C959.19,-37.75 912.44,-37.75 912.44,-37.75 906.44,-37.75 900.44,-31.75 900.44,-25.75 900.44,-25.75 900.44,-13.75 900.44,-13.75 900.44,-7.75 906.44,-1.75 912.44,-1.75 912.44,-1.75 959.19,-1.75 959.19,-1.75 965.19,-1.75 971.19,-7.75 971.19,-13.75 971.19,-13.75 971.19,-25.75 971.19,-25.75 971.19,-31.75 965.19,-37.75 959.19,-37.75"/>
<text xml:space="preserve" text-anchor="middle" x="935.82" y="-14.32" font-family="Arial" font-size="14.00" fill="white">PLA SSF</text>
</g>
<!-- cmc&#45;&gt;ssf -->
<g id="edge8" class="edge">
<title>cmc&#45;&gt;ssf</title>
<path fill="none" stroke="#8e44ad" d="M465.57,-11.05C492.69,-7.29 526.31,-3.75 556.57,-3.75 556.57,-3.75 556.57,-3.75 809.94,-3.75 836.24,-3.75 865.4,-7.28 888.92,-11.03"/>
<polygon fill="#8e44ad" stroke="#8e44ad" points="888.05,-14.43 898.49,-12.62 889.2,-7.53 888.05,-14.43"/>
<text xml:space="preserve" text-anchor="middle" x="673.94" y="-5.7" font-family="Times New Roman,serif" font-size="9.00">Commands</text>
</g>
<!-- cas -->
<g id="node10" class="node">
<title>cas</title>
<path fill="#f39c12" stroke="black" d="M688.94,-118.75C688.94,-118.75 658.94,-118.75 658.94,-118.75 652.94,-118.75 646.94,-112.75 646.94,-106.75 646.94,-106.75 646.94,-94.75 646.94,-94.75 646.94,-88.75 652.94,-82.75 658.94,-82.75 658.94,-82.75 688.94,-82.75 688.94,-82.75 694.94,-82.75 700.94,-88.75 700.94,-94.75 700.94,-94.75 700.94,-106.75 700.94,-106.75 700.94,-112.75 694.94,-118.75 688.94,-118.75"/>
<text xml:space="preserve" text-anchor="middle" x="673.94" y="-95.33" font-family="Arial" font-size="14.00">CAS</text>
</g>
<!-- ndrc&#45;&gt;cas -->
<g id="edge10" class="edge">
<title>ndrc&#45;&gt;cas</title>
<path fill="none" stroke="#f39c12" d="M585.38,-103.05C600.26,-102.66 619,-102.16 635.32,-101.74"/>
<polygon fill="#f39c12" stroke="#f39c12" points="635.27,-105.24 645.18,-101.48 635.09,-98.24 635.27,-105.24"/>
<text xml:space="preserve" text-anchor="middle" x="617.69" y="-104.38" font-family="Times New Roman,serif" font-size="9.00">Funds</text>
</g>
<!-- soes -->
<g id="node9" class="node">
<title>soes</title>
<path fill="#27ae60" stroke="black" d="M823.94,-68.75C823.94,-68.75 793.94,-68.75 793.94,-68.75 787.94,-68.75 781.94,-62.75 781.94,-56.75 781.94,-56.75 781.94,-44.75 781.94,-44.75 781.94,-38.75 787.94,-32.75 793.94,-32.75 793.94,-32.75 823.94,-32.75 823.94,-32.75 829.94,-32.75 835.94,-38.75 835.94,-44.75 835.94,-44.75 835.94,-56.75 835.94,-56.75 835.94,-62.75 829.94,-68.75 823.94,-68.75"/>
<text xml:space="preserve" text-anchor="middle" x="808.94" y="-45.33" font-family="Arial" font-size="14.00" fill="white">SOEs</text>
</g>
<!-- sasac&#45;&gt;soes -->
<g id="edge9" class="edge">
<title>sasac&#45;&gt;soes</title>
<path fill="none" stroke="#c0392b" d="M588.65,-49.87C634.12,-50.05 720.33,-50.4 770.04,-50.6"/>
<polygon fill="#c0392b" stroke="#c0392b" points="770.02,-54.1 780.03,-50.64 770.05,-47.1 770.02,-54.1"/>
<text xml:space="preserve" text-anchor="middle" x="673.94" y="-52.27" font-family="Times New Roman,serif" font-size="9.00">Controls</text>
</g>
<!-- soes&#45;&gt;ssf -->
<g id="edge11" class="edge">
<title>soes&#45;&gt;ssf</title>
<path fill="none" stroke="#95a5a6" stroke-dasharray="5,2" d="M836.42,-44.18C851.77,-40.37 871.5,-35.47 889.27,-31.06"/>
<polygon fill="#95a5a6" stroke="#95a5a6" points="889.97,-34.49 898.83,-28.68 888.28,-27.7 889.97,-34.49"/>
<text xml:space="preserve" text-anchor="middle" x="868.19" y="-41.09" font-family="Times New Roman,serif" font-size="8.00">Procures</text>
</g>
<!-- cas&#45;&gt;soes -->
<g id="edge12" class="edge">
<title>cas&#45;&gt;soes</title>
<path fill="none" stroke="#95a5a6" stroke-dasharray="5,2" d="M701.22,-90.87C721.17,-83.37 748.85,-72.97 771.02,-64.63"/>
<polygon fill="#95a5a6" stroke="#95a5a6" points="772.17,-67.94 780.3,-61.14 769.71,-61.38 772.17,-67.94"/>
<text xml:space="preserve" text-anchor="middle" x="741.44" y="-85.3" font-family="Times New Roman,serif" font-size="8.00">Tech Transfer</text>
</g>
<!-- leg_commands -->
<g id="node11" class="node">
<title>leg_commands</title>
<polygon fill="#8e44ad" stroke="black" points="97.62,-107.75 17.12,-107.75 17.12,-71.75 103.62,-71.75 103.62,-101.75 97.62,-107.75"/>
<polyline fill="none" stroke="black" points="97.62,-107.75 97.62,-101.75"/>
<polyline fill="none" stroke="black" points="103.62,-101.75 97.62,-101.75"/>
<text xml:space="preserve" text-anchor="middle" x="60.38" y="-84.33" font-family="Arial" font-size="14.00" fill="white">Commands</text>
</g>
<!-- leg_directs -->
<g id="node12" class="node">
<title>leg_directs</title>
<polygon fill="#3498db" stroke="black" points="83.38,-161.75 31.38,-161.75 31.38,-125.75 89.38,-125.75 89.38,-155.75 83.38,-161.75"/>
<polyline fill="none" stroke="black" points="83.38,-161.75 83.38,-155.75"/>
<polyline fill="none" stroke="black" points="89.38,-155.75 83.38,-155.75"/>
<text xml:space="preserve" text-anchor="middle" x="60.38" y="-138.32" font-family="Arial" font-size="14.00" fill="white">Directs</text>
</g>
<!-- leg_coordinates -->
<g id="node13" class="node">
<title>leg_coordinates</title>
<polygon fill="#e74c3c" stroke="black" points="98.75,-215.75 16,-215.75 16,-179.75 104.75,-179.75 104.75,-209.75 98.75,-215.75"/>
<polyline fill="none" stroke="black" points="98.75,-215.75 98.75,-209.75"/>
<polyline fill="none" stroke="black" points="104.75,-209.75 98.75,-209.75"/>
<text xml:space="preserve" text-anchor="middle" x="60.38" y="-192.32" font-family="Arial" font-size="14.00" fill="white">Coordinates</text>
</g>
<!-- leg_funds -->
<g id="node14" class="node">
<title>leg_funds</title>
<polygon fill="#f39c12" stroke="black" points="81.38,-269.75 33.38,-269.75 33.38,-233.75 87.38,-233.75 87.38,-263.75 81.38,-269.75"/>
<polyline fill="none" stroke="black" points="81.38,-269.75 81.38,-263.75"/>
<polyline fill="none" stroke="black" points="87.38,-263.75 81.38,-263.75"/>
<text xml:space="preserve" text-anchor="middle" x="60.38" y="-246.32" font-family="Arial" font-size="14.00">Funds</text>
</g>
<!-- leg_controls -->
<g id="node15" class="node">
<title>leg_controls</title>
<polygon fill="#c0392b" stroke="black" points="87.5,-323.75 27.25,-323.75 27.25,-287.75 93.5,-287.75 93.5,-317.75 87.5,-323.75"/>
<polyline fill="none" stroke="black" points="87.5,-323.75 87.5,-317.75"/>
<polyline fill="none" stroke="black" points="93.5,-317.75 87.5,-317.75"/>
<text xml:space="preserve" text-anchor="middle" x="60.38" y="-300.32" font-family="Arial" font-size="14.00" fill="white">Controls</text>
</g>
</g>
</svg>
