<svg class="main-svg" xmlns="http://www.w3.org/2000/svg" xmlns:xlink="http://www.w3.org/1999/xlink" width="1400" height="800" style="" viewBox="0 0 1400 800"><rect x="0" y="0" width="1400" height="800" style="fill: rgb(255, 255, 255); fill-opacity: 1;"/><defs id="defs-ca3b83"><g class="clips"/><g class="gradients"/><g class="patterns"/></defs><g class="bglayer"/><g class="layer-below"><g class="imagelayer"/><g class="shapelayer"/></g><g class="cartesianlayer"/><g class="polarlayer"/><g class="smithlayer"/><g class="ternarylayer"/><g class="geolayer"/><g class="funnelarealayer"/><g class="pielayer"/><g class="iciclelayer"/><g class="treemaplayer"/><g class="sunburstlayer"/><g class="glimages"/><g class="sankey" transform="translate(80,100)matrix(1 0 0 1 0 0)" style="box-sizing: content-box; position: absolute; left: 0px; shape-rendering: geometricprecision; pointer-events: none;"><g class="sankey-links" style="fill: none;"><path class="sankey-link" d="M20,22.279143187517093C230.9284246456062,22.279143187517093 230.9284246456062,16.067536713463383 441.8568492912124,16.067536713463383L441.8568492912124,164.5951579635692C230.9284246456062,164.5951579635692 230.9284246456062,170.80676443762292 20,170.80676443762292Z" style="stroke: rgb(68, 68, 68); stroke-opacity: 1; fill: rgb(255, 107, 107); fill-opacity: 1; stroke-width: 0; opacity: 1;"/><path class="sankey-link" d="M20,170.80676443762297C120.4642123228031,170.80676443762297 120.4642123228031,175.52679088757765 220.9284246456062,175.52679088757765L220.9284246456062,294.34888788766233C120.4642123228031,294.34888788766233 120.4642123228031,289.62886143770766 20,289.62886143770766Z" style="stroke: rgb(68, 68, 68); stroke-opacity: 1; fill: rgb(255, 107, 107); fill-opacity: 1; stroke-width: 0; opacity: 1;"/><path class="sankey-link" d="M20,336.22737326859425C562.3210616140155,336.22737326859425 562.3210616140155,232.25803839351863 1104.642123228031,232.25803839351863L1104.642123228031,410.4911838936456C562.3210616140155,410.4911838936456 562.3210616140155,514.4605187687212 20,514.4605187687212Z" style="stroke: rgb(68, 68, 68); stroke-opacity: 1; fill: rgb(255, 107, 107); fill-opacity: 1; stroke-width: 0; opacity: 1;"/><path class="sankey-link" d="M461.8568492912124,127.46325265104286C562.3210616140155,127.46325265104286 562.3210616140155,284.24270583105704 662.7852739368186,284.24270583105704L662.7852739368186,417.9175649561523C562.3210616140155,417.9175649561523 562.3210616140155,261.1381117761381 461.8568492912124,261.1381117761381Z" style="stroke: rgb(68, 68, 68); stroke-opacity: 1; fill: rgb(78, 205, 196); fill-opacity: 1; stroke-width: 0; opacity: 1;"/><path class="sankey-link" d="M240.9284246456062,175.5267908875777C341.3926369684093,175.5267908875777 341.3926369684093,164.59515796356914 441.8568492912124,164.59515796356914L441.8568492912124,268.5644928386432C341.3926369684093,268.5644928386432 341.3926369684093,279.4961257626518 240.9284246456062,279.4961257626518Z" style="stroke: rgb(68, 68, 68); stroke-opacity: 1; fill: rgb(78, 205, 196); fill-opacity: 1; stroke-width: 0; opacity: 1;"/><path class="sankey-link" d="M 662.7852739368186 425.3439460186574  L 657.7852739368186 425.3439460186574 A 99.11657275006348 99.11657275006348 0 0 0 558.6687011867552 524.4605187687209 L 558.6687011867552 677.9881400188267 A 99.11657275006348 99.11657275006348 0 0 0 657.7852739368186 777.1047127688903 L 1129.642123228031 777.1047127688903 A 247.6441940001693 247.6441940001693 0 0 0 1377.2863172282002 529.4605187687209 L 1377.2863172282002 524.4605187687209 A 247.6441940001693 247.6441940001693 0 0 0 1129.642123228031 276.8163247685516 L 1124.642123228031 276.8163247685516 L 1124.642123228031 365.9328975186151 L 1129.642123228031 365.9328975186151 A 158.52762125010582 158.52762125010582 0 0 1 1288.1697444781369 524.4605187687209 L 1288.1697444781369 529.4605187687209 A 158.52762125010582 158.52762125010582 0 0 1 1129.642123228031 687.9881400188267 L 657.7852739368186 687.9881400188267 A 10 10 0 0 1 647.7852739368186 677.9881400188267 L 647.7852739368186 524.4605187687209 A 10 10 0 0 1 657.7852739368186 514.4605187687209 L 662.7852739368186 514.4605187687209Z" style="stroke: rgb(68, 68, 68); stroke-opacity: 1; fill: rgb(78, 205, 196); fill-opacity: 1; stroke-width: 0; opacity: 1;"/><path class="sankey-link" d="M682.7852739368186,284.242705831057C783.2494862596218,284.242705831057 783.2494862596218,239.68441945602524 883.7136985824249,239.68441945602524L883.7136985824249,365.93289751861516C783.2494862596218,365.93289751861516 783.2494862596218,410.4911838936469 682.7852739368186,410.4911838936469Z" style="stroke: rgb(68, 68, 68); stroke-opacity: 1; fill: rgb(149, 225, 211); fill-opacity: 1; stroke-width: 0; opacity: 1;"/><path class="sankey-link" d="M 883.7136985824249 365.93289751861505  L 878.7136985824249 365.93289751861505 A 158.52762125010582 158.52762125010582 0 0 0 720.1860773323191 524.4605187687209 L 720.1860773323191 529.4605187687209 A 158.52762125010582 158.52762125010582 0 0 0 878.7136985824249 687.9881400188267 L 1129.642123228031 687.9881400188267 A 158.52762125010582 158.52762125010582 0 0 0 1288.1697444781369 529.4605187687209 L 1288.1697444781369 524.4605187687209 A 158.52762125010582 158.52762125010582 0 0 0 1129.642123228031 365.93289751861505 L 1124.642123228031 365.93289751861505 L 1124.642123228031 514.4605187687209 L 1129.642123228031 514.4605187687209 A 10 10 0 0 1 1139.642123228031 524.4605187687209 L 1139.642123228031 529.4605187687209 A 10 10 0 0 1 1129.642123228031 539.4605187687209 L 878.7136985824249 539.4605187687209 A 10 10 0 0 1 868.7136985824249 529.4605187687209 L 868.7136985824249 524.4605187687209 A 10 10 0 0 1 878.7136985824249 514.4605187687209 L 883.7136985824249 514.4605187687209Z" style="stroke: rgb(68, 68, 68); stroke-opacity: 1; fill: rgb(149, 225, 211); fill-opacity: 1; stroke-width: 0; opacity: 1;"/><path class="sankey-link" d="M461.8568492912124,16.06753671346344C783.2494862596218,16.06753671346344 783.2494862596218,3.552713678800501e-14 1104.642123228031,3.552713678800501e-14L1104.642123228031,111.39571593757938C783.2494862596218,111.39571593757938 783.2494862596218,127.4632526510428 461.8568492912124,127.4632526510428Z" style="stroke: rgb(68, 68, 68); stroke-opacity: 1; fill: rgb(149, 225, 211); fill-opacity: 1; stroke-width: 0; opacity: 1;"/><path class="sankey-link" d="M682.7852739368186,410.49118389364685C893.7136985824249,410.49118389364685 893.7136985824249,410.4911838936454 1104.642123228031,410.4911838936454L1104.642123228031,514.4605187687195C893.7136985824249,514.4605187687195 893.7136985824249,514.4605187687209 682.7852739368186,514.4605187687209Z" style="stroke: rgb(68, 68, 68); stroke-opacity: 1; fill: rgb(243, 129, 129); fill-opacity: 1; stroke-width: 0; opacity: 1;"/><path class="sankey-link" d="M903.7136985824249,239.6844194560253C1004.1779109052279,239.6844194560253 1004.1779109052279,157.99422776846575 1104.642123228031,157.99422776846575L1104.642123228031,232.2580383935187C1004.1779109052279,232.2580383935187 1004.1779109052279,313.9482300810782 903.7136985824249,313.9482300810782Z" style="stroke: rgb(68, 68, 68); stroke-opacity: 1; fill: rgb(243, 129, 129); fill-opacity: 1; stroke-width: 0; opacity: 1;"/></g><g class="sankey-node-set" style="cursor: move;"><g class="sankey-node" transform="translate(662.785,284.243)" style="opacity: 1;"><rect class="node-rect" width="20" height="230.21781293766395" style="stroke-width: 0.5; stroke: rgb(0, 0, 0); stroke-opacity: 1; fill: rgb(52, 152, 219); fill-opacity: 1;"/><text class="node-label" data-notex="1" x="0" y="0" text-anchor="start" transform="translate(23.25,119.30890646883198)" style="cursor: default; font-family: Arial, sans-serif; font-size: 12px; fill: rgb(42, 63, 95); fill-opacity: 1; text-shadow: rgb(255, 255, 255) 1px 1px 1px, rgb(255, 255, 255) -1px -1px 1px, rgb(255, 255, 255) 1px -1px 1px, rgb(255, 255, 255) -1px 1px 1px; white-space: pre;">Chinese Academy of Sciences</text></g><g class="sankey-node" transform="translate(0.000,336.227)" style="opacity: 1;"><rect class="node-rect" width="20" height="178.23314550012674" style="stroke-width: 0.5; stroke: rgb(0, 0, 0); stroke-opacity: 1; fill: rgb(231, 76, 60); fill-opacity: 1;"/><text class="node-label" data-notex="1" x="0" y="0" text-anchor="start" transform="translate(23.25,93.31657275006337)" style="cursor: default; font-family: Arial, sans-serif; font-size: 12px; fill: rgb(42, 63, 95); fill-opacity: 1; text-shadow: rgb(255, 255, 255) 1px 1px 1px, rgb(255, 255, 255) -1px -1px 1px, rgb(255, 255, 255) 1px -1px 1px, rgb(255, 255, 255) -1px 1px 1px; white-space: pre;">Foreign Companies</text></g><g class="sankey-node" transform="translate(0.000,22.279)" style="opacity: 1;"><rect class="node-rect" width="20" height="267.34971825019045" style="stroke-width: 0.5; stroke: rgb(0, 0, 0); stroke-opacity: 1; fill: rgb(231, 76, 60); fill-opacity: 1;"/><text class="node-label" data-notex="1" x="0" y="0" text-anchor="start" transform="translate(23.25,137.8748591250952)" style="cursor: default; font-family: Arial, sans-serif; font-size: 12px; fill: rgb(42, 63, 95); fill-opacity: 1; text-shadow: rgb(255, 255, 255) 1px 1px 1px, rgb(255, 255, 255) -1px -1px 1px, rgb(255, 255, 255) 1px -1px 1px, rgb(255, 255, 255) -1px 1px 1px; white-space: pre;">Foreign Universities</text></g><g class="sankey-node" transform="translate(883.714,239.684)" style="opacity: 1;"><rect class="node-rect" width="20" height="274.7760993126957" style="stroke-width: 0.5; stroke: rgb(0, 0, 0); stroke-opacity: 1; fill: rgb(230, 126, 34); fill-opacity: 1;"/><text class="node-label" data-notex="1" x="0" y="0" text-anchor="start" transform="translate(23.25,141.58804965634783)" style="cursor: default; font-family: Arial, sans-serif; font-size: 12px; fill: rgb(42, 63, 95); fill-opacity: 1; text-shadow: rgb(255, 255, 255) 1px 1px 1px, rgb(255, 255, 255) -1px -1px 1px, rgb(255, 255, 255) 1px -1px 1px, rgb(255, 255, 255) -1px 1px 1px; white-space: pre;">PLA Strategic Support Force</text></g><g class="sankey-node" transform="translate(1104.642,0.000)" style="opacity: 1;"><rect class="node-rect" width="20" height="111.39571593757907" style="stroke-width: 0.5; stroke: rgb(0, 0, 0); stroke-opacity: 1; fill: rgb(230, 126, 34); fill-opacity: 1;"/><text class="node-label" data-notex="1" x="0" y="0" text-anchor="end" transform="translate(-3.25,59.89785796878954)" style="cursor: default; font-family: Arial, sans-serif; font-size: 12px; fill: rgb(42, 63, 95); fill-opacity: 1; text-shadow: rgb(255, 255, 255) 1px 1px 1px, rgb(255, 255, 255) -1px -1px 1px, rgb(255, 255, 255) 1px -1px 1px, rgb(255, 255, 255) -1px 1px 1px; white-space: pre;">State Administration for Science, Technology and Industry for National Defense</text></g><g class="sankey-node" transform="translate(1104.642,157.994)" style="opacity: 1;"><rect class="node-rect" width="20" height="356.46629100025524" style="stroke-width: 0.5; stroke: rgb(0, 0, 0); stroke-opacity: 1; fill: rgb(52, 152, 219); fill-opacity: 1;"/><text class="node-label" data-notex="1" x="0" y="0" text-anchor="end" transform="translate(-3.25,182.4331455001276)" style="cursor: default; font-family: Arial, sans-serif; font-size: 12px; fill: rgb(42, 63, 95); fill-opacity: 1; text-shadow: rgb(255, 255, 255) 1px 1px 1px, rgb(255, 255, 255) -1px -1px 1px, rgb(255, 255, 255) 1px -1px 1px, rgb(255, 255, 255) -1px 1px 1px; white-space: pre;">State-Owned Enterprises</text></g><g class="sankey-node" transform="translate(220.928,175.527)" style="opacity: 1;"><rect class="node-rect" width="20" height="118.82209700008463" style="stroke-width: 0.5; stroke: rgb(0, 0, 0); stroke-opacity: 1; fill: rgb(52, 152, 219); fill-opacity: 1;"/><text class="node-label" data-notex="1" x="0" y="0" text-anchor="start" transform="translate(23.25,63.611048500042315)" style="cursor: default; font-family: Arial, sans-serif; font-size: 12px; fill: rgb(42, 63, 95); fill-opacity: 1; text-shadow: rgb(255, 255, 255) 1px 1px 1px, rgb(255, 255, 255) -1px -1px 1px, rgb(255, 255, 255) 1px -1px 1px, rgb(255, 255, 255) -1px 1px 1px; white-space: pre;">Talent Recruitment Programs</text></g><g class="sankey-node" transform="translate(441.857,16.068)" style="opacity: 1;"><rect class="node-rect" width="20" height="252.49695612518" style="stroke-width: 0.5; stroke: rgb(0, 0, 0); stroke-opacity: 1; fill: rgb(52, 152, 219); fill-opacity: 1;"/><text class="node-label" data-notex="1" x="0" y="0" text-anchor="start" transform="translate(23.25,130.44847806259)" style="cursor: default; font-family: Arial, sans-serif; font-size: 12px; fill: rgb(42, 63, 95); fill-opacity: 1; text-shadow: rgb(255, 255, 255) 1px 1px 1px, rgb(255, 255, 255) -1px -1px 1px, rgb(255, 255, 255) 1px -1px 1px, rgb(255, 255, 255) -1px 1px 1px; white-space: pre;">University Defense Labs</text></g></g></g><defs id="topdefs-ca3b83"><g class="clips"/></defs><g class="layer-above"><g class="imagelayer"/><g class="shapelayer"/></g><g class="infolayer"><g class="g-gtitle"><text class="gtitle" x="700" y="50" text-anchor="middle" dy="0em" style="opacity: 1; font-family: Arial, sans-serif; font-size: 20px; fill: rgb(44, 62, 80); fill-opacity: 1; white-space: pre;">MCF Technology Flow: Foreign Acquisition → Domestic Processing → Application</text></g><g class="first-render"/></g></svg>