<?xml version="1.0" encoding="utf-8" standalone="no"?>
<!DOCTYPE svg PUBLIC "-//W3C//DTD SVG 1.1//EN"
  "http://www.w3.org/Graphics/SVG/1.1/DTD/svg11.dtd">
<svg xmlns:xlink="http://www.w3.org/1999/xlink" width="1144.8pt" height="855.2245pt" viewBox="0 0 1144.8 855.2245" xmlns="http://www.w3.org/2000/svg" version="1.1">
 <metadata>
  <rdf:RDF xmlns:dc="http://purl.org/dc/elements/1.1/" xmlns:cc="http://creativecommons.org/ns#" xmlns:rdf="http://www.w3.org/1999/02/22-rdf-syntax-ns#">
   <cc:Work>
    <dc:type rdf:resource="http://purl.org/dc/dcmitype/StillImage"/>
    <dc:date>2025-10-20T07:20:43.122569</dc:date>
    <dc:format>image/svg+xml</dc:format>
    <dc:creator>
     <cc:Agent>
      <dc:title>Matplotlib v3.10.1, https://matplotlib.org/</dc:title>
     </cc:Agent>
    </dc:creator>
   </cc:Work>
  </rdf:RDF>
 </metadata>
 <defs>
  <style type="text/css">*{stroke-linejoin: round; stroke-linecap: butt}</style>
 </defs>
 <g id="figure_1">
  <g id="patch_1">
   <path d="M 0 855.2245 
L 1144.8 855.2245 
L 1144.8 0 
L 0 0 
z
" style="fill: #ffffff"/>
  </g>
  <g id="axes_1">
   <g id="patch_2">
    <path d="M 450.538651 541.195475 
Q 541.320405 528.203418 605.297535 473.161508 
" clip-path="url(#p80a4c940fd)" style="fill: none; stroke: #e74c3c; stroke-opacity: 0.6; stroke-width: 6.666667; stroke-linecap: round"/>
    <path d="M 594.456016 475.893076 
L 605.297535 473.161508 
L 600.977878 483.473664 
" clip-path="url(#p80a4c940fd)" style="fill: none; stroke: #e74c3c; stroke-opacity: 0.6; stroke-width: 6.666667; stroke-linecap: round"/>
   </g>
   <g id="patch_3">
    <path d="M 390.436948 569.548786 
Q 323.974568 643.231202 309.516145 733.860607 
" clip-path="url(#p80a4c940fd)" style="fill: none; stroke: #e74c3c; stroke-opacity: 0.6; stroke-width: 6.666667; stroke-linecap: round"/>
    <path d="M 316.02912 724.77319 
L 309.516145 733.860607 
L 306.153995 723.197777 
" clip-path="url(#p80a4c940fd)" style="fill: none; stroke: #e74c3c; stroke-opacity: 0.6; stroke-width: 6.666667; stroke-linecap: round"/>
   </g>
   <g id="patch_4">
    <path d="M 381.112613 535.523904 
Q 278.896533 513.813269 187.841814 549.885944 
" clip-path="url(#p80a4c940fd)" style="fill: none; stroke: #e74c3c; stroke-opacity: 0.6; stroke-width: 6; stroke-linecap: round"/>
    <path d="M 198.980399 550.851301 
L 187.841814 549.885944 
L 195.297251 541.55429 
" clip-path="url(#p80a4c940fd)" style="fill: none; stroke: #e74c3c; stroke-opacity: 0.6; stroke-width: 6; stroke-linecap: round"/>
   </g>
   <g id="patch_5">
    <path d="M 607.169788 426.976978 
Q 390.139719 292.329652 143.233626 323.866838 
" clip-path="url(#p80a4c940fd)" style="fill: none; stroke: #3498db; stroke-opacity: 0.6; stroke-width: 6; stroke-linecap: round"/>
    <path d="M 153.786538 327.559542 
L 143.233626 323.866838 
L 152.519537 317.640131 
" clip-path="url(#p80a4c940fd)" style="fill: none; stroke: #3498db; stroke-opacity: 0.6; stroke-width: 6; stroke-linecap: round"/>
   </g>
   <g id="patch_6">
    <path d="M 668.085707 438.147807 
Q 825.885664 398.934535 924.589494 276.794323 
" clip-path="url(#p80a4c940fd)" style="fill: none; stroke: #3498db; stroke-opacity: 0.6; stroke-width: 5.333333; stroke-linecap: round"/>
    <path d="M 914.41522 281.429423 
L 924.589494 276.794323 
L 922.193009 287.714802 
" clip-path="url(#p80a4c940fd)" style="fill: none; stroke: #3498db; stroke-opacity: 0.6; stroke-width: 5.333333; stroke-linecap: round"/>
   </g>
   <g id="patch_7">
    <path d="M 622.835097 414.104319 
Q 546.579198 237.440729 381.488823 147.796731 
" clip-path="url(#p80a4c940fd)" style="fill: none; stroke: #3498db; stroke-opacity: 0.6; stroke-width: 4.666667; stroke-linecap: round"/>
    <path d="M 387.89089 156.962621 
L 381.488823 147.796731 
L 392.662775 148.174612 
" clip-path="url(#p80a4c940fd)" style="fill: none; stroke: #3498db; stroke-opacity: 0.6; stroke-width: 4.666667; stroke-linecap: round"/>
   </g>
   <g id="patch_8">
    <path d="M 657.442473 470.439995 
Q 799.482608 624.44102 998.920232 656.826458 
" clip-path="url(#p80a4c940fd)" style="fill: none; stroke: #3498db; stroke-opacity: 0.6; stroke-width: 6.666667; stroke-linecap: round"/>
    <path d="M 989.850945 650.28826 
L 998.920232 656.826458 
L 988.248102 660.158969 
" clip-path="url(#p80a4c940fd)" style="fill: none; stroke: #3498db; stroke-opacity: 0.6; stroke-width: 6.666667; stroke-linecap: round"/>
   </g>
   <g id="patch_9">
    <path d="M 628.833719 478.148093 
Q 605.44839 622.225975 668.904213 746.392283 
" clip-path="url(#p80a4c940fd)" style="fill: none; stroke: #3498db; stroke-opacity: 0.6; stroke-width: 6; stroke-linecap: round"/>
    <path d="M 668.805773 735.212376 
L 668.904213 746.392283 
L 659.901224 739.763091 
" clip-path="url(#p80a4c940fd)" style="fill: none; stroke: #3498db; stroke-opacity: 0.6; stroke-width: 6; stroke-linecap: round"/>
   </g>
   <g id="PathCollection_1">
    <path d="M 415.32881 579.792117 
C 424.705156 579.792117 433.698732 576.066855 440.32881 569.436778 
C 446.958887 562.8067 450.684149 553.813123 450.684149 544.436778 
C 450.684149 535.060432 446.958887 526.066855 440.32881 519.436778 
C 433.698732 512.8067 424.705156 509.081439 415.32881 509.081439 
C 405.952464 509.081439 396.958887 512.8067 390.32881 519.436778 
C 383.698732 526.066855 379.973471 535.060432 379.973471 544.436778 
C 379.973471 553.813123 383.698732 562.8067 390.32881 569.436778 
C 396.958887 576.066855 405.952464 579.792117 415.32881 579.792117 
z
" clip-path="url(#p80a4c940fd)" style="fill: #e74c3c; fill-opacity: 0.9; stroke: #000000; stroke-opacity: 0.9; stroke-width: 3"/>
    <path d="M 635.305801 478.779695 
C 644.200984 478.779695 652.73304 475.245602 659.022884 468.955758 
C 665.312728 462.665914 668.846821 454.133858 668.846821 445.238675 
C 668.846821 436.343493 665.312728 427.811437 659.022884 421.521593 
C 652.73304 415.231749 644.200984 411.697656 635.305801 411.697656 
C 626.410619 411.697656 617.878563 415.231749 611.588719 421.521593 
C 605.298875 427.811437 601.764782 436.343493 601.764782 445.238675 
C 601.764782 454.133858 605.298875 462.665914 611.588719 468.955758 
C 617.878563 475.245602 626.410619 478.779695 635.305801 478.779695 
z
" clip-path="url(#p80a4c940fd)" style="fill: #e74c3c; fill-opacity: 0.9; stroke: #000000; stroke-opacity: 0.9; stroke-width: 3"/>
    <path d="M 304.420801 811.713498 
C 313.797146 811.713498 322.790723 807.988237 329.420801 801.358159 
C 336.050878 794.728082 339.77614 785.734505 339.77614 776.358159 
C 339.77614 766.981814 336.050878 757.988237 329.420801 751.358159 
C 322.790723 744.728082 313.797146 741.00282 304.420801 741.00282 
C 295.044455 741.00282 286.050878 744.728082 279.420801 751.358159 
C 272.790723 757.988237 269.065462 766.981814 269.065462 776.358159 
C 269.065462 785.734505 272.790723 794.728082 279.420801 801.358159 
C 286.050878 807.988237 295.044455 811.713498 304.420801 811.713498 
z
" clip-path="url(#p80a4c940fd)" style="fill: #e74c3c; fill-opacity: 0.9; stroke: #000000; stroke-opacity: 0.9; stroke-width: 3"/>
    <path d="M 105.292562 360.948397 
C 113.67902 360.948397 121.72312 357.616422 127.653242 351.686301 
C 133.583363 345.756179 136.915339 337.712079 136.915339 329.325621 
C 136.915339 320.939162 133.583363 312.895063 127.653242 306.964941 
C 121.72312 301.034819 113.67902 297.702844 105.292562 297.702844 
C 96.906104 297.702844 88.862004 301.034819 82.931882 306.964941 
C 77.001761 312.895063 73.669785 320.939162 73.669785 329.325621 
C 73.669785 337.712079 77.001761 345.756179 82.931882 351.686301 
C 88.862004 357.616422 96.906104 360.948397 105.292562 360.948397 
z
" clip-path="url(#p80a4c940fd)" style="fill: #3498db; fill-opacity: 0.9; stroke: #000000; stroke-opacity: 0.9; stroke-width: 3"/>
    <path d="M 946.306577 278.240484 
C 954.15139 278.240484 961.675956 275.123706 967.223077 269.576585 
C 972.770198 264.029464 975.886976 256.504898 975.886976 248.660085 
C 975.886976 240.815271 972.770198 233.290705 967.223077 227.743584 
C 961.675956 222.196463 954.15139 219.079686 946.306577 219.079686 
C 938.461763 219.079686 930.937197 222.196463 925.390076 227.743584 
C 919.842955 233.290705 916.726178 240.815271 916.726178 248.660085 
C 916.726178 256.504898 919.842955 264.029464 925.390076 269.576585 
C 930.937197 275.123706 938.461763 278.240484 946.306577 278.240484 
z
" clip-path="url(#p80a4c940fd)" style="fill: #3498db; fill-opacity: 0.9; stroke: #000000; stroke-opacity: 0.9; stroke-width: 3"/>
    <path d="M 352.561403 160.145041 
C 359.824289 160.145041 366.790684 157.259466 371.92632 152.12383 
C 377.061955 146.988194 379.947531 140.021799 379.947531 132.758913 
C 379.947531 125.496027 377.061955 118.529632 371.92632 113.393996 
C 366.790684 108.258361 359.824289 105.372785 352.561403 105.372785 
C 345.298517 105.372785 338.332122 108.258361 333.196486 113.393996 
C 328.06085 118.529632 325.175275 125.496027 325.175275 132.758913 
C 325.175275 140.021799 328.06085 146.988194 333.196486 152.12383 
C 338.332122 157.259466 345.298517 160.145041 352.561403 160.145041 
z
" clip-path="url(#p80a4c940fd)" style="fill: #3498db; fill-opacity: 0.9; stroke: #000000; stroke-opacity: 0.9; stroke-width: 3"/>
    <path d="M 1039.507438 696.133559 
C 1048.40262 696.133559 1056.934677 692.599466 1063.22452 686.309622 
C 1069.514364 680.019778 1073.048458 671.487722 1073.048458 662.59254 
C 1073.048458 653.697357 1069.514364 645.165301 1063.22452 638.875457 
C 1056.934677 632.585613 1048.40262 629.05152 1039.507438 629.05152 
C 1030.612256 629.05152 1022.080199 632.585613 1015.790356 638.875457 
C 1009.500512 645.165301 1005.966418 653.697357 1005.966418 662.59254 
C 1005.966418 671.487722 1009.500512 680.019778 1015.790356 686.309622 
C 1022.080199 692.599466 1030.612256 696.133559 1039.507438 696.133559 
z
" clip-path="url(#p80a4c940fd)" style="fill: #9b59b6; fill-opacity: 0.9; stroke: #000000; stroke-opacity: 0.9; stroke-width: 3"/>
    <path d="M 687.220215 811.680863 
C 695.606674 811.680863 703.650773 808.348888 709.580895 802.418767 
C 715.511017 796.488645 718.842992 788.444545 718.842992 780.058087 
C 718.842992 771.671628 715.511017 763.627529 709.580895 757.697407 
C 703.650773 751.767285 695.606674 748.43531 687.220215 748.43531 
C 678.833757 748.43531 670.789657 751.767285 664.859535 757.697407 
C 658.929414 763.627529 655.597439 771.671628 655.597439 780.058087 
C 655.597439 788.444545 658.929414 796.488645 664.859535 802.418767 
C 670.789657 808.348888 678.833757 811.680863 687.220215 811.680863 
z
" clip-path="url(#p80a4c940fd)" style="fill: #9b59b6; fill-opacity: 0.9; stroke: #000000; stroke-opacity: 0.9; stroke-width: 3"/>
    <path d="M 150.979611 599.583812 
C 159.874793 599.583812 168.40685 596.049719 174.696693 589.759875 
C 180.986537 583.470031 184.520631 574.937975 184.520631 566.042792 
C 184.520631 557.14761 180.986537 548.615554 174.696693 542.32571 
C 168.40685 536.035866 159.874793 532.501773 150.979611 532.501773 
C 142.084429 532.501773 133.552372 536.035866 127.262529 542.32571 
C 120.972685 548.615554 117.438591 557.14761 117.438591 566.042792 
C 117.438591 574.937975 120.972685 583.470031 127.262529 589.759875 
C 133.552372 596.049719 142.084429 599.583812 150.979611 599.583812 
z
" clip-path="url(#p80a4c940fd)" style="fill: #3498db; fill-opacity: 0.9; stroke: #000000; stroke-opacity: 0.9; stroke-width: 3"/>
   </g>
   <g id="text_1">
    <g clip-path="url(#p80a4c940fd)">
     <!-- Central MCF Commission -->
     <g transform="translate(338.322794 547.47209) scale(0.11 -0.11)">
      <defs>
       <path id="DejaVuSans-Bold-43" d="M 4288 256 
Q 3956 84 3597 -3 
Q 3238 -91 2847 -91 
Q 1681 -91 1000 561 
Q 319 1213 319 2328 
Q 319 3447 1000 4098 
Q 1681 4750 2847 4750 
Q 3238 4750 3597 4662 
Q 3956 4575 4288 4403 
L 4288 3438 
Q 3953 3666 3628 3772 
Q 3303 3878 2944 3878 
Q 2300 3878 1931 3465 
Q 1563 3053 1563 2328 
Q 1563 1606 1931 1193 
Q 2300 781 2944 781 
Q 3303 781 3628 887 
Q 3953 994 4288 1222 
L 4288 256 
z
" transform="scale(0.015625)"/>
       <path id="DejaVuSans-Bold-65" d="M 4031 1759 
L 4031 1441 
L 1416 1441 
Q 1456 1047 1700 850 
Q 1944 653 2381 653 
Q 2734 653 3104 758 
Q 3475 863 3866 1075 
L 3866 213 
Q 3469 63 3072 -14 
Q 2675 -91 2278 -91 
Q 1328 -91 801 392 
Q 275 875 275 1747 
Q 275 2603 792 3093 
Q 1309 3584 2216 3584 
Q 3041 3584 3536 3087 
Q 4031 2591 4031 1759 
z
M 2881 2131 
Q 2881 2450 2695 2645 
Q 2509 2841 2209 2841 
Q 1884 2841 1681 2658 
Q 1478 2475 1428 2131 
L 2881 2131 
z
" transform="scale(0.015625)"/>
       <path id="DejaVuSans-Bold-6e" d="M 4056 2131 
L 4056 0 
L 2931 0 
L 2931 347 
L 2931 1631 
Q 2931 2084 2911 2256 
Q 2891 2428 2841 2509 
Q 2775 2619 2662 2680 
Q 2550 2741 2406 2741 
Q 2056 2741 1856 2470 
Q 1656 2200 1656 1722 
L 1656 0 
L 538 0 
L 538 3500 
L 1656 3500 
L 1656 2988 
Q 1909 3294 2193 3439 
Q 2478 3584 2822 3584 
Q 3428 3584 3742 3212 
Q 4056 2841 4056 2131 
z
" transform="scale(0.015625)"/>
       <path id="DejaVuSans-Bold-74" d="M 1759 4494 
L 1759 3500 
L 2913 3500 
L 2913 2700 
L 1759 2700 
L 1759 1216 
Q 1759 972 1856 886 
Q 1953 800 2241 800 
L 2816 800 
L 2816 0 
L 1856 0 
Q 1194 0 917 276 
Q 641 553 641 1216 
L 641 2700 
L 84 2700 
L 84 3500 
L 641 3500 
L 641 4494 
L 1759 4494 
z
" transform="scale(0.015625)"/>
       <path id="DejaVuSans-Bold-72" d="M 3138 2547 
Q 2991 2616 2845 2648 
Q 2700 2681 2553 2681 
Q 2122 2681 1889 2404 
Q 1656 2128 1656 1613 
L 1656 0 
L 538 0 
L 538 3500 
L 1656 3500 
L 1656 2925 
Q 1872 3269 2151 3426 
Q 2431 3584 2822 3584 
Q 2878 3584 2943 3579 
Q 3009 3575 3134 3559 
L 3138 2547 
z
" transform="scale(0.015625)"/>
       <path id="DejaVuSans-Bold-61" d="M 2106 1575 
Q 1756 1575 1579 1456 
Q 1403 1338 1403 1106 
Q 1403 894 1545 773 
Q 1688 653 1941 653 
Q 2256 653 2472 879 
Q 2688 1106 2688 1447 
L 2688 1575 
L 2106 1575 
z
M 3816 1997 
L 3816 0 
L 2688 0 
L 2688 519 
Q 2463 200 2181 54 
Q 1900 -91 1497 -91 
Q 953 -91 614 226 
Q 275 544 275 1050 
Q 275 1666 698 1953 
Q 1122 2241 2028 2241 
L 2688 2241 
L 2688 2328 
Q 2688 2594 2478 2717 
Q 2269 2841 1825 2841 
Q 1466 2841 1156 2769 
Q 847 2697 581 2553 
L 581 3406 
Q 941 3494 1303 3539 
Q 1666 3584 2028 3584 
Q 2975 3584 3395 3211 
Q 3816 2838 3816 1997 
z
" transform="scale(0.015625)"/>
       <path id="DejaVuSans-Bold-6c" d="M 538 4863 
L 1656 4863 
L 1656 0 
L 538 0 
L 538 4863 
z
" transform="scale(0.015625)"/>
       <path id="DejaVuSans-Bold-20" transform="scale(0.015625)"/>
       <path id="DejaVuSans-Bold-4d" d="M 588 4666 
L 2119 4666 
L 3181 2169 
L 4250 4666 
L 5778 4666 
L 5778 0 
L 4641 0 
L 4641 3413 
L 3566 897 
L 2803 897 
L 1728 3413 
L 1728 0 
L 588 0 
L 588 4666 
z
" transform="scale(0.015625)"/>
       <path id="DejaVuSans-Bold-46" d="M 588 4666 
L 3834 4666 
L 3834 3756 
L 1791 3756 
L 1791 2888 
L 3713 2888 
L 3713 1978 
L 1791 1978 
L 1791 0 
L 588 0 
L 588 4666 
z
" transform="scale(0.015625)"/>
       <path id="DejaVuSans-Bold-6f" d="M 2203 2784 
Q 1831 2784 1636 2517 
Q 1441 2250 1441 1747 
Q 1441 1244 1636 976 
Q 1831 709 2203 709 
Q 2569 709 2762 976 
Q 2956 1244 2956 1747 
Q 2956 2250 2762 2517 
Q 2569 2784 2203 2784 
z
M 2203 3584 
Q 3106 3584 3614 3096 
Q 4122 2609 4122 1747 
Q 4122 884 3614 396 
Q 3106 -91 2203 -91 
Q 1297 -91 786 396 
Q 275 884 275 1747 
Q 275 2609 786 3096 
Q 1297 3584 2203 3584 
z
" transform="scale(0.015625)"/>
       <path id="DejaVuSans-Bold-6d" d="M 3781 2919 
Q 3994 3244 4286 3414 
Q 4578 3584 4928 3584 
Q 5531 3584 5847 3212 
Q 6163 2841 6163 2131 
L 6163 0 
L 5038 0 
L 5038 1825 
Q 5041 1866 5042 1909 
Q 5044 1953 5044 2034 
Q 5044 2406 4934 2573 
Q 4825 2741 4581 2741 
Q 4263 2741 4089 2478 
Q 3916 2216 3909 1719 
L 3909 0 
L 2784 0 
L 2784 1825 
Q 2784 2406 2684 2573 
Q 2584 2741 2328 2741 
Q 2006 2741 1831 2477 
Q 1656 2213 1656 1722 
L 1656 0 
L 531 0 
L 531 3500 
L 1656 3500 
L 1656 2988 
Q 1863 3284 2130 3434 
Q 2397 3584 2719 3584 
Q 3081 3584 3359 3409 
Q 3638 3234 3781 2919 
z
" transform="scale(0.015625)"/>
       <path id="DejaVuSans-Bold-69" d="M 538 3500 
L 1656 3500 
L 1656 0 
L 538 0 
L 538 3500 
z
M 538 4863 
L 1656 4863 
L 1656 3950 
L 538 3950 
L 538 4863 
z
" transform="scale(0.015625)"/>
       <path id="DejaVuSans-Bold-73" d="M 3272 3391 
L 3272 2541 
Q 2913 2691 2578 2766 
Q 2244 2841 1947 2841 
Q 1628 2841 1473 2761 
Q 1319 2681 1319 2516 
Q 1319 2381 1436 2309 
Q 1553 2238 1856 2203 
L 2053 2175 
Q 2913 2066 3209 1816 
Q 3506 1566 3506 1031 
Q 3506 472 3093 190 
Q 2681 -91 1863 -91 
Q 1516 -91 1145 -36 
Q 775 19 384 128 
L 384 978 
Q 719 816 1070 734 
Q 1422 653 1784 653 
Q 2113 653 2278 743 
Q 2444 834 2444 1013 
Q 2444 1163 2330 1236 
Q 2216 1309 1875 1350 
L 1678 1375 
Q 931 1469 631 1722 
Q 331 1975 331 2491 
Q 331 3047 712 3315 
Q 1094 3584 1881 3584 
Q 2191 3584 2531 3537 
Q 2872 3491 3272 3391 
z
" transform="scale(0.015625)"/>
      </defs>
      <use xlink:href="#DejaVuSans-Bold-43"/>
      <use xlink:href="#DejaVuSans-Bold-65" transform="translate(73.388672 0)"/>
      <use xlink:href="#DejaVuSans-Bold-6e" transform="translate(141.210938 0)"/>
      <use xlink:href="#DejaVuSans-Bold-74" transform="translate(212.402344 0)"/>
      <use xlink:href="#DejaVuSans-Bold-72" transform="translate(260.205078 0)"/>
      <use xlink:href="#DejaVuSans-Bold-61" transform="translate(309.521484 0)"/>
      <use xlink:href="#DejaVuSans-Bold-6c" transform="translate(377.001953 0)"/>
      <use xlink:href="#DejaVuSans-Bold-20" transform="translate(411.279297 0)"/>
      <use xlink:href="#DejaVuSans-Bold-4d" transform="translate(446.09375 0)"/>
      <use xlink:href="#DejaVuSans-Bold-43" transform="translate(545.605469 0)"/>
      <use xlink:href="#DejaVuSans-Bold-46" transform="translate(618.994141 0)"/>
      <use xlink:href="#DejaVuSans-Bold-20" transform="translate(687.304688 0)"/>
      <use xlink:href="#DejaVuSans-Bold-43" transform="translate(722.119141 0)"/>
      <use xlink:href="#DejaVuSans-Bold-6f" transform="translate(795.507812 0)"/>
      <use xlink:href="#DejaVuSans-Bold-6d" transform="translate(864.208984 0)"/>
      <use xlink:href="#DejaVuSans-Bold-6d" transform="translate(968.408203 0)"/>
      <use xlink:href="#DejaVuSans-Bold-69" transform="translate(1072.607422 0)"/>
      <use xlink:href="#DejaVuSans-Bold-73" transform="translate(1106.884766 0)"/>
      <use xlink:href="#DejaVuSans-Bold-73" transform="translate(1166.40625 0)"/>
      <use xlink:href="#DejaVuSans-Bold-69" transform="translate(1225.927734 0)"/>
      <use xlink:href="#DejaVuSans-Bold-6f" transform="translate(1260.205078 0)"/>
      <use xlink:href="#DejaVuSans-Bold-6e" transform="translate(1328.90625 0)"/>
     </g>
    </g>
   </g>
   <g id="text_2">
    <g clip-path="url(#p80a4c940fd)">
     <!-- State Council -->
     <g transform="translate(594.053223 448.273988) scale(0.11 -0.11)">
      <defs>
       <path id="DejaVuSans-Bold-53" d="M 3834 4519 
L 3834 3531 
Q 3450 3703 3084 3790 
Q 2719 3878 2394 3878 
Q 1963 3878 1756 3759 
Q 1550 3641 1550 3391 
Q 1550 3203 1689 3098 
Q 1828 2994 2194 2919 
L 2706 2816 
Q 3484 2659 3812 2340 
Q 4141 2022 4141 1434 
Q 4141 663 3683 286 
Q 3225 -91 2284 -91 
Q 1841 -91 1394 -6 
Q 947 78 500 244 
L 500 1259 
Q 947 1022 1364 901 
Q 1781 781 2169 781 
Q 2563 781 2772 912 
Q 2981 1044 2981 1288 
Q 2981 1506 2839 1625 
Q 2697 1744 2272 1838 
L 1806 1941 
Q 1106 2091 782 2419 
Q 459 2747 459 3303 
Q 459 4000 909 4375 
Q 1359 4750 2203 4750 
Q 2588 4750 2994 4692 
Q 3400 4634 3834 4519 
z
" transform="scale(0.015625)"/>
       <path id="DejaVuSans-Bold-75" d="M 500 1363 
L 500 3500 
L 1625 3500 
L 1625 3150 
Q 1625 2866 1622 2436 
Q 1619 2006 1619 1863 
Q 1619 1441 1641 1255 
Q 1663 1069 1716 984 
Q 1784 875 1895 815 
Q 2006 756 2150 756 
Q 2500 756 2700 1025 
Q 2900 1294 2900 1772 
L 2900 3500 
L 4019 3500 
L 4019 0 
L 2900 0 
L 2900 506 
Q 2647 200 2364 54 
Q 2081 -91 1741 -91 
Q 1134 -91 817 281 
Q 500 653 500 1363 
z
" transform="scale(0.015625)"/>
       <path id="DejaVuSans-Bold-63" d="M 3366 3391 
L 3366 2478 
Q 3138 2634 2908 2709 
Q 2678 2784 2431 2784 
Q 1963 2784 1702 2511 
Q 1441 2238 1441 1747 
Q 1441 1256 1702 982 
Q 1963 709 2431 709 
Q 2694 709 2930 787 
Q 3166 866 3366 1019 
L 3366 103 
Q 3103 6 2833 -42 
Q 2563 -91 2291 -91 
Q 1344 -91 809 395 
Q 275 881 275 1747 
Q 275 2613 809 3098 
Q 1344 3584 2291 3584 
Q 2566 3584 2833 3536 
Q 3100 3488 3366 3391 
z
" transform="scale(0.015625)"/>
      </defs>
      <use xlink:href="#DejaVuSans-Bold-53"/>
      <use xlink:href="#DejaVuSans-Bold-74" transform="translate(72.021484 0)"/>
      <use xlink:href="#DejaVuSans-Bold-61" transform="translate(119.824219 0)"/>
      <use xlink:href="#DejaVuSans-Bold-74" transform="translate(187.304688 0)"/>
      <use xlink:href="#DejaVuSans-Bold-65" transform="translate(235.107422 0)"/>
      <use xlink:href="#DejaVuSans-Bold-20" transform="translate(302.929688 0)"/>
      <use xlink:href="#DejaVuSans-Bold-43" transform="translate(337.744141 0)"/>
      <use xlink:href="#DejaVuSans-Bold-6f" transform="translate(411.132812 0)"/>
      <use xlink:href="#DejaVuSans-Bold-75" transform="translate(479.833984 0)"/>
      <use xlink:href="#DejaVuSans-Bold-6e" transform="translate(551.025391 0)"/>
      <use xlink:href="#DejaVuSans-Bold-63" transform="translate(622.216797 0)"/>
      <use xlink:href="#DejaVuSans-Bold-69" transform="translate(681.494141 0)"/>
      <use xlink:href="#DejaVuSans-Bold-6c" transform="translate(715.771484 0)"/>
     </g>
    </g>
   </g>
   <g id="text_3">
    <g clip-path="url(#p80a4c940fd)">
     <!-- Central Military Commission -->
     <g transform="translate(216.914082 779.350503) scale(0.11 -0.11)">
      <defs>
       <path id="DejaVuSans-Bold-79" d="M 78 3500 
L 1197 3500 
L 2138 1125 
L 2938 3500 
L 4056 3500 
L 2584 -331 
Q 2363 -916 2067 -1148 
Q 1772 -1381 1288 -1381 
L 641 -1381 
L 641 -647 
L 991 -647 
Q 1275 -647 1404 -556 
Q 1534 -466 1606 -231 
L 1638 -134 
L 78 3500 
z
" transform="scale(0.015625)"/>
      </defs>
      <use xlink:href="#DejaVuSans-Bold-43"/>
      <use xlink:href="#DejaVuSans-Bold-65" transform="translate(73.388672 0)"/>
      <use xlink:href="#DejaVuSans-Bold-6e" transform="translate(141.210938 0)"/>
      <use xlink:href="#DejaVuSans-Bold-74" transform="translate(212.402344 0)"/>
      <use xlink:href="#DejaVuSans-Bold-72" transform="translate(260.205078 0)"/>
      <use xlink:href="#DejaVuSans-Bold-61" transform="translate(309.521484 0)"/>
      <use xlink:href="#DejaVuSans-Bold-6c" transform="translate(377.001953 0)"/>
      <use xlink:href="#DejaVuSans-Bold-20" transform="translate(411.279297 0)"/>
      <use xlink:href="#DejaVuSans-Bold-4d" transform="translate(446.09375 0)"/>
      <use xlink:href="#DejaVuSans-Bold-69" transform="translate(545.605469 0)"/>
      <use xlink:href="#DejaVuSans-Bold-6c" transform="translate(579.882812 0)"/>
      <use xlink:href="#DejaVuSans-Bold-69" transform="translate(614.160156 0)"/>
      <use xlink:href="#DejaVuSans-Bold-74" transform="translate(648.4375 0)"/>
      <use xlink:href="#DejaVuSans-Bold-61" transform="translate(696.240234 0)"/>
      <use xlink:href="#DejaVuSans-Bold-72" transform="translate(763.720703 0)"/>
      <use xlink:href="#DejaVuSans-Bold-79" transform="translate(813.037109 0)"/>
      <use xlink:href="#DejaVuSans-Bold-20" transform="translate(878.222656 0)"/>
      <use xlink:href="#DejaVuSans-Bold-43" transform="translate(913.037109 0)"/>
      <use xlink:href="#DejaVuSans-Bold-6f" transform="translate(986.425781 0)"/>
      <use xlink:href="#DejaVuSans-Bold-6d" transform="translate(1055.126953 0)"/>
      <use xlink:href="#DejaVuSans-Bold-6d" transform="translate(1159.326172 0)"/>
      <use xlink:href="#DejaVuSans-Bold-69" transform="translate(1263.525391 0)"/>
      <use xlink:href="#DejaVuSans-Bold-73" transform="translate(1297.802734 0)"/>
      <use xlink:href="#DejaVuSans-Bold-73" transform="translate(1357.324219 0)"/>
      <use xlink:href="#DejaVuSans-Bold-69" transform="translate(1416.845703 0)"/>
      <use xlink:href="#DejaVuSans-Bold-6f" transform="translate(1451.123047 0)"/>
      <use xlink:href="#DejaVuSans-Bold-6e" transform="translate(1519.824219 0)"/>
     </g>
    </g>
   </g>
   <g id="text_4">
    <g clip-path="url(#p80a4c940fd)">
     <!-- MIIT -->
     <g transform="translate(91.974828 332.360933) scale(0.11 -0.11)">
      <defs>
       <path id="DejaVuSans-Bold-49" d="M 588 4666 
L 1791 4666 
L 1791 0 
L 588 0 
L 588 4666 
z
" transform="scale(0.015625)"/>
       <path id="DejaVuSans-Bold-54" d="M 31 4666 
L 4331 4666 
L 4331 3756 
L 2784 3756 
L 2784 0 
L 1581 0 
L 1581 3756 
L 31 3756 
L 31 4666 
z
" transform="scale(0.015625)"/>
      </defs>
      <use xlink:href="#DejaVuSans-Bold-4d"/>
      <use xlink:href="#DejaVuSans-Bold-49" transform="translate(99.511719 0)"/>
      <use xlink:href="#DejaVuSans-Bold-49" transform="translate(136.71875 0)"/>
      <use xlink:href="#DejaVuSans-Bold-54" transform="translate(173.925781 0)"/>
     </g>
    </g>
   </g>
   <g id="text_5">
    <g clip-path="url(#p80a4c940fd)">
     <!-- MOST -->
     <g transform="translate(928.444467 251.695397) scale(0.11 -0.11)">
      <defs>
       <path id="DejaVuSans-Bold-4f" d="M 2719 3878 
Q 2169 3878 1866 3472 
Q 1563 3066 1563 2328 
Q 1563 1594 1866 1187 
Q 2169 781 2719 781 
Q 3272 781 3575 1187 
Q 3878 1594 3878 2328 
Q 3878 3066 3575 3472 
Q 3272 3878 2719 3878 
z
M 2719 4750 
Q 3844 4750 4481 4106 
Q 5119 3463 5119 2328 
Q 5119 1197 4481 553 
Q 3844 -91 2719 -91 
Q 1597 -91 958 553 
Q 319 1197 319 2328 
Q 319 3463 958 4106 
Q 1597 4750 2719 4750 
z
" transform="scale(0.015625)"/>
      </defs>
      <use xlink:href="#DejaVuSans-Bold-4d"/>
      <use xlink:href="#DejaVuSans-Bold-4f" transform="translate(99.511719 0)"/>
      <use xlink:href="#DejaVuSans-Bold-53" transform="translate(184.521484 0)"/>
      <use xlink:href="#DejaVuSans-Bold-54" transform="translate(256.542969 0)"/>
     </g>
    </g>
   </g>
   <g id="text_6">
    <g clip-path="url(#p80a4c940fd)">
     <!-- MOE -->
     <g transform="translate(338.654997 135.794226) scale(0.11 -0.11)">
      <defs>
       <path id="DejaVuSans-Bold-45" d="M 588 4666 
L 3834 4666 
L 3834 3756 
L 1791 3756 
L 1791 2888 
L 3713 2888 
L 3713 1978 
L 1791 1978 
L 1791 909 
L 3903 909 
L 3903 0 
L 588 0 
L 588 4666 
z
" transform="scale(0.015625)"/>
      </defs>
      <use xlink:href="#DejaVuSans-Bold-4d"/>
      <use xlink:href="#DejaVuSans-Bold-4f" transform="translate(99.511719 0)"/>
      <use xlink:href="#DejaVuSans-Bold-45" transform="translate(184.521484 0)"/>
     </g>
    </g>
   </g>
   <g id="text_7">
    <g clip-path="url(#p80a4c940fd)">
     <!-- NDRC -->
     <g transform="translate(1022.067282 665.627852) scale(0.11 -0.11)">
      <defs>
       <path id="DejaVuSans-Bold-4e" d="M 588 4666 
L 1931 4666 
L 3628 1466 
L 3628 4666 
L 4769 4666 
L 4769 0 
L 3425 0 
L 1728 3200 
L 1728 0 
L 588 0 
L 588 4666 
z
" transform="scale(0.015625)"/>
       <path id="DejaVuSans-Bold-44" d="M 1791 3756 
L 1791 909 
L 2222 909 
Q 2959 909 3348 1275 
Q 3738 1641 3738 2338 
Q 3738 3031 3350 3393 
Q 2963 3756 2222 3756 
L 1791 3756 
z
M 588 4666 
L 1856 4666 
Q 2919 4666 3439 4514 
Q 3959 4363 4331 4000 
Q 4659 3684 4818 3271 
Q 4978 2859 4978 2338 
Q 4978 1809 4818 1395 
Q 4659 981 4331 666 
Q 3956 303 3431 151 
Q 2906 0 1856 0 
L 588 0 
L 588 4666 
z
" transform="scale(0.015625)"/>
       <path id="DejaVuSans-Bold-52" d="M 2297 2597 
Q 2675 2597 2839 2737 
Q 3003 2878 3003 3200 
Q 3003 3519 2839 3656 
Q 2675 3794 2297 3794 
L 1791 3794 
L 1791 2597 
L 2297 2597 
z
M 1791 1766 
L 1791 0 
L 588 0 
L 588 4666 
L 2425 4666 
Q 3347 4666 3776 4356 
Q 4206 4047 4206 3378 
Q 4206 2916 3982 2619 
Q 3759 2322 3309 2181 
Q 3556 2125 3751 1926 
Q 3947 1728 4147 1325 
L 4800 0 
L 3519 0 
L 2950 1159 
Q 2778 1509 2601 1637 
Q 2425 1766 2131 1766 
L 1791 1766 
z
" transform="scale(0.015625)"/>
      </defs>
      <use xlink:href="#DejaVuSans-Bold-4e"/>
      <use xlink:href="#DejaVuSans-Bold-44" transform="translate(83.691406 0)"/>
      <use xlink:href="#DejaVuSans-Bold-52" transform="translate(166.699219 0)"/>
      <use xlink:href="#DejaVuSans-Bold-43" transform="translate(243.701172 0)"/>
     </g>
    </g>
   </g>
   <g id="text_8">
    <g clip-path="url(#p80a4c940fd)">
     <!-- SASAC -->
     <g transform="translate(666.749043 783.093399) scale(0.11 -0.11)">
      <defs>
       <path id="DejaVuSans-Bold-41" d="M 3419 850 
L 1538 850 
L 1241 0 
L 31 0 
L 1759 4666 
L 3194 4666 
L 4922 0 
L 3713 0 
L 3419 850 
z
M 1838 1716 
L 3116 1716 
L 2478 3572 
L 1838 1716 
z
" transform="scale(0.015625)"/>
      </defs>
      <use xlink:href="#DejaVuSans-Bold-53"/>
      <use xlink:href="#DejaVuSans-Bold-41" transform="translate(72.021484 0)"/>
      <use xlink:href="#DejaVuSans-Bold-53" transform="translate(149.414062 0)"/>
      <use xlink:href="#DejaVuSans-Bold-41" transform="translate(221.435547 0)"/>
      <use xlink:href="#DejaVuSans-Bold-43" transform="translate(298.828125 0)"/>
     </g>
    </g>
   </g>
   <g id="text_9">
    <g clip-path="url(#p80a4c940fd)">
     <!-- MSS -->
     <g transform="translate(137.832033 569.078105) scale(0.11 -0.11)">
      <use xlink:href="#DejaVuSans-Bold-4d"/>
      <use xlink:href="#DejaVuSans-Bold-53" transform="translate(99.511719 0)"/>
      <use xlink:href="#DejaVuSans-Bold-53" transform="translate(167.033203 0)"/>
     </g>
    </g>
   </g>
   <g id="text_10">
    <!-- MCF Core Coordination Structure -->
    <g transform="translate(385.678125 22.396875) scale(0.2 -0.2)">
     <defs>
      <path id="DejaVuSans-Bold-64" d="M 2919 2988 
L 2919 4863 
L 4044 4863 
L 4044 0 
L 2919 0 
L 2919 506 
Q 2688 197 2409 53 
Q 2131 -91 1766 -91 
Q 1119 -91 703 423 
Q 288 938 288 1747 
Q 288 2556 703 3070 
Q 1119 3584 1766 3584 
Q 2128 3584 2408 3439 
Q 2688 3294 2919 2988 
z
M 2181 722 
Q 2541 722 2730 984 
Q 2919 1247 2919 1747 
Q 2919 2247 2730 2509 
Q 2541 2772 2181 2772 
Q 1825 2772 1636 2509 
Q 1447 2247 1447 1747 
Q 1447 1247 1636 984 
Q 1825 722 2181 722 
z
" transform="scale(0.015625)"/>
     </defs>
     <use xlink:href="#DejaVuSans-Bold-4d"/>
     <use xlink:href="#DejaVuSans-Bold-43" transform="translate(99.511719 0)"/>
     <use xlink:href="#DejaVuSans-Bold-46" transform="translate(172.900391 0)"/>
     <use xlink:href="#DejaVuSans-Bold-20" transform="translate(241.210938 0)"/>
     <use xlink:href="#DejaVuSans-Bold-43" transform="translate(276.025391 0)"/>
     <use xlink:href="#DejaVuSans-Bold-6f" transform="translate(349.414062 0)"/>
     <use xlink:href="#DejaVuSans-Bold-72" transform="translate(418.115234 0)"/>
     <use xlink:href="#DejaVuSans-Bold-65" transform="translate(467.431641 0)"/>
     <use xlink:href="#DejaVuSans-Bold-20" transform="translate(535.253906 0)"/>
     <use xlink:href="#DejaVuSans-Bold-43" transform="translate(570.068359 0)"/>
     <use xlink:href="#DejaVuSans-Bold-6f" transform="translate(643.457031 0)"/>
     <use xlink:href="#DejaVuSans-Bold-6f" transform="translate(712.158203 0)"/>
     <use xlink:href="#DejaVuSans-Bold-72" transform="translate(780.859375 0)"/>
     <use xlink:href="#DejaVuSans-Bold-64" transform="translate(830.175781 0)"/>
     <use xlink:href="#DejaVuSans-Bold-69" transform="translate(901.757812 0)"/>
     <use xlink:href="#DejaVuSans-Bold-6e" transform="translate(936.035156 0)"/>
     <use xlink:href="#DejaVuSans-Bold-61" transform="translate(1007.226562 0)"/>
     <use xlink:href="#DejaVuSans-Bold-74" transform="translate(1074.707031 0)"/>
     <use xlink:href="#DejaVuSans-Bold-69" transform="translate(1122.509766 0)"/>
     <use xlink:href="#DejaVuSans-Bold-6f" transform="translate(1156.787109 0)"/>
     <use xlink:href="#DejaVuSans-Bold-6e" transform="translate(1225.488281 0)"/>
     <use xlink:href="#DejaVuSans-Bold-20" transform="translate(1296.679688 0)"/>
     <use xlink:href="#DejaVuSans-Bold-53" transform="translate(1331.494141 0)"/>
     <use xlink:href="#DejaVuSans-Bold-74" transform="translate(1403.515625 0)"/>
     <use xlink:href="#DejaVuSans-Bold-72" transform="translate(1451.318359 0)"/>
     <use xlink:href="#DejaVuSans-Bold-75" transform="translate(1500.634766 0)"/>
     <use xlink:href="#DejaVuSans-Bold-63" transform="translate(1571.826172 0)"/>
     <use xlink:href="#DejaVuSans-Bold-74" transform="translate(1631.103516 0)"/>
     <use xlink:href="#DejaVuSans-Bold-75" transform="translate(1678.90625 0)"/>
     <use xlink:href="#DejaVuSans-Bold-72" transform="translate(1750.097656 0)"/>
     <use xlink:href="#DejaVuSans-Bold-65" transform="translate(1799.414062 0)"/>
    </g>
    <!-- Central Authorities and Key Ministries -->
    <g transform="translate(356.767188 44.7925) scale(0.2 -0.2)">
     <defs>
      <path id="DejaVuSans-Bold-68" d="M 4056 2131 
L 4056 0 
L 2931 0 
L 2931 347 
L 2931 1625 
Q 2931 2084 2911 2256 
Q 2891 2428 2841 2509 
Q 2775 2619 2662 2680 
Q 2550 2741 2406 2741 
Q 2056 2741 1856 2470 
Q 1656 2200 1656 1722 
L 1656 0 
L 538 0 
L 538 4863 
L 1656 4863 
L 1656 2988 
Q 1909 3294 2193 3439 
Q 2478 3584 2822 3584 
Q 3428 3584 3742 3212 
Q 4056 2841 4056 2131 
z
" transform="scale(0.015625)"/>
      <path id="DejaVuSans-Bold-4b" d="M 588 4666 
L 1791 4666 
L 1791 2963 
L 3525 4666 
L 4922 4666 
L 2675 2456 
L 5153 0 
L 3647 0 
L 1791 1838 
L 1791 0 
L 588 0 
L 588 4666 
z
" transform="scale(0.015625)"/>
     </defs>
     <use xlink:href="#DejaVuSans-Bold-43"/>
     <use xlink:href="#DejaVuSans-Bold-65" transform="translate(73.388672 0)"/>
     <use xlink:href="#DejaVuSans-Bold-6e" transform="translate(141.210938 0)"/>
     <use xlink:href="#DejaVuSans-Bold-74" transform="translate(212.402344 0)"/>
     <use xlink:href="#DejaVuSans-Bold-72" transform="translate(260.205078 0)"/>
     <use xlink:href="#DejaVuSans-Bold-61" transform="translate(309.521484 0)"/>
     <use xlink:href="#DejaVuSans-Bold-6c" transform="translate(377.001953 0)"/>
     <use xlink:href="#DejaVuSans-Bold-20" transform="translate(411.279297 0)"/>
     <use xlink:href="#DejaVuSans-Bold-41" transform="translate(446.09375 0)"/>
     <use xlink:href="#DejaVuSans-Bold-75" transform="translate(523.486328 0)"/>
     <use xlink:href="#DejaVuSans-Bold-74" transform="translate(594.677734 0)"/>
     <use xlink:href="#DejaVuSans-Bold-68" transform="translate(642.480469 0)"/>
     <use xlink:href="#DejaVuSans-Bold-6f" transform="translate(713.671875 0)"/>
     <use xlink:href="#DejaVuSans-Bold-72" transform="translate(782.373047 0)"/>
     <use xlink:href="#DejaVuSans-Bold-69" transform="translate(831.689453 0)"/>
     <use xlink:href="#DejaVuSans-Bold-74" transform="translate(865.966797 0)"/>
     <use xlink:href="#DejaVuSans-Bold-69" transform="translate(913.769531 0)"/>
     <use xlink:href="#DejaVuSans-Bold-65" transform="translate(948.046875 0)"/>
     <use xlink:href="#DejaVuSans-Bold-73" transform="translate(1015.869141 0)"/>
     <use xlink:href="#DejaVuSans-Bold-20" transform="translate(1075.390625 0)"/>
     <use xlink:href="#DejaVuSans-Bold-61" transform="translate(1110.205078 0)"/>
     <use xlink:href="#DejaVuSans-Bold-6e" transform="translate(1177.685547 0)"/>
     <use xlink:href="#DejaVuSans-Bold-64" transform="translate(1248.876953 0)"/>
     <use xlink:href="#DejaVuSans-Bold-20" transform="translate(1320.458984 0)"/>
     <use xlink:href="#DejaVuSans-Bold-4b" transform="translate(1355.273438 0)"/>
     <use xlink:href="#DejaVuSans-Bold-65" transform="translate(1431.013672 0)"/>
     <use xlink:href="#DejaVuSans-Bold-79" transform="translate(1498.835938 0)"/>
     <use xlink:href="#DejaVuSans-Bold-20" transform="translate(1564.021484 0)"/>
     <use xlink:href="#DejaVuSans-Bold-4d" transform="translate(1598.835938 0)"/>
     <use xlink:href="#DejaVuSans-Bold-69" transform="translate(1698.347656 0)"/>
     <use xlink:href="#DejaVuSans-Bold-6e" transform="translate(1732.625 0)"/>
     <use xlink:href="#DejaVuSans-Bold-69" transform="translate(1803.816406 0)"/>
     <use xlink:href="#DejaVuSans-Bold-73" transform="translate(1838.09375 0)"/>
     <use xlink:href="#DejaVuSans-Bold-74" transform="translate(1897.615234 0)"/>
     <use xlink:href="#DejaVuSans-Bold-72" transform="translate(1945.417969 0)"/>
     <use xlink:href="#DejaVuSans-Bold-69" transform="translate(1994.734375 0)"/>
     <use xlink:href="#DejaVuSans-Bold-65" transform="translate(2029.011719 0)"/>
     <use xlink:href="#DejaVuSans-Bold-73" transform="translate(2096.833984 0)"/>
    </g>
   </g>
   <g id="legend_1">
    <g id="patch_10">
     <path d="M 15.6 146.783125 
L 157.04625 146.783125 
Q 159.44625 146.783125 159.44625 144.383125 
L 159.44625 73.1925 
Q 159.44625 70.7925 157.04625 70.7925 
L 15.6 70.7925 
Q 13.2 70.7925 13.2 73.1925 
L 13.2 144.383125 
Q 13.2 146.783125 15.6 146.783125 
z
" style="fill: #ffffff; opacity: 0.9; stroke: #cccccc; stroke-linejoin: miter"/>
    </g>
    <g id="text_11">
     <!-- Organization Types -->
     <g transform="translate(19.624062 86.230312) scale(0.14 -0.14)">
      <defs>
       <path id="DejaVuSans-4f" d="M 2522 4238 
Q 1834 4238 1429 3725 
Q 1025 3213 1025 2328 
Q 1025 1447 1429 934 
Q 1834 422 2522 422 
Q 3209 422 3611 934 
Q 4013 1447 4013 2328 
Q 4013 3213 3611 3725 
Q 3209 4238 2522 4238 
z
M 2522 4750 
Q 3503 4750 4090 4092 
Q 4678 3434 4678 2328 
Q 4678 1225 4090 567 
Q 3503 -91 2522 -91 
Q 1538 -91 948 565 
Q 359 1222 359 2328 
Q 359 3434 948 4092 
Q 1538 4750 2522 4750 
z
" transform="scale(0.015625)"/>
       <path id="DejaVuSans-72" d="M 2631 2963 
Q 2534 3019 2420 3045 
Q 2306 3072 2169 3072 
Q 1681 3072 1420 2755 
Q 1159 2438 1159 1844 
L 1159 0 
L 581 0 
L 581 3500 
L 1159 3500 
L 1159 2956 
Q 1341 3275 1631 3429 
Q 1922 3584 2338 3584 
Q 2397 3584 2469 3576 
Q 2541 3569 2628 3553 
L 2631 2963 
z
" transform="scale(0.015625)"/>
       <path id="DejaVuSans-67" d="M 2906 1791 
Q 2906 2416 2648 2759 
Q 2391 3103 1925 3103 
Q 1463 3103 1205 2759 
Q 947 2416 947 1791 
Q 947 1169 1205 825 
Q 1463 481 1925 481 
Q 2391 481 2648 825 
Q 2906 1169 2906 1791 
z
M 3481 434 
Q 3481 -459 3084 -895 
Q 2688 -1331 1869 -1331 
Q 1566 -1331 1297 -1286 
Q 1028 -1241 775 -1147 
L 775 -588 
Q 1028 -725 1275 -790 
Q 1522 -856 1778 -856 
Q 2344 -856 2625 -561 
Q 2906 -266 2906 331 
L 2906 616 
Q 2728 306 2450 153 
Q 2172 0 1784 0 
Q 1141 0 747 490 
Q 353 981 353 1791 
Q 353 2603 747 3093 
Q 1141 3584 1784 3584 
Q 2172 3584 2450 3431 
Q 2728 3278 2906 2969 
L 2906 3500 
L 3481 3500 
L 3481 434 
z
" transform="scale(0.015625)"/>
       <path id="DejaVuSans-61" d="M 2194 1759 
Q 1497 1759 1228 1600 
Q 959 1441 959 1056 
Q 959 750 1161 570 
Q 1363 391 1709 391 
Q 2188 391 2477 730 
Q 2766 1069 2766 1631 
L 2766 1759 
L 2194 1759 
z
M 3341 1997 
L 3341 0 
L 2766 0 
L 2766 531 
Q 2569 213 2275 61 
Q 1981 -91 1556 -91 
Q 1019 -91 701 211 
Q 384 513 384 1019 
Q 384 1609 779 1909 
Q 1175 2209 1959 2209 
L 2766 2209 
L 2766 2266 
Q 2766 2663 2505 2880 
Q 2244 3097 1772 3097 
Q 1472 3097 1187 3025 
Q 903 2953 641 2809 
L 641 3341 
Q 956 3463 1253 3523 
Q 1550 3584 1831 3584 
Q 2591 3584 2966 3190 
Q 3341 2797 3341 1997 
z
" transform="scale(0.015625)"/>
       <path id="DejaVuSans-6e" d="M 3513 2113 
L 3513 0 
L 2938 0 
L 2938 2094 
Q 2938 2591 2744 2837 
Q 2550 3084 2163 3084 
Q 1697 3084 1428 2787 
Q 1159 2491 1159 1978 
L 1159 0 
L 581 0 
L 581 3500 
L 1159 3500 
L 1159 2956 
Q 1366 3272 1645 3428 
Q 1925 3584 2291 3584 
Q 2894 3584 3203 3211 
Q 3513 2838 3513 2113 
z
" transform="scale(0.015625)"/>
       <path id="DejaVuSans-69" d="M 603 3500 
L 1178 3500 
L 1178 0 
L 603 0 
L 603 3500 
z
M 603 4863 
L 1178 4863 
L 1178 4134 
L 603 4134 
L 603 4863 
z
" transform="scale(0.015625)"/>
       <path id="DejaVuSans-7a" d="M 353 3500 
L 3084 3500 
L 3084 2975 
L 922 459 
L 3084 459 
L 3084 0 
L 275 0 
L 275 525 
L 2438 3041 
L 353 3041 
L 353 3500 
z
" transform="scale(0.015625)"/>
       <path id="DejaVuSans-74" d="M 1172 4494 
L 1172 3500 
L 2356 3500 
L 2356 3053 
L 1172 3053 
L 1172 1153 
Q 1172 725 1289 603 
Q 1406 481 1766 481 
L 2356 481 
L 2356 0 
L 1766 0 
Q 1100 0 847 248 
Q 594 497 594 1153 
L 594 3053 
L 172 3053 
L 172 3500 
L 594 3500 
L 594 4494 
L 1172 4494 
z
" transform="scale(0.015625)"/>
       <path id="DejaVuSans-6f" d="M 1959 3097 
Q 1497 3097 1228 2736 
Q 959 2375 959 1747 
Q 959 1119 1226 758 
Q 1494 397 1959 397 
Q 2419 397 2687 759 
Q 2956 1122 2956 1747 
Q 2956 2369 2687 2733 
Q 2419 3097 1959 3097 
z
M 1959 3584 
Q 2709 3584 3137 3096 
Q 3566 2609 3566 1747 
Q 3566 888 3137 398 
Q 2709 -91 1959 -91 
Q 1206 -91 779 398 
Q 353 888 353 1747 
Q 353 2609 779 3096 
Q 1206 3584 1959 3584 
z
" transform="scale(0.015625)"/>
       <path id="DejaVuSans-20" transform="scale(0.015625)"/>
       <path id="DejaVuSans-54" d="M -19 4666 
L 3928 4666 
L 3928 4134 
L 2272 4134 
L 2272 0 
L 1638 0 
L 1638 4134 
L -19 4134 
L -19 4666 
z
" transform="scale(0.015625)"/>
       <path id="DejaVuSans-79" d="M 2059 -325 
Q 1816 -950 1584 -1140 
Q 1353 -1331 966 -1331 
L 506 -1331 
L 506 -850 
L 844 -850 
Q 1081 -850 1212 -737 
Q 1344 -625 1503 -206 
L 1606 56 
L 191 3500 
L 800 3500 
L 1894 763 
L 2988 3500 
L 3597 3500 
L 2059 -325 
z
" transform="scale(0.015625)"/>
       <path id="DejaVuSans-70" d="M 1159 525 
L 1159 -1331 
L 581 -1331 
L 581 3500 
L 1159 3500 
L 1159 2969 
Q 1341 3281 1617 3432 
Q 1894 3584 2278 3584 
Q 2916 3584 3314 3078 
Q 3713 2572 3713 1747 
Q 3713 922 3314 415 
Q 2916 -91 2278 -91 
Q 1894 -91 1617 61 
Q 1341 213 1159 525 
z
M 3116 1747 
Q 3116 2381 2855 2742 
Q 2594 3103 2138 3103 
Q 1681 3103 1420 2742 
Q 1159 2381 1159 1747 
Q 1159 1113 1420 752 
Q 1681 391 2138 391 
Q 2594 391 2855 752 
Q 3116 1113 3116 1747 
z
" transform="scale(0.015625)"/>
       <path id="DejaVuSans-65" d="M 3597 1894 
L 3597 1613 
L 953 1613 
Q 991 1019 1311 708 
Q 1631 397 2203 397 
Q 2534 397 2845 478 
Q 3156 559 3463 722 
L 3463 178 
Q 3153 47 2828 -22 
Q 2503 -91 2169 -91 
Q 1331 -91 842 396 
Q 353 884 353 1716 
Q 353 2575 817 3079 
Q 1281 3584 2069 3584 
Q 2775 3584 3186 3129 
Q 3597 2675 3597 1894 
z
M 3022 2063 
Q 3016 2534 2758 2815 
Q 2500 3097 2075 3097 
Q 1594 3097 1305 2825 
Q 1016 2553 972 2059 
L 3022 2063 
z
" transform="scale(0.015625)"/>
       <path id="DejaVuSans-73" d="M 2834 3397 
L 2834 2853 
Q 2591 2978 2328 3040 
Q 2066 3103 1784 3103 
Q 1356 3103 1142 2972 
Q 928 2841 928 2578 
Q 928 2378 1081 2264 
Q 1234 2150 1697 2047 
L 1894 2003 
Q 2506 1872 2764 1633 
Q 3022 1394 3022 966 
Q 3022 478 2636 193 
Q 2250 -91 1575 -91 
Q 1294 -91 989 -36 
Q 684 19 347 128 
L 347 722 
Q 666 556 975 473 
Q 1284 391 1588 391 
Q 1994 391 2212 530 
Q 2431 669 2431 922 
Q 2431 1156 2273 1281 
Q 2116 1406 1581 1522 
L 1381 1569 
Q 847 1681 609 1914 
Q 372 2147 372 2553 
Q 372 3047 722 3315 
Q 1072 3584 1716 3584 
Q 2034 3584 2315 3537 
Q 2597 3491 2834 3397 
z
" transform="scale(0.015625)"/>
      </defs>
      <use xlink:href="#DejaVuSans-4f"/>
      <use xlink:href="#DejaVuSans-72" transform="translate(78.710938 0)"/>
      <use xlink:href="#DejaVuSans-67" transform="translate(118.074219 0)"/>
      <use xlink:href="#DejaVuSans-61" transform="translate(181.550781 0)"/>
      <use xlink:href="#DejaVuSans-6e" transform="translate(242.830078 0)"/>
      <use xlink:href="#DejaVuSans-69" transform="translate(306.208984 0)"/>
      <use xlink:href="#DejaVuSans-7a" transform="translate(333.992188 0)"/>
      <use xlink:href="#DejaVuSans-61" transform="translate(386.482422 0)"/>
      <use xlink:href="#DejaVuSans-74" transform="translate(447.761719 0)"/>
      <use xlink:href="#DejaVuSans-69" transform="translate(486.970703 0)"/>
      <use xlink:href="#DejaVuSans-6f" transform="translate(514.753906 0)"/>
      <use xlink:href="#DejaVuSans-6e" transform="translate(575.935547 0)"/>
      <use xlink:href="#DejaVuSans-20" transform="translate(639.314453 0)"/>
      <use xlink:href="#DejaVuSans-54" transform="translate(671.101562 0)"/>
      <use xlink:href="#DejaVuSans-79" transform="translate(716.560547 0)"/>
      <use xlink:href="#DejaVuSans-70" transform="translate(775.740234 0)"/>
      <use xlink:href="#DejaVuSans-65" transform="translate(839.216797 0)"/>
      <use xlink:href="#DejaVuSans-73" transform="translate(900.740234 0)"/>
     </g>
    </g>
    <g id="patch_11">
     <path d="M 18 104.26 
L 42 104.26 
L 42 95.86 
L 18 95.86 
z
" style="fill: #e74c3c; stroke: #e74c3c; stroke-linejoin: miter"/>
    </g>
    <g id="text_12">
     <!-- Central Authority -->
     <g transform="translate(51.6 104.26) scale(0.12 -0.12)">
      <defs>
       <path id="DejaVuSans-43" d="M 4122 4306 
L 4122 3641 
Q 3803 3938 3442 4084 
Q 3081 4231 2675 4231 
Q 1875 4231 1450 3742 
Q 1025 3253 1025 2328 
Q 1025 1406 1450 917 
Q 1875 428 2675 428 
Q 3081 428 3442 575 
Q 3803 722 4122 1019 
L 4122 359 
Q 3791 134 3420 21 
Q 3050 -91 2638 -91 
Q 1578 -91 968 557 
Q 359 1206 359 2328 
Q 359 3453 968 4101 
Q 1578 4750 2638 4750 
Q 3056 4750 3426 4639 
Q 3797 4528 4122 4306 
z
" transform="scale(0.015625)"/>
       <path id="DejaVuSans-6c" d="M 603 4863 
L 1178 4863 
L 1178 0 
L 603 0 
L 603 4863 
z
" transform="scale(0.015625)"/>
       <path id="DejaVuSans-41" d="M 2188 4044 
L 1331 1722 
L 3047 1722 
L 2188 4044 
z
M 1831 4666 
L 2547 4666 
L 4325 0 
L 3669 0 
L 3244 1197 
L 1141 1197 
L 716 0 
L 50 0 
L 1831 4666 
z
" transform="scale(0.015625)"/>
       <path id="DejaVuSans-75" d="M 544 1381 
L 544 3500 
L 1119 3500 
L 1119 1403 
Q 1119 906 1312 657 
Q 1506 409 1894 409 
Q 2359 409 2629 706 
Q 2900 1003 2900 1516 
L 2900 3500 
L 3475 3500 
L 3475 0 
L 2900 0 
L 2900 538 
Q 2691 219 2414 64 
Q 2138 -91 1772 -91 
Q 1169 -91 856 284 
Q 544 659 544 1381 
z
M 1991 3584 
L 1991 3584 
z
" transform="scale(0.015625)"/>
       <path id="DejaVuSans-68" d="M 3513 2113 
L 3513 0 
L 2938 0 
L 2938 2094 
Q 2938 2591 2744 2837 
Q 2550 3084 2163 3084 
Q 1697 3084 1428 2787 
Q 1159 2491 1159 1978 
L 1159 0 
L 581 0 
L 581 4863 
L 1159 4863 
L 1159 2956 
Q 1366 3272 1645 3428 
Q 1925 3584 2291 3584 
Q 2894 3584 3203 3211 
Q 3513 2838 3513 2113 
z
" transform="scale(0.015625)"/>
      </defs>
      <use xlink:href="#DejaVuSans-43"/>
      <use xlink:href="#DejaVuSans-65" transform="translate(69.824219 0)"/>
      <use xlink:href="#DejaVuSans-6e" transform="translate(131.347656 0)"/>
      <use xlink:href="#DejaVuSans-74" transform="translate(194.726562 0)"/>
      <use xlink:href="#DejaVuSans-72" transform="translate(233.935547 0)"/>
      <use xlink:href="#DejaVuSans-61" transform="translate(275.048828 0)"/>
      <use xlink:href="#DejaVuSans-6c" transform="translate(336.328125 0)"/>
      <use xlink:href="#DejaVuSans-20" transform="translate(364.111328 0)"/>
      <use xlink:href="#DejaVuSans-41" transform="translate(395.898438 0)"/>
      <use xlink:href="#DejaVuSans-75" transform="translate(464.306641 0)"/>
      <use xlink:href="#DejaVuSans-74" transform="translate(527.685547 0)"/>
      <use xlink:href="#DejaVuSans-68" transform="translate(566.894531 0)"/>
      <use xlink:href="#DejaVuSans-6f" transform="translate(630.273438 0)"/>
      <use xlink:href="#DejaVuSans-72" transform="translate(691.455078 0)"/>
      <use xlink:href="#DejaVuSans-69" transform="translate(732.568359 0)"/>
      <use xlink:href="#DejaVuSans-74" transform="translate(760.351562 0)"/>
      <use xlink:href="#DejaVuSans-79" transform="translate(799.560547 0)"/>
     </g>
    </g>
    <g id="patch_12">
     <path d="M 18 121.87375 
L 42 121.87375 
L 42 113.47375 
L 18 113.47375 
z
" style="fill: #3498db; stroke: #3498db; stroke-linejoin: miter"/>
    </g>
    <g id="text_13">
     <!-- Ministry -->
     <g transform="translate(51.6 121.87375) scale(0.12 -0.12)">
      <defs>
       <path id="DejaVuSans-4d" d="M 628 4666 
L 1569 4666 
L 2759 1491 
L 3956 4666 
L 4897 4666 
L 4897 0 
L 4281 0 
L 4281 4097 
L 3078 897 
L 2444 897 
L 1241 4097 
L 1241 0 
L 628 0 
L 628 4666 
z
" transform="scale(0.015625)"/>
      </defs>
      <use xlink:href="#DejaVuSans-4d"/>
      <use xlink:href="#DejaVuSans-69" transform="translate(86.279297 0)"/>
      <use xlink:href="#DejaVuSans-6e" transform="translate(114.0625 0)"/>
      <use xlink:href="#DejaVuSans-69" transform="translate(177.441406 0)"/>
      <use xlink:href="#DejaVuSans-73" transform="translate(205.224609 0)"/>
      <use xlink:href="#DejaVuSans-74" transform="translate(257.324219 0)"/>
      <use xlink:href="#DejaVuSans-72" transform="translate(296.533203 0)"/>
      <use xlink:href="#DejaVuSans-79" transform="translate(337.646484 0)"/>
     </g>
    </g>
    <g id="patch_13">
     <path d="M 18 139.4875 
L 42 139.4875 
L 42 131.0875 
L 18 131.0875 
z
" style="fill: #9b59b6; stroke: #9b59b6; stroke-linejoin: miter"/>
    </g>
    <g id="text_14">
     <!-- Commission -->
     <g transform="translate(51.6 139.4875) scale(0.12 -0.12)">
      <defs>
       <path id="DejaVuSans-6d" d="M 3328 2828 
Q 3544 3216 3844 3400 
Q 4144 3584 4550 3584 
Q 5097 3584 5394 3201 
Q 5691 2819 5691 2113 
L 5691 0 
L 5113 0 
L 5113 2094 
Q 5113 2597 4934 2840 
Q 4756 3084 4391 3084 
Q 3944 3084 3684 2787 
Q 3425 2491 3425 1978 
L 3425 0 
L 2847 0 
L 2847 2094 
Q 2847 2600 2669 2842 
Q 2491 3084 2119 3084 
Q 1678 3084 1418 2786 
Q 1159 2488 1159 1978 
L 1159 0 
L 581 0 
L 581 3500 
L 1159 3500 
L 1159 2956 
Q 1356 3278 1631 3431 
Q 1906 3584 2284 3584 
Q 2666 3584 2933 3390 
Q 3200 3197 3328 2828 
z
" transform="scale(0.015625)"/>
      </defs>
      <use xlink:href="#DejaVuSans-43"/>
      <use xlink:href="#DejaVuSans-6f" transform="translate(69.824219 0)"/>
      <use xlink:href="#DejaVuSans-6d" transform="translate(131.005859 0)"/>
      <use xlink:href="#DejaVuSans-6d" transform="translate(228.417969 0)"/>
      <use xlink:href="#DejaVuSans-69" transform="translate(325.830078 0)"/>
      <use xlink:href="#DejaVuSans-73" transform="translate(353.613281 0)"/>
      <use xlink:href="#DejaVuSans-73" transform="translate(405.712891 0)"/>
      <use xlink:href="#DejaVuSans-69" transform="translate(457.8125 0)"/>
      <use xlink:href="#DejaVuSans-6f" transform="translate(485.595703 0)"/>
      <use xlink:href="#DejaVuSans-6e" transform="translate(546.777344 0)"/>
     </g>
    </g>
   </g>
  </g>
 </g>
 <defs>
  <clipPath id="p80a4c940fd">
   <rect x="7.2" y="64.7925" width="1130.4" height="783.232"/>
  </clipPath>
 </defs>
</svg>
