<?xml version="1.0" encoding="utf-8" standalone="no"?>
<!DOCTYPE svg PUBLIC "-//W3C//DTD SVG 1.1//EN"
  "http://www.w3.org/Graphics/SVG/1.1/DTD/svg11.dtd">
<svg xmlns:xlink="http://www.w3.org/1999/xlink" width="2099.5425pt" height="1234.08pt" viewBox="0 0 2099.5425 1234.08" xmlns="http://www.w3.org/2000/svg" version="1.1">
 <metadata>
  <rdf:RDF xmlns:dc="http://purl.org/dc/elements/1.1/" xmlns:cc="http://creativecommons.org/ns#" xmlns:rdf="http://www.w3.org/1999/02/22-rdf-syntax-ns#">
   <cc:Work>
    <dc:type rdf:resource="http://purl.org/dc/dcmitype/StillImage"/>
    <dc:date>2025-10-20T20:22:18.717271</dc:date>
    <dc:format>image/svg+xml</dc:format>
    <dc:creator>
     <cc:Agent>
      <dc:title>Matplotlib v3.10.1, https://matplotlib.org/</dc:title>
     </cc:Agent>
    </dc:creator>
   </cc:Work>
  </rdf:RDF>
 </metadata>
 <defs>
  <style type="text/css">*{stroke-linejoin: round; stroke-linecap: butt}</style>
 </defs>
 <g id="figure_1">
  <g id="patch_1">
   <path d="M 0 1234.08 
L 2099.5425 1234.08 
L 2099.5425 0 
L 0 0 
z
" style="fill: #ffffff"/>
  </g>
  <g id="axes_1">
   <g id="patch_2">
    <path d="M 966.07125 328.752 
L 1803.07125 328.752 
Q 1807.25625 328.752 1807.25625 325.98 
L 1807.25625 242.82 
Q 1807.25625 240.048 1803.07125 240.048 
L 966.07125 240.048 
Q 961.88625 240.048 961.88625 242.82 
L 961.88625 325.98 
Q 961.88625 328.752 966.07125 328.752 
z
" clip-path="url(#p5a98e1b47d)" style="fill: #ecf0f1; stroke: #bdc3c7; stroke-width: 3; stroke-linejoin: miter"/>
   </g>
   <g id="patch_3">
    <path d="M 966.07125 450.72 
L 1803.07125 450.72 
Q 1807.25625 450.72 1807.25625 447.948 
L 1807.25625 364.788 
Q 1807.25625 362.016 1803.07125 362.016 
L 966.07125 362.016 
Q 961.88625 362.016 961.88625 364.788 
L 961.88625 447.948 
Q 961.88625 450.72 966.07125 450.72 
z
" clip-path="url(#p5a98e1b47d)" style="fill: #ecf0f1; stroke: #bdc3c7; stroke-width: 3; stroke-linejoin: miter"/>
   </g>
   <g id="patch_4">
    <path d="M 966.07125 572.688 
L 1803.07125 572.688 
Q 1807.25625 572.688 1807.25625 569.916 
L 1807.25625 486.756 
Q 1807.25625 483.984 1803.07125 483.984 
L 966.07125 483.984 
Q 961.88625 483.984 961.88625 486.756 
L 961.88625 569.916 
Q 961.88625 572.688 966.07125 572.688 
z
" clip-path="url(#p5a98e1b47d)" style="fill: #ecf0f1; stroke: #bdc3c7; stroke-width: 3; stroke-linejoin: miter"/>
   </g>
   <g id="patch_5">
    <path d="M 966.07125 694.656 
L 1803.07125 694.656 
Q 1807.25625 694.656 1807.25625 691.884 
L 1807.25625 608.724 
Q 1807.25625 605.952 1803.07125 605.952 
L 966.07125 605.952 
Q 961.88625 605.952 961.88625 608.724 
L 961.88625 691.884 
Q 961.88625 694.656 966.07125 694.656 
z
" clip-path="url(#p5a98e1b47d)" style="fill: #ecf0f1; stroke: #bdc3c7; stroke-width: 3; stroke-linejoin: miter"/>
   </g>
   <g id="patch_6">
    <path d="M 966.07125 816.624 
L 1803.07125 816.624 
Q 1807.25625 816.624 1807.25625 813.852 
L 1807.25625 730.692 
Q 1807.25625 727.92 1803.07125 727.92 
L 966.07125 727.92 
Q 961.88625 727.92 961.88625 730.692 
L 961.88625 813.852 
Q 961.88625 816.624 966.07125 816.624 
z
" clip-path="url(#p5a98e1b47d)" style="fill: #ecf0f1; stroke: #bdc3c7; stroke-width: 3; stroke-linejoin: miter"/>
   </g>
   <g id="patch_7">
    <path d="M 966.07125 938.592 
L 1803.07125 938.592 
Q 1807.25625 938.592 1807.25625 935.82 
L 1807.25625 852.66 
Q 1807.25625 849.888 1803.07125 849.888 
L 966.07125 849.888 
Q 961.88625 849.888 961.88625 852.66 
L 961.88625 935.82 
Q 961.88625 938.592 966.07125 938.592 
z
" clip-path="url(#p5a98e1b47d)" style="fill: #ecf0f1; stroke: #bdc3c7; stroke-width: 3; stroke-linejoin: miter"/>
   </g>
   <g id="text_1">
    <!-- Aerospace -->
    <g style="fill: #2c3e50" transform="translate(129.07125 298.74875) scale(0.52 -0.52)">
     <defs>
      <path id="DejaVuSans-Bold-41" d="M 3419 850 
L 1538 850 
L 1241 0 
L 31 0 
L 1759 4666 
L 3194 4666 
L 4922 0 
L 3713 0 
L 3419 850 
z
M 1838 1716 
L 3116 1716 
L 2478 3572 
L 1838 1716 
z
" transform="scale(0.015625)"/>
      <path id="DejaVuSans-Bold-65" d="M 4031 1759 
L 4031 1441 
L 1416 1441 
Q 1456 1047 1700 850 
Q 1944 653 2381 653 
Q 2734 653 3104 758 
Q 3475 863 3866 1075 
L 3866 213 
Q 3469 63 3072 -14 
Q 2675 -91 2278 -91 
Q 1328 -91 801 392 
Q 275 875 275 1747 
Q 275 2603 792 3093 
Q 1309 3584 2216 3584 
Q 3041 3584 3536 3087 
Q 4031 2591 4031 1759 
z
M 2881 2131 
Q 2881 2450 2695 2645 
Q 2509 2841 2209 2841 
Q 1884 2841 1681 2658 
Q 1478 2475 1428 2131 
L 2881 2131 
z
" transform="scale(0.015625)"/>
      <path id="DejaVuSans-Bold-72" d="M 3138 2547 
Q 2991 2616 2845 2648 
Q 2700 2681 2553 2681 
Q 2122 2681 1889 2404 
Q 1656 2128 1656 1613 
L 1656 0 
L 538 0 
L 538 3500 
L 1656 3500 
L 1656 2925 
Q 1872 3269 2151 3426 
Q 2431 3584 2822 3584 
Q 2878 3584 2943 3579 
Q 3009 3575 3134 3559 
L 3138 2547 
z
" transform="scale(0.015625)"/>
      <path id="DejaVuSans-Bold-6f" d="M 2203 2784 
Q 1831 2784 1636 2517 
Q 1441 2250 1441 1747 
Q 1441 1244 1636 976 
Q 1831 709 2203 709 
Q 2569 709 2762 976 
Q 2956 1244 2956 1747 
Q 2956 2250 2762 2517 
Q 2569 2784 2203 2784 
z
M 2203 3584 
Q 3106 3584 3614 3096 
Q 4122 2609 4122 1747 
Q 4122 884 3614 396 
Q 3106 -91 2203 -91 
Q 1297 -91 786 396 
Q 275 884 275 1747 
Q 275 2609 786 3096 
Q 1297 3584 2203 3584 
z
" transform="scale(0.015625)"/>
      <path id="DejaVuSans-Bold-73" d="M 3272 3391 
L 3272 2541 
Q 2913 2691 2578 2766 
Q 2244 2841 1947 2841 
Q 1628 2841 1473 2761 
Q 1319 2681 1319 2516 
Q 1319 2381 1436 2309 
Q 1553 2238 1856 2203 
L 2053 2175 
Q 2913 2066 3209 1816 
Q 3506 1566 3506 1031 
Q 3506 472 3093 190 
Q 2681 -91 1863 -91 
Q 1516 -91 1145 -36 
Q 775 19 384 128 
L 384 978 
Q 719 816 1070 734 
Q 1422 653 1784 653 
Q 2113 653 2278 743 
Q 2444 834 2444 1013 
Q 2444 1163 2330 1236 
Q 2216 1309 1875 1350 
L 1678 1375 
Q 931 1469 631 1722 
Q 331 1975 331 2491 
Q 331 3047 712 3315 
Q 1094 3584 1881 3584 
Q 2191 3584 2531 3537 
Q 2872 3491 3272 3391 
z
" transform="scale(0.015625)"/>
      <path id="DejaVuSans-Bold-70" d="M 1656 506 
L 1656 -1331 
L 538 -1331 
L 538 3500 
L 1656 3500 
L 1656 2988 
Q 1888 3294 2169 3439 
Q 2450 3584 2816 3584 
Q 3463 3584 3878 3070 
Q 4294 2556 4294 1747 
Q 4294 938 3878 423 
Q 3463 -91 2816 -91 
Q 2450 -91 2169 54 
Q 1888 200 1656 506 
z
M 2400 2772 
Q 2041 2772 1848 2508 
Q 1656 2244 1656 1747 
Q 1656 1250 1848 986 
Q 2041 722 2400 722 
Q 2759 722 2948 984 
Q 3138 1247 3138 1747 
Q 3138 2247 2948 2509 
Q 2759 2772 2400 2772 
z
" transform="scale(0.015625)"/>
      <path id="DejaVuSans-Bold-61" d="M 2106 1575 
Q 1756 1575 1579 1456 
Q 1403 1338 1403 1106 
Q 1403 894 1545 773 
Q 1688 653 1941 653 
Q 2256 653 2472 879 
Q 2688 1106 2688 1447 
L 2688 1575 
L 2106 1575 
z
M 3816 1997 
L 3816 0 
L 2688 0 
L 2688 519 
Q 2463 200 2181 54 
Q 1900 -91 1497 -91 
Q 953 -91 614 226 
Q 275 544 275 1050 
Q 275 1666 698 1953 
Q 1122 2241 2028 2241 
L 2688 2241 
L 2688 2328 
Q 2688 2594 2478 2717 
Q 2269 2841 1825 2841 
Q 1466 2841 1156 2769 
Q 847 2697 581 2553 
L 581 3406 
Q 941 3494 1303 3539 
Q 1666 3584 2028 3584 
Q 2975 3584 3395 3211 
Q 3816 2838 3816 1997 
z
" transform="scale(0.015625)"/>
      <path id="DejaVuSans-Bold-63" d="M 3366 3391 
L 3366 2478 
Q 3138 2634 2908 2709 
Q 2678 2784 2431 2784 
Q 1963 2784 1702 2511 
Q 1441 2238 1441 1747 
Q 1441 1256 1702 982 
Q 1963 709 2431 709 
Q 2694 709 2930 787 
Q 3166 866 3366 1019 
L 3366 103 
Q 3103 6 2833 -42 
Q 2563 -91 2291 -91 
Q 1344 -91 809 395 
Q 275 881 275 1747 
Q 275 2613 809 3098 
Q 1344 3584 2291 3584 
Q 2566 3584 2833 3536 
Q 3100 3488 3366 3391 
z
" transform="scale(0.015625)"/>
     </defs>
     <use xlink:href="#DejaVuSans-Bold-41"/>
     <use xlink:href="#DejaVuSans-Bold-65" transform="translate(77.392578 0)"/>
     <use xlink:href="#DejaVuSans-Bold-72" transform="translate(145.214844 0)"/>
     <use xlink:href="#DejaVuSans-Bold-6f" transform="translate(194.53125 0)"/>
     <use xlink:href="#DejaVuSans-Bold-73" transform="translate(263.232422 0)"/>
     <use xlink:href="#DejaVuSans-Bold-70" transform="translate(322.753906 0)"/>
     <use xlink:href="#DejaVuSans-Bold-61" transform="translate(394.335938 0)"/>
     <use xlink:href="#DejaVuSans-Bold-63" transform="translate(461.816406 0)"/>
     <use xlink:href="#DejaVuSans-Bold-65" transform="translate(521.09375 0)"/>
    </g>
   </g>
   <g id="patch_8">
    <path d="M 966.07125 328.752 
L 1384.57125 328.752 
Q 1388.75625 328.752 1388.75625 325.98 
L 1388.75625 242.82 
Q 1388.75625 240.048 1384.57125 240.048 
L 966.07125 240.048 
Q 961.88625 240.048 961.88625 242.82 
L 961.88625 325.98 
Q 961.88625 328.752 966.07125 328.752 
z
" clip-path="url(#p5a98e1b47d)" style="fill: #f39c12; stroke: #ffffff; stroke-width: 3; stroke-linejoin: miter"/>
   </g>
   <g id="text_2">
    <!-- 5/10 -->
    <g style="fill: #f39c12" transform="translate(1886.77125 298.196875) scale(0.5 -0.5)">
     <defs>
      <path id="DejaVuSans-Bold-35" d="M 678 4666 
L 3669 4666 
L 3669 3781 
L 1638 3781 
L 1638 3059 
Q 1775 3097 1914 3117 
Q 2053 3138 2203 3138 
Q 3056 3138 3531 2711 
Q 4006 2284 4006 1522 
Q 4006 766 3489 337 
Q 2972 -91 2053 -91 
Q 1656 -91 1267 -14 
Q 878 63 494 219 
L 494 1166 
Q 875 947 1217 837 
Q 1559 728 1863 728 
Q 2300 728 2551 942 
Q 2803 1156 2803 1522 
Q 2803 1891 2551 2103 
Q 2300 2316 1863 2316 
Q 1603 2316 1309 2248 
Q 1016 2181 678 2041 
L 678 4666 
z
" transform="scale(0.015625)"/>
      <path id="DejaVuSans-Bold-2f" d="M 1644 4666 
L 2338 4666 
L 691 -594 
L 0 -594 
L 1644 4666 
z
" transform="scale(0.015625)"/>
      <path id="DejaVuSans-Bold-31" d="M 750 831 
L 1813 831 
L 1813 3847 
L 722 3622 
L 722 4441 
L 1806 4666 
L 2950 4666 
L 2950 831 
L 4013 831 
L 4013 0 
L 750 0 
L 750 831 
z
" transform="scale(0.015625)"/>
      <path id="DejaVuSans-Bold-30" d="M 2944 2338 
Q 2944 3213 2780 3570 
Q 2616 3928 2228 3928 
Q 1841 3928 1675 3570 
Q 1509 3213 1509 2338 
Q 1509 1453 1675 1090 
Q 1841 728 2228 728 
Q 2613 728 2778 1090 
Q 2944 1453 2944 2338 
z
M 4147 2328 
Q 4147 1169 3647 539 
Q 3147 -91 2228 -91 
Q 1306 -91 806 539 
Q 306 1169 306 2328 
Q 306 3491 806 4120 
Q 1306 4750 2228 4750 
Q 3147 4750 3647 4120 
Q 4147 3491 4147 2328 
z
" transform="scale(0.015625)"/>
     </defs>
     <use xlink:href="#DejaVuSans-Bold-35"/>
     <use xlink:href="#DejaVuSans-Bold-2f" transform="translate(69.580078 0)"/>
     <use xlink:href="#DejaVuSans-Bold-31" transform="translate(106.103516 0)"/>
     <use xlink:href="#DejaVuSans-Bold-30" transform="translate(175.683594 0)"/>
    </g>
   </g>
   <g id="text_3">
    <!-- Advanced Materials -->
    <g style="fill: #2c3e50" transform="translate(129.07125 420.71675) scale(0.52 -0.52)">
     <defs>
      <path id="DejaVuSans-Bold-64" d="M 2919 2988 
L 2919 4863 
L 4044 4863 
L 4044 0 
L 2919 0 
L 2919 506 
Q 2688 197 2409 53 
Q 2131 -91 1766 -91 
Q 1119 -91 703 423 
Q 288 938 288 1747 
Q 288 2556 703 3070 
Q 1119 3584 1766 3584 
Q 2128 3584 2408 3439 
Q 2688 3294 2919 2988 
z
M 2181 722 
Q 2541 722 2730 984 
Q 2919 1247 2919 1747 
Q 2919 2247 2730 2509 
Q 2541 2772 2181 2772 
Q 1825 2772 1636 2509 
Q 1447 2247 1447 1747 
Q 1447 1247 1636 984 
Q 1825 722 2181 722 
z
" transform="scale(0.015625)"/>
      <path id="DejaVuSans-Bold-76" d="M 97 3500 
L 1216 3500 
L 2088 1081 
L 2956 3500 
L 4078 3500 
L 2700 0 
L 1472 0 
L 97 3500 
z
" transform="scale(0.015625)"/>
      <path id="DejaVuSans-Bold-6e" d="M 4056 2131 
L 4056 0 
L 2931 0 
L 2931 347 
L 2931 1631 
Q 2931 2084 2911 2256 
Q 2891 2428 2841 2509 
Q 2775 2619 2662 2680 
Q 2550 2741 2406 2741 
Q 2056 2741 1856 2470 
Q 1656 2200 1656 1722 
L 1656 0 
L 538 0 
L 538 3500 
L 1656 3500 
L 1656 2988 
Q 1909 3294 2193 3439 
Q 2478 3584 2822 3584 
Q 3428 3584 3742 3212 
Q 4056 2841 4056 2131 
z
" transform="scale(0.015625)"/>
      <path id="DejaVuSans-Bold-20" transform="scale(0.015625)"/>
      <path id="DejaVuSans-Bold-4d" d="M 588 4666 
L 2119 4666 
L 3181 2169 
L 4250 4666 
L 5778 4666 
L 5778 0 
L 4641 0 
L 4641 3413 
L 3566 897 
L 2803 897 
L 1728 3413 
L 1728 0 
L 588 0 
L 588 4666 
z
" transform="scale(0.015625)"/>
      <path id="DejaVuSans-Bold-74" d="M 1759 4494 
L 1759 3500 
L 2913 3500 
L 2913 2700 
L 1759 2700 
L 1759 1216 
Q 1759 972 1856 886 
Q 1953 800 2241 800 
L 2816 800 
L 2816 0 
L 1856 0 
Q 1194 0 917 276 
Q 641 553 641 1216 
L 641 2700 
L 84 2700 
L 84 3500 
L 641 3500 
L 641 4494 
L 1759 4494 
z
" transform="scale(0.015625)"/>
      <path id="DejaVuSans-Bold-69" d="M 538 3500 
L 1656 3500 
L 1656 0 
L 538 0 
L 538 3500 
z
M 538 4863 
L 1656 4863 
L 1656 3950 
L 538 3950 
L 538 4863 
z
" transform="scale(0.015625)"/>
      <path id="DejaVuSans-Bold-6c" d="M 538 4863 
L 1656 4863 
L 1656 0 
L 538 0 
L 538 4863 
z
" transform="scale(0.015625)"/>
     </defs>
     <use xlink:href="#DejaVuSans-Bold-41"/>
     <use xlink:href="#DejaVuSans-Bold-64" transform="translate(77.392578 0)"/>
     <use xlink:href="#DejaVuSans-Bold-76" transform="translate(148.974609 0)"/>
     <use xlink:href="#DejaVuSans-Bold-61" transform="translate(214.160156 0)"/>
     <use xlink:href="#DejaVuSans-Bold-6e" transform="translate(281.640625 0)"/>
     <use xlink:href="#DejaVuSans-Bold-63" transform="translate(352.832031 0)"/>
     <use xlink:href="#DejaVuSans-Bold-65" transform="translate(412.109375 0)"/>
     <use xlink:href="#DejaVuSans-Bold-64" transform="translate(479.931641 0)"/>
     <use xlink:href="#DejaVuSans-Bold-20" transform="translate(551.513672 0)"/>
     <use xlink:href="#DejaVuSans-Bold-4d" transform="translate(586.328125 0)"/>
     <use xlink:href="#DejaVuSans-Bold-61" transform="translate(685.839844 0)"/>
     <use xlink:href="#DejaVuSans-Bold-74" transform="translate(753.320312 0)"/>
     <use xlink:href="#DejaVuSans-Bold-65" transform="translate(801.123047 0)"/>
     <use xlink:href="#DejaVuSans-Bold-72" transform="translate(868.945312 0)"/>
     <use xlink:href="#DejaVuSans-Bold-69" transform="translate(918.261719 0)"/>
     <use xlink:href="#DejaVuSans-Bold-61" transform="translate(952.539062 0)"/>
     <use xlink:href="#DejaVuSans-Bold-6c" transform="translate(1020.019531 0)"/>
     <use xlink:href="#DejaVuSans-Bold-73" transform="translate(1054.296875 0)"/>
    </g>
   </g>
   <g id="patch_9">
    <path d="M 966.07125 450.72 
L 1551.97125 450.72 
Q 1556.15625 450.72 1556.15625 447.948 
L 1556.15625 364.788 
Q 1556.15625 362.016 1551.97125 362.016 
L 966.07125 362.016 
Q 961.88625 362.016 961.88625 364.788 
L 961.88625 447.948 
Q 961.88625 450.72 966.07125 450.72 
z
" clip-path="url(#p5a98e1b47d)" style="fill: #27ae60; stroke: #ffffff; stroke-width: 3; stroke-linejoin: miter"/>
   </g>
   <g id="text_4">
    <!-- 7/10 -->
    <g style="fill: #27ae60" transform="translate(1886.77125 420.164875) scale(0.5 -0.5)">
     <defs>
      <path id="DejaVuSans-Bold-37" d="M 428 4666 
L 3944 4666 
L 3944 3988 
L 2125 0 
L 953 0 
L 2675 3781 
L 428 3781 
L 428 4666 
z
" transform="scale(0.015625)"/>
     </defs>
     <use xlink:href="#DejaVuSans-Bold-37"/>
     <use xlink:href="#DejaVuSans-Bold-2f" transform="translate(69.580078 0)"/>
     <use xlink:href="#DejaVuSans-Bold-31" transform="translate(106.103516 0)"/>
     <use xlink:href="#DejaVuSans-Bold-30" transform="translate(175.683594 0)"/>
    </g>
   </g>
   <g id="text_5">
    <!-- Biotechnology -->
    <g style="fill: #2c3e50" transform="translate(129.07125 542.481625) scale(0.52 -0.52)">
     <defs>
      <path id="DejaVuSans-Bold-42" d="M 2456 2859 
Q 2741 2859 2887 2984 
Q 3034 3109 3034 3353 
Q 3034 3594 2887 3720 
Q 2741 3847 2456 3847 
L 1791 3847 
L 1791 2859 
L 2456 2859 
z
M 2497 819 
Q 2859 819 3042 972 
Q 3225 1125 3225 1434 
Q 3225 1738 3044 1889 
Q 2863 2041 2497 2041 
L 1791 2041 
L 1791 819 
L 2497 819 
z
M 3616 2497 
Q 4003 2384 4215 2081 
Q 4428 1778 4428 1338 
Q 4428 663 3972 331 
Q 3516 0 2584 0 
L 588 0 
L 588 4666 
L 2394 4666 
Q 3366 4666 3802 4372 
Q 4238 4078 4238 3431 
Q 4238 3091 4078 2852 
Q 3919 2613 3616 2497 
z
" transform="scale(0.015625)"/>
      <path id="DejaVuSans-Bold-68" d="M 4056 2131 
L 4056 0 
L 2931 0 
L 2931 347 
L 2931 1625 
Q 2931 2084 2911 2256 
Q 2891 2428 2841 2509 
Q 2775 2619 2662 2680 
Q 2550 2741 2406 2741 
Q 2056 2741 1856 2470 
Q 1656 2200 1656 1722 
L 1656 0 
L 538 0 
L 538 4863 
L 1656 4863 
L 1656 2988 
Q 1909 3294 2193 3439 
Q 2478 3584 2822 3584 
Q 3428 3584 3742 3212 
Q 4056 2841 4056 2131 
z
" transform="scale(0.015625)"/>
      <path id="DejaVuSans-Bold-67" d="M 2919 594 
Q 2688 288 2409 144 
Q 2131 0 1766 0 
Q 1125 0 706 504 
Q 288 1009 288 1791 
Q 288 2575 706 3076 
Q 1125 3578 1766 3578 
Q 2131 3578 2409 3434 
Q 2688 3291 2919 2981 
L 2919 3500 
L 4044 3500 
L 4044 353 
Q 4044 -491 3511 -936 
Q 2978 -1381 1966 -1381 
Q 1638 -1381 1331 -1331 
Q 1025 -1281 716 -1178 
L 716 -306 
Q 1009 -475 1290 -558 
Q 1572 -641 1856 -641 
Q 2406 -641 2662 -400 
Q 2919 -159 2919 353 
L 2919 594 
z
M 2181 2772 
Q 1834 2772 1640 2515 
Q 1447 2259 1447 1791 
Q 1447 1309 1634 1061 
Q 1822 813 2181 813 
Q 2531 813 2725 1069 
Q 2919 1325 2919 1791 
Q 2919 2259 2725 2515 
Q 2531 2772 2181 2772 
z
" transform="scale(0.015625)"/>
      <path id="DejaVuSans-Bold-79" d="M 78 3500 
L 1197 3500 
L 2138 1125 
L 2938 3500 
L 4056 3500 
L 2584 -331 
Q 2363 -916 2067 -1148 
Q 1772 -1381 1288 -1381 
L 641 -1381 
L 641 -647 
L 991 -647 
Q 1275 -647 1404 -556 
Q 1534 -466 1606 -231 
L 1638 -134 
L 78 3500 
z
" transform="scale(0.015625)"/>
     </defs>
     <use xlink:href="#DejaVuSans-Bold-42"/>
     <use xlink:href="#DejaVuSans-Bold-69" transform="translate(76.220703 0)"/>
     <use xlink:href="#DejaVuSans-Bold-6f" transform="translate(110.498047 0)"/>
     <use xlink:href="#DejaVuSans-Bold-74" transform="translate(179.199219 0)"/>
     <use xlink:href="#DejaVuSans-Bold-65" transform="translate(227.001953 0)"/>
     <use xlink:href="#DejaVuSans-Bold-63" transform="translate(294.824219 0)"/>
     <use xlink:href="#DejaVuSans-Bold-68" transform="translate(354.101562 0)"/>
     <use xlink:href="#DejaVuSans-Bold-6e" transform="translate(425.292969 0)"/>
     <use xlink:href="#DejaVuSans-Bold-6f" transform="translate(496.484375 0)"/>
     <use xlink:href="#DejaVuSans-Bold-6c" transform="translate(565.185547 0)"/>
     <use xlink:href="#DejaVuSans-Bold-6f" transform="translate(599.462891 0)"/>
     <use xlink:href="#DejaVuSans-Bold-67" transform="translate(668.164062 0)"/>
     <use xlink:href="#DejaVuSans-Bold-79" transform="translate(739.746094 0)"/>
    </g>
   </g>
   <g id="patch_10">
    <path d="M 966.07125 572.688 
L 1468.27125 572.688 
Q 1472.45625 572.688 1472.45625 569.916 
L 1472.45625 486.756 
Q 1472.45625 483.984 1468.27125 483.984 
L 966.07125 483.984 
Q 961.88625 483.984 961.88625 486.756 
L 961.88625 569.916 
Q 961.88625 572.688 966.07125 572.688 
z
" clip-path="url(#p5a98e1b47d)" style="fill: #f39c12; stroke: #ffffff; stroke-width: 3; stroke-linejoin: miter"/>
   </g>
   <g id="text_6">
    <!-- 6/10 -->
    <g style="fill: #f39c12" transform="translate(1886.77125 542.132875) scale(0.5 -0.5)">
     <defs>
      <path id="DejaVuSans-Bold-36" d="M 2316 2303 
Q 2000 2303 1842 2098 
Q 1684 1894 1684 1484 
Q 1684 1075 1842 870 
Q 2000 666 2316 666 
Q 2634 666 2792 870 
Q 2950 1075 2950 1484 
Q 2950 1894 2792 2098 
Q 2634 2303 2316 2303 
z
M 3803 4544 
L 3803 3681 
Q 3506 3822 3243 3889 
Q 2981 3956 2731 3956 
Q 2194 3956 1894 3657 
Q 1594 3359 1544 2772 
Q 1750 2925 1990 3001 
Q 2231 3078 2516 3078 
Q 3231 3078 3670 2659 
Q 4109 2241 4109 1563 
Q 4109 813 3618 361 
Q 3128 -91 2303 -91 
Q 1394 -91 895 523 
Q 397 1138 397 2266 
Q 397 3422 980 4083 
Q 1563 4744 2578 4744 
Q 2900 4744 3203 4694 
Q 3506 4644 3803 4544 
z
" transform="scale(0.015625)"/>
     </defs>
     <use xlink:href="#DejaVuSans-Bold-36"/>
     <use xlink:href="#DejaVuSans-Bold-2f" transform="translate(69.580078 0)"/>
     <use xlink:href="#DejaVuSans-Bold-31" transform="translate(106.103516 0)"/>
     <use xlink:href="#DejaVuSans-Bold-30" transform="translate(175.683594 0)"/>
    </g>
   </g>
   <g id="text_7">
    <!-- Semiconductors -->
    <g style="fill: #2c3e50" transform="translate(129.07125 664.65275) scale(0.52 -0.52)">
     <defs>
      <path id="DejaVuSans-Bold-53" d="M 3834 4519 
L 3834 3531 
Q 3450 3703 3084 3790 
Q 2719 3878 2394 3878 
Q 1963 3878 1756 3759 
Q 1550 3641 1550 3391 
Q 1550 3203 1689 3098 
Q 1828 2994 2194 2919 
L 2706 2816 
Q 3484 2659 3812 2340 
Q 4141 2022 4141 1434 
Q 4141 663 3683 286 
Q 3225 -91 2284 -91 
Q 1841 -91 1394 -6 
Q 947 78 500 244 
L 500 1259 
Q 947 1022 1364 901 
Q 1781 781 2169 781 
Q 2563 781 2772 912 
Q 2981 1044 2981 1288 
Q 2981 1506 2839 1625 
Q 2697 1744 2272 1838 
L 1806 1941 
Q 1106 2091 782 2419 
Q 459 2747 459 3303 
Q 459 4000 909 4375 
Q 1359 4750 2203 4750 
Q 2588 4750 2994 4692 
Q 3400 4634 3834 4519 
z
" transform="scale(0.015625)"/>
      <path id="DejaVuSans-Bold-6d" d="M 3781 2919 
Q 3994 3244 4286 3414 
Q 4578 3584 4928 3584 
Q 5531 3584 5847 3212 
Q 6163 2841 6163 2131 
L 6163 0 
L 5038 0 
L 5038 1825 
Q 5041 1866 5042 1909 
Q 5044 1953 5044 2034 
Q 5044 2406 4934 2573 
Q 4825 2741 4581 2741 
Q 4263 2741 4089 2478 
Q 3916 2216 3909 1719 
L 3909 0 
L 2784 0 
L 2784 1825 
Q 2784 2406 2684 2573 
Q 2584 2741 2328 2741 
Q 2006 2741 1831 2477 
Q 1656 2213 1656 1722 
L 1656 0 
L 531 0 
L 531 3500 
L 1656 3500 
L 1656 2988 
Q 1863 3284 2130 3434 
Q 2397 3584 2719 3584 
Q 3081 3584 3359 3409 
Q 3638 3234 3781 2919 
z
" transform="scale(0.015625)"/>
      <path id="DejaVuSans-Bold-75" d="M 500 1363 
L 500 3500 
L 1625 3500 
L 1625 3150 
Q 1625 2866 1622 2436 
Q 1619 2006 1619 1863 
Q 1619 1441 1641 1255 
Q 1663 1069 1716 984 
Q 1784 875 1895 815 
Q 2006 756 2150 756 
Q 2500 756 2700 1025 
Q 2900 1294 2900 1772 
L 2900 3500 
L 4019 3500 
L 4019 0 
L 2900 0 
L 2900 506 
Q 2647 200 2364 54 
Q 2081 -91 1741 -91 
Q 1134 -91 817 281 
Q 500 653 500 1363 
z
" transform="scale(0.015625)"/>
     </defs>
     <use xlink:href="#DejaVuSans-Bold-53"/>
     <use xlink:href="#DejaVuSans-Bold-65" transform="translate(72.021484 0)"/>
     <use xlink:href="#DejaVuSans-Bold-6d" transform="translate(139.84375 0)"/>
     <use xlink:href="#DejaVuSans-Bold-69" transform="translate(244.042969 0)"/>
     <use xlink:href="#DejaVuSans-Bold-63" transform="translate(278.320312 0)"/>
     <use xlink:href="#DejaVuSans-Bold-6f" transform="translate(337.597656 0)"/>
     <use xlink:href="#DejaVuSans-Bold-6e" transform="translate(406.298828 0)"/>
     <use xlink:href="#DejaVuSans-Bold-64" transform="translate(477.490234 0)"/>
     <use xlink:href="#DejaVuSans-Bold-75" transform="translate(549.072266 0)"/>
     <use xlink:href="#DejaVuSans-Bold-63" transform="translate(620.263672 0)"/>
     <use xlink:href="#DejaVuSans-Bold-74" transform="translate(679.541016 0)"/>
     <use xlink:href="#DejaVuSans-Bold-6f" transform="translate(727.34375 0)"/>
     <use xlink:href="#DejaVuSans-Bold-72" transform="translate(796.044922 0)"/>
     <use xlink:href="#DejaVuSans-Bold-73" transform="translate(845.361328 0)"/>
    </g>
   </g>
   <g id="patch_11">
    <path d="M 966.07125 694.656 
L 1217.17125 694.656 
Q 1221.35625 694.656 1221.35625 691.884 
L 1221.35625 608.724 
Q 1221.35625 605.952 1217.17125 605.952 
L 966.07125 605.952 
Q 961.88625 605.952 961.88625 608.724 
L 961.88625 691.884 
Q 961.88625 694.656 966.07125 694.656 
z
" clip-path="url(#p5a98e1b47d)" style="fill: #e74c3c; stroke: #ffffff; stroke-width: 3; stroke-linejoin: miter"/>
   </g>
   <g id="text_8">
    <!-- 3/10 -->
    <g style="fill: #e74c3c" transform="translate(1886.77125 664.100875) scale(0.5 -0.5)">
     <defs>
      <path id="DejaVuSans-Bold-33" d="M 2981 2516 
Q 3453 2394 3698 2092 
Q 3944 1791 3944 1325 
Q 3944 631 3412 270 
Q 2881 -91 1863 -91 
Q 1503 -91 1142 -33 
Q 781 25 428 141 
L 428 1069 
Q 766 900 1098 814 
Q 1431 728 1753 728 
Q 2231 728 2486 893 
Q 2741 1059 2741 1369 
Q 2741 1688 2480 1852 
Q 2219 2016 1709 2016 
L 1228 2016 
L 1228 2791 
L 1734 2791 
Q 2188 2791 2409 2933 
Q 2631 3075 2631 3366 
Q 2631 3634 2415 3781 
Q 2200 3928 1806 3928 
Q 1516 3928 1219 3862 
Q 922 3797 628 3669 
L 628 4550 
Q 984 4650 1334 4700 
Q 1684 4750 2022 4750 
Q 2931 4750 3382 4451 
Q 3834 4153 3834 3553 
Q 3834 3144 3618 2883 
Q 3403 2622 2981 2516 
z
" transform="scale(0.015625)"/>
     </defs>
     <use xlink:href="#DejaVuSans-Bold-33"/>
     <use xlink:href="#DejaVuSans-Bold-2f" transform="translate(69.580078 0)"/>
     <use xlink:href="#DejaVuSans-Bold-31" transform="translate(106.103516 0)"/>
     <use xlink:href="#DejaVuSans-Bold-30" transform="translate(175.683594 0)"/>
    </g>
   </g>
   <g id="text_9">
    <!-- Quantum Technology -->
    <g style="fill: #2c3e50" transform="translate(129.07125 786.417625) scale(0.52 -0.52)">
     <defs>
      <path id="DejaVuSans-Bold-51" d="M 2847 -84 
L 2753 -84 
Q 1600 -84 959 553 
Q 319 1191 319 2328 
Q 319 3463 958 4106 
Q 1597 4750 2719 4750 
Q 3853 4750 4486 4112 
Q 5119 3475 5119 2328 
Q 5119 1541 4783 972 
Q 4447 403 3816 116 
L 4756 -934 
L 3609 -934 
L 2847 -84 
z
M 2719 3878 
Q 2169 3878 1866 3472 
Q 1563 3066 1563 2328 
Q 1563 1578 1859 1179 
Q 2156 781 2719 781 
Q 3272 781 3575 1187 
Q 3878 1594 3878 2328 
Q 3878 3066 3575 3472 
Q 3272 3878 2719 3878 
z
" transform="scale(0.015625)"/>
      <path id="DejaVuSans-Bold-54" d="M 31 4666 
L 4331 4666 
L 4331 3756 
L 2784 3756 
L 2784 0 
L 1581 0 
L 1581 3756 
L 31 3756 
L 31 4666 
z
" transform="scale(0.015625)"/>
     </defs>
     <use xlink:href="#DejaVuSans-Bold-51"/>
     <use xlink:href="#DejaVuSans-Bold-75" transform="translate(85.009766 0)"/>
     <use xlink:href="#DejaVuSans-Bold-61" transform="translate(156.201172 0)"/>
     <use xlink:href="#DejaVuSans-Bold-6e" transform="translate(223.681641 0)"/>
     <use xlink:href="#DejaVuSans-Bold-74" transform="translate(294.873047 0)"/>
     <use xlink:href="#DejaVuSans-Bold-75" transform="translate(342.675781 0)"/>
     <use xlink:href="#DejaVuSans-Bold-6d" transform="translate(413.867188 0)"/>
     <use xlink:href="#DejaVuSans-Bold-20" transform="translate(518.066406 0)"/>
     <use xlink:href="#DejaVuSans-Bold-54" transform="translate(552.880859 0)"/>
     <use xlink:href="#DejaVuSans-Bold-65" transform="translate(607.84375 0)"/>
     <use xlink:href="#DejaVuSans-Bold-63" transform="translate(675.666016 0)"/>
     <use xlink:href="#DejaVuSans-Bold-68" transform="translate(734.943359 0)"/>
     <use xlink:href="#DejaVuSans-Bold-6e" transform="translate(806.134766 0)"/>
     <use xlink:href="#DejaVuSans-Bold-6f" transform="translate(877.326172 0)"/>
     <use xlink:href="#DejaVuSans-Bold-6c" transform="translate(946.027344 0)"/>
     <use xlink:href="#DejaVuSans-Bold-6f" transform="translate(980.304688 0)"/>
     <use xlink:href="#DejaVuSans-Bold-67" transform="translate(1049.005859 0)"/>
     <use xlink:href="#DejaVuSans-Bold-79" transform="translate(1120.587891 0)"/>
    </g>
   </g>
   <g id="patch_12">
    <path d="M 966.07125 816.624 
L 1635.67125 816.624 
Q 1639.85625 816.624 1639.85625 813.852 
L 1639.85625 730.692 
Q 1639.85625 727.92 1635.67125 727.92 
L 966.07125 727.92 
Q 961.88625 727.92 961.88625 730.692 
L 961.88625 813.852 
Q 961.88625 816.624 966.07125 816.624 
z
" clip-path="url(#p5a98e1b47d)" style="fill: #27ae60; stroke: #ffffff; stroke-width: 3; stroke-linejoin: miter"/>
   </g>
   <g id="text_10">
    <!-- 8/10 -->
    <g style="fill: #27ae60" transform="translate(1886.77125 786.068875) scale(0.5 -0.5)">
     <defs>
      <path id="DejaVuSans-Bold-38" d="M 2228 2088 
Q 1891 2088 1709 1903 
Q 1528 1719 1528 1375 
Q 1528 1031 1709 848 
Q 1891 666 2228 666 
Q 2563 666 2741 848 
Q 2919 1031 2919 1375 
Q 2919 1722 2741 1905 
Q 2563 2088 2228 2088 
z
M 1350 2484 
Q 925 2613 709 2878 
Q 494 3144 494 3541 
Q 494 4131 934 4440 
Q 1375 4750 2228 4750 
Q 3075 4750 3515 4442 
Q 3956 4134 3956 3541 
Q 3956 3144 3739 2878 
Q 3522 2613 3097 2484 
Q 3572 2353 3814 2058 
Q 4056 1763 4056 1313 
Q 4056 619 3595 264 
Q 3134 -91 2228 -91 
Q 1319 -91 855 264 
Q 391 619 391 1313 
Q 391 1763 633 2058 
Q 875 2353 1350 2484 
z
M 1631 3419 
Q 1631 3141 1786 2991 
Q 1941 2841 2228 2841 
Q 2509 2841 2662 2991 
Q 2816 3141 2816 3419 
Q 2816 3697 2662 3845 
Q 2509 3994 2228 3994 
Q 1941 3994 1786 3844 
Q 1631 3694 1631 3419 
z
" transform="scale(0.015625)"/>
     </defs>
     <use xlink:href="#DejaVuSans-Bold-38"/>
     <use xlink:href="#DejaVuSans-Bold-2f" transform="translate(69.580078 0)"/>
     <use xlink:href="#DejaVuSans-Bold-31" transform="translate(106.103516 0)"/>
     <use xlink:href="#DejaVuSans-Bold-30" transform="translate(175.683594 0)"/>
    </g>
   </g>
   <g id="text_11">
    <!-- AI &amp; Machine Learning -->
    <g style="fill: #2c3e50" transform="translate(129.07125 908.385625) scale(0.52 -0.52)">
     <defs>
      <path id="DejaVuSans-Bold-49" d="M 588 4666 
L 1791 4666 
L 1791 0 
L 588 0 
L 588 4666 
z
" transform="scale(0.015625)"/>
      <path id="DejaVuSans-Bold-26" d="M 2497 3097 
L 3775 1691 
Q 3941 1909 4027 2181 
Q 4113 2453 4128 2797 
L 5100 2797 
Q 5053 2228 4879 1784 
Q 4706 1341 4397 1006 
L 5313 0 
L 3988 0 
L 3681 341 
Q 3353 122 2990 15 
Q 2628 -91 2222 -91 
Q 1400 -91 892 342 
Q 384 775 384 1459 
Q 384 1916 607 2267 
Q 831 2619 1338 2950 
Q 1206 3116 1143 3281 
Q 1081 3447 1081 3628 
Q 1081 4138 1478 4444 
Q 1875 4750 2534 4750 
Q 2819 4750 3126 4704 
Q 3434 4659 3769 4569 
L 3769 3700 
Q 3475 3850 3212 3922 
Q 2950 3994 2700 3994 
Q 2459 3994 2326 3901 
Q 2194 3809 2194 3641 
Q 2194 3534 2270 3398 
Q 2347 3263 2497 3097 
z
M 1875 2322 
Q 1672 2175 1569 1989 
Q 1466 1803 1466 1581 
Q 1466 1222 1731 969 
Q 1997 716 2369 716 
Q 2578 716 2759 780 
Q 2941 844 3097 972 
L 1875 2322 
z
" transform="scale(0.015625)"/>
      <path id="DejaVuSans-Bold-4c" d="M 588 4666 
L 1791 4666 
L 1791 909 
L 3903 909 
L 3903 0 
L 588 0 
L 588 4666 
z
" transform="scale(0.015625)"/>
     </defs>
     <use xlink:href="#DejaVuSans-Bold-41"/>
     <use xlink:href="#DejaVuSans-Bold-49" transform="translate(77.392578 0)"/>
     <use xlink:href="#DejaVuSans-Bold-20" transform="translate(114.599609 0)"/>
     <use xlink:href="#DejaVuSans-Bold-26" transform="translate(149.414062 0)"/>
     <use xlink:href="#DejaVuSans-Bold-20" transform="translate(236.621094 0)"/>
     <use xlink:href="#DejaVuSans-Bold-4d" transform="translate(271.435547 0)"/>
     <use xlink:href="#DejaVuSans-Bold-61" transform="translate(370.947266 0)"/>
     <use xlink:href="#DejaVuSans-Bold-63" transform="translate(438.427734 0)"/>
     <use xlink:href="#DejaVuSans-Bold-68" transform="translate(497.705078 0)"/>
     <use xlink:href="#DejaVuSans-Bold-69" transform="translate(568.896484 0)"/>
     <use xlink:href="#DejaVuSans-Bold-6e" transform="translate(603.173828 0)"/>
     <use xlink:href="#DejaVuSans-Bold-65" transform="translate(674.365234 0)"/>
     <use xlink:href="#DejaVuSans-Bold-20" transform="translate(742.1875 0)"/>
     <use xlink:href="#DejaVuSans-Bold-4c" transform="translate(777.001953 0)"/>
     <use xlink:href="#DejaVuSans-Bold-65" transform="translate(840.722656 0)"/>
     <use xlink:href="#DejaVuSans-Bold-61" transform="translate(908.544922 0)"/>
     <use xlink:href="#DejaVuSans-Bold-72" transform="translate(976.025391 0)"/>
     <use xlink:href="#DejaVuSans-Bold-6e" transform="translate(1025.341797 0)"/>
     <use xlink:href="#DejaVuSans-Bold-69" transform="translate(1096.533203 0)"/>
     <use xlink:href="#DejaVuSans-Bold-6e" transform="translate(1130.810547 0)"/>
     <use xlink:href="#DejaVuSans-Bold-67" transform="translate(1202.001953 0)"/>
    </g>
   </g>
   <g id="patch_13">
    <path d="M 966.07125 938.592 
L 1551.97125 938.592 
Q 1556.15625 938.592 1556.15625 935.82 
L 1556.15625 852.66 
Q 1556.15625 849.888 1551.97125 849.888 
L 966.07125 849.888 
Q 961.88625 849.888 961.88625 852.66 
L 961.88625 935.82 
Q 961.88625 938.592 966.07125 938.592 
z
" clip-path="url(#p5a98e1b47d)" style="fill: #f39c12; stroke: #ffffff; stroke-width: 3; stroke-linejoin: miter"/>
   </g>
   <g id="text_12">
    <!-- 7/10 -->
    <g style="fill: #f39c12" transform="translate(1886.77125 908.036875) scale(0.5 -0.5)">
     <use xlink:href="#DejaVuSans-Bold-37"/>
     <use xlink:href="#DejaVuSans-Bold-2f" transform="translate(69.580078 0)"/>
     <use xlink:href="#DejaVuSans-Bold-31" transform="translate(106.103516 0)"/>
     <use xlink:href="#DejaVuSans-Bold-30" transform="translate(175.683594 0)"/>
    </g>
   </g>
   <g id="text_13">
    <!-- MCF Technology Capabilities -->
    <g style="fill: #2c3e50" transform="translate(503.210625 62.64) scale(0.68 -0.68)">
     <defs>
      <path id="DejaVuSans-Bold-43" d="M 4288 256 
Q 3956 84 3597 -3 
Q 3238 -91 2847 -91 
Q 1681 -91 1000 561 
Q 319 1213 319 2328 
Q 319 3447 1000 4098 
Q 1681 4750 2847 4750 
Q 3238 4750 3597 4662 
Q 3956 4575 4288 4403 
L 4288 3438 
Q 3953 3666 3628 3772 
Q 3303 3878 2944 3878 
Q 2300 3878 1931 3465 
Q 1563 3053 1563 2328 
Q 1563 1606 1931 1193 
Q 2300 781 2944 781 
Q 3303 781 3628 887 
Q 3953 994 4288 1222 
L 4288 256 
z
" transform="scale(0.015625)"/>
      <path id="DejaVuSans-Bold-46" d="M 588 4666 
L 3834 4666 
L 3834 3756 
L 1791 3756 
L 1791 2888 
L 3713 2888 
L 3713 1978 
L 1791 1978 
L 1791 0 
L 588 0 
L 588 4666 
z
" transform="scale(0.015625)"/>
      <path id="DejaVuSans-Bold-62" d="M 2400 722 
Q 2759 722 2948 984 
Q 3138 1247 3138 1747 
Q 3138 2247 2948 2509 
Q 2759 2772 2400 2772 
Q 2041 2772 1848 2508 
Q 1656 2244 1656 1747 
Q 1656 1250 1848 986 
Q 2041 722 2400 722 
z
M 1656 2988 
Q 1888 3294 2169 3439 
Q 2450 3584 2816 3584 
Q 3463 3584 3878 3070 
Q 4294 2556 4294 1747 
Q 4294 938 3878 423 
Q 3463 -91 2816 -91 
Q 2450 -91 2169 54 
Q 1888 200 1656 506 
L 1656 0 
L 538 0 
L 538 4863 
L 1656 4863 
L 1656 2988 
z
" transform="scale(0.015625)"/>
     </defs>
     <use xlink:href="#DejaVuSans-Bold-4d"/>
     <use xlink:href="#DejaVuSans-Bold-43" transform="translate(99.511719 0)"/>
     <use xlink:href="#DejaVuSans-Bold-46" transform="translate(172.900391 0)"/>
     <use xlink:href="#DejaVuSans-Bold-20" transform="translate(241.210938 0)"/>
     <use xlink:href="#DejaVuSans-Bold-54" transform="translate(276.025391 0)"/>
     <use xlink:href="#DejaVuSans-Bold-65" transform="translate(330.988281 0)"/>
     <use xlink:href="#DejaVuSans-Bold-63" transform="translate(398.810547 0)"/>
     <use xlink:href="#DejaVuSans-Bold-68" transform="translate(458.087891 0)"/>
     <use xlink:href="#DejaVuSans-Bold-6e" transform="translate(529.279297 0)"/>
     <use xlink:href="#DejaVuSans-Bold-6f" transform="translate(600.470703 0)"/>
     <use xlink:href="#DejaVuSans-Bold-6c" transform="translate(669.171875 0)"/>
     <use xlink:href="#DejaVuSans-Bold-6f" transform="translate(703.449219 0)"/>
     <use xlink:href="#DejaVuSans-Bold-67" transform="translate(772.150391 0)"/>
     <use xlink:href="#DejaVuSans-Bold-79" transform="translate(843.732422 0)"/>
     <use xlink:href="#DejaVuSans-Bold-20" transform="translate(908.917969 0)"/>
     <use xlink:href="#DejaVuSans-Bold-43" transform="translate(943.732422 0)"/>
     <use xlink:href="#DejaVuSans-Bold-61" transform="translate(1017.121094 0)"/>
     <use xlink:href="#DejaVuSans-Bold-70" transform="translate(1084.601562 0)"/>
     <use xlink:href="#DejaVuSans-Bold-61" transform="translate(1156.183594 0)"/>
     <use xlink:href="#DejaVuSans-Bold-62" transform="translate(1223.664062 0)"/>
     <use xlink:href="#DejaVuSans-Bold-69" transform="translate(1295.246094 0)"/>
     <use xlink:href="#DejaVuSans-Bold-6c" transform="translate(1329.523438 0)"/>
     <use xlink:href="#DejaVuSans-Bold-69" transform="translate(1363.800781 0)"/>
     <use xlink:href="#DejaVuSans-Bold-74" transform="translate(1398.078125 0)"/>
     <use xlink:href="#DejaVuSans-Bold-69" transform="translate(1445.880859 0)"/>
     <use xlink:href="#DejaVuSans-Bold-65" transform="translate(1480.158203 0)"/>
     <use xlink:href="#DejaVuSans-Bold-73" transform="translate(1547.980469 0)"/>
    </g>
   </g>
   <g id="text_14">
    <!-- Current assessment across priority domains -->
    <g style="fill: #7f8c8d" transform="translate(541.571875 145.8) scale(0.46 -0.46)">
     <defs>
      <path id="DejaVuSans-Oblique-43" d="M 4447 4306 
L 4319 3641 
Q 4019 3944 3683 4091 
Q 3347 4238 2956 4238 
Q 2422 4238 2017 3981 
Q 1613 3725 1319 3200 
Q 1131 2863 1032 2486 
Q 934 2109 934 1728 
Q 934 1091 1264 756 
Q 1594 422 2222 422 
Q 2656 422 3056 561 
Q 3456 700 3834 978 
L 3688 231 
Q 3316 72 2936 -9 
Q 2556 -91 2175 -91 
Q 1278 -91 773 396 
Q 269 884 269 1753 
Q 269 2309 461 2846 
Q 653 3384 1013 3828 
Q 1394 4300 1883 4525 
Q 2372 4750 3022 4750 
Q 3422 4750 3780 4639 
Q 4138 4528 4447 4306 
z
" transform="scale(0.015625)"/>
      <path id="DejaVuSans-Oblique-75" d="M 428 1388 
L 838 3500 
L 1416 3500 
L 1006 1409 
Q 975 1256 961 1147 
Q 947 1038 947 966 
Q 947 700 1109 554 
Q 1272 409 1569 409 
Q 2031 409 2368 721 
Q 2706 1034 2809 1563 
L 3194 3500 
L 3769 3500 
L 3091 0 
L 2516 0 
L 2631 550 
Q 2388 244 2052 76 
Q 1716 -91 1338 -91 
Q 878 -91 622 161 
Q 366 413 366 863 
Q 366 956 381 1097 
Q 397 1238 428 1388 
z
" transform="scale(0.015625)"/>
      <path id="DejaVuSans-Oblique-72" d="M 2853 2969 
Q 2766 3016 2653 3041 
Q 2541 3066 2413 3066 
Q 1953 3066 1609 2717 
Q 1266 2369 1153 1784 
L 800 0 
L 225 0 
L 909 3500 
L 1484 3500 
L 1375 2956 
Q 1603 3259 1920 3421 
Q 2238 3584 2597 3584 
Q 2691 3584 2781 3573 
Q 2872 3563 2963 3538 
L 2853 2969 
z
" transform="scale(0.015625)"/>
      <path id="DejaVuSans-Oblique-65" d="M 3078 2063 
Q 3088 2113 3092 2166 
Q 3097 2219 3097 2272 
Q 3097 2653 2873 2875 
Q 2650 3097 2266 3097 
Q 1838 3097 1509 2826 
Q 1181 2556 1013 2059 
L 3078 2063 
z
M 3578 1613 
L 903 1613 
Q 884 1494 878 1425 
Q 872 1356 872 1306 
Q 872 872 1139 634 
Q 1406 397 1894 397 
Q 2269 397 2603 481 
Q 2938 566 3225 728 
L 3116 159 
Q 2806 34 2476 -28 
Q 2147 -91 1806 -91 
Q 1078 -91 686 257 
Q 294 606 294 1247 
Q 294 1794 489 2264 
Q 684 2734 1063 3103 
Q 1306 3334 1642 3459 
Q 1978 3584 2356 3584 
Q 2950 3584 3301 3228 
Q 3653 2872 3653 2272 
Q 3653 2128 3634 1964 
Q 3616 1800 3578 1613 
z
" transform="scale(0.015625)"/>
      <path id="DejaVuSans-Oblique-6e" d="M 3566 2113 
L 3156 0 
L 2578 0 
L 2988 2091 
Q 3016 2238 3031 2350 
Q 3047 2463 3047 2528 
Q 3047 2791 2881 2937 
Q 2716 3084 2419 3084 
Q 1956 3084 1622 2776 
Q 1288 2469 1184 1941 
L 800 0 
L 225 0 
L 903 3500 
L 1478 3500 
L 1363 2950 
Q 1603 3253 1940 3418 
Q 2278 3584 2650 3584 
Q 3113 3584 3367 3334 
Q 3622 3084 3622 2631 
Q 3622 2519 3608 2391 
Q 3594 2263 3566 2113 
z
" transform="scale(0.015625)"/>
      <path id="DejaVuSans-Oblique-74" d="M 2706 3500 
L 2619 3053 
L 1472 3053 
L 1100 1153 
Q 1081 1047 1072 975 
Q 1063 903 1063 863 
Q 1063 663 1183 572 
Q 1303 481 1569 481 
L 2150 481 
L 2053 0 
L 1503 0 
Q 991 0 739 200 
Q 488 400 488 806 
Q 488 878 497 964 
Q 506 1050 525 1153 
L 897 3053 
L 409 3053 
L 500 3500 
L 978 3500 
L 1172 4494 
L 1747 4494 
L 1556 3500 
L 2706 3500 
z
" transform="scale(0.015625)"/>
      <path id="DejaVuSans-Oblique-20" transform="scale(0.015625)"/>
      <path id="DejaVuSans-Oblique-61" d="M 3438 1997 
L 3047 0 
L 2472 0 
L 2578 531 
Q 2325 219 2001 64 
Q 1678 -91 1281 -91 
Q 834 -91 548 182 
Q 263 456 263 884 
Q 263 1497 752 1853 
Q 1241 2209 2100 2209 
L 2900 2209 
L 2931 2363 
Q 2938 2388 2941 2417 
Q 2944 2447 2944 2509 
Q 2944 2788 2717 2942 
Q 2491 3097 2081 3097 
Q 1800 3097 1504 3025 
Q 1209 2953 897 2809 
L 997 3341 
Q 1322 3463 1633 3523 
Q 1944 3584 2234 3584 
Q 2853 3584 3176 3315 
Q 3500 3047 3500 2534 
Q 3500 2431 3484 2292 
Q 3469 2153 3438 1997 
z
M 2816 1759 
L 2241 1759 
Q 1534 1759 1195 1570 
Q 856 1381 856 984 
Q 856 709 1029 553 
Q 1203 397 1509 397 
Q 1978 397 2328 733 
Q 2678 1069 2791 1631 
L 2816 1759 
z
" transform="scale(0.015625)"/>
      <path id="DejaVuSans-Oblique-73" d="M 3200 3397 
L 3091 2853 
Q 2863 2978 2609 3040 
Q 2356 3103 2088 3103 
Q 1634 3103 1373 2948 
Q 1113 2794 1113 2528 
Q 1113 2219 1719 2053 
Q 1766 2041 1788 2034 
L 1972 1978 
Q 2547 1819 2739 1644 
Q 2931 1469 2931 1166 
Q 2931 609 2489 259 
Q 2047 -91 1331 -91 
Q 1053 -91 747 -37 
Q 441 16 72 128 
L 184 722 
Q 500 559 806 475 
Q 1113 391 1394 391 
Q 1816 391 2080 572 
Q 2344 753 2344 1031 
Q 2344 1331 1650 1516 
L 1591 1531 
L 1394 1581 
Q 956 1697 753 1886 
Q 550 2075 550 2369 
Q 550 2928 970 3256 
Q 1391 3584 2113 3584 
Q 2397 3584 2667 3537 
Q 2938 3491 3200 3397 
z
" transform="scale(0.015625)"/>
      <path id="DejaVuSans-Oblique-6d" d="M 5747 2113 
L 5338 0 
L 4763 0 
L 5166 2094 
Q 5191 2228 5203 2325 
Q 5216 2422 5216 2491 
Q 5216 2772 5059 2928 
Q 4903 3084 4622 3084 
Q 4203 3084 3875 2770 
Q 3547 2456 3450 1953 
L 3066 0 
L 2491 0 
L 2900 2094 
Q 2925 2209 2937 2307 
Q 2950 2406 2950 2484 
Q 2950 2769 2794 2926 
Q 2638 3084 2363 3084 
Q 1938 3084 1609 2770 
Q 1281 2456 1184 1953 
L 800 0 
L 225 0 
L 909 3500 
L 1484 3500 
L 1375 2956 
Q 1609 3263 1923 3423 
Q 2238 3584 2597 3584 
Q 2978 3584 3223 3384 
Q 3469 3184 3519 2828 
Q 3781 3197 4126 3390 
Q 4472 3584 4856 3584 
Q 5306 3584 5551 3325 
Q 5797 3066 5797 2591 
Q 5797 2488 5784 2364 
Q 5772 2241 5747 2113 
z
" transform="scale(0.015625)"/>
      <path id="DejaVuSans-Oblique-63" d="M 3431 3366 
L 3316 2797 
Q 3109 2947 2876 3022 
Q 2644 3097 2394 3097 
Q 2119 3097 1870 3000 
Q 1622 2903 1453 2725 
Q 1184 2453 1037 2087 
Q 891 1722 891 1331 
Q 891 859 1127 628 
Q 1363 397 1844 397 
Q 2081 397 2348 469 
Q 2616 541 2906 684 
L 2797 116 
Q 2547 13 2283 -39 
Q 2019 -91 1741 -91 
Q 1044 -91 669 257 
Q 294 606 294 1253 
Q 294 1797 489 2255 
Q 684 2713 1069 3078 
Q 1331 3328 1684 3456 
Q 2038 3584 2456 3584 
Q 2700 3584 2940 3529 
Q 3181 3475 3431 3366 
z
" transform="scale(0.015625)"/>
      <path id="DejaVuSans-Oblique-6f" d="M 1625 -91 
Q 1009 -91 651 289 
Q 294 669 294 1325 
Q 294 1706 417 2101 
Q 541 2497 738 2766 
Q 1047 3184 1428 3384 
Q 1809 3584 2291 3584 
Q 2888 3584 3255 3212 
Q 3622 2841 3622 2241 
Q 3622 1825 3500 1412 
Q 3378 1000 3181 728 
Q 2875 309 2494 109 
Q 2113 -91 1625 -91 
z
M 891 1344 
Q 891 869 1089 633 
Q 1288 397 1691 397 
Q 2269 397 2648 901 
Q 3028 1406 3028 2181 
Q 3028 2634 2825 2865 
Q 2622 3097 2228 3097 
Q 1903 3097 1650 2945 
Q 1397 2794 1197 2484 
Q 1050 2253 970 1956 
Q 891 1659 891 1344 
z
" transform="scale(0.015625)"/>
      <path id="DejaVuSans-Oblique-70" d="M 3175 2156 
Q 3175 2616 2975 2859 
Q 2775 3103 2400 3103 
Q 2144 3103 1911 2972 
Q 1678 2841 1497 2591 
Q 1319 2344 1212 1994 
Q 1106 1644 1106 1300 
Q 1106 863 1306 627 
Q 1506 391 1875 391 
Q 2147 391 2380 519 
Q 2613 647 2778 891 
Q 2956 1147 3065 1494 
Q 3175 1841 3175 2156 
z
M 1394 2969 
Q 1625 3272 1939 3428 
Q 2253 3584 2638 3584 
Q 3175 3584 3472 3232 
Q 3769 2881 3769 2247 
Q 3769 1728 3584 1258 
Q 3400 788 3053 416 
Q 2822 169 2531 39 
Q 2241 -91 1919 -91 
Q 1547 -91 1294 64 
Q 1041 219 916 525 
L 556 -1331 
L -19 -1331 
L 922 3500 
L 1497 3500 
L 1394 2969 
z
" transform="scale(0.015625)"/>
      <path id="DejaVuSans-Oblique-69" d="M 1172 4863 
L 1747 4863 
L 1606 4134 
L 1031 4134 
L 1172 4863 
z
M 909 3500 
L 1484 3500 
L 800 0 
L 225 0 
L 909 3500 
z
" transform="scale(0.015625)"/>
      <path id="DejaVuSans-Oblique-79" d="M 1588 -325 
Q 1188 -997 936 -1164 
Q 684 -1331 294 -1331 
L -159 -1331 
L -63 -850 
L 269 -850 
Q 509 -850 678 -719 
Q 847 -588 1056 -206 
L 1234 128 
L 459 3500 
L 1069 3500 
L 1650 819 
L 3256 3500 
L 3859 3500 
L 1588 -325 
z
" transform="scale(0.015625)"/>
      <path id="DejaVuSans-Oblique-64" d="M 2675 525 
Q 2444 222 2128 65 
Q 1813 -91 1428 -91 
Q 903 -91 598 267 
Q 294 625 294 1247 
Q 294 1766 478 2236 
Q 663 2706 1013 3078 
Q 1244 3325 1534 3454 
Q 1825 3584 2144 3584 
Q 2481 3584 2739 3421 
Q 2997 3259 3138 2956 
L 3513 4863 
L 4091 4863 
L 3144 0 
L 2566 0 
L 2675 525 
z
M 891 1350 
Q 891 897 1095 644 
Q 1300 391 1663 391 
Q 1931 391 2161 520 
Q 2391 650 2566 903 
Q 2750 1166 2856 1509 
Q 2963 1853 2963 2188 
Q 2963 2622 2758 2865 
Q 2553 3109 2194 3109 
Q 1922 3109 1687 2981 
Q 1453 2853 1288 2613 
Q 1106 2353 998 2009 
Q 891 1666 891 1350 
z
" transform="scale(0.015625)"/>
     </defs>
     <use xlink:href="#DejaVuSans-Oblique-43"/>
     <use xlink:href="#DejaVuSans-Oblique-75" transform="translate(69.824219 0)"/>
     <use xlink:href="#DejaVuSans-Oblique-72" transform="translate(133.203125 0)"/>
     <use xlink:href="#DejaVuSans-Oblique-72" transform="translate(174.316406 0)"/>
     <use xlink:href="#DejaVuSans-Oblique-65" transform="translate(215.429688 0)"/>
     <use xlink:href="#DejaVuSans-Oblique-6e" transform="translate(276.953125 0)"/>
     <use xlink:href="#DejaVuSans-Oblique-74" transform="translate(340.332031 0)"/>
     <use xlink:href="#DejaVuSans-Oblique-20" transform="translate(379.541016 0)"/>
     <use xlink:href="#DejaVuSans-Oblique-61" transform="translate(411.328125 0)"/>
     <use xlink:href="#DejaVuSans-Oblique-73" transform="translate(472.607422 0)"/>
     <use xlink:href="#DejaVuSans-Oblique-73" transform="translate(524.707031 0)"/>
     <use xlink:href="#DejaVuSans-Oblique-65" transform="translate(576.806641 0)"/>
     <use xlink:href="#DejaVuSans-Oblique-73" transform="translate(638.330078 0)"/>
     <use xlink:href="#DejaVuSans-Oblique-73" transform="translate(690.429688 0)"/>
     <use xlink:href="#DejaVuSans-Oblique-6d" transform="translate(742.529297 0)"/>
     <use xlink:href="#DejaVuSans-Oblique-65" transform="translate(839.941406 0)"/>
     <use xlink:href="#DejaVuSans-Oblique-6e" transform="translate(901.464844 0)"/>
     <use xlink:href="#DejaVuSans-Oblique-74" transform="translate(964.84375 0)"/>
     <use xlink:href="#DejaVuSans-Oblique-20" transform="translate(1004.052734 0)"/>
     <use xlink:href="#DejaVuSans-Oblique-61" transform="translate(1035.839844 0)"/>
     <use xlink:href="#DejaVuSans-Oblique-63" transform="translate(1097.119141 0)"/>
     <use xlink:href="#DejaVuSans-Oblique-72" transform="translate(1152.099609 0)"/>
     <use xlink:href="#DejaVuSans-Oblique-6f" transform="translate(1193.212891 0)"/>
     <use xlink:href="#DejaVuSans-Oblique-73" transform="translate(1254.394531 0)"/>
     <use xlink:href="#DejaVuSans-Oblique-73" transform="translate(1306.494141 0)"/>
     <use xlink:href="#DejaVuSans-Oblique-20" transform="translate(1358.59375 0)"/>
     <use xlink:href="#DejaVuSans-Oblique-70" transform="translate(1390.380859 0)"/>
     <use xlink:href="#DejaVuSans-Oblique-72" transform="translate(1453.857422 0)"/>
     <use xlink:href="#DejaVuSans-Oblique-69" transform="translate(1494.970703 0)"/>
     <use xlink:href="#DejaVuSans-Oblique-6f" transform="translate(1522.753906 0)"/>
     <use xlink:href="#DejaVuSans-Oblique-72" transform="translate(1583.935547 0)"/>
     <use xlink:href="#DejaVuSans-Oblique-69" transform="translate(1625.048828 0)"/>
     <use xlink:href="#DejaVuSans-Oblique-74" transform="translate(1652.832031 0)"/>
     <use xlink:href="#DejaVuSans-Oblique-79" transform="translate(1692.041016 0)"/>
     <use xlink:href="#DejaVuSans-Oblique-20" transform="translate(1751.220703 0)"/>
     <use xlink:href="#DejaVuSans-Oblique-64" transform="translate(1783.007812 0)"/>
     <use xlink:href="#DejaVuSans-Oblique-6f" transform="translate(1846.484375 0)"/>
     <use xlink:href="#DejaVuSans-Oblique-6d" transform="translate(1907.666016 0)"/>
     <use xlink:href="#DejaVuSans-Oblique-61" transform="translate(2005.078125 0)"/>
     <use xlink:href="#DejaVuSans-Oblique-69" transform="translate(2066.357422 0)"/>
     <use xlink:href="#DejaVuSans-Oblique-6e" transform="translate(2094.140625 0)"/>
     <use xlink:href="#DejaVuSans-Oblique-73" transform="translate(2157.519531 0)"/>
    </g>
   </g>
   <g id="text_15">
    <!-- Capability: -->
    <g style="fill: #2c3e50" transform="translate(129.07125 1060.56) scale(0.46 -0.46)">
     <defs>
      <path id="DejaVuSans-Bold-3a" d="M 716 3500 
L 1844 3500 
L 1844 2291 
L 716 2291 
L 716 3500 
z
M 716 1209 
L 1844 1209 
L 1844 0 
L 716 0 
L 716 1209 
z
" transform="scale(0.015625)"/>
     </defs>
     <use xlink:href="#DejaVuSans-Bold-43"/>
     <use xlink:href="#DejaVuSans-Bold-61" transform="translate(73.388672 0)"/>
     <use xlink:href="#DejaVuSans-Bold-70" transform="translate(140.869141 0)"/>
     <use xlink:href="#DejaVuSans-Bold-61" transform="translate(212.451172 0)"/>
     <use xlink:href="#DejaVuSans-Bold-62" transform="translate(279.931641 0)"/>
     <use xlink:href="#DejaVuSans-Bold-69" transform="translate(351.513672 0)"/>
     <use xlink:href="#DejaVuSans-Bold-6c" transform="translate(385.791016 0)"/>
     <use xlink:href="#DejaVuSans-Bold-69" transform="translate(420.068359 0)"/>
     <use xlink:href="#DejaVuSans-Bold-74" transform="translate(454.345703 0)"/>
     <use xlink:href="#DejaVuSans-Bold-79" transform="translate(502.148438 0)"/>
     <use xlink:href="#DejaVuSans-Bold-3a" transform="translate(567.333984 0)"/>
    </g>
   </g>
   <g id="text_16">
    <!-- 0-3: Weak -->
    <g style="fill: #e74c3c" transform="translate(547.57125 1060.56) scale(0.42 -0.42)">
     <defs>
      <path id="DejaVuSans-Bold-2d" d="M 347 2297 
L 2309 2297 
L 2309 1388 
L 347 1388 
L 347 2297 
z
" transform="scale(0.015625)"/>
      <path id="DejaVuSans-Bold-57" d="M 191 4666 
L 1344 4666 
L 2150 1275 
L 2950 4666 
L 4109 4666 
L 4909 1275 
L 5716 4666 
L 6859 4666 
L 5759 0 
L 4372 0 
L 3525 3547 
L 2688 0 
L 1300 0 
L 191 4666 
z
" transform="scale(0.015625)"/>
      <path id="DejaVuSans-Bold-6b" d="M 538 4863 
L 1656 4863 
L 1656 2216 
L 2944 3500 
L 4244 3500 
L 2534 1894 
L 4378 0 
L 3022 0 
L 1656 1459 
L 1656 0 
L 538 0 
L 538 4863 
z
" transform="scale(0.015625)"/>
     </defs>
     <use xlink:href="#DejaVuSans-Bold-30"/>
     <use xlink:href="#DejaVuSans-Bold-2d" transform="translate(69.580078 0)"/>
     <use xlink:href="#DejaVuSans-Bold-33" transform="translate(111.083984 0)"/>
     <use xlink:href="#DejaVuSans-Bold-3a" transform="translate(180.664062 0)"/>
     <use xlink:href="#DejaVuSans-Bold-20" transform="translate(220.654297 0)"/>
     <use xlink:href="#DejaVuSans-Bold-57" transform="translate(255.46875 0)"/>
     <use xlink:href="#DejaVuSans-Bold-65" transform="translate(362.146484 0)"/>
     <use xlink:href="#DejaVuSans-Bold-61" transform="translate(429.96875 0)"/>
     <use xlink:href="#DejaVuSans-Bold-6b" transform="translate(497.449219 0)"/>
    </g>
   </g>
   <g id="text_17">
    <!-- 4-6: Moderate -->
    <g style="fill: #f39c12" transform="translate(924.22125 1060.56) scale(0.42 -0.42)">
     <defs>
      <path id="DejaVuSans-Bold-34" d="M 2356 3675 
L 1038 1722 
L 2356 1722 
L 2356 3675 
z
M 2156 4666 
L 3494 4666 
L 3494 1722 
L 4159 1722 
L 4159 850 
L 3494 850 
L 3494 0 
L 2356 0 
L 2356 850 
L 288 850 
L 288 1881 
L 2156 4666 
z
" transform="scale(0.015625)"/>
     </defs>
     <use xlink:href="#DejaVuSans-Bold-34"/>
     <use xlink:href="#DejaVuSans-Bold-2d" transform="translate(69.580078 0)"/>
     <use xlink:href="#DejaVuSans-Bold-36" transform="translate(111.083984 0)"/>
     <use xlink:href="#DejaVuSans-Bold-3a" transform="translate(180.664062 0)"/>
     <use xlink:href="#DejaVuSans-Bold-20" transform="translate(220.654297 0)"/>
     <use xlink:href="#DejaVuSans-Bold-4d" transform="translate(255.46875 0)"/>
     <use xlink:href="#DejaVuSans-Bold-6f" transform="translate(354.980469 0)"/>
     <use xlink:href="#DejaVuSans-Bold-64" transform="translate(423.681641 0)"/>
     <use xlink:href="#DejaVuSans-Bold-65" transform="translate(495.263672 0)"/>
     <use xlink:href="#DejaVuSans-Bold-72" transform="translate(563.085938 0)"/>
     <use xlink:href="#DejaVuSans-Bold-61" transform="translate(612.402344 0)"/>
     <use xlink:href="#DejaVuSans-Bold-74" transform="translate(679.882812 0)"/>
     <use xlink:href="#DejaVuSans-Bold-65" transform="translate(727.685547 0)"/>
    </g>
   </g>
   <g id="text_18">
    <!-- 7-10: Strong -->
    <g style="fill: #27ae60" transform="translate(1384.57125 1060.56) scale(0.42 -0.42)">
     <use xlink:href="#DejaVuSans-Bold-37"/>
     <use xlink:href="#DejaVuSans-Bold-2d" transform="translate(69.580078 0)"/>
     <use xlink:href="#DejaVuSans-Bold-31" transform="translate(111.083984 0)"/>
     <use xlink:href="#DejaVuSans-Bold-30" transform="translate(180.664062 0)"/>
     <use xlink:href="#DejaVuSans-Bold-3a" transform="translate(250.244141 0)"/>
     <use xlink:href="#DejaVuSans-Bold-20" transform="translate(290.234375 0)"/>
     <use xlink:href="#DejaVuSans-Bold-53" transform="translate(325.048828 0)"/>
     <use xlink:href="#DejaVuSans-Bold-74" transform="translate(397.070312 0)"/>
     <use xlink:href="#DejaVuSans-Bold-72" transform="translate(444.873047 0)"/>
     <use xlink:href="#DejaVuSans-Bold-6f" transform="translate(494.189453 0)"/>
     <use xlink:href="#DejaVuSans-Bold-6e" transform="translate(562.890625 0)"/>
     <use xlink:href="#DejaVuSans-Bold-67" transform="translate(634.082031 0)"/>
    </g>
   </g>
   <g id="text_19">
    <!-- ~80% of MCF projects fail  Success in mature tech, struggle in cutting-edge -->
    <g style="fill: #e74c3c" transform="translate(7.2 1171.44) scale(0.48 -0.48)">
     <defs>
      <path id="DejaVuSans-Bold-7e" d="M 4684 2656 
L 4684 1894 
Q 4353 1644 4073 1536 
Q 3794 1428 3494 1428 
Q 3159 1428 2713 1609 
Q 2669 1628 2644 1638 
Q 2622 1647 2575 1666 
Q 2091 1856 1797 1856 
Q 1522 1856 1253 1736 
Q 984 1616 678 1356 
L 678 2119 
Q 1013 2369 1291 2476 
Q 1569 2584 1869 2584 
Q 2203 2584 2650 2403 
Q 2697 2384 2719 2375 
Q 2741 2366 2788 2347 
Q 3272 2156 3566 2156 
Q 3834 2156 4098 2273 
Q 4363 2391 4684 2656 
z
" transform="scale(0.015625)"/>
      <path id="DejaVuSans-Bold-25" d="M 4959 1925 
Q 4738 1925 4616 1733 
Q 4494 1541 4494 1184 
Q 4494 825 4614 633 
Q 4734 441 4959 441 
Q 5184 441 5303 633 
Q 5422 825 5422 1184 
Q 5422 1541 5301 1733 
Q 5181 1925 4959 1925 
z
M 4959 2450 
Q 5541 2450 5875 2112 
Q 6209 1775 6209 1184 
Q 6209 594 5875 251 
Q 5541 -91 4959 -91 
Q 4378 -91 4042 251 
Q 3706 594 3706 1184 
Q 3706 1772 4042 2111 
Q 4378 2450 4959 2450 
z
M 2094 -91 
L 1403 -91 
L 4319 4750 
L 5013 4750 
L 2094 -91 
z
M 1453 4750 
Q 2034 4750 2367 4411 
Q 2700 4072 2700 3481 
Q 2700 2891 2367 2550 
Q 2034 2209 1453 2209 
Q 872 2209 539 2550 
Q 206 2891 206 3481 
Q 206 4072 539 4411 
Q 872 4750 1453 4750 
z
M 1453 4225 
Q 1228 4225 1106 4031 
Q 984 3838 984 3481 
Q 984 3122 1106 2926 
Q 1228 2731 1453 2731 
Q 1678 2731 1798 2926 
Q 1919 3122 1919 3481 
Q 1919 3838 1797 4031 
Q 1675 4225 1453 4225 
z
" transform="scale(0.015625)"/>
      <path id="DejaVuSans-Bold-66" d="M 2841 4863 
L 2841 4128 
L 2222 4128 
Q 1984 4128 1890 4042 
Q 1797 3956 1797 3744 
L 1797 3500 
L 2753 3500 
L 2753 2700 
L 1797 2700 
L 1797 0 
L 678 0 
L 678 2700 
L 122 2700 
L 122 3500 
L 678 3500 
L 678 3744 
Q 678 4316 997 4589 
Q 1316 4863 1984 4863 
L 2841 4863 
z
" transform="scale(0.015625)"/>
      <path id="DejaVuSans-Bold-6a" d="M 538 3500 
L 1656 3500 
L 1656 63 
Q 1656 -641 1318 -1011 
Q 981 -1381 341 -1381 
L -213 -1381 
L -213 -647 
L -19 -647 
Q 300 -647 419 -503 
Q 538 -359 538 63 
L 538 3500 
z
M 538 4863 
L 1656 4863 
L 1656 3950 
L 538 3950 
L 538 4863 
z
" transform="scale(0.015625)"/>
      <path id="DejaVuSans-Bold-2022" d="M 922 2381 
Q 922 2613 1005 2816 
Q 1088 3019 1247 3175 
Q 1413 3334 1616 3417 
Q 1819 3500 2047 3500 
Q 2275 3500 2479 3415 
Q 2684 3331 2841 3175 
Q 3003 3013 3086 2811 
Q 3169 2609 3169 2381 
Q 3169 2150 3084 1945 
Q 3000 1741 2841 1581 
Q 2681 1422 2476 1337 
Q 2272 1253 2041 1253 
Q 1813 1253 1609 1337 
Q 1406 1422 1247 1581 
Q 1091 1741 1006 1945 
Q 922 2150 922 2381 
z
" transform="scale(0.015625)"/>
      <path id="DejaVuSans-Bold-2c" d="M 653 1209 
L 1778 1209 
L 1778 256 
L 1006 -909 
L 341 -909 
L 653 256 
L 653 1209 
z
" transform="scale(0.015625)"/>
     </defs>
     <use xlink:href="#DejaVuSans-Bold-7e"/>
     <use xlink:href="#DejaVuSans-Bold-38" transform="translate(83.789062 0)"/>
     <use xlink:href="#DejaVuSans-Bold-30" transform="translate(153.369141 0)"/>
     <use xlink:href="#DejaVuSans-Bold-25" transform="translate(222.949219 0)"/>
     <use xlink:href="#DejaVuSans-Bold-20" transform="translate(323.144531 0)"/>
     <use xlink:href="#DejaVuSans-Bold-6f" transform="translate(357.958984 0)"/>
     <use xlink:href="#DejaVuSans-Bold-66" transform="translate(426.660156 0)"/>
     <use xlink:href="#DejaVuSans-Bold-20" transform="translate(470.166016 0)"/>
     <use xlink:href="#DejaVuSans-Bold-4d" transform="translate(504.980469 0)"/>
     <use xlink:href="#DejaVuSans-Bold-43" transform="translate(604.492188 0)"/>
     <use xlink:href="#DejaVuSans-Bold-46" transform="translate(677.880859 0)"/>
     <use xlink:href="#DejaVuSans-Bold-20" transform="translate(746.191406 0)"/>
     <use xlink:href="#DejaVuSans-Bold-70" transform="translate(781.005859 0)"/>
     <use xlink:href="#DejaVuSans-Bold-72" transform="translate(852.587891 0)"/>
     <use xlink:href="#DejaVuSans-Bold-6f" transform="translate(901.904297 0)"/>
     <use xlink:href="#DejaVuSans-Bold-6a" transform="translate(970.605469 0)"/>
     <use xlink:href="#DejaVuSans-Bold-65" transform="translate(1004.882812 0)"/>
     <use xlink:href="#DejaVuSans-Bold-63" transform="translate(1072.705078 0)"/>
     <use xlink:href="#DejaVuSans-Bold-74" transform="translate(1131.982422 0)"/>
     <use xlink:href="#DejaVuSans-Bold-73" transform="translate(1179.785156 0)"/>
     <use xlink:href="#DejaVuSans-Bold-20" transform="translate(1239.306641 0)"/>
     <use xlink:href="#DejaVuSans-Bold-66" transform="translate(1274.121094 0)"/>
     <use xlink:href="#DejaVuSans-Bold-61" transform="translate(1317.626953 0)"/>
     <use xlink:href="#DejaVuSans-Bold-69" transform="translate(1385.107422 0)"/>
     <use xlink:href="#DejaVuSans-Bold-6c" transform="translate(1419.384766 0)"/>
     <use xlink:href="#DejaVuSans-Bold-20" transform="translate(1453.662109 0)"/>
     <use xlink:href="#DejaVuSans-Bold-2022" transform="translate(1488.476562 0)"/>
     <use xlink:href="#DejaVuSans-Bold-20" transform="translate(1552.392578 0)"/>
     <use xlink:href="#DejaVuSans-Bold-53" transform="translate(1587.207031 0)"/>
     <use xlink:href="#DejaVuSans-Bold-75" transform="translate(1659.228516 0)"/>
     <use xlink:href="#DejaVuSans-Bold-63" transform="translate(1730.419922 0)"/>
     <use xlink:href="#DejaVuSans-Bold-63" transform="translate(1789.697266 0)"/>
     <use xlink:href="#DejaVuSans-Bold-65" transform="translate(1848.974609 0)"/>
     <use xlink:href="#DejaVuSans-Bold-73" transform="translate(1916.796875 0)"/>
     <use xlink:href="#DejaVuSans-Bold-73" transform="translate(1976.318359 0)"/>
     <use xlink:href="#DejaVuSans-Bold-20" transform="translate(2035.839844 0)"/>
     <use xlink:href="#DejaVuSans-Bold-69" transform="translate(2070.654297 0)"/>
     <use xlink:href="#DejaVuSans-Bold-6e" transform="translate(2104.931641 0)"/>
     <use xlink:href="#DejaVuSans-Bold-20" transform="translate(2176.123047 0)"/>
     <use xlink:href="#DejaVuSans-Bold-6d" transform="translate(2210.9375 0)"/>
     <use xlink:href="#DejaVuSans-Bold-61" transform="translate(2315.136719 0)"/>
     <use xlink:href="#DejaVuSans-Bold-74" transform="translate(2382.617188 0)"/>
     <use xlink:href="#DejaVuSans-Bold-75" transform="translate(2430.419922 0)"/>
     <use xlink:href="#DejaVuSans-Bold-72" transform="translate(2501.611328 0)"/>
     <use xlink:href="#DejaVuSans-Bold-65" transform="translate(2550.927734 0)"/>
     <use xlink:href="#DejaVuSans-Bold-20" transform="translate(2618.75 0)"/>
     <use xlink:href="#DejaVuSans-Bold-74" transform="translate(2653.564453 0)"/>
     <use xlink:href="#DejaVuSans-Bold-65" transform="translate(2701.367188 0)"/>
     <use xlink:href="#DejaVuSans-Bold-63" transform="translate(2769.189453 0)"/>
     <use xlink:href="#DejaVuSans-Bold-68" transform="translate(2828.466797 0)"/>
     <use xlink:href="#DejaVuSans-Bold-2c" transform="translate(2899.658203 0)"/>
     <use xlink:href="#DejaVuSans-Bold-20" transform="translate(2937.646484 0)"/>
     <use xlink:href="#DejaVuSans-Bold-73" transform="translate(2972.460938 0)"/>
     <use xlink:href="#DejaVuSans-Bold-74" transform="translate(3031.982422 0)"/>
     <use xlink:href="#DejaVuSans-Bold-72" transform="translate(3079.785156 0)"/>
     <use xlink:href="#DejaVuSans-Bold-75" transform="translate(3129.101562 0)"/>
     <use xlink:href="#DejaVuSans-Bold-67" transform="translate(3200.292969 0)"/>
     <use xlink:href="#DejaVuSans-Bold-67" transform="translate(3271.875 0)"/>
     <use xlink:href="#DejaVuSans-Bold-6c" transform="translate(3343.457031 0)"/>
     <use xlink:href="#DejaVuSans-Bold-65" transform="translate(3377.734375 0)"/>
     <use xlink:href="#DejaVuSans-Bold-20" transform="translate(3445.556641 0)"/>
     <use xlink:href="#DejaVuSans-Bold-69" transform="translate(3480.371094 0)"/>
     <use xlink:href="#DejaVuSans-Bold-6e" transform="translate(3514.648438 0)"/>
     <use xlink:href="#DejaVuSans-Bold-20" transform="translate(3585.839844 0)"/>
     <use xlink:href="#DejaVuSans-Bold-63" transform="translate(3620.654297 0)"/>
     <use xlink:href="#DejaVuSans-Bold-75" transform="translate(3679.931641 0)"/>
     <use xlink:href="#DejaVuSans-Bold-74" transform="translate(3751.123047 0)"/>
     <use xlink:href="#DejaVuSans-Bold-74" transform="translate(3798.925781 0)"/>
     <use xlink:href="#DejaVuSans-Bold-69" transform="translate(3846.728516 0)"/>
     <use xlink:href="#DejaVuSans-Bold-6e" transform="translate(3881.005859 0)"/>
     <use xlink:href="#DejaVuSans-Bold-67" transform="translate(3952.197266 0)"/>
     <use xlink:href="#DejaVuSans-Bold-2d" transform="translate(4023.779297 0)"/>
     <use xlink:href="#DejaVuSans-Bold-65" transform="translate(4065.283203 0)"/>
     <use xlink:href="#DejaVuSans-Bold-64" transform="translate(4133.105469 0)"/>
     <use xlink:href="#DejaVuSans-Bold-67" transform="translate(4204.6875 0)"/>
     <use xlink:href="#DejaVuSans-Bold-65" transform="translate(4276.269531 0)"/>
    </g>
   </g>
  </g>
 </g>
 <defs>
  <clipPath id="p5a98e1b47d">
   <rect x="45.37125" y="7.2" width="2008.8" height="1219.68"/>
  </clipPath>
 </defs>
</svg>
