<?xml version="1.0" encoding="utf-8" standalone="no"?>
<!DOCTYPE svg PUBLIC "-//W3C//DTD SVG 1.1//EN"
  "http://www.w3.org/Graphics/SVG/1.1/DTD/svg11.dtd">
<svg xmlns:xlink="http://www.w3.org/1999/xlink" width="2098.8675pt" height="1234.08pt" viewBox="0 0 2098.8675 1234.08" xmlns="http://www.w3.org/2000/svg" version="1.1">
 <metadata>
  <rdf:RDF xmlns:dc="http://purl.org/dc/elements/1.1/" xmlns:cc="http://creativecommons.org/ns#" xmlns:rdf="http://www.w3.org/1999/02/22-rdf-syntax-ns#">
   <cc:Work>
    <dc:type rdf:resource="http://purl.org/dc/dcmitype/StillImage"/>
    <dc:date>2025-10-20T20:22:23.648081</dc:date>
    <dc:format>image/svg+xml</dc:format>
    <dc:creator>
     <cc:Agent>
      <dc:title>Matplotlib v3.10.1, https://matplotlib.org/</dc:title>
     </cc:Agent>
    </dc:creator>
   </cc:Work>
  </rdf:RDF>
 </metadata>
 <defs>
  <style type="text/css">*{stroke-linejoin: round; stroke-linecap: butt}</style>
 </defs>
 <g id="figure_1">
  <g id="patch_1">
   <path d="M 0 1234.08 
L 2098.8675 1234.08 
L 2098.8675 0 
L 0 0 
z
" style="fill: #ffffff"/>
  </g>
  <g id="axes_1">
   <g id="text_1">
    <!-- GSI -->
    <g style="fill: #ffffff" transform="translate(516.997644 423.4635) scale(0.72 -0.72)">
     <defs>
      <path id="DejaVuSans-Bold-47" d="M 4781 347 
Q 4331 128 3847 18 
Q 3363 -91 2847 -91 
Q 1681 -91 1000 561 
Q 319 1213 319 2328 
Q 319 3456 1012 4103 
Q 1706 4750 2913 4750 
Q 3378 4750 3804 4662 
Q 4231 4575 4609 4403 
L 4609 3438 
Q 4219 3659 3833 3768 
Q 3447 3878 3059 3878 
Q 2341 3878 1952 3476 
Q 1563 3075 1563 2328 
Q 1563 1588 1938 1184 
Q 2313 781 3003 781 
Q 3191 781 3352 804 
Q 3513 828 3641 878 
L 3641 1784 
L 2906 1784 
L 2906 2591 
L 4781 2591 
L 4781 347 
z
" transform="scale(0.015625)"/>
      <path id="DejaVuSans-Bold-53" d="M 3834 4519 
L 3834 3531 
Q 3450 3703 3084 3790 
Q 2719 3878 2394 3878 
Q 1963 3878 1756 3759 
Q 1550 3641 1550 3391 
Q 1550 3203 1689 3098 
Q 1828 2994 2194 2919 
L 2706 2816 
Q 3484 2659 3812 2340 
Q 4141 2022 4141 1434 
Q 4141 663 3683 286 
Q 3225 -91 2284 -91 
Q 1841 -91 1394 -6 
Q 947 78 500 244 
L 500 1259 
Q 947 1022 1364 901 
Q 1781 781 2169 781 
Q 2563 781 2772 912 
Q 2981 1044 2981 1288 
Q 2981 1506 2839 1625 
Q 2697 1744 2272 1838 
L 1806 1941 
Q 1106 2091 782 2419 
Q 459 2747 459 3303 
Q 459 4000 909 4375 
Q 1359 4750 2203 4750 
Q 2588 4750 2994 4692 
Q 3400 4634 3834 4519 
z
" transform="scale(0.015625)"/>
      <path id="DejaVuSans-Bold-49" d="M 588 4666 
L 1791 4666 
L 1791 0 
L 588 0 
L 588 4666 
z
" transform="scale(0.015625)"/>
     </defs>
     <use xlink:href="#DejaVuSans-Bold-47"/>
     <use xlink:href="#DejaVuSans-Bold-53" transform="translate(82.080078 0)"/>
     <use xlink:href="#DejaVuSans-Bold-49" transform="translate(154.101562 0)"/>
    </g>
   </g>
   <g id="text_2">
    <!-- Global Security -->
    <g style="fill: #ffffff" transform="translate(425.962644 466.162153) scale(0.42 -0.42)">
     <defs>
      <path id="DejaVuSans-47" d="M 3809 666 
L 3809 1919 
L 2778 1919 
L 2778 2438 
L 4434 2438 
L 4434 434 
Q 4069 175 3628 42 
Q 3188 -91 2688 -91 
Q 1594 -91 976 548 
Q 359 1188 359 2328 
Q 359 3472 976 4111 
Q 1594 4750 2688 4750 
Q 3144 4750 3555 4637 
Q 3966 4525 4313 4306 
L 4313 3634 
Q 3963 3931 3569 4081 
Q 3175 4231 2741 4231 
Q 1884 4231 1454 3753 
Q 1025 3275 1025 2328 
Q 1025 1384 1454 906 
Q 1884 428 2741 428 
Q 3075 428 3337 486 
Q 3600 544 3809 666 
z
" transform="scale(0.015625)"/>
      <path id="DejaVuSans-6c" d="M 603 4863 
L 1178 4863 
L 1178 0 
L 603 0 
L 603 4863 
z
" transform="scale(0.015625)"/>
      <path id="DejaVuSans-6f" d="M 1959 3097 
Q 1497 3097 1228 2736 
Q 959 2375 959 1747 
Q 959 1119 1226 758 
Q 1494 397 1959 397 
Q 2419 397 2687 759 
Q 2956 1122 2956 1747 
Q 2956 2369 2687 2733 
Q 2419 3097 1959 3097 
z
M 1959 3584 
Q 2709 3584 3137 3096 
Q 3566 2609 3566 1747 
Q 3566 888 3137 398 
Q 2709 -91 1959 -91 
Q 1206 -91 779 398 
Q 353 888 353 1747 
Q 353 2609 779 3096 
Q 1206 3584 1959 3584 
z
" transform="scale(0.015625)"/>
      <path id="DejaVuSans-62" d="M 3116 1747 
Q 3116 2381 2855 2742 
Q 2594 3103 2138 3103 
Q 1681 3103 1420 2742 
Q 1159 2381 1159 1747 
Q 1159 1113 1420 752 
Q 1681 391 2138 391 
Q 2594 391 2855 752 
Q 3116 1113 3116 1747 
z
M 1159 2969 
Q 1341 3281 1617 3432 
Q 1894 3584 2278 3584 
Q 2916 3584 3314 3078 
Q 3713 2572 3713 1747 
Q 3713 922 3314 415 
Q 2916 -91 2278 -91 
Q 1894 -91 1617 61 
Q 1341 213 1159 525 
L 1159 0 
L 581 0 
L 581 4863 
L 1159 4863 
L 1159 2969 
z
" transform="scale(0.015625)"/>
      <path id="DejaVuSans-61" d="M 2194 1759 
Q 1497 1759 1228 1600 
Q 959 1441 959 1056 
Q 959 750 1161 570 
Q 1363 391 1709 391 
Q 2188 391 2477 730 
Q 2766 1069 2766 1631 
L 2766 1759 
L 2194 1759 
z
M 3341 1997 
L 3341 0 
L 2766 0 
L 2766 531 
Q 2569 213 2275 61 
Q 1981 -91 1556 -91 
Q 1019 -91 701 211 
Q 384 513 384 1019 
Q 384 1609 779 1909 
Q 1175 2209 1959 2209 
L 2766 2209 
L 2766 2266 
Q 2766 2663 2505 2880 
Q 2244 3097 1772 3097 
Q 1472 3097 1187 3025 
Q 903 2953 641 2809 
L 641 3341 
Q 956 3463 1253 3523 
Q 1550 3584 1831 3584 
Q 2591 3584 2966 3190 
Q 3341 2797 3341 1997 
z
" transform="scale(0.015625)"/>
      <path id="DejaVuSans-20" transform="scale(0.015625)"/>
      <path id="DejaVuSans-53" d="M 3425 4513 
L 3425 3897 
Q 3066 4069 2747 4153 
Q 2428 4238 2131 4238 
Q 1616 4238 1336 4038 
Q 1056 3838 1056 3469 
Q 1056 3159 1242 3001 
Q 1428 2844 1947 2747 
L 2328 2669 
Q 3034 2534 3370 2195 
Q 3706 1856 3706 1288 
Q 3706 609 3251 259 
Q 2797 -91 1919 -91 
Q 1588 -91 1214 -16 
Q 841 59 441 206 
L 441 856 
Q 825 641 1194 531 
Q 1563 422 1919 422 
Q 2459 422 2753 634 
Q 3047 847 3047 1241 
Q 3047 1584 2836 1778 
Q 2625 1972 2144 2069 
L 1759 2144 
Q 1053 2284 737 2584 
Q 422 2884 422 3419 
Q 422 4038 858 4394 
Q 1294 4750 2059 4750 
Q 2388 4750 2728 4690 
Q 3069 4631 3425 4513 
z
" transform="scale(0.015625)"/>
      <path id="DejaVuSans-65" d="M 3597 1894 
L 3597 1613 
L 953 1613 
Q 991 1019 1311 708 
Q 1631 397 2203 397 
Q 2534 397 2845 478 
Q 3156 559 3463 722 
L 3463 178 
Q 3153 47 2828 -22 
Q 2503 -91 2169 -91 
Q 1331 -91 842 396 
Q 353 884 353 1716 
Q 353 2575 817 3079 
Q 1281 3584 2069 3584 
Q 2775 3584 3186 3129 
Q 3597 2675 3597 1894 
z
M 3022 2063 
Q 3016 2534 2758 2815 
Q 2500 3097 2075 3097 
Q 1594 3097 1305 2825 
Q 1016 2553 972 2059 
L 3022 2063 
z
" transform="scale(0.015625)"/>
      <path id="DejaVuSans-63" d="M 3122 3366 
L 3122 2828 
Q 2878 2963 2633 3030 
Q 2388 3097 2138 3097 
Q 1578 3097 1268 2742 
Q 959 2388 959 1747 
Q 959 1106 1268 751 
Q 1578 397 2138 397 
Q 2388 397 2633 464 
Q 2878 531 3122 666 
L 3122 134 
Q 2881 22 2623 -34 
Q 2366 -91 2075 -91 
Q 1284 -91 818 406 
Q 353 903 353 1747 
Q 353 2603 823 3093 
Q 1294 3584 2113 3584 
Q 2378 3584 2631 3529 
Q 2884 3475 3122 3366 
z
" transform="scale(0.015625)"/>
      <path id="DejaVuSans-75" d="M 544 1381 
L 544 3500 
L 1119 3500 
L 1119 1403 
Q 1119 906 1312 657 
Q 1506 409 1894 409 
Q 2359 409 2629 706 
Q 2900 1003 2900 1516 
L 2900 3500 
L 3475 3500 
L 3475 0 
L 2900 0 
L 2900 538 
Q 2691 219 2414 64 
Q 2138 -91 1772 -91 
Q 1169 -91 856 284 
Q 544 659 544 1381 
z
M 1991 3584 
L 1991 3584 
z
" transform="scale(0.015625)"/>
      <path id="DejaVuSans-72" d="M 2631 2963 
Q 2534 3019 2420 3045 
Q 2306 3072 2169 3072 
Q 1681 3072 1420 2755 
Q 1159 2438 1159 1844 
L 1159 0 
L 581 0 
L 581 3500 
L 1159 3500 
L 1159 2956 
Q 1341 3275 1631 3429 
Q 1922 3584 2338 3584 
Q 2397 3584 2469 3576 
Q 2541 3569 2628 3553 
L 2631 2963 
z
" transform="scale(0.015625)"/>
      <path id="DejaVuSans-69" d="M 603 3500 
L 1178 3500 
L 1178 0 
L 603 0 
L 603 3500 
z
M 603 4863 
L 1178 4863 
L 1178 4134 
L 603 4134 
L 603 4863 
z
" transform="scale(0.015625)"/>
      <path id="DejaVuSans-74" d="M 1172 4494 
L 1172 3500 
L 2356 3500 
L 2356 3053 
L 1172 3053 
L 1172 1153 
Q 1172 725 1289 603 
Q 1406 481 1766 481 
L 2356 481 
L 2356 0 
L 1766 0 
Q 1100 0 847 248 
Q 594 497 594 1153 
L 594 3053 
L 172 3053 
L 172 3500 
L 594 3500 
L 594 4494 
L 1172 4494 
z
" transform="scale(0.015625)"/>
      <path id="DejaVuSans-79" d="M 2059 -325 
Q 1816 -950 1584 -1140 
Q 1353 -1331 966 -1331 
L 506 -1331 
L 506 -850 
L 844 -850 
Q 1081 -850 1212 -737 
Q 1344 -625 1503 -206 
L 1606 56 
L 191 3500 
L 800 3500 
L 1894 763 
L 2988 3500 
L 3597 3500 
L 2059 -325 
z
" transform="scale(0.015625)"/>
     </defs>
     <use xlink:href="#DejaVuSans-47"/>
     <use xlink:href="#DejaVuSans-6c" transform="translate(77.490234 0)"/>
     <use xlink:href="#DejaVuSans-6f" transform="translate(105.273438 0)"/>
     <use xlink:href="#DejaVuSans-62" transform="translate(166.455078 0)"/>
     <use xlink:href="#DejaVuSans-61" transform="translate(229.931641 0)"/>
     <use xlink:href="#DejaVuSans-6c" transform="translate(291.210938 0)"/>
     <use xlink:href="#DejaVuSans-20" transform="translate(318.994141 0)"/>
     <use xlink:href="#DejaVuSans-53" transform="translate(350.78125 0)"/>
     <use xlink:href="#DejaVuSans-65" transform="translate(414.257812 0)"/>
     <use xlink:href="#DejaVuSans-63" transform="translate(475.78125 0)"/>
     <use xlink:href="#DejaVuSans-75" transform="translate(530.761719 0)"/>
     <use xlink:href="#DejaVuSans-72" transform="translate(594.140625 0)"/>
     <use xlink:href="#DejaVuSans-69" transform="translate(635.253906 0)"/>
     <use xlink:href="#DejaVuSans-74" transform="translate(663.037109 0)"/>
     <use xlink:href="#DejaVuSans-79" transform="translate(702.246094 0)"/>
    </g>
    <!-- Initiative -->
    <g style="fill: #ffffff" transform="translate(494.173269 522.766997) scale(0.42 -0.42)">
     <defs>
      <path id="DejaVuSans-49" d="M 628 4666 
L 1259 4666 
L 1259 0 
L 628 0 
L 628 4666 
z
" transform="scale(0.015625)"/>
      <path id="DejaVuSans-6e" d="M 3513 2113 
L 3513 0 
L 2938 0 
L 2938 2094 
Q 2938 2591 2744 2837 
Q 2550 3084 2163 3084 
Q 1697 3084 1428 2787 
Q 1159 2491 1159 1978 
L 1159 0 
L 581 0 
L 581 3500 
L 1159 3500 
L 1159 2956 
Q 1366 3272 1645 3428 
Q 1925 3584 2291 3584 
Q 2894 3584 3203 3211 
Q 3513 2838 3513 2113 
z
" transform="scale(0.015625)"/>
      <path id="DejaVuSans-76" d="M 191 3500 
L 800 3500 
L 1894 563 
L 2988 3500 
L 3597 3500 
L 2284 0 
L 1503 0 
L 191 3500 
z
" transform="scale(0.015625)"/>
     </defs>
     <use xlink:href="#DejaVuSans-49"/>
     <use xlink:href="#DejaVuSans-6e" transform="translate(29.492188 0)"/>
     <use xlink:href="#DejaVuSans-69" transform="translate(92.871094 0)"/>
     <use xlink:href="#DejaVuSans-74" transform="translate(120.654297 0)"/>
     <use xlink:href="#DejaVuSans-69" transform="translate(159.863281 0)"/>
     <use xlink:href="#DejaVuSans-61" transform="translate(187.646484 0)"/>
     <use xlink:href="#DejaVuSans-74" transform="translate(248.925781 0)"/>
     <use xlink:href="#DejaVuSans-69" transform="translate(288.134766 0)"/>
     <use xlink:href="#DejaVuSans-76" transform="translate(315.917969 0)"/>
     <use xlink:href="#DejaVuSans-65" transform="translate(375.097656 0)"/>
    </g>
   </g>
   <g id="text_3">
    <!-- (2022) -->
    <g style="fill: #ffffff" transform="translate(522.683582 566.541625) scale(0.38 -0.38)">
     <defs>
      <path id="DejaVuSans-Oblique-28" d="M 2731 4856 
Q 1903 3822 1495 2892 
Q 1088 1963 1088 1100 
Q 1088 606 1206 120 
Q 1325 -366 1563 -844 
L 1063 -844 
Q 775 -306 634 201 
Q 494 709 494 1197 
Q 494 2125 923 3036 
Q 1353 3947 2222 4856 
L 2731 4856 
z
" transform="scale(0.015625)"/>
      <path id="DejaVuSans-Oblique-32" d="M 2950 2253 
L 934 525 
L 3163 525 
L 3053 0 
L 25 0 
L 128 531 
L 2234 2338 
Q 2656 2703 2832 2979 
Q 3009 3256 3009 3547 
Q 3009 3850 2796 4040 
Q 2584 4231 2241 4231 
Q 1944 4231 1581 4125 
Q 1219 4019 806 3816 
L 922 4441 
Q 1309 4594 1662 4672 
Q 2016 4750 2316 4750 
Q 2928 4750 3301 4425 
Q 3675 4100 3675 3572 
Q 3675 3216 3497 2892 
Q 3319 2569 2950 2253 
z
" transform="scale(0.015625)"/>
      <path id="DejaVuSans-Oblique-30" d="M 2444 4750 
Q 3078 4750 3414 4328 
Q 3750 3906 3750 3116 
Q 3750 2516 3592 1923 
Q 3434 1331 3150 863 
Q 2859 394 2467 151 
Q 2075 -91 1600 -91 
Q 988 -91 653 334 
Q 319 759 319 1544 
Q 319 2138 480 2733 
Q 641 3328 928 3794 
Q 1216 4263 1602 4506 
Q 1988 4750 2444 4750 
z
M 2406 4250 
Q 2169 4250 1955 4123 
Q 1741 3997 1569 3750 
Q 1281 3338 1111 2720 
Q 941 2103 941 1453 
Q 941 938 1123 673 
Q 1306 409 1663 409 
Q 1913 409 2125 536 
Q 2338 663 2509 909 
Q 2794 1319 2961 1936 
Q 3128 2553 3128 3206 
Q 3128 3722 2945 3986 
Q 2763 4250 2406 4250 
z
" transform="scale(0.015625)"/>
      <path id="DejaVuSans-Oblique-29" d="M -397 -844 
Q 434 191 840 1120 
Q 1247 2050 1247 2913 
Q 1247 3406 1130 3892 
Q 1013 4378 775 4856 
L 1275 4856 
Q 1563 4316 1703 3812 
Q 1844 3309 1844 2822 
Q 1844 1891 1411 973 
Q 978 56 116 -844 
L -397 -844 
z
" transform="scale(0.015625)"/>
     </defs>
     <use xlink:href="#DejaVuSans-Oblique-28"/>
     <use xlink:href="#DejaVuSans-Oblique-32" transform="translate(39.013672 0)"/>
     <use xlink:href="#DejaVuSans-Oblique-30" transform="translate(102.636719 0)"/>
     <use xlink:href="#DejaVuSans-Oblique-32" transform="translate(166.259766 0)"/>
     <use xlink:href="#DejaVuSans-Oblique-32" transform="translate(229.882812 0)"/>
     <use xlink:href="#DejaVuSans-Oblique-29" transform="translate(293.505859 0)"/>
    </g>
   </g>
   <g id="text_4">
    <!-- Redefines security -->
    <g style="fill: #2c3e50" transform="translate(386.412019 737.390062) scale(0.38 -0.38)">
     <defs>
      <path id="DejaVuSans-Bold-52" d="M 2297 2597 
Q 2675 2597 2839 2737 
Q 3003 2878 3003 3200 
Q 3003 3519 2839 3656 
Q 2675 3794 2297 3794 
L 1791 3794 
L 1791 2597 
L 2297 2597 
z
M 1791 1766 
L 1791 0 
L 588 0 
L 588 4666 
L 2425 4666 
Q 3347 4666 3776 4356 
Q 4206 4047 4206 3378 
Q 4206 2916 3982 2619 
Q 3759 2322 3309 2181 
Q 3556 2125 3751 1926 
Q 3947 1728 4147 1325 
L 4800 0 
L 3519 0 
L 2950 1159 
Q 2778 1509 2601 1637 
Q 2425 1766 2131 1766 
L 1791 1766 
z
" transform="scale(0.015625)"/>
      <path id="DejaVuSans-Bold-65" d="M 4031 1759 
L 4031 1441 
L 1416 1441 
Q 1456 1047 1700 850 
Q 1944 653 2381 653 
Q 2734 653 3104 758 
Q 3475 863 3866 1075 
L 3866 213 
Q 3469 63 3072 -14 
Q 2675 -91 2278 -91 
Q 1328 -91 801 392 
Q 275 875 275 1747 
Q 275 2603 792 3093 
Q 1309 3584 2216 3584 
Q 3041 3584 3536 3087 
Q 4031 2591 4031 1759 
z
M 2881 2131 
Q 2881 2450 2695 2645 
Q 2509 2841 2209 2841 
Q 1884 2841 1681 2658 
Q 1478 2475 1428 2131 
L 2881 2131 
z
" transform="scale(0.015625)"/>
      <path id="DejaVuSans-Bold-64" d="M 2919 2988 
L 2919 4863 
L 4044 4863 
L 4044 0 
L 2919 0 
L 2919 506 
Q 2688 197 2409 53 
Q 2131 -91 1766 -91 
Q 1119 -91 703 423 
Q 288 938 288 1747 
Q 288 2556 703 3070 
Q 1119 3584 1766 3584 
Q 2128 3584 2408 3439 
Q 2688 3294 2919 2988 
z
M 2181 722 
Q 2541 722 2730 984 
Q 2919 1247 2919 1747 
Q 2919 2247 2730 2509 
Q 2541 2772 2181 2772 
Q 1825 2772 1636 2509 
Q 1447 2247 1447 1747 
Q 1447 1247 1636 984 
Q 1825 722 2181 722 
z
" transform="scale(0.015625)"/>
      <path id="DejaVuSans-Bold-66" d="M 2841 4863 
L 2841 4128 
L 2222 4128 
Q 1984 4128 1890 4042 
Q 1797 3956 1797 3744 
L 1797 3500 
L 2753 3500 
L 2753 2700 
L 1797 2700 
L 1797 0 
L 678 0 
L 678 2700 
L 122 2700 
L 122 3500 
L 678 3500 
L 678 3744 
Q 678 4316 997 4589 
Q 1316 4863 1984 4863 
L 2841 4863 
z
" transform="scale(0.015625)"/>
      <path id="DejaVuSans-Bold-69" d="M 538 3500 
L 1656 3500 
L 1656 0 
L 538 0 
L 538 3500 
z
M 538 4863 
L 1656 4863 
L 1656 3950 
L 538 3950 
L 538 4863 
z
" transform="scale(0.015625)"/>
      <path id="DejaVuSans-Bold-6e" d="M 4056 2131 
L 4056 0 
L 2931 0 
L 2931 347 
L 2931 1631 
Q 2931 2084 2911 2256 
Q 2891 2428 2841 2509 
Q 2775 2619 2662 2680 
Q 2550 2741 2406 2741 
Q 2056 2741 1856 2470 
Q 1656 2200 1656 1722 
L 1656 0 
L 538 0 
L 538 3500 
L 1656 3500 
L 1656 2988 
Q 1909 3294 2193 3439 
Q 2478 3584 2822 3584 
Q 3428 3584 3742 3212 
Q 4056 2841 4056 2131 
z
" transform="scale(0.015625)"/>
      <path id="DejaVuSans-Bold-73" d="M 3272 3391 
L 3272 2541 
Q 2913 2691 2578 2766 
Q 2244 2841 1947 2841 
Q 1628 2841 1473 2761 
Q 1319 2681 1319 2516 
Q 1319 2381 1436 2309 
Q 1553 2238 1856 2203 
L 2053 2175 
Q 2913 2066 3209 1816 
Q 3506 1566 3506 1031 
Q 3506 472 3093 190 
Q 2681 -91 1863 -91 
Q 1516 -91 1145 -36 
Q 775 19 384 128 
L 384 978 
Q 719 816 1070 734 
Q 1422 653 1784 653 
Q 2113 653 2278 743 
Q 2444 834 2444 1013 
Q 2444 1163 2330 1236 
Q 2216 1309 1875 1350 
L 1678 1375 
Q 931 1469 631 1722 
Q 331 1975 331 2491 
Q 331 3047 712 3315 
Q 1094 3584 1881 3584 
Q 2191 3584 2531 3537 
Q 2872 3491 3272 3391 
z
" transform="scale(0.015625)"/>
      <path id="DejaVuSans-Bold-20" transform="scale(0.015625)"/>
      <path id="DejaVuSans-Bold-63" d="M 3366 3391 
L 3366 2478 
Q 3138 2634 2908 2709 
Q 2678 2784 2431 2784 
Q 1963 2784 1702 2511 
Q 1441 2238 1441 1747 
Q 1441 1256 1702 982 
Q 1963 709 2431 709 
Q 2694 709 2930 787 
Q 3166 866 3366 1019 
L 3366 103 
Q 3103 6 2833 -42 
Q 2563 -91 2291 -91 
Q 1344 -91 809 395 
Q 275 881 275 1747 
Q 275 2613 809 3098 
Q 1344 3584 2291 3584 
Q 2566 3584 2833 3536 
Q 3100 3488 3366 3391 
z
" transform="scale(0.015625)"/>
      <path id="DejaVuSans-Bold-75" d="M 500 1363 
L 500 3500 
L 1625 3500 
L 1625 3150 
Q 1625 2866 1622 2436 
Q 1619 2006 1619 1863 
Q 1619 1441 1641 1255 
Q 1663 1069 1716 984 
Q 1784 875 1895 815 
Q 2006 756 2150 756 
Q 2500 756 2700 1025 
Q 2900 1294 2900 1772 
L 2900 3500 
L 4019 3500 
L 4019 0 
L 2900 0 
L 2900 506 
Q 2647 200 2364 54 
Q 2081 -91 1741 -91 
Q 1134 -91 817 281 
Q 500 653 500 1363 
z
" transform="scale(0.015625)"/>
      <path id="DejaVuSans-Bold-72" d="M 3138 2547 
Q 2991 2616 2845 2648 
Q 2700 2681 2553 2681 
Q 2122 2681 1889 2404 
Q 1656 2128 1656 1613 
L 1656 0 
L 538 0 
L 538 3500 
L 1656 3500 
L 1656 2925 
Q 1872 3269 2151 3426 
Q 2431 3584 2822 3584 
Q 2878 3584 2943 3579 
Q 3009 3575 3134 3559 
L 3138 2547 
z
" transform="scale(0.015625)"/>
      <path id="DejaVuSans-Bold-74" d="M 1759 4494 
L 1759 3500 
L 2913 3500 
L 2913 2700 
L 1759 2700 
L 1759 1216 
Q 1759 972 1856 886 
Q 1953 800 2241 800 
L 2816 800 
L 2816 0 
L 1856 0 
Q 1194 0 917 276 
Q 641 553 641 1216 
L 641 2700 
L 84 2700 
L 84 3500 
L 641 3500 
L 641 4494 
L 1759 4494 
z
" transform="scale(0.015625)"/>
      <path id="DejaVuSans-Bold-79" d="M 78 3500 
L 1197 3500 
L 2138 1125 
L 2938 3500 
L 4056 3500 
L 2584 -331 
Q 2363 -916 2067 -1148 
Q 1772 -1381 1288 -1381 
L 641 -1381 
L 641 -647 
L 991 -647 
Q 1275 -647 1404 -556 
Q 1534 -466 1606 -231 
L 1638 -134 
L 78 3500 
z
" transform="scale(0.015625)"/>
     </defs>
     <use xlink:href="#DejaVuSans-Bold-52"/>
     <use xlink:href="#DejaVuSans-Bold-65" transform="translate(77.001953 0)"/>
     <use xlink:href="#DejaVuSans-Bold-64" transform="translate(144.824219 0)"/>
     <use xlink:href="#DejaVuSans-Bold-65" transform="translate(216.40625 0)"/>
     <use xlink:href="#DejaVuSans-Bold-66" transform="translate(284.228516 0)"/>
     <use xlink:href="#DejaVuSans-Bold-69" transform="translate(327.734375 0)"/>
     <use xlink:href="#DejaVuSans-Bold-6e" transform="translate(362.011719 0)"/>
     <use xlink:href="#DejaVuSans-Bold-65" transform="translate(433.203125 0)"/>
     <use xlink:href="#DejaVuSans-Bold-73" transform="translate(501.025391 0)"/>
     <use xlink:href="#DejaVuSans-Bold-20" transform="translate(560.546875 0)"/>
     <use xlink:href="#DejaVuSans-Bold-73" transform="translate(595.361328 0)"/>
     <use xlink:href="#DejaVuSans-Bold-65" transform="translate(654.882812 0)"/>
     <use xlink:href="#DejaVuSans-Bold-63" transform="translate(722.705078 0)"/>
     <use xlink:href="#DejaVuSans-Bold-75" transform="translate(781.982422 0)"/>
     <use xlink:href="#DejaVuSans-Bold-72" transform="translate(853.173828 0)"/>
     <use xlink:href="#DejaVuSans-Bold-69" transform="translate(902.490234 0)"/>
     <use xlink:href="#DejaVuSans-Bold-74" transform="translate(936.767578 0)"/>
     <use xlink:href="#DejaVuSans-Bold-79" transform="translate(984.570312 0)"/>
    </g>
    <!-- to include tech -->
    <g style="fill: #2c3e50" transform="translate(425.914207 788.900844) scale(0.38 -0.38)">
     <defs>
      <path id="DejaVuSans-Bold-6f" d="M 2203 2784 
Q 1831 2784 1636 2517 
Q 1441 2250 1441 1747 
Q 1441 1244 1636 976 
Q 1831 709 2203 709 
Q 2569 709 2762 976 
Q 2956 1244 2956 1747 
Q 2956 2250 2762 2517 
Q 2569 2784 2203 2784 
z
M 2203 3584 
Q 3106 3584 3614 3096 
Q 4122 2609 4122 1747 
Q 4122 884 3614 396 
Q 3106 -91 2203 -91 
Q 1297 -91 786 396 
Q 275 884 275 1747 
Q 275 2609 786 3096 
Q 1297 3584 2203 3584 
z
" transform="scale(0.015625)"/>
      <path id="DejaVuSans-Bold-6c" d="M 538 4863 
L 1656 4863 
L 1656 0 
L 538 0 
L 538 4863 
z
" transform="scale(0.015625)"/>
      <path id="DejaVuSans-Bold-68" d="M 4056 2131 
L 4056 0 
L 2931 0 
L 2931 347 
L 2931 1625 
Q 2931 2084 2911 2256 
Q 2891 2428 2841 2509 
Q 2775 2619 2662 2680 
Q 2550 2741 2406 2741 
Q 2056 2741 1856 2470 
Q 1656 2200 1656 1722 
L 1656 0 
L 538 0 
L 538 4863 
L 1656 4863 
L 1656 2988 
Q 1909 3294 2193 3439 
Q 2478 3584 2822 3584 
Q 3428 3584 3742 3212 
Q 4056 2841 4056 2131 
z
" transform="scale(0.015625)"/>
     </defs>
     <use xlink:href="#DejaVuSans-Bold-74"/>
     <use xlink:href="#DejaVuSans-Bold-6f" transform="translate(47.802734 0)"/>
     <use xlink:href="#DejaVuSans-Bold-20" transform="translate(116.503906 0)"/>
     <use xlink:href="#DejaVuSans-Bold-69" transform="translate(151.318359 0)"/>
     <use xlink:href="#DejaVuSans-Bold-6e" transform="translate(185.595703 0)"/>
     <use xlink:href="#DejaVuSans-Bold-63" transform="translate(256.787109 0)"/>
     <use xlink:href="#DejaVuSans-Bold-6c" transform="translate(316.064453 0)"/>
     <use xlink:href="#DejaVuSans-Bold-75" transform="translate(350.341797 0)"/>
     <use xlink:href="#DejaVuSans-Bold-64" transform="translate(421.533203 0)"/>
     <use xlink:href="#DejaVuSans-Bold-65" transform="translate(493.115234 0)"/>
     <use xlink:href="#DejaVuSans-Bold-20" transform="translate(560.9375 0)"/>
     <use xlink:href="#DejaVuSans-Bold-74" transform="translate(595.751953 0)"/>
     <use xlink:href="#DejaVuSans-Bold-65" transform="translate(643.554688 0)"/>
     <use xlink:href="#DejaVuSans-Bold-63" transform="translate(711.376953 0)"/>
     <use xlink:href="#DejaVuSans-Bold-68" transform="translate(770.654297 0)"/>
    </g>
   </g>
   <g id="text_5">
    <!-- GDI -->
    <g style="fill: #ffffff" transform="translate(1440.176106 423.4635) scale(0.72 -0.72)">
     <defs>
      <path id="DejaVuSans-Bold-44" d="M 1791 3756 
L 1791 909 
L 2222 909 
Q 2959 909 3348 1275 
Q 3738 1641 3738 2338 
Q 3738 3031 3350 3393 
Q 2963 3756 2222 3756 
L 1791 3756 
z
M 588 4666 
L 1856 4666 
Q 2919 4666 3439 4514 
Q 3959 4363 4331 4000 
Q 4659 3684 4818 3271 
Q 4978 2859 4978 2338 
Q 4978 1809 4818 1395 
Q 4659 981 4331 666 
Q 3956 303 3431 151 
Q 2906 0 1856 0 
L 588 0 
L 588 4666 
z
" transform="scale(0.015625)"/>
     </defs>
     <use xlink:href="#DejaVuSans-Bold-47"/>
     <use xlink:href="#DejaVuSans-Bold-44" transform="translate(82.080078 0)"/>
     <use xlink:href="#DejaVuSans-Bold-49" transform="translate(165.087891 0)"/>
    </g>
   </g>
   <g id="text_6">
    <!-- Global Development -->
    <g style="fill: #ffffff" transform="translate(1297.962981 466.162153) scale(0.42 -0.42)">
     <defs>
      <path id="DejaVuSans-44" d="M 1259 4147 
L 1259 519 
L 2022 519 
Q 2988 519 3436 956 
Q 3884 1394 3884 2338 
Q 3884 3275 3436 3711 
Q 2988 4147 2022 4147 
L 1259 4147 
z
M 628 4666 
L 1925 4666 
Q 3281 4666 3915 4102 
Q 4550 3538 4550 2338 
Q 4550 1131 3912 565 
Q 3275 0 1925 0 
L 628 0 
L 628 4666 
z
" transform="scale(0.015625)"/>
      <path id="DejaVuSans-70" d="M 1159 525 
L 1159 -1331 
L 581 -1331 
L 581 3500 
L 1159 3500 
L 1159 2969 
Q 1341 3281 1617 3432 
Q 1894 3584 2278 3584 
Q 2916 3584 3314 3078 
Q 3713 2572 3713 1747 
Q 3713 922 3314 415 
Q 2916 -91 2278 -91 
Q 1894 -91 1617 61 
Q 1341 213 1159 525 
z
M 3116 1747 
Q 3116 2381 2855 2742 
Q 2594 3103 2138 3103 
Q 1681 3103 1420 2742 
Q 1159 2381 1159 1747 
Q 1159 1113 1420 752 
Q 1681 391 2138 391 
Q 2594 391 2855 752 
Q 3116 1113 3116 1747 
z
" transform="scale(0.015625)"/>
      <path id="DejaVuSans-6d" d="M 3328 2828 
Q 3544 3216 3844 3400 
Q 4144 3584 4550 3584 
Q 5097 3584 5394 3201 
Q 5691 2819 5691 2113 
L 5691 0 
L 5113 0 
L 5113 2094 
Q 5113 2597 4934 2840 
Q 4756 3084 4391 3084 
Q 3944 3084 3684 2787 
Q 3425 2491 3425 1978 
L 3425 0 
L 2847 0 
L 2847 2094 
Q 2847 2600 2669 2842 
Q 2491 3084 2119 3084 
Q 1678 3084 1418 2786 
Q 1159 2488 1159 1978 
L 1159 0 
L 581 0 
L 581 3500 
L 1159 3500 
L 1159 2956 
Q 1356 3278 1631 3431 
Q 1906 3584 2284 3584 
Q 2666 3584 2933 3390 
Q 3200 3197 3328 2828 
z
" transform="scale(0.015625)"/>
     </defs>
     <use xlink:href="#DejaVuSans-47"/>
     <use xlink:href="#DejaVuSans-6c" transform="translate(77.490234 0)"/>
     <use xlink:href="#DejaVuSans-6f" transform="translate(105.273438 0)"/>
     <use xlink:href="#DejaVuSans-62" transform="translate(166.455078 0)"/>
     <use xlink:href="#DejaVuSans-61" transform="translate(229.931641 0)"/>
     <use xlink:href="#DejaVuSans-6c" transform="translate(291.210938 0)"/>
     <use xlink:href="#DejaVuSans-20" transform="translate(318.994141 0)"/>
     <use xlink:href="#DejaVuSans-44" transform="translate(350.78125 0)"/>
     <use xlink:href="#DejaVuSans-65" transform="translate(427.783203 0)"/>
     <use xlink:href="#DejaVuSans-76" transform="translate(489.306641 0)"/>
     <use xlink:href="#DejaVuSans-65" transform="translate(548.486328 0)"/>
     <use xlink:href="#DejaVuSans-6c" transform="translate(610.009766 0)"/>
     <use xlink:href="#DejaVuSans-6f" transform="translate(637.792969 0)"/>
     <use xlink:href="#DejaVuSans-70" transform="translate(698.974609 0)"/>
     <use xlink:href="#DejaVuSans-6d" transform="translate(762.451172 0)"/>
     <use xlink:href="#DejaVuSans-65" transform="translate(859.863281 0)"/>
     <use xlink:href="#DejaVuSans-6e" transform="translate(921.386719 0)"/>
     <use xlink:href="#DejaVuSans-74" transform="translate(984.765625 0)"/>
    </g>
    <!-- Initiative -->
    <g style="fill: #ffffff" transform="translate(1421.311731 522.766997) scale(0.42 -0.42)">
     <use xlink:href="#DejaVuSans-49"/>
     <use xlink:href="#DejaVuSans-6e" transform="translate(29.492188 0)"/>
     <use xlink:href="#DejaVuSans-69" transform="translate(92.871094 0)"/>
     <use xlink:href="#DejaVuSans-74" transform="translate(120.654297 0)"/>
     <use xlink:href="#DejaVuSans-69" transform="translate(159.863281 0)"/>
     <use xlink:href="#DejaVuSans-61" transform="translate(187.646484 0)"/>
     <use xlink:href="#DejaVuSans-74" transform="translate(248.925781 0)"/>
     <use xlink:href="#DejaVuSans-69" transform="translate(288.134766 0)"/>
     <use xlink:href="#DejaVuSans-76" transform="translate(315.917969 0)"/>
     <use xlink:href="#DejaVuSans-65" transform="translate(375.097656 0)"/>
    </g>
   </g>
   <g id="text_7">
    <!-- (2021) -->
    <g style="fill: #ffffff" transform="translate(1449.822043 566.541625) scale(0.38 -0.38)">
     <defs>
      <path id="DejaVuSans-Oblique-31" d="M 416 531 
L 1447 531 
L 2144 4122 
L 978 3897 
L 1088 4441 
L 2247 4666 
L 2881 4666 
L 2075 531 
L 3103 531 
L 3003 0 
L 313 0 
L 416 531 
z
" transform="scale(0.015625)"/>
     </defs>
     <use xlink:href="#DejaVuSans-Oblique-28"/>
     <use xlink:href="#DejaVuSans-Oblique-32" transform="translate(39.013672 0)"/>
     <use xlink:href="#DejaVuSans-Oblique-30" transform="translate(102.636719 0)"/>
     <use xlink:href="#DejaVuSans-Oblique-32" transform="translate(166.259766 0)"/>
     <use xlink:href="#DejaVuSans-Oblique-31" transform="translate(229.882812 0)"/>
     <use xlink:href="#DejaVuSans-Oblique-29" transform="translate(293.505859 0)"/>
    </g>
   </g>
   <g id="text_8">
    <!-- Development requires -->
    <g style="fill: #2c3e50" transform="translate(1274.535168 737.390062) scale(0.38 -0.38)">
     <defs>
      <path id="DejaVuSans-Bold-76" d="M 97 3500 
L 1216 3500 
L 2088 1081 
L 2956 3500 
L 4078 3500 
L 2700 0 
L 1472 0 
L 97 3500 
z
" transform="scale(0.015625)"/>
      <path id="DejaVuSans-Bold-70" d="M 1656 506 
L 1656 -1331 
L 538 -1331 
L 538 3500 
L 1656 3500 
L 1656 2988 
Q 1888 3294 2169 3439 
Q 2450 3584 2816 3584 
Q 3463 3584 3878 3070 
Q 4294 2556 4294 1747 
Q 4294 938 3878 423 
Q 3463 -91 2816 -91 
Q 2450 -91 2169 54 
Q 1888 200 1656 506 
z
M 2400 2772 
Q 2041 2772 1848 2508 
Q 1656 2244 1656 1747 
Q 1656 1250 1848 986 
Q 2041 722 2400 722 
Q 2759 722 2948 984 
Q 3138 1247 3138 1747 
Q 3138 2247 2948 2509 
Q 2759 2772 2400 2772 
z
" transform="scale(0.015625)"/>
      <path id="DejaVuSans-Bold-6d" d="M 3781 2919 
Q 3994 3244 4286 3414 
Q 4578 3584 4928 3584 
Q 5531 3584 5847 3212 
Q 6163 2841 6163 2131 
L 6163 0 
L 5038 0 
L 5038 1825 
Q 5041 1866 5042 1909 
Q 5044 1953 5044 2034 
Q 5044 2406 4934 2573 
Q 4825 2741 4581 2741 
Q 4263 2741 4089 2478 
Q 3916 2216 3909 1719 
L 3909 0 
L 2784 0 
L 2784 1825 
Q 2784 2406 2684 2573 
Q 2584 2741 2328 2741 
Q 2006 2741 1831 2477 
Q 1656 2213 1656 1722 
L 1656 0 
L 531 0 
L 531 3500 
L 1656 3500 
L 1656 2988 
Q 1863 3284 2130 3434 
Q 2397 3584 2719 3584 
Q 3081 3584 3359 3409 
Q 3638 3234 3781 2919 
z
" transform="scale(0.015625)"/>
      <path id="DejaVuSans-Bold-71" d="M 2181 2772 
Q 1825 2772 1636 2509 
Q 1447 2247 1447 1747 
Q 1447 1247 1636 984 
Q 1825 722 2181 722 
Q 2541 722 2730 984 
Q 2919 1247 2919 1747 
Q 2919 2247 2730 2509 
Q 2541 2772 2181 2772 
z
M 2919 506 
Q 2688 197 2409 53 
Q 2131 -91 1766 -91 
Q 1119 -91 703 423 
Q 288 938 288 1747 
Q 288 2556 703 3067 
Q 1119 3578 1766 3578 
Q 2131 3578 2409 3434 
Q 2688 3291 2919 2981 
L 2919 3500 
L 4044 3500 
L 4044 -1331 
L 2919 -1331 
L 2919 506 
z
" transform="scale(0.015625)"/>
     </defs>
     <use xlink:href="#DejaVuSans-Bold-44"/>
     <use xlink:href="#DejaVuSans-Bold-65" transform="translate(83.007812 0)"/>
     <use xlink:href="#DejaVuSans-Bold-76" transform="translate(150.830078 0)"/>
     <use xlink:href="#DejaVuSans-Bold-65" transform="translate(216.015625 0)"/>
     <use xlink:href="#DejaVuSans-Bold-6c" transform="translate(283.837891 0)"/>
     <use xlink:href="#DejaVuSans-Bold-6f" transform="translate(318.115234 0)"/>
     <use xlink:href="#DejaVuSans-Bold-70" transform="translate(386.816406 0)"/>
     <use xlink:href="#DejaVuSans-Bold-6d" transform="translate(458.398438 0)"/>
     <use xlink:href="#DejaVuSans-Bold-65" transform="translate(562.597656 0)"/>
     <use xlink:href="#DejaVuSans-Bold-6e" transform="translate(630.419922 0)"/>
     <use xlink:href="#DejaVuSans-Bold-74" transform="translate(701.611328 0)"/>
     <use xlink:href="#DejaVuSans-Bold-20" transform="translate(749.414062 0)"/>
     <use xlink:href="#DejaVuSans-Bold-72" transform="translate(784.228516 0)"/>
     <use xlink:href="#DejaVuSans-Bold-65" transform="translate(833.544922 0)"/>
     <use xlink:href="#DejaVuSans-Bold-71" transform="translate(901.367188 0)"/>
     <use xlink:href="#DejaVuSans-Bold-75" transform="translate(972.949219 0)"/>
     <use xlink:href="#DejaVuSans-Bold-69" transform="translate(1044.140625 0)"/>
     <use xlink:href="#DejaVuSans-Bold-72" transform="translate(1078.417969 0)"/>
     <use xlink:href="#DejaVuSans-Bold-65" transform="translate(1127.734375 0)"/>
     <use xlink:href="#DejaVuSans-Bold-73" transform="translate(1195.556641 0)"/>
    </g>
    <!-- tech transfer -->
    <g style="fill: #2c3e50" transform="translate(1373.002668 788.603969) scale(0.38 -0.38)">
     <defs>
      <path id="DejaVuSans-Bold-61" d="M 2106 1575 
Q 1756 1575 1579 1456 
Q 1403 1338 1403 1106 
Q 1403 894 1545 773 
Q 1688 653 1941 653 
Q 2256 653 2472 879 
Q 2688 1106 2688 1447 
L 2688 1575 
L 2106 1575 
z
M 3816 1997 
L 3816 0 
L 2688 0 
L 2688 519 
Q 2463 200 2181 54 
Q 1900 -91 1497 -91 
Q 953 -91 614 226 
Q 275 544 275 1050 
Q 275 1666 698 1953 
Q 1122 2241 2028 2241 
L 2688 2241 
L 2688 2328 
Q 2688 2594 2478 2717 
Q 2269 2841 1825 2841 
Q 1466 2841 1156 2769 
Q 847 2697 581 2553 
L 581 3406 
Q 941 3494 1303 3539 
Q 1666 3584 2028 3584 
Q 2975 3584 3395 3211 
Q 3816 2838 3816 1997 
z
" transform="scale(0.015625)"/>
     </defs>
     <use xlink:href="#DejaVuSans-Bold-74"/>
     <use xlink:href="#DejaVuSans-Bold-65" transform="translate(47.802734 0)"/>
     <use xlink:href="#DejaVuSans-Bold-63" transform="translate(115.625 0)"/>
     <use xlink:href="#DejaVuSans-Bold-68" transform="translate(174.902344 0)"/>
     <use xlink:href="#DejaVuSans-Bold-20" transform="translate(246.09375 0)"/>
     <use xlink:href="#DejaVuSans-Bold-74" transform="translate(280.908203 0)"/>
     <use xlink:href="#DejaVuSans-Bold-72" transform="translate(328.710938 0)"/>
     <use xlink:href="#DejaVuSans-Bold-61" transform="translate(378.027344 0)"/>
     <use xlink:href="#DejaVuSans-Bold-6e" transform="translate(445.507812 0)"/>
     <use xlink:href="#DejaVuSans-Bold-73" transform="translate(516.699219 0)"/>
     <use xlink:href="#DejaVuSans-Bold-66" transform="translate(576.220703 0)"/>
     <use xlink:href="#DejaVuSans-Bold-65" transform="translate(619.726562 0)"/>
     <use xlink:href="#DejaVuSans-Bold-72" transform="translate(687.548828 0)"/>
    </g>
   </g>
   <g id="text_9">
    <!-- GCI -->
    <g style="fill: #ffffff" transform="translate(516.502644 789.3675) scale(0.72 -0.72)">
     <defs>
      <path id="DejaVuSans-Bold-43" d="M 4288 256 
Q 3956 84 3597 -3 
Q 3238 -91 2847 -91 
Q 1681 -91 1000 561 
Q 319 1213 319 2328 
Q 319 3447 1000 4098 
Q 1681 4750 2847 4750 
Q 3238 4750 3597 4662 
Q 3956 4575 4288 4403 
L 4288 3438 
Q 3953 3666 3628 3772 
Q 3303 3878 2944 3878 
Q 2300 3878 1931 3465 
Q 1563 3053 1563 2328 
Q 1563 1606 1931 1193 
Q 2300 781 2944 781 
Q 3303 781 3628 887 
Q 3953 994 4288 1222 
L 4288 256 
z
" transform="scale(0.015625)"/>
     </defs>
     <use xlink:href="#DejaVuSans-Bold-47"/>
     <use xlink:href="#DejaVuSans-Bold-43" transform="translate(82.080078 0)"/>
     <use xlink:href="#DejaVuSans-Bold-49" transform="translate(155.46875 0)"/>
    </g>
   </g>
   <g id="text_10">
    <!-- Global Civilization -->
    <g style="fill: #ffffff" transform="translate(397.6553 832.066153) scale(0.42 -0.42)">
     <defs>
      <path id="DejaVuSans-43" d="M 4122 4306 
L 4122 3641 
Q 3803 3938 3442 4084 
Q 3081 4231 2675 4231 
Q 1875 4231 1450 3742 
Q 1025 3253 1025 2328 
Q 1025 1406 1450 917 
Q 1875 428 2675 428 
Q 3081 428 3442 575 
Q 3803 722 4122 1019 
L 4122 359 
Q 3791 134 3420 21 
Q 3050 -91 2638 -91 
Q 1578 -91 968 557 
Q 359 1206 359 2328 
Q 359 3453 968 4101 
Q 1578 4750 2638 4750 
Q 3056 4750 3426 4639 
Q 3797 4528 4122 4306 
z
" transform="scale(0.015625)"/>
      <path id="DejaVuSans-7a" d="M 353 3500 
L 3084 3500 
L 3084 2975 
L 922 459 
L 3084 459 
L 3084 0 
L 275 0 
L 275 525 
L 2438 3041 
L 353 3041 
L 353 3500 
z
" transform="scale(0.015625)"/>
     </defs>
     <use xlink:href="#DejaVuSans-47"/>
     <use xlink:href="#DejaVuSans-6c" transform="translate(77.490234 0)"/>
     <use xlink:href="#DejaVuSans-6f" transform="translate(105.273438 0)"/>
     <use xlink:href="#DejaVuSans-62" transform="translate(166.455078 0)"/>
     <use xlink:href="#DejaVuSans-61" transform="translate(229.931641 0)"/>
     <use xlink:href="#DejaVuSans-6c" transform="translate(291.210938 0)"/>
     <use xlink:href="#DejaVuSans-20" transform="translate(318.994141 0)"/>
     <use xlink:href="#DejaVuSans-43" transform="translate(350.78125 0)"/>
     <use xlink:href="#DejaVuSans-69" transform="translate(420.605469 0)"/>
     <use xlink:href="#DejaVuSans-76" transform="translate(448.388672 0)"/>
     <use xlink:href="#DejaVuSans-69" transform="translate(507.568359 0)"/>
     <use xlink:href="#DejaVuSans-6c" transform="translate(535.351562 0)"/>
     <use xlink:href="#DejaVuSans-69" transform="translate(563.134766 0)"/>
     <use xlink:href="#DejaVuSans-7a" transform="translate(590.917969 0)"/>
     <use xlink:href="#DejaVuSans-61" transform="translate(643.408203 0)"/>
     <use xlink:href="#DejaVuSans-74" transform="translate(704.6875 0)"/>
     <use xlink:href="#DejaVuSans-69" transform="translate(743.896484 0)"/>
     <use xlink:href="#DejaVuSans-6f" transform="translate(771.679688 0)"/>
     <use xlink:href="#DejaVuSans-6e" transform="translate(832.861328 0)"/>
    </g>
    <!-- Initiative -->
    <g style="fill: #ffffff" transform="translate(494.173269 888.670997) scale(0.42 -0.42)">
     <use xlink:href="#DejaVuSans-49"/>
     <use xlink:href="#DejaVuSans-6e" transform="translate(29.492188 0)"/>
     <use xlink:href="#DejaVuSans-69" transform="translate(92.871094 0)"/>
     <use xlink:href="#DejaVuSans-74" transform="translate(120.654297 0)"/>
     <use xlink:href="#DejaVuSans-69" transform="translate(159.863281 0)"/>
     <use xlink:href="#DejaVuSans-61" transform="translate(187.646484 0)"/>
     <use xlink:href="#DejaVuSans-74" transform="translate(248.925781 0)"/>
     <use xlink:href="#DejaVuSans-69" transform="translate(288.134766 0)"/>
     <use xlink:href="#DejaVuSans-76" transform="translate(315.917969 0)"/>
     <use xlink:href="#DejaVuSans-65" transform="translate(375.097656 0)"/>
    </g>
   </g>
   <g id="text_11">
    <!-- (2023) -->
    <g style="fill: #ffffff" transform="translate(522.683582 932.445625) scale(0.38 -0.38)">
     <defs>
      <path id="DejaVuSans-Oblique-33" d="M 1013 4550 
Q 1356 4650 1679 4700 
Q 2003 4750 2316 4750 
Q 2934 4750 3296 4475 
Q 3659 4200 3659 3738 
Q 3659 3284 3373 2959 
Q 3088 2634 2584 2516 
Q 2978 2403 3162 2165 
Q 3347 1928 3347 1538 
Q 3347 1163 3167 834 
Q 2988 506 2650 269 
Q 2394 88 2037 -1 
Q 1681 -91 1216 -91 
Q 922 -91 622 -33 
Q 322 25 13 141 
L 128 738 
Q 422 575 720 495 
Q 1019 416 1331 416 
Q 1947 416 2330 733 
Q 2713 1050 2713 1556 
Q 2713 1881 2469 2057 
Q 2225 2234 1772 2234 
L 1228 2234 
L 1325 2747 
L 1900 2747 
Q 2419 2747 2717 2984 
Q 3016 3222 3016 3628 
Q 3016 3922 2797 4083 
Q 2578 4244 2181 4244 
Q 1881 4244 1567 4180 
Q 1253 4116 916 3988 
L 1013 4550 
z
" transform="scale(0.015625)"/>
     </defs>
     <use xlink:href="#DejaVuSans-Oblique-28"/>
     <use xlink:href="#DejaVuSans-Oblique-32" transform="translate(39.013672 0)"/>
     <use xlink:href="#DejaVuSans-Oblique-30" transform="translate(102.636719 0)"/>
     <use xlink:href="#DejaVuSans-Oblique-32" transform="translate(166.259766 0)"/>
     <use xlink:href="#DejaVuSans-Oblique-33" transform="translate(229.882812 0)"/>
     <use xlink:href="#DejaVuSans-Oblique-29" transform="translate(293.505859 0)"/>
    </g>
   </g>
   <g id="text_12">
    <!-- Mutual learning -->
    <g style="fill: #2c3e50" transform="translate(416.117332 1103.294062) scale(0.38 -0.38)">
     <defs>
      <path id="DejaVuSans-Bold-4d" d="M 588 4666 
L 2119 4666 
L 3181 2169 
L 4250 4666 
L 5778 4666 
L 5778 0 
L 4641 0 
L 4641 3413 
L 3566 897 
L 2803 897 
L 1728 3413 
L 1728 0 
L 588 0 
L 588 4666 
z
" transform="scale(0.015625)"/>
      <path id="DejaVuSans-Bold-67" d="M 2919 594 
Q 2688 288 2409 144 
Q 2131 0 1766 0 
Q 1125 0 706 504 
Q 288 1009 288 1791 
Q 288 2575 706 3076 
Q 1125 3578 1766 3578 
Q 2131 3578 2409 3434 
Q 2688 3291 2919 2981 
L 2919 3500 
L 4044 3500 
L 4044 353 
Q 4044 -491 3511 -936 
Q 2978 -1381 1966 -1381 
Q 1638 -1381 1331 -1331 
Q 1025 -1281 716 -1178 
L 716 -306 
Q 1009 -475 1290 -558 
Q 1572 -641 1856 -641 
Q 2406 -641 2662 -400 
Q 2919 -159 2919 353 
L 2919 594 
z
M 2181 2772 
Q 1834 2772 1640 2515 
Q 1447 2259 1447 1791 
Q 1447 1309 1634 1061 
Q 1822 813 2181 813 
Q 2531 813 2725 1069 
Q 2919 1325 2919 1791 
Q 2919 2259 2725 2515 
Q 2531 2772 2181 2772 
z
" transform="scale(0.015625)"/>
     </defs>
     <use xlink:href="#DejaVuSans-Bold-4d"/>
     <use xlink:href="#DejaVuSans-Bold-75" transform="translate(99.511719 0)"/>
     <use xlink:href="#DejaVuSans-Bold-74" transform="translate(170.703125 0)"/>
     <use xlink:href="#DejaVuSans-Bold-75" transform="translate(218.505859 0)"/>
     <use xlink:href="#DejaVuSans-Bold-61" transform="translate(289.697266 0)"/>
     <use xlink:href="#DejaVuSans-Bold-6c" transform="translate(357.177734 0)"/>
     <use xlink:href="#DejaVuSans-Bold-20" transform="translate(391.455078 0)"/>
     <use xlink:href="#DejaVuSans-Bold-6c" transform="translate(426.269531 0)"/>
     <use xlink:href="#DejaVuSans-Bold-65" transform="translate(460.546875 0)"/>
     <use xlink:href="#DejaVuSans-Bold-61" transform="translate(528.369141 0)"/>
     <use xlink:href="#DejaVuSans-Bold-72" transform="translate(595.849609 0)"/>
     <use xlink:href="#DejaVuSans-Bold-6e" transform="translate(645.166016 0)"/>
     <use xlink:href="#DejaVuSans-Bold-69" transform="translate(716.357422 0)"/>
     <use xlink:href="#DejaVuSans-Bold-6e" transform="translate(750.634766 0)"/>
     <use xlink:href="#DejaVuSans-Bold-67" transform="translate(821.826172 0)"/>
    </g>
    <!-- in technology -->
    <g style="fill: #2c3e50" transform="translate(440.32155 1154.804844) scale(0.38 -0.38)">
     <use xlink:href="#DejaVuSans-Bold-69"/>
     <use xlink:href="#DejaVuSans-Bold-6e" transform="translate(34.277344 0)"/>
     <use xlink:href="#DejaVuSans-Bold-20" transform="translate(105.46875 0)"/>
     <use xlink:href="#DejaVuSans-Bold-74" transform="translate(140.283203 0)"/>
     <use xlink:href="#DejaVuSans-Bold-65" transform="translate(188.085938 0)"/>
     <use xlink:href="#DejaVuSans-Bold-63" transform="translate(255.908203 0)"/>
     <use xlink:href="#DejaVuSans-Bold-68" transform="translate(315.185547 0)"/>
     <use xlink:href="#DejaVuSans-Bold-6e" transform="translate(386.376953 0)"/>
     <use xlink:href="#DejaVuSans-Bold-6f" transform="translate(457.568359 0)"/>
     <use xlink:href="#DejaVuSans-Bold-6c" transform="translate(526.269531 0)"/>
     <use xlink:href="#DejaVuSans-Bold-6f" transform="translate(560.546875 0)"/>
     <use xlink:href="#DejaVuSans-Bold-67" transform="translate(629.248047 0)"/>
     <use xlink:href="#DejaVuSans-Bold-79" transform="translate(700.830078 0)"/>
    </g>
   </g>
   <g id="text_13">
    <!-- GDSI -->
    <g style="fill: #ffffff" transform="translate(1414.250481 789.3675) scale(0.72 -0.72)">
     <use xlink:href="#DejaVuSans-Bold-47"/>
     <use xlink:href="#DejaVuSans-Bold-44" transform="translate(82.080078 0)"/>
     <use xlink:href="#DejaVuSans-Bold-53" transform="translate(165.087891 0)"/>
     <use xlink:href="#DejaVuSans-Bold-49" transform="translate(237.109375 0)"/>
    </g>
   </g>
   <g id="text_14">
    <!-- Global Data Security -->
    <g style="fill: #ffffff" transform="translate(1296.286262 832.066153) scale(0.42 -0.42)">
     <use xlink:href="#DejaVuSans-47"/>
     <use xlink:href="#DejaVuSans-6c" transform="translate(77.490234 0)"/>
     <use xlink:href="#DejaVuSans-6f" transform="translate(105.273438 0)"/>
     <use xlink:href="#DejaVuSans-62" transform="translate(166.455078 0)"/>
     <use xlink:href="#DejaVuSans-61" transform="translate(229.931641 0)"/>
     <use xlink:href="#DejaVuSans-6c" transform="translate(291.210938 0)"/>
     <use xlink:href="#DejaVuSans-20" transform="translate(318.994141 0)"/>
     <use xlink:href="#DejaVuSans-44" transform="translate(350.78125 0)"/>
     <use xlink:href="#DejaVuSans-61" transform="translate(427.783203 0)"/>
     <use xlink:href="#DejaVuSans-74" transform="translate(489.0625 0)"/>
     <use xlink:href="#DejaVuSans-61" transform="translate(528.271484 0)"/>
     <use xlink:href="#DejaVuSans-20" transform="translate(589.550781 0)"/>
     <use xlink:href="#DejaVuSans-53" transform="translate(621.337891 0)"/>
     <use xlink:href="#DejaVuSans-65" transform="translate(684.814453 0)"/>
     <use xlink:href="#DejaVuSans-63" transform="translate(746.337891 0)"/>
     <use xlink:href="#DejaVuSans-75" transform="translate(801.318359 0)"/>
     <use xlink:href="#DejaVuSans-72" transform="translate(864.697266 0)"/>
     <use xlink:href="#DejaVuSans-69" transform="translate(905.810547 0)"/>
     <use xlink:href="#DejaVuSans-74" transform="translate(933.59375 0)"/>
     <use xlink:href="#DejaVuSans-79" transform="translate(972.802734 0)"/>
    </g>
    <!-- Initiative -->
    <g style="fill: #ffffff" transform="translate(1421.311731 888.670997) scale(0.42 -0.42)">
     <use xlink:href="#DejaVuSans-49"/>
     <use xlink:href="#DejaVuSans-6e" transform="translate(29.492188 0)"/>
     <use xlink:href="#DejaVuSans-69" transform="translate(92.871094 0)"/>
     <use xlink:href="#DejaVuSans-74" transform="translate(120.654297 0)"/>
     <use xlink:href="#DejaVuSans-69" transform="translate(159.863281 0)"/>
     <use xlink:href="#DejaVuSans-61" transform="translate(187.646484 0)"/>
     <use xlink:href="#DejaVuSans-74" transform="translate(248.925781 0)"/>
     <use xlink:href="#DejaVuSans-69" transform="translate(288.134766 0)"/>
     <use xlink:href="#DejaVuSans-76" transform="translate(315.917969 0)"/>
     <use xlink:href="#DejaVuSans-65" transform="translate(375.097656 0)"/>
    </g>
   </g>
   <g id="text_15">
    <!-- (2020) -->
    <g style="fill: #ffffff" transform="translate(1449.822043 932.445625) scale(0.38 -0.38)">
     <use xlink:href="#DejaVuSans-Oblique-28"/>
     <use xlink:href="#DejaVuSans-Oblique-32" transform="translate(39.013672 0)"/>
     <use xlink:href="#DejaVuSans-Oblique-30" transform="translate(102.636719 0)"/>
     <use xlink:href="#DejaVuSans-Oblique-32" transform="translate(166.259766 0)"/>
     <use xlink:href="#DejaVuSans-Oblique-30" transform="translate(229.882812 0)"/>
     <use xlink:href="#DejaVuSans-Oblique-29" transform="translate(293.505859 0)"/>
    </g>
   </g>
   <g id="text_16">
    <!-- Data governance -->
    <g style="fill: #2c3e50" transform="translate(1330.570325 1102.997187) scale(0.38 -0.38)">
     <use xlink:href="#DejaVuSans-Bold-44"/>
     <use xlink:href="#DejaVuSans-Bold-61" transform="translate(83.007812 0)"/>
     <use xlink:href="#DejaVuSans-Bold-74" transform="translate(150.488281 0)"/>
     <use xlink:href="#DejaVuSans-Bold-61" transform="translate(198.291016 0)"/>
     <use xlink:href="#DejaVuSans-Bold-20" transform="translate(265.771484 0)"/>
     <use xlink:href="#DejaVuSans-Bold-67" transform="translate(300.585938 0)"/>
     <use xlink:href="#DejaVuSans-Bold-6f" transform="translate(372.167969 0)"/>
     <use xlink:href="#DejaVuSans-Bold-76" transform="translate(440.869141 0)"/>
     <use xlink:href="#DejaVuSans-Bold-65" transform="translate(506.054688 0)"/>
     <use xlink:href="#DejaVuSans-Bold-72" transform="translate(573.876953 0)"/>
     <use xlink:href="#DejaVuSans-Bold-6e" transform="translate(623.193359 0)"/>
     <use xlink:href="#DejaVuSans-Bold-61" transform="translate(694.384766 0)"/>
     <use xlink:href="#DejaVuSans-Bold-6e" transform="translate(761.865234 0)"/>
     <use xlink:href="#DejaVuSans-Bold-63" transform="translate(833.056641 0)"/>
     <use xlink:href="#DejaVuSans-Bold-65" transform="translate(892.333984 0)"/>
    </g>
    <!-- Chinese-style -->
    <g style="fill: #2c3e50" transform="translate(1368.350637 1154.507969) scale(0.38 -0.38)">
     <defs>
      <path id="DejaVuSans-Bold-2d" d="M 347 2297 
L 2309 2297 
L 2309 1388 
L 347 1388 
L 347 2297 
z
" transform="scale(0.015625)"/>
     </defs>
     <use xlink:href="#DejaVuSans-Bold-43"/>
     <use xlink:href="#DejaVuSans-Bold-68" transform="translate(73.388672 0)"/>
     <use xlink:href="#DejaVuSans-Bold-69" transform="translate(144.580078 0)"/>
     <use xlink:href="#DejaVuSans-Bold-6e" transform="translate(178.857422 0)"/>
     <use xlink:href="#DejaVuSans-Bold-65" transform="translate(250.048828 0)"/>
     <use xlink:href="#DejaVuSans-Bold-73" transform="translate(317.871094 0)"/>
     <use xlink:href="#DejaVuSans-Bold-65" transform="translate(377.392578 0)"/>
     <use xlink:href="#DejaVuSans-Bold-2d" transform="translate(445.214844 0)"/>
     <use xlink:href="#DejaVuSans-Bold-73" transform="translate(486.71875 0)"/>
     <use xlink:href="#DejaVuSans-Bold-74" transform="translate(546.240234 0)"/>
     <use xlink:href="#DejaVuSans-Bold-79" transform="translate(594.042969 0)"/>
     <use xlink:href="#DejaVuSans-Bold-6c" transform="translate(659.228516 0)"/>
     <use xlink:href="#DejaVuSans-Bold-65" transform="translate(693.505859 0)"/>
    </g>
   </g>
   <g id="text_17">
    <!-- China's Four Global Initiatives -->
    <g style="fill: #2c3e50" transform="translate(474.541562 68.184) scale(0.68 -0.68)">
     <defs>
      <path id="DejaVuSans-Bold-27" d="M 1350 4666 
L 1350 2931 
L 609 2931 
L 609 4666 
L 1350 4666 
z
" transform="scale(0.015625)"/>
      <path id="DejaVuSans-Bold-46" d="M 588 4666 
L 3834 4666 
L 3834 3756 
L 1791 3756 
L 1791 2888 
L 3713 2888 
L 3713 1978 
L 1791 1978 
L 1791 0 
L 588 0 
L 588 4666 
z
" transform="scale(0.015625)"/>
      <path id="DejaVuSans-Bold-62" d="M 2400 722 
Q 2759 722 2948 984 
Q 3138 1247 3138 1747 
Q 3138 2247 2948 2509 
Q 2759 2772 2400 2772 
Q 2041 2772 1848 2508 
Q 1656 2244 1656 1747 
Q 1656 1250 1848 986 
Q 2041 722 2400 722 
z
M 1656 2988 
Q 1888 3294 2169 3439 
Q 2450 3584 2816 3584 
Q 3463 3584 3878 3070 
Q 4294 2556 4294 1747 
Q 4294 938 3878 423 
Q 3463 -91 2816 -91 
Q 2450 -91 2169 54 
Q 1888 200 1656 506 
L 1656 0 
L 538 0 
L 538 4863 
L 1656 4863 
L 1656 2988 
z
" transform="scale(0.015625)"/>
     </defs>
     <use xlink:href="#DejaVuSans-Bold-43"/>
     <use xlink:href="#DejaVuSans-Bold-68" transform="translate(73.388672 0)"/>
     <use xlink:href="#DejaVuSans-Bold-69" transform="translate(144.580078 0)"/>
     <use xlink:href="#DejaVuSans-Bold-6e" transform="translate(178.857422 0)"/>
     <use xlink:href="#DejaVuSans-Bold-61" transform="translate(250.048828 0)"/>
     <use xlink:href="#DejaVuSans-Bold-27" transform="translate(317.529297 0)"/>
     <use xlink:href="#DejaVuSans-Bold-73" transform="translate(348.144531 0)"/>
     <use xlink:href="#DejaVuSans-Bold-20" transform="translate(407.666016 0)"/>
     <use xlink:href="#DejaVuSans-Bold-46" transform="translate(442.480469 0)"/>
     <use xlink:href="#DejaVuSans-Bold-6f" transform="translate(506.791016 0)"/>
     <use xlink:href="#DejaVuSans-Bold-75" transform="translate(575.492188 0)"/>
     <use xlink:href="#DejaVuSans-Bold-72" transform="translate(646.683594 0)"/>
     <use xlink:href="#DejaVuSans-Bold-20" transform="translate(696 0)"/>
     <use xlink:href="#DejaVuSans-Bold-47" transform="translate(730.814453 0)"/>
     <use xlink:href="#DejaVuSans-Bold-6c" transform="translate(812.894531 0)"/>
     <use xlink:href="#DejaVuSans-Bold-6f" transform="translate(847.171875 0)"/>
     <use xlink:href="#DejaVuSans-Bold-62" transform="translate(915.873047 0)"/>
     <use xlink:href="#DejaVuSans-Bold-61" transform="translate(987.455078 0)"/>
     <use xlink:href="#DejaVuSans-Bold-6c" transform="translate(1054.935547 0)"/>
     <use xlink:href="#DejaVuSans-Bold-20" transform="translate(1089.212891 0)"/>
     <use xlink:href="#DejaVuSans-Bold-49" transform="translate(1124.027344 0)"/>
     <use xlink:href="#DejaVuSans-Bold-6e" transform="translate(1161.234375 0)"/>
     <use xlink:href="#DejaVuSans-Bold-69" transform="translate(1232.425781 0)"/>
     <use xlink:href="#DejaVuSans-Bold-74" transform="translate(1266.703125 0)"/>
     <use xlink:href="#DejaVuSans-Bold-69" transform="translate(1314.505859 0)"/>
     <use xlink:href="#DejaVuSans-Bold-61" transform="translate(1348.783203 0)"/>
     <use xlink:href="#DejaVuSans-Bold-74" transform="translate(1416.263672 0)"/>
     <use xlink:href="#DejaVuSans-Bold-69" transform="translate(1464.066406 0)"/>
     <use xlink:href="#DejaVuSans-Bold-76" transform="translate(1498.34375 0)"/>
     <use xlink:href="#DejaVuSans-Bold-65" transform="translate(1563.529297 0)"/>
     <use xlink:href="#DejaVuSans-Bold-73" transform="translate(1631.351562 0)"/>
    </g>
   </g>
   <g id="text_18">
    <!-- Normalizing MCF approaches in international governance -->
    <g style="fill: #7f8c8d" transform="translate(388.115469 159.66) scale(0.46 -0.46)">
     <defs>
      <path id="DejaVuSans-Oblique-4e" d="M 1081 4666 
L 1931 4666 
L 3219 666 
L 4000 4666 
L 4616 4666 
L 3706 0 
L 2853 0 
L 1569 4025 
L 788 0 
L 172 0 
L 1081 4666 
z
" transform="scale(0.015625)"/>
      <path id="DejaVuSans-Oblique-6f" d="M 1625 -91 
Q 1009 -91 651 289 
Q 294 669 294 1325 
Q 294 1706 417 2101 
Q 541 2497 738 2766 
Q 1047 3184 1428 3384 
Q 1809 3584 2291 3584 
Q 2888 3584 3255 3212 
Q 3622 2841 3622 2241 
Q 3622 1825 3500 1412 
Q 3378 1000 3181 728 
Q 2875 309 2494 109 
Q 2113 -91 1625 -91 
z
M 891 1344 
Q 891 869 1089 633 
Q 1288 397 1691 397 
Q 2269 397 2648 901 
Q 3028 1406 3028 2181 
Q 3028 2634 2825 2865 
Q 2622 3097 2228 3097 
Q 1903 3097 1650 2945 
Q 1397 2794 1197 2484 
Q 1050 2253 970 1956 
Q 891 1659 891 1344 
z
" transform="scale(0.015625)"/>
      <path id="DejaVuSans-Oblique-72" d="M 2853 2969 
Q 2766 3016 2653 3041 
Q 2541 3066 2413 3066 
Q 1953 3066 1609 2717 
Q 1266 2369 1153 1784 
L 800 0 
L 225 0 
L 909 3500 
L 1484 3500 
L 1375 2956 
Q 1603 3259 1920 3421 
Q 2238 3584 2597 3584 
Q 2691 3584 2781 3573 
Q 2872 3563 2963 3538 
L 2853 2969 
z
" transform="scale(0.015625)"/>
      <path id="DejaVuSans-Oblique-6d" d="M 5747 2113 
L 5338 0 
L 4763 0 
L 5166 2094 
Q 5191 2228 5203 2325 
Q 5216 2422 5216 2491 
Q 5216 2772 5059 2928 
Q 4903 3084 4622 3084 
Q 4203 3084 3875 2770 
Q 3547 2456 3450 1953 
L 3066 0 
L 2491 0 
L 2900 2094 
Q 2925 2209 2937 2307 
Q 2950 2406 2950 2484 
Q 2950 2769 2794 2926 
Q 2638 3084 2363 3084 
Q 1938 3084 1609 2770 
Q 1281 2456 1184 1953 
L 800 0 
L 225 0 
L 909 3500 
L 1484 3500 
L 1375 2956 
Q 1609 3263 1923 3423 
Q 2238 3584 2597 3584 
Q 2978 3584 3223 3384 
Q 3469 3184 3519 2828 
Q 3781 3197 4126 3390 
Q 4472 3584 4856 3584 
Q 5306 3584 5551 3325 
Q 5797 3066 5797 2591 
Q 5797 2488 5784 2364 
Q 5772 2241 5747 2113 
z
" transform="scale(0.015625)"/>
      <path id="DejaVuSans-Oblique-61" d="M 3438 1997 
L 3047 0 
L 2472 0 
L 2578 531 
Q 2325 219 2001 64 
Q 1678 -91 1281 -91 
Q 834 -91 548 182 
Q 263 456 263 884 
Q 263 1497 752 1853 
Q 1241 2209 2100 2209 
L 2900 2209 
L 2931 2363 
Q 2938 2388 2941 2417 
Q 2944 2447 2944 2509 
Q 2944 2788 2717 2942 
Q 2491 3097 2081 3097 
Q 1800 3097 1504 3025 
Q 1209 2953 897 2809 
L 997 3341 
Q 1322 3463 1633 3523 
Q 1944 3584 2234 3584 
Q 2853 3584 3176 3315 
Q 3500 3047 3500 2534 
Q 3500 2431 3484 2292 
Q 3469 2153 3438 1997 
z
M 2816 1759 
L 2241 1759 
Q 1534 1759 1195 1570 
Q 856 1381 856 984 
Q 856 709 1029 553 
Q 1203 397 1509 397 
Q 1978 397 2328 733 
Q 2678 1069 2791 1631 
L 2816 1759 
z
" transform="scale(0.015625)"/>
      <path id="DejaVuSans-Oblique-6c" d="M 1172 4863 
L 1747 4863 
L 800 0 
L 225 0 
L 1172 4863 
z
" transform="scale(0.015625)"/>
      <path id="DejaVuSans-Oblique-69" d="M 1172 4863 
L 1747 4863 
L 1606 4134 
L 1031 4134 
L 1172 4863 
z
M 909 3500 
L 1484 3500 
L 800 0 
L 225 0 
L 909 3500 
z
" transform="scale(0.015625)"/>
      <path id="DejaVuSans-Oblique-7a" d="M 744 3500 
L 3475 3500 
L 3372 2975 
L 738 459 
L 2913 459 
L 2822 0 
L -19 0 
L 84 525 
L 2719 3041 
L 653 3041 
L 744 3500 
z
" transform="scale(0.015625)"/>
      <path id="DejaVuSans-Oblique-6e" d="M 3566 2113 
L 3156 0 
L 2578 0 
L 2988 2091 
Q 3016 2238 3031 2350 
Q 3047 2463 3047 2528 
Q 3047 2791 2881 2937 
Q 2716 3084 2419 3084 
Q 1956 3084 1622 2776 
Q 1288 2469 1184 1941 
L 800 0 
L 225 0 
L 903 3500 
L 1478 3500 
L 1363 2950 
Q 1603 3253 1940 3418 
Q 2278 3584 2650 3584 
Q 3113 3584 3367 3334 
Q 3622 3084 3622 2631 
Q 3622 2519 3608 2391 
Q 3594 2263 3566 2113 
z
" transform="scale(0.015625)"/>
      <path id="DejaVuSans-Oblique-67" d="M 3816 3500 
L 3219 434 
Q 3047 -456 2561 -893 
Q 2075 -1331 1253 -1331 
Q 950 -1331 690 -1286 
Q 431 -1241 206 -1147 
L 313 -588 
Q 525 -725 762 -790 
Q 1000 -856 1269 -856 
Q 1816 -856 2167 -557 
Q 2519 -259 2631 300 
L 2681 563 
Q 2441 288 2122 144 
Q 1803 0 1434 0 
Q 903 0 598 351 
Q 294 703 294 1319 
Q 294 1803 478 2267 
Q 663 2731 997 3091 
Q 1219 3328 1514 3456 
Q 1809 3584 2131 3584 
Q 2484 3584 2746 3420 
Q 3009 3256 3138 2956 
L 3238 3500 
L 3816 3500 
z
M 2950 2216 
Q 2950 2641 2750 2872 
Q 2550 3103 2181 3103 
Q 1953 3103 1747 3012 
Q 1541 2922 1394 2759 
Q 1156 2491 1023 2127 
Q 891 1763 891 1375 
Q 891 944 1092 712 
Q 1294 481 1672 481 
Q 2219 481 2584 976 
Q 2950 1472 2950 2216 
z
" transform="scale(0.015625)"/>
      <path id="DejaVuSans-Oblique-20" transform="scale(0.015625)"/>
      <path id="DejaVuSans-Oblique-4d" d="M 1081 4666 
L 2028 4666 
L 2572 1522 
L 4378 4666 
L 5350 4666 
L 4441 0 
L 3828 0 
L 4622 4091 
L 2791 897 
L 2175 897 
L 1581 4103 
L 788 0 
L 172 0 
L 1081 4666 
z
" transform="scale(0.015625)"/>
      <path id="DejaVuSans-Oblique-43" d="M 4447 4306 
L 4319 3641 
Q 4019 3944 3683 4091 
Q 3347 4238 2956 4238 
Q 2422 4238 2017 3981 
Q 1613 3725 1319 3200 
Q 1131 2863 1032 2486 
Q 934 2109 934 1728 
Q 934 1091 1264 756 
Q 1594 422 2222 422 
Q 2656 422 3056 561 
Q 3456 700 3834 978 
L 3688 231 
Q 3316 72 2936 -9 
Q 2556 -91 2175 -91 
Q 1278 -91 773 396 
Q 269 884 269 1753 
Q 269 2309 461 2846 
Q 653 3384 1013 3828 
Q 1394 4300 1883 4525 
Q 2372 4750 3022 4750 
Q 3422 4750 3780 4639 
Q 4138 4528 4447 4306 
z
" transform="scale(0.015625)"/>
      <path id="DejaVuSans-Oblique-46" d="M 1081 4666 
L 3756 4666 
L 3653 4134 
L 1606 4134 
L 1338 2759 
L 3188 2759 
L 3084 2228 
L 1234 2228 
L 800 0 
L 172 0 
L 1081 4666 
z
" transform="scale(0.015625)"/>
      <path id="DejaVuSans-Oblique-70" d="M 3175 2156 
Q 3175 2616 2975 2859 
Q 2775 3103 2400 3103 
Q 2144 3103 1911 2972 
Q 1678 2841 1497 2591 
Q 1319 2344 1212 1994 
Q 1106 1644 1106 1300 
Q 1106 863 1306 627 
Q 1506 391 1875 391 
Q 2147 391 2380 519 
Q 2613 647 2778 891 
Q 2956 1147 3065 1494 
Q 3175 1841 3175 2156 
z
M 1394 2969 
Q 1625 3272 1939 3428 
Q 2253 3584 2638 3584 
Q 3175 3584 3472 3232 
Q 3769 2881 3769 2247 
Q 3769 1728 3584 1258 
Q 3400 788 3053 416 
Q 2822 169 2531 39 
Q 2241 -91 1919 -91 
Q 1547 -91 1294 64 
Q 1041 219 916 525 
L 556 -1331 
L -19 -1331 
L 922 3500 
L 1497 3500 
L 1394 2969 
z
" transform="scale(0.015625)"/>
      <path id="DejaVuSans-Oblique-63" d="M 3431 3366 
L 3316 2797 
Q 3109 2947 2876 3022 
Q 2644 3097 2394 3097 
Q 2119 3097 1870 3000 
Q 1622 2903 1453 2725 
Q 1184 2453 1037 2087 
Q 891 1722 891 1331 
Q 891 859 1127 628 
Q 1363 397 1844 397 
Q 2081 397 2348 469 
Q 2616 541 2906 684 
L 2797 116 
Q 2547 13 2283 -39 
Q 2019 -91 1741 -91 
Q 1044 -91 669 257 
Q 294 606 294 1253 
Q 294 1797 489 2255 
Q 684 2713 1069 3078 
Q 1331 3328 1684 3456 
Q 2038 3584 2456 3584 
Q 2700 3584 2940 3529 
Q 3181 3475 3431 3366 
z
" transform="scale(0.015625)"/>
      <path id="DejaVuSans-Oblique-68" d="M 3566 2113 
L 3156 0 
L 2578 0 
L 2988 2091 
Q 3016 2238 3031 2350 
Q 3047 2463 3047 2528 
Q 3047 2791 2881 2937 
Q 2716 3084 2419 3084 
Q 1956 3084 1617 2771 
Q 1278 2459 1178 1941 
L 800 0 
L 225 0 
L 1172 4863 
L 1747 4863 
L 1375 2950 
Q 1594 3244 1934 3414 
Q 2275 3584 2650 3584 
Q 3113 3584 3367 3334 
Q 3622 3084 3622 2631 
Q 3622 2519 3608 2391 
Q 3594 2263 3566 2113 
z
" transform="scale(0.015625)"/>
      <path id="DejaVuSans-Oblique-65" d="M 3078 2063 
Q 3088 2113 3092 2166 
Q 3097 2219 3097 2272 
Q 3097 2653 2873 2875 
Q 2650 3097 2266 3097 
Q 1838 3097 1509 2826 
Q 1181 2556 1013 2059 
L 3078 2063 
z
M 3578 1613 
L 903 1613 
Q 884 1494 878 1425 
Q 872 1356 872 1306 
Q 872 872 1139 634 
Q 1406 397 1894 397 
Q 2269 397 2603 481 
Q 2938 566 3225 728 
L 3116 159 
Q 2806 34 2476 -28 
Q 2147 -91 1806 -91 
Q 1078 -91 686 257 
Q 294 606 294 1247 
Q 294 1794 489 2264 
Q 684 2734 1063 3103 
Q 1306 3334 1642 3459 
Q 1978 3584 2356 3584 
Q 2950 3584 3301 3228 
Q 3653 2872 3653 2272 
Q 3653 2128 3634 1964 
Q 3616 1800 3578 1613 
z
" transform="scale(0.015625)"/>
      <path id="DejaVuSans-Oblique-73" d="M 3200 3397 
L 3091 2853 
Q 2863 2978 2609 3040 
Q 2356 3103 2088 3103 
Q 1634 3103 1373 2948 
Q 1113 2794 1113 2528 
Q 1113 2219 1719 2053 
Q 1766 2041 1788 2034 
L 1972 1978 
Q 2547 1819 2739 1644 
Q 2931 1469 2931 1166 
Q 2931 609 2489 259 
Q 2047 -91 1331 -91 
Q 1053 -91 747 -37 
Q 441 16 72 128 
L 184 722 
Q 500 559 806 475 
Q 1113 391 1394 391 
Q 1816 391 2080 572 
Q 2344 753 2344 1031 
Q 2344 1331 1650 1516 
L 1591 1531 
L 1394 1581 
Q 956 1697 753 1886 
Q 550 2075 550 2369 
Q 550 2928 970 3256 
Q 1391 3584 2113 3584 
Q 2397 3584 2667 3537 
Q 2938 3491 3200 3397 
z
" transform="scale(0.015625)"/>
      <path id="DejaVuSans-Oblique-74" d="M 2706 3500 
L 2619 3053 
L 1472 3053 
L 1100 1153 
Q 1081 1047 1072 975 
Q 1063 903 1063 863 
Q 1063 663 1183 572 
Q 1303 481 1569 481 
L 2150 481 
L 2053 0 
L 1503 0 
Q 991 0 739 200 
Q 488 400 488 806 
Q 488 878 497 964 
Q 506 1050 525 1153 
L 897 3053 
L 409 3053 
L 500 3500 
L 978 3500 
L 1172 4494 
L 1747 4494 
L 1556 3500 
L 2706 3500 
z
" transform="scale(0.015625)"/>
      <path id="DejaVuSans-Oblique-76" d="M 459 3500 
L 1069 3500 
L 1581 525 
L 3256 3500 
L 3866 3500 
L 1875 0 
L 1100 0 
L 459 3500 
z
" transform="scale(0.015625)"/>
     </defs>
     <use xlink:href="#DejaVuSans-Oblique-4e"/>
     <use xlink:href="#DejaVuSans-Oblique-6f" transform="translate(74.804688 0)"/>
     <use xlink:href="#DejaVuSans-Oblique-72" transform="translate(135.986328 0)"/>
     <use xlink:href="#DejaVuSans-Oblique-6d" transform="translate(177.099609 0)"/>
     <use xlink:href="#DejaVuSans-Oblique-61" transform="translate(274.511719 0)"/>
     <use xlink:href="#DejaVuSans-Oblique-6c" transform="translate(335.791016 0)"/>
     <use xlink:href="#DejaVuSans-Oblique-69" transform="translate(363.574219 0)"/>
     <use xlink:href="#DejaVuSans-Oblique-7a" transform="translate(391.357422 0)"/>
     <use xlink:href="#DejaVuSans-Oblique-69" transform="translate(443.847656 0)"/>
     <use xlink:href="#DejaVuSans-Oblique-6e" transform="translate(471.630859 0)"/>
     <use xlink:href="#DejaVuSans-Oblique-67" transform="translate(535.009766 0)"/>
     <use xlink:href="#DejaVuSans-Oblique-20" transform="translate(598.486328 0)"/>
     <use xlink:href="#DejaVuSans-Oblique-4d" transform="translate(630.273438 0)"/>
     <use xlink:href="#DejaVuSans-Oblique-43" transform="translate(716.552734 0)"/>
     <use xlink:href="#DejaVuSans-Oblique-46" transform="translate(786.376953 0)"/>
     <use xlink:href="#DejaVuSans-Oblique-20" transform="translate(843.896484 0)"/>
     <use xlink:href="#DejaVuSans-Oblique-61" transform="translate(875.683594 0)"/>
     <use xlink:href="#DejaVuSans-Oblique-70" transform="translate(936.962891 0)"/>
     <use xlink:href="#DejaVuSans-Oblique-70" transform="translate(1000.439453 0)"/>
     <use xlink:href="#DejaVuSans-Oblique-72" transform="translate(1063.916016 0)"/>
     <use xlink:href="#DejaVuSans-Oblique-6f" transform="translate(1105.029297 0)"/>
     <use xlink:href="#DejaVuSans-Oblique-61" transform="translate(1166.210938 0)"/>
     <use xlink:href="#DejaVuSans-Oblique-63" transform="translate(1227.490234 0)"/>
     <use xlink:href="#DejaVuSans-Oblique-68" transform="translate(1282.470703 0)"/>
     <use xlink:href="#DejaVuSans-Oblique-65" transform="translate(1345.849609 0)"/>
     <use xlink:href="#DejaVuSans-Oblique-73" transform="translate(1407.373047 0)"/>
     <use xlink:href="#DejaVuSans-Oblique-20" transform="translate(1459.472656 0)"/>
     <use xlink:href="#DejaVuSans-Oblique-69" transform="translate(1491.259766 0)"/>
     <use xlink:href="#DejaVuSans-Oblique-6e" transform="translate(1519.042969 0)"/>
     <use xlink:href="#DejaVuSans-Oblique-20" transform="translate(1582.421875 0)"/>
     <use xlink:href="#DejaVuSans-Oblique-69" transform="translate(1614.208984 0)"/>
     <use xlink:href="#DejaVuSans-Oblique-6e" transform="translate(1641.992188 0)"/>
     <use xlink:href="#DejaVuSans-Oblique-74" transform="translate(1705.371094 0)"/>
     <use xlink:href="#DejaVuSans-Oblique-65" transform="translate(1744.580078 0)"/>
     <use xlink:href="#DejaVuSans-Oblique-72" transform="translate(1806.103516 0)"/>
     <use xlink:href="#DejaVuSans-Oblique-6e" transform="translate(1847.216797 0)"/>
     <use xlink:href="#DejaVuSans-Oblique-61" transform="translate(1910.595703 0)"/>
     <use xlink:href="#DejaVuSans-Oblique-74" transform="translate(1971.875 0)"/>
     <use xlink:href="#DejaVuSans-Oblique-69" transform="translate(2011.083984 0)"/>
     <use xlink:href="#DejaVuSans-Oblique-6f" transform="translate(2038.867188 0)"/>
     <use xlink:href="#DejaVuSans-Oblique-6e" transform="translate(2100.048828 0)"/>
     <use xlink:href="#DejaVuSans-Oblique-61" transform="translate(2163.427734 0)"/>
     <use xlink:href="#DejaVuSans-Oblique-6c" transform="translate(2224.707031 0)"/>
     <use xlink:href="#DejaVuSans-Oblique-20" transform="translate(2252.490234 0)"/>
     <use xlink:href="#DejaVuSans-Oblique-67" transform="translate(2284.277344 0)"/>
     <use xlink:href="#DejaVuSans-Oblique-6f" transform="translate(2347.753906 0)"/>
     <use xlink:href="#DejaVuSans-Oblique-76" transform="translate(2408.935547 0)"/>
     <use xlink:href="#DejaVuSans-Oblique-65" transform="translate(2468.115234 0)"/>
     <use xlink:href="#DejaVuSans-Oblique-72" transform="translate(2529.638672 0)"/>
     <use xlink:href="#DejaVuSans-Oblique-6e" transform="translate(2570.751953 0)"/>
     <use xlink:href="#DejaVuSans-Oblique-61" transform="translate(2634.130859 0)"/>
     <use xlink:href="#DejaVuSans-Oblique-6e" transform="translate(2695.410156 0)"/>
     <use xlink:href="#DejaVuSans-Oblique-63" transform="translate(2758.789062 0)"/>
     <use xlink:href="#DejaVuSans-Oblique-65" transform="translate(2813.769531 0)"/>
    </g>
   </g>
   <g id="text_19">
    <!-- 100+ countries support  UN framework integration  Norm shift in progress -->
    <g style="fill: #e74c3c" transform="translate(7.2 1165.896) scale(0.48 -0.48)">
     <defs>
      <path id="DejaVuSans-Bold-31" d="M 750 831 
L 1813 831 
L 1813 3847 
L 722 3622 
L 722 4441 
L 1806 4666 
L 2950 4666 
L 2950 831 
L 4013 831 
L 4013 0 
L 750 0 
L 750 831 
z
" transform="scale(0.015625)"/>
      <path id="DejaVuSans-Bold-30" d="M 2944 2338 
Q 2944 3213 2780 3570 
Q 2616 3928 2228 3928 
Q 1841 3928 1675 3570 
Q 1509 3213 1509 2338 
Q 1509 1453 1675 1090 
Q 1841 728 2228 728 
Q 2613 728 2778 1090 
Q 2944 1453 2944 2338 
z
M 4147 2328 
Q 4147 1169 3647 539 
Q 3147 -91 2228 -91 
Q 1306 -91 806 539 
Q 306 1169 306 2328 
Q 306 3491 806 4120 
Q 1306 4750 2228 4750 
Q 3147 4750 3647 4120 
Q 4147 3491 4147 2328 
z
" transform="scale(0.015625)"/>
      <path id="DejaVuSans-Bold-2b" d="M 3053 4013 
L 3053 2375 
L 4684 2375 
L 4684 1638 
L 3053 1638 
L 3053 0 
L 2309 0 
L 2309 1638 
L 678 1638 
L 678 2375 
L 2309 2375 
L 2309 4013 
L 3053 4013 
z
" transform="scale(0.015625)"/>
      <path id="DejaVuSans-Bold-2022" d="M 922 2381 
Q 922 2613 1005 2816 
Q 1088 3019 1247 3175 
Q 1413 3334 1616 3417 
Q 1819 3500 2047 3500 
Q 2275 3500 2479 3415 
Q 2684 3331 2841 3175 
Q 3003 3013 3086 2811 
Q 3169 2609 3169 2381 
Q 3169 2150 3084 1945 
Q 3000 1741 2841 1581 
Q 2681 1422 2476 1337 
Q 2272 1253 2041 1253 
Q 1813 1253 1609 1337 
Q 1406 1422 1247 1581 
Q 1091 1741 1006 1945 
Q 922 2150 922 2381 
z
" transform="scale(0.015625)"/>
      <path id="DejaVuSans-Bold-55" d="M 588 4666 
L 1791 4666 
L 1791 1869 
Q 1791 1291 1980 1042 
Q 2169 794 2597 794 
Q 3028 794 3217 1042 
Q 3406 1291 3406 1869 
L 3406 4666 
L 4609 4666 
L 4609 1869 
Q 4609 878 4112 393 
Q 3616 -91 2597 -91 
Q 1581 -91 1084 393 
Q 588 878 588 1869 
L 588 4666 
z
" transform="scale(0.015625)"/>
      <path id="DejaVuSans-Bold-4e" d="M 588 4666 
L 1931 4666 
L 3628 1466 
L 3628 4666 
L 4769 4666 
L 4769 0 
L 3425 0 
L 1728 3200 
L 1728 0 
L 588 0 
L 588 4666 
z
" transform="scale(0.015625)"/>
      <path id="DejaVuSans-Bold-77" d="M 225 3500 
L 1313 3500 
L 1900 1088 
L 2491 3500 
L 3425 3500 
L 4013 1113 
L 4603 3500 
L 5691 3500 
L 4769 0 
L 3547 0 
L 2956 2406 
L 2369 0 
L 1147 0 
L 225 3500 
z
" transform="scale(0.015625)"/>
      <path id="DejaVuSans-Bold-6b" d="M 538 4863 
L 1656 4863 
L 1656 2216 
L 2944 3500 
L 4244 3500 
L 2534 1894 
L 4378 0 
L 3022 0 
L 1656 1459 
L 1656 0 
L 538 0 
L 538 4863 
z
" transform="scale(0.015625)"/>
     </defs>
     <use xlink:href="#DejaVuSans-Bold-31"/>
     <use xlink:href="#DejaVuSans-Bold-30" transform="translate(69.580078 0)"/>
     <use xlink:href="#DejaVuSans-Bold-30" transform="translate(139.160156 0)"/>
     <use xlink:href="#DejaVuSans-Bold-2b" transform="translate(208.740234 0)"/>
     <use xlink:href="#DejaVuSans-Bold-20" transform="translate(292.529297 0)"/>
     <use xlink:href="#DejaVuSans-Bold-63" transform="translate(327.34375 0)"/>
     <use xlink:href="#DejaVuSans-Bold-6f" transform="translate(386.621094 0)"/>
     <use xlink:href="#DejaVuSans-Bold-75" transform="translate(455.322266 0)"/>
     <use xlink:href="#DejaVuSans-Bold-6e" transform="translate(526.513672 0)"/>
     <use xlink:href="#DejaVuSans-Bold-74" transform="translate(597.705078 0)"/>
     <use xlink:href="#DejaVuSans-Bold-72" transform="translate(645.507812 0)"/>
     <use xlink:href="#DejaVuSans-Bold-69" transform="translate(694.824219 0)"/>
     <use xlink:href="#DejaVuSans-Bold-65" transform="translate(729.101562 0)"/>
     <use xlink:href="#DejaVuSans-Bold-73" transform="translate(796.923828 0)"/>
     <use xlink:href="#DejaVuSans-Bold-20" transform="translate(856.445312 0)"/>
     <use xlink:href="#DejaVuSans-Bold-73" transform="translate(891.259766 0)"/>
     <use xlink:href="#DejaVuSans-Bold-75" transform="translate(950.78125 0)"/>
     <use xlink:href="#DejaVuSans-Bold-70" transform="translate(1021.972656 0)"/>
     <use xlink:href="#DejaVuSans-Bold-70" transform="translate(1093.554688 0)"/>
     <use xlink:href="#DejaVuSans-Bold-6f" transform="translate(1165.136719 0)"/>
     <use xlink:href="#DejaVuSans-Bold-72" transform="translate(1233.837891 0)"/>
     <use xlink:href="#DejaVuSans-Bold-74" transform="translate(1283.154297 0)"/>
     <use xlink:href="#DejaVuSans-Bold-20" transform="translate(1330.957031 0)"/>
     <use xlink:href="#DejaVuSans-Bold-2022" transform="translate(1365.771484 0)"/>
     <use xlink:href="#DejaVuSans-Bold-20" transform="translate(1429.6875 0)"/>
     <use xlink:href="#DejaVuSans-Bold-55" transform="translate(1464.501953 0)"/>
     <use xlink:href="#DejaVuSans-Bold-4e" transform="translate(1545.703125 0)"/>
     <use xlink:href="#DejaVuSans-Bold-20" transform="translate(1629.394531 0)"/>
     <use xlink:href="#DejaVuSans-Bold-66" transform="translate(1664.208984 0)"/>
     <use xlink:href="#DejaVuSans-Bold-72" transform="translate(1707.714844 0)"/>
     <use xlink:href="#DejaVuSans-Bold-61" transform="translate(1757.03125 0)"/>
     <use xlink:href="#DejaVuSans-Bold-6d" transform="translate(1824.511719 0)"/>
     <use xlink:href="#DejaVuSans-Bold-65" transform="translate(1928.710938 0)"/>
     <use xlink:href="#DejaVuSans-Bold-77" transform="translate(1996.533203 0)"/>
     <use xlink:href="#DejaVuSans-Bold-6f" transform="translate(2088.916016 0)"/>
     <use xlink:href="#DejaVuSans-Bold-72" transform="translate(2157.617188 0)"/>
     <use xlink:href="#DejaVuSans-Bold-6b" transform="translate(2206.933594 0)"/>
     <use xlink:href="#DejaVuSans-Bold-20" transform="translate(2273.4375 0)"/>
     <use xlink:href="#DejaVuSans-Bold-69" transform="translate(2308.251953 0)"/>
     <use xlink:href="#DejaVuSans-Bold-6e" transform="translate(2342.529297 0)"/>
     <use xlink:href="#DejaVuSans-Bold-74" transform="translate(2413.720703 0)"/>
     <use xlink:href="#DejaVuSans-Bold-65" transform="translate(2461.523438 0)"/>
     <use xlink:href="#DejaVuSans-Bold-67" transform="translate(2529.345703 0)"/>
     <use xlink:href="#DejaVuSans-Bold-72" transform="translate(2600.927734 0)"/>
     <use xlink:href="#DejaVuSans-Bold-61" transform="translate(2650.244141 0)"/>
     <use xlink:href="#DejaVuSans-Bold-74" transform="translate(2717.724609 0)"/>
     <use xlink:href="#DejaVuSans-Bold-69" transform="translate(2765.527344 0)"/>
     <use xlink:href="#DejaVuSans-Bold-6f" transform="translate(2799.804688 0)"/>
     <use xlink:href="#DejaVuSans-Bold-6e" transform="translate(2868.505859 0)"/>
     <use xlink:href="#DejaVuSans-Bold-20" transform="translate(2939.697266 0)"/>
     <use xlink:href="#DejaVuSans-Bold-2022" transform="translate(2974.511719 0)"/>
     <use xlink:href="#DejaVuSans-Bold-20" transform="translate(3038.427734 0)"/>
     <use xlink:href="#DejaVuSans-Bold-4e" transform="translate(3073.242188 0)"/>
     <use xlink:href="#DejaVuSans-Bold-6f" transform="translate(3156.933594 0)"/>
     <use xlink:href="#DejaVuSans-Bold-72" transform="translate(3225.634766 0)"/>
     <use xlink:href="#DejaVuSans-Bold-6d" transform="translate(3274.951172 0)"/>
     <use xlink:href="#DejaVuSans-Bold-20" transform="translate(3379.150391 0)"/>
     <use xlink:href="#DejaVuSans-Bold-73" transform="translate(3413.964844 0)"/>
     <use xlink:href="#DejaVuSans-Bold-68" transform="translate(3473.486328 0)"/>
     <use xlink:href="#DejaVuSans-Bold-69" transform="translate(3544.677734 0)"/>
     <use xlink:href="#DejaVuSans-Bold-66" transform="translate(3578.955078 0)"/>
     <use xlink:href="#DejaVuSans-Bold-74" transform="translate(3622.460938 0)"/>
     <use xlink:href="#DejaVuSans-Bold-20" transform="translate(3670.263672 0)"/>
     <use xlink:href="#DejaVuSans-Bold-69" transform="translate(3705.078125 0)"/>
     <use xlink:href="#DejaVuSans-Bold-6e" transform="translate(3739.355469 0)"/>
     <use xlink:href="#DejaVuSans-Bold-20" transform="translate(3810.546875 0)"/>
     <use xlink:href="#DejaVuSans-Bold-70" transform="translate(3845.361328 0)"/>
     <use xlink:href="#DejaVuSans-Bold-72" transform="translate(3916.943359 0)"/>
     <use xlink:href="#DejaVuSans-Bold-6f" transform="translate(3966.259766 0)"/>
     <use xlink:href="#DejaVuSans-Bold-67" transform="translate(4034.960938 0)"/>
     <use xlink:href="#DejaVuSans-Bold-72" transform="translate(4106.542969 0)"/>
     <use xlink:href="#DejaVuSans-Bold-65" transform="translate(4155.859375 0)"/>
     <use xlink:href="#DejaVuSans-Bold-73" transform="translate(4223.681641 0)"/>
     <use xlink:href="#DejaVuSans-Bold-73" transform="translate(4283.203125 0)"/>
    </g>
   </g>
   <g id="patch_2">
    <path d="M 199.556827 665.8272 
L 972.172212 665.8272 
Q 995.350673 665.8272 995.350673 647.532 
L 995.350673 342.612 
Q 995.350673 324.3168 972.172212 324.3168 
L 199.556827 324.3168 
Q 176.378365 324.3168 176.378365 342.612 
L 176.378365 647.532 
Q 176.378365 665.8272 199.556827 665.8272 
z
" clip-path="url(#p48aa2dd057)" style="fill: #e74c3c; stroke: #ffffff; stroke-width: 6; stroke-linejoin: miter"/>
   </g>
   <g id="patch_3">
    <path d="M 1126.695288 665.8272 
L 1899.310673 665.8272 
Q 1922.489135 665.8272 1922.489135 647.532 
L 1922.489135 342.612 
Q 1922.489135 324.3168 1899.310673 324.3168 
L 1126.695288 324.3168 
Q 1103.516827 324.3168 1103.516827 342.612 
L 1103.516827 647.532 
Q 1103.516827 665.8272 1126.695288 665.8272 
z
" clip-path="url(#p48aa2dd057)" style="fill: #f39c12; stroke: #ffffff; stroke-width: 6; stroke-linejoin: miter"/>
   </g>
   <g id="patch_4">
    <path d="M 199.556827 1031.7312 
L 972.172212 1031.7312 
Q 995.350673 1031.7312 995.350673 1013.436 
L 995.350673 708.516 
Q 995.350673 690.2208 972.172212 690.2208 
L 199.556827 690.2208 
Q 176.378365 690.2208 176.378365 708.516 
L 176.378365 1013.436 
Q 176.378365 1031.7312 199.556827 1031.7312 
z
" clip-path="url(#p48aa2dd057)" style="fill: #3498db; stroke: #ffffff; stroke-width: 6; stroke-linejoin: miter"/>
   </g>
   <g id="patch_5">
    <path d="M 1126.695288 1031.7312 
L 1899.310673 1031.7312 
Q 1922.489135 1031.7312 1922.489135 1013.436 
L 1922.489135 708.516 
Q 1922.489135 690.2208 1899.310673 690.2208 
L 1126.695288 690.2208 
Q 1103.516827 690.2208 1103.516827 708.516 
L 1103.516827 1013.436 
Q 1103.516827 1031.7312 1126.695288 1031.7312 
z
" clip-path="url(#p48aa2dd057)" style="fill: #9b59b6; stroke: #ffffff; stroke-width: 6; stroke-linejoin: miter"/>
   </g>
  </g>
 </g>
 <defs>
  <clipPath id="p48aa2dd057">
   <rect x="45.03375" y="7.2" width="2008.8" height="1219.68"/>
  </clipPath>
 </defs>
</svg>
