<?xml version="1.0" encoding="utf-8" standalone="no"?>
<!DOCTYPE svg PUBLIC "-//W3C//DTD SVG 1.1//EN"
  "http://www.w3.org/Graphics/SVG/1.1/DTD/svg11.dtd">
<svg xmlns:xlink="http://www.w3.org/1999/xlink" width="2023.2pt" height="1234.08pt" viewBox="0 0 2023.2 1234.08" xmlns="http://www.w3.org/2000/svg" version="1.1">
 <metadata>
  <rdf:RDF xmlns:dc="http://purl.org/dc/elements/1.1/" xmlns:cc="http://creativecommons.org/ns#" xmlns:rdf="http://www.w3.org/1999/02/22-rdf-syntax-ns#">
   <cc:Work>
    <dc:type rdf:resource="http://purl.org/dc/dcmitype/StillImage"/>
    <dc:date>2025-10-20T20:22:15.163604</dc:date>
    <dc:format>image/svg+xml</dc:format>
    <dc:creator>
     <cc:Agent>
      <dc:title>Matplotlib v3.10.1, https://matplotlib.org/</dc:title>
     </cc:Agent>
    </dc:creator>
   </cc:Work>
  </rdf:RDF>
 </metadata>
 <defs>
  <style type="text/css">*{stroke-linejoin: round; stroke-linecap: butt}</style>
 </defs>
 <g id="figure_1">
  <g id="patch_1">
   <path d="M 0 1234.08 
L 2023.2 1234.08 
L 2023.2 0 
L 0 0 
z
" style="fill: #ffffff"/>
  </g>
  <g id="axes_1">
   <g id="text_1">
    <!-- Xi Jinping -->
    <g style="fill: #ffffff" transform="translate(828.855313 300.126125) scale(0.68 -0.68)">
     <defs>
      <path id="DejaVuSans-Bold-58" d="M 3188 2381 
L 4806 0 
L 3553 0 
L 2463 1594 
L 1381 0 
L 122 0 
L 1741 2381 
L 184 4666 
L 1441 4666 
L 2463 3163 
L 3481 4666 
L 4744 4666 
L 3188 2381 
z
" transform="scale(0.015625)"/>
      <path id="DejaVuSans-Bold-69" d="M 538 3500 
L 1656 3500 
L 1656 0 
L 538 0 
L 538 3500 
z
M 538 4863 
L 1656 4863 
L 1656 3950 
L 538 3950 
L 538 4863 
z
" transform="scale(0.015625)"/>
      <path id="DejaVuSans-Bold-20" transform="scale(0.015625)"/>
      <path id="DejaVuSans-Bold-4a" d="M 588 4666 
L 1791 4666 
L 1791 453 
Q 1791 -419 1317 -850 
Q 844 -1281 -116 -1281 
L -359 -1281 
L -359 -372 
L -172 -372 
Q 203 -372 395 -162 
Q 588 47 588 453 
L 588 4666 
z
" transform="scale(0.015625)"/>
      <path id="DejaVuSans-Bold-6e" d="M 4056 2131 
L 4056 0 
L 2931 0 
L 2931 347 
L 2931 1631 
Q 2931 2084 2911 2256 
Q 2891 2428 2841 2509 
Q 2775 2619 2662 2680 
Q 2550 2741 2406 2741 
Q 2056 2741 1856 2470 
Q 1656 2200 1656 1722 
L 1656 0 
L 538 0 
L 538 3500 
L 1656 3500 
L 1656 2988 
Q 1909 3294 2193 3439 
Q 2478 3584 2822 3584 
Q 3428 3584 3742 3212 
Q 4056 2841 4056 2131 
z
" transform="scale(0.015625)"/>
      <path id="DejaVuSans-Bold-70" d="M 1656 506 
L 1656 -1331 
L 538 -1331 
L 538 3500 
L 1656 3500 
L 1656 2988 
Q 1888 3294 2169 3439 
Q 2450 3584 2816 3584 
Q 3463 3584 3878 3070 
Q 4294 2556 4294 1747 
Q 4294 938 3878 423 
Q 3463 -91 2816 -91 
Q 2450 -91 2169 54 
Q 1888 200 1656 506 
z
M 2400 2772 
Q 2041 2772 1848 2508 
Q 1656 2244 1656 1747 
Q 1656 1250 1848 986 
Q 2041 722 2400 722 
Q 2759 722 2948 984 
Q 3138 1247 3138 1747 
Q 3138 2247 2948 2509 
Q 2759 2772 2400 2772 
z
" transform="scale(0.015625)"/>
      <path id="DejaVuSans-Bold-67" d="M 2919 594 
Q 2688 288 2409 144 
Q 2131 0 1766 0 
Q 1125 0 706 504 
Q 288 1009 288 1791 
Q 288 2575 706 3076 
Q 1125 3578 1766 3578 
Q 2131 3578 2409 3434 
Q 2688 3291 2919 2981 
L 2919 3500 
L 4044 3500 
L 4044 353 
Q 4044 -491 3511 -936 
Q 2978 -1381 1966 -1381 
Q 1638 -1381 1331 -1331 
Q 1025 -1281 716 -1178 
L 716 -306 
Q 1009 -475 1290 -558 
Q 1572 -641 1856 -641 
Q 2406 -641 2662 -400 
Q 2919 -159 2919 353 
L 2919 594 
z
M 2181 2772 
Q 1834 2772 1640 2515 
Q 1447 2259 1447 1791 
Q 1447 1309 1634 1061 
Q 1822 813 2181 813 
Q 2531 813 2725 1069 
Q 2919 1325 2919 1791 
Q 2919 2259 2725 2515 
Q 2531 2772 2181 2772 
z
" transform="scale(0.015625)"/>
     </defs>
     <use xlink:href="#DejaVuSans-Bold-58"/>
     <use xlink:href="#DejaVuSans-Bold-69" transform="translate(77.099609 0)"/>
     <use xlink:href="#DejaVuSans-Bold-20" transform="translate(111.376953 0)"/>
     <use xlink:href="#DejaVuSans-Bold-4a" transform="translate(146.191406 0)"/>
     <use xlink:href="#DejaVuSans-Bold-69" transform="translate(183.398438 0)"/>
     <use xlink:href="#DejaVuSans-Bold-6e" transform="translate(217.675781 0)"/>
     <use xlink:href="#DejaVuSans-Bold-70" transform="translate(288.867188 0)"/>
     <use xlink:href="#DejaVuSans-Bold-69" transform="translate(360.449219 0)"/>
     <use xlink:href="#DejaVuSans-Bold-6e" transform="translate(394.726562 0)"/>
     <use xlink:href="#DejaVuSans-Bold-67" transform="translate(465.917969 0)"/>
    </g>
   </g>
   <g id="text_2">
    <!-- Party • Military • State Council -->
    <g style="fill: #ffffff" transform="translate(504.177031 602.325812) scale(0.58 -0.58)">
     <defs>
      <path id="DejaVuSans-Bold-50" d="M 588 4666 
L 2584 4666 
Q 3475 4666 3951 4270 
Q 4428 3875 4428 3144 
Q 4428 2409 3951 2014 
Q 3475 1619 2584 1619 
L 1791 1619 
L 1791 0 
L 588 0 
L 588 4666 
z
M 1791 3794 
L 1791 2491 
L 2456 2491 
Q 2806 2491 2997 2661 
Q 3188 2831 3188 3144 
Q 3188 3456 2997 3625 
Q 2806 3794 2456 3794 
L 1791 3794 
z
" transform="scale(0.015625)"/>
      <path id="DejaVuSans-Bold-61" d="M 2106 1575 
Q 1756 1575 1579 1456 
Q 1403 1338 1403 1106 
Q 1403 894 1545 773 
Q 1688 653 1941 653 
Q 2256 653 2472 879 
Q 2688 1106 2688 1447 
L 2688 1575 
L 2106 1575 
z
M 3816 1997 
L 3816 0 
L 2688 0 
L 2688 519 
Q 2463 200 2181 54 
Q 1900 -91 1497 -91 
Q 953 -91 614 226 
Q 275 544 275 1050 
Q 275 1666 698 1953 
Q 1122 2241 2028 2241 
L 2688 2241 
L 2688 2328 
Q 2688 2594 2478 2717 
Q 2269 2841 1825 2841 
Q 1466 2841 1156 2769 
Q 847 2697 581 2553 
L 581 3406 
Q 941 3494 1303 3539 
Q 1666 3584 2028 3584 
Q 2975 3584 3395 3211 
Q 3816 2838 3816 1997 
z
" transform="scale(0.015625)"/>
      <path id="DejaVuSans-Bold-72" d="M 3138 2547 
Q 2991 2616 2845 2648 
Q 2700 2681 2553 2681 
Q 2122 2681 1889 2404 
Q 1656 2128 1656 1613 
L 1656 0 
L 538 0 
L 538 3500 
L 1656 3500 
L 1656 2925 
Q 1872 3269 2151 3426 
Q 2431 3584 2822 3584 
Q 2878 3584 2943 3579 
Q 3009 3575 3134 3559 
L 3138 2547 
z
" transform="scale(0.015625)"/>
      <path id="DejaVuSans-Bold-74" d="M 1759 4494 
L 1759 3500 
L 2913 3500 
L 2913 2700 
L 1759 2700 
L 1759 1216 
Q 1759 972 1856 886 
Q 1953 800 2241 800 
L 2816 800 
L 2816 0 
L 1856 0 
Q 1194 0 917 276 
Q 641 553 641 1216 
L 641 2700 
L 84 2700 
L 84 3500 
L 641 3500 
L 641 4494 
L 1759 4494 
z
" transform="scale(0.015625)"/>
      <path id="DejaVuSans-Bold-79" d="M 78 3500 
L 1197 3500 
L 2138 1125 
L 2938 3500 
L 4056 3500 
L 2584 -331 
Q 2363 -916 2067 -1148 
Q 1772 -1381 1288 -1381 
L 641 -1381 
L 641 -647 
L 991 -647 
Q 1275 -647 1404 -556 
Q 1534 -466 1606 -231 
L 1638 -134 
L 78 3500 
z
" transform="scale(0.015625)"/>
      <path id="DejaVuSans-Bold-2022" d="M 922 2381 
Q 922 2613 1005 2816 
Q 1088 3019 1247 3175 
Q 1413 3334 1616 3417 
Q 1819 3500 2047 3500 
Q 2275 3500 2479 3415 
Q 2684 3331 2841 3175 
Q 3003 3013 3086 2811 
Q 3169 2609 3169 2381 
Q 3169 2150 3084 1945 
Q 3000 1741 2841 1581 
Q 2681 1422 2476 1337 
Q 2272 1253 2041 1253 
Q 1813 1253 1609 1337 
Q 1406 1422 1247 1581 
Q 1091 1741 1006 1945 
Q 922 2150 922 2381 
z
" transform="scale(0.015625)"/>
      <path id="DejaVuSans-Bold-4d" d="M 588 4666 
L 2119 4666 
L 3181 2169 
L 4250 4666 
L 5778 4666 
L 5778 0 
L 4641 0 
L 4641 3413 
L 3566 897 
L 2803 897 
L 1728 3413 
L 1728 0 
L 588 0 
L 588 4666 
z
" transform="scale(0.015625)"/>
      <path id="DejaVuSans-Bold-6c" d="M 538 4863 
L 1656 4863 
L 1656 0 
L 538 0 
L 538 4863 
z
" transform="scale(0.015625)"/>
      <path id="DejaVuSans-Bold-53" d="M 3834 4519 
L 3834 3531 
Q 3450 3703 3084 3790 
Q 2719 3878 2394 3878 
Q 1963 3878 1756 3759 
Q 1550 3641 1550 3391 
Q 1550 3203 1689 3098 
Q 1828 2994 2194 2919 
L 2706 2816 
Q 3484 2659 3812 2340 
Q 4141 2022 4141 1434 
Q 4141 663 3683 286 
Q 3225 -91 2284 -91 
Q 1841 -91 1394 -6 
Q 947 78 500 244 
L 500 1259 
Q 947 1022 1364 901 
Q 1781 781 2169 781 
Q 2563 781 2772 912 
Q 2981 1044 2981 1288 
Q 2981 1506 2839 1625 
Q 2697 1744 2272 1838 
L 1806 1941 
Q 1106 2091 782 2419 
Q 459 2747 459 3303 
Q 459 4000 909 4375 
Q 1359 4750 2203 4750 
Q 2588 4750 2994 4692 
Q 3400 4634 3834 4519 
z
" transform="scale(0.015625)"/>
      <path id="DejaVuSans-Bold-65" d="M 4031 1759 
L 4031 1441 
L 1416 1441 
Q 1456 1047 1700 850 
Q 1944 653 2381 653 
Q 2734 653 3104 758 
Q 3475 863 3866 1075 
L 3866 213 
Q 3469 63 3072 -14 
Q 2675 -91 2278 -91 
Q 1328 -91 801 392 
Q 275 875 275 1747 
Q 275 2603 792 3093 
Q 1309 3584 2216 3584 
Q 3041 3584 3536 3087 
Q 4031 2591 4031 1759 
z
M 2881 2131 
Q 2881 2450 2695 2645 
Q 2509 2841 2209 2841 
Q 1884 2841 1681 2658 
Q 1478 2475 1428 2131 
L 2881 2131 
z
" transform="scale(0.015625)"/>
      <path id="DejaVuSans-Bold-43" d="M 4288 256 
Q 3956 84 3597 -3 
Q 3238 -91 2847 -91 
Q 1681 -91 1000 561 
Q 319 1213 319 2328 
Q 319 3447 1000 4098 
Q 1681 4750 2847 4750 
Q 3238 4750 3597 4662 
Q 3956 4575 4288 4403 
L 4288 3438 
Q 3953 3666 3628 3772 
Q 3303 3878 2944 3878 
Q 2300 3878 1931 3465 
Q 1563 3053 1563 2328 
Q 1563 1606 1931 1193 
Q 2300 781 2944 781 
Q 3303 781 3628 887 
Q 3953 994 4288 1222 
L 4288 256 
z
" transform="scale(0.015625)"/>
      <path id="DejaVuSans-Bold-6f" d="M 2203 2784 
Q 1831 2784 1636 2517 
Q 1441 2250 1441 1747 
Q 1441 1244 1636 976 
Q 1831 709 2203 709 
Q 2569 709 2762 976 
Q 2956 1244 2956 1747 
Q 2956 2250 2762 2517 
Q 2569 2784 2203 2784 
z
M 2203 3584 
Q 3106 3584 3614 3096 
Q 4122 2609 4122 1747 
Q 4122 884 3614 396 
Q 3106 -91 2203 -91 
Q 1297 -91 786 396 
Q 275 884 275 1747 
Q 275 2609 786 3096 
Q 1297 3584 2203 3584 
z
" transform="scale(0.015625)"/>
      <path id="DejaVuSans-Bold-75" d="M 500 1363 
L 500 3500 
L 1625 3500 
L 1625 3150 
Q 1625 2866 1622 2436 
Q 1619 2006 1619 1863 
Q 1619 1441 1641 1255 
Q 1663 1069 1716 984 
Q 1784 875 1895 815 
Q 2006 756 2150 756 
Q 2500 756 2700 1025 
Q 2900 1294 2900 1772 
L 2900 3500 
L 4019 3500 
L 4019 0 
L 2900 0 
L 2900 506 
Q 2647 200 2364 54 
Q 2081 -91 1741 -91 
Q 1134 -91 817 281 
Q 500 653 500 1363 
z
" transform="scale(0.015625)"/>
      <path id="DejaVuSans-Bold-63" d="M 3366 3391 
L 3366 2478 
Q 3138 2634 2908 2709 
Q 2678 2784 2431 2784 
Q 1963 2784 1702 2511 
Q 1441 2238 1441 1747 
Q 1441 1256 1702 982 
Q 1963 709 2431 709 
Q 2694 709 2930 787 
Q 3166 866 3366 1019 
L 3366 103 
Q 3103 6 2833 -42 
Q 2563 -91 2291 -91 
Q 1344 -91 809 395 
Q 275 881 275 1747 
Q 275 2613 809 3098 
Q 1344 3584 2291 3584 
Q 2566 3584 2833 3536 
Q 3100 3488 3366 3391 
z
" transform="scale(0.015625)"/>
     </defs>
     <use xlink:href="#DejaVuSans-Bold-50"/>
     <use xlink:href="#DejaVuSans-Bold-61" transform="translate(70.666016 0)"/>
     <use xlink:href="#DejaVuSans-Bold-72" transform="translate(138.146484 0)"/>
     <use xlink:href="#DejaVuSans-Bold-74" transform="translate(187.462891 0)"/>
     <use xlink:href="#DejaVuSans-Bold-79" transform="translate(235.265625 0)"/>
     <use xlink:href="#DejaVuSans-Bold-20" transform="translate(300.451172 0)"/>
     <use xlink:href="#DejaVuSans-Bold-2022" transform="translate(335.265625 0)"/>
     <use xlink:href="#DejaVuSans-Bold-20" transform="translate(399.181641 0)"/>
     <use xlink:href="#DejaVuSans-Bold-4d" transform="translate(433.996094 0)"/>
     <use xlink:href="#DejaVuSans-Bold-69" transform="translate(533.507812 0)"/>
     <use xlink:href="#DejaVuSans-Bold-6c" transform="translate(567.785156 0)"/>
     <use xlink:href="#DejaVuSans-Bold-69" transform="translate(602.0625 0)"/>
     <use xlink:href="#DejaVuSans-Bold-74" transform="translate(636.339844 0)"/>
     <use xlink:href="#DejaVuSans-Bold-61" transform="translate(684.142578 0)"/>
     <use xlink:href="#DejaVuSans-Bold-72" transform="translate(751.623047 0)"/>
     <use xlink:href="#DejaVuSans-Bold-79" transform="translate(800.939453 0)"/>
     <use xlink:href="#DejaVuSans-Bold-20" transform="translate(866.125 0)"/>
     <use xlink:href="#DejaVuSans-Bold-2022" transform="translate(900.939453 0)"/>
     <use xlink:href="#DejaVuSans-Bold-20" transform="translate(964.855469 0)"/>
     <use xlink:href="#DejaVuSans-Bold-53" transform="translate(999.669922 0)"/>
     <use xlink:href="#DejaVuSans-Bold-74" transform="translate(1071.691406 0)"/>
     <use xlink:href="#DejaVuSans-Bold-61" transform="translate(1119.494141 0)"/>
     <use xlink:href="#DejaVuSans-Bold-74" transform="translate(1186.974609 0)"/>
     <use xlink:href="#DejaVuSans-Bold-65" transform="translate(1234.777344 0)"/>
     <use xlink:href="#DejaVuSans-Bold-20" transform="translate(1302.599609 0)"/>
     <use xlink:href="#DejaVuSans-Bold-43" transform="translate(1337.414062 0)"/>
     <use xlink:href="#DejaVuSans-Bold-6f" transform="translate(1410.802734 0)"/>
     <use xlink:href="#DejaVuSans-Bold-75" transform="translate(1479.503906 0)"/>
     <use xlink:href="#DejaVuSans-Bold-6e" transform="translate(1550.695312 0)"/>
     <use xlink:href="#DejaVuSans-Bold-63" transform="translate(1621.886719 0)"/>
     <use xlink:href="#DejaVuSans-Bold-69" transform="translate(1681.164062 0)"/>
     <use xlink:href="#DejaVuSans-Bold-6c" transform="translate(1715.441406 0)"/>
    </g>
   </g>
   <g id="text_3">
    <!-- Ministries • Universities • SOEs • Private Companies -->
    <g style="fill: #ffffff" transform="translate(208.780313 906.368625) scale(0.54 -0.54)">
     <defs>
      <path id="DejaVuSans-Bold-73" d="M 3272 3391 
L 3272 2541 
Q 2913 2691 2578 2766 
Q 2244 2841 1947 2841 
Q 1628 2841 1473 2761 
Q 1319 2681 1319 2516 
Q 1319 2381 1436 2309 
Q 1553 2238 1856 2203 
L 2053 2175 
Q 2913 2066 3209 1816 
Q 3506 1566 3506 1031 
Q 3506 472 3093 190 
Q 2681 -91 1863 -91 
Q 1516 -91 1145 -36 
Q 775 19 384 128 
L 384 978 
Q 719 816 1070 734 
Q 1422 653 1784 653 
Q 2113 653 2278 743 
Q 2444 834 2444 1013 
Q 2444 1163 2330 1236 
Q 2216 1309 1875 1350 
L 1678 1375 
Q 931 1469 631 1722 
Q 331 1975 331 2491 
Q 331 3047 712 3315 
Q 1094 3584 1881 3584 
Q 2191 3584 2531 3537 
Q 2872 3491 3272 3391 
z
" transform="scale(0.015625)"/>
      <path id="DejaVuSans-Bold-55" d="M 588 4666 
L 1791 4666 
L 1791 1869 
Q 1791 1291 1980 1042 
Q 2169 794 2597 794 
Q 3028 794 3217 1042 
Q 3406 1291 3406 1869 
L 3406 4666 
L 4609 4666 
L 4609 1869 
Q 4609 878 4112 393 
Q 3616 -91 2597 -91 
Q 1581 -91 1084 393 
Q 588 878 588 1869 
L 588 4666 
z
" transform="scale(0.015625)"/>
      <path id="DejaVuSans-Bold-76" d="M 97 3500 
L 1216 3500 
L 2088 1081 
L 2956 3500 
L 4078 3500 
L 2700 0 
L 1472 0 
L 97 3500 
z
" transform="scale(0.015625)"/>
      <path id="DejaVuSans-Bold-4f" d="M 2719 3878 
Q 2169 3878 1866 3472 
Q 1563 3066 1563 2328 
Q 1563 1594 1866 1187 
Q 2169 781 2719 781 
Q 3272 781 3575 1187 
Q 3878 1594 3878 2328 
Q 3878 3066 3575 3472 
Q 3272 3878 2719 3878 
z
M 2719 4750 
Q 3844 4750 4481 4106 
Q 5119 3463 5119 2328 
Q 5119 1197 4481 553 
Q 3844 -91 2719 -91 
Q 1597 -91 958 553 
Q 319 1197 319 2328 
Q 319 3463 958 4106 
Q 1597 4750 2719 4750 
z
" transform="scale(0.015625)"/>
      <path id="DejaVuSans-Bold-45" d="M 588 4666 
L 3834 4666 
L 3834 3756 
L 1791 3756 
L 1791 2888 
L 3713 2888 
L 3713 1978 
L 1791 1978 
L 1791 909 
L 3903 909 
L 3903 0 
L 588 0 
L 588 4666 
z
" transform="scale(0.015625)"/>
      <path id="DejaVuSans-Bold-6d" d="M 3781 2919 
Q 3994 3244 4286 3414 
Q 4578 3584 4928 3584 
Q 5531 3584 5847 3212 
Q 6163 2841 6163 2131 
L 6163 0 
L 5038 0 
L 5038 1825 
Q 5041 1866 5042 1909 
Q 5044 1953 5044 2034 
Q 5044 2406 4934 2573 
Q 4825 2741 4581 2741 
Q 4263 2741 4089 2478 
Q 3916 2216 3909 1719 
L 3909 0 
L 2784 0 
L 2784 1825 
Q 2784 2406 2684 2573 
Q 2584 2741 2328 2741 
Q 2006 2741 1831 2477 
Q 1656 2213 1656 1722 
L 1656 0 
L 531 0 
L 531 3500 
L 1656 3500 
L 1656 2988 
Q 1863 3284 2130 3434 
Q 2397 3584 2719 3584 
Q 3081 3584 3359 3409 
Q 3638 3234 3781 2919 
z
" transform="scale(0.015625)"/>
     </defs>
     <use xlink:href="#DejaVuSans-Bold-4d"/>
     <use xlink:href="#DejaVuSans-Bold-69" transform="translate(99.511719 0)"/>
     <use xlink:href="#DejaVuSans-Bold-6e" transform="translate(133.789062 0)"/>
     <use xlink:href="#DejaVuSans-Bold-69" transform="translate(204.980469 0)"/>
     <use xlink:href="#DejaVuSans-Bold-73" transform="translate(239.257812 0)"/>
     <use xlink:href="#DejaVuSans-Bold-74" transform="translate(298.779297 0)"/>
     <use xlink:href="#DejaVuSans-Bold-72" transform="translate(346.582031 0)"/>
     <use xlink:href="#DejaVuSans-Bold-69" transform="translate(395.898438 0)"/>
     <use xlink:href="#DejaVuSans-Bold-65" transform="translate(430.175781 0)"/>
     <use xlink:href="#DejaVuSans-Bold-73" transform="translate(497.998047 0)"/>
     <use xlink:href="#DejaVuSans-Bold-20" transform="translate(557.519531 0)"/>
     <use xlink:href="#DejaVuSans-Bold-2022" transform="translate(592.333984 0)"/>
     <use xlink:href="#DejaVuSans-Bold-20" transform="translate(656.25 0)"/>
     <use xlink:href="#DejaVuSans-Bold-55" transform="translate(691.064453 0)"/>
     <use xlink:href="#DejaVuSans-Bold-6e" transform="translate(772.265625 0)"/>
     <use xlink:href="#DejaVuSans-Bold-69" transform="translate(843.457031 0)"/>
     <use xlink:href="#DejaVuSans-Bold-76" transform="translate(877.734375 0)"/>
     <use xlink:href="#DejaVuSans-Bold-65" transform="translate(942.919922 0)"/>
     <use xlink:href="#DejaVuSans-Bold-72" transform="translate(1010.742188 0)"/>
     <use xlink:href="#DejaVuSans-Bold-73" transform="translate(1060.058594 0)"/>
     <use xlink:href="#DejaVuSans-Bold-69" transform="translate(1119.580078 0)"/>
     <use xlink:href="#DejaVuSans-Bold-74" transform="translate(1153.857422 0)"/>
     <use xlink:href="#DejaVuSans-Bold-69" transform="translate(1201.660156 0)"/>
     <use xlink:href="#DejaVuSans-Bold-65" transform="translate(1235.9375 0)"/>
     <use xlink:href="#DejaVuSans-Bold-73" transform="translate(1303.759766 0)"/>
     <use xlink:href="#DejaVuSans-Bold-20" transform="translate(1363.28125 0)"/>
     <use xlink:href="#DejaVuSans-Bold-2022" transform="translate(1398.095703 0)"/>
     <use xlink:href="#DejaVuSans-Bold-20" transform="translate(1462.011719 0)"/>
     <use xlink:href="#DejaVuSans-Bold-53" transform="translate(1496.826172 0)"/>
     <use xlink:href="#DejaVuSans-Bold-4f" transform="translate(1568.847656 0)"/>
     <use xlink:href="#DejaVuSans-Bold-45" transform="translate(1653.857422 0)"/>
     <use xlink:href="#DejaVuSans-Bold-73" transform="translate(1722.167969 0)"/>
     <use xlink:href="#DejaVuSans-Bold-20" transform="translate(1781.689453 0)"/>
     <use xlink:href="#DejaVuSans-Bold-2022" transform="translate(1816.503906 0)"/>
     <use xlink:href="#DejaVuSans-Bold-20" transform="translate(1880.419922 0)"/>
     <use xlink:href="#DejaVuSans-Bold-50" transform="translate(1915.234375 0)"/>
     <use xlink:href="#DejaVuSans-Bold-72" transform="translate(1988.525391 0)"/>
     <use xlink:href="#DejaVuSans-Bold-69" transform="translate(2037.841797 0)"/>
     <use xlink:href="#DejaVuSans-Bold-76" transform="translate(2072.119141 0)"/>
     <use xlink:href="#DejaVuSans-Bold-61" transform="translate(2137.304688 0)"/>
     <use xlink:href="#DejaVuSans-Bold-74" transform="translate(2204.785156 0)"/>
     <use xlink:href="#DejaVuSans-Bold-65" transform="translate(2252.587891 0)"/>
     <use xlink:href="#DejaVuSans-Bold-20" transform="translate(2320.410156 0)"/>
     <use xlink:href="#DejaVuSans-Bold-43" transform="translate(2355.224609 0)"/>
     <use xlink:href="#DejaVuSans-Bold-6f" transform="translate(2428.613281 0)"/>
     <use xlink:href="#DejaVuSans-Bold-6d" transform="translate(2497.314453 0)"/>
     <use xlink:href="#DejaVuSans-Bold-70" transform="translate(2601.513672 0)"/>
     <use xlink:href="#DejaVuSans-Bold-61" transform="translate(2673.095703 0)"/>
     <use xlink:href="#DejaVuSans-Bold-6e" transform="translate(2740.576172 0)"/>
     <use xlink:href="#DejaVuSans-Bold-69" transform="translate(2811.767578 0)"/>
     <use xlink:href="#DejaVuSans-Bold-65" transform="translate(2846.044922 0)"/>
     <use xlink:href="#DejaVuSans-Bold-73" transform="translate(2913.867188 0)"/>
    </g>
   </g>
   <g id="text_4">
    <!-- MCF Organization Structure -->
    <g style="fill: #2c3e50" transform="translate(476.753438 68.184) scale(0.68 -0.68)">
     <defs>
      <path id="DejaVuSans-Bold-46" d="M 588 4666 
L 3834 4666 
L 3834 3756 
L 1791 3756 
L 1791 2888 
L 3713 2888 
L 3713 1978 
L 1791 1978 
L 1791 0 
L 588 0 
L 588 4666 
z
" transform="scale(0.015625)"/>
      <path id="DejaVuSans-Bold-7a" d="M 366 3500 
L 3419 3500 
L 3419 2719 
L 1575 800 
L 3419 800 
L 3419 0 
L 288 0 
L 288 781 
L 2131 2700 
L 366 2700 
L 366 3500 
z
" transform="scale(0.015625)"/>
     </defs>
     <use xlink:href="#DejaVuSans-Bold-4d"/>
     <use xlink:href="#DejaVuSans-Bold-43" transform="translate(99.511719 0)"/>
     <use xlink:href="#DejaVuSans-Bold-46" transform="translate(172.900391 0)"/>
     <use xlink:href="#DejaVuSans-Bold-20" transform="translate(241.210938 0)"/>
     <use xlink:href="#DejaVuSans-Bold-4f" transform="translate(276.025391 0)"/>
     <use xlink:href="#DejaVuSans-Bold-72" transform="translate(361.035156 0)"/>
     <use xlink:href="#DejaVuSans-Bold-67" transform="translate(410.351562 0)"/>
     <use xlink:href="#DejaVuSans-Bold-61" transform="translate(481.933594 0)"/>
     <use xlink:href="#DejaVuSans-Bold-6e" transform="translate(549.414062 0)"/>
     <use xlink:href="#DejaVuSans-Bold-69" transform="translate(620.605469 0)"/>
     <use xlink:href="#DejaVuSans-Bold-7a" transform="translate(654.882812 0)"/>
     <use xlink:href="#DejaVuSans-Bold-61" transform="translate(713.085938 0)"/>
     <use xlink:href="#DejaVuSans-Bold-74" transform="translate(780.566406 0)"/>
     <use xlink:href="#DejaVuSans-Bold-69" transform="translate(828.369141 0)"/>
     <use xlink:href="#DejaVuSans-Bold-6f" transform="translate(862.646484 0)"/>
     <use xlink:href="#DejaVuSans-Bold-6e" transform="translate(931.347656 0)"/>
     <use xlink:href="#DejaVuSans-Bold-20" transform="translate(1002.539062 0)"/>
     <use xlink:href="#DejaVuSans-Bold-53" transform="translate(1037.353516 0)"/>
     <use xlink:href="#DejaVuSans-Bold-74" transform="translate(1109.375 0)"/>
     <use xlink:href="#DejaVuSans-Bold-72" transform="translate(1157.177734 0)"/>
     <use xlink:href="#DejaVuSans-Bold-75" transform="translate(1206.494141 0)"/>
     <use xlink:href="#DejaVuSans-Bold-63" transform="translate(1277.685547 0)"/>
     <use xlink:href="#DejaVuSans-Bold-74" transform="translate(1336.962891 0)"/>
     <use xlink:href="#DejaVuSans-Bold-75" transform="translate(1384.765625 0)"/>
     <use xlink:href="#DejaVuSans-Bold-72" transform="translate(1455.957031 0)"/>
     <use xlink:href="#DejaVuSans-Bold-65" transform="translate(1505.273438 0)"/>
    </g>
   </g>
   <g id="text_5">
    <!-- Top-down authority cascade -->
    <g style="fill: #7f8c8d" transform="translate(673.635 159.66) scale(0.48 -0.48)">
     <defs>
      <path id="DejaVuSans-Oblique-54" d="M 378 4666 
L 4325 4666 
L 4225 4134 
L 2559 4134 
L 1759 0 
L 1125 0 
L 1925 4134 
L 275 4134 
L 378 4666 
z
" transform="scale(0.015625)"/>
      <path id="DejaVuSans-Oblique-6f" d="M 1625 -91 
Q 1009 -91 651 289 
Q 294 669 294 1325 
Q 294 1706 417 2101 
Q 541 2497 738 2766 
Q 1047 3184 1428 3384 
Q 1809 3584 2291 3584 
Q 2888 3584 3255 3212 
Q 3622 2841 3622 2241 
Q 3622 1825 3500 1412 
Q 3378 1000 3181 728 
Q 2875 309 2494 109 
Q 2113 -91 1625 -91 
z
M 891 1344 
Q 891 869 1089 633 
Q 1288 397 1691 397 
Q 2269 397 2648 901 
Q 3028 1406 3028 2181 
Q 3028 2634 2825 2865 
Q 2622 3097 2228 3097 
Q 1903 3097 1650 2945 
Q 1397 2794 1197 2484 
Q 1050 2253 970 1956 
Q 891 1659 891 1344 
z
" transform="scale(0.015625)"/>
      <path id="DejaVuSans-Oblique-70" d="M 3175 2156 
Q 3175 2616 2975 2859 
Q 2775 3103 2400 3103 
Q 2144 3103 1911 2972 
Q 1678 2841 1497 2591 
Q 1319 2344 1212 1994 
Q 1106 1644 1106 1300 
Q 1106 863 1306 627 
Q 1506 391 1875 391 
Q 2147 391 2380 519 
Q 2613 647 2778 891 
Q 2956 1147 3065 1494 
Q 3175 1841 3175 2156 
z
M 1394 2969 
Q 1625 3272 1939 3428 
Q 2253 3584 2638 3584 
Q 3175 3584 3472 3232 
Q 3769 2881 3769 2247 
Q 3769 1728 3584 1258 
Q 3400 788 3053 416 
Q 2822 169 2531 39 
Q 2241 -91 1919 -91 
Q 1547 -91 1294 64 
Q 1041 219 916 525 
L 556 -1331 
L -19 -1331 
L 922 3500 
L 1497 3500 
L 1394 2969 
z
" transform="scale(0.015625)"/>
      <path id="DejaVuSans-Oblique-2d" d="M 391 2009 
L 2075 2009 
L 1978 1497 
L 288 1497 
L 391 2009 
z
" transform="scale(0.015625)"/>
      <path id="DejaVuSans-Oblique-64" d="M 2675 525 
Q 2444 222 2128 65 
Q 1813 -91 1428 -91 
Q 903 -91 598 267 
Q 294 625 294 1247 
Q 294 1766 478 2236 
Q 663 2706 1013 3078 
Q 1244 3325 1534 3454 
Q 1825 3584 2144 3584 
Q 2481 3584 2739 3421 
Q 2997 3259 3138 2956 
L 3513 4863 
L 4091 4863 
L 3144 0 
L 2566 0 
L 2675 525 
z
M 891 1350 
Q 891 897 1095 644 
Q 1300 391 1663 391 
Q 1931 391 2161 520 
Q 2391 650 2566 903 
Q 2750 1166 2856 1509 
Q 2963 1853 2963 2188 
Q 2963 2622 2758 2865 
Q 2553 3109 2194 3109 
Q 1922 3109 1687 2981 
Q 1453 2853 1288 2613 
Q 1106 2353 998 2009 
Q 891 1666 891 1350 
z
" transform="scale(0.015625)"/>
      <path id="DejaVuSans-Oblique-77" d="M 544 3500 
L 1113 3500 
L 1259 684 
L 2566 3500 
L 3231 3500 
L 3425 684 
L 4666 3500 
L 5241 3500 
L 3641 0 
L 2969 0 
L 2797 2900 
L 1459 0 
L 781 0 
L 544 3500 
z
" transform="scale(0.015625)"/>
      <path id="DejaVuSans-Oblique-6e" d="M 3566 2113 
L 3156 0 
L 2578 0 
L 2988 2091 
Q 3016 2238 3031 2350 
Q 3047 2463 3047 2528 
Q 3047 2791 2881 2937 
Q 2716 3084 2419 3084 
Q 1956 3084 1622 2776 
Q 1288 2469 1184 1941 
L 800 0 
L 225 0 
L 903 3500 
L 1478 3500 
L 1363 2950 
Q 1603 3253 1940 3418 
Q 2278 3584 2650 3584 
Q 3113 3584 3367 3334 
Q 3622 3084 3622 2631 
Q 3622 2519 3608 2391 
Q 3594 2263 3566 2113 
z
" transform="scale(0.015625)"/>
      <path id="DejaVuSans-Oblique-20" transform="scale(0.015625)"/>
      <path id="DejaVuSans-Oblique-61" d="M 3438 1997 
L 3047 0 
L 2472 0 
L 2578 531 
Q 2325 219 2001 64 
Q 1678 -91 1281 -91 
Q 834 -91 548 182 
Q 263 456 263 884 
Q 263 1497 752 1853 
Q 1241 2209 2100 2209 
L 2900 2209 
L 2931 2363 
Q 2938 2388 2941 2417 
Q 2944 2447 2944 2509 
Q 2944 2788 2717 2942 
Q 2491 3097 2081 3097 
Q 1800 3097 1504 3025 
Q 1209 2953 897 2809 
L 997 3341 
Q 1322 3463 1633 3523 
Q 1944 3584 2234 3584 
Q 2853 3584 3176 3315 
Q 3500 3047 3500 2534 
Q 3500 2431 3484 2292 
Q 3469 2153 3438 1997 
z
M 2816 1759 
L 2241 1759 
Q 1534 1759 1195 1570 
Q 856 1381 856 984 
Q 856 709 1029 553 
Q 1203 397 1509 397 
Q 1978 397 2328 733 
Q 2678 1069 2791 1631 
L 2816 1759 
z
" transform="scale(0.015625)"/>
      <path id="DejaVuSans-Oblique-75" d="M 428 1388 
L 838 3500 
L 1416 3500 
L 1006 1409 
Q 975 1256 961 1147 
Q 947 1038 947 966 
Q 947 700 1109 554 
Q 1272 409 1569 409 
Q 2031 409 2368 721 
Q 2706 1034 2809 1563 
L 3194 3500 
L 3769 3500 
L 3091 0 
L 2516 0 
L 2631 550 
Q 2388 244 2052 76 
Q 1716 -91 1338 -91 
Q 878 -91 622 161 
Q 366 413 366 863 
Q 366 956 381 1097 
Q 397 1238 428 1388 
z
" transform="scale(0.015625)"/>
      <path id="DejaVuSans-Oblique-74" d="M 2706 3500 
L 2619 3053 
L 1472 3053 
L 1100 1153 
Q 1081 1047 1072 975 
Q 1063 903 1063 863 
Q 1063 663 1183 572 
Q 1303 481 1569 481 
L 2150 481 
L 2053 0 
L 1503 0 
Q 991 0 739 200 
Q 488 400 488 806 
Q 488 878 497 964 
Q 506 1050 525 1153 
L 897 3053 
L 409 3053 
L 500 3500 
L 978 3500 
L 1172 4494 
L 1747 4494 
L 1556 3500 
L 2706 3500 
z
" transform="scale(0.015625)"/>
      <path id="DejaVuSans-Oblique-68" d="M 3566 2113 
L 3156 0 
L 2578 0 
L 2988 2091 
Q 3016 2238 3031 2350 
Q 3047 2463 3047 2528 
Q 3047 2791 2881 2937 
Q 2716 3084 2419 3084 
Q 1956 3084 1617 2771 
Q 1278 2459 1178 1941 
L 800 0 
L 225 0 
L 1172 4863 
L 1747 4863 
L 1375 2950 
Q 1594 3244 1934 3414 
Q 2275 3584 2650 3584 
Q 3113 3584 3367 3334 
Q 3622 3084 3622 2631 
Q 3622 2519 3608 2391 
Q 3594 2263 3566 2113 
z
" transform="scale(0.015625)"/>
      <path id="DejaVuSans-Oblique-72" d="M 2853 2969 
Q 2766 3016 2653 3041 
Q 2541 3066 2413 3066 
Q 1953 3066 1609 2717 
Q 1266 2369 1153 1784 
L 800 0 
L 225 0 
L 909 3500 
L 1484 3500 
L 1375 2956 
Q 1603 3259 1920 3421 
Q 2238 3584 2597 3584 
Q 2691 3584 2781 3573 
Q 2872 3563 2963 3538 
L 2853 2969 
z
" transform="scale(0.015625)"/>
      <path id="DejaVuSans-Oblique-69" d="M 1172 4863 
L 1747 4863 
L 1606 4134 
L 1031 4134 
L 1172 4863 
z
M 909 3500 
L 1484 3500 
L 800 0 
L 225 0 
L 909 3500 
z
" transform="scale(0.015625)"/>
      <path id="DejaVuSans-Oblique-79" d="M 1588 -325 
Q 1188 -997 936 -1164 
Q 684 -1331 294 -1331 
L -159 -1331 
L -63 -850 
L 269 -850 
Q 509 -850 678 -719 
Q 847 -588 1056 -206 
L 1234 128 
L 459 3500 
L 1069 3500 
L 1650 819 
L 3256 3500 
L 3859 3500 
L 1588 -325 
z
" transform="scale(0.015625)"/>
      <path id="DejaVuSans-Oblique-63" d="M 3431 3366 
L 3316 2797 
Q 3109 2947 2876 3022 
Q 2644 3097 2394 3097 
Q 2119 3097 1870 3000 
Q 1622 2903 1453 2725 
Q 1184 2453 1037 2087 
Q 891 1722 891 1331 
Q 891 859 1127 628 
Q 1363 397 1844 397 
Q 2081 397 2348 469 
Q 2616 541 2906 684 
L 2797 116 
Q 2547 13 2283 -39 
Q 2019 -91 1741 -91 
Q 1044 -91 669 257 
Q 294 606 294 1253 
Q 294 1797 489 2255 
Q 684 2713 1069 3078 
Q 1331 3328 1684 3456 
Q 2038 3584 2456 3584 
Q 2700 3584 2940 3529 
Q 3181 3475 3431 3366 
z
" transform="scale(0.015625)"/>
      <path id="DejaVuSans-Oblique-73" d="M 3200 3397 
L 3091 2853 
Q 2863 2978 2609 3040 
Q 2356 3103 2088 3103 
Q 1634 3103 1373 2948 
Q 1113 2794 1113 2528 
Q 1113 2219 1719 2053 
Q 1766 2041 1788 2034 
L 1972 1978 
Q 2547 1819 2739 1644 
Q 2931 1469 2931 1166 
Q 2931 609 2489 259 
Q 2047 -91 1331 -91 
Q 1053 -91 747 -37 
Q 441 16 72 128 
L 184 722 
Q 500 559 806 475 
Q 1113 391 1394 391 
Q 1816 391 2080 572 
Q 2344 753 2344 1031 
Q 2344 1331 1650 1516 
L 1591 1531 
L 1394 1581 
Q 956 1697 753 1886 
Q 550 2075 550 2369 
Q 550 2928 970 3256 
Q 1391 3584 2113 3584 
Q 2397 3584 2667 3537 
Q 2938 3491 3200 3397 
z
" transform="scale(0.015625)"/>
      <path id="DejaVuSans-Oblique-65" d="M 3078 2063 
Q 3088 2113 3092 2166 
Q 3097 2219 3097 2272 
Q 3097 2653 2873 2875 
Q 2650 3097 2266 3097 
Q 1838 3097 1509 2826 
Q 1181 2556 1013 2059 
L 3078 2063 
z
M 3578 1613 
L 903 1613 
Q 884 1494 878 1425 
Q 872 1356 872 1306 
Q 872 872 1139 634 
Q 1406 397 1894 397 
Q 2269 397 2603 481 
Q 2938 566 3225 728 
L 3116 159 
Q 2806 34 2476 -28 
Q 2147 -91 1806 -91 
Q 1078 -91 686 257 
Q 294 606 294 1247 
Q 294 1794 489 2264 
Q 684 2734 1063 3103 
Q 1306 3334 1642 3459 
Q 1978 3584 2356 3584 
Q 2950 3584 3301 3228 
Q 3653 2872 3653 2272 
Q 3653 2128 3634 1964 
Q 3616 1800 3578 1613 
z
" transform="scale(0.015625)"/>
     </defs>
     <use xlink:href="#DejaVuSans-Oblique-54"/>
     <use xlink:href="#DejaVuSans-Oblique-6f" transform="translate(48.708984 0)"/>
     <use xlink:href="#DejaVuSans-Oblique-70" transform="translate(109.890625 0)"/>
     <use xlink:href="#DejaVuSans-Oblique-2d" transform="translate(173.367188 0)"/>
     <use xlink:href="#DejaVuSans-Oblique-64" transform="translate(209.451172 0)"/>
     <use xlink:href="#DejaVuSans-Oblique-6f" transform="translate(272.927734 0)"/>
     <use xlink:href="#DejaVuSans-Oblique-77" transform="translate(334.109375 0)"/>
     <use xlink:href="#DejaVuSans-Oblique-6e" transform="translate(415.896484 0)"/>
     <use xlink:href="#DejaVuSans-Oblique-20" transform="translate(479.275391 0)"/>
     <use xlink:href="#DejaVuSans-Oblique-61" transform="translate(511.0625 0)"/>
     <use xlink:href="#DejaVuSans-Oblique-75" transform="translate(572.341797 0)"/>
     <use xlink:href="#DejaVuSans-Oblique-74" transform="translate(635.720703 0)"/>
     <use xlink:href="#DejaVuSans-Oblique-68" transform="translate(674.929688 0)"/>
     <use xlink:href="#DejaVuSans-Oblique-6f" transform="translate(738.308594 0)"/>
     <use xlink:href="#DejaVuSans-Oblique-72" transform="translate(799.490234 0)"/>
     <use xlink:href="#DejaVuSans-Oblique-69" transform="translate(840.603516 0)"/>
     <use xlink:href="#DejaVuSans-Oblique-74" transform="translate(868.386719 0)"/>
     <use xlink:href="#DejaVuSans-Oblique-79" transform="translate(907.595703 0)"/>
     <use xlink:href="#DejaVuSans-Oblique-20" transform="translate(966.775391 0)"/>
     <use xlink:href="#DejaVuSans-Oblique-63" transform="translate(998.5625 0)"/>
     <use xlink:href="#DejaVuSans-Oblique-61" transform="translate(1053.542969 0)"/>
     <use xlink:href="#DejaVuSans-Oblique-73" transform="translate(1114.822266 0)"/>
     <use xlink:href="#DejaVuSans-Oblique-63" transform="translate(1166.921875 0)"/>
     <use xlink:href="#DejaVuSans-Oblique-61" transform="translate(1221.902344 0)"/>
     <use xlink:href="#DejaVuSans-Oblique-64" transform="translate(1283.181641 0)"/>
     <use xlink:href="#DejaVuSans-Oblique-65" transform="translate(1346.658203 0)"/>
    </g>
   </g>
   <g id="text_6">
    <!-- Authority flows from top → All levels must comply -->
    <g style="fill: #e74c3c" transform="translate(309.564844 1135.404) scale(0.5 -0.5)">
     <defs>
      <path id="DejaVuSans-Bold-41" d="M 3419 850 
L 1538 850 
L 1241 0 
L 31 0 
L 1759 4666 
L 3194 4666 
L 4922 0 
L 3713 0 
L 3419 850 
z
M 1838 1716 
L 3116 1716 
L 2478 3572 
L 1838 1716 
z
" transform="scale(0.015625)"/>
      <path id="DejaVuSans-Bold-68" d="M 4056 2131 
L 4056 0 
L 2931 0 
L 2931 347 
L 2931 1625 
Q 2931 2084 2911 2256 
Q 2891 2428 2841 2509 
Q 2775 2619 2662 2680 
Q 2550 2741 2406 2741 
Q 2056 2741 1856 2470 
Q 1656 2200 1656 1722 
L 1656 0 
L 538 0 
L 538 4863 
L 1656 4863 
L 1656 2988 
Q 1909 3294 2193 3439 
Q 2478 3584 2822 3584 
Q 3428 3584 3742 3212 
Q 4056 2841 4056 2131 
z
" transform="scale(0.015625)"/>
      <path id="DejaVuSans-Bold-66" d="M 2841 4863 
L 2841 4128 
L 2222 4128 
Q 1984 4128 1890 4042 
Q 1797 3956 1797 3744 
L 1797 3500 
L 2753 3500 
L 2753 2700 
L 1797 2700 
L 1797 0 
L 678 0 
L 678 2700 
L 122 2700 
L 122 3500 
L 678 3500 
L 678 3744 
Q 678 4316 997 4589 
Q 1316 4863 1984 4863 
L 2841 4863 
z
" transform="scale(0.015625)"/>
      <path id="DejaVuSans-Bold-77" d="M 225 3500 
L 1313 3500 
L 1900 1088 
L 2491 3500 
L 3425 3500 
L 4013 1113 
L 4603 3500 
L 5691 3500 
L 4769 0 
L 3547 0 
L 2956 2406 
L 2369 0 
L 1147 0 
L 225 3500 
z
" transform="scale(0.015625)"/>
      <path id="DejaVuSans-Bold-2192" d="M 5050 2225 
L 5050 1788 
L 3822 559 
L 3369 1013 
L 3988 1631 
L 366 1631 
L 366 2381 
L 3988 2381 
L 3369 3000 
L 3822 3453 
L 5050 2225 
z
" transform="scale(0.015625)"/>
     </defs>
     <use xlink:href="#DejaVuSans-Bold-41"/>
     <use xlink:href="#DejaVuSans-Bold-75" transform="translate(77.392578 0)"/>
     <use xlink:href="#DejaVuSans-Bold-74" transform="translate(148.583984 0)"/>
     <use xlink:href="#DejaVuSans-Bold-68" transform="translate(196.386719 0)"/>
     <use xlink:href="#DejaVuSans-Bold-6f" transform="translate(267.578125 0)"/>
     <use xlink:href="#DejaVuSans-Bold-72" transform="translate(336.279297 0)"/>
     <use xlink:href="#DejaVuSans-Bold-69" transform="translate(385.595703 0)"/>
     <use xlink:href="#DejaVuSans-Bold-74" transform="translate(419.873047 0)"/>
     <use xlink:href="#DejaVuSans-Bold-79" transform="translate(467.675781 0)"/>
     <use xlink:href="#DejaVuSans-Bold-20" transform="translate(532.861328 0)"/>
     <use xlink:href="#DejaVuSans-Bold-66" transform="translate(567.675781 0)"/>
     <use xlink:href="#DejaVuSans-Bold-6c" transform="translate(611.181641 0)"/>
     <use xlink:href="#DejaVuSans-Bold-6f" transform="translate(645.458984 0)"/>
     <use xlink:href="#DejaVuSans-Bold-77" transform="translate(714.160156 0)"/>
     <use xlink:href="#DejaVuSans-Bold-73" transform="translate(806.542969 0)"/>
     <use xlink:href="#DejaVuSans-Bold-20" transform="translate(866.064453 0)"/>
     <use xlink:href="#DejaVuSans-Bold-66" transform="translate(900.878906 0)"/>
     <use xlink:href="#DejaVuSans-Bold-72" transform="translate(944.384766 0)"/>
     <use xlink:href="#DejaVuSans-Bold-6f" transform="translate(993.701172 0)"/>
     <use xlink:href="#DejaVuSans-Bold-6d" transform="translate(1062.402344 0)"/>
     <use xlink:href="#DejaVuSans-Bold-20" transform="translate(1166.601562 0)"/>
     <use xlink:href="#DejaVuSans-Bold-74" transform="translate(1201.416016 0)"/>
     <use xlink:href="#DejaVuSans-Bold-6f" transform="translate(1249.21875 0)"/>
     <use xlink:href="#DejaVuSans-Bold-70" transform="translate(1317.919922 0)"/>
     <use xlink:href="#DejaVuSans-Bold-20" transform="translate(1389.501953 0)"/>
     <use xlink:href="#DejaVuSans-Bold-2192" transform="translate(1424.316406 0)"/>
     <use xlink:href="#DejaVuSans-Bold-20" transform="translate(1508.105469 0)"/>
     <use xlink:href="#DejaVuSans-Bold-41" transform="translate(1542.919922 0)"/>
     <use xlink:href="#DejaVuSans-Bold-6c" transform="translate(1620.3125 0)"/>
     <use xlink:href="#DejaVuSans-Bold-6c" transform="translate(1654.589844 0)"/>
     <use xlink:href="#DejaVuSans-Bold-20" transform="translate(1688.867188 0)"/>
     <use xlink:href="#DejaVuSans-Bold-6c" transform="translate(1723.681641 0)"/>
     <use xlink:href="#DejaVuSans-Bold-65" transform="translate(1757.958984 0)"/>
     <use xlink:href="#DejaVuSans-Bold-76" transform="translate(1825.78125 0)"/>
     <use xlink:href="#DejaVuSans-Bold-65" transform="translate(1890.966797 0)"/>
     <use xlink:href="#DejaVuSans-Bold-6c" transform="translate(1958.789062 0)"/>
     <use xlink:href="#DejaVuSans-Bold-73" transform="translate(1993.066406 0)"/>
     <use xlink:href="#DejaVuSans-Bold-20" transform="translate(2052.587891 0)"/>
     <use xlink:href="#DejaVuSans-Bold-6d" transform="translate(2087.402344 0)"/>
     <use xlink:href="#DejaVuSans-Bold-75" transform="translate(2191.601562 0)"/>
     <use xlink:href="#DejaVuSans-Bold-73" transform="translate(2262.792969 0)"/>
     <use xlink:href="#DejaVuSans-Bold-74" transform="translate(2322.314453 0)"/>
     <use xlink:href="#DejaVuSans-Bold-20" transform="translate(2370.117188 0)"/>
     <use xlink:href="#DejaVuSans-Bold-63" transform="translate(2404.931641 0)"/>
     <use xlink:href="#DejaVuSans-Bold-6f" transform="translate(2464.208984 0)"/>
     <use xlink:href="#DejaVuSans-Bold-6d" transform="translate(2532.910156 0)"/>
     <use xlink:href="#DejaVuSans-Bold-70" transform="translate(2637.109375 0)"/>
     <use xlink:href="#DejaVuSans-Bold-6c" transform="translate(2708.691406 0)"/>
     <use xlink:href="#DejaVuSans-Bold-79" transform="translate(2742.96875 0)"/>
    </g>
   </g>
   <g id="patch_2">
    <path d="M 1011.6 375.100013 
Q 1011.6 525.561288 1011.6 667.078292 
" style="fill: none; stroke: #2c3e50; stroke-width: 8; stroke-linecap: round"/>
    <path d="M 1013.6 663.078292 
L 1011.6 667.078292 
L 1009.6 663.078292 
" style="fill: none; stroke: #2c3e50; stroke-width: 8; stroke-linecap: round"/>
   </g>
   <g id="patch_3">
    <path d="M 1011.6 680.020013 
Q 1011.6 830.481288 1011.6 971.998292 
" style="fill: none; stroke: #2c3e50; stroke-width: 8; stroke-linecap: round"/>
    <path d="M 1013.6 967.998292 
L 1011.6 971.998292 
L 1009.6 967.998292 
" style="fill: none; stroke: #2c3e50; stroke-width: 8; stroke-linecap: round"/>
   </g>
   <g id="patch_4">
    <path d="M 796.371429 385.3008 
L 1226.828571 385.3008 
Q 1241.177143 385.3008 1241.177143 373.104 
L 1241.177143 190.152 
Q 1241.177143 177.9552 1226.828571 177.9552 
L 796.371429 177.9552 
Q 782.022857 177.9552 782.022857 190.152 
L 782.022857 373.104 
Q 782.022857 385.3008 796.371429 385.3008 
z
" clip-path="url(#p7d414b10bc)" style="fill: #8b0000; stroke: #ffffff; stroke-width: 6; stroke-linejoin: miter"/>
   </g>
   <g id="patch_5">
    <path d="M 509.4 690.2208 
L 1513.8 690.2208 
Q 1528.148571 690.2208 1528.148571 678.024 
L 1528.148571 495.072 
Q 1528.148571 482.8752 1513.8 482.8752 
L 509.4 482.8752 
Q 495.051429 482.8752 495.051429 495.072 
L 495.051429 678.024 
Q 495.051429 690.2208 509.4 690.2208 
z
" clip-path="url(#p7d414b10bc)" style="fill: #c0392b; stroke: #ffffff; stroke-width: 6; stroke-linejoin: miter"/>
   </g>
   <g id="patch_6">
    <path d="M 222.428571 995.1408 
L 1800.771429 995.1408 
Q 1815.12 995.1408 1815.12 982.944 
L 1815.12 799.992 
Q 1815.12 787.7952 1800.771429 787.7952 
L 222.428571 787.7952 
Q 208.08 787.7952 208.08 799.992 
L 208.08 982.944 
Q 208.08 995.1408 222.428571 995.1408 
z
" clip-path="url(#p7d414b10bc)" style="fill: #e74c3c; stroke: #ffffff; stroke-width: 6; stroke-linejoin: miter"/>
   </g>
  </g>
 </g>
 <defs>
  <clipPath id="p7d414b10bc">
   <rect x="7.2" y="7.2" width="2008.8" height="1219.68"/>
  </clipPath>
 </defs>
</svg>
